<svg xmlns="http://www.w3.org/2000/svg" xmlns:xlink="http://www.w3.org/1999/xlink" viewBox="0 0 32 32">
    <defs>
        <linearGradient id="a" x1="-414.07" x2="-413.475" y1="-323.688" y2="-323.688" gradientTransform="rotate(-2.754 55095.274 -73583.23)scale(8.352)" gradientUnits="userSpaceOnUse">
            <stop offset="0" stop-color="#3dc2f3"/>
            <stop offset="1" stop-color="#fff"/>
        </linearGradient>
        <linearGradient xlink:href="#a" id="d" x1="-466.763" x2="-466.168" y1="-351.799" y2="-351.799" gradientTransform="rotate(176.688 -1581.368 -1116.272)scale(6.683)"/>
        <linearGradient xlink:href="#a" id="e" x1="-515.182" x2="-514.587" y1="-375.873" y2="-375.873" gradientTransform="rotate(179.7 -662.654 -481.327)scale(2.607)"/>
        <linearGradient id="b" x1="-413.465" x2="-412.869" y1="-322.372" y2="-322.372" gradientTransform="rotate(-1.63 93678.305 -123744.426)scale(8.403)" gradientUnits="userSpaceOnUse">
            <stop offset="0" stop-color="#0995dd"/>
            <stop offset="1" stop-color="#fff"/>
        </linearGradient>
        <linearGradient xlink:href="#a" id="f" x1="-515.182" x2="-514.587" y1="-373.034" y2="-373.034" gradientTransform="rotate(179.7 -662.63 -472.188)scale(2.607)"/>
        <linearGradient xlink:href="#b" id="g" x1="-415.664" x2="-415.069" y1="-321.968" y2="-321.968" gradientTransform="rotate(-7.749 19166.393 -28309.74)scale(8.752)"/>
        <linearGradient xlink:href="#a" id="i" x1="-397.199" x2="-396.604" y1="-317.443" y2="-317.443" gradientTransform="rotate(.719 -126538.107 155625.572)scale(4.876)"/>
        <radialGradient id="c" cx="-428.363" cy="-337.616" r=".076" gradientTransform="matrix(22.426 -.918 .944 23.053 9940.275 7417.533)" gradientUnits="userSpaceOnUse">
            <stop offset="0" stop-color="#fff"/>
            <stop offset="1" stop-color="#41c3f3"/>
        </radialGradient>
        <radialGradient xlink:href="#c" id="h" cx="-435.908" cy="-337.858" r=".076" gradientTransform="matrix(22.426 -.918 .944 23.053 10123.552 7416.068)"/>
    </defs>
    <title>file_type_zip2</title>
    <path d="m9.832 2 7.415.053a2 2 0 0 1 2.054.936l.67.819h5.672c.5.032.8.175.949.446a2.8 2.8 0 0 1 .092 1.046l.019.913c.008 1.534-.388 1.533-1.009 1.523l-1.31.017v11.741a8 8 0 0 1 .846.019c.621.011 1.19.005 1.191 1.366-.009.224-.017.45-.01.621a2.2 2.2 0 0 0 0 .569c-.032.5-.07.83-.3 1.047-.18.231-.487.312-.988.28-.277-.024-.516.021-.741.012l-.016 2.207c.105.031.225.007.33.039.156.045.329.04.419.121a1.43 1.43 0 0 1 1.124 1.4l1.952.113a.6.6 0 0 1 .227-.388.75.75 0 0 1 .524-.245l.053.015a.9.9 0 0 1 .79.8l-.015.053.012.741a.94.94 0 0 1-.286.6 1.2 1.2 0 0 1-.577.229.75.75 0 0 1-.546-.271.43.43 0 0 1-.148-.271l-2.082.134a1.6 1.6 0 0 1-.452.777 2.16 2.16 0 0 1-1.513.525l-2.9.011a2.42 2.42 0 0 1-1.585-.4 1.48 1.48 0 0 1-.482-.877l-3.2-.133a.52.52 0 0 1-.211.335.87.87 0 0 1-.577.23.75.75 0 0 1-.56-.219.87.87 0 0 1-.23-.577v-.794a.75.75 0 0 1 .271-.545.6.6 0 0 1 .577-.23.75.75 0 0 1 .56.219.43.43 0 0 1 .149.27l3.2-.264a1.93 1.93 0 0 1 .6-.9 2.4 2.4 0 0 1 1.274-.48l.016-2.208c-.292.028-.568 0-.913.019l-1.247 1.169a2.48 2.48 0 0 1-2.158.793c-1.19-.005-2.5.012-3.809.029-1.243-.02-2.484-.04-3.847-.038a3 3 0 0 1-1.144-.162 3.3 3.3 0 0 1-1.052-.872 6 6 0 0 1-.469-.533c-.127-.15-.253-.3-.469-.533a.8.8 0 0 1-.164-.218.47.47 0 0 1 .106-.367c.067-.037.15-.126.218-.163.172-.007.359-.066.532-.073 1.415.013 3.053.035 4.639.041s3.173.013 4.812.035a2.3 2.3 0 0 0 1-.333 5.4 5.4 0 0 0 .833-.722c.88-.88 2.044-1.96 2.837-1.957a.5.5 0 0 1 .277.023l.033-11.848h-.4a1.55 1.55 0 0 1-1.4-.634l-1.377-1.7c-.633-.75-.633-.75-1.546-.732L7.55 4.572c-.517.02-1.429.04-.805-.744l.827-.9a3.1 3.1 0 0 1 1.088-.813A5 5 0 0 1 9.828 2" style="fill:#2e2a2b"/>
    <path d="m15.366 27.055-.005.018-.041.007-.041.007-.018-.007-.082.015-.018-.007-.128.04-.028.03-.041.007-.016.054-.046.025-.018-.007-.016.054-.016.054-.016.054-.016.054-.016.054-.016.054-.016.054.022.123-.005.018-.01.035.022.123-.016.054.012.158-.016.054-.016.054.031.028.008.041-.016.054-.016.054.048.033-.01.035.038.069.043.051-.005.018.054.015.038.069.054.015c.028.051.092.068.173.07h.077l.082-.015a.5.5 0 0 0 .164-.03l.051-.044.018.007.016-.054.085-.092.016-.054.016-.054.016-.054.016-.054.016-.054.01-.035-.038-.069.031-.107-.017-.141.026-.089-.022-.123.016-.054.016-.054-.038-.069.016-.054.01-.035-.031-.028-.008-.041-.013-.023-.025-.046-.038-.069-.02-.064-.054-.015-.145-.1-.089-.026Z" style="fill:url(#c)"/>
    <path d="m19.234 27.352-.123.023-.053-.015-.123.022-.159.012-.053-.015-.123.023-.123.022-.122.023-.108-.032-.117.004-.105.028-.053-.015-.123.022-.177.008-.053-.016-.123.023-.123.022-.053-.015-.159.012-.122.023-.054-.016-.123.023-.122.022-.108-.031-.122.022-.105.028-.006.018-.063.02-.054-.015-.176.007-.021.672.069-.039.09.026.122-.022.054.015.053.015.177-.007.053.015.054.016.123-.023.053.016.089.026.123-.023.054.015.176-.007.054.016.053.015.123-.023.054.016.107.031.105-.028.053.016.123-.023.107.031.054.016.122-.023.054.016.053.015.159-.012.054.015.053.015.117-.004.108.031.122-.022.054.015.054.015.122-.022.007-1.024-.054-.016z" style="fill:url(#a)"/>
    <path d="M24.59 26.043a1 1 0 0 1-.176.007c-.1-.03-.162-.047-.23-.007l-.054-.015-.054-.015-.335.019-.176.007-.176.007-.158.012-.337-.039-.353.014-.158.012-.176.007-.176.007-.367-.068-.354.009-.123.022-.054-.015-.064.02h-.059a1.3 1.3 0 0 0-.3.088 1 1 0 0 0-.174.066l-.087.033a.4.4 0 0 0-.156.071l-.074.056-.11.045-.016.054c-.053-.015-.071.038-.138.076l-.044.084-.033.048-.09.11-.01.035a1 1 0 0 0-.124.429l-.018 1.2A1.13 1.13 0 0 0 19.8 29l.007.041c.037.067.06.134.165.164l.079.061.084.044a.6.6 0 0 0 .15.082l.031.028.071.021.089.026c.1.03.215.006.319.034s.234.007.391.055l.005-.018.018.007.1-.009.054.015.158-.012.176-.007.176-.007.337.039.158-.012.176-.007.176-.007.171.011.158-.012.176-.007.337.039.335-.019.036.011h.194c.067-.037 0 0 .054.015l.1-.028c.106-.012.209 0 .317-.024a1 1 0 0 0 .174-.066.9.9 0 0 0 .325-.119l.005-.018a.6.6 0 0 0 .143-.094l.005-.018.05-.009.023-.012.074-.056a1 1 0 0 0 .162-.224.88.88 0 0 0 .227-.515.34.34 0 0 0 .009-.23v-1.006l-.01-.1a.7.7 0 0 0-.108-.361.56.56 0 0 0-.229-.279 1 1 0 0 0-.183-.169L25 26.166l-.107-.031-.25-.073-.054-.015Z" style="fill:url(#d)"/>
    <path d="m23.876 7.715-.335.019-.337-.04-.335.019-.176.007-.176.007-.278-.042-.281.035-.176.007-.23-.009-.028 2.432.006 5.85.009.235v2.654l-.01.636h.077l.1-.009a.5.5 0 0 0 .235-.01 2 2 0 0 1 .26.037l.1-.009h.077a1 1 0 0 1 .176-.007c.12-.023.215 0 .335-.019.052.015.055.016.123-.022l.089.026a.8.8 0 0 0 .276-.017l.041-.007a2 2 0 0 1 .266.019 1 1 0 0 1 .141-.018l.036.011c.052.015.054.015.069-.038l.019-2.2-.014-2.889.007-2.961-.007-.176-.007-2.713v-.794h-.059l.005-.018Z" style="fill:url(#e)"/>
    <path d="M25.9 4.263a3 3 0 0 1-.283-.024l-.276.017-.572-.03h-.736l-.741.017-.687.033H21.48l-.78-.049-.759.012-.051.043-.2-.116-.076-.138-.674-.815a2 2 0 0 0-.313-.323 1.1 1.1 0 0 0-.471-.311 2.1 2.1 0 0 0-.763-.105l-.123.022-.266-.019-.353.014-.779-.052h-.736l-.741.017h-.406l-.741.017h-.388l-.72-.054h-.253l-.153-.006-.734.026h-.388l-.353.014-.442-.012c-.119.022-.226-.025-.294.012h-.388a1.3 1.3 0 0 0-.315.083l-.069.038a1.3 1.3 0 0 0-.2.078 1.5 1.5 0 0 0-.19.119l-.028.031a2 2 0 0 0-.385.392l-.848.942a2 2 0 0 1 .4.02l1.179-.006.353-.014h1.142l.741-.017.779.052.335-.019h1.936l.335-.019h.406l.725.036h.194l.207.021.565-.011c.07 0 .115-.007.176-.007a3 3 0 0 1 .388 0 1.2 1.2 0 0 1 .686.238 3.4 3.4 0 0 1 .381.42 1 1 0 0 1 .209.215l.485.664.712.884.183.169a2 2 0 0 0 .209.215l.018.005a1.5 1.5 0 0 0 .326.211 1.6 1.6 0 0 0 .391.055.17.17 0 0 0 .158-.012l.225.026h.406l.725.036.335-.019.353-.014h1.53l.353-.014h.794l.266.019.054.016.1-.01a.32.32 0 0 0 .325-.254 3.3 3.3 0 0 0 .052-.779l.045-.955c0-.068-.005-.114-.007-.176-.013-.345 0-.562-.084-.644-.022-.12-.133-.155-.29-.2ZM23.874 7.7l.055.81v-.794z" style="fill:url(#b)"/>
    <path d="m23.876 23.365-.005.018h-.117l-.054-.015h-.117l-.054-.015-.069.038-.161-.047-.005.018-.064.02-.089-.026-.069.038-.161-.047-.051.044-.018-.007-.107-.031-.069.038-.107-.031-.123.022-.036-.011-.123.022-.071-.021-.158.012-.054-.015c-.068.037-.071.038-.123.022h-.077a.26.26 0 0 1-.153 0l-.036-.011-.005.02-.041.007-.023.012-.023.613.021 1.129v.406l.054.015.054.015.158-.012.054.015.123-.022.054.015.176-.007.054.015.123-.022.054.015.158-.012.054.015.123-.022.054.015.173-.003.054.015h.117l.054.015.158-.012.054.015.123-.022.054.015.176-.007.054.015.005-.018.064-.02v-.929l.021-1.272-.054-.015Z" style="fill:url(#f)"/>
    <path d="M25.542 19.973a2 2 0 0 0-.237-.049l-.069.038a.5.5 0 0 0-.171-.011 2.6 2.6 0 0 0-.623.013c-.142 0-.276.008-.388 0a4 4 0 0 1-.46-.02 4 4 0 0 1-.388 0l-.1.009h-.194q-.151.012-.353.014a4 4 0 0 0-.618 0 4 4 0 0 1-.388 0c-.113 0-.233-.007-.347 0l-.112-.014c-.068.037-.16.012-.228.05a.2.2 0 0 0-.176.007l-.146.035-.082.015-.151.053-.005.018a8 8 0 0 0-.763.5c-.117.108-.223.219-.346.326l-.046.025-.056.061q-.139.114-.3.224c-.083.089-.168.2-.259.293l-.08.074a1.2 1.2 0 0 1-.223.168c-.083.089-.1.127-.164.165l-.005.018a2.3 2.3 0 0 1-.672.58l-.016.054a5 5 0 0 1-.765.3 2 2 0 0 1-.2.037l-.041.007a1 1 0 0 1-.171-.011l-.046.025-.023.012c-.1-.031-.216-.007-.373-.05a4 4 0 0 1-.593.041 4 4 0 0 0-.524 0c-.106 0-.215-.019-.324-.016-.219-.007-.439 0-.654-.014-.277-.024-.517.025-.794 0l-.041.007h-.059c-.12 0-.241-.017-.36-.027-.293.029-.572.011-.863.04a.4.4 0 0 0-.23-.007c-.052-.015-.086-.043-.153 0-.14 0-.281-.008-.406 0a4 4 0 0 1-.442-.013c-.136 0-.273.01-.406 0a4 4 0 0 1-.442-.013c-.059.011-.131 0-.194 0H9.06c-.292.028-.566-.007-.858.022a4.6 4.6 0 0 0-.848-.014c-.167 0-.333 0-.5-.009-.057 0-.114-.009-.171-.011l-.123.022c-.078.014-.15.036-.228.05l-.016.054a1.7 1.7 0 0 1 .387.4l.081.12a2 2 0 0 1 .188.152l.148.159.013.023a.3.3 0 0 0 .183.169 1.6 1.6 0 0 0 .29.336l.013.023.048.033a1.7 1.7 0 0 0 .407.331l.107.031.357.1h.618l.094.009h.135c.277.024.566.008.843.032l.141-.017c.088.009.178.011.266.019.278-.027.546-.01.822-.033l.041-.007a4.6 4.6 0 0 0 .848.014c.224.007.442.03.666.038.172-.006.34-.019.565-.01.146-.015.294-.008.429-.011.269-.022.53 0 .8-.02.057 0 .114.011.171.011a4 4 0 0 0 .7.008c.136 0 .273-.01.406 0s.253 0 .388 0c.12-.022.233.007.353-.014l.107.031c.292-.029.532-.081.772-.125l.023-.012.018.007c.084-.021.141-.033.21-.055a1.4 1.4 0 0 0 .156-.071l.046-.025a2 2 0 0 0 .241-.162l.1-.069.005-.018c.052-.047.108-.092.159-.148l.169-.183.182-.16.192-.2.387-.333.4-.387.174-.066.094.009.082-.015c.133.011.27 0 .406 0 .277.024.571-.01.848.014.239-.024.466 0 .7-.01l.158-.012a.17.17 0 0 0 .158-.012l.112.014h.523c.277.024.571-.009.848.014.292-.029.572-.011.863-.04.07 0 .137.019.207.022a2 2 0 0 0 .6-.059l.085-.092a1.3 1.3 0 0 0 .151-.741 3 3 0 0 1-.011-.565 2.1 2.1 0 0 1 .01-.636q-.012-.16-.035-.281a1.2 1.2 0 0 0-.063-.251l-.058-.133-.025-.046-.079-.061-.008-.041-.071-.021-.12-.054Z" style="fill:url(#g)"/>
    <path d="M28.993 27h-.176l-.028.03-.041.007-.01.035h-.059l-.016.054-.051.043-.01.035-.016.054-.016.054-.016.054-.016.054-.016.054-.016.054v.118l-.005.018-.005.018.004.018.008.041.015.082-.031.107.028.1-.016.054-.016.054.038.069-.016.054-.016.054.031.028.008.041.013.023.01.1.054.015.038.069.054.015.038.069.107.031.143.041c.058-.031.151-.063.22-.091l.041-.007.051-.043.033-.048.069-.038.005-.018.01-.035.016-.054.016-.054.016-.054.016-.054.01-.035-.038-.069.016-.054.016-.054-.007-.176.016-.054-.007-.176-.022-.123.016-.054.01-.035-.013-.023-.013-.023-.013-.023.016-.054-.018-.007-.02-.064-.018-.007-.056-.074a.055.055 0 0 1-.038-.069l-.107-.031-.054-.015a1 1 0 0 0-.161-.047Z" style="fill:url(#h)"/>
    <path d="M4.416 5.513h12.705a.2.2 0 0 1 .142.1l.074.135.012 13.449-.061.209-1 .9-1 .9-.068.037-.067.037-12.69-.053c-.1-.031-.247-.129-.216-.234L2.219 7.6l.015-.053a.17.17 0 0 1 .082-.089L4.225 5.57a.3.3 0 0 1 .188-.059" style="fill:#b3272c"/>
    <path d="M16.556 5.989 4.488 5.947 2.992 7.386l12.003.078zm.298.298-1.511 1.491.012 8.17-.027 4.588.632-.612.916-.812-.022-12.824" style="fill:#f46d22"/>
    <path d="m14.89 20.807.008-12.932-12.24-.035-.009 12.932z" style="fill:#f6e216"/>
    <path d="m12.807 15.689.662-.716-.018 4.363-9.242-.016.646-.664 7.944-.019v-2.948ZM6.973 11.16l3.57.014.027.689L7 11.849zm5.819-1.091.032 3.015-7.932-.032-.7.649 9.3.031V9.421zm-5.8 6.713-.026.674 3.569.015.025-.674z" style="fill:#2e2a2b"/>
    <path d="M12.807 10.036 4.875 10l.032 3.016-.7.649V9.354l9.3.031-.7.649Zm.014 5.62.662-.716-9.3-.031.034 4.377.646-.664.02-3 7.932.033" style="fill:#ec771d"/>
    <path d="m27.982 27.59-.006.018-.064.02-.053-.015-.107-.031-.105.027-.054-.015-.053-.015-.123.022-.054-.015-.107-.031-.005.017-.064.02-.054-.015-.107-.031-.117.004-.054-.015-.089-.026-.005.018-.064.02-.054-.016-.107-.031-.069.038-.054-.015-.053-.015-.054-.015-.005.017-.064.02-.021.672.01.1-.002.076.053.016.123-.023.054.016.123-.023.035.011.123-.023.118-.004.053.015.123-.022.053.015.123-.022.054.015.122-.022.054.015.051-.043.054.015.123-.022.053.015.123-.022.053.015.006-.018.064-.02.053.016.054.015.005-.018.064-.02.053.015.005-.618-.053-.015-.054-.016z" style="fill:url(#i)"/>
    <path d="M12.807 10.036 4.875 10l.032 3.016-.7.649V9.354l9.3.031-.7.649Zm.014 5.62.662-.716-9.3-.031.034 4.377.646-.664.02-3 7.932.033" style="fill:#ec771d"/>
    <path d="m20.9 9.083 3.385-.719.1.03a.75.75 0 0 1 .591.115 1 1 0 0 1 .317.491l-.015.052a.33.33 0 0 1-.009.224c-.015.052.022.12-.046.157a.86.86 0 0 1-.683.6l-3.438.7-.052-.015a.77.77 0 0 1-.591-.115.97.97 0 0 1-.313-.488l-.038-.067a.33.33 0 0 0 .009-.224l.046-.157a.9.9 0 0 1 .736-.58Zm-.177 8.23 3.475-.637.068-.038a1.1 1.1 0 0 1 .575.167.53.53 0 0 1 .312.488l.037.067.007.173-.061.209a.98.98 0 0 1-.736.58l-3.422.652c-.067.037-.067.037-.12.021a.63.63 0 0 1-.523-.152.8.8 0 0 1-.38-.45l.03-.1a.2.2 0 0 1-.007-.172l.046-.157a1.01 1.01 0 0 1 .7-.648Zm.128-5.522a1.01 1.01 0 0 0-.7.649l-.046.157a.4.4 0 0 0-.008.225l-.015.052a.86.86 0 0 0 .365.5.67.67 0 0 0 .538.1l.052.015 3.438-.705a.98.98 0 0 0 .736-.581l.046-.157c.03-.1-.007-.172.009-.224l-.037-.067a.62.62 0 0 0-.312-.488.8.8 0 0 0-.59-.114l-.053-.015-3.422.652Zm-.063 2.761a1.07 1.07 0 0 0-.751.633l-.046.157a.2.2 0 0 1 .006.172l-.015.052.038.068a1.5 1.5 0 0 0 .313.487.77.77 0 0 0 .591.114l.052.015 3.49-.689a.92.92 0 0 0 .683-.6l.061-.209a.2.2 0 0 0-.007-.172l.015-.052a.73.73 0 0 0-.312-.488 1.1 1.1 0 0 0-.576-.167c-.067.037-.067.037-.119.022l-3.422.652" style="fill:#2e2a2b"/>
</svg>
