<svg xmlns="http://www.w3.org/2000/svg" viewBox="0 0 32 32">
    <title>folder_type_css</title>
    <path d="M27.5 5.5h-9.3l-2.1 4.2H4.4v16.8h25.2v-21Zm0 4.2h-8.2l1.1-2.1h7.1Z" style="fill:#5597bf"/>
    <path d="M14.177 28.901 12.492 10h18.516l-1.686 18.898L21.739 31z" style="fill:#1572b6"/>
    <path d="m21.75 29.393 6.127-1.699 1.442-16.149H21.75z" style="fill:#33a9dc"/>
    <path d="M21.75 18.393h3.068l.211-2.374H21.75v-2.318h5.813l-.056.622-.57 6.388H21.75z" style="fill:#fff"/>
    <path d="m21.764 24.413-.01.003-2.582-.697-.165-1.849H16.68l.325 3.64 4.748 1.318.011-.003z" style="fill:#ebebeb"/>
    <path d="m24.62 20.613-.279 3.105-2.585.697v2.412l4.752-1.317.035-.392.403-4.505z" style="fill:#fff"/>
    <path d="M21.758 13.701v2.318h-5.599l-.047-.521-.105-1.175-.056-.622zm-.008 4.692v2.319h-2.549l-.046-.521-.106-1.176-.055-.622z" style="fill:#ebebeb"/>
</svg>
