<?xml version="1.0" encoding="UTF-8" standalone="no"?>
<!-- Created with Inkscape (http://www.inkscape.org/) -->

<svg
   version="1.1"
   id="svg2"
   xml:space="preserve"
   width="325.88138"
   height="404.76318"
   viewBox="0 0 325.88138 404.76318"
   sodipodi:docname="logo.svg"
   inkscape:export-filename="C:\Projects\xpipe\xpipex\app\src\main\resources\io\xpipe\app\resources\img\logo\full\logo_32x32.png"
   inkscape:export-xdpi="6"
   inkscape:export-ydpi="6"
   inkscape:version="1.4 (86a8ad7, 2024-10-11)"
   xmlns:inkscape="http://www.inkscape.org/namespaces/inkscape"
   xmlns:sodipodi="http://sodipodi.sourceforge.net/DTD/sodipodi-0.dtd"
   xmlns="http://www.w3.org/2000/svg"
   xmlns:svg="http://www.w3.org/2000/svg"><defs
     id="defs6"><clipPath
       clipPathUnits="userSpaceOnUse"
       id="clipPath18"><path
         d="M 0,360 H 576 V 0 H 0 Z"
         id="path16" /></clipPath><clipPath
       clipPathUnits="userSpaceOnUse"
       id="clipPath18-2"><path
         d="M 0,360 H 576 V 0 H 0 Z"
         id="path16-2" /></clipPath></defs><sodipodi:namedview
     id="namedview4"
     pagecolor="#4f5151"
     bordercolor="#666666"
     borderopacity="1.0"
     inkscape:pageshadow="2"
     inkscape:pageopacity="0"
     inkscape:pagecheckerboard="true"
     showgrid="false"
     inkscape:zoom="1"
     inkscape:cx="-177.5"
     inkscape:cy="243.49999"
     inkscape:window-width="1920"
     inkscape:window-height="1009"
     inkscape:window-x="-8"
     inkscape:window-y="-8"
     inkscape:window-maximized="1"
     inkscape:current-layer="g8"
     width="170.77866px"
     inkscape:showpageshadow="2"
     inkscape:deskcolor="#d1d1d1" /><g
     inkscape:groupmode="layer"
     id="layer2"
     inkscape:label="bg"
     style="display:inline"
     transform="translate(-103.60355,-48.044902)" /><g
     inkscape:groupmode="layer"
     id="layer1"
     inkscape:label="shadow"
     style="display:inline"
     transform="translate(-103.60355,-48.044902)" /><g
     id="g8"
     inkscape:groupmode="layer"
     inkscape:label="X-Pipe_final_app"
     transform="matrix(1.3333333,0,0,-1.3333333,-398.37914,288.91696)"
     style="display:inline"><g
       id="g1026"
       transform="matrix(2.7330123,0,0,2.7722744,-368.46304,-472.2509)"
       style="fill:url(#linearGradient18251);fill-opacity:1;stroke:none;stroke-opacity:1"
       inkscape:label="g1026"><g
         id="g977"
         style="fill:url(#linearGradient2832);fill-opacity:1;stroke:none;stroke-opacity:1"><g
           id="g12"
           style="fill:url(#linearGradient2830);fill-opacity:1;stroke:none;stroke-opacity:1"><g
             id="g14"
             clip-path="url(#clipPath18)"
             style="fill:url(#linearGradient2828);fill-opacity:1;stroke:none;stroke-opacity:1"><g
               id="g20"
               transform="translate(224.0767,228.4834)"
               style="fill:url(#linearGradient2814);fill-opacity:1;stroke:none;stroke-opacity:1" /><g
               id="g24"
               transform="translate(297.1084,207.5693)"
               style="fill:url(#linearGradient2816);fill-opacity:1;stroke:none;stroke-opacity:1" /><g
               id="g28"
               transform="translate(297.1094,206.7285)"
               style="fill:url(#linearGradient2820);fill-opacity:1;stroke:none;stroke-opacity:1"><path
                 id="path30"
                 style="fill:#0b898a;fill-opacity:1;fill-rule:nonzero;stroke:none;stroke-width:1.33333;stroke-opacity:1"
                 d="M 95.269531,55.279297 94.9375,55.738281 62.472656,99.851562 c 27.478669,38.967998 45.628104,47.831408 65.412114,47.968748 0,0 6.3491,-0.78807 8.89843,-2.4414 5.32133,-3.48533 7.68369,-10.17458 7.67969,-18.78125 0,-1.492 -0.0691,-3.03619 -0.20508,-4.63086 l -0.0742,-0.002 c -0.844,1.80533 -2.54312,4.13065 -4.20312,5.94532 -0.44134,0.54667 -0.93858,1.05326 -1.50391,1.55859 -0.17733,0.15334 -0.37459,0.26306 -0.55859,0.40039 -0.18134,0.13734 -0.36031,0.27267 -0.54297,0.38867 -0.168,0.108 -0.33705,0.21197 -0.51172,0.30664 -0.384,0.20933 -0.75223,0.37644 -1.10156,0.50977 -0.10935,0.04 -0.21941,0.0792 -0.33008,0.11523 -0.57467,0.192 -1.05456,0.29514 -1.36523,0.3418 -0.60933,0.104 -1.24083,0.16468 -1.91016,0.16602 -11.83239,0.15851 -26.48435,-7.35228 -45.246094,-29.48438 L 121.01562,55.279297 Z"
                 transform="matrix(0.75000002,0,0,-0.75000002,-71.883817,43.14398)" /></g><g
               id="g32"
               transform="translate(251.8486,146.0889)"
               style="fill:url(#linearGradient2822);fill-opacity:1;stroke:none;stroke-opacity:1" /><g
               id="g40"
               transform="translate(348.4717,139.6377)"
               style="fill:url(#linearGradient2826);fill-opacity:1;stroke:none;stroke-opacity:1"><path
                 style="fill:#0b898a;fill-opacity:1;fill-rule:nonzero;stroke:none;stroke-width:1.33333;stroke-opacity:1"
                 d="m 62.755859,13.986328 c -3.370666,0 -6.421989,0.777839 -8.972656,2.451172 -5.197333,3.397333 -7.496094,9.858016 -7.496094,18.166016 0.02,17.230666 9.772907,43.142964 26.628907,70.404294 L 84.919922,89.248047 C 71.673256,67.233381 64.327563,47.137271 64.351562,35.835938 c -0.0027,-4.16 1.000271,-6.995037 2.710938,-8.345704 1.285333,-1.037333 3.01338,-1.570218 5.248047,-1.574218 1.644,-0.016 3.521937,0.290474 5.585937,0.86914 6.645334,1.8 25.508976,9.137688 53.570316,37.929688 l 0.0801,-0.06641 c -24.78534,-30.66 -51.455021,-50.555443 -68.791021,-50.66211 z"
                 transform="matrix(0.75000002,0,0,-0.75000002,-133.4717,119.3623)"
                 id="path42" /></g></g></g></g></g><g
       id="g36"
       transform="matrix(2.7330123,0,0,2.7722744,321.33445,-65.234177)"
       style="display:inline;fill:url(#linearGradient18253);fill-opacity:1;stroke:none;stroke-opacity:1"><path
         style="fill:#0b898a;fill-opacity:1;fill-rule:nonzero;stroke:none;stroke-opacity:1"
         d="M -1.5,-6.7580001 H -8.2510001 L 15.655,23.837 25.724,11.164 13.19075,-6.7580001 Z"
         id="path7210"
         sodipodi:nodetypes="cccccc" /></g></g></svg>
