<?xml version="1.0" encoding="UTF-8"?>
<svg width="161.54" height="129.74" version="1.1" viewBox="0 0 42.742 34.328" xmlns="http://www.w3.org/2000/svg">
    <g transform="translate(-17.885 -155.17)">
        <rect transform="matrix(.80987 .58661 -.64318 .76571 17.885 155.17)" x="6.8224" y="-5.1824" width="9.7537"
              height="3.1462" fill="#264653" stroke-width="0" style="paint-order:stroke fill markers"/>
    </g>
    <g transform="translate(-3.4705e-7 -3.7276e-6)">
        <rect transform="matrix(1 0 .11746 .99308 0 0)" x="-.063062" y=".034089" width="8.9176" height="4.3727"
              fill="#264653" stroke-width="0" style="paint-order:stroke fill markers"/>
        <rect transform="matrix(1 0 .14093 .99002 0 0)" x="1.2548" y="6.1133" width="30.21" height="26.142"
              fill="#c0c0c0" style="paint-order:stroke fill markers"/>
        <rect transform="matrix(1 0 .14477 .98947 0 0)" x="-.18422" y="4.2329" width="32.875" height="3.5598"
              fill="#264653" stroke-width="0" style="paint-order:stroke fill markers"/>
        <rect transform="matrix(1 0 .14416 .98955 0 0)" x=".30473" y="8.1631" width="31.922" height="26.056"
              fill="#264653" stroke="#264653" stroke-width=".94219" style="paint-order:stroke fill markers"/>
        <rect transform="matrix(1 0 .14386 .9896 0 0)" x=".79764" y="5.6333" width="30.851" height="26.153"
              fill="#c0c0c0" style="paint-order:stroke fill markers"/>
        <rect transform="matrix(1 0 -.14416 .98955 0 0)" x="10.909" y="9.37" width="31.922" height="24.124"
              fill="#8ecae6" stroke="#264653" stroke-width="2.2058" style="paint-order:stroke fill markers"/>
    </g>
</svg>
