<?xml version="1.0" encoding="UTF-8" standalone="no"?>
<!-- Generator: Adobe Illustrator 16.0.4, SVG Export Plug-In . SVG Version: 6.00 Build 0)  -->

<svg
   version="1.1"
   id="Layer_1"
   x="0px"
   y="0px"
   width="403.79825"
   height="489.31378"
   viewBox="0 0 403.79825 489.31378"
   enable-background="new 0 0 612 792"
   xml:space="preserve"
   sodipodi:docname="Hips-dark.svg"
   inkscape:version="1.1.2 (b8e25be833, 2022-02-05)"
   xmlns:inkscape="http://www.inkscape.org/namespaces/inkscape"
   xmlns:sodipodi="http://sodipodi.sourceforge.net/DTD/sodipodi-0.dtd"
   xmlns="http://www.w3.org/2000/svg"
   xmlns:svg="http://www.w3.org/2000/svg"><defs
   id="defs17" /><sodipodi:namedview
   id="namedview15"
   pagecolor="#645b64"
   bordercolor="#666666"
   borderopacity="1.0"
   inkscape:pageshadow="2"
   inkscape:pageopacity="0"
   inkscape:pagecheckerboard="0"
   showgrid="false"
   inkscape:zoom="3.0605581"
   inkscape:cx="52.441416"
   inkscape:cy="267.27151"
   inkscape:window-width="1920"
   inkscape:window-height="1017"
   inkscape:window-x="-8"
   inkscape:window-y="-8"
   inkscape:window-maximized="1"
   inkscape:current-layer="layer1" />






<g
   inkscape:groupmode="layer"
   id="layer2"
   inkscape:label="Layer 2"><path
     d="m 308.51696,236.77635 c 0,0 9.234,2.098 16.369,7.975 7.135,5.876 8.395,4.195 12.172,10.072 3.777,5.877 5.037,7.556 5.037,7.556 0,0 24.762,18.887 31.898,25.183 7.135,6.296 17.207,14.69 22.244,20.986 5.037,6.296 8.395,9.654 6.297,14.271 -2.1,4.616 -7.975,10.912 -11.752,15.109 -3.777,4.197 -11.332,12.592 -11.332,12.592 0,0 1.678,6.717 0.418,13.012 -1.258,6.295 -3.357,10.912 -3.357,10.912 0,0 6.297,4.616 7.975,11.332 1.68,6.716 1.68,13.852 1.68,13.852 0,0 9.654,0.839 13.432,3.357 3.778,2.518 5.875,4.617 2.518,8.395 -3.357,3.778 -10.072,9.654 -16.369,14.271 -6.295,4.616 -7.135,7.135 -12.592,9.653 -5.455,2.519 -7.135,1.678 -13.012,-0.84 -5.875,-2.518 -10.912,-5.876 -10.912,-5.876 l -9.654,-73.45 12.592,-0.42 c 0,0 -1.258,-4.196 3.359,-7.555 4.615,-3.358 10.912,-2.939 13.01,-3.358 2.1,-0.419 4.199,-6.716 8.814,-12.172 4.617,-5.456 9.234,-7.974 9.234,-10.912 0,-2.938 -5.037,-11.332 -7.135,-14.271 -2.1,-2.938 -17.629,-18.888 -20.986,-22.245 -3.357,-3.357 -16.369,-11.752 -16.369,-11.752 0,0 0.42,-10e-4 -2.938,9.233 -1.32061,3.6304 -2.77059,6.9365 -4.19718,9.7907 -2.20196,4.40552 -4.34818,7.73439 -5.87682,9.5173 -2.518,2.938 -22.244,-64.217 -22.244,-64.217"
     id="path8"
     style="stroke:#f9ffff;stroke-width:5;stroke-miterlimit:4;stroke-dasharray:none;stroke-opacity:1"
     sodipodi:nodetypes="ccsccscscccccsscccccccccscsccscc" /><path
     d="m 92.361962,248.52835 c 0,0 -6.715,3.778 -14.27,10.073 -7.555,6.295 -8.395,8.813 -19.727,15.109 -11.332,6.296 -24.763,13.012 -35.676,20.986 -10.913,7.974 -18.8880002,13.851 -20.5660002,15.949 -1.67799998,2.098 -3.357,3.778 -0.839,10.493 2.518,6.715 1.679,5.456 6.296,13.851 4.6170002,8.395 14.2700002,21.405 14.2700002,21.405 0,0 -1.678,0.841 -1.259,7.136 0.419,6.295 2.099,9.232 5.037,10.492 2.938,1.26 0.42,4.618 -0.839,11.333 -1.259,6.715 -0.42,11.752 -0.42,11.752 0,0 -8.394,0 -13.851,1.679 -5.4570002,1.679 -9.65300018,1.678 -9.2340002,7.135 0.419,5.457 0.42,7.555 7.975,12.172 7.5550002,4.617 5.4560002,5.036 13.0110002,6.296 7.555,1.26 15.11,4.616 20.566,-0.42 5.456,-5.036 14.27,-64.217 14.27,-64.217 0,0 -5.456,-7.975 -8.394,-10.073 -2.938,-2.098 -8.394,-5.037 -10.073,-3.777 -1.679,1.26 -5.457,2.938 -5.457,2.938 0,0 -14.27,-22.245 -16.789,-26.862 -2.519,-4.617 -5.036,-4.196 -1.679,-7.135 3.357,-2.939 7.555,-7.976 15.11,-13.432 7.555,-5.456 16.788,-11.331 22.245,-14.689 5.457,-3.358 11.752,-6.716 11.752,-6.716 0,0 -1.259,-2.518 2.099,4.617 3.358,7.135 6.296,14.69 7.975,15.949 1.679,1.259 13.431,-38.194 13.431,-38.194 z"
     id="path6"
     style="stroke:#f9ffff;stroke-width:5;stroke-miterlimit:4;stroke-dasharray:none;stroke-opacity:1" /></g><g
   inkscape:groupmode="layer"
   id="layer1"
   inkscape:label="Layer 1"><path
     d="m 195.10496,6.2053486 c 0,0 -49,93.0000004 -73,152.0000014 -23.999998,59 -49.999998,125 -58.999998,163 -9,38 -22.31,100.002 -21,120 1.143,17.454 1.205,20.431 9.204,32.432 4.795,7.193 11.988,11.09 22.796,11.568 12.987,0.575 32.586998,-10.781 45.999998,-18 14.222,-7.654 29.807,-20.542 52,-23 23.875,-2.645 36,-4 56,2 20,6 30.6,9.75 41,17 11.66,8.128 12.078,10.732 20.18,17.014 9.682,7.505 15.1,8.682 25.291,9.06 10.191,0.378 18.117,-2.265 24.535,-12.456 6.416,-10.191 11.004,-26.263 12.803,-40.049 1.617,-12.386 0.031,-56.205 -6.764,-87.157 -6.795,-30.952 -5.66,-25.289 -12.455,-53.6 -6.795,-28.311 -18.496,-68.699 -40.012,-119.279 -21.516,-50.58 -27.555,-63.415 -44.541,-97.764001 -16.986,-34.349 -34.727,-62.282 -39.256,-69.8310004 -4.531,-7.55 -8.119,-14.639 -13.781,-2.938 z"
     id="path2"
     style="stroke:#f9ffff;stroke-width:8;stroke-miterlimit:4;stroke-dasharray:none;stroke-opacity:1" /><path
     fill="#ffffff"
     d="m 294.55796,220.48635 c -40.479,-3.615 -35.811,-2.775 -80.758,-1.937 -50.206,0.937 -103.914,9.39 -103.914,9.39 -14.783998,38.199 -27.104998,72.67 -32.768998,96.584 -12.759,53.872 -20.709,97.565 -20.709,113.463 0,0.837 0.022,1.598 0.066,2.277 l 0.061,0.933 c 1.038,15.874 1.038,15.874 6.756,24.454 1.549,2.324 3.839,4.832 11.45,5.169 7.885,0.349 25.480998,-9.208 34.933998,-14.343 l 3.604,-1.951 c 2.974,-1.602 6.176,-3.556 9.566,-5.625 12.241,-7.472 27.475,-16.771 47.673,-19.008 24.326,-2.694 38.944,-4.313 61.723,2.52 18.949,5.686 32.326,10.077 45.096,18.979 7.795,5.434 11.367,8.884 14.52,11.929 1.893,1.828 3.527,3.407 6.25,5.519 7.027,5.448 9.502,5.771 17,6.05 6.367,0.235 8.797,-0.944 11.816,-5.739 4.709,-7.48 9.014,-21.24 10.709,-34.239 0.289,-2.214 0.451,-6.104 0.451,-11.147 0,-17.17 -1.875,-47.714 -7,-71.059 -5.059,-23.039 -5.654,-25.494 -8.52,-37.294 l -3.873,-16.033 c -6.283,-26.184 -13.923,-51.39 -24.132,-78.892 z"
     id="path4" /><ellipse
     fill="#b30838"
     stroke="#000000"
     stroke-width="16"
     cx="205.99097"
     cy="222.99434"
     rx="74.43"
     ry="65.267998"
     id="ellipse10" /><ellipse
     transform="rotate(-22.705809)"
     fill="#ffffff"
     cx="85.827118"
     cy="248.43291"
     rx="19.849024"
     ry="13.741015"
     id="ellipse12"
     style="stroke-width:1" /><path
     style="fill:#000000;fill-opacity:1;stroke:none;stroke-width:1px;stroke-linecap:butt;stroke-linejoin:miter;stroke-opacity:1"
     d="m 306.95887,233.91517 17.6096,13.60196 17.7295,22.49118 -14.0425,29.67496 z"
     id="path1813"
     sodipodi:nodetypes="ccccc" /><path
     style="fill:#000000;fill-opacity:1;stroke:none;stroke-width:1px;stroke-linecap:butt;stroke-linejoin:miter;stroke-opacity:1"
     d="m 76.200684,263.63635 16.161278,-15.108 -17.806285,51.11852 -7.62738,-19.44758 z"
     id="path2618"
     sodipodi:nodetypes="ccccc" /></g></svg>
