<?xml version="1.0" encoding="UTF-8" standalone="no"?>
<!-- Generator: Adobe Illustrator 16.0.4, SVG Export Plug-In . SVG Version: 6.00 Build 0)  -->

<svg
   version="1.1"
   id="Layer_1"
   x="0px"
   y="0px"
   width="407.5636"
   height="497.14667"
   viewBox="0 0 407.56359 497.14666"
   enable-background="new 0 0 612 792"
   xml:space="preserve"
   sodipodi:docname="Hips-dark.svg"
   inkscape:version="1.4 (86a8ad7, 2024-10-11)"
   inkscape:export-filename="Hips-244-dark.png"
   inkscape:export-xdpi="47.117287"
   inkscape:export-ydpi="47.117287"
   xmlns:inkscape="http://www.inkscape.org/namespaces/inkscape"
   xmlns:sodipodi="http://sodipodi.sourceforge.net/DTD/sodipodi-0.dtd"
   xmlns="http://www.w3.org/2000/svg"
   xmlns:svg="http://www.w3.org/2000/svg"><defs
   id="defs17" /><sodipodi:namedview
   id="namedview15"
   pagecolor="#645b64"
   bordercolor="#666666"
   borderopacity="1.0"
   inkscape:pageshadow="2"
   inkscape:pageopacity="0"
   inkscape:pagecheckerboard="0"
   showgrid="false"
   inkscape:zoom="4.3282828"
   inkscape:cx="297.46208"
   inkscape:cy="245.01634"
   inkscape:window-width="1920"
   inkscape:window-height="1009"
   inkscape:window-x="-8"
   inkscape:window-y="-8"
   inkscape:window-maximized="1"
   inkscape:current-layer="layer1"
   inkscape:showpageshadow="2"
   inkscape:deskcolor="#d1d1d1" />






<g
   inkscape:groupmode="layer"
   id="layer2"
   inkscape:label="Layer 2"
   transform="translate(2.5011925,3.8405358)"><path
     d="m 307.58563,236.7762 c 0,0 9.20621,2.09804 16.31974,7.97515 7.11353,5.87611 8.36973,4.19508 12.13537,10.07218 3.76563,5.87712 5.02184,7.55616 5.02184,7.55616 0,0 24.68747,18.88736 31.80199,25.18348 7.11353,6.29613 17.15522,14.69027 22.17706,20.9864 5.02185,6.29612 8.36974,9.65419 6.27805,14.27127 -2.09367,4.61609 -7.95099,10.91221 -11.71663,15.10929 -3.76563,4.19708 -11.29789,12.59224 -11.29789,12.59224 0,0 1.67294,6.71713 0.41674,13.01225 -1.25421,6.29511 -3.34691,10.91221 -3.34691,10.91221 0,0 6.27806,4.61609 7.95102,11.33221 1.67494,6.71613 1.67494,13.85226 1.67494,13.85226 0,0 9.62494,0.83902 13.39158,3.35707 3.76662,2.51806 5.85731,4.61708 2.51041,8.39517 -3.3469,3.77806 -10.04168,9.65418 -16.31972,14.27127 -6.27608,4.61608 -7.11355,7.13513 -12.55413,9.65318 -5.43858,2.51905 -7.11352,1.67803 -12.97282,-0.84002 -5.85733,-2.51805 -10.87917,-5.87611 -10.87917,-5.87611 l -9.62494,-73.4514 12.55409,-0.42001 c 0,0 -1.2542,-4.19608 3.34891,-7.55515 4.60111,-3.35806 10.87915,-2.93906 12.97083,-3.35806 2.09368,-0.41901 4.18638,-6.71613 8.78748,-12.17223 4.60311,-5.4561 9.20621,-7.97415 9.20621,-10.91221 0,-2.93805 -5.02184,-11.33222 -7.11353,-14.27127 -2.09368,-2.93805 -17.57594,-18.88836 -20.92284,-22.24543 -3.3469,-3.35705 -16.31974,-11.75222 -16.31974,-11.75222 0,0 0.41874,-0.001 -2.92915,9.23317 -1.31664,3.63047 -2.76226,6.93664 -4.18455,9.79089 -2.19534,4.4056 -4.3351,7.73454 -5.85914,9.51748 -2.51042,2.93806 -22.17706,-64.21822 -22.17706,-64.21822"
     id="path8"
     style="stroke:#f9ffff;stroke-width:4.99252;stroke-miterlimit:4;stroke-dasharray:none;stroke-opacity:1"
     sodipodi:nodetypes="ccsccscscccccsscccccccccscsccscc" /><path
     d="m 92.081154,248.52842 c 0,0 -6.694792,3.77809 -14.227054,10.0732 -7.532263,6.29511 -8.369735,8.81317 -19.66763,15.10929 -11.297898,6.29612 -24.688477,13.01225 -35.568634,20.98639 -10.880157,7.97415 -18.8311562,13.85127 -20.5041062,15.94931 -1.67294998,2.09804 -3.3468969,3.77806 -0.8364749,10.49319 2.510422,6.71514 1.673947,5.45612 6.277052,13.85127 4.6031041,8.39516 14.2270551,21.40541 14.2270551,21.40541 0,0 -1.67295,0.84102 -1.255212,7.13614 0.41774,6.29511 2.092684,9.23218 5.021841,10.4922 2.929158,1.26002 0.418736,4.61809 -0.836474,11.33321 -1.255212,6.71514 -0.418737,11.75223 -0.418737,11.75223 0,0 -8.368737,0 -13.809315,1.67903 -5.4405771,1.67903 -9.62394918,1.67803 -9.2062101,7.13514 0.4177389,5.45711 0.418736,7.55514 7.9509991,12.17222 7.532263,4.61709 5.439579,5.0361 12.971843,6.29613 7.532263,1.26003 15.064527,4.61609 20.504107,-0.42 5.43958,-5.03611 14.227053,-64.21823 14.227053,-64.21823 0,0 -5.439579,-7.97515 -8.368738,-10.0732 -2.929157,-2.09804 -8.368738,-5.03709 -10.042685,-3.77706 -1.673947,1.26001 -5.440576,2.93804 -5.440576,2.93804 0,0 -14.227055,-22.24541 -16.738474,-26.8625 -2.51142,-4.61709 -5.020844,-4.19608 -1.673947,-7.13514 3.346897,-2.93906 7.532263,-7.97615 15.064526,-13.43227 7.532263,-5.4561 16.737477,-11.3312 22.178053,-14.68926 5.440578,-3.35808 11.716633,-6.71613 11.716633,-6.71613 0,0 -1.255212,-2.51806 2.092682,4.61708 3.347894,7.13513 6.277054,14.69029 7.950999,15.94931 1.673948,1.25901 13.390579,-38.19473 13.390579,-38.19473 z"
     id="path6"
     style="stroke:#f9ffff;stroke-width:4.99252;stroke-miterlimit:4;stroke-dasharray:none;stroke-opacity:1" /></g><g
   inkscape:groupmode="layer"
   id="layer1"
   inkscape:label="Layer 1"
   transform="translate(2.5011925,3.8405358)"><path
     d="m 194.51494,6.2007977 c 0,0 -48.85254,93.0017743 -72.7803,152.0029023 -23.92777,59.00113 -49.849523,125.00239 -58.822437,163.00311 -8.972914,38.00073 -22.242857,100.00391 -20.936799,120.00228 1.13956,17.45434 1.201373,20.4314 9.176299,32.43263 4.78057,7.19314 11.951923,11.09021 22.727396,11.56822 12.947915,0.57501 32.488931,-10.78121 45.861551,-18.00035 14.1792,-7.65414 29.7173,-20.54238 51.84352,-23.00042 23.80314,-2.64507 35.89165,-4.00009 55.83147,2.00002 19.93979,6.00011 30.50789,9.75019 40.87661,17.00034 11.6249,8.12814 12.04164,10.73219 20.11925,17.01432 9.65286,7.50514 15.05455,8.68216 25.21489,9.06017 10.16035,0.37801 18.06248,-2.26505 24.46116,-12.45624 6.3967,-10.1912 10.97089,-26.2635 12.76448,-40.04976 1.61212,-12.38624 0.0309,-56.20608 -6.74365,-87.15866 -6.77455,-30.95259 -5.64297,-25.2895 -12.41752,-53.60103 C 324.91631,267.70679 313.25053,227.31802 291.79927,176.73705 270.34804,126.15608 264.32721,113.32085 247.39232,78.971186 230.45745,44.621531 212.76985,16.687997 208.25447,9.1388536 203.73711,1.5887095 200.1599,-5.5004257 194.51494,6.2007977 Z"
     id="path2"
     style="stroke:#f9ffff;stroke-width:7.98803;stroke-miterlimit:4;stroke-dasharray:none;stroke-opacity:1" /><path
     fill="#ffffff"
     d="m 293.66864,220.48589 c -40.35718,-3.61507 -35.70323,-2.77506 -80.51496,-1.93704 -50.0549,0.93703 -103.60127,9.39018 -103.60127,9.39018 -14.739503,38.19973 -27.023422,72.67138 -32.670376,96.58585 -12.720601,53.87301 -20.646676,97.56686 -20.646676,113.46515 0,0.83702 0.02193,1.59803 0.06581,2.27705 l 0.06082,0.93301 c 1.034875,15.87431 1.034875,15.87431 6.735668,24.45447 1.544337,2.32405 3.827445,4.8321 11.41554,5.1691 7.861269,0.34901 25.404312,-9.20817 34.828874,-14.34327 l 3.59315,-1.95104 c 2.96505,-1.60202 6.15741,-3.55606 9.53722,-5.6251 12.20415,-7.47214 27.39231,-16.77133 47.52952,-19.00837 24.25278,-2.69404 38.8268,-4.31308 61.53725,2.52005 18.89196,5.68611 32.22871,10.07719 44.96028,18.97936 7.77154,5.43411 11.33279,8.88417 14.4763,11.92922 1.8873,1.82805 3.51638,3.40708 6.2312,5.51911 7.00584,5.44811 9.47339,5.77112 16.94882,6.05012 6.34784,0.235 8.77053,-0.94402 11.78044,-5.7391 4.69485,-7.48016 8.98689,-21.24041 10.67678,-34.23966 0.28814,-2.21404 0.44964,-6.10412 0.44964,-11.14721 0,-17.17033 -1.86936,-47.71492 -6.97893,-71.06036 -5.04377,-23.03944 -5.63699,-25.49449 -8.49437,-37.29471 l -3.86133,-16.0333 c -6.26409,-26.18451 -13.8811,-51.39099 -24.05938,-78.89351 z"
     id="path4"
     style="stroke-width:0.998503" /><ellipse
     fill="#b30838"
     stroke="#000000"
     stroke-width="15.976"
     cx="205.36819"
     cy="222.99393"
     rx="74.206001"
     ry="65.269249"
     id="ellipse10" /><ellipse
     transform="matrix(0.92208108,-0.38699676,0.38500407,0.92291488,0,0)"
     fill="#ffffff"
     cx="85.606773"
     cy="248.32028"
     rx="19.798256"
     ry="13.735085"
     id="ellipse12"
     style="stroke-width:0.998505" /><path
     style="fill:#000000;fill-opacity:1;stroke:none;stroke-width:0.998503px;stroke-linecap:butt;stroke-linejoin:miter;stroke-opacity:1"
     d="m 306.03223,233.91495 17.5566,13.60224 17.67614,22.4916 -14.00023,29.67553 z"
     id="path1813"
     sodipodi:nodetypes="ccccc" /><path
     style="fill:#000000;fill-opacity:1;stroke:none;stroke-width:0.998503px;stroke-linecap:butt;stroke-linejoin:miter;stroke-opacity:1"
     d="m 75.968513,263.6367 16.112641,-15.10828 -17.752697,51.1195 -7.604425,-19.44796 z"
     id="path2618"
     sodipodi:nodetypes="ccccc" /></g></svg>
