<?xml version="1.0" encoding="UTF-8" standalone="no"?>
<!-- Generator: Adobe Illustrator 16.0.4, SVG Export Plug-In . SVG Version: 6.00 Build 0)  -->

<svg
   version="1.1"
   id="Layer_1"
   x="0px"
   y="0px"
   width="401.02576"
   height="489.31378"
   viewBox="0 0 401.02576 489.31378"
   enable-background="new 0 0 612 792"
   xml:space="preserve"
   sodipodi:docname="Hips.svg"
   inkscape:version="1.4 (86a8ad7, 2024-10-11)"
   inkscape:export-filename="Hips-244.png"
   inkscape:export-xdpi="47.871124"
   inkscape:export-ydpi="47.871124"
   xmlns:inkscape="http://www.inkscape.org/namespaces/inkscape"
   xmlns:sodipodi="http://sodipodi.sourceforge.net/DTD/sodipodi-0.dtd"
   xmlns="http://www.w3.org/2000/svg"
   xmlns:svg="http://www.w3.org/2000/svg"><defs
   id="defs17" /><sodipodi:namedview
   id="namedview15"
   pagecolor="#ffffff"
   bordercolor="#666666"
   borderopacity="1.0"
   inkscape:pageshadow="2"
   inkscape:pageopacity="0.0"
   inkscape:pagecheckerboard="0"
   showgrid="false"
   inkscape:zoom="1.0820707"
   inkscape:cx="204.70012"
   inkscape:cy="233.34889"
   inkscape:window-width="1920"
   inkscape:window-height="1009"
   inkscape:window-x="-8"
   inkscape:window-y="-8"
   inkscape:window-maximized="1"
   inkscape:current-layer="Layer_1"
   inkscape:showpageshadow="2"
   inkscape:deskcolor="#d1d1d1" />
<path
   d="m 193.76537,6.2053486 c 0,0 -48.66356,93.0000004 -72.49878,152.0000014 -23.835212,59 -49.656697,125 -58.594904,163 -8.938207,38 -22.15682,100.002 -20.855815,120 1.135153,17.454 1.196726,20.431 9.140806,32.432 4.762078,7.193 11.90569,11.09 22.639484,11.568 12.897831,0.575 32.363249,-10.781 45.684169,-18 14.12434,-7.654 29.60234,-20.542 51.64297,-23 23.71107,-2.645 35.75282,-4 55.6155,2 19.86268,6 30.3899,9.75 40.71849,17 11.57995,8.128 11.99508,10.732 20.04145,17.014 9.61552,7.505 14.99632,8.682 25.11736,9.06 10.12103,0.378 17.99261,-2.265 24.36654,-12.456 6.37194,-10.191 10.92844,-26.263 12.7151,-40.049 1.60589,-12.386 0.0308,-56.205 -6.71756,-87.157 -6.74835,-30.952 -5.62115,-25.289 -12.36949,-53.6 -6.74834,-28.311 -18.369,-68.699 -39.73728,-119.279 -21.36827,-50.58 -27.36581,-63.415 -44.23519,-97.764001 -16.86936,-34.349 -34.48856,-62.282 -38.98646,-69.8310004 -4.4999,-7.55 -8.06326,-14.639 -13.68639,-2.938 z"
   id="path2"
   style="stroke-width:0.996561" />
<path
   fill="#ffffff"
   d="m 292.53553,220.48635 c -40.20106,-3.615 -35.56511,-2.775 -80.20351,-1.937 -49.86129,0.937 -103.20053,9.39 -103.20053,9.39 -14.682494,38.199 -26.918898,72.67 -32.54401,96.584 -12.671397,53.872 -20.566813,97.565 -20.566813,113.463 0,0.837 0.02185,1.598 0.06554,2.277 l 0.06058,0.933 c 1.030873,15.874 1.030873,15.874 6.709613,24.454 1.538364,2.324 3.812642,4.832 11.371384,5.169 7.830862,0.349 25.306047,-9.208 34.694136,-14.343 l 3.57926,-1.951 c 2.95358,-1.602 6.13359,-3.556 9.50032,-5.625 12.15695,-7.472 27.28636,-16.771 47.34568,-19.008 24.15898,-2.694 38.67662,-4.313 61.29922,2.52 18.81889,5.686 32.10405,10.077 44.78636,18.979 7.74148,5.434 11.28896,8.884 14.42031,11.929 1.88001,1.828 3.50278,3.407 6.20709,5.519 6.97876,5.448 9.43676,5.771 16.88328,6.05 6.32329,0.235 8.7366,-0.944 11.73487,-5.739 4.67667,-7.48 8.95211,-21.24 10.63548,-34.239 0.28701,-2.214 0.44789,-6.104 0.44789,-11.147 0,-17.17 -1.86212,-47.714 -6.95193,-71.059 -5.02426,-23.039 -5.61518,-25.494 -8.46151,-37.294 l -3.8464,-16.033 c -6.23987,-26.184 -13.8274,-51.39 -23.96632,-78.892 z"
   id="path4"
   style="stroke-width:0.996561" />
<path
   d="m 91.727808,248.52835 c 0,0 -6.668894,3.778 -14.172022,10.073 -7.503128,6.295 -8.337361,8.813 -19.591556,15.109 -11.254195,6.296 -24.592977,13.012 -35.43105,20.986 -10.838072,7.974 -18.7583155,13.851 -20.4247943,15.949 -1.66647889,2.098 -3.3339511,3.778 -0.8332396,10.493 2.5007116,6.715 1.6674722,5.456 6.252772,13.851 4.5852999,8.395 14.1720229,21.405 14.1720229,21.405 0,0 -1.666479,0.841 -1.250355,7.136 0.416123,6.295 2.084587,9.232 5.002416,10.492 2.917828,1.26 0.417116,4.618 -0.83324,11.333 -1.250356,6.715 -0.417117,11.752 -0.417117,11.752 0,0 -8.336367,0 -13.755899,1.679 -5.4195325,1.679 -9.58672289,1.678 -9.1705999,7.135 0.4161233,5.457 0.4171163,7.555 7.9202441,12.172 7.5031278,4.617 5.4185388,5.036 12.9216678,6.296 7.503127,1.26 15.006254,4.616 20.424794,-0.42 5.41854,-5.036 14.172023,-64.217 14.172023,-64.217 0,0 -5.418539,-7.975 -8.336368,-10.073 -2.917827,-2.098 -8.336367,-5.037 -10.003838,-3.777 -1.667472,1.26 -5.419533,2.938 -5.419533,2.938 0,0 -14.172023,-22.245 -16.673728,-26.862 -2.501704,-4.617 -5.001423,-4.196 -1.667472,-7.135 3.333951,-2.939 7.503128,-7.976 15.006256,-13.432 7.503127,-5.456 16.672734,-11.331 22.092266,-14.689 5.419533,-3.358 11.671312,-6.716 11.671312,-6.716 0,0 -1.250356,-2.518 2.084588,4.617 3.334945,7.135 6.252772,14.69 7.920244,15.949 1.667473,1.259 13.338783,-38.194 13.338783,-38.194 z"
   id="path6"
   style="stroke-width:0.996561" />
<path
   d="m 306.39869,236.77635 c 0,0 9.17061,2.098 16.25661,7.975 7.08602,5.876 8.33736,4.195 12.08844,10.072 3.75106,5.877 5.00241,7.556 5.00241,7.556 0,0 24.59198,18.887 31.67899,25.183 7.08601,6.296 17.08885,14.69 22.09128,20.986 5.00241,6.296 8.33736,9.654 6.25376,14.271 -2.08559,4.616 -7.92024,10.912 -11.67132,15.109 -3.75106,4.197 -11.25419,12.592 -11.25419,12.592 0,0 1.66648,6.717 0.41513,13.012 -1.24936,6.295 -3.33395,10.912 -3.33395,10.912 0,0 6.25376,4.616 7.92024,11.332 1.66847,6.716 1.66847,13.852 1.66847,13.852 0,0 9.58771,0.839 13.33977,3.357 3.75206,2.518 5.83467,4.617 2.50072,8.395 -3.33396,3.778 -10.00285,9.654 -16.25662,14.271 -6.25177,4.616 -7.08601,7.135 -12.50553,9.653 -5.41756,2.519 -7.08602,1.678 -12.92266,-0.84 -5.83467,-2.518 -10.83708,-5.876 -10.83708,-5.876 l -9.58772,-73.45 12.50554,-0.42 c 0,0 -1.24936,-4.196 3.33594,-7.555 4.58332,-3.358 10.83708,-2.939 12.92068,-3.358 2.08558,-0.419 4.17017,-6.716 8.75347,-12.172 4.5853,-5.456 9.1706,-7.974 9.1706,-10.912 0,-2.938 -5.00241,-11.332 -7.08601,-14.271 -2.08557,-2.938 -17.50796,-18.888 -20.8419,-22.245 -3.33395,-3.357 -16.25661,-11.752 -16.25661,-11.752 0,0 0.41711,-10e-4 -2.91784,9.233 -3.33593,9.234 -7.50312,16.37 -10.00482,19.308 -2.50072,2.938 -22.09128,-64.217 -22.09128,-64.217"
   id="path8"
   style="stroke-width:0.996561" />
<ellipse
   fill="#b30838"
   stroke="#000000"
   stroke-width="15.945"
   cx="204.57664"
   cy="222.99434"
   rx="73.918968"
   ry="65.267998"
   id="ellipse10" />
<ellipse
   transform="matrix(0.92154691,-0.38826703,0.38374074,0.92344087,0,0)"
   fill="#ffffff"
   cx="85.32589"
   cy="248.1795"
   rx="19.733107"
   ry="13.726999"
   id="ellipse12"
   style="stroke-width:0.996567" />
</svg>
