<?xml version="1.0" encoding="UTF-8" standalone="no"?>
<!-- Generator: Adobe Illustrator 16.0.4, SVG Export Plug-In . SVG Version: 6.00 Build 0)  -->

<svg
   version="1.1"
   id="Layer_1"
   x="0px"
   y="0px"
   width="225.34041"
   height="405.79431"
   viewBox="0 0 225.34041 405.79432"
   enable-background="new 0 0 612 793"
   xml:space="preserve"
   sodipodi:docname="Wave-dark.svg"
   inkscape:version="1.1.2 (b8e25be833, 2022-02-05)"
   inkscape:export-filename="C:\Projects\xpipe\xpipex\app\src\main\resources\io\xpipe\app\resources\img\Wave-dark.png"
   inkscape:export-xdpi="33.289825"
   inkscape:export-ydpi="33.289825"
   xmlns:inkscape="http://www.inkscape.org/namespaces/inkscape"
   xmlns:sodipodi="http://sodipodi.sourceforge.net/DTD/sodipodi-0.dtd"
   xmlns:xlink="http://www.w3.org/1999/xlink"
   xmlns="http://www.w3.org/2000/svg"
   xmlns:svg="http://www.w3.org/2000/svg"><defs
   id="defs33" /><sodipodi:namedview
   id="namedview31"
   pagecolor="#000000"
   bordercolor="#666666"
   borderopacity="1.0"
   inkscape:pageshadow="2"
   inkscape:pageopacity="0"
   inkscape:pagecheckerboard="0"
   showgrid="false"
   inkscape:zoom="1.0807062"
   inkscape:cx="257.70186"
   inkscape:cy="144.35006"
   inkscape:window-width="1920"
   inkscape:window-height="1017"
   inkscape:window-x="-8"
   inkscape:window-y="-8"
   inkscape:window-maximized="1"
   inkscape:current-layer="g28" />
<g
   id="g28"
   transform="translate(-188.02943,-193.47308)">
	<defs
   id="defs3">
		<rect
   id="SVGID_1_"
   x="181.5"
   y="186"
   width="249"
   height="422" />
	</defs>
	<clipPath
   id="SVGID_2_">
		<use
   xlink:href="#SVGID_1_"
   overflow="visible"
   id="use5"
   x="0"
   y="0"
   width="100%"
   height="100%" />
	</clipPath>
	<path
   clip-path="url(#SVGID_2_)"
   fill-rule="evenodd"
   clip-rule="evenodd"
   d="m 238.84,237.41 c 8.42,17.64 2.73,140.83 -7.13,184.1 -9.87,43.27 -19.73,98.28 -22.03,144.58 -1.01,19.73 2.01,27.5 14.9,27.5 22.75,0 51.62,-47.95 87.91,-46.87 36.29,1.08 47.81,55.01 64.8,54.65 16.99,-0.36 30.67,-6.27 30.82,-58.75 0.5,-156.75 -130.9,-283.76 -169.27,-305.21 z"
   id="path8"
   style="stroke:#ffffff;stroke-width:4;stroke-miterlimit:6.49123;stroke-dasharray:none;stroke-opacity:1"
   transform="matrix(0.97977228,0,0,0.98618656,3.8316025,4.2301068)"
   inkscape:export-filename="C:\Projects\xpipe\xpipex\app\src\main\resources\io\xpipe\app\resources\img\graphics\Wave-288-dark.png"
   inkscape:export-xdpi="68.163544"
   inkscape:export-ydpi="68.163544" />
	
		<path
   style="stroke:#ffffff;stroke-width:3.9319;stroke-miterlimit:6.49123;stroke-dasharray:none;stroke-opacity:1"
   d="m 349.50506,361.84108 c 7.82837,13.27408 27.79614,3.04732 28.63875,-11.93286 0.8524,-14.98017 -1.3325,-33.86565 -11.00285,-34.57569 -9.66056,-0.71006 -16.57774,-10.44373 -26.2383,-11.15378 -9.67034,-0.71005 -20.03634,9.02361 -24.55308,-3.9053 -4.51676,-12.91904 12.13937,-18.39237 24.55308,-20.44364 -11.08122,-11.15378 -17.56732,-23.51069 -22.43679,-36.3607 -4.86946,-12.85002 -8.46523,-24.63396 5.1536,-29.67435 13.60905,-5.04928 12.48231,20.86769 28.07048,32.73151 -4.58533,-17.46535 -6.27054,-24.71382 -5.91782,-34.86168 0.35272,-10.15773 -0.35272,-17.89928 13.96175,-15.90719 14.32427,1.98224 8.11252,31.95244 19.26233,44.16143 3.38022,-11.56797 5.42793,-26.272 13.60903,-32.30747 8.1909,-6.03546 26.80657,-6.17353 14.96113,18.60934 -11.85525,24.77301 3.45859,38.19501 -0.14697,57.72151 -3.59577,19.52649 -14.73577,15.97622 -19.53666,28.5501 -4.80088,12.56402 2.82175,41.18315 -6.21176,54.03316 -9.0237,12.85001 -10.65011,32.66249 -4.79109,48.42175 -17.98861,-16.89337 -27.37483,-53.10614 -27.37483,-53.10614 z"
   id="path10"
   inkscape:export-filename="C:\Projects\xpipe\xpipex\app\src\main\resources\io\xpipe\app\resources\img\graphics\Wave-288-dark.png"
   inkscape:export-xdpi="68.163544"
   inkscape:export-ydpi="68.163544" />
	<path
   clip-path="url(#SVGID_2_)"
   fill-rule="evenodd"
   clip-rule="evenodd"
   d="m 238.33,379.54 c -7.41,50.9 -33.19,56.95 -34.49,78.04 -1.29,21.1 6.84,23.12 6.34,42.63 -0.5,19.51 -17.86,27.43 -19.94,38.01 -2.09,10.59 8.92,13.97 15.33,13.97 6.41,0 12.82,-28.08 15.41,-45.93 2.59,-17.86 -8.5,-28.37 -8.5,-40.61 0,-12.24 16.06,-34.63 13.11,-14.98 13.32,-21.02 19.65,-47.81 12.74,-71.13 z"
   id="path12"
   style="stroke:#ffffff;stroke-width:4;stroke-miterlimit:6.49123;stroke-dasharray:none;stroke-opacity:1"
   sodipodi:nodetypes="ccscscscc"
   transform="matrix(0.97977228,0,0,0.98618656,3.8316025,4.2301068)"
   inkscape:export-filename="C:\Projects\xpipe\xpipex\app\src\main\resources\io\xpipe\app\resources\img\graphics\Wave-288-dark.png"
   inkscape:export-xdpi="68.163544"
   inkscape:export-ydpi="68.163544" />
	<path
   clip-path="url(#SVGID_2_)"
   fill-rule="evenodd"
   clip-rule="evenodd"
   fill="#ffffff"
   d="m 248.27,398.98 c -5.62,27.5 -40.68,181.08 -22.83,183.02 17.86,1.94 43.28,-47.52 84.96,-47.16 41.69,0.36 58.11,55.44 68.26,55.08 10.15,-0.36 16.85,3.6 17.93,-58.46 1.08,-62.07 -36.79,-141.41 -59.19,-176.33 -30.38,1.94 -63.14,26.28 -89.13,43.85 z"
   id="path14"
   transform="matrix(0.97977228,0,0,0.98618656,3.8316025,4.2301068)"
   inkscape:export-filename="C:\Projects\xpipe\xpipex\app\src\main\resources\io\xpipe\app\resources\img\graphics\Wave-288-dark.png"
   inkscape:export-xdpi="68.163544"
   inkscape:export-ydpi="68.163544" />
	<g
   clip-path="url(#SVGID_2_)"
   id="g22"
   transform="matrix(0.97977228,0,0,0.98618656,3.8316025,4.2301068)"
   inkscape:export-filename="C:\Projects\xpipe\xpipex\app\src\main\resources\io\xpipe\app\resources\img\graphics\Wave-288-dark.png"
   inkscape:export-xdpi="68.163544"
   inkscape:export-ydpi="68.163544">
		<defs
   id="defs17">
			<path
   id="SVGID_3_"
   d="m 283.04,408.91 c 21.53,0.65 43.49,-15.48 44.14,-38.95 0.65,-23.47 -19.01,-32.54 -36,-31.54 -16.99,1.01 -41.47,15.63 -41.98,34.49 -0.5,18.87 12.32,35.35 33.84,36 z" />
		</defs>
		<clipPath
   id="SVGID_4_">
			<use
   xlink:href="#SVGID_3_"
   overflow="visible"
   id="use19"
   x="0"
   y="0"
   width="100%"
   height="100%" />
		</clipPath>
	</g>
	<path
   clip-path="url(#SVGID_2_)"
   fill="#910028"
   stroke="#000000"
   stroke-width="7.99"
   stroke-miterlimit="11.4737"
   d="m 283.04,408.91 c 21.53,0.65 43.49,-15.48 44.14,-38.95 0.65,-23.47 -19.01,-32.54 -36,-31.54 -16.99,1.01 -41.47,15.63 -41.98,34.49 -0.5,18.87 12.32,35.35 33.84,36 z"
   id="path24"
   transform="matrix(0.97977228,0,0,0.98618656,3.8316025,4.2301068)"
   inkscape:export-filename="C:\Projects\xpipe\xpipex\app\src\main\resources\io\xpipe\app\resources\img\graphics\Wave-288-dark.png"
   inkscape:export-xdpi="68.163544"
   inkscape:export-ydpi="68.163544" />
	<path
   clip-path="url(#SVGID_2_)"
   fill-rule="evenodd"
   clip-rule="evenodd"
   fill="#ffffff"
   d="m 271.38,355.62 c 6.18,-4.46 12.96,-5.601 14.96,-2.88 2.021,2.88 -1.28,8.8 -7.34,13.26 -6.04,4.46 -12.66,5.76 -14.82,2.88 -2.02,-2.74 1.14,-8.78 7.2,-13.26 z"
   id="path26"
   transform="matrix(0.97977228,0,0,0.98618656,3.8316025,4.2301068)"
   inkscape:export-filename="C:\Projects\xpipe\xpipex\app\src\main\resources\io\xpipe\app\resources\img\graphics\Wave-288-dark.png"
   inkscape:export-xdpi="68.163544"
   inkscape:export-ydpi="68.163544" />
<path
   style="fill:#000000;fill-opacity:1;stroke:#000000;stroke-width:0.982975px;stroke-linecap:butt;stroke-linejoin:miter;stroke-opacity:1"
   d="m 346.92302,361.47876 c 11.67496,11.25709 18.34458,32.13492 25.36381,45.95938 l 5.19373,13.41569 -18.1101,-23.39078 -14.10345,-32.10181"
   id="path3198"
   sodipodi:nodetypes="ccccc"
   inkscape:export-filename="C:\Projects\xpipe\xpipex\app\src\main\resources\io\xpipe\app\resources\img\graphics\Wave-288-dark.png"
   inkscape:export-xdpi="68.163544"
   inkscape:export-ydpi="68.163544" /><path
   style="fill:#000000;fill-opacity:1;stroke:#000000;stroke-width:0.982975px;stroke-linecap:butt;stroke-linejoin:miter;stroke-opacity:1"
   d="m 239.93309,373.7041 -3.48697,19.08081 -9.44767,47.5881 -0.94219,16.85174 15.83886,-42.01697 5.12854,-38.71576 z"
   id="path5151"
   sodipodi:nodetypes="ccccccc"
   inkscape:export-filename="C:\Projects\xpipe\xpipex\app\src\main\resources\io\xpipe\app\resources\img\graphics\Wave-288-dark.png"
   inkscape:export-xdpi="68.163544"
   inkscape:export-ydpi="68.163544" /></g>
</svg>
