<?xml version="1.0" encoding="UTF-8" standalone="no"?>
<!-- Generator: Adobe Illustrator 16.0.4, SVG Export Plug-In . SVG Version: 6.00 Build 0)  -->

<svg
   version="1.1"
   id="Layer_1"
   x="0px"
   y="0px"
   width="229.97421"
   height="406.61072"
   viewBox="0 0 229.97421 406.61073"
   enable-background="new 0 0 612 793"
   xml:space="preserve"
   sodipodi:docname="Wave-dark.svg"
   inkscape:version="1.1.2 (b8e25be833, 2022-02-05)"
   inkscape:export-filename="C:\Projects\xpipe\xpipex\app\src\main\resources\io\xpipe\app\resources\img\Wave-dark.png"
   inkscape:export-xdpi="33.289825"
   inkscape:export-ydpi="33.289825"
   xmlns:inkscape="http://www.inkscape.org/namespaces/inkscape"
   xmlns:sodipodi="http://sodipodi.sourceforge.net/DTD/sodipodi-0.dtd"
   xmlns:xlink="http://www.w3.org/1999/xlink"
   xmlns="http://www.w3.org/2000/svg"
   xmlns:svg="http://www.w3.org/2000/svg"><defs
   id="defs33" /><sodipodi:namedview
   id="namedview31"
   pagecolor="#000000"
   bordercolor="#666666"
   borderopacity="1.0"
   inkscape:pageshadow="2"
   inkscape:pageopacity="1"
   inkscape:pagecheckerboard="0"
   showgrid="false"
   inkscape:zoom="2.1614124"
   inkscape:cx="198.25"
   inkscape:cy="264.17911"
   inkscape:window-width="1920"
   inkscape:window-height="1017"
   inkscape:window-x="-8"
   inkscape:window-y="-8"
   inkscape:window-maximized="1"
   inkscape:current-layer="g28" />
<g
   id="g28"
   transform="translate(-188.00066,-191.89914)">
	<defs
   id="defs3">
		<rect
   id="SVGID_1_"
   x="181.5"
   y="186"
   width="249"
   height="422" />
	</defs>
	<clipPath
   id="SVGID_2_">
		<use
   xlink:href="#SVGID_1_"
   overflow="visible"
   id="use5"
   x="0"
   y="0"
   width="100%"
   height="100%" />
	</clipPath>
	<path
   clip-path="url(#SVGID_2_)"
   fill-rule="evenodd"
   clip-rule="evenodd"
   d="m 238.84,237.41 c 8.42,17.64 2.73,140.83 -7.13,184.1 -9.87,43.27 -19.73,98.28 -22.03,144.58 -1.01,19.73 2.01,27.5 14.9,27.5 22.75,0 51.62,-47.95 87.91,-46.87 36.29,1.08 47.81,55.01 64.8,54.65 16.99,-0.36 30.67,-6.27 30.82,-58.75 0.5,-156.75 -130.9,-283.76 -169.27,-305.21 z"
   id="path8"
   style="stroke:#ffffff;stroke-width:4;stroke-miterlimit:6.49123;stroke-dasharray:none;stroke-opacity:1"
   transform="matrix(1,0,0,0.98812626,0,2.3022175)" />
	
		<path
   style="stroke:#ffffff;stroke-width:3.97618;stroke-miterlimit:6.49123;stroke-dasharray:none;stroke-opacity:1"
   d="m 352.81,360.61656 c 7.99,13.30019 28.37,3.05331 29.23,-11.95633 0.87,-15.00964 -1.36,-33.93226 -11.23,-34.6437 -9.86,-0.71145 -16.92,-10.46426 -26.78,-11.17571 -9.87,-0.71145 -20.45,9.04136 -25.06,-3.91298 -4.61,-12.94446 12.39,-18.42855 25.06,-20.48385 -11.31,-11.17572 -17.93,-23.55694 -22.9,-36.43222 -4.97,-12.87529 -8.64,-24.68241 5.26,-29.73272 13.89,-5.05921 12.74,20.90874 28.65,32.7959 -4.68,-17.49971 -6.4,-24.76243 -6.04,-34.93026 0.36,-10.1777 -0.36,-17.93448 14.25,-15.93847 14.62,1.98613 8.28,32.01529 19.66,44.24829 3.45,-11.59072 5.54,-26.32368 13.89,-32.37101 8.36,-6.04734 27.36,-6.18568 15.27,18.64594 -12.1,24.82173 3.53,38.27013 -0.15,57.83503 -3.67,19.5649 -15.04,16.00764 -19.94,28.60626 -4.9,12.58873 2.88,41.26415 -6.34,54.13943 -9.21,12.87529 -10.87,32.72674 -4.89,48.517 -18.36,-16.9266 -27.94,-53.2106 -27.94,-53.2106 z"
   id="path10" />
	<path
   clip-path="url(#SVGID_2_)"
   fill-rule="evenodd"
   clip-rule="evenodd"
   d="m 238.33,379.54 c -7.41,50.9 -33.19,56.95 -34.49,78.04 -1.29,21.1 6.84,23.12 6.34,42.63 -0.5,19.51 -17.86,27.43 -19.94,38.01 -2.09,10.59 8.92,13.97 15.33,13.97 6.41,0 12.82,-28.08 15.41,-45.93 2.59,-17.86 -8.5,-28.37 -8.5,-40.61 0,-12.24 16.06,-34.63 13.11,-14.98 13.32,-21.02 19.65,-47.81 12.74,-71.13 z"
   id="path12"
   style="stroke:#ffffff;stroke-width:4;stroke-miterlimit:6.49123;stroke-dasharray:none;stroke-opacity:1"
   sodipodi:nodetypes="ccscscscc"
   transform="matrix(1,0,0,0.98812626,0,2.3022175)" />
	<path
   clip-path="url(#SVGID_2_)"
   fill-rule="evenodd"
   clip-rule="evenodd"
   fill="#ffffff"
   d="m 248.27,398.98 c -5.62,27.5 -40.68,181.08 -22.83,183.02 17.86,1.94 43.28,-47.52 84.96,-47.16 41.69,0.36 58.11,55.44 68.26,55.08 10.15,-0.36 16.85,3.6 17.93,-58.46 1.08,-62.07 -36.79,-141.41 -59.19,-176.33 -30.38,1.94 -63.14,26.28 -89.13,43.85 z"
   id="path14"
   transform="matrix(1,0,0,0.98812626,0,2.3022175)" />
	<g
   clip-path="url(#SVGID_2_)"
   id="g22"
   transform="matrix(1,0,0,0.98812626,0,2.3022175)">
		<defs
   id="defs17">
			<path
   id="SVGID_3_"
   d="m 283.04,408.91 c 21.53,0.65 43.49,-15.48 44.14,-38.95 0.65,-23.47 -19.01,-32.54 -36,-31.54 -16.99,1.01 -41.47,15.63 -41.98,34.49 -0.5,18.87 12.32,35.35 33.84,36 z" />
		</defs>
		<clipPath
   id="SVGID_4_">
			<use
   xlink:href="#SVGID_3_"
   overflow="visible"
   id="use19"
   x="0"
   y="0"
   width="100%"
   height="100%" />
		</clipPath>
	</g>
	<path
   clip-path="url(#SVGID_2_)"
   fill="#910028"
   stroke="#000000"
   stroke-width="7.99"
   stroke-miterlimit="11.4737"
   d="m 283.04,408.91 c 21.53,0.65 43.49,-15.48 44.14,-38.95 0.65,-23.47 -19.01,-32.54 -36,-31.54 -16.99,1.01 -41.47,15.63 -41.98,34.49 -0.5,18.87 12.32,35.35 33.84,36 z"
   id="path24"
   transform="matrix(1,0,0,0.98812626,0,2.3022175)" />
	<path
   clip-path="url(#SVGID_2_)"
   fill-rule="evenodd"
   clip-rule="evenodd"
   fill="#ffffff"
   d="m 271.38,355.62 c 6.18,-4.46 12.96,-5.601 14.96,-2.88 2.021,2.88 -1.28,8.8 -7.34,13.26 -6.04,4.46 -12.66,5.76 -14.82,2.88 -2.02,-2.74 1.14,-8.78 7.2,-13.26 z"
   id="path26"
   transform="matrix(1,0,0,0.98812626,0,2.3022175)" />
<path
   style="fill:#000000;fill-opacity:1;stroke:#000000;stroke-width:0.994046px;stroke-linecap:butt;stroke-linejoin:miter;stroke-opacity:1"
   d="m 350.17466,360.25353 c 11.91599,11.27923 18.7233,32.19813 25.88745,46.04977 l 5.30095,13.44208 -18.48399,-23.43678 -14.39461,-32.16495"
   id="path3198"
   sodipodi:nodetypes="ccccc" /><path
   style="fill:#000000;fill-opacity:1;stroke:#000000;stroke-width:0.994046px;stroke-linecap:butt;stroke-linejoin:miter;stroke-opacity:1"
   d="m 240.97588,372.50291 -3.55896,19.11834 -9.64272,47.68171 -0.96165,16.88488 16.16587,-42.09962 5.23441,-38.7919 z"
   id="path5151"
   sodipodi:nodetypes="ccccccc" /></g>
</svg>
