<?xml version="1.0" encoding="UTF-8" standalone="no"?>
<!-- Created with Inkscape (http://www.inkscape.org/) -->

<svg
   version="1.1"
   id="svg2"
   xml:space="preserve"
   width="328.55212"
   height="404.83218"
   viewBox="0 0 328.55212 404.83218"
   sodipodi:docname="shadow.svg"
   inkscape:export-filename="C:\Projects\xpipe\xpipex\app\src\main\resources\io\xpipe\app\resources\img\logo\full\logo_32x32.png"
   inkscape:export-xdpi="6"
   inkscape:export-ydpi="6"
   inkscape:version="1.4 (86a8ad7, 2024-10-11)"
   xmlns:inkscape="http://www.inkscape.org/namespaces/inkscape"
   xmlns:sodipodi="http://sodipodi.sourceforge.net/DTD/sodipodi-0.dtd"
   xmlns="http://www.w3.org/2000/svg"
   xmlns:svg="http://www.w3.org/2000/svg"><defs
     id="defs6"><clipPath
       clipPathUnits="userSpaceOnUse"
       id="clipPath18"><path
         d="M 0,360 H 576 V 0 H 0 Z"
         id="path16" /></clipPath><clipPath
       clipPathUnits="userSpaceOnUse"
       id="clipPath18-2"><path
         d="M 0,360 H 576 V 0 H 0 Z"
         id="path16-2" /></clipPath></defs><sodipodi:namedview
     id="namedview4"
     pagecolor="#4f5151"
     bordercolor="#666666"
     borderopacity="1.0"
     inkscape:pageshadow="2"
     inkscape:pageopacity="0"
     inkscape:pagecheckerboard="true"
     showgrid="false"
     inkscape:zoom="1.4142136"
     inkscape:cx="265.51859"
     inkscape:cy="150.26019"
     inkscape:window-width="1920"
     inkscape:window-height="1009"
     inkscape:window-x="-8"
     inkscape:window-y="-8"
     inkscape:window-maximized="1"
     inkscape:current-layer="layer1"
     width="170.77866px"
     inkscape:showpageshadow="2"
     inkscape:deskcolor="#d1d1d1" /><g
     inkscape:groupmode="layer"
     id="layer2"
     inkscape:label="bg"
     style="display:inline"
     transform="translate(-100.17252,-53.358016)" /><g
     inkscape:groupmode="layer"
     id="layer1"
     inkscape:label="shadow"
     style="display:inline"
     transform="translate(-100.17252,-53.358016)"><path
       id="path7210-8"
       style="display:inline;fill:#000000;fill-opacity:1;fill-rule:nonzero;stroke:none;stroke-width:3.70794;stroke-opacity:1"
       d="M 194.22916 344.6002 L 100.17252 448.33848 L 108.51236 457.59825 L 184.14127 458.02989 L 230.56315 387.98497 L 194.22916 344.6002 z " /><path
       id="path42-1"
       style="display:inline;fill:#000000;fill-opacity:1;fill-rule:nonzero;stroke:none;stroke-width:3.70794;stroke-opacity:1"
       d="M 168.74088 53.358016 C 159.45212 53.358016 151.04336 55.540892 144.01432 60.236922 C 129.69172 69.771211 123.35807 87.901832 123.35807 111.21739 C 123.41317 159.5735 148.82882 232.79129 195.27994 309.29747 L 228.11588 263.82872 L 227.10807 253.74278 L 224.36588 257.32286 C 190.37649 198.16299 173.07551 145.27185 173.13932 114.67638 C 173.13132 103.00176 175.89581 95.045021 180.61002 91.2545 C 184.15208 88.343342 188.91472 86.847757 195.07291 86.836532 C 199.60339 86.791602 204.77759 87.652003 210.46549 89.275985 C 228.77846 94.327502 278.04918 104.0894 355.37955 184.89122 L 355.60025 184.70567 C 287.29776 98.661497 216.51476 53.657374 168.74088 53.358016 z " /><path
       id="path30-0"
       style="display:inline;fill:#000000;fill-opacity:1;fill-rule:nonzero;stroke:none;stroke-width:3.70794;stroke-opacity:1"
       d="M 364.15104 192.56505 L 356.26627 203.39513 L 295.91666 203.39513 L 294.99869 204.68223 L 205.5358 328.48497 C 281.26047 437.8447 329.55293 457.80462 384.07291 458.19005 C 419.64067 452.24795 428.42497 433.73976 428.72525 403.71739 C 428.72525 399.53024 428.57653 384.19072 428.20182 379.71544 L 427.99869 379.70958 C 425.67282 384.77606 423.70216 402.13251 419.1276 407.2252 C 417.91136 408.75938 416.541 410.1801 414.98307 411.59825 C 414.49439 412.02858 413.95106 412.33785 413.444 412.72325 C 412.94426 413.10869 412.45128 413.48754 411.94791 413.81309 C 411.48495 414.11618 411.0191 414.40873 410.53775 414.67442 C 409.47954 415.26188 408.46527 415.72992 407.5026 416.10411 C 407.20125 416.21636 406.89741 416.3272 406.59244 416.42833 C 405.00878 416.96716 403.68685 417.25635 402.83072 417.38731 C 401.15155 417.67917 399.41156 417.85037 397.56705 417.85411 C 364.95951 418.29897 324.57728 397.22282 272.87369 335.10997 L 366.82486 203.44981 L 366.87565 203.44981 L 366.86197 203.39708 L 366.86197 203.39513 L 364.15104 192.56505 z " /></g><g
     id="g8"
     inkscape:groupmode="layer"
     inkscape:label="X-Pipe_final_app"
     transform="matrix(1.3333333,0,0,-1.3333333,-394.94811,283.60384)"
     style="display:inline" /></svg>
