<?xml version="1.0" encoding="UTF-8" standalone="no"?>
<!-- Generator: Adobe Illustrator 16.0.4, SVG Export Plug-In . SVG Version: 6.00 Build 0)  -->

<svg
   version="1.1"
   id="Layer_1"
   x="0px"
   y="0px"
   width="229.98611"
   height="411.48474"
   viewBox="0 0 229.98611 411.48475"
   enable-background="new 0 0 612 793"
   xml:space="preserve"
   sodipodi:docname="Wave-dark.svg"
   inkscape:version="1.1.2 (b8e25be833, 2022-02-05)"
   inkscape:export-filename="C:\Projects\xpipe\xpipex\app\src\main\resources\io\xpipe\app\resources\img\Wave-dark.png"
   inkscape:export-xdpi="81.919998"
   inkscape:export-ydpi="81.919998"
   xmlns:inkscape="http://www.inkscape.org/namespaces/inkscape"
   xmlns:sodipodi="http://sodipodi.sourceforge.net/DTD/sodipodi-0.dtd"
   xmlns:xlink="http://www.w3.org/1999/xlink"
   xmlns="http://www.w3.org/2000/svg"
   xmlns:svg="http://www.w3.org/2000/svg"><defs
   id="defs33" /><sodipodi:namedview
   id="namedview31"
   pagecolor="#000000"
   bordercolor="#666666"
   borderopacity="1.0"
   inkscape:pageshadow="2"
   inkscape:pageopacity="1"
   inkscape:pagecheckerboard="0"
   showgrid="false"
   inkscape:zoom="2.1614124"
   inkscape:cx="198.25"
   inkscape:cy="301.19194"
   inkscape:window-width="1920"
   inkscape:window-height="1017"
   inkscape:window-x="-8"
   inkscape:window-y="-8"
   inkscape:window-maximized="1"
   inkscape:current-layer="g28" />
<g
   id="g28"
   transform="translate(-188.00066,-191.88717)">
	<defs
   id="defs3">
		<rect
   id="SVGID_1_"
   x="181.5"
   y="186"
   width="249"
   height="422" />
	</defs>
	<clipPath
   id="SVGID_2_">
		<use
   xlink:href="#SVGID_1_"
   overflow="visible"
   id="use5"
   x="0"
   y="0"
   width="100%"
   height="100%" />
	</clipPath>
	<path
   clip-path="url(#SVGID_2_)"
   fill-rule="evenodd"
   clip-rule="evenodd"
   d="m 238.84,237.41 c 8.42,17.64 2.73,140.83 -7.13,184.1 -9.87,43.27 -19.73,98.28 -22.03,144.58 -1.01,19.73 2.01,27.5 14.9,27.5 22.75,0 51.62,-47.95 87.91,-46.87 36.29,1.08 47.81,55.01 64.8,54.65 16.99,-0.36 30.67,-6.27 30.82,-58.75 0.5,-156.75 -130.9,-283.76 -169.27,-305.21 z"
   id="path8"
   style="stroke:#ffffff;stroke-width:4;stroke-miterlimit:6.49123;stroke-dasharray:none;stroke-opacity:1" />
	
		<path
   style="stroke:#ffffff;stroke-width:4;stroke-miterlimit:6.49123;stroke-dasharray:none;stroke-opacity:1"
   d="m 352.81,362.62 c 7.99,13.46 28.37,3.09 29.23,-12.1 0.87,-15.19 -1.36,-34.34 -11.23,-35.06 -9.86,-0.72 -16.92,-10.59 -26.78,-11.31 -9.87,-0.72 -20.45,9.15 -25.06,-3.96 -4.61,-13.1 12.39,-18.65 25.06,-20.73 -11.31,-11.31 -17.93,-23.84 -22.9,-36.87 -4.97,-13.03 -8.64,-24.979 5.26,-30.09 13.89,-5.12 12.74,21.16 28.65,33.19 -4.68,-17.71 -6.4,-25.06 -6.04,-35.35 0.36,-10.3 -0.36,-18.15 14.25,-16.13 14.62,2.01 8.28,32.4 19.66,44.78 3.45,-11.73 5.54,-26.64 13.89,-32.76 8.36,-6.12 27.36,-6.26 15.27,18.87 -12.1,25.12 3.53,38.73 -0.15,58.53 -3.67,19.8 -15.04,16.2 -19.94,28.95 -4.9,12.74 2.88,41.76 -6.34,54.79 -9.21,13.03 -10.87,33.12 -4.89,49.1 -18.36,-17.13 -27.94,-53.85 -27.94,-53.85 z"
   id="path10" />
	<path
   clip-path="url(#SVGID_2_)"
   fill-rule="evenodd"
   clip-rule="evenodd"
   d="m 238.33,379.54 c -7.41,50.9 -33.19,56.95 -34.49,78.04 -1.29,21.1 6.84,23.12 6.34,42.63 -0.5,19.51 -17.86,27.43 -19.94,38.01 -2.09,10.59 8.92,13.97 15.33,13.97 6.41,0 12.82,-28.08 15.41,-45.93 2.59,-17.86 -8.5,-28.37 -8.5,-40.61 0,-12.24 16.06,-34.63 13.11,-14.98 13.32,-21.02 19.65,-47.81 12.74,-71.13 z"
   id="path12"
   style="stroke:#ffffff;stroke-width:4;stroke-miterlimit:6.49123;stroke-dasharray:none;stroke-opacity:1"
   sodipodi:nodetypes="ccscscscc" />
	<path
   clip-path="url(#SVGID_2_)"
   fill-rule="evenodd"
   clip-rule="evenodd"
   fill="#ffffff"
   d="m 248.27,398.98 c -5.62,27.5 -40.68,181.08 -22.83,183.02 17.86,1.94 43.28,-47.52 84.96,-47.16 41.69,0.36 58.11,55.44 68.26,55.08 10.15,-0.36 16.85,3.6 17.93,-58.46 1.08,-62.07 -36.79,-141.41 -59.19,-176.33 -30.38,1.94 -63.14,26.28 -89.13,43.85 z"
   id="path14" />
	<g
   clip-path="url(#SVGID_2_)"
   id="g22">
		<defs
   id="defs17">
			<path
   id="SVGID_3_"
   d="m 283.04,408.91 c 21.53,0.65 43.49,-15.48 44.14,-38.95 0.65,-23.47 -19.01,-32.54 -36,-31.54 -16.99,1.01 -41.47,15.63 -41.98,34.49 -0.5,18.87 12.32,35.35 33.84,36 z" />
		</defs>
		<clipPath
   id="SVGID_4_">
			<use
   xlink:href="#SVGID_3_"
   overflow="visible"
   id="use19"
   x="0"
   y="0"
   width="100%"
   height="100%" />
		</clipPath>
	</g>
	<path
   clip-path="url(#SVGID_2_)"
   fill="#910028"
   stroke="#000000"
   stroke-width="7.99"
   stroke-miterlimit="11.4737"
   d="m 283.04,408.91 c 21.53,0.65 43.49,-15.48 44.14,-38.95 0.65,-23.47 -19.01,-32.54 -36,-31.54 -16.99,1.01 -41.47,15.63 -41.98,34.49 -0.5,18.87 12.32,35.35 33.84,36 z"
   id="path24" />
	<path
   clip-path="url(#SVGID_2_)"
   fill-rule="evenodd"
   clip-rule="evenodd"
   fill="#ffffff"
   d="m 271.38,355.62 c 6.18,-4.46 12.96,-5.601 14.96,-2.88 2.021,2.88 -1.28,8.8 -7.34,13.26 -6.04,4.46 -12.66,5.76 -14.82,2.88 -2.02,-2.74 1.14,-8.78 7.2,-13.26 z"
   id="path26" />
<path
   style="fill:#000000;fill-opacity:1;stroke:#000000;stroke-width:1px;stroke-linecap:butt;stroke-linejoin:miter;stroke-opacity:1"
   d="m 350.17466,362.2526 c 11.91599,11.41477 18.7233,32.58504 25.88745,46.60313 l 5.30095,13.6036 -18.48399,-23.7184 -14.39461,-32.55146"
   id="path3198"
   sodipodi:nodetypes="ccccc" /><path
   style="fill:#000000;fill-opacity:1;stroke:#000000;stroke-width:1px;stroke-linecap:butt;stroke-linejoin:miter;stroke-opacity:1"
   d="m 240.97588,374.64918 -3.55896,19.34807 -9.64272,48.25468 -0.96165,17.08778 16.16587,-42.60551 5.23441,-39.25804 z"
   id="path5151"
   sodipodi:nodetypes="ccccccc" /></g>
</svg>
