<?xml version="1.0" encoding="UTF-8" standalone="no"?>
<svg
   id="Layer_1"
   data-name="Layer 1"
   viewBox="0 0 204.59 204.59"
   version="1.1"
   sodipodi:docname="actionMacro_icon.svg"
   inkscape:version="1.4 (86a8ad7, 2024-10-11)"
   inkscape:export-filename="C:\Projects\xpipe\xpipex\ext\proc\src\main\resources\io\xpipe\ext\proc\resources\img\ssh_icon-16.png"
   inkscape:export-xdpi="7.5076985"
   inkscape:export-ydpi="7.5076985"
   xml:space="preserve"
   xmlns:inkscape="http://www.inkscape.org/namespaces/inkscape"
   xmlns:sodipodi="http://sodipodi.sourceforge.net/DTD/sodipodi-0.dtd"
   xmlns="http://www.w3.org/2000/svg"
   xmlns:svg="http://www.w3.org/2000/svg"
   xmlns:rdf="http://www.w3.org/1999/02/22-rdf-syntax-ns#"
   xmlns:cc="http://creativecommons.org/ns#"
   xmlns:dc="http://purl.org/dc/elements/1.1/"><sodipodi:namedview
     id="namedview873"
     pagecolor="#ffffff"
     bordercolor="#666666"
     borderopacity="1.0"
     inkscape:pageshadow="2"
     inkscape:pageopacity="0"
     inkscape:pagecheckerboard="false"
     showgrid="false"
     inkscape:zoom="0.52360818"
     inkscape:cx="-338.99394"
     inkscape:cy="20.053163"
     inkscape:window-width="1920"
     inkscape:window-height="1009"
     inkscape:window-x="-8"
     inkscape:window-y="-8"
     inkscape:window-maximized="1"
     inkscape:current-layer="Layer_1"
     inkscape:showpageshadow="2"
     inkscape:deskcolor="#d1d1d1" /><defs
     id="defs856"><style
       id="style854">.cls-1{fill:#ac55ff;}</style></defs><title
     id="title858">ssh draft</title><path
     class="cls-1"
     d="M332.32,153.7H179.68a26,26,0,0,0-26,26V332.32a26,26,0,0,0,26,26H332.32a26,26,0,0,0,26-26V179.68A26,26,0,0,0,332.32,153.7Zm14,178.62a14,14,0,0,1-14,14H179.68a14,14,0,0,1-14-14V179.68a14,14,0,0,1,14-14H332.32a14,14,0,0,1,14,14Z"
     id="path860"
     style="fill:#ff2e71;fill-opacity:1"
     transform="translate(-153.7 -153.7)" /><path
     class="cls-1"
     d="M 31.917287,42.631446 53.774576,55.018138 31.917287,67.404826 V 79.693419 L 67.249228,59.664258 V 50.363095 L 31.917287,30.342852 Z"
     id="path870"
     style="fill:#ff2e71;fill-opacity:1;stroke-width:0.891772" /><metadata
     id="metadata932"><rdf:RDF><cc:Work
         rdf:about=""><dc:title>ssh draft</dc:title></cc:Work></rdf:RDF></metadata><path
     d="m 106.06273,62.271703 v 12.144306 c -4.97404,1.191853 -9.731877,3.157258 -14.097321,5.825282 l -8.576622,-8.576626 -16.119588,16.120719 8.591258,8.591258 c -2.671282,4.360038 -4.641473,9.112588 -5.838799,14.083818 H 57.876237 v 22.79723 h 12.144306 c 1.191338,4.97584 3.157027,9.73356 5.825279,14.09901 l -8.576623,8.57662 16.119588,16.12072 8.592386,-8.59239 c 4.360027,2.67128 9.112587,4.64147 14.083817,5.8388 v 12.14542 h 22.79723 v -12.14431 c 4.97545,-1.19145 9.73301,-3.15714 14.09788,-5.82528 l 8.57775,8.57776 16.11959,-16.12072 -8.59126,-8.59126 c 2.6714,-4.36037 4.64159,-9.11314 5.83879,-14.08494 h 12.14543 v -22.79723 h -12.1443 c -1.19146,-4.97545 -3.15715,-9.73301 -5.82528,-14.097883 l 8.58562,-8.569863 -16.12409,-16.120719 -8.59125,8.59126 c -4.36037,-2.671396 -9.11315,-4.641589 -14.08495,-5.838801 V 62.278463 h -22.79723 z m 11.39889,32.392884 a 27.194204,27.194204 0 0 1 27.19253,27.194763 27.194204,27.194204 0 0 1 -27.19253,27.19252 27.194204,27.194204 0 0 1 -27.194202,-27.19252 27.194204,27.194204 0 0 1 27.194202,-27.194763 z"
     fill-rule="evenodd"
     fill="#72a7cf"
     id="path1-0"
     style="stroke-width:0.562993;fill:#ff2e71;fill-opacity:1" /></svg>
