<?xml version="1.0" encoding="UTF-8" standalone="no"?>
<svg
   xml:space="preserve"
   viewBox="0 0 512 512"
   version="1.1"
   id="svg1"
   sodipodi:docname="aws_icon-dark.svg"
   inkscape:version="1.4 (86a8ad7, 2024-10-11)"
   xmlns:inkscape="http://www.inkscape.org/namespaces/inkscape"
   xmlns:sodipodi="http://sodipodi.sourceforge.net/DTD/sodipodi-0.dtd"
   xmlns="http://www.w3.org/2000/svg"
   xmlns:svg="http://www.w3.org/2000/svg"><defs
     id="defs1" /><sodipodi:namedview
     id="namedview1"
     pagecolor="#000000"
     bordercolor="#000000"
     borderopacity="0.25"
     inkscape:showpageshadow="2"
     inkscape:pageopacity="0.0"
     inkscape:pagecheckerboard="0"
     inkscape:deskcolor="#d1d1d1"
     inkscape:zoom="1.1145218"
     inkscape:cx="290.25902"
     inkscape:cy="335.1213"
     inkscape:window-width="1920"
     inkscape:window-height="1009"
     inkscape:window-x="-8"
     inkscape:window-y="-8"
     inkscape:window-maximized="1"
     inkscape:current-layer="svg1" /><path
     d="m 155.46762,259.5433 c 0,5.67 0.63,10.26 1.71,13.68 1.26,3.33 2.79,7.02 4.86,11.07 0.81,1.26 1.08,2.43 1.08,3.51 0,1.53 -0.9,3.06 -2.88,4.59 l -9.63,6.48 c -1.35,0.9 -2.79,1.35 -3.96,1.35 -1.53,0 -3.06,-0.81 -4.59,-2.16 -2.16,-2.34 -3.96,-4.77 -5.49,-7.2 -1.53,-2.61 -3.06,-5.49 -4.77,-9 -11.97,14.13 -27,21.15 -45.089997,21.15 -12.87,0 -23.13,-3.69 -30.69,-11.07 -7.47,-7.38 -11.34,-17.19 -11.34,-29.43 0,-13.05 4.59,-23.58 13.95,-31.59 9.36,-8.01 21.69,-11.97 37.53,-11.97 5.219997,0 10.529997,0.45 16.289997,1.26 5.76,0.81 11.52,1.98 17.64,3.33 v -11.16 c 0,-11.61 -2.43,-19.8 -7.2,-24.48 -4.86,-4.77 -13.14,-7.02 -25.019997,-7.02 -5.4,0 -10.89,0.63 -16.56,1.98 -5.67,1.35 -11.16,3.06 -16.56,5.22 -2.43,1.08 -4.32,1.71 -5.4,1.98 -1.08,0.27 -1.8,0.45 -2.43,0.45 -2.16,0 -3.24,-1.53 -3.24,-4.77 v -7.47 c 0,-2.43 0.27,-4.32 1.08,-5.4 0.81,-1.08 2.16,-2.16 4.32,-3.24 5.4,-2.79 11.79,-5.04 19.35,-6.93 7.47,-1.98 15.48,-2.88 23.939997,-2.88 18.27,0 31.59,4.14 40.14,12.42 8.46,8.28 12.69,20.88 12.69,37.71 v 49.68 z m -62.189997,23.31 c 5.04,0 10.259997,-0.9 15.749997,-2.79 5.49,-1.8 10.44,-5.22 14.58,-9.81 2.43,-2.88 4.32,-6.12 5.22,-9.81 0.9,-3.69 1.53,-8.1 1.53,-13.32 v -6.48 c -4.41,-1.08 -9.18,-1.98 -14.13,-2.61 -4.86,-0.63 -9.63,-0.9 -14.4,-0.9 -10.259997,0 -17.819997,1.98 -22.859997,6.12 -5.04,4.14 -7.47,9.99 -7.47,17.64 0,7.2 1.8,12.6 5.67,16.29 3.69,3.78 9,5.67 16.11,5.67 m 123.029997,16.56 c -2.79,0 -4.59,-0.45 -5.85,-1.53 -1.26,-0.9 -2.34,-3.06 -3.24,-5.94 l -36,-118.44 c -0.9,-3.06 -1.35,-5.04 -1.35,-6.12 0,-2.43 1.26,-3.87 3.69,-3.87 h 15.03 c 2.88,0 4.86,0.45 5.94,1.53 1.26,0.9 2.16,3.06 3.06,5.94 l 25.74,101.43 23.94,-101.43 c 0.81,-3.06 1.71,-5.04 2.88,-5.94 1.26,-0.9 3.33,-1.53 6.12,-1.53 h 12.33 c 2.88,0 4.86,0.45 6.12,1.53 1.26,0.9 2.34,3.06 2.88,5.94 l 24.21,102.69 26.55,-102.69 c 0.9,-3.06 1.98,-5.04 3.06,-5.94 1.26,-0.9 3.24,-1.53 5.94,-1.53 h 14.22 c 2.43,0 3.87,1.26 3.87,3.87 0,0.81 -0.18,1.53 -0.27,2.43 -0.18,0.9 -0.45,2.16 -1.08,3.87 l -36.9,118.44 q -1.35,4.59 -3.24,5.94 c -1.26,0.9 -3.24,1.53 -5.85,1.53 h -13.14 c -2.88,0 -4.86,-0.45 -6.12,-1.53 -1.26,-1.08 -2.34,-3.06 -2.88,-6.12 l -23.76,-98.82 -23.58,98.73 c -0.81,3.06 -1.71,5.04 -2.88,6.12 -1.26,1.08 -3.33,1.53 -6.12,1.53 z m 196.92,4.14 c -8.01,0 -15.93,-0.9 -23.58,-2.79 -7.65,-1.8 -13.68,-3.87 -17.64,-6.12 -2.43,-1.35 -4.14,-2.88 -4.77,-4.32 -0.63,-1.44 -0.9,-2.88 -0.9,-4.32 v -7.83 c 0,-3.24 1.26,-4.77 3.51,-4.77 0.9,0 1.8,0.18 2.79,0.45 0.9,0.27 2.34,0.9 3.87,1.53 5.22,2.34 10.89,4.14 16.83,5.4 6.12,1.26 12.15,1.8 18.27,1.8 9.63,0 17.19,-1.71 22.41,-5.04 5.22,-3.33 8.01,-8.28 8.01,-14.58 0,-4.32 -1.35,-7.83 -4.14,-10.71 -2.79,-2.88 -8.01,-5.49 -15.48,-8.01 l -22.23,-6.93 c -11.16,-3.51 -19.44,-8.73 -24.48,-15.66 -5.04,-6.75 -7.65,-14.22 -7.65,-22.23 0,-6.48 1.35,-12.15 4.14,-17.01 2.79,-4.86 6.48,-9.18 11.07,-12.6 4.59,-3.51 9.81,-6.12 15.93,-8.01 6.12,-1.8 12.6,-2.61 19.35,-2.61 3.33,0 6.93,0.18 10.26,0.63 3.51,0.45 6.75,1.08 9.99,1.71 3.06,0.81 5.94,1.53 8.73,2.43 2.79,0.9 4.86,1.8 6.48,2.79 2.16,1.26 3.69,2.43 4.59,3.87 0.9,1.26 1.35,2.88 1.35,5.04 v 7.2 c 0,3.24 -1.26,4.86 -3.51,4.86 -1.26,0 -3.24,-0.63 -5.85,-1.8 q -13.095,-5.94 -29.43,-5.94 c -8.73,0 -15.66,1.35 -20.34,4.32 -4.68,2.97 -7.2,7.38 -7.2,13.68 0,4.32 1.53,8.01 4.59,10.89 3.06,2.88 8.73,5.85 16.83,8.46 l 21.78,6.93 c 11.07,3.51 18.99,8.46 23.76,14.67 4.77,6.21 7.02,13.5 7.02,21.42 0,6.57 -1.35,12.6 -3.96,17.82 -2.79,5.22 -6.48,9.81 -11.16,13.5 -4.77,3.87 -10.44,6.57 -17.01,8.55 -7.2,2.25 -14.4,3.33 -22.23,3.33 m 28.98,74.43 c -50.4,37.26 -123.66,56.97 -186.66,56.97 -88.29,0 -167.849997,-32.67 -227.879997,-86.94 -4.77,-4.32 -0.45,-10.08 5.22,-6.75 64.98,37.71 145.169997,60.57 228.059997,60.57 55.98,0 117.36,-11.61 173.97,-35.55 8.37,-3.78 15.57,5.58 7.29,11.7 m 20.97,-23.85 c -6.48,-8.28 -42.57,-3.96 -59.04,-1.98 -4.86,0.63 -5.67,-3.69 -1.26,-6.93 28.8,-20.25 76.14,-14.4 81.72,-7.65 5.49,6.93 -1.53,54.27 -28.53,76.95 -4.14,3.51 -8.1,1.71 -6.3,-2.88 6.21,-15.21 19.89,-49.41 13.41,-57.51"
     style="fill:#ffffff;stroke-width:0.9"
     id="path1" /></svg>
