<svg xmlns="http://www.w3.org/2000/svg" xmlns:xlink="http://www.w3.org/1999/xlink" viewBox="0 0 74.375 85" fill="#fff" fill-rule="evenodd" stroke="#000" stroke-linecap="round" stroke-linejoin="round"><use xlink:href="#A" x="2.188" y="2.5"/><symbol id="A" overflow="visible"><g stroke="none"><path d="M3.511 14.898L0 16.56V63.44l3.511 1.662 14.209-23.887L3.511 14.898z" fill="#9d5025"/><path d="M11.694 63.285l-8.183 1.817V14.898l8.183 1.769v46.618z" fill="#f58536"/><path d="M7.382 13.061l4.312-2.031 20.483 31.079L11.694 68.97l-4.312-2.031V13.061z" fill="#9d5025"/><path d="M21.899 66.239L11.694 68.97V11.03l10.205 2.74v52.468z" fill="#f58536"/><path d="M16.499 8.746l5.4-2.556 30.216 39.32-30.216 28.299-5.4-2.556V8.746z" fill="#9d5025"/><path d="M34.989 69.281l-13.09 4.529V6.19l13.09 4.538v58.552z" fill="#f58536"/><path d="M28.008 3.304L34.99 0l32.69 42.264L34.99 80l-6.982-3.304V3.304z" fill="#9d5025"/><path d="M70 63.431L34.99 80V0L70 16.57v46.861z" fill="#f58536"/></g></symbol></svg>