<svg xmlns="http://www.w3.org/2000/svg" xmlns:xlink="http://www.w3.org/1999/xlink" viewBox="0 0 85 85" fill="#fff" fill-rule="evenodd" stroke="#000" stroke-linecap="round" stroke-linejoin="round"><use xlink:href="#A" x="2.5" y="2.5"/><symbol id="A" overflow="visible"><path d="M40 3.621l39.985 5.752v3.387c0 5.036-17.91 9.095-40 9.095S0 17.796 0 12.76V9.081zm0 24.438c16.703 0 31.007-2.321 36.997-5.62l1.962-3.212.8-2.92v3.621L66.677 73.942C66.677 77.3 54.742 80 40.015 80s-26.646-2.7-26.646-6.058L.287 19.928V16.38l3.018 6.175C9.31 25.796 23.478 28.059 40 28.059z" fill="#8c3123" stroke="none"/><path d="M40 0c22.09 0 40 4.073 40 9.08s-17.925 9.051-40 9.051S.015 14.117.015 9.08 17.91 0 40 0zm0 24.438c20.596 0 37.541-3.518 39.744-8.073L66.662 70.38c0 3.358-11.935 6.059-26.662 6.059s-26.662-2.686-26.662-6.044L.257 16.38C2.475 20.92 19.42 24.438 40 24.438z" stroke="none" fill="#e05243"/><path d="M30.585 29.591h17.322v16.642H30.585zm-13.776 30.73c0-4.545 3.809-8.204 8.54-8.204s8.54 3.659 8.54 8.204-3.809 8.204-8.54 8.204-8.54-3.659-8.54-8.204zm44.451 7.825H44.15l8.555-15.299 8.555 15.299z" stroke="none"/></symbol></svg>