<?xml version="1.0" encoding="UTF-8" standalone="no"?>
<!-- Generator: Adobe Illustrator 22.0.0, SVG Export Plug-In . SVG Version: 6.00 Build 0)  -->

<svg
   version="1.1"
   id="Layer_1"
   x="0px"
   y="0px"
   viewBox="0 0 103.2 118"
   xml:space="preserve"
   width="103.2"
   height="118"
   xmlns="http://www.w3.org/2000/svg"
   xmlns:svg="http://www.w3.org/2000/svg"><defs
   id="defs27" />
<style
   type="text/css"
   id="style2">
	.st0{fill:#FFFFFF;}
	.st1{fill:#2A3238;}
	.st2{fill:#4DA925;}
</style>
<g
   id="g22"
   transform="translate(-22.9,-16.2)">
	<g
   id="g6">
		<path
   class="st0"
   d="M 118.9,40.3 81.7,18.2 c -4.4,-2.6 -9.9,-2.6 -14.4,0 L 30.1,40.3 c -4.4,2.6 -7.2,7.5 -7.2,12.8 v 44.2 c 0,5.3 2.7,10.1 7.2,12.8 l 37.2,22.1 c 2.2,1.3 4.7,2 7.2,2 2.5,0 5,-0.7 7.2,-2 l 37.2,-22.1 c 4.4,-2.6 7.2,-7.5 7.2,-12.8 V 53 c 0,-5.2 -2.7,-10.1 -7.2,-12.7 z"
   id="path4" />
	</g>
	<g
   id="g12">
		<g
   id="g10">
			<path
   class="st1"
   d="M 118.9,40.3 81.7,18.2 c -2.2,-1.3 -4.7,-2 -7.2,-2 -2.5,0 -5,0.7 -7.2,2 L 30.1,40.3 c -4.4,2.6 -7.2,7.5 -7.2,12.8 v 44.2 c 0,5.3 2.7,10.1 7.2,12.8 l 37.2,22.1 c 2.2,1.3 4.7,2 7.2,2 2.5,0 5,-0.7 7.2,-2 l 37.2,-22.1 c 4.4,-2.6 7.2,-7.5 7.2,-12.8 V 53 c 0,-5.2 -2.7,-10.1 -7.2,-12.7 z M 68.6,129.8 31.4,107.7 c -3.6,-2.2 -5.9,-6.2 -5.9,-10.5 V 53 c 0,-4.3 2.3,-8.4 5.9,-10.5 L 68.6,20.4 c 1.8,-1.1 3.8,-1.6 5.9,-1.6 2.1,0 4.1,0.6 5.9,1.6 l 37.2,22.1 c 3.1,1.8 5.1,5 5.7,8.5 -1.2,-2.6 -4,-3.4 -7.3,-1.5 L 80.9,71.3 c -4.4,2.6 -7.6,5.4 -7.6,10.7 v 43.4 c 0,3.2 1.3,5.2 3.2,5.8 -0.6,0.1 -1.3,0.2 -2,0.2 -2,0.1 -4.1,-0.5 -5.9,-1.6 z"
   id="path8" />
		</g>
	</g>
	<g
   id="g16">
		<path
   class="st2"
   d="m 109.2,101.5 -9.3,5.5 c -0.2,0.1 -0.4,0.3 -0.4,0.6 v 2.4 c 0,0.3 0.2,0.4 0.4,0.3 l 9.4,-5.7 c 0.2,-0.1 0.3,-0.4 0.3,-0.7 v -2.1 c 0,-0.3 -0.2,-0.4 -0.4,-0.3 z"
   id="path14" />
	</g>
	<g
   id="g20">
		<path
   class="st0"
   d="m 89.4,81.1 c 0.3,-0.2 0.5,0 0.6,0.4 v 3.2 c 1.3,-0.5 2.5,-0.7 3.6,-0.4 0.2,0.1 0.3,0.4 0.2,0.7 l -0.7,2.8 c -0.1,0.2 -0.2,0.4 -0.3,0.6 -0.1,0.1 -0.1,0.1 -0.2,0.1 -0.1,0 -0.2,0.1 -0.3,0 -0.5,-0.1 -1.6,-0.4 -3.4,0.6 -1.9,1 -2.6,2.6 -2.5,3.8 0,1.5 0.8,1.9 3.3,1.9 3.4,0.1 4.9,1.6 5,5 0,3.4 -1.8,7.1 -4.6,9.3 l 0.1,3.2 c 0,0.4 -0.2,0.8 -0.5,1 l -1.9,1.1 c -0.3,0.2 -0.5,0 -0.6,-0.4 v -3.1 c -1.6,0.7 -3.2,0.8 -4.3,0.4 -0.2,-0.1 -0.3,-0.4 -0.2,-0.7 l 0.7,-2.9 c 0.1,-0.2 0.2,-0.5 0.3,-0.6 0.1,-0.1 0.1,-0.1 0.2,-0.1 0.1,-0.1 0.2,-0.1 0.3,0 1.1,0.4 2.6,0.2 3.9,-0.5 1.8,-0.9 2.9,-2.7 2.9,-4.5 0,-1.6 -0.9,-2.3 -3,-2.3 -2.7,0 -5.2,-0.5 -5.3,-4.5 0,-3.3 1.7,-6.7 4.4,-8.8 v -3.2 c 0,-0.4 0.2,-0.8 0.5,-1 z"
   id="path18" />
	</g>
</g>
</svg>
