<?xml version="1.0" encoding="UTF-8" standalone="no"?>
<!-- Generator: Adobe Illustrator 24.3.0, SVG Export Plug-In . SVG Version: 6.00 Build 0)  -->

<svg
   version="1.1"
   id="Layer_1"
   x="0px"
   y="0px"
   viewBox="0 0 188.2 188.2"
   xml:space="preserve"
   sodipodi:docname="cmd_icon-dark.svg"
   inkscape:version="1.4 (86a8ad7, 2024-10-11)"
   width="188.2"
   height="188.2"
   xmlns:inkscape="http://www.inkscape.org/namespaces/inkscape"
   xmlns:sodipodi="http://sodipodi.sourceforge.net/DTD/sodipodi-0.dtd"
   xmlns="http://www.w3.org/2000/svg"
   xmlns:svg="http://www.w3.org/2000/svg"><defs
   id="defs19"><rect
     x="47.794633"
     y="65.120188"
     width="151.15053"
     height="122.47375"
     id="rect1" /></defs><sodipodi:namedview
   id="namedview17"
   pagecolor="#000000"
   bordercolor="#666666"
   borderopacity="1.0"
   inkscape:pageshadow="2"
   inkscape:pageopacity="0.0"
   inkscape:pagecheckerboard="0"
   showgrid="false"
   inkscape:zoom="1.6738281"
   inkscape:cx="51.379231"
   inkscape:cy="115.60327"
   inkscape:window-width="1920"
   inkscape:window-height="1009"
   inkscape:window-x="-8"
   inkscape:window-y="-8"
   inkscape:window-maximized="1"
   inkscape:current-layer="Layer_1"
   inkscape:showpageshadow="2"
   inkscape:deskcolor="#d1d1d1" />
<style
   type="text/css"
   id="style2">
	.st0{fill:#0C0C0C;}
	.st1{fill:#AC55FF;}
	.st2{font-family:'HelveticaRounded-Bold';}
	.st3{font-size:55.6118px;}
</style>

<g
   id="g12"
   style="fill:#e2e2e2;fill-opacity:1"
   transform="translate(-161.9,-161.9)">
	<g
   id="g10"
   style="fill:#e2e2e2;fill-opacity:1">
		<path
   class="st1"
   d="M 326.3,162.3 H 185.7 c -12.9,0 -23.4,10.5 -23.4,23.4 v 140.6 c 0,12.9 10.5,23.4 23.4,23.4 h 140.6 c 12.9,0 23.4,-10.5 23.4,-23.4 V 185.7 c 0,-12.9 -10.5,-23.4 -23.4,-23.4 z m -140.6,7.8 h 140.6 c 8.6,0 15.6,7 15.6,15.6 v 15.6 H 170.1 v -15.6 c 0,-8.6 7,-15.6 15.6,-15.6 z M 326.3,341.9 H 185.7 c -8.6,0 -15.6,-7 -15.6,-15.6 V 209.1 h 171.8 v 117.1 c 0,8.7 -7,15.7 -15.6,15.7 z"
   id="path6"
   style="fill:#e2e2e2;fill-opacity:1" />
		<path
   class="st1"
   d="M 326.3,350.1 H 185.7 c -13.1,0 -23.8,-10.7 -23.8,-23.8 V 185.7 c 0,-13.1 10.7,-23.8 23.8,-23.8 h 140.6 c 13.1,0 23.8,10.7 23.8,23.8 v 140.6 c 0,13.1 -10.7,23.8 -23.8,23.8 z M 185.7,162.7 c -12.7,0 -23.1,10.3 -23.1,23.1 v 140.6 c 0,12.7 10.3,23.1 23.1,23.1 h 140.6 c 12.7,0 23.1,-10.3 23.1,-23.1 V 185.7 c 0,-12.7 -10.3,-23.1 -23.1,-23.1 H 185.7 Z M 326.3,342.3 H 185.7 c -8.8,0 -16,-7.2 -16,-16 V 208.8 h 172.5 v 117.5 c 0.1,8.8 -7.1,16 -15.9,16 z M 170.5,209.5 v 116.8 c 0,8.4 6.8,15.2 15.2,15.2 h 140.6 c 8.4,0 15.2,-6.8 15.2,-15.2 V 209.5 Z m 171.8,-7.8 H 169.7 v -16 c 0,-8.8 7.2,-16 16,-16 h 140.6 c 8.8,0 16,7.2 16,16 z M 170.5,201 h 171 v -15.2 c 0,-8.4 -6.8,-15.2 -15.2,-15.2 H 185.7 c -8.4,0 -15.2,6.8 -15.2,15.2 z"
   id="path8"
   style="fill:#e2e2e2;fill-opacity:1" />
	</g>
</g>

<text
   xml:space="preserve"
   id="text1"
   style="font-weight:bold;font-size:85.3333px;font-family:Inter;-inkscape-font-specification:'Inter Bold';text-align:start;letter-spacing:-4.38px;writing-mode:lr-tb;direction:ltr;white-space:pre;shape-inside:url(#rect1);display:inline;fill:#e2e2e2;fill-opacity:1;stroke:none;stroke-width:1.5;stroke-dasharray:none;stroke-opacity:1"
   transform="translate(-27.861904,-3.3371327)"><tspan
     x="47.794922"
     y="144.10949"
     id="tspan4"><tspan
       style="font-size:74.6667px"
       id="tspan1">C:\</tspan></tspan></text><rect
   style="fill:#02b5e9;fill-opacity:1;stroke:none;stroke-width:1.32245;stroke-dasharray:none;stroke-opacity:1"
   id="rect2"
   width="42.833527"
   height="7.2541118"
   x="124.0312"
   y="141.19421" /></svg>
