<?xml version="1.0" encoding="UTF-8" standalone="no"?>
<!-- Generator: Adobe Illustrator 24.3.0, SVG Export Plug-In . SVG Version: 6.00 Build 0)  -->

<svg
   version="1.1"
   id="Layer_1"
   x="0px"
   y="0px"
   viewBox="0 0 188.2 188.2"
   xml:space="preserve"
   sodipodi:docname="cmd_icon-dark.svg"
   inkscape:version="1.1.2 (b8e25be833, 2022-02-05)"
   width="188.2"
   height="188.2"
   xmlns:inkscape="http://www.inkscape.org/namespaces/inkscape"
   xmlns:sodipodi="http://sodipodi.sourceforge.net/DTD/sodipodi-0.dtd"
   xmlns="http://www.w3.org/2000/svg"
   xmlns:svg="http://www.w3.org/2000/svg"><defs
   id="defs19" /><sodipodi:namedview
   id="namedview17"
   pagecolor="#ffffff"
   bordercolor="#666666"
   borderopacity="1.0"
   inkscape:pageshadow="2"
   inkscape:pageopacity="0.0"
   inkscape:pagecheckerboard="0"
   showgrid="false"
   inkscape:zoom="3.3476562"
   inkscape:cx="63.775963"
   inkscape:cy="80.952159"
   inkscape:window-width="1920"
   inkscape:window-height="1017"
   inkscape:window-x="-8"
   inkscape:window-y="-8"
   inkscape:window-maximized="1"
   inkscape:current-layer="Layer_1" />
<style
   type="text/css"
   id="style2">
	.st0{fill:#0C0C0C;}
	.st1{fill:#AC55FF;}
	.st2{font-family:'HelveticaRounded-Bold';}
	.st3{font-size:55.6118px;}
</style>

<g
   id="g12"
   style="fill:#2e2e2e;fill-opacity:1"
   transform="translate(-161.9,-161.9)">
	<g
   id="g10"
   style="fill:#2e2e2e;fill-opacity:1">
		<path
   class="st1"
   d="M 326.3,162.3 H 185.7 c -12.9,0 -23.4,10.5 -23.4,23.4 v 140.6 c 0,12.9 10.5,23.4 23.4,23.4 h 140.6 c 12.9,0 23.4,-10.5 23.4,-23.4 V 185.7 c 0,-12.9 -10.5,-23.4 -23.4,-23.4 z m -140.6,7.8 h 140.6 c 8.6,0 15.6,7 15.6,15.6 v 15.6 H 170.1 v -15.6 c 0,-8.6 7,-15.6 15.6,-15.6 z M 326.3,341.9 H 185.7 c -8.6,0 -15.6,-7 -15.6,-15.6 V 209.1 h 171.8 v 117.1 c 0,8.7 -7,15.7 -15.6,15.7 z"
   id="path6"
   style="fill:#2e2e2e;fill-opacity:1" />
		<path
   class="st1"
   d="M 326.3,350.1 H 185.7 c -13.1,0 -23.8,-10.7 -23.8,-23.8 V 185.7 c 0,-13.1 10.7,-23.8 23.8,-23.8 h 140.6 c 13.1,0 23.8,10.7 23.8,23.8 v 140.6 c 0,13.1 -10.7,23.8 -23.8,23.8 z M 185.7,162.7 c -12.7,0 -23.1,10.3 -23.1,23.1 v 140.6 c 0,12.7 10.3,23.1 23.1,23.1 h 140.6 c 12.7,0 23.1,-10.3 23.1,-23.1 V 185.7 c 0,-12.7 -10.3,-23.1 -23.1,-23.1 H 185.7 Z M 326.3,342.3 H 185.7 c -8.8,0 -16,-7.2 -16,-16 V 208.8 h 172.5 v 117.5 c 0.1,8.8 -7.1,16 -15.9,16 z M 170.5,209.5 v 116.8 c 0,8.4 6.8,15.2 15.2,15.2 h 140.6 c 8.4,0 15.2,-6.8 15.2,-15.2 V 209.5 Z m 171.8,-7.8 H 169.7 v -16 c 0,-8.8 7.2,-16 16,-16 h 140.6 c 8.8,0 16,7.2 16,16 z M 170.5,201 h 171 v -15.2 c 0,-8.4 -6.8,-15.2 -15.2,-15.2 H 185.7 c -8.4,0 -15.2,6.8 -15.2,15.2 z"
   id="path8"
   style="fill:#2e2e2e;fill-opacity:1" />
	</g>
</g>
<g
   aria-label="C:\_"
   id="text14"
   style="font-size:66.6667px;font-family:HelveticaRounded-Bold;fill:#2e2e2e"
   class="st1 st2 st3"
   transform="translate(3.8833139,-0.59743291)"><path
     d="m 62.622283,132.74942 q -1.790366,0.78125 -3.25521,1.46484 -1.432293,0.6836 -3.776044,1.4323 -1.985678,0.61849 -4.32943,1.04166 -2.311199,0.45573 -5.110679,0.45573 -5.273441,0 -9.60287,-1.46484 -4.296877,-1.4974 -7.486983,-4.65495 -3.125002,-3.09245 -4.882815,-7.84506 -1.757814,-4.78516 -1.757814,-11.10027 0,-5.98958 1.692709,-10.70964 1.69271,-4.720051 4.882816,-7.975261 3.092449,-3.157554 7.454431,-4.817711 4.394533,-1.660158 9.733078,-1.660158 3.906252,0 7.779952,0.944011 3.906252,0.944011 8.658859,3.320315 v 7.649743 h -0.488282 q -4.003908,-3.352866 -7.942712,-4.882815 -3.938805,-1.529949 -8.430995,-1.529949 -3.678387,0 -6.640628,1.204428 -2.929689,1.171876 -5.240888,3.678388 -2.246095,2.441407 -3.515627,6.184899 -1.23698,3.71094 -1.23698,8.59375 0,5.11068 1.367188,8.78907 1.399741,3.67839 3.580731,5.98959 2.278647,2.40885 5.305993,3.58073 3.059897,1.13932 6.445316,1.13932 4.65495,0 8.723963,-1.59505 4.069012,-1.59505 7.617191,-4.78516 h 0.45573 z"
     id="path7330" /><path
     d="m 84.269429,109.1817 h -7.779952 v -9.277351 h 7.779952 z m 0,27.08335 h -7.779952 v -9.27735 h 7.779952 z"
     id="path7332" /><path
     d="M 126.74992,146.16088 H 121.1184 L 97.778546,85.613976 h 5.729174 z"
     id="path7334" /><path
     d="m 161.41539,145.956 h -32.18765 v -3.90626 H 161.521 Z"
     id="path7336"
     sodipodi:nodetypes="ccccc" /></g>
</svg>
