<?xml version="1.0" encoding="UTF-8" standalone="no"?>
<!-- Generator: Adobe Illustrator 24.3.0, SVG Export Plug-In . SVG Version: 6.00 Build 0)  -->

<svg
   version="1.1"
   id="Layer_1"
   x="0px"
   y="0px"
   viewBox="0 0 188.2 188.2"
   xml:space="preserve"
   sodipodi:docname="shellCommand_icon.svg"
   width="188.2"
   height="188.2"
   inkscape:version="1.1.2 (b8e25be833, 2022-02-05)"
   xmlns:inkscape="http://www.inkscape.org/namespaces/inkscape"
   xmlns:sodipodi="http://sodipodi.sourceforge.net/DTD/sodipodi-0.dtd"
   xmlns="http://www.w3.org/2000/svg"
   xmlns:svg="http://www.w3.org/2000/svg"><defs
   id="defs29" /><sodipodi:namedview
   id="namedview27"
   pagecolor="#ffffff"
   bordercolor="#666666"
   borderopacity="1.0"
   inkscape:pageshadow="2"
   inkscape:pageopacity="0.0"
   inkscape:pagecheckerboard="0"
   showgrid="false"
   inkscape:zoom="1.6738281"
   inkscape:cx="94.095683"
   inkscape:cy="93.796966"
   inkscape:window-width="1920"
   inkscape:window-height="1017"
   inkscape:window-x="-8"
   inkscape:window-y="-8"
   inkscape:window-maximized="1"
   inkscape:current-layer="Layer_1" />
<style
   type="text/css"
   id="style2">
	.st0{display:none;fill:#0C0C0C;}
	.st1{fill:#AC55FF;}
</style>
<rect
   class="st0"
   width="512"
   height="512"
   id="rect4"
   x="-161.89999"
   y="-161.89999" />
<g
   id="g24"
   transform="translate(-161.9,-161.9)"
   style="fill:#2e2e2e;fill-opacity:1">
	<g
   id="g10"
   style="fill:#2e2e2e;fill-opacity:1">
		<path
   class="st1"
   d="m 214.8,242.5 c -1.6,-1.4 -4.1,-1.2 -5.5,0.4 -1.3,1.5 -1.3,3.6 0,5.1 l 23.6,23.6 -23.6,23.6 c -1.6,1.4 -1.8,3.9 -0.4,5.5 1.4,1.6 3.9,1.8 5.5,0.4 0.2,-0.1 0.3,-0.3 0.4,-0.4 l 26.4,-26.4 c 1.5,-1.5 1.5,-4 0,-5.5 z"
   id="path6"
   style="fill:#2e2e2e;fill-opacity:1" />
		<path
   class="st1"
   d="m 211.9,302.5 c -1.2,0 -2.4,-0.5 -3.3,-1.5 -0.7,-0.9 -1.1,-2 -1,-3.1 0.1,-1.1 0.6,-2.2 1.5,-2.9 l 23.3,-23.3 -23.3,-23.3 c -1.4,-1.6 -1.4,-4 0,-5.6 1.5,-1.8 4.2,-2 6,-0.5 v 0 l 26.4,26.4 c 1.7,1.7 1.7,4.4 0,6 L 215.1,301 c -0.1,0.1 -0.3,0.3 -0.4,0.4 -0.9,0.7 -1.8,1.1 -2.8,1.1 z m 0.4,-60.6 c -1,0 -2,0.4 -2.7,1.2 -1.1,1.3 -1.1,3.3 0,4.6 l 23.8,23.8 -23.8,23.9 c -0.7,0.6 -1.2,1.5 -1.2,2.4 -0.1,0.9 0.2,1.9 0.8,2.6 1.3,1.5 3.5,1.7 5,0.4 0.1,-0.1 0.3,-0.2 0.4,-0.4 L 241,274 c 1.4,-1.4 1.4,-3.6 0,-5 l -26.3,-26.3 c -0.8,-0.5 -1.6,-0.8 -2.4,-0.8 z"
   id="path8"
   style="fill:#2e2e2e;fill-opacity:1" />
	</g>
	<g
   id="g16"
   style="fill:#2e2e2e;fill-opacity:1">
		<path
   class="st1"
   d="m 306.8,295 h -54.7 c -2.2,0 -3.9,1.7 -3.9,3.9 0,2.2 1.7,3.9 3.9,3.9 h 54.7 c 2.2,0 3.9,-1.7 3.9,-3.9 0,-2.1 -1.8,-3.9 -3.9,-3.9 z"
   id="path12"
   style="fill:#2e2e2e;fill-opacity:1" />
		<path
   class="st1"
   d="m 306.8,303.2 h -54.7 c -2.4,0 -4.3,-1.9 -4.3,-4.3 0,-2.4 1.9,-4.3 4.3,-4.3 h 54.7 c 2.4,0 4.3,1.9 4.3,4.3 0,2.4 -2,4.3 -4.3,4.3 z m -54.7,-7.8 c -1.9,0 -3.5,1.6 -3.5,3.5 0,1.9 1.6,3.5 3.5,3.5 h 54.7 c 1.9,0 3.5,-1.6 3.5,-3.5 0,-1.9 -1.6,-3.5 -3.5,-3.5 z"
   id="path14"
   style="fill:#2e2e2e;fill-opacity:1" />
	</g>
	<g
   id="g22"
   style="fill:#2e2e2e;fill-opacity:1">
		<path
   class="st1"
   d="M 326.3,162.3 H 185.7 c -12.9,0 -23.4,10.5 -23.4,23.4 v 140.6 c 0,12.9 10.5,23.4 23.4,23.4 h 140.6 c 12.9,0 23.4,-10.5 23.4,-23.4 V 185.7 c 0,-12.9 -10.5,-23.4 -23.4,-23.4 z m -140.6,7.8 h 140.6 c 8.6,0 15.6,7 15.6,15.6 v 15.6 H 170.1 v -15.6 c 0,-8.6 7,-15.6 15.6,-15.6 z M 326.3,341.9 H 185.7 c -8.6,0 -15.6,-7 -15.6,-15.6 V 209.1 h 171.8 v 117.1 c 0,8.7 -7,15.7 -15.6,15.7 z"
   id="path18"
   style="fill:#2e2e2e;fill-opacity:1" />
		<path
   class="st1"
   d="M 326.3,350.1 H 185.7 c -13.1,0 -23.8,-10.7 -23.8,-23.8 V 185.7 c 0,-13.1 10.7,-23.8 23.8,-23.8 h 140.6 c 13.1,0 23.8,10.7 23.8,23.8 v 140.6 c 0,13.1 -10.7,23.8 -23.8,23.8 z M 185.7,162.7 c -12.7,0 -23.1,10.3 -23.1,23.1 v 140.6 c 0,12.7 10.3,23.1 23.1,23.1 h 140.6 c 12.7,0 23.1,-10.3 23.1,-23.1 V 185.7 c 0,-12.7 -10.3,-23.1 -23.1,-23.1 H 185.7 Z M 326.3,342.3 H 185.7 c -8.8,0 -16,-7.2 -16,-16 V 208.8 h 172.5 v 117.5 c 0.1,8.8 -7.1,16 -15.9,16 z M 170.5,209.5 v 116.8 c 0,8.4 6.8,15.2 15.2,15.2 h 140.6 c 8.4,0 15.2,-6.8 15.2,-15.2 V 209.5 Z m 171.8,-7.8 H 169.7 v -16 c 0,-8.8 7.2,-16 16,-16 h 140.6 c 8.8,0 16,7.2 16,16 z M 170.5,201 h 171 v -15.2 c 0,-8.4 -6.8,-15.2 -15.2,-15.2 H 185.7 c -8.4,0 -15.2,6.8 -15.2,15.2 z"
   id="path20"
   style="fill:#2e2e2e;fill-opacity:1" />
	</g>
</g>
</svg>
