<?xml version="1.0" encoding="UTF-8" standalone="no"?>
<!-- Created with Inkscape (http://www.inkscape.org/) -->

<svg
   version="1.1"
   id="svg2"
   width="711.5733"
   height="450.88"
   viewBox="0 0 711.5733 450.88"
   sodipodi:docname="fish_icon.svg"
   inkscape:version="1.1.2 (b8e25be833, 2022-02-05)"
   xmlns:inkscape="http://www.inkscape.org/namespaces/inkscape"
   xmlns:sodipodi="http://sodipodi.sourceforge.net/DTD/sodipodi-0.dtd"
   xmlns="http://www.w3.org/2000/svg"
   xmlns:svg="http://www.w3.org/2000/svg">
  <defs
     id="defs6" />
  <sodipodi:namedview
     id="namedview4"
     pagecolor="#ffffff"
     bordercolor="#000000"
     borderopacity="0.25"
     inkscape:showpageshadow="2"
     inkscape:pageopacity="0.0"
     inkscape:pagecheckerboard="0"
     inkscape:deskcolor="#d1d1d1"
     inkscape:pageshadow="2"
     showgrid="false"
     inkscape:zoom="0.77182303"
     inkscape:cx="240.34007"
     inkscape:cy="217.66648"
     inkscape:window-width="1920"
     inkscape:window-height="1017"
     inkscape:window-x="-8"
     inkscape:window-y="-8"
     inkscape:window-maximized="1"
     inkscape:current-layer="g8" />
  <g
     id="g8"
     inkscape:groupmode="layer"
     inkscape:label="ink_ext_XXXXXX"
     transform="matrix(1.3333333,0,0,-1.3333333,0,450.88)">
    <g
       id="g10"
       transform="scale(0.1)">
      <path
         d="m 5258.38,1571.66 c -52.27,66.67 -127.66,113.08 -226.16,139.21 87.78,22.77 154.63,61.65 200.53,116.6 45.89,54.94 68.85,123.64 68.85,206.06 0,121.28 -43.72,218.63 -131.17,292 -87.45,73.38 -204.22,110.07 -350.3,110.07 -48.93,0 -105.04,-5.37 -168.37,-16.08 -63.32,-10.73 -135.54,-26.81 -216.61,-48.25 v -186.96 c 69.68,26.79 136.35,46.9 200.03,60.31 63.65,13.4 125.3,20.1 184.95,20.1 89.79,0 158.97,-20.6 207.57,-61.82 48.58,-41.21 72.88,-100.35 72.88,-177.41 0,-73.05 -26.15,-130.01 -78.41,-170.88 -52.27,-40.88 -124.99,-61.31 -218.13,-61.31 h -154.79 v -166.86 h 154.79 c 101.86,0 182.6,-25.63 242.25,-76.89 59.64,-51.27 89.46,-120.47 89.46,-207.57 0,-94.49 -29.82,-166.87 -89.46,-217.12 -59.65,-50.26 -145.09,-75.39 -256.32,-75.39 -65.67,0 -131.67,8.7 -198.02,26.13 -66.33,17.42 -133.68,43.89 -202.04,79.42 V 952.98 c 69.02,-24.128 139.38,-42.57 211.1,-55.289 71.69,-12.722 142.05,-19.101 211.08,-19.101 164.17,0 292.66,39.359 385.48,118.109 92.81,78.741 139.22,187.121 139.22,325.171 0,99.85 -26.14,183.1 -78.41,249.79"
         style="fill:#5ba7e0;fill-opacity:1;fill-rule:nonzero;stroke:#000000;stroke-opacity:1;stroke-width:15.00000038;stroke-miterlimit:4;stroke-dasharray:none"
         id="path12" />
      <path
         d="M 4261.43,2307.22 3590.75,1709.48 V 1592.22 L 4261.43,994.469 V 1267.6 l -430.44,383.25 430.44,383.24 v 273.13"
         style="fill:#4abc39;fill-opacity:1;fill-rule:nonzero;stroke:#000000;stroke-width:15.00000038;stroke-miterlimit:4;stroke-dasharray:none;stroke-opacity:1"
         id="path14" />
      <path
         d="M 2781,2296.94 V 2028.23 L 3204.45,1651.2 2781,1274.18 v -268.7 l 659.8,588.05 v 115.35 L 2781,2296.94"
         style="fill:#4abc39;fill-opacity:1;fill-rule:nonzero;stroke:#000000;stroke-width:15.00000038;stroke-miterlimit:4;stroke-dasharray:none;stroke-opacity:1"
         id="path16" />
      <path
         d="m 2175.02,2614.36 c -151.43,49.59 -302.55,74.39 -453.34,74.39 -149.42,0 -299.87,-24.8 -451.31,-74.39 -151.44,-49.6 -306.233,-124.98 -464.397,-226.16 v -160.83 c 153.465,89.12 306.247,155.63 458.357,199.53 152.13,43.89 304.57,65.84 457.35,65.84 152.13,0 304.24,-21.95 456.35,-65.84 152.13,-43.9 305.91,-110.41 461.38,-199.53 v 160.83 c -158.16,101.18 -312.94,176.56 -464.39,226.16"
         style="fill:#4abc39;fill-opacity:1;fill-rule:nonzero;stroke:#000000;stroke-width:15.00000038;stroke-miterlimit:4;stroke-dasharray:none;stroke-opacity:1"
         id="path18" />
      <path
         d="m 2178.03,884.23 c -152.11,-43.89 -304.22,-65.839 -456.35,-65.839 -152.78,0 -305.22,21.949 -457.35,65.839 -152.11,43.891 -304.892,110.411 -458.357,199.53 V 922.93 C 964.137,821.75 1118.93,746.359 1270.37,696.77 c 151.44,-49.59 301.89,-74.391 451.31,-74.391 150.79,0 301.91,24.801 453.34,74.391 151.45,49.589 306.23,124.98 464.39,226.16 v 160.83 C 2483.94,994.641 2330.16,928.121 2178.03,884.23"
         style="fill:#4abc39;fill-opacity:1;fill-rule:nonzero;stroke:#000000;stroke-width:15.00000038;stroke-miterlimit:4;stroke-dasharray:none;stroke-opacity:1"
         id="path20" />
      <path
         d="m 2312.03,3381.56 h -113.7 l -579.61,-561.43 h 264.84 l 371.62,360.32 371.63,-360.32 h 264.85 l -579.63,561.43"
         style="fill:#4abc39;fill-opacity:1;fill-rule:nonzero;stroke:#000000;stroke-width:15.00000038;stroke-miterlimit:4;stroke-dasharray:none;stroke-opacity:1"
         id="path22" />
      <path
         d="M 1652.59,339.512 V 523.02 H 1429.2 V 339.512 L 1603.84,0 h 136.51 l -87.76,339.512"
         style="fill:#4abc39;fill-opacity:1;fill-rule:nonzero;stroke:#000000;stroke-width:15.00000038;stroke-miterlimit:4;stroke-dasharray:none;stroke-opacity:1"
         id="path24" />
      <path
         d="M 917.598,1924.08 V 1653.7 h 223.392 v 270.38 H 917.598"
         style="fill:#4abc39;fill-opacity:1;fill-rule:nonzero;stroke:#000000;stroke-width:15.00000038;stroke-miterlimit:4;stroke-dasharray:none;stroke-opacity:1"
         id="path26" />
      <path
         d="M 659.801,2300.92 0,1712.86 V 1597.5 l 659.801,-588.06 v 268.71 l -423.457,377.03 423.457,377.03 v 268.71"
         style="fill:#4abc39;fill-opacity:1;fill-rule:nonzero;stroke:#000000;stroke-width:15.00000038;stroke-miterlimit:4;stroke-dasharray:none;stroke-opacity:1"
         id="path28" />
    </g>
  </g>
</svg>
