<svg height="2419" viewBox="31.98258924 32.28452272 135.54499681 132.49547728" width="2500" xmlns="http://www.w3.org/2000/svg"><path d="m95.72 81.45v12.55l-30.11-30.1 10-10 15.19 15.2a9.75 9.75 0 0 0 -.61 3.43 9.91 9.91 0 0 0 5.53 8.92zm9.23 1.81 4.68 4.68-4.68 4.69zm28.64-19.26-18.09 18.07-6.09-6.07a9.83 9.83 0 0 0 .54-4.67 10 10 0 0 0 -9.39-8.68 9.64 9.64 0 0 0 -3.89.6l-15.2-15.25 12.88-12.84a7.36 7.36 0 0 1 10.42 0z" fill="#ff8080"/><path d="m89.74 105.53-27.36 27.36-27.15-26.89a8.49 8.49 0 0 1 .09-11.86l28-28 26.42 26.51a9.12 9.12 0 0 1 0 12.88z" fill="#80b3ff"/><path d="m105 108.79v11.49a9.46 9.46 0 0 1 4.46 9.88 9.32 9.32 0 0 1 -7.42 7.53 9.47 9.47 0 0 1 -6.32-17.69v-12.7a1 1 0 0 0 -1.63-.68l-28.67 28.66 29.5 29.5a7.33 7.33 0 0 0 10.36 0l27.83-27.78z" fill="#ffe680"/><path d="m163.54 107.45-26.54 26.55-28.58-28.58a8.56 8.56 0 0 1 0-12.1l3.29-3.32 7.29 7.27a9.92 9.92 0 1 0 5.88-5.88l-7.25-7.24 18.54-18.53 27.37 27.38a10.19 10.19 0 0 1 0 14.45z" fill="#8dd35f"/></svg>