<svg xmlns="http://www.w3.org/2000/svg" version="1.1" id="Layer_1" x="0" y="0" xml:space="preserve" viewBox="0 0 500 500"><style type="text/css" id="style2"/><g id="Layer_2" transform="translate(5.393 13.296) scale(5.60044)"><g id="Layer_1-2"><path d="M79.8 18.8c-.5-1.6-1.7-2.9-3.2-3.7L46.1.5c-.8-.4-1.7-.5-2.5-.5s-1.7 0-2.5.2L10.6 14.9c-1.5.7-2.6 2-3 3.7L0 51.5c-.3 1.7.1 3.4 1.1 4.8l21.1 26.1c1.2 1.2 2.9 2 4.6 2.1h33.7c1.8.2 3.5-.6 4.6-2.1l21.1-26.1c1-1.4 1.4-3.1 1.2-4.8z" id="path6" fill="#326de6"/><path d="M75 50.2c-.1 0-.1 0-.1-.1s-.3-.1-.4-.1c-.4-.1-.8-.1-1.2-.1-.2 0-.4 0-.6-.1h-.1c-1.1-.1-2.3-.3-3.4-.6-.3-.1-.6-.4-.7-.7 0-.1-.1-.1-.1-.1l-.8-.2c.4-2.9.2-5.9-.4-8.8-.7-2.9-1.9-5.7-3.5-8.2l.6-.6v-.1c0-.3.1-.7.3-.9.9-.7 1.8-1.4 2.8-1.9l.6-.3c.4-.2.7-.4 1.1-.6.1-.1.2-.1.3-.2l.1-.1c.9-.7 1.1-1.9.4-2.8-.3-.4-.9-.7-1.4-.7-.5 0-1 .2-1.4.5l-.1.1c-.1.1-.2.2-.3.2-.3.3-.6.6-.8.9-.1.2-.3.3-.4.4-.8.8-1.6 1.6-2.5 2.2-.2.1-.4.2-.6.2-.1 0-.3 0-.4-.1l-.8.6c-.8-.8-1.7-1.6-2.5-2.4-3.7-2.9-8.3-4.7-13-5.2l-.1-.8-.1-.1c-.3-.2-.4-.5-.5-.8 0-1.1 0-2.2.2-3.4v-.1c0-.2.1-.4.1-.6.1-.4.1-.8.2-1.2v-.6c.1-1-.7-2-1.7-2-.6 0-1.2.2-1.6.6-.4.4-.6.9-.6 1.4v.5c0 .4.1.8.2 1.2.1.2.1.4.1.6v.1c.2 1.1.2 2.2.2 3.4-.1.3-.2.6-.5.8l-.1.1-.1.8c-1.1.1-2.2.3-3.4.5-4.7 1-9 3.5-12.3 7l-.6-.4H25c-.1 0-.2.1-.4.1s-.5-.1-.6-.2c-.9-.7-1.7-1.5-2.5-2.3-.1-.2-.3-.3-.4-.4-.3-.3-.5-.6-.8-.9-.1-.1-.2-.1-.3-.2l-.1-.1c-.4-.3-.9-.5-1.4-.5-.6 0-1.1.2-1.5.7-.6.9-.4 2.1.4 2.8.1 0 .1.1.1.1s.2.2.3.2c.3.2.7.4 1.1.6l.6.3c1 .6 1.9 1.2 2.8 1.9.2.2.4.6.3.9v.1l.6.6c-.1.2-.2.3-.3.5-3.1 4.9-4.3 10.7-3.4 16.4l-.8.2c0 .1-.1.1-.1.1-.1.3-.4.5-.7.7-1.1.3-2.2.5-3.4.6h-.1c-.2 0-.4 0-.6.1-.4 0-.8.1-1.2.1-.1 0-.2.1-.4.1-.1 0-.1 0-.2.1-1.1.2-1.8 1.2-1.6 2.3.2.9 1.1 1.5 2 1.4.2 0 .3 0 .5-.1.1 0 .1 0 .1-.1s.2-.1.4-.1c.4-.1.8-.3 1.1-.4.2-.1.4-.2.6-.2h.1c1-.4 2.1-.7 3.2-.9h.1c.3 0 .6.1.8.3.1 0 .1.1.1.1l.9-.1c1.5 4.6 4.3 8.7 8.2 11.7.9.7 1.7 1.3 2.7 1.8l-.4.8c0 .1.1.1.1.1.2.3.2.7.1 1-.4 1-1 2-1.6 2.9v.1c-.1.2-.2.3-.4.5s-.4.6-.7 1c-.1.1-.1.2-.2.3 0 0 0 .1-.1.1-.5 1-.1 2.2.8 2.7.2.1.5.2.8.2.8 0 1.5-.5 1.9-1.2 0 0 0-.1.1-.1 0-.1.1-.2.2-.3.1-.4.3-.7.4-1.1l.2-.6c.3-1.1.8-2.1 1.3-3.1.2-.3.5-.5.8-.6.1 0 .1 0 .1-.1l.4-.8c2.8 1.1 5.7 1.6 8.7 1.6 1.8 0 3.6-.2 5.4-.6 1.1-.2 2.2-.6 3.2-.9l.4.7c.1 0 .1 0 .1.1.3.1.6.3.8.6.5 1 .9 2 1.3 3v.1l.2.6c.1.4.2.8.4 1.1.1.1.1.2.2.3 0 0 0 .1.1.1.4.7 1.1 1.2 1.9 1.2.3 0 .5-.1.8-.2.4-.2.8-.6.9-1.1.1-.5.1-1.1-.1-1.6 0-.1-.1-.1-.1-.1 0-.1-.1-.2-.2-.3-.2-.4-.4-.7-.7-1-.1-.2-.2-.3-.4-.5v-.1c-.7-.9-1.2-1.9-1.6-2.9-.1-.3-.1-.7.1-1 0-.1.1-.1.1-.1l-.3-.8c5.2-3.1 9-7.9 10.9-13.6l.8.1c.1 0 .1-.1.1-.1.2-.2.5-.3.8-.3h.1c1.1.2 2.2.5 3.2.9h.1c.2.1.4.2.6.2.4.2.7.3 1.1.4.1 0 .2.1.4.1.1 0 .1 0 .2.1.2.1.3.1.5.1.9 0 1.7-.6 2-1.4-.3-1-1-1.8-2-2zm-28.8-3.1l-2.7 1.3-2.7-1.3-.8-2.9 1.9-2.4H45l1.9 2.4zm16.3-6.5c.5 2.1.6 4.2.4 6.3l-9.5-2.7c-.9-.2-1.4-1.1-1.2-2 .1-.3.2-.5.4-.7l7.5-6.8c1.1 1.8 1.9 3.8 2.4 5.9zM57.1 31L49 36.8c-.7.4-1.7.3-2.2-.4-.2-.2-.3-.4-.3-.7l-.6-10.1c4.2.5 8.2 2.4 11.2 5.4zM39 25.9l2-.4-.6 10c0 .9-.8 1.6-1.7 1.6-.3 0-.5-.1-.8-.2L29.8 31c2.5-2.5 5.7-4.3 9.2-5.1zm-12.2 8.8l7.4 6.6c.7.6.8 1.6.2 2.3-.2.3-.4.4-.8.5L24 46.9c-.4-4.2.6-8.5 2.8-12.2zm-1.7 16.9l9.9-1.7c.8 0 1.6.5 1.7 1.3.1.3.1.7-.1 1l-3.8 9.2c-3.5-2.3-6.3-5.8-7.7-9.8zM47.8 64c-1.4.3-2.9.5-4.4.5-2.1 0-4.3-.4-6.3-1l4.9-8.9c.5-.6 1.3-.8 2-.4.3.2.5.4.8.7l4.8 8.7c-.5.1-1.1.2-1.8.4zM60 55.3c-1.5 2.4-3.6 4.5-6 6L50.1 52c-.2-.8.1-1.6.9-2 .3-.1.6-.2.9-.2l10 1.7c-.5 1.4-1.1 2.7-1.9 3.8z" id="path8" fill="#fff"/></g></g></svg>