<?xml version="1.0" encoding="UTF-8" standalone="no"?>
<!-- Created with Inkscape (http://www.inkscape.org/) -->

<svg
   width="36.777084mm"
   height="36.777081mm"
   viewBox="0 0 36.777084 36.777081"
   version="1.1"
   id="svg8"
   inkscape:version="1.1.2 (b8e25be833, 2022-02-05)"
   sodipodi:docname="msys2_icon.svg"
   xmlns:inkscape="http://www.inkscape.org/namespaces/inkscape"
   xmlns:sodipodi="http://sodipodi.sourceforge.net/DTD/sodipodi-0.dtd"
   xmlns="http://www.w3.org/2000/svg"
   xmlns:svg="http://www.w3.org/2000/svg"
   xmlns:rdf="http://www.w3.org/1999/02/22-rdf-syntax-ns#"
   xmlns:cc="http://creativecommons.org/ns#"
   xmlns:dc="http://purl.org/dc/elements/1.1/">
  <defs
     id="defs2" />
  <sodipodi:namedview
     id="base"
     pagecolor="#ffffff"
     bordercolor="#666666"
     borderopacity="1.0"
     inkscape:pageopacity="0.0"
     inkscape:pageshadow="2"
     inkscape:zoom="7.919596"
     inkscape:cx="122.29159"
     inkscape:cy="67.427682"
     inkscape:document-units="mm"
     inkscape:current-layer="layer1"
     showgrid="false"
     fit-margin-top="0"
     fit-margin-left="0"
     fit-margin-right="0"
     fit-margin-bottom="0"
     inkscape:window-width="1920"
     inkscape:window-height="1017"
     inkscape:window-x="-8"
     inkscape:window-y="-8"
     inkscape:window-maximized="1"
     inkscape:pagecheckerboard="true" />
  <metadata
     id="metadata5">
    <rdf:RDF>
      <cc:Work
         rdf:about="">
        <dc:format>image/svg+xml</dc:format>
        <dc:type
           rdf:resource="http://purl.org/dc/dcmitype/StillImage" />
      </cc:Work>
    </rdf:RDF>
  </metadata>
  <g
     inkscape:label="Layer 1"
     inkscape:groupmode="layer"
     id="layer1"
     transform="translate(-122.70998,-169.48973)">
    <g
       id="g957"
       transform="translate(36.843901,36.777081)"
       style="fill:#999999;stroke:#ffffff;stroke-opacity:1">
      <path
         style="fill:#999999;fill-opacity:1;stroke-width:0.26458335;stroke:#ffffff;stroke-opacity:1"
         d="m 118.48002,154.38963 c -0.21263,-0.77937 -0.60053,-0.53763 -3.77862,-0.53763 -4.23812,0 -4.51001,0.21718 -2.65413,-2.44723 2.45703,-3.52744 3.4906,-5.92399 2.80851,-6.96499 -0.4719,-0.72022 -1.01247,-0.62449 -1.92709,0.34127 -0.84859,0.89603 -1.86894,0.41779 -1.86894,-0.95587 0,-2.01205 2.80561,-3.99992 5.38938,-3.9922 1.61399,0.005 2.43642,0.4039 3.21581,1.56044 1.12027,1.66236 0.73145,3.8557 -1.134,6.39695 -1.54383,2.10311 -0.73385,3.61259 0.95572,1.78109 1.46292,-1.68793 1.55952,0.86073 1.49098,1.70283 -0.2309,2.69619 -2.07701,4.65709 -2.49762,3.11534 z"
         id="path961"
         inkscape:connector-curvature="0"
         sodipodi:nodetypes="sscccscccccs" />
    </g>
    <g
       id="g3838"
       style="fill:#f9f9f9">
      <path
         transform="matrix(0.26458333,0,0,0.26458333,122.70998,169.48973)"
         inkscape:connector-curvature="0"
         id="path3826"
         d="m 9.2550661,97.322535 c -1.1562091,-0.753599 -0.3159774,-3.25755 3.2530689,-9.694383 5.98127,-10.787318 19.73659,-40.138891 25.544057,-54.506786 3.447089,-8.528227 3.724993,-10.716514 1.58081,-12.447697 -1.141448,-0.921589 -1.290654,-1.284987 -0.837295,-2.039278 1.669582,-2.777825 11.293829,-3.970247 15.358238,-1.902851 4.528614,2.303519 6.609791,7.868399 9.340673,24.976122 2.178086,13.644721 3.786198,22.816622 4.085299,23.300576 0.806329,1.304669 2.406987,-1.885392 8.483762,-16.907902 8.515151,-21.050472 12.266782,-27.812088 16.695998,-30.091443 1.961999,-1.009678 3.398597,-1.30363 7.179189,-1.46898 6.059814,-0.265035 6.239624,-0.123653 6.232374,4.900273 -0.009,6.514806 -0.30491,7.430535 -2.886,8.943152 -4.822666,2.826275 -8.194373,7.585573 -8.201581,11.576862 -0.0099,5.479807 4.076945,7.179616 7.833831,3.25827 0.7854,-0.819777 1.61276,-1.490503 1.83858,-1.490503 0.22582,0 0.4119,2.10238 0.4135,4.671956 0.002,2.569575 0.21897,5.991057 0.48302,7.603291 0.54393,3.321131 0.62062,3.15957 -6.936968,14.613413 -4.19781,6.361956 -4.565884,7.262184 -3.43316,8.396732 0.686697,0.687797 2.275025,0.854523 9.404648,0.987196 l 8.57842,0.15964 2.11249,2.797971 c 2.5812,3.418765 2.74535,5.28925 0.6996,7.971376 -1.86677,2.447464 -5.61252,5.124479 -8.17526,5.842692 -3.74151,1.048574 -8.410284,-1.013026 -12.469623,-5.506225 C 90.224643,85.50127 87.89309,76.366971 87.193701,58.98803 86.951194,52.962103 86.668992,50.31475 86.282867,50.443458 85.975159,50.546026 82.519356,58.018792 78.603298,67.049607 66.180306,95.698225 64.678961,98.367225 61.443559,97.555193 59.418557,97.046945 56.344244,93.541236 54.223903,89.32244 50.030473,80.978863 47.665997,70.234673 46.524118,54.334569 46.194946,49.751002 45.735809,45.789264 45.503816,45.530708 44.990245,44.958332 43.294988,48.641031 37.627396,62.641077 30.012345,81.451725 27.058198,87.370063 23.188252,91.568459 19.898375,95.137555 11.331077,98.675645 9.2550661,97.322535 Z"
         style="fill:#1b201d;stroke-width:0.50507629;fill-opacity:1" />
      <g
         id="g4667"
         style="fill:#d35e64;fill-opacity:1">
        <path
           style="fill:#d35e64;fill-opacity:1;stroke-width:0.50507629"
           d="m 75.664242,122.46468 c -1.224861,-0.96348 -1.340037,-1.33776 -1.204536,-3.91434 l 0.149828,-2.849 h 1.735102 c 1.682124,0 1.736099,0.0617 1.767767,2.0203 l 0.03266,2.02031 2.657298,0.15286 c 2.036596,0.11715 2.727691,-0.0306 2.958659,-0.63248 0.603622,-1.57301 -0.405397,-3.39325 -3.727963,-6.72513 -1.865786,-1.87102 -3.906178,-4.07104 -4.534203,-4.88894 -1.458864,-1.89993 -1.543716,-5.22834 -0.176336,-6.91699 0.885039,-1.092975 1.343767,-1.192374 5.502812,-1.192374 5.175584,0 6.342653,0.604204 6.817352,3.529434 0.435502,2.68368 -0.254448,4.55179 -1.681118,4.55179 -1.006558,0 -1.291772,-0.36987 -1.752646,-2.27285 -0.502866,-2.07636 -0.696562,-2.28697 -2.24062,-2.43632 -0.929593,-0.0899 -2.226931,-0.0288 -2.882972,0.13589 -2.25017,0.56476 -1.422689,2.18519 3.605423,7.0604 l 4.798225,4.65231 v 3.40829 c 0,5.20862 -0.164895,5.36218 -5.758034,5.36218 -4.028929,0 -4.908758,-0.1545 -6.066703,-1.06534 z"
           id="path3828"
           inkscape:connector-curvature="0"
           transform="matrix(0.26458333,0,0,0.26458333,122.70998,169.48973)" />
        <path
           style="fill:#d35e64;fill-opacity:1;stroke-width:0.50507629"
           d="m 95.77434,130.76668 c 0.178111,-1.06335 0.451528,-3.97892 0.607591,-6.47905 0.265755,-4.25737 0.133588,-5.12232 -2.083786,-13.63706 -1.302146,-5.00025 -2.484264,-9.60276 -2.626928,-10.22779 -0.224423,-0.983234 -0.05554,-1.136422 1.252876,-1.136422 0.831746,0 1.766453,0.306277 2.077127,0.680616 0.310673,0.374336 1.14345,3.272216 1.850615,6.439726 1.577701,7.06678 1.713808,7.52687 2.226658,7.52687 0.601405,0 1.346367,-2.12787 2.827917,-8.07751 1.47242,-5.91296 1.83377,-6.569702 3.61475,-6.569702 1.48437,0 1.74359,-1.644211 -2.65026,16.810222 -1.7714,7.43997 -3.515367,14.14486 -3.875485,14.89975 -0.445245,0.93333 -1.117165,1.42551 -2.099837,1.53812 -1.413769,0.162 -1.438061,0.1237 -1.121238,-1.76777 z"
           id="path3830"
           inkscape:connector-curvature="0"
           transform="matrix(0.26458333,0,0,0.26458333,122.70998,169.48973)" />
        <path
           style="fill:#d35e64;fill-opacity:1;stroke-width:0.50507629"
           d="m 123.47566,114.84113 -0.005,3.94296 c 0,0 0.15696,3.7633 -0.40862,4.2971 -0.57517,0.54286 -2.75886,0.44883 -5.79178,0.44883 -5.26915,0 -5.54984,-0.0541 -6.31163,-1.21675 -0.5398,-0.82384 -0.74743,-2.08785 -0.64299,-3.91434 0.15002,-2.62342 0.19573,-2.69759 1.66257,-2.69759 1.12064,0 1.5476,0.25963 1.66116,1.01015 0.49591,3.27728 0.50129,3.28299 3.09176,3.28299 5.02921,0 4.48511,-2.80781 -1.58732,-8.19143 -3.73086,-3.30765 -4.9304,-5.09118 -4.91955,-7.31458 0.0189,-3.8712 1.67126,-5.202112 6.45864,-5.202112 5.46104,0 7.17152,1.388582 7.17152,5.821902 0,3.21258 -3.05135,3.83153 -3.55687,0.7215 -0.42706,-2.62733 -0.8307,-3.00787 -3.19045,-3.00787 -2.23319,0 -3.3512,0.66414 -3.3585,1.99505 -0.002,0.43058 2.21366,2.88347 4.9245,5.45088"
           id="path3832"
           inkscape:connector-curvature="0"
           transform="matrix(0.26458333,0,0,0.26458333,122.70998,169.48973)"
           sodipodi:nodetypes="ccssccscsccsssscc" />
      </g>
    </g>
  </g>
</svg>
