<?xml version="1.0" encoding="UTF-8" standalone="no"?>
<svg
   id="Layer_1"
   data-name="Layer 1"
   viewBox="0 0 204.59 204.59"
   version="1.1"
   sodipodi:docname="networkProxy_icon-dark.svg"
   inkscape:version="1.4 (86a8ad7, 2024-10-11)"
   xml:space="preserve"
   xmlns:inkscape="http://www.inkscape.org/namespaces/inkscape"
   xmlns:sodipodi="http://sodipodi.sourceforge.net/DTD/sodipodi-0.dtd"
   xmlns="http://www.w3.org/2000/svg"
   xmlns:svg="http://www.w3.org/2000/svg"
   xmlns:rdf="http://www.w3.org/1999/02/22-rdf-syntax-ns#"
   xmlns:cc="http://creativecommons.org/ns#"
   xmlns:dc="http://purl.org/dc/elements/1.1/"><sodipodi:namedview
     id="namedview1"
     pagecolor="#ffffff"
     bordercolor="#000000"
     borderopacity="0.25"
     inkscape:showpageshadow="2"
     inkscape:pageopacity="0.0"
     inkscape:pagecheckerboard="0"
     inkscape:deskcolor="#d1d1d1"
     inkscape:zoom="1.3945823"
     inkscape:cx="136.24151"
     inkscape:cy="99.312891"
     inkscape:window-width="1920"
     inkscape:window-height="1009"
     inkscape:window-x="-8"
     inkscape:window-y="-8"
     inkscape:window-maximized="1"
     inkscape:current-layer="Layer_1" /><defs
     id="defs856"><style
       id="style854">.cls-1{fill:#ac55ff;}</style><style
       id="style2411">.cls-1{fill:#606161;}</style></defs><title
     id="title858">identity</title><path
     class="cls-1"
     d="M332.32,153.7H179.68a26,26,0,0,0-26,26V332.32a26,26,0,0,0,26,26H332.32a26,26,0,0,0,26-26V179.68A26,26,0,0,0,332.32,153.7Zm14,178.62a14,14,0,0,1-14,14H179.68a14,14,0,0,1-14-14V179.68a14,14,0,0,1,14-14H332.32a14,14,0,0,1,14,14Z"
     id="path860"
     style="fill:#dfdfdf;fill-opacity:1"
     transform="translate(-153.7 -153.7)" /><metadata
     id="metadata932"><rdf:RDF><cc:Work
         rdf:about=""><dc:title>identity</dc:title></cc:Work></rdf:RDF></metadata><path
     d="M 50.618789,177.19298 H 154.7908 a 10.417202,10.417202 0 0 0 10.41722,-10.41719 V 135.52418 A 10.417202,10.417202 0 0 0 154.7908,125.10696 H 50.618789 a 10.417202,10.417202 0 0 0 -10.417198,10.41722 v 31.25161 a 10.417202,10.417202 0 0 0 10.417198,10.41719 z m 0,-41.6688 H 154.7908 v 31.25161 H 50.618789 Z"
     id="path1"
     style="stroke-width:5.2086;fill:#147dff;fill-opacity:1" /><path
     d="m 154.7908,31.352142 -7.34411,7.344134 13.43818,13.490275 H 135.59711 A 36.374266,36.374266 0 0 0 66.661278,73.020945 H 44.524724 L 57.962907,59.53067 50.618789,52.186551 24.575781,78.229559 50.618789,104.27257 57.962907,96.928436 44.524724,83.438162 H 69.812481 A 36.374266,36.374266 0 0 0 138.74831,62.603748 h 22.13656 l -13.43818,13.490276 7.34411,7.344138 26.04301,-26.043012 z M 128.74781,67.812346 A 25.95446,25.95446 0 0 1 82.003214,83.438162 H 102.7048 V 73.020945 H 77.188388 A 25.96592,25.96592 0 0 1 123.40638,52.186551 H 102.7048 v 10.417197 h 25.51641 a 26.052903,26.052903 0 0 1 0.5266,5.208598 z"
     id="path2"
     style="stroke-width:5.2086;fill:#3cbb39;fill-opacity:1" /><circle
     cx="68.352188"
     cy="150.98668"
     r="9.7888479"
     id="circle1"
     style="stroke-width:9.78885;fill:#f38523;fill-opacity:1" /></svg>
