<?xml version="1.0" encoding="UTF-8" standalone="no"?>
<!-- Generator: visioncortex VTracer -->

<svg
   id="svg"
   version="1.1"
   viewBox="0 0 289.77002 178.5248"
   style="display:block"
   width="289.77002"
   height="178.5248"
   xmlns="http://www.w3.org/2000/svg"
   xmlns:svg="http://www.w3.org/2000/svg">
  <defs
     id="defs3" />
  <path
     d="m 137,59.314513 c 6.93,0 13.86,0 21,0 0,38.61 0,77.219997 0,116.999997 -6.77354,0 -12.46861,-0.0141 -19,-1 0,-3.96 0,-7.92 0,-12 -2.10375,1.54688 -2.10375,1.54688 -4.25,3.125 -11.83029,8.27281 -23.16138,13.18486 -37.75,11.875 -9.648294,-1.9231 -16.557131,-5.44021 -23.375,-12.4375 -4.201627,-6.62564 -3.99624,-13.79548 -4.48172,-21.42459 -0.149297,-2.22769 -0.322082,-4.45283 -0.496551,-6.67868 -2.182157,-29.21446 -2.182157,-29.21446 1.977783,-36.17895 C 75.624083,96.797948 82.098929,94.314513 89,94.314513 c 0.0088,1.006919 0.0088,1.006919 0.01778,2.03418 0.06411,7.008577 0.14857,14.016697 0.244675,21.024897 0.03318,2.6129 0.06124,5.22587 0.08398,7.83887 0.03367,3.76349 0.08599,7.52634 0.141845,11.28955 0.0064,1.16177 0.01278,2.32354 0.01936,3.52051 0.115844,6.44056 0.63044,11.47762 3.49236,17.29199 4.927889,4.19395 9.43093,4.68838 15.82031,4.44141 10.13247,-1.4066 19.97956,-7.24128 27.17969,-14.44141 0.12517,-2.73805 0.18608,-5.45211 0.20532,-8.19165 0.01,-0.85846 0.0198,-1.71692 0.03,-2.60139 0.0317,-2.85151 0.0564,-5.70304 0.0811,-8.55461 0.0206,-1.97156 0.0416,-3.94311 0.063,-5.91466 0.0553,-5.1999 0.10468,-10.39984 0.15285,-15.59981 0.0502,-5.30185 0.10587,-10.603651 0.16113,-15.905455 C 136.80105,80.136176 136.90195,69.725367 137,59.314513 Z"
     style="fill:#4f980a"
     id="path1" />
  <path
     d="m 78.5625,7.2520127 c 6.17091,5.2095473 8.742461,10.1835723 9.689941,18.1977543 0.38296,5.177471 0.473528,10.366987 0.606934,15.555664 0.156394,3.680141 0.477438,7.331044 0.796875,11.000488 1.417788,19.359309 1.417788,19.359309 -2.280762,24.618653 C 82.344725,81.08748 75.794558,84.314513 69,84.314513 c -0.0055,-1.025711 -0.0055,-1.025711 -0.01105,-2.072144 -0.04192,-7.138403 -0.111329,-14.276168 -0.196472,-21.414184 -0.03036,-2.661588 -0.0494,-5.322572 -0.06348,-7.984375 -0.02149,-3.833113 -0.06817,-7.665233 -0.119629,-11.498047 -0.0012,-1.183641 -0.0025,-2.367283 -0.0037,-3.586792 C 68.483798,30.834352 67.759027,26.189618 64,20.314513 c -5.194152,-4.155322 -11.666275,-3.683665 -18,-3 -9.290519,2.0347 -17.314093,7.314093 -24,14 -0.21768,2.799498 -0.311427,5.502997 -0.318848,8.305176 -0.01004,0.858606 -0.02009,1.717212 -0.03044,2.601837 -0.03096,2.846093 -0.0479,5.692091 -0.06477,8.538299 -0.0187,1.970132 -0.03827,3.940256 -0.05869,5.91037 -0.05144,5.191653 -0.091,10.383332 -0.128143,15.575104 -0.03997,5.295273 -0.09109,10.590436 -0.141296,15.88562 C 21.160913,98.525382 21.077586,108.91989 21,119.31451 c -6.93,0 -13.86,0 -21,0 C 0,80.704513 0,42.094513 0,2.3145127 c 10.125,0 10.125,0 14.5625,0.5 2.196563,0.2475 2.196563,0.2475 4.4375,0.5 0.33,3.63 0.66,7.2600003 1,11.0000003 0.678047,-0.447305 1.356094,-0.89461 2.054688,-1.355469 C 39.560383,1.5876155 59.358345,-6.5364993 78.5625,7.2520127 Z"
     style="fill:#26b346"
     id="path2" />
  <path
     d="m 199,29.314513 c 3.347,1.277541 6.4519,2.715523 9.57031,4.476562 1.32318,0.746126 1.32318,0.746126 2.6731,1.507324 0.95092,0.541568 1.90185,1.083135 2.88159,1.641114 1.007,0.571215 2.014,1.142431 3.05151,1.730957 8.90234,5.072827 17.71651,10.290044 26.51856,15.534424 9.19348,5.472075 18.44461,10.835621 27.72998,16.150146 1.97936,1.135264 3.95256,2.281348 5.91821,3.440186 2.58837,1.526639 2.58837,1.526639 5.11426,2.677246 3.21684,1.617755 5.10197,2.686294 6.41431,6.129395 1.16482,6.570135 1.80594,15.667665 -2.02613,21.456293 -3.45699,3.23543 -7.7907,5.02338 -12.06787,6.9419 -4.93407,2.33477 -9.59473,5.15908 -14.30786,7.90604 -2.40007,1.39147 -4.81354,2.75876 -7.22714,4.12657 -7.30858,4.144 -14.55107,8.39252 -21.7688,12.69245 -4.82002,2.87096 -9.64682,5.73054 -14.47403,8.58939 -1.32548,0.78552 -1.32548,0.78552 -2.67773,1.58691 -2.26752,1.33696 -4.54261,2.65948 -6.82227,3.97559 -0.95181,0.56449 -0.95181,0.56449 -1.92285,1.14038 -1.7334,0.98853 -1.7334,0.98853 -4.57715,2.29712 -4.2006,-1.4002 -5.19052,-4.36826 -7.1875,-8.0625 -0.36803,-0.66322 -0.73605,-1.32645 -1.11523,-2.00977 -0.90739,-1.638 -1.80343,-3.28229 -2.69727,-4.92773 3.84922,-4.25283 7.7616,-6.77869 12.8125,-9.4375 1.6263,-0.88041 3.25123,-1.76336 4.875,-2.64844 1.29551,-0.70527 1.29551,-0.70527 2.61719,-1.4248 7.84327,-4.33369 15.53351,-8.94392 23.26074,-13.47998 3.10973,-1.81924 6.22463,-3.62906 9.34242,-5.43443 2.68694,-1.55656 5.37142,-3.11732 8.05562,-4.67858 1.31197,-0.76182 2.62497,-1.521866 3.93903,-2.280087 1.83614,-1.059933 3.66836,-2.126348 5.49984,-3.194305 1.05695,-0.612627 2.11391,-1.225254 3.20289,-1.856445 2.49346,-1.342845 2.49346,-1.342845 3.39477,-3.56543 -0.7172,-0.269897 -1.4344,-0.539795 -2.17334,-0.817871 -2.83523,-1.185711 -5.39479,-2.556693 -8.05322,-4.096192 -1.52742,-0.882202 -1.52742,-0.882202 -3.0857,-1.782226 -1.0932,-0.636475 -2.18641,-1.272949 -3.31274,-1.928711 -1.1543,-0.669083 -2.30868,-1.338026 -3.46314,-2.006836 C 237.46416,74.200696 228.06685,68.634292 218.67798,63.052306 209.16199,57.397179 199.59653,51.831644 190,46.314513 c 1.48519,-4.043012 3.42878,-7.611463 5.625,-11.3125 0.63164,-1.068633 1.26328,-2.137266 1.91406,-3.238282 0.48211,-0.808242 0.96422,-1.616484 1.46094,-2.449218 z"
     style="fill:#000000;fill-opacity:1"
     id="path3" />
</svg>
