<?xml version="1.0" encoding="UTF-8" standalone="no"?>
<svg
   width="600"
   height="600"
   viewBox="0 0 158.75 158.75"
   version="1.1"
   id="svg924"
   inkscape:export-filename="/home/daniela/Documents/proxmox/Proxmox/Marketing/Logo/proxmox-logo/Screen/Full Lockup/stacked/proxmox-logo-color-stacked-bgblack.png"
   inkscape:export-xdpi="360"
   inkscape:export-ydpi="360"
   inkscape:version="1.1.2 (b8e25be833, 2022-02-05)"
   sodipodi:docname="proxmox_icon-dark.svg"
   xmlns:inkscape="http://www.inkscape.org/namespaces/inkscape"
   xmlns:sodipodi="http://sodipodi.sourceforge.net/DTD/sodipodi-0.dtd"
   xmlns="http://www.w3.org/2000/svg"
   xmlns:svg="http://www.w3.org/2000/svg"
   xmlns:rdf="http://www.w3.org/1999/02/22-rdf-syntax-ns#"
   xmlns:cc="http://creativecommons.org/ns#"
   xmlns:dc="http://purl.org/dc/elements/1.1/">
  <defs
     id="defs918" />
  <sodipodi:namedview
     id="base"
     pagecolor="#ffffff"
     bordercolor="#666666"
     borderopacity="1.0"
     inkscape:pageopacity="0"
     inkscape:pageshadow="2"
     inkscape:zoom="0.38489655"
     inkscape:cx="541.704"
     inkscape:cy="189.66135"
     inkscape:document-units="mm"
     inkscape:current-layer="layer1"
     inkscape:document-rotation="0"
     showgrid="false"
     inkscape:pagecheckerboard="true"
     fit-margin-top="0"
     fit-margin-left="0"
     fit-margin-right="0"
     fit-margin-bottom="0"
     inkscape:window-width="1920"
     inkscape:window-height="1017"
     inkscape:window-x="-8"
     inkscape:window-y="-8"
     inkscape:window-maximized="1"
     units="px" />
  <metadata
     id="metadata921">
    <rdf:RDF>
      <cc:Work
         rdf:about="">
        <dc:format>image/svg+xml</dc:format>
        <dc:type
           rdf:resource="http://purl.org/dc/dcmitype/StillImage" />
      </cc:Work>
    </rdf:RDF>
  </metadata>
  <g
     inkscape:label="Layer 1"
     inkscape:groupmode="layer"
     id="layer1"
     transform="translate(-11.346916,-31.368461)">
    <g
       id="g209"
       transform="translate(-26.458333,-26.458333)">
      <g
         transform="matrix(0.84666672,0,0,0.84666672,544.05161,-814.30036)"
         id="g1288"
         style="fill:#ffffff">
        <g
           id="g1286"
           style="font-style:normal;font-variant:normal;font-weight:normal;font-stretch:normal;font-size:25.8336px;line-height:125%;font-family:Helion;-inkscape-font-specification:Helion;text-align:start;letter-spacing:0px;word-spacing:0px;writing-mode:lr-tb;text-anchor:start;fill:#ffffff;fill-opacity:1;stroke:none"
           transform="matrix(1.2435137,0,0,1.2435137,-791.06481,553.75862)">
          <path
             inkscape:connector-curvature="0"
             id="path1272"
             d="m 168.85142,500.9595 h -11.85747 c -0.46554,0.0129 -0.85842,0.18085 -1.17864,0.50374 -0.32023,0.32294 -0.48707,0.72335 -0.50052,1.20125 v 16.3783 c 1.27229,-0.0318 2.33145,-0.472 3.17749,-1.32073 0.84604,-0.84873 1.2852,-1.91543 1.3175,-3.2001 h 9.04164 c 1.28573,-0.0317 2.35673,-0.47199 3.21302,-1.32072 0.85624,-0.84873 1.30079,-1.91543 1.33364,-3.2001 v -4.49499 c -0.0328,-1.28573 -0.4774,-2.35673 -1.33364,-3.21301 -0.85629,-0.85625 -1.92729,-1.3008 -3.21302,-1.33364 z m -9.04164,9.60997 v -5.06332 h 7.93081 c 0.0463,-0.0231 0.23141,0.0232 0.55542,0.13885 0.32398,0.11573 0.50912,0.43972 0.55541,0.97198 v 2.81583 c 0.0231,0.0474 -0.0231,0.23681 -0.13885,0.56833 -0.11573,0.33154 -0.43972,0.52098 -0.97198,0.56833 z"
             style="fill:#ffffff;fill-opacity:1" />
          <path
             inkscape:connector-curvature="0"
             id="path1274"
             d="m 194.05931,508.89031 v -3.38416 c -0.0318,-1.28573 -0.47201,-2.35673 -1.32072,-3.21301 -0.84875,-0.85625 -1.91545,-1.3008 -3.2001,-1.33364 h -11.85747 c -0.47684,0.0129 -0.87295,0.18085 -1.18833,0.50374 -0.31538,0.32294 -0.47899,0.72335 -0.49083,1.20125 v 16.3783 c 1.27336,-0.0318 2.33683,-0.472 3.1904,-1.32073 0.85357,-0.84873 1.29705,-1.91543 1.33042,-3.2001 v -1.13666 h 5.14082 l 2.60916,3.71999 c 0.4187,0.60063 0.94398,1.07208 1.57583,1.41437 0.63182,0.34229 1.33793,0.51667 2.11833,0.52313 0.37618,-5.4e-4 0.74107,-0.0447 1.09468,-0.1324 0.35358,-0.0877 0.68618,-0.21582 0.99781,-0.38427 l -3.64249,-5.19249 c 1.05592,-0.22872 1.92133,-0.74647 2.59625,-1.55322 0.67487,-0.80675 1.02362,-1.77011 1.04624,-2.8901 z m -13.53663,0.5425 v -3.92666 h 7.87915 c 0.0474,-0.0231 0.23679,0.0232 0.56833,0.13885 0.33151,0.11573 0.52096,0.43972 0.56833,0.97198 v 1.705 c 0.0237,0.0463 -0.0237,0.23143 -0.14208,0.55541 -0.11842,0.324 -0.44995,0.50914 -0.99458,0.55542 z"
             style="fill:#ffffff;fill-opacity:1" />
          <path
             inkscape:connector-curvature="0"
             id="path1276"
             d="m 210.1751,500.9595 h -9.01581 c -1.28467,0.0328 -2.35137,0.47739 -3.2001,1.33364 -0.84873,0.85628 -1.28897,1.92728 -1.32072,3.21301 v 9.01581 c 0.0317,1.28467 0.47199,2.35137 1.32072,3.2001 0.84873,0.84873 1.91543,1.28897 3.2001,1.32073 h 9.01581 c 1.28465,-0.0318 2.35135,-0.472 3.2001,-1.32073 0.84871,-0.84873 1.28895,-1.91543 1.32072,-3.2001 v -9.01581 c -0.0318,-1.28573 -0.47201,-2.35673 -1.32072,-3.21301 -0.84875,-0.85625 -1.91545,-1.3008 -3.2001,-1.33364 z m 0,12.4258 c 0.0237,0.0474 -0.0237,0.23681 -0.14208,0.56833 -0.11842,0.33153 -0.44995,0.52098 -0.99458,0.56833 h -6.74249 c -0.0474,0.0237 -0.23681,-0.0237 -0.56833,-0.14208 -0.33153,-0.1184 -0.52098,-0.44993 -0.56833,-0.99458 v -6.76832 c -0.0237,-0.0463 0.0237,-0.23141 0.14208,-0.55541 0.1184,-0.32398 0.44993,-0.50912 0.99458,-0.55542 h 6.74249 c 0.0473,-0.0231 0.23679,0.0232 0.56833,0.13885 0.33151,0.11573 0.52096,0.43972 0.56833,0.97198 z"
             style="fill:#ffffff;fill-opacity:1" />
          <path
             inkscape:connector-curvature="0"
             id="path1278"
             d="m 237.4767,502.25116 c -0.39183,-0.39179 -0.84822,-0.69964 -1.36917,-0.92354 -0.52099,-0.22387 -1.08071,-0.33797 -1.67916,-0.34229 -0.6367,0.005 -1.22333,0.1308 -1.75989,0.37781 -0.53659,0.24705 -1.00052,0.58611 -1.39177,1.01719 l -3.90082,4.28832 -3.92666,-4.28832 c -0.4015,-0.44238 -0.86434,-0.78467 -1.38854,-1.02688 -0.5242,-0.24217 -1.1033,-0.36487 -1.73729,-0.36812 -0.59847,0.004 -1.15819,0.11842 -1.67916,0.34229 -0.52097,0.2239 -0.97736,0.53175 -1.36916,0.92354 l 7.05248,7.74998 -7.05248,7.74998 c 0.3918,0.40419 0.84819,0.71957 1.36916,0.94615 0.52097,0.22657 1.08069,0.34175 1.67916,0.34552 0.62538,-0.005 1.20878,-0.13079 1.75021,-0.37782 0.54142,-0.24703 1.00857,-0.58609 1.40145,-1.01718 l 3.90083,-4.28832 3.90082,4.28832 c 0.39125,0.43109 0.85518,0.77015 1.39177,1.01718 0.53656,0.24703 1.12319,0.37297 1.75989,0.37782 0.59845,-0.004 1.15817,-0.11895 1.67916,-0.34552 0.52096,-0.22658 0.97734,-0.54196 1.36917,-0.94615 l -7.05249,-7.74998 z"
             style="fill:#ffffff;fill-opacity:1" />
          <path
             inkscape:connector-curvature="0"
             id="path1280"
             d="m 260.98042,500.9595 h -2.84166 c -0.92947,0.0129 -1.75721,0.2648 -2.48322,0.75562 -0.72604,0.49085 -1.27607,1.14314 -1.6501,1.95687 l 0.0258,-0.0517 -2.66082,5.83832 -2.635,-5.83832 v 0.0517 c -0.36275,-0.81373 -0.90955,-1.46602 -1.64041,-1.95687 -0.73087,-0.49082 -1.56184,-0.74269 -2.49291,-0.75562 h -2.81583 c -0.48922,0.0129 -0.89286,0.18085 -1.21093,0.50374 -0.31808,0.32294 -0.48276,0.72335 -0.49406,1.20125 v 16.3783 c 1.27336,-0.0318 2.33683,-0.472 3.19041,-1.32073 0.85357,-0.84873 1.29704,-1.91543 1.33041,-3.2001 v -8.65414 c 0.002,-0.11785 0.0371,-0.2115 0.10656,-0.28094 0.0694,-0.0694 0.16307,-0.10493 0.28094,-0.10656 0.0673,0.002 0.13293,0.0237 0.19698,0.0646 0.064,0.0409 0.11032,0.0883 0.13885,0.14208 l 5.01166,11.05664 c 0.0947,0.19752 0.23464,0.3579 0.41979,0.48115 0.18512,0.12325 0.38964,0.18675 0.61354,0.19052 0.22226,-0.003 0.42354,-0.0619 0.60385,-0.1776 0.18028,-0.11571 0.32344,-0.27179 0.42948,-0.46823 L 257.4154,505.687 c 0.0393,-0.0538 0.0899,-0.10116 0.15177,-0.14208 0.0619,-0.0409 0.13184,-0.0624 0.2099,-0.0646 0.10547,0.002 0.19158,0.0371 0.25833,0.10656 0.0667,0.0694 0.10116,0.16309 0.10333,0.28094 v 8.65414 c 0.0333,1.28467 0.47682,2.35137 1.33042,3.2001 0.85355,0.84873 1.91702,1.28897 3.19041,1.32073 v -16.3783 c -0.0119,-0.4779 -0.17548,-0.87831 -0.49084,-1.20125 -0.3154,-0.32289 -0.71151,-0.49081 -1.18833,-0.50374 z"
             style="fill:#ffffff;fill-opacity:1" />
          <path
             inkscape:connector-curvature="0"
             id="path1282"
             d="m 278.79561,500.9595 h -9.01581 c -1.28467,0.0328 -2.35137,0.47739 -3.20009,1.33364 -0.84874,0.85628 -1.28898,1.92728 -1.32073,3.21301 v 9.01581 c 0.0317,1.28467 0.47199,2.35137 1.32073,3.2001 0.84872,0.84873 1.91542,1.28897 3.20009,1.32073 h 9.01581 c 1.28466,-0.0318 2.35135,-0.472 3.2001,-1.32073 0.84871,-0.84873 1.28896,-1.91543 1.32073,-3.2001 v -9.01581 c -0.0318,-1.28573 -0.47202,-2.35673 -1.32073,-3.21301 -0.84875,-0.85625 -1.91544,-1.3008 -3.2001,-1.33364 z m 0,12.4258 c 0.0237,0.0474 -0.0237,0.23681 -0.14208,0.56833 -0.11842,0.33153 -0.44994,0.52098 -0.99458,0.56833 h -6.74248 c -0.0474,0.0237 -0.23681,-0.0237 -0.56834,-0.14208 -0.33153,-0.1184 -0.52097,-0.44993 -0.56833,-0.99458 v -6.76832 c -0.0237,-0.0463 0.0237,-0.23141 0.14209,-0.55541 0.11839,-0.32398 0.44992,-0.50912 0.99458,-0.55542 h 6.74248 c 0.0473,-0.0231 0.23679,0.0232 0.56833,0.13885 0.33152,0.11573 0.52096,0.43972 0.56833,0.97198 z"
             style="fill:#ffffff;fill-opacity:1" />
          <path
             inkscape:connector-curvature="0"
             id="path1284"
             d="m 306.0972,502.25116 c -0.39182,-0.39179 -0.84821,-0.69964 -1.36916,-0.92354 -0.52099,-0.22387 -1.08071,-0.33797 -1.67916,-0.34229 -0.6367,0.005 -1.22333,0.1308 -1.75989,0.37781 -0.5366,0.24705 -1.00052,0.58611 -1.39177,1.01719 l -3.90083,4.28832 -3.92665,-4.28832 c -0.4015,-0.44238 -0.86435,-0.78467 -1.38854,-1.02688 -0.52421,-0.24217 -1.1033,-0.36487 -1.73729,-0.36812 -0.59847,0.004 -1.15819,0.11842 -1.67916,0.34229 -0.52097,0.2239 -0.97736,0.53175 -1.36917,0.92354 l 7.05249,7.74998 -7.05249,7.74998 c 0.39181,0.40419 0.8482,0.71957 1.36917,0.94615 0.52097,0.22657 1.08069,0.34175 1.67916,0.34552 0.62538,-0.005 1.20878,-0.13079 1.7502,-0.37782 0.54142,-0.24703 1.00857,-0.58609 1.40146,-1.01718 l 3.90082,-4.28832 3.90083,4.28832 c 0.39125,0.43109 0.85517,0.77015 1.39177,1.01718 0.53656,0.24703 1.12319,0.37297 1.75989,0.37782 0.59845,-0.004 1.15817,-0.11895 1.67916,-0.34552 0.52095,-0.22658 0.97734,-0.54196 1.36916,-0.94615 l -7.05248,-7.74998 z"
             style="fill:#ffffff;fill-opacity:1" />
        </g>
      </g>
      <path
         inkscape:connector-curvature="0"
         id="path1290"
         style="fill:#e57000;fill-opacity:1;fill-rule:nonzero;stroke:none;stroke-width:0.730891"
         d="m 141.89758,116.88641 25.41237,27.92599 c -2.7927,2.88547 -6.70224,4.65495 -10.98527,4.65495 -4.56076,0 -8.56315,-1.95514 -11.35592,-5.02707 l -14.05575,-15.45172 -10.9846,-12.10215 10.9846,-12.00854 14.05575,-15.452532 c 2.79277,-3.071175 6.79516,-5.027074 11.35592,-5.027074 4.28303,0 8.19257,1.768759 10.98527,4.561525 z"
         sodipodi:nodetypes="ccscccccscc" />
      <path
         inkscape:connector-curvature="0"
         id="path1292"
         style="fill:#e57000;fill-opacity:1;fill-rule:nonzero;stroke:none;stroke-width:0.730891"
         d="m 92.334245,116.8861 -25.41238,27.92603 c 2.7927,2.88547 6.702237,4.65495 10.985287,4.65495 4.560744,0 8.563138,-1.95514 11.355905,-5.02707 L 103.3188,128.98825 114.30338,116.8861 103.3188,104.87756 89.263057,89.425028 c -2.792767,-3.071215 -6.795161,-5.027074 -11.355905,-5.027074 -4.28305,0 -8.192587,1.768759 -10.985287,4.561526 z"
         sodipodi:nodetypes="ccscccccscc" />
      <path
         inkscape:connector-curvature="0"
         id="path1294"
         style="fill:#ffffff;fill-opacity:1;fill-rule:nonzero;stroke:none;stroke-width:0.66712"
         d="m 127.12922,130.73289 -10.02585,-11.04587 -10.0263,11.04587 -23.195348,25.48982 c 2.548811,2.54902 6.118169,4.16327 10.025148,4.16327 4.16359,0 7.64778,-1.69975 10.28111,-4.58817 l 12.91539,-14.10405 12.82882,14.10405 c 2.5493,2.80293 6.20218,4.58817 10.36513,4.58817 3.9091,0 7.47768,-1.61425 10.02652,-4.16327 z"
         sodipodi:nodetypes="ccccscccscc" />
      <path
         inkscape:connector-curvature="0"
         id="path1296"
         style="fill:#ffffff;fill-opacity:1;fill-rule:nonzero;stroke:none;stroke-width:0.66712"
         d="M 127.1286,103.03813 117.10275,114.084 107.07645,103.03813 83.881116,77.548321 c 2.548838,-2.548932 6.118156,-4.163226 10.025162,-4.163226 4.163603,0 7.647762,1.699732 10.281082,4.588143 l 12.91539,14.104094 12.82882,-14.104094 c 2.54934,-2.802999 6.20221,-4.588143 10.36513,-4.588143 3.90911,0 7.47772,1.614294 10.02653,4.163226 z"
         sodipodi:nodetypes="ccccscccscc" />
    </g>
  </g>
</svg>
