<?xml version="1.0" encoding="UTF-8" standalone="no"?>
<svg
   version="1.1"
   id="PowerShell"
   x="0px"
   y="0px"
   width="204.691px"
   height="154.521px"
   viewBox="0 0 204.691 154.521"
   style="enable-background:new 0 0 204.691 154.521;"
   xml:space="preserve"
   sodipodi:docname="pwsh_icon.svg"
   inkscape:version="1.4 (86a8ad7, 2024-10-11)"
   xmlns:inkscape="http://www.inkscape.org/namespaces/inkscape"
   xmlns:sodipodi="http://sodipodi.sourceforge.net/DTD/sodipodi-0.dtd"
   xmlns="http://www.w3.org/2000/svg"
   xmlns:svg="http://www.w3.org/2000/svg"><defs
   id="defs5"><linearGradient
     id="b"
     x1="25.336"
     x2="94.569"
     y1="98.330002"
     y2="36.847"
     gradientTransform="matrix(1.6376614,0,0,-1.6376614,-2.354688,182.05989)"
     gradientUnits="userSpaceOnUse"><stop
       offset="0"
       stop-color="#2d4664"
       id="stop3" /><stop
       offset=".169"
       stop-color="#29405b"
       id="stop4" /><stop
       offset=".445"
       stop-color="#1e2f43"
       id="stop5" /><stop
       offset=".79"
       stop-color="#0c131b"
       id="stop6" /><stop
       offset="1"
       id="stop7" /></linearGradient><linearGradient
     id="a"
     x1="96.306"
     x2="25.454"
     y1="35.144001"
     y2="98.431"
     gradientTransform="matrix(1.6376614,0,0,-1.6376614,-2.354688,182.05989)"
     gradientUnits="userSpaceOnUse"><stop
       offset="0"
       stop-color="#a9c8ff"
       id="stop1" /><stop
       offset="1"
       stop-color="#c7e6ff"
       id="stop2" /></linearGradient></defs><sodipodi:namedview
   id="namedview5"
   pagecolor="#ffffff"
   bordercolor="#000000"
   borderopacity="0.25"
   inkscape:showpageshadow="2"
   inkscape:pageopacity="0.0"
   inkscape:pagecheckerboard="0"
   inkscape:deskcolor="#d1d1d1"
   inkscape:zoom="2.6112956"
   inkscape:cx="21.828245"
   inkscape:cy="77.16476"
   inkscape:window-width="1920"
   inkscape:window-height="1009"
   inkscape:window-x="-8"
   inkscape:window-y="-8"
   inkscape:window-maximized="1"
   inkscape:current-layer="PowerShell" />

<path
   fill="url(#a)"
   fill-rule="evenodd"
   d="m 9.4364741,153.40081 c -2.7840244,0 -5.0767503,-1.14637 -6.7144117,-3.11156 -1.6376614,-1.96519 -2.12895981,-4.74921 -1.4738953,-7.53324 L 31.708671,10.924265 C 33.0188,5.3562164 38.259317,1.0982969 43.827366,1.0982969 H 195.4748 c 2.78402,0 5.07675,1.1463629 6.71441,3.1115565 1.63766,1.9651937 2.12897,4.7492185 1.47389,7.5332416 L 173.20261,143.57484 c -1.31014,5.56805 -6.55065,9.82597 -12.11869,9.82597 z"
   clip-rule="evenodd"
   opacity="0.8"
   id="path2-0"
   style="fill:url(#a);stroke-width:1.63766" /><path
   fill="url(#b)"
   fill-rule="evenodd"
   d="M 194.65597,2.7359583 H 44.318664 c -4.749218,0 -9.33467,3.7666211 -10.481033,8.5158387 L 3.7046592,143.24731 c -1.146363,4.74922 1.8014276,8.51584 6.5506458,8.51584 H 160.59262 c 4.74921,0 9.33467,-3.76662 10.48102,-8.51584 L 201.20662,11.415563 c 1.14636,-4.7492175 -1.80143,-8.6796047 -6.55065,-8.6796047 z"
   clip-rule="evenodd"
   id="path7"
   style="fill:url(#b);stroke-width:1.63766" /><path
   fill="#2c5591"
   fill-rule="evenodd"
   d="m 102.78317,117.04472 h 36.51986 c 4.25791,0 7.697,3.60286 7.697,8.02454 0,4.42169 -3.43909,8.02454 -7.697,8.02454 h -36.51986 c -4.257914,0 -7.697003,-3.60285 -7.697003,-8.02454 0,-4.42168 3.439089,-8.02454 7.697003,-8.02454 z m 23.7461,-35.701013 c -0.65507,1.310129 -1.9652,2.620259 -4.25793,4.25792 L 54.308399,134.40394 c -3.766622,2.62025 -9.007139,1.63766 -11.954929,-2.29272 -2.784024,-3.93039 -2.128959,-9.33468 1.473896,-11.95493 L 105.0759,75.775658 V 74.793061 L 66.590859,33.851523 c -3.111557,-3.275322 -2.784025,-8.679605 0.655064,-12.118693 3.602856,-3.275323 9.007138,-3.275323 12.118694,0 l 46.182053,49.129844 c 2.78402,3.111557 2.94779,7.369476 0.9826,10.481033 z"
   clip-rule="evenodd"
   id="path8"
   style="stroke-width:1.63766" /><path
   fill="#ffffff"
   fill-rule="evenodd"
   d="m 124.72784,79.706046 c -0.65507,1.310128 -1.9652,2.620258 -4.25793,4.25792 L 52.670737,132.76628 c -3.766622,2.62026 -9.007138,1.63766 -11.954928,-2.29273 -2.784024,-3.93038 -2.12896,-9.33467 1.473895,-11.95492 L 103.43824,74.137996 V 73.1554 L 64.953198,32.213863 c -3.111557,-3.275323 -2.784025,-8.679606 0.655064,-12.118695 3.602855,-3.275323 9.007138,-3.275323 12.118694,0 L 123.90901,69.22501 c 2.78403,2.947793 2.94778,7.205713 0.81883,10.481036 z M 101.63681,116.2259 h 36.51985 c 4.25792,0 7.69701,3.43908 7.69701,7.53324 0,4.25792 -3.43909,7.53324 -7.69701,7.53324 h -36.51985 c -4.257917,0 -7.697006,-3.43909 -7.697006,-7.53324 0,-4.25792 3.439089,-7.53324 7.697006,-7.53324 z"
   clip-rule="evenodd"
   id="path9"
   style="stroke-width:1.63766" /></svg>
