<?xml version="1.0" encoding="UTF-8" standalone="no"?>
<svg
   id="Layer_1"
   data-name="Layer 1"
   viewBox="0 0 204.59 204.59"
   version="1.1"
   sodipodi:docname="rdpFile_icon-dark.svg"
   inkscape:version="1.4 (86a8ad7, 2024-10-11)"
   xml:space="preserve"
   xmlns:inkscape="http://www.inkscape.org/namespaces/inkscape"
   xmlns:sodipodi="http://sodipodi.sourceforge.net/DTD/sodipodi-0.dtd"
   xmlns="http://www.w3.org/2000/svg"
   xmlns:svg="http://www.w3.org/2000/svg"
   xmlns:rdf="http://www.w3.org/1999/02/22-rdf-syntax-ns#"
   xmlns:cc="http://creativecommons.org/ns#"
   xmlns:dc="http://purl.org/dc/elements/1.1/"><sodipodi:namedview
     id="namedview1"
     pagecolor="#000000"
     bordercolor="#000000"
     borderopacity="0.25"
     inkscape:showpageshadow="2"
     inkscape:pageopacity="0.0"
     inkscape:pagecheckerboard="0"
     inkscape:deskcolor="#d1d1d1"
     inkscape:zoom="1.9722372"
     inkscape:cx="-26.365997"
     inkscape:cy="6.33798"
     inkscape:window-width="1920"
     inkscape:window-height="1009"
     inkscape:window-x="-8"
     inkscape:window-y="-8"
     inkscape:window-maximized="1"
     inkscape:current-layer="Layer_1" /><defs
     id="defs856"><style
       id="style854">.cls-1{fill:#ac55ff;}</style><style
       id="style2411">.cls-1{fill:#606161;}</style></defs><title
     id="title858">identity</title><path
     class="cls-1"
     d="M332.32,153.7H179.68a26,26,0,0,0-26,26V332.32a26,26,0,0,0,26,26H332.32a26,26,0,0,0,26-26V179.68A26,26,0,0,0,332.32,153.7Zm14,178.62a14,14,0,0,1-14,14H179.68a14,14,0,0,1-14-14V179.68a14,14,0,0,1,14-14H332.32a14,14,0,0,1,14,14Z"
     id="path860"
     style="fill:#dfdfdf;fill-opacity:1"
     transform="translate(-153.7 -153.7)" /><metadata
     id="metadata932"><rdf:RDF><cc:Work
         rdf:about=""><dc:title>identity</dc:title></cc:Work></rdf:RDF></metadata><path
     class="cls-1"
     d="M 179.76617,121.41843 138.41742,85.204571 180.00427,43.461349 164.60519,26.620777 112.37616,76.225427 v 17.975514 l 51.61596,45.681989 z"
     id="path870-3"
     style="fill:#f38523;fill-opacity:1;stroke-width:1.72337;stroke-dasharray:none"
     sodipodi:nodetypes="cccccccc" /><path
     class="cls-1"
     d="M 52.585065,85.718254 93.933786,121.9321 52.346968,163.67532 67.746021,180.51589 119.97505,130.91123 V 112.93571 L 68.359102,67.253767 Z"
     id="path870-3-2"
     style="fill:#3cbb39;fill-opacity:1;stroke-width:1.72345"
     sodipodi:nodetypes="cccccccc" /><path
     style="line-height:normal;-inkscape-font-specification:'Bitstream Vera Sans';text-indent:0;text-align:start;text-transform:none;fill:#f6f6f6;fill-opacity:1;stroke:#f6f6f6;stroke-width:1.43198;stroke-miterlimit:4;stroke-dasharray:none;stroke-opacity:1"
     d="m 25.251456,25.339187 v 0.781564 34.3888 0.781564 h 0.781557 26.573174 0.781557 v -0.781564 -25.010037 -0.31751 l -0.219813,-0.244239 -9.37876,-9.378763 -0.244244,-0.219815 H 43.22742 26.033013 Z m 1.563128,1.563127 h 15.631272 v 8.5972 0.781564 h 0.781564 8.597196 V 59.727987 H 26.814584 Z m 17.1944,1.123498 6.692137,6.692139 h -6.692137 z"
     overflow="visible"
     enable-background="accumulate"
     font-family="'Bitstream Vera Sans'"
     id="path975" /></svg>
