<?xml version="1.0" encoding="UTF-8" standalone="no"?>
<svg
   id="Layer_1"
   data-name="Layer 1"
   viewBox="0 0 204.59 204.59"
   version="1.1"
   sodipodi:docname="rdpFile_icon.svg"
   inkscape:version="1.4 (86a8ad7, 2024-10-11)"
   xml:space="preserve"
   xmlns:inkscape="http://www.inkscape.org/namespaces/inkscape"
   xmlns:sodipodi="http://sodipodi.sourceforge.net/DTD/sodipodi-0.dtd"
   xmlns="http://www.w3.org/2000/svg"
   xmlns:svg="http://www.w3.org/2000/svg"
   xmlns:rdf="http://www.w3.org/1999/02/22-rdf-syntax-ns#"
   xmlns:cc="http://creativecommons.org/ns#"
   xmlns:dc="http://purl.org/dc/elements/1.1/"><sodipodi:namedview
     id="namedview1"
     pagecolor="#ffffff"
     bordercolor="#000000"
     borderopacity="0.25"
     inkscape:showpageshadow="2"
     inkscape:pageopacity="0.0"
     inkscape:pagecheckerboard="0"
     inkscape:deskcolor="#d1d1d1"
     inkscape:zoom="2.7891646"
     inkscape:cx="44.099226"
     inkscape:cy="125.66487"
     inkscape:window-width="1920"
     inkscape:window-height="1009"
     inkscape:window-x="-8"
     inkscape:window-y="-8"
     inkscape:window-maximized="1"
     inkscape:current-layer="Layer_1" /><defs
     id="defs856"><style
       id="style854">.cls-1{fill:#ac55ff;}</style><style
       id="style2411">.cls-1{fill:#606161;}</style></defs><title
     id="title858">identity</title><path
     class="cls-1"
     d="M332.32,153.7H179.68a26,26,0,0,0-26,26V332.32a26,26,0,0,0,26,26H332.32a26,26,0,0,0,26-26V179.68A26,26,0,0,0,332.32,153.7Zm14,178.62a14,14,0,0,1-14,14H179.68a14,14,0,0,1-14-14V179.68a14,14,0,0,1,14-14H332.32a14,14,0,0,1,14,14Z"
     id="path860"
     style="fill:#212121;fill-opacity:1"
     transform="translate(-153.7 -153.7)" /><metadata
     id="metadata932"><rdf:RDF><cc:Work
         rdf:about=""><dc:title>identity</dc:title></cc:Work></rdf:RDF></metadata><path
     class="cls-1"
     d="M 179.76617,121.41843 138.41742,85.204571 180.00427,43.461349 164.60519,26.620777 112.37616,76.225427 v 17.975514 l 51.61596,45.681989 z"
     id="path870-3"
     style="fill:#f27b10;fill-opacity:1;stroke-width:1.72337;stroke-dasharray:none"
     sodipodi:nodetypes="cccccccc" /><path
     class="cls-1"
     d="M 52.585065,85.718254 93.933786,121.9321 52.346968,163.67532 67.746021,180.51589 119.97505,130.91123 V 112.93571 L 68.359102,67.253767 Z"
     id="path870-3-2"
     style="fill:#30962e;fill-opacity:1;stroke-width:1.72345"
     sodipodi:nodetypes="cccccccc" /><path
     style="line-height:normal;-inkscape-font-specification:'Bitstream Vera Sans';text-indent:0;text-align:start;text-transform:none;fill:#272727;fill-opacity:1;stroke:#1d1d1d;stroke-width:4.24389;stroke-miterlimit:4;stroke-dasharray:none;stroke-opacity:1"
     d="m 27.704557,25.865436 v 0.765461 33.680281 0.765461 h 0.765454 26.025681 0.765455 V 60.311178 35.816428 35.505459 L 55.045863,35.266253 45.860335,26.080721 45.621123,25.865436 H 45.310158 28.470011 Z m 1.530922,1.530922 h 15.309217 v 8.42007 0.765462 h 0.765462 8.420066 V 59.545718 H 29.235479 Z m 16.84014,1.10035 6.554258,6.55426 h -6.554258 z"
     overflow="visible"
     enable-background="accumulate"
     font-family="'Bitstream Vera Sans'"
     id="path975" /></svg>
