<?xml version="1.0" encoding="UTF-8" standalone="no"?>
<!-- Generator: Adobe Illustrator 24.3.0, SVG Export Plug-In . SVG Version: 6.00 Build 0)  -->

<svg
   version="1.1"
   id="Layer_1"
   x="0px"
   y="0px"
   viewBox="0 0 169 141.60001"
   xml:space="preserve"
   sodipodi:docname="sshLocalTunnel_icon-dark.svg"
   width="169"
   height="141.60001"
   inkscape:version="1.1.2 (b8e25be833, 2022-02-05)"
   xmlns:inkscape="http://www.inkscape.org/namespaces/inkscape"
   xmlns:sodipodi="http://sodipodi.sourceforge.net/DTD/sodipodi-0.dtd"
   xmlns="http://www.w3.org/2000/svg"
   xmlns:svg="http://www.w3.org/2000/svg"><defs
   id="defs17" /><sodipodi:namedview
   id="namedview15"
   pagecolor="#ffffff"
   bordercolor="#666666"
   borderopacity="1.0"
   inkscape:pageshadow="2"
   inkscape:pageopacity="0.0"
   inkscape:pagecheckerboard="0"
   showgrid="false"
   inkscape:zoom="1.6738281"
   inkscape:cx="84.536756"
   inkscape:cy="70.497083"
   inkscape:window-width="1920"
   inkscape:window-height="1017"
   inkscape:window-x="-8"
   inkscape:window-y="-8"
   inkscape:window-maximized="1"
   inkscape:current-layer="Layer_1" />
<style
   type="text/css"
   id="style2">
	.st0{fill:#0C0C0C;}
	.st1{fill:#AC55FF;}
</style>

<path
   class="st1"
   d="M 68.3,56.8 90.5,69.4 68.3,82 V 94.5 L 104.1,74.2 V 64.8 L 68.3,44.5 Z"
   id="path6"
   style="fill:#479fff;fill-opacity:1" />
<g
   id="g12"
   transform="translate(-171.5,-185.2)"
   style="fill:#479fff;fill-opacity:1">
	<g
   id="g10"
   style="fill:#479fff;fill-opacity:1">
		<path
   class="st1"
   d="m 331.9,185.2 h -9.7 c -4.7,0 -8.6,5.4 -8.6,12 v 4.6 H 198.5 v -4.6 c 0,-6.6 -3.8,-12 -8.6,-12 h -9.8 c -4.7,0 -8.6,5.4 -8.6,12 v 117.6 c 0,6.6 3.8,12 8.6,12 h 9.8 c 4.7,0 8.6,-5.4 8.6,-12 v -4.6 h 115.1 v 4.6 c 0,6.6 3.8,12 8.6,12 h 9.7 c 4.7,0 8.6,-5.4 8.6,-12 V 197.2 c -0.1,-6.6 -3.9,-12 -8.6,-12 z M 191.8,314.8 c 0,1.4 -0.8,2.6 -1.8,2.6 h -9.8 c -1,0 -1.8,-1.2 -1.8,-2.6 V 197.2 c 0,-1.4 0.8,-2.6 1.8,-2.6 h 9.8 c 1,0 1.8,1.2 1.8,2.6 z m 121.8,-14 H 198.5 v -89.6 h 115.1 z m 20.1,14 c 0,1.4 -0.8,2.6 -1.8,2.6 h -9.7 c -1,0 -1.8,-1.2 -1.8,-2.6 V 197.2 c 0,-1.4 0.8,-2.6 1.8,-2.6 h 9.7 c 1,0 1.8,1.2 1.8,2.6 z"
   id="path8"
   style="fill:#479fff;fill-opacity:1" />
	</g>
</g>
</svg>
