<?xml version="1.0" encoding="UTF-8" standalone="no"?>
<svg
   id="Layer_1"
   data-name="Layer 1"
   viewBox="0 0 178.64 122.82"
   version="1.1"
   sodipodi:docname="sshTunnelCategory_icon.svg"
   inkscape:version="1.1.2 (b8e25be833, 2022-02-05)"
   xmlns:inkscape="http://www.inkscape.org/namespaces/inkscape"
   xmlns:sodipodi="http://sodipodi.sourceforge.net/DTD/sodipodi-0.dtd"
   xmlns="http://www.w3.org/2000/svg"
   xmlns:svg="http://www.w3.org/2000/svg"
   xmlns:rdf="http://www.w3.org/1999/02/22-rdf-syntax-ns#"
   xmlns:cc="http://creativecommons.org/ns#"
   xmlns:dc="http://purl.org/dc/elements/1.1/">
  <sodipodi:namedview
     id="namedview11"
     pagecolor="#ffffff"
     bordercolor="#666666"
     borderopacity="1.0"
     inkscape:pageshadow="2"
     inkscape:pageopacity="0.0"
     inkscape:pagecheckerboard="0"
     showgrid="false"
     inkscape:zoom="4.2591071"
     inkscape:cx="45.666849"
     inkscape:cy="57.758585"
     inkscape:window-width="1920"
     inkscape:window-height="1017"
     inkscape:window-x="-8"
     inkscape:window-y="-8"
     inkscape:window-maximized="1"
     inkscape:current-layer="Layer_1" />
  <defs
     id="defs4">
    <style
       id="style2">.cls-1{fill:#ac55ff;}</style>
  </defs>
  <title
     id="title6">ssh tunnel category</title>
  <path
     class="cls-1"
     d="m 166.68,256 c 0,29.58 7,61.41 22.33,61.41 H 323 c 15.34,0 22.33,-31.83 22.33,-61.41 0,-29.58 -7,-61.41 -22.33,-61.41 H 189 c -15.33,0 -22.32,31.83 -22.32,61.41 z m 22.4,50.24 c -3.11,-0.9 -11.24,-17.63 -11.24,-50.24 0,-32.36 8,-49.09 11.17,-50.23 0.1,100.47 0,0 0.1,100.47 z M 334.16,256 c 0,32.65 -8.15,49.4 -11.09,50.25 -3.09,-0.85 -11.24,-17.6 -11.24,-50.25 0,-32.36 8,-49.09 11.16,-50.23 3.16,1.14 11.17,17.87 11.17,50.23 z m -24.72,-50.24 c -6,11.88 -8.78,31.5 -8.78,50.24 0,18.74 2.82,38.36 8.78,50.24 H 189.11 l -0.1,-100.47 z"
     transform="translate(-166.68,-194.59)"
     id="path8"
     style="fill:#2e2eff;fill-opacity:1"
     sodipodi:nodetypes="ssssssscscccscscscscccc" />
  <metadata
     id="metadata828">
    <rdf:RDF>
      <cc:Work
         rdf:about="">
        <dc:title>ssh tunnel category</dc:title>
      </cc:Work>
    </rdf:RDF>
  </metadata>
</svg>
