<?xml version="1.0" encoding="UTF-8" standalone="no"?>
<svg
   id="Layer_1"
   data-name="Layer 1"
   viewBox="0 0 204.59 204.59"
   version="1.1"
   sodipodi:docname="switchPort_icon-dark.svg"
   inkscape:version="1.4 (86a8ad7, 2024-10-11)"
   xml:space="preserve"
   xmlns:inkscape="http://www.inkscape.org/namespaces/inkscape"
   xmlns:sodipodi="http://sodipodi.sourceforge.net/DTD/sodipodi-0.dtd"
   xmlns="http://www.w3.org/2000/svg"
   xmlns:svg="http://www.w3.org/2000/svg"
   xmlns:rdf="http://www.w3.org/1999/02/22-rdf-syntax-ns#"
   xmlns:cc="http://creativecommons.org/ns#"
   xmlns:dc="http://purl.org/dc/elements/1.1/"><sodipodi:namedview
     id="namedview1"
     pagecolor="#000000"
     bordercolor="#000000"
     borderopacity="0.25"
     inkscape:showpageshadow="2"
     inkscape:pageopacity="0.0"
     inkscape:pagecheckerboard="0"
     inkscape:deskcolor="#d1d1d1"
     inkscape:zoom="1.3945823"
     inkscape:cx="105.40791"
     inkscape:cy="122.97589"
     inkscape:window-width="1920"
     inkscape:window-height="1009"
     inkscape:window-x="-8"
     inkscape:window-y="-8"
     inkscape:window-maximized="1"
     inkscape:current-layer="Layer_1" /><defs
     id="defs856"><style
       id="style854">.cls-1{fill:#ac55ff;}</style><style
       id="style2411">.cls-1{fill:#606161;}</style></defs><title
     id="title858">identity</title><path
     class="cls-1"
     d="M332.32,153.7H179.68a26,26,0,0,0-26,26V332.32a26,26,0,0,0,26,26H332.32a26,26,0,0,0,26-26V179.68A26,26,0,0,0,332.32,153.7Zm14,178.62a14,14,0,0,1-14,14H179.68a14,14,0,0,1-14-14V179.68a14,14,0,0,1,14-14H332.32a14,14,0,0,1,14,14Z"
     id="path860"
     style="fill:#e1e1e1;fill-opacity:1"
     transform="translate(-153.7 -153.7)" /><metadata
     id="metadata932"><rdf:RDF><cc:Work
         rdf:about=""><dc:title>identity</dc:title></cc:Work></rdf:RDF></metadata><rect
     style="fill:#e1e1e1;fill-opacity:1;stroke-width:5.69931"
     id="rect1"
     width="140.24422"
     height="104.32801"
     x="31.904823"
     y="33.701843" /><rect
     style="fill:#e1e1e1;fill-opacity:1;stroke-width:5.69931"
     id="rect2"
     width="89.362923"
     height="27.792295"
     x="57.345459"
     y="135.46443" /><rect
     style="fill:#e1e1e1;fill-opacity:1;stroke-width:5.69931"
     id="rect3"
     width="37.840282"
     height="24.799282"
     x="84.068817"
     y="159.62234" /><rect
     style="fill:#988705;fill-opacity:1;stroke-width:5.69931"
     id="rect4"
     width="13.454145"
     height="27.05946"
     x="40.469872"
     y="42.035851" /><rect
     style="fill:#988705;fill-opacity:1;stroke-width:5.69931"
     id="rect4-9"
     width="13.454145"
     height="27.05946"
     x="61.350204"
     y="42.102371" /><rect
     style="fill:#988705;fill-opacity:1;stroke-width:5.69931"
     id="rect4-8"
     width="13.454145"
     height="27.05946"
     x="83.701981"
     y="42.013817" /><rect
     style="fill:#988705;fill-opacity:1;stroke-width:5.69931"
     id="rect4-9-8"
     width="13.454145"
     height="27.05946"
     x="106.62847"
     y="42.054401" /><rect
     style="fill:#988705;fill-opacity:1;stroke-width:5.69931"
     id="rect4-8-4"
     width="13.454145"
     height="27.05946"
     x="128.88203"
     y="42.268951" /><rect
     style="fill:#988705;fill-opacity:1;stroke-width:5.69931"
     id="rect4-9-8-5"
     width="13.454145"
     height="27.05946"
     x="151.05266"
     y="42.38512" /></svg>
