<?xml version="1.0" encoding="UTF-8" standalone="no"?>
<svg
   id="Layer_1"
   data-name="Layer 1"
   viewBox="0 0 204.59 204.59"
   version="1.1"
   sodipodi:docname="vnc_icon.svg"
   inkscape:version="1.4 (86a8ad7, 2024-10-11)"
   xml:space="preserve"
   xmlns:inkscape="http://www.inkscape.org/namespaces/inkscape"
   xmlns:sodipodi="http://sodipodi.sourceforge.net/DTD/sodipodi-0.dtd"
   xmlns="http://www.w3.org/2000/svg"
   xmlns:svg="http://www.w3.org/2000/svg"
   xmlns:rdf="http://www.w3.org/1999/02/22-rdf-syntax-ns#"
   xmlns:cc="http://creativecommons.org/ns#"
   xmlns:dc="http://purl.org/dc/elements/1.1/"><sodipodi:namedview
     id="namedview1"
     pagecolor="#ffffff"
     bordercolor="#000000"
     borderopacity="0.25"
     inkscape:showpageshadow="2"
     inkscape:pageopacity="0.0"
     inkscape:pagecheckerboard="0"
     inkscape:deskcolor="#d1d1d1"
     inkscape:zoom="0.9861186"
     inkscape:cx="-30.422304"
     inkscape:cy="105.97103"
     inkscape:window-width="1920"
     inkscape:window-height="1009"
     inkscape:window-x="-8"
     inkscape:window-y="-8"
     inkscape:window-maximized="1"
     inkscape:current-layer="Layer_1" /><defs
     id="defs856"><style
       id="style854">.cls-1{fill:#ac55ff;}</style><style
       id="style2411">.cls-1{fill:#606161;}</style></defs><title
     id="title858">identity</title><path
     class="cls-1"
     d="M332.32,153.7H179.68a26,26,0,0,0-26,26V332.32a26,26,0,0,0,26,26H332.32a26,26,0,0,0,26-26V179.68A26,26,0,0,0,332.32,153.7Zm14,178.62a14,14,0,0,1-14,14H179.68a14,14,0,0,1-14-14V179.68a14,14,0,0,1,14-14H332.32a14,14,0,0,1,14,14Z"
     id="path860"
     style="fill:#212121;fill-opacity:1"
     transform="translate(-153.7 -153.7)" /><metadata
     id="metadata932"><rdf:RDF><cc:Work
         rdf:about=""><dc:title>identity</dc:title></cc:Work></rdf:RDF></metadata><path
     fill="#ff0707"
     d="M 7.1790278,21.08735 H 7.507032 c -0.079999,0.07997 -0.2480031,0.248004 -0.3280042,0.328003 z"
     id="path2"
     style="stroke-width:0.800009" /><path
     fill="#ff0707"
     d="m 14.598995,42.703631 c 20.33626,-0.280011 40.696523,-0.272004 61.032784,0 -0.008,1.32001 -0.008,2.64003 -0.008,3.960049 C 71.511726,46.959676 67.17567,46.399672 63.27962,48.047695 60.175581,49.071709 61.647599,53.111767 61.255594,55.5598 50.527456,59.519849 42.29535,69.031971 39.311312,80.008107 l -0.224003,0.600008 c -4.344057,-9.488121 -7.7841,-19.440253 -13.072169,-28.472361 -2.248027,-4.00806 -7.06409,-4.904063 -11.184143,-5.720078 -0.08,-1.24002 -0.160002,-2.472034 -0.232003,-3.712045 z"
     id="path4"
     style="stroke-width:0.800009" /><path
     fill="#ff0707"
     d="m 108.2082,42.703631 c 13.96017,-0.264007 27.95236,-0.304012 41.91253,0.01597 0.60001,2.656033 -0.89601,4.432056 -3.47203,4.848065 -5.43207,1.712018 -9.47213,6.096083 -12.05616,11.01614 -4.52806,6.856089 -7.32009,14.632183 -10.84814,22.00829 -3.04004,7.040088 -6.67209,13.848166 -9.09612,21.144274 -0.57601,1.71203 -1.51201,3.27204 -2.56003,4.73606 -3.35204,4.29605 -4.92007,9.57612 -7.2241,14.43219 -2.41602,5.59207 -5.472064,10.92814 -7.120086,16.82421 -4.472058,11.44814 -9.928128,22.52828 -14.944192,33.75243 -0.704009,2.40003 -4.272056,2.37603 -4.808062,-0.104 -5.352069,-12.27216 -10.544136,-24.62432 -15.872204,-36.89647 0.096,-15.3922 -0.04,-30.7924 0.032,-46.184602 -0.160001,-4.856063 3.024039,-8.944112 6.92809,-11.456151 6.648084,14.176189 12.312158,28.784373 19.072245,42.912563 1.136015,3.74405 2.240028,7.5841 4.400057,10.88813 1.904024,0.29601 2.048026,-2.24001 2.872036,-3.43203 5.224076,-12.74416 11.536146,-25.03232 16.416216,-37.912499 4.67206,-10.776153 11.17614,-21.176292 12.89616,-32.952448 -0.464,-8.240104 -9.78412,-10.040128 -16.44821,-9.760116 -0.0319,-1.296019 -0.064,-2.584041 -0.08,-3.88005 z"
     id="path6"
     style="stroke-width:0.800009" /><path
     fill="#000000"
     d="m 61.255594,55.5598 c 8.088105,-2.912044 17.144221,-3.592051 25.368327,-0.77602 14.648189,4.632059 25.184329,19.168249 25.216329,34.512446 -4.88007,12.880174 -11.19214,25.168334 -16.416217,37.912494 -0.82401,1.19202 -0.968011,3.72805 -2.872036,3.43204 -2.160028,-3.30403 -3.264042,-7.14409 -4.400056,-10.88814 0.392005,-8.88811 0.072,-17.78423 0.256003,-26.672348 0.04,-4.800054 -0.208002,-10.232133 -3.79205,-13.864179 -3.880048,-4.24005 -10.528135,-4.880053 -15.536199,-2.376031 -3.904051,2.512039 -7.08809,6.600088 -6.928089,11.45615 -0.072,15.392198 0.06401,30.792398 -0.032,46.184608 -0.112002,1.11201 -0.256003,2.21603 -0.416005,3.32004 -7.888101,0.184 -15.784203,0.152 -23.672305,0 -0.280003,-14.63219 0.112002,-29.27239 -0.192003,-43.904573 -0.112,-4.672064 0.800011,-9.288119 1.47202,-13.88818 C 42.295353,69.031971 50.527459,59.519849 61.255597,55.5598 Z"
     id="path8"
     style="stroke-width:0.800009" /><path
     fill="#000000"
     d="m 134.59254,58.583831 c 16.2322,-5.600075 33.60044,-3.936048 50.44065,-3.760046 0.248,7.920098 0.176,15.856209 0.0319,23.784303 -11.42414,0.248004 -22.85629,-0.01597 -34.28044,0.07997 -5.01606,0.168005 -10.52013,2.616038 -12.49616,7.520092 -3.07203,7.856112 -3.04803,17.89624 3.00804,24.35233 4.09605,4.32804 10.49613,3.13603 15.8402,3.23204 9.29612,0.13599 18.60824,-0.32001 27.89636,0.232 0.24801,7.92009 0.17601,15.85621 0.0319,23.77631 -9.56013,0.27999 -19.12824,-0.0879 -28.69637,0.184 -10.69614,0.216 -22.04828,-2.54403 -29.87239,-10.24814 -7.28808,-6.60008 -11.46414,-16.21621 -11.84815,-26.00033 2.42404,-7.296103 6.05608,-14.104181 9.09613,-21.144268 3.52804,-7.376098 6.32007,-15.152202 10.84813,-22.00829 z"
     id="path10"
     style="stroke-width:0.800009" /><path
     fill="#000000"
     d="m 104.86415,120.90464 c 2.30403,-4.85607 3.87206,-10.13614 7.2241,-14.43218 0.64,10.40812 0.49601,20.88026 0.128,31.29639 -4.81606,0.25601 -9.65612,0.24001 -14.472186,-0.04 1.648022,-5.89607 4.704066,-11.23214 7.120086,-16.82421 z"
     id="path12"
     style="stroke-width:0.800009" /><path
     fill="#404080"
     d="m 101.87212,149.00901 c 27.78436,-0.16001 55.57671,-0.16001 83.35306,0 0.20001,5.64806 0.20001,11.30414 0,16.95221 -27.77635,0.168 -55.5687,0.176 -83.34506,0 -0.2,-5.64807 -0.2,-11.30415 -0.008,-16.95221 z"
     id="path14"
     style="stroke-width:0.800009" /></svg>
