<?xml version="1.0" encoding="UTF-8" standalone="no"?>
<svg
   width="213.4675pt"
   height="163.45676pt"
   viewBox="0 0 213.4675 163.45676"
   version="1.1"
   id="svg16"
   sodipodi:docname="vnc_icon.svg"
   inkscape:version="1.1.2 (b8e25be833, 2022-02-05)"
   xmlns:inkscape="http://www.inkscape.org/namespaces/inkscape"
   xmlns:sodipodi="http://sodipodi.sourceforge.net/DTD/sodipodi-0.dtd"
   xmlns="http://www.w3.org/2000/svg"
   xmlns:svg="http://www.w3.org/2000/svg">
  <defs
     id="defs20" />
  <sodipodi:namedview
     id="namedview18"
     pagecolor="#ffffff"
     bordercolor="#666666"
     borderopacity="1.0"
     inkscape:pageshadow="2"
     inkscape:pageopacity="0.0"
     inkscape:pagecheckerboard="0"
     inkscape:document-units="pt"
     showgrid="false"
     inkscape:zoom="1.5303571"
     inkscape:cx="97.036173"
     inkscape:cy="131.34189"
     inkscape:window-width="1920"
     inkscape:window-height="1017"
     inkscape:window-x="-8"
     inkscape:window-y="-8"
     inkscape:window-maximized="1"
     inkscape:current-layer="svg16" />
  <path
     fill="#ff0707"
     d="m -11.81,-26.756135 h 0.41 c -0.1,0.1 -0.31,0.31 -0.41,0.41 z"
     id="path2" />
  <path
     fill="#ff0707"
     d="m 0,0.2638654 c 25.42,-0.35 50.87,-0.34 76.29,0 -0.01,1.65 -0.01,3.3 -0.01,4.95 -5.14,0.37 -10.56,-0.33 -15.43,1.73 -3.88,1.28 -2.04,6.3299996 -2.53,9.3899996 -13.41,4.95 -23.7,16.84 -27.43,30.56 l -0.28,0.75 c -5.43,-11.86 -9.73,-24.3 -16.34,-35.59 C 11.46,7.0438654 5.44,5.9238654 0.29,4.9038654 c -0.1,-1.55 -0.2,-3.09 -0.29,-4.64 z"
     id="path4" />
  <path
     fill="#ff0707"
     d="m 117.01,0.2638654 c 17.45,-0.33 34.94,-0.38 52.39,0.02 0.75,3.32 -1.12,5.54 -4.34,6.06 -6.79,2.14 -11.84,7.6199996 -15.07,13.7699996 -5.66,8.57 -9.15,18.29 -13.56,27.51 -3.8,8.8 -8.34,17.31 -11.37,26.43 -0.72,2.14 -1.89,4.09 -3.2,5.92 -4.19,5.37 -6.15,11.97 -9.03,18.04 -3.02,6.990005 -6.84,13.660005 -8.9,21.030005 -5.59,14.31 -12.41,28.16 -18.68,42.19 -0.88,3 -5.34,2.97 -6.01,-0.13 -6.69,-15.34 -13.18,-30.78 -19.84,-46.12 0.12,-19.240005 -0.05,-38.490005 0.04,-57.730005 -0.2,-6.07 3.78,-11.18 8.66,-14.32 8.31,17.72 15.39,35.98 23.84,53.64 1.42,4.680005 2.8,9.480005 5.5,13.610005 2.38,0.37 2.56,-2.8 3.59,-4.29 6.53,-15.930005 14.42,-31.290005 20.52,-47.390005 5.84,-13.47 13.97,-26.47 16.12,-41.19 C 137.09,7.0138654 125.44,4.7638654 117.11,5.1138654 c -0.04,-1.62 -0.08,-3.23 -0.1,-4.85 z"
     id="path6" />
  <path
     fill="#000000"
     d="m 58.32,16.333865 c 10.11,-3.64 21.43,-4.49 31.71,-0.97 18.31,5.79 31.48,23.96 31.52,43.14 -6.1,16.1 -13.99,31.46 -20.52,47.390005 -1.03,1.49 -1.21,4.66 -3.59,4.29 -2.7,-4.13 -4.08,-8.93 -5.5,-13.610005 0.49,-11.11 0.09,-22.23 0.32,-33.34 0.05,-6 -0.26,-12.79 -4.74,-17.33 -4.85,-5.3 -13.16,-6.1 -19.42,-2.97 -4.88,3.14 -8.86,8.25 -8.66,14.32 -0.09,19.24 0.08,38.49 -0.04,57.730005 -0.14,1.39 -0.32,2.77 -0.52,4.15 -9.86,0.23 -19.73,0.19 -29.59,0 -0.35,-18.29 0.14,-36.590005 -0.24,-54.880005 -0.14,-5.84 1,-11.61 1.84,-17.36 3.73,-13.72 14.02,-25.61 27.43,-30.56 z"
     id="path8" />
  <path
     fill="#000000"
     d="m 149.99,20.113865 c 20.29,-7 42,-4.92 63.05,-4.7 0.31,9.9 0.22,19.82 0.04,29.73 -14.28,0.31 -28.57,-0.02 -42.85,0.1 -6.27,0.21 -13.15,3.27 -15.62,9.4 -3.84,9.82 -3.81,22.37 3.76,30.44 5.12,5.41 13.12,3.92 19.8,4.04 11.62,0.17 23.26,-0.4 34.87,0.29 0.31,9.9 0.22,19.820005 0.04,29.720005 -11.95,0.35 -23.91,-0.11 -35.87,0.23 -13.37,0.27 -27.56,-3.18 -37.34,-12.81 -9.11,-8.250005 -14.33,-20.270005 -14.81,-32.500005 3.03,-9.12 7.57,-17.63 11.37,-26.43 4.41,-9.22 7.9,-18.94 13.56,-27.51 z"
     id="path10" />
  <path
     fill="#000000"
     d="m 112.83,98.013865 c 2.88,-6.07 4.84,-12.67 9.03,-18.04 0.8,13.01 0.62,26.100005 0.16,39.120005 -6.02,0.32 -12.07,0.3 -18.09,-0.05 2.06,-7.37 5.88,-14.04 8.9,-21.030005 z"
     id="path12" />
  <path
     fill="#404080"
     d="m 109.09,133.14387 c 34.73,-0.2 69.47,-0.2 104.19,0 0.25,7.06 0.25,14.13 0,21.19 -34.72,0.21 -69.46,0.22 -104.18,0 -0.25,-7.06 -0.25,-14.13 -0.01,-21.19 z"
     id="path14" />
</svg>
