<?xml version="1.0" encoding="UTF-8" standalone="no"?>
<svg
   id="Layer_1"
   data-name="Layer 1"
   viewBox="0 0 204.59 204.59"
   version="1.1"
   sodipodi:docname="vncTunnel_icon.svg"
   inkscape:version="1.4 (86a8ad7, 2024-10-11)"
   xml:space="preserve"
   xmlns:inkscape="http://www.inkscape.org/namespaces/inkscape"
   xmlns:sodipodi="http://sodipodi.sourceforge.net/DTD/sodipodi-0.dtd"
   xmlns="http://www.w3.org/2000/svg"
   xmlns:svg="http://www.w3.org/2000/svg"
   xmlns:rdf="http://www.w3.org/1999/02/22-rdf-syntax-ns#"
   xmlns:cc="http://creativecommons.org/ns#"
   xmlns:dc="http://purl.org/dc/elements/1.1/"><sodipodi:namedview
     id="namedview1"
     pagecolor="#ffffff"
     bordercolor="#000000"
     borderopacity="0.25"
     inkscape:showpageshadow="2"
     inkscape:pageopacity="0.0"
     inkscape:pagecheckerboard="0"
     inkscape:deskcolor="#d1d1d1"
     inkscape:zoom="0.69729115"
     inkscape:cx="91.783755"
     inkscape:cy="-157.03627"
     inkscape:window-width="1920"
     inkscape:window-height="1009"
     inkscape:window-x="-8"
     inkscape:window-y="-8"
     inkscape:window-maximized="1"
     inkscape:current-layer="Layer_1" /><defs
     id="defs856"><style
       id="style854">.cls-1{fill:#ac55ff;}</style><style
       id="style2411">.cls-1{fill:#606161;}</style></defs><title
     id="title858">identity</title><path
     class="cls-1"
     d="M332.32,153.7H179.68a26,26,0,0,0-26,26V332.32a26,26,0,0,0,26,26H332.32a26,26,0,0,0,26-26V179.68A26,26,0,0,0,332.32,153.7Zm14,178.62a14,14,0,0,1-14,14H179.68a14,14,0,0,1-14-14V179.68a14,14,0,0,1,14-14H332.32a14,14,0,0,1,14,14Z"
     id="path860"
     style="fill:#212121;fill-opacity:1"
     transform="translate(-153.7 -153.7)" /><metadata
     id="metadata932"><rdf:RDF><cc:Work
         rdf:about=""><dc:title>identity</dc:title></cc:Work></rdf:RDF></metadata><path
     fill="#ff0707"
     d="m 7.5375581,24.672653 h 0.3280042 c -0.079999,0.07997 -0.2480031,0.248004 -0.3280042,0.328003 z"
     id="path2"
     style="stroke-width:0.800009" /><path
     fill="#ff0707"
     d="m 14.450487,40.178993 c 20.33626,-0.280011 40.696523,-0.272004 61.032784,0 -0.008,1.32001 -0.008,2.64003 -0.008,3.960049 -4.112053,0.295996 -8.448109,-0.264008 -12.344159,1.384015 -3.104039,1.024014 -1.632021,5.064072 -2.024026,7.512105 -10.728138,3.960049 -18.960244,13.472171 -21.944282,24.448307 l -0.224003,0.600008 c -4.344057,-9.488121 -7.7841,-19.440253 -13.072169,-28.472361 -2.248027,-4.00806 -7.06409,-4.904063 -11.184143,-5.720078 -0.08,-1.24002 -0.160002,-2.472034 -0.232003,-3.712045 z"
     id="path4"
     style="stroke-width:0.800009" /><path
     fill="#ff0707"
     d="m 108.05969,40.178993 c 13.96017,-0.264007 27.95236,-0.304012 41.91253,0.01597 0.60001,2.656033 -0.89601,4.432056 -3.47203,4.848065 -5.43207,1.712018 -9.47213,6.096083 -12.05616,11.01614 -4.52806,6.856089 -7.32009,14.632183 -10.84814,22.00829 -3.04004,7.040088 -6.67209,13.848166 -9.09612,21.144274 -0.57601,1.712028 -1.51201,3.272038 -2.56003,4.736058 -3.35204,4.29605 -4.92007,9.57612 -7.2241,14.43219 -2.41602,5.59207 -5.472062,10.92814 -7.120084,16.82421 -4.472058,11.44814 -9.928128,22.52828 -14.944192,33.75243 -0.704009,2.40003 -4.272056,2.37603 -4.808062,-0.104 -5.352069,-12.27216 -10.544136,-24.62432 -15.872204,-36.89647 0.096,-15.3922 -0.04,-30.7924 0.032,-46.1846 -0.160001,-4.856063 3.024039,-8.944112 6.92809,-11.456151 6.648084,14.176189 12.312158,28.784371 19.072245,42.912561 1.136015,3.74405 2.240028,7.5841 4.400057,10.88813 1.904024,0.29601 2.048026,-2.24001 2.872036,-3.43203 C 100.4996,111.9399 106.81167,99.651742 111.69174,86.771563 116.3638,75.99541 122.86788,65.595271 124.5879,53.819115 c -0.464,-8.240104 -9.78412,-10.040128 -16.44821,-9.760116 -0.0319,-1.296019 -0.064,-2.584041 -0.08,-3.88005 z"
     id="path6"
     style="stroke-width:0.800009" /><path
     fill="#000000"
     d="m 61.107086,53.035162 c 8.088105,-2.912044 17.144221,-3.592051 25.368327,-0.77602 14.648187,4.632059 25.184327,19.168249 25.216327,34.512446 -4.88007,12.880174 -11.19214,25.168332 -16.416215,37.912492 -0.82401,1.19202 -0.968011,3.72805 -2.872036,3.43204 -2.160028,-3.30403 -3.264042,-7.14409 -4.400056,-10.88814 0.392005,-8.88811 0.072,-17.784228 0.256003,-26.672346 0.04,-4.800054 -0.208002,-10.232133 -3.79205,-13.864179 -3.880048,-4.24005 -10.528135,-4.880053 -15.536199,-2.376031 -3.904051,2.512039 -7.08809,6.600088 -6.928089,11.45615 -0.072,15.392196 0.06401,30.792396 -0.032,46.184606 -0.112002,1.11201 -0.256003,2.21603 -0.416005,3.32004 -7.888101,0.184 -15.784203,0.152 -23.672305,0 -0.280003,-14.63219 0.112002,-29.27239 -0.192003,-43.904571 -0.112,-4.672064 0.800011,-9.288119 1.47202,-13.88818 2.98404,-10.976136 11.216146,-20.488258 21.944284,-24.448307 z"
     id="path8"
     style="stroke-width:0.800009" /><path
     fill="#000000"
     d="m 134.44403,56.059193 c 16.2322,-5.600075 33.60044,-3.936048 50.44065,-3.760046 0.248,7.920098 0.176,15.856209 0.0319,23.784303 -11.42414,0.248004 -22.85629,-0.01597 -34.28044,0.07997 -5.01606,0.168005 -10.52013,2.616038 -12.49616,7.520092 -3.07203,7.856112 -3.04803,17.896238 3.00804,24.352328 4.09605,4.32804 10.49613,3.13603 15.8402,3.23204 9.29612,0.13599 18.60824,-0.32001 27.89636,0.232 0.24801,7.92009 0.17601,15.85621 0.0319,23.77631 -9.56013,0.27999 -19.12824,-0.0879 -28.69637,0.184 -10.69614,0.216 -22.04828,-2.54403 -29.87239,-10.24814 -7.28808,-6.60008 -11.46414,-16.21621 -11.84815,-26.000328 2.42404,-7.296103 6.05608,-14.104181 9.09613,-21.144268 3.52804,-7.376098 6.32007,-15.152202 10.84813,-22.00829 z"
     id="path10"
     style="stroke-width:0.800009" /><path
     fill="#000000"
     d="m 105.22268,126.99965 c 2.30403,-4.85607 3.87206,-10.13614 7.2241,-14.43218 0.64,10.40812 0.49601,20.88026 0.128,31.29639 -4.81606,0.25601 -9.65612,0.24001 -14.472186,-0.04 1.648022,-5.89607 4.704066,-11.23214 7.120086,-16.82421 z"
     id="path12"
     style="stroke-width:0.800009" /><path
     fill="#404080"
     d="m 97.821445,152.34074 c 28.879095,-0.10195 57.766495,-0.10195 86.637265,0 0.20789,3.59798 0.20789,7.20108 0,10.79907 -28.87077,0.10706 -57.75817,0.11217 -86.628949,0 -0.20788,-3.59799 -0.20788,-7.20109 -0.0083,-10.79907 z"
     id="path14"
     style="fill:#0066e3;fill-opacity:1;stroke-width:0.650979" /><path
     class="cls-1"
     d="m 21.823542,142.74447 25.069523,15.06506 -25.213881,17.36529 9.336371,7.00574 31.666202,-20.63568 v -7.47787 L 31.387258,135.06319 Z"
     id="path870-3-2-2"
     style="fill:#0066e3;fill-opacity:1;stroke-width:0.865542"
     sodipodi:nodetypes="cccccccc" /></svg>
