<?xml version="1.0" encoding="UTF-8" standalone="no"?>
<svg
   width="352.3769"
   height="331.3319"
   fill="none"
   version="1.1"
   viewBox="0 0 352.3769 331.3319"
   id="svg30"
   sodipodi:docname="zsh_icon.svg"
   inkscape:version="1.1.2 (b8e25be833, 2022-02-05)"
   xmlns:inkscape="http://www.inkscape.org/namespaces/inkscape"
   xmlns:sodipodi="http://sodipodi.sourceforge.net/DTD/sodipodi-0.dtd"
   xmlns="http://www.w3.org/2000/svg"
   xmlns:svg="http://www.w3.org/2000/svg"
   xmlns:rdf="http://www.w3.org/1999/02/22-rdf-syntax-ns#"
   xmlns:cc="http://creativecommons.org/ns#"
   xmlns:dc="http://purl.org/dc/elements/1.1/">
  <defs
     id="defs34" />
  <sodipodi:namedview
     id="namedview32"
     pagecolor="#ffffff"
     bordercolor="#666666"
     borderopacity="1.0"
     inkscape:pageshadow="2"
     inkscape:pageopacity="0.0"
     inkscape:pagecheckerboard="0"
     showgrid="false"
     inkscape:zoom="1.8289531"
     inkscape:cx="204.76195"
     inkscape:cy="255.88409"
     inkscape:window-width="1920"
     inkscape:window-height="1017"
     inkscape:window-x="-8"
     inkscape:window-y="-8"
     inkscape:window-maximized="1"
     inkscape:current-layer="svg30" />
  <title
     id="title2">Z shell vertical colour logo</title>
  <desc
     id="desc4">Unix shell</desc>
  <g
     transform="translate(-227.082,-238.082)"
     stroke-linecap="round"
     id="g20">
    <g
       stroke="#f15a24"
       stroke-linejoin="round"
       id="g14">
      <path
         d="M 320.736,337.539 262.538,406.85"
         stroke-width="6.26753"
         id="path6" />
      <circle
         cx="277.30099"
         cy="353.08099"
         r="12.0128"
         stroke-width="9.78818"
         id="circle8" />
      <circle
         cx="305.776"
         cy="391.34399"
         r="12.0128"
         stroke-width="9.78818"
         id="circle10" />
      <path
         d="M 386.371,405.116 H 344.812"
         stroke-width="6.26753"
         id="path12" />
    </g>
    <path
       d="m 355.11442,560.338 -75.00342,0 C 255.749,560.338 236,540.589 236,516.227 V 291.111 C 236,266.749 255.749,247 280.111,247 h 246.32 c 24.361,0 44.11,19.749 44.11,44.111 v 269.227"
       stroke="#000000"
       stroke-width="17.8359"
       id="path16"
       sodipodi:nodetypes="cssssssc" />
    <path
       d="m 240.818,308.383 322.381,-10e-4"
       stroke="#000000"
       stroke-width="17.8359"
       id="path18" />
  </g>
  <g
     fill="#000000"
     id="g28"
     transform="matrix(1.3019046,0,0,1.3019046,-106.35348,-100.03066)">
    <path
       d="m 243.189,322.097 c 0,-2.435 -0.967,-4.771 -2.689,-6.494 -1.723,-1.722 -4.059,-2.689 -6.494,-2.689 -0.071,0 -0.139,0.009 -0.209,0.01 h -20.643 c -0.173,0 -0.344,-0.042 -0.498,-0.124 -0.153,-0.081 -0.284,-0.199 -0.381,-0.343 -0.098,-0.144 -0.158,-0.309 -0.177,-0.482 -0.018,-0.172 0.006,-0.347 0.071,-0.508 l 30.191,-75.273 c 0.496,-1.238 0.681,-2.578 0.539,-3.903 -0.141,-1.325 -0.606,-2.596 -1.353,-3.7 -0.747,-1.104 -1.753,-2.008 -2.93,-2.633 -1.177,-0.625 -2.49,-0.952 -3.823,-0.952 h -31.82 c -0.18,-0.011 -0.358,-0.027 -0.541,-0.027 -1.175,0 -2.339,0.231 -3.426,0.681 -1.086,0.45 -2.072,1.109 -2.904,1.94 -0.831,0.832 -1.49,1.818 -1.94,2.904 -0.45,1.086 -0.681,2.25 -0.681,3.426 v 0.003 c -0.001,1.176 0.23,2.34 0.68,3.426 0.449,1.086 1.109,2.073 1.94,2.904 0.831,0.831 1.818,1.49 2.905,1.939 1.086,0.45 2.25,0.68 3.426,0.679 0.141,0 0.277,-0.014 0.416,-0.021 h 16.489 c 0.181,0 0.36,0.045 0.52,0.129 0.159,0.085 0.296,0.208 0.398,0.358 0.101,0.15 0.164,0.323 0.184,0.503 0.019,0.18 -0.006,0.362 -0.073,0.53 l -26.18,65.382 c -0.466,1.163 -0.705,2.405 -0.705,3.658 v 8.018 c 0,2.61 1.037,5.114 2.883,6.96 1.846,1.846 4.349,2.883 6.96,2.883 h 30.687 c 1.205,0 2.399,-0.237 3.513,-0.698 1.113,-0.462 2.125,-1.138 2.977,-1.99 0.853,-0.852 1.529,-1.864 1.99,-2.978 0.461,-1.113 0.699,-2.307 0.698,-3.512 V 322.1 Z"
       id="path22" />
    <path
       d="m 296.336,247.767 c 0.064,-3.494 -0.264,-6.984 -0.978,-10.405 -0.559,-2.883 -1.677,-5.18 -3.354,-6.892 -1.583,-1.802 -3.819,-3.063 -6.706,-3.784 -2.795,-0.81 -6.381,-1.216 -10.758,-1.216 -4.192,0 -8.992,0.406 -11.88,1.216 -2.615,0.618 -4.994,1.98 -6.846,3.919 -1.676,1.892 -2.887,4.46 -3.632,7.703 -0.746,3.153 -1.118,7.162 -1.118,12.027 0,4.684 0.046,8.468 0.139,11.351 0.122,2.358 0.402,4.706 0.839,7.027 0.351,1.534 0.965,2.997 1.816,4.324 0.802,1.144 1.74,2.188 2.794,3.108 1.463,1.285 3.055,2.417 4.751,3.378 1.863,1.081 3.772,2.117 5.728,3.108 1.956,0.992 3.819,2.027 5.589,3.108 1.668,0.937 3.216,2.072 4.611,3.379 0.552,0.597 1.066,1.229 1.537,1.891 0.339,0.4 0.603,0.858 0.779,1.352 0.161,0.441 0.296,0.891 0.404,1.348 0.153,0.712 0.225,1.438 0.214,2.165 0.093,1.081 0.14,2.568 0.14,4.46 0.039,2.574 -0.101,5.147 -0.419,7.702 -0.09,1.456 -0.471,2.88 -1.118,4.189 -0.492,0.849 -1.292,1.478 -2.236,1.757 -0.931,0.27 -4.151,0.405 -5.549,0.405 -1.131,0.022 -2.26,-0.115 -3.353,-0.405 -0.88,-0.397 -1.612,-1.059 -2.096,-1.892 -0.552,-1.295 -0.928,-2.659 -1.117,-4.054 -0.21,-2.242 -0.303,-4.493 -0.28,-6.744 0,-0.251 -0.013,-0.502 -0.039,-0.752 h -0.056 c -0.257,-1.792 -1.155,-3.433 -2.529,-4.619 -1.375,-1.187 -3.133,-1.84 -4.952,-1.84 -1.819,0 -3.577,0.653 -4.951,1.84 -1.374,1.186 -2.272,2.827 -2.529,4.619 h -0.044 c -0.03,0.275 -0.043,0.551 -0.041,0.827 0.001,0.064 0.002,0.126 0.002,0.19 0,0.019 -0.003,0.037 -0.003,0.056 0,0.032 0.005,0.062 0.005,0.093 0.023,1.775 0.048,3.368 0.048,4.168 0,5.315 0.373,9.639 1.118,12.973 0.838,3.242 2.142,5.81 3.912,7.702 1.833,1.837 4.163,3.104 6.706,3.649 3.247,0.783 6.581,1.146 9.92,1.081 4.472,0 10.253,-0.406 13.233,-1.217 2.82,-0.706 5.326,-2.321 7.126,-4.594 1.863,-2.252 3.167,-5.36 3.912,-9.324 0.838,-4.054 1.258,-9.234 1.258,-15.54 0,-4.595 -0.14,-8.288 -0.42,-11.081 -0.083,-2.345 -0.507,-4.667 -1.257,-6.892 -0.542,-1.624 -1.45,-3.103 -2.655,-4.324 -1.217,-1.237 -2.577,-2.325 -4.052,-3.243 -1.349,-0.849 -2.749,-1.616 -4.191,-2.297 -1.584,-0.901 -3.26,-1.757 -5.03,-2.568 -1.77,-0.901 -3.446,-1.802 -5.03,-2.703 -1.405,-0.865 -2.758,-1.813 -4.052,-2.837 -0.604,-0.493 -1.165,-1.035 -1.676,-1.622 -0.405,-0.617 -0.69,-1.305 -0.839,-2.027 -0.216,-1.024 -0.356,-2.063 -0.419,-3.108 v -5.135 c -0.025,-1.941 0.068,-3.881 0.279,-5.811 0.108,-1.178 0.44,-2.324 0.979,-3.378 0.474,-0.751 1.227,-1.286 2.095,-1.486 0.839,-0.271 3.171,-0.406 4.475,-0.406 2.98,0 4.843,0.856 5.588,2.568 0.59,1.082 0.922,2.283 0.973,3.513 0.031,0.984 0.046,2.263 0.05,3.604 h 0.053 c 0,0.018 -0.003,0.036 -0.003,0.054 0,1.998 0.797,3.914 2.216,5.326 1.419,1.413 3.343,2.206 5.35,2.206 2.006,0 3.931,-0.793 5.35,-2.206 1.418,-1.412 2.216,-3.328 2.216,-5.326 0,-0.018 -0.003,-0.035 -0.003,-0.054 h 0.003 c 10e-4,-1.501 0.003,-2.847 0.003,-3.604 z"
       id="path24" />
    <path
       d="m 352.275,233.852 c 0.006,-1.227 -0.243,-2.443 -0.733,-3.568 -0.49,-1.126 -1.209,-2.137 -2.112,-2.969 -0.902,-0.832 -1.968,-1.466 -3.13,-1.863 -1.162,-0.396 -2.393,-0.547 -3.616,-0.44 -1.223,0.106 -2.41,0.466 -3.486,1.056 -1.076,0.591 -2.017,1.4 -2.763,2.375 -0.745,0.975 -1.28,2.095 -1.568,3.288 -0.289,1.193 -0.326,2.433 -0.108,3.641 v 31.461 c 0,0.522 -0.208,1.023 -0.577,1.392 -0.369,0.37 -0.87,0.577 -1.392,0.577 h -10.916 c -0.522,0 -1.023,-0.207 -1.392,-0.577 -0.369,-0.369 -0.577,-0.87 -0.577,-1.392 V 234.05 c 0,-0.033 -0.004,-0.066 -0.005,-0.099 0.001,-0.033 0.005,-0.066 0.005,-0.099 0,-2.341 -0.93,-4.587 -2.585,-6.242 -1.656,-1.656 -3.901,-2.586 -6.243,-2.586 -2.341,0 -4.586,0.93 -6.242,2.586 -1.656,1.655 -2.586,3.901 -2.586,6.242 0,0.033 0.005,0.066 0.005,0.099 10e-4,0.033 -0.005,0.066 -0.005,0.099 v 88.421 l 10e-4,0.017 -10e-4,0.016 c 0,2.341 0.93,4.587 2.586,6.242 1.656,1.656 3.901,2.586 6.242,2.586 2.342,0 4.587,-0.93 6.243,-2.586 1.655,-1.655 2.585,-3.901 2.585,-6.242 l -10e-4,-0.016 10e-4,-0.017 v -35.025 c 0,-0.522 0.208,-1.023 0.577,-1.392 0.369,-0.369 0.87,-0.577 1.392,-0.577 h 10.916 c 0.522,0 1.023,0.208 1.392,0.577 0.369,0.369 0.577,0.87 0.577,1.392 v 33.505 c -0.229,1.269 -0.176,2.573 0.155,3.82 0.331,1.246 0.933,2.404 1.762,3.392 0.83,0.987 1.866,1.78 3.036,2.322 1.17,0.542 2.446,0.82 3.735,0.814 0.012,0 0.023,-0.002 0.035,-0.002 0.012,0 0.023,0.002 0.035,0.002 1.15,0 2.289,-0.227 3.352,-0.667 1.062,-0.44 2.028,-1.085 2.841,-1.898 0.813,-0.813 1.458,-1.779 1.898,-2.842 0.441,-1.062 0.667,-2.201 0.667,-3.351 V 233.98 c 0,-0.022 -0.003,-0.042 -0.003,-0.064 0,-0.021 0.003,-0.042 0.003,-0.064 z"
       id="path26" />
  </g>
  <metadata
     id="metadata851">
    <rdf:RDF>
      <cc:Work
         rdf:about="">
        <dc:title>Z shell vertical colour logo</dc:title>
      </cc:Work>
    </rdf:RDF>
  </metadata>
</svg>
