<?xml version="1.0" encoding="UTF-8" standalone="no"?>
<svg
   id="Layer_1"
   data-name="Layer 1"
   viewBox="0 0 204.59 204.59"
   version="1.1"
   sodipodi:docname="connectionsCategory_icon-dark.svg"
   inkscape:version="1.4 (86a8ad7, 2024-10-11)"
   xml:space="preserve"
   xmlns:inkscape="http://www.inkscape.org/namespaces/inkscape"
   xmlns:sodipodi="http://sodipodi.sourceforge.net/DTD/sodipodi-0.dtd"
   xmlns="http://www.w3.org/2000/svg"
   xmlns:svg="http://www.w3.org/2000/svg"
   xmlns:rdf="http://www.w3.org/1999/02/22-rdf-syntax-ns#"
   xmlns:cc="http://creativecommons.org/ns#"
   xmlns:dc="http://purl.org/dc/elements/1.1/"><sodipodi:namedview
     id="namedview1"
     pagecolor="#ffffff"
     bordercolor="#000000"
     borderopacity="0.25"
     inkscape:showpageshadow="2"
     inkscape:pageopacity="0.0"
     inkscape:pagecheckerboard="0"
     inkscape:deskcolor="#d1d1d1"
     inkscape:zoom="2.7891646"
     inkscape:cx="98.595831"
     inkscape:cy="115.98455"
     inkscape:window-width="1920"
     inkscape:window-height="1009"
     inkscape:window-x="-8"
     inkscape:window-y="-8"
     inkscape:window-maximized="1"
     inkscape:current-layer="Layer_1" /><defs
     id="defs856"><style
       id="style854">.cls-1{fill:#ac55ff;}</style><style
       id="style2411">.cls-1{fill:#606161;}</style></defs><title
     id="title858">identity</title><path
     class="cls-1"
     d="M 168.53751,15.715416 H 37.076569 A 22.392455,22.392455 0 0 0 14.684114,38.107871 V 169.55159 a 22.392455,22.392455 0 0 0 22.392455,22.39245 H 168.53751 a 22.392455,22.392455 0 0 0 22.39246,-22.39245 V 38.090646 a 22.392455,22.392455 0 0 0 -22.39246,-22.37523 z m 12.05748,153.836174 a 12.057476,12.057476 0 0 1 -12.05748,12.05747 H 37.076569 A 12.057476,12.057476 0 0 1 25.019094,169.55159 V 38.090646 A 12.057476,12.057476 0 0 1 37.076569,26.03317 H 168.53751 a 12.057476,12.057476 0 0 1 12.05748,12.057476 z"
     id="path860"
     style="fill:#e8e8e8;fill-opacity:1;stroke-width:0.861248" /><metadata
     id="metadata932"><rdf:RDF><cc:Work
         rdf:about=""><dc:title>identity</dc:title></cc:Work></rdf:RDF></metadata><rect
     style="fill:#bfbfbf;fill-opacity:1;stroke-width:4.71402"
     id="rect1"
     width="130.2903"
     height="16.287502"
     x="38.743805"
     y="51.056995" /><rect
     style="fill:#bfbfbf;fill-opacity:1;stroke-width:4.30891"
     id="rect1-9"
     width="108.85865"
     height="16.287502"
     x="38.409683"
     y="80.544037" /><rect
     style="fill:#bfbfbf;fill-opacity:1;stroke-width:4.65319"
     id="rect1-8"
     width="126.94962"
     height="16.287502"
     x="37.778194"
     y="109.23331" /><rect
     style="fill:#bfbfbf;fill-opacity:1;stroke-width:4.41658"
     id="rect1-9-2"
     width="114.36689"
     height="16.287502"
     x="37.68644"
     y="138.36113" /></svg>
