<?xml version="1.0" encoding="UTF-8" standalone="no"?>
<svg
   id="Layer_1"
   data-name="Layer 1"
   viewBox="0 0 204.59 204.59"
   version="1.1"
   sodipodi:docname="desktopApplication_icon-dark.svg"
   inkscape:version="1.4 (86a8ad7, 2024-10-11)"
   xml:space="preserve"
   xmlns:inkscape="http://www.inkscape.org/namespaces/inkscape"
   xmlns:sodipodi="http://sodipodi.sourceforge.net/DTD/sodipodi-0.dtd"
   xmlns="http://www.w3.org/2000/svg"
   xmlns:svg="http://www.w3.org/2000/svg"
   xmlns:rdf="http://www.w3.org/1999/02/22-rdf-syntax-ns#"
   xmlns:cc="http://creativecommons.org/ns#"
   xmlns:dc="http://purl.org/dc/elements/1.1/"><sodipodi:namedview
     id="namedview1"
     pagecolor="#000000"
     bordercolor="#000000"
     borderopacity="0.25"
     inkscape:showpageshadow="2"
     inkscape:pageopacity="0.0"
     inkscape:pagecheckerboard="0"
     inkscape:deskcolor="#d1d1d1"
     inkscape:zoom="1"
     inkscape:cx="104"
     inkscape:cy="-51.5"
     inkscape:window-width="1920"
     inkscape:window-height="1009"
     inkscape:window-x="-8"
     inkscape:window-y="-8"
     inkscape:window-maximized="1"
     inkscape:current-layer="Layer_1" /><defs
     id="defs856"><style
       id="style854">.cls-1{fill:#ac55ff;}</style><style
       id="style2411">.cls-1{fill:#606161;}</style></defs><title
     id="title858">identity</title><metadata
     id="metadata932"><rdf:RDF><cc:Work
         rdf:about=""><dc:title>identity</dc:title></cc:Work></rdf:RDF></metadata><rect
     style="fill:#0066e3;fill-opacity:1;stroke:none;stroke-width:4.74555"
     id="rect1"
     width="121.50683"
     height="21.030029"
     x="14.080875"
     y="94.474846" /><path
     d="M 177.95845,49.696965 H 60.617329 c 0,-11.767445 9.567305,-21.33475 21.33475,-21.33475 h 96.006371 c 11.76745,0 21.33475,9.567305 21.33475,21.33475 v 64.004265 c 0,11.76745 -9.5673,21.33475 -21.33475,21.33475 h -16.00106 v -21.33475 h 16.00106 z M 7.2804476,92.366468 c 0,-11.767448 9.5673054,-21.334741 21.3347504,-21.334741 h 96.006372 c 11.76746,0 21.33475,9.567293 21.33475,21.334741 v 64.004262 c 0,11.76744 -9.56729,21.33475 -21.33475,21.33475 H 28.615198 c -11.767445,0 -21.3347504,-9.56731 -21.3347504,-21.33475 z M 28.615198,105.70069 c 0,4.43363 3.566908,8.00054 8.00053,8.00054 h 80.005312 c 4.43363,0 8.00053,-3.56691 8.00053,-8.00054 0,-4.43362 -3.5669,-8.000531 -8.00053,-8.000531 H 36.615728 c -4.433622,0 -8.00053,3.566911 -8.00053,8.000531 z"
     id="path1"
     style="fill:#f38626;fill-opacity:1;stroke-width:0.333356" /><path
     d="M 177.9574,49.697613 H 60.616282 c 0,-11.767445 9.567306,-21.33475 21.33475,-21.33475 H 177.9574 c 11.76745,0 21.33475,9.567305 21.33475,21.33475 v 64.004267 c 0,11.76744 -9.5673,21.33475 -21.33475,21.33475 h -16.00106 v -21.33475 h 16.00106 z"
     style="fill:#38ad35;fill-opacity:1;stroke-width:0.333356"
     id="path1-9" /></svg>
