<?xml version="1.0" encoding="UTF-8" standalone="no"?>
<svg
   id="Layer_1"
   data-name="Layer 1"
   viewBox="0 0 204.59 204.59"
   version="1.1"
   sodipodi:docname="passwordManagerIdentity_icon-dark.svg"
   inkscape:version="1.4 (86a8ad7, 2024-10-11)"
   xml:space="preserve"
   xmlns:inkscape="http://www.inkscape.org/namespaces/inkscape"
   xmlns:sodipodi="http://sodipodi.sourceforge.net/DTD/sodipodi-0.dtd"
   xmlns="http://www.w3.org/2000/svg"
   xmlns:svg="http://www.w3.org/2000/svg"
   xmlns:rdf="http://www.w3.org/1999/02/22-rdf-syntax-ns#"
   xmlns:cc="http://creativecommons.org/ns#"
   xmlns:dc="http://purl.org/dc/elements/1.1/"><sodipodi:namedview
     id="namedview1"
     pagecolor="#000000"
     bordercolor="#000000"
     borderopacity="0.25"
     inkscape:showpageshadow="2"
     inkscape:pageopacity="0.0"
     inkscape:pagecheckerboard="0"
     inkscape:deskcolor="#d1d1d1"
     inkscape:zoom="0.9861186"
     inkscape:cx="-92.280989"
     inkscape:cy="-28.901189"
     inkscape:window-width="1920"
     inkscape:window-height="1009"
     inkscape:window-x="-8"
     inkscape:window-y="-8"
     inkscape:window-maximized="1"
     inkscape:current-layer="Layer_1" /><defs
     id="defs856"><style
       id="style854">.cls-1{fill:#ac55ff;}</style><style
       id="style2411">.cls-1{fill:#606161;}</style></defs><title
     id="title858">identity</title><path
     class="cls-1"
     d="M332.32,153.7H179.68a26,26,0,0,0-26,26V332.32a26,26,0,0,0,26,26H332.32a26,26,0,0,0,26-26V179.68A26,26,0,0,0,332.32,153.7Zm14,178.62a14,14,0,0,1-14,14H179.68a14,14,0,0,1-14-14V179.68a14,14,0,0,1,14-14H332.32a14,14,0,0,1,14,14Z"
     id="path860"
     style="fill:#e7e7e7;fill-opacity:1"
     transform="translate(-153.7 -153.7)" /><metadata
     id="metadata932"><rdf:RDF><cc:Work
         rdf:about=""><dc:title>identity</dc:title></cc:Work></rdf:RDF></metadata><path
     d="M 154.40997,126.10572 A 53.816715,53.816715 0 0 0 142.81203,108.91027 54.051264,54.051264 0 0 0 125.61659,97.312331 c -0.0576,-0.0288 -0.11512,-0.0432 -0.17268,-0.072 8.96466,-6.47527 14.7924,-17.02277 14.7924,-28.92289 0,-19.71361 -15.97234,-35.68595 -35.68595,-35.68595 -19.713613,0 -35.685953,15.97234 -35.685953,35.68595 0,11.90012 5.82775,22.44762 14.79241,28.93728 -0.0576,0.0288 -0.11512,0.0432 -0.17268,0.072 -6.44649,2.719609 -12.23107,6.619159 -17.19545,11.597939 a 54.051264,54.051264 0 0 0 -11.59793,17.19545 53.485756,53.485756 0 0 0 -4.2449,19.87189 1.1511597,1.1511597 0 0 0 1.15116,1.17994 h 8.6337 c 0.63313,0 1.13677,-0.50363 1.15116,-1.12238 0.28779,-11.10869 4.74853,-21.5123 12.63397,-29.39774 8.15885,-8.15884 18.99414,-12.64838 30.534513,-12.64838 11.54038,0 22.37567,4.48954 30.53451,12.64838 7.88545,7.88544 12.34619,18.28905 12.63398,29.39774 0.0144,0.63314 0.51802,1.12238 1.15116,1.12238 h 8.6337 a 1.1511597,1.1511597 0 0 0 1.15116,-1.17994 c -0.1439,-6.87818 -1.56846,-13.56929 -4.2449,-19.88628 z M 104.55036,93.067431 c -6.604773,0 -12.821043,-2.57572 -17.497623,-7.25231 -4.67659,-4.67659 -7.25231,-10.89285 -7.25231,-17.49763 0,-6.60478 2.57572,-12.82104 7.25231,-17.49762 4.67658,-4.67659 10.89285,-7.25231 17.497623,-7.25231 6.60478,0 12.82104,2.57572 17.49763,7.25231 4.67659,4.67658 7.25231,10.89284 7.25231,17.49762 0,6.60478 -2.57572,12.82104 -7.25231,17.49763 -4.67659,4.67659 -10.89285,7.25231 -17.49763,7.25231 z"
     id="path1"
     style="fill:#815fff;fill-opacity:1;stroke-width:0.143895" /><g
     style="fill:#815fff;fill-opacity:1"
     id="g4"
     transform="matrix(0.13150071,0,0,0.13150071,74.619926,118.87331)"><g
       id="g3"
       style="fill:#815fff;fill-opacity:1">
	<g
   id="g2"
   style="fill:#815fff;fill-opacity:1">
		<path
   d="M 472.615,274.117 V 198.4 l -55.335,-9.255 c -4.332,-16.64 -10.929,-32.492 -19.692,-47.458 L 430.178,96 376.615,42.437 330.929,75.028 C 315.963,66.265 300.012,59.668 283.372,55.336 L 274.215,0 H 198.4 l -9.157,55.335 c -16.64,4.332 -32.591,10.929 -47.557,19.692 L 96,42.437 42.437,96 75.028,141.686 c -8.763,14.966 -15.36,30.818 -19.692,47.458 L 0,198.4 v 75.717 l 55.335,9.255 c 4.332,16.64 10.929,32.591 19.692,47.557 L 42.436,376.615 96,430.178 141.686,397.489 c 14.966,8.862 30.917,15.458 47.557,19.791 l 9.157,55.335 h 75.815 l 9.157,-55.335 c 16.64,-4.332 32.591,-10.929 47.557,-19.791 l 45.686,32.689 53.563,-53.563 -32.591,-45.686 c 8.763,-14.966 15.36,-30.917 19.692,-47.557 z m -236.307,60.652 c -54.252,0 -98.462,-44.209 -98.462,-98.462 0,-54.351 44.209,-98.462 98.462,-98.462 54.253,0 98.462,44.111 98.462,98.462 -10e-4,54.253 -44.21,98.462 -98.462,98.462 z"
   id="path1-5"
   style="fill:#815fff;fill-opacity:1" />
	</g>
</g></g></svg>
