<?xml version="1.0" encoding="UTF-8" standalone="no"?>
<svg
   id="Layer_1"
   data-name="Layer 1"
   viewBox="0 0 204.68 206.97"
   version="1.1"
   sodipodi:docname="scriptSource_icon-dark.svg"
   inkscape:version="1.4 (86a8ad7, 2024-10-11)"
   xml:space="preserve"
   xmlns:inkscape="http://www.inkscape.org/namespaces/inkscape"
   xmlns:sodipodi="http://sodipodi.sourceforge.net/DTD/sodipodi-0.dtd"
   xmlns="http://www.w3.org/2000/svg"
   xmlns:svg="http://www.w3.org/2000/svg"
   xmlns:rdf="http://www.w3.org/1999/02/22-rdf-syntax-ns#"
   xmlns:cc="http://creativecommons.org/ns#"
   xmlns:dc="http://purl.org/dc/elements/1.1/"><sodipodi:namedview
     id="namedview15"
     pagecolor="#ffffff"
     bordercolor="#666666"
     borderopacity="1.0"
     inkscape:pageshadow="2"
     inkscape:pageopacity="0.0"
     inkscape:pagecheckerboard="0"
     showgrid="false"
     inkscape:zoom="4.1406966"
     inkscape:cx="45.523741"
     inkscape:cy="67.259214"
     inkscape:window-width="1920"
     inkscape:window-height="1057"
     inkscape:window-x="1912"
     inkscape:window-y="-8"
     inkscape:window-maximized="1"
     inkscape:current-layer="Layer_1"
     inkscape:showpageshadow="2"
     inkscape:deskcolor="#d1d1d1" /><defs
     id="defs4"><style
       id="style2">.cls-1{fill:#ac55ff;}</style></defs><title
     id="title6">shell environment v2</title><path
     class="cls-1"
     d="M215.09,242.25l0,0a4.28,4.28,0,0,0-6,6.05l23.32,23.34-23.3,23.32a4.28,4.28,0,0,0-.47,6,4.29,4.29,0,0,0,6,.46,4.56,4.56,0,0,0,.44-.44l26.36-26.36a4.29,4.29,0,0,0,0-6Z"
     transform="translate(-161.92 -143.11)"
     id="path8"
     style="fill:#f5f5f5;fill-opacity:1" /><path
     class="cls-1"
     d="M306.76,294.67H252.1a4.28,4.28,0,1,0,0,8.56h54.66a4.28,4.28,0,0,0,0-8.56Z"
     transform="translate(-161.92 -143.11)"
     id="path10"
     style="fill:#f5f5f5;fill-opacity:1" /><path
     class="cls-1"
     d="M 366.61,182.47 C 366.602,164.84511 354.88087,149.37302 337.91641,144.59348 320.95195,139.81394 302.87784,146.89161 293.67,161.92 h -108 c -13.13752,0.0165 -23.78347,10.66248 -23.8,23.8 v 140.56 c 0.0165,13.13752 10.66248,23.78347 23.8,23.8 h 140.61 c 13.13752,-0.0165 23.78347,-10.66248 23.8,-23.8 V 214.52 c 10.3743,-7.37675 16.53432,-19.32041 16.53,-32.05 z m -196.13,3.23 c 0.011,-8.41225 6.82775,-15.22898 15.24,-15.24 h 104 c -3.22639,10.13871 -2.22401,21.15049 2.78,30.54 h -122 z m 171,140.56 c -0.011,8.41225 -6.82775,15.22898 -15.24,15.24 H 185.72 c -8.41225,-0.011 -15.22898,-6.82775 -15.24,-15.24 V 209.52 h 128.19 c 10.99401,11.62865 27.93766,15.43652 42.85,9.63 z"
     id="path12"
     style="fill:#f1f1f1;fill-opacity:1"
     sodipodi:nodetypes="csccccccccccccccccccccccc"
     transform="translate(-161.92,-143.11)" /><metadata
     id="metadata923"><rdf:RDF><cc:Work
         rdf:about=""><dc:title>shell environment v2</dc:title></cc:Work></rdf:RDF></metadata><path
     d="m 168.38378,16.364302 c 0,-1.73044 -1.39805,-3.12848 -3.12849,-3.12848 -1.73044,0 -3.12848,1.39804 -3.12848,3.12848 v 20.59912 l -4.04748,-4.04748 c -1.22206,-1.22206 -3.2067,-1.22206 -4.42876,0 -1.22207,1.22207 -1.22207,3.2067 0,4.42876 l 9.38545,9.38546 c 1.22207,1.22206 3.2067,1.22206 4.42876,0 l 9.38546,-9.38546 c 1.22206,-1.22206 1.22206,-3.20669 0,-4.42876 -1.22207,-1.22206 -3.2067,-1.22206 -4.42876,0 l -4.0377,4.04748 z m -18.77091,28.15636 c -3.45111,0 -6.25697,2.80586 -6.25697,6.256973 v 3.128485 c 0,3.451109 2.80586,6.256968 6.25697,6.256968 h 31.28484 c 3.45111,0 6.25697,-2.805859 6.25697,-6.256968 v -3.128485 c 0,-3.451113 -2.80586,-6.256973 -6.25697,-6.256973 h -4.58518 l -5.53351,5.533511 c -3.05027,3.050272 -8.00696,3.050272 -11.05724,0 l -5.52373,-5.533511 z m 29.7206,5.474852 c 3.12848,0 3.12848,4.692727 0,4.692727 -3.12848,0 -3.12848,-4.692727 0,-4.692727 z"
     id="path1"
     style="fill:#151515;fill-opacity:1;stroke:none;stroke-width:0.0977651;stroke-opacity:1"
     sodipodi:nodetypes="ssscssccsssccssssssssscsccssss" /></svg>
