<?xml version="1.0" encoding="UTF-8" standalone="no"?>
<svg
   id="Layer_1"
   data-name="Layer 1"
   viewBox="0 0 149.88004 149.87825"
   version="1.1"
   sodipodi:docname="service_icon-dark.svg"
   inkscape:version="1.1.2 (b8e25be833, 2022-02-05)"
   inkscape:export-filename="C:\Projects\xpipe\xpipex\ext\proc\src\main\resources\io\xpipe\ext\proc\resources\img\ssh_icon-16.png"
   inkscape:export-xdpi="7.5076985"
   inkscape:export-ydpi="7.5076985"
   width="149.88004"
   height="149.87825"
   xmlns:inkscape="http://www.inkscape.org/namespaces/inkscape"
   xmlns:sodipodi="http://sodipodi.sourceforge.net/DTD/sodipodi-0.dtd"
   xmlns:xlink="http://www.w3.org/1999/xlink"
   xmlns="http://www.w3.org/2000/svg"
   xmlns:svg="http://www.w3.org/2000/svg"
   xmlns:rdf="http://www.w3.org/1999/02/22-rdf-syntax-ns#"
   xmlns:cc="http://creativecommons.org/ns#"
   xmlns:dc="http://purl.org/dc/elements/1.1/">
  <sodipodi:namedview
     id="namedview873"
     pagecolor="#ffffff"
     bordercolor="#666666"
     borderopacity="1.0"
     inkscape:pageshadow="2"
     inkscape:pageopacity="0"
     inkscape:pagecheckerboard="false"
     showgrid="false"
     inkscape:zoom="1.0472164"
     inkscape:cx="26.260093"
     inkscape:cy="42.016149"
     inkscape:window-width="1920"
     inkscape:window-height="1017"
     inkscape:window-x="-8"
     inkscape:window-y="-8"
     inkscape:window-maximized="1"
     inkscape:current-layer="Layer_1" />
  <defs
     id="defs856">
    <style
       id="style854">.cls-1{fill:#ac55ff;}</style>
  </defs>
  <title
     id="title858">ssh draft</title>
  <metadata
     id="metadata932">
    <rdf:RDF>
      <cc:Work
         rdf:about="">
        <dc:title>ssh draft</dc:title>
      </cc:Work>
    </rdf:RDF>
  </metadata>
  <g
     style="fill:#2bb628;fill-opacity:1;fill-rule:evenodd;stroke:#000000;stroke-linecap:round;stroke-linejoin:round"
     id="g951"
     transform="matrix(1.8734782,0,0,1.8734782,-0.93633228,-0.9367391)">
    <use
       xlink:href="#A"
       x="0.5"
       y="0.5"
       id="use922"
       width="100%"
       height="100%"
       style="fill:#2bb628;fill-opacity:1" />
    <symbol
       id="A"
       overflow="visible"
       style="fill:#2bb628;fill-opacity:1">
      <g
         fill="#0078d7"
         stroke="none"
         id="g934"
         style="fill:#2bb628;fill-opacity:1">
        <path
           d="M 61.112,67.724 C 54.781,72.602 47.355,74.919 39.969,74.919 29.418,74.919 19.272,70.244 12.292,61.138 0.685,45.894 3.606,24.106 18.825,12.439 25.156,7.561 32.582,5.244 39.968,5.244 c 10.551,0 20.697,4.675 27.677,13.78 11.647,15.244 8.685,37.073 -6.534,48.699 z M 71.704,15.65 C 63.871,5.285 51.818,0 40.009,0 31.568,0 22.883,2.764 15.7,8.252 -1.832,21.789 -5.241,46.789 8.314,64.35 16.146,74.716 27.956,80 40.009,80 48.45,80 57.135,77.236 64.318,71.748 81.85,58.415 85.218,33.211 71.704,15.65 Z"
           id="path924"
           style="fill:#2bb628;fill-opacity:1" />
        <path
           d="m 21.884,47.494 c -2.313,-2.317 -4.221,-4.431 -5.722,-6.545 -3.368,6.789 -4.423,13.781 -4.87,19.472 0.406,0.407 0.406,0.854 0.649,1.26 1.704,2.114 3.815,4.228 5.722,5.732 0,-4.675 0.406,-12.317 4.221,-19.919 z M 34.182,20.61 c -3.165,2.114 -6.331,4.878 -9.74,8.455 -1.705,1.911 -3.368,3.821 -4.667,5.732 1.461,2.317 3.165,4.675 5.479,6.992 1.704,-2.317 3.815,-4.878 6.331,-7.195 3.165,-2.967 6.128,-5.488 9.091,-7.398 l -6.493,-6.585 z m 33.136,-2.046 c -1.461,-1.911 -2.962,-3.577 -4.87,-5.081 -5.276,-0.854 -14.001,-0.691 -23.497,4.39 2.111,2.317 4.423,4.675 6.534,6.545 12.662,-6.951 21.833,-5.854 21.833,-5.854 z M 16.309,40.658 19.677,34.723 C 14.199,26.024 14.402,18.829 15.01,15.455 13.752,16.918 12.25,18.422 11.195,19.886 10.18,24.805 10.18,32 16.308,40.658 Z"
           id="path926"
           style="fill:#2bb628;fill-opacity:1" />
        <path
           d="m 31.922,47.946 -6.534,-5.935 -3.368,5.488 c 1.704,1.707 3.815,3.618 6.128,5.285 14.163,11.219 28.326,12.276 36.362,12.276 0.406,0 2.962,-3.374 4.423,-5.488 -3.652,0.854 -18.871,2.764 -37.011,-11.626 z"
           id="path928"
           style="fill:#2bb628;fill-opacity:1" />
        <path
           d="m 16.261,40.703 c 1.461,2.114 3.368,4.431 5.722,6.545 0.852,-1.911 1.907,-3.618 3.368,-5.488 -2.313,-2.317 -4.018,-4.675 -5.479,-6.992 -1.461,2.114 -2.557,4.024 -3.612,5.935 z M 40.663,27.224 c 13.108,12.073 28.326,22.236 32.344,25 a 16.32,16.32 0 0 0 0.852,-2.968 C 69.638,46.085 58.641,37.63 45.33,24.256 44.031,25.11 42.327,25.679 40.663,27.224 Z M 39.166,17.781 C 36,14.407 32.632,10.626 29.223,6.805 c -1.461,0.407 -3.165,1.057 -4.667,1.911 2.313,4.024 5.925,8.171 9.496,11.992 1.948,-1.057 3.449,-2.073 5.113,-2.927 z"
           id="path930"
           style="fill:#2bb628;fill-opacity:1" />
        <path
           d="m 39.159,17.77 c -1.704,0.854 -3.652,1.667 -5.113,2.927 l 6.615,6.504 4.829,-2.764 z m 16.93,17.956 c -3.166,2.561 -3.815,7.195 -1.461,10.366 2.557,3.374 7.183,3.821 10.551,1.463 3.165,-2.561 3.815,-7.195 1.461,-10.569 -2.516,-3.171 -7.142,-3.781 -10.551,-1.26 z m -15.42,18.763 c -2.963,2.317 -3.612,6.789 -1.258,9.756 2.313,2.967 6.777,3.618 9.74,1.26 2.962,-2.317 3.612,-6.545 1.258,-9.756 -2.313,-3.171 -6.574,-3.577 -9.74,-1.26 z M 14.8,32.451 c -4.667,3.618 -5.479,10.163 -1.907,14.837 3.612,4.675 10.145,5.488 14.812,1.91 C 32.372,45.62 33.184,39.036 29.612,34.361 26,29.686 19.223,28.833 14.8,32.451 Z"
           id="path932"
           style="fill:#2bb628;fill-opacity:1" />
      </g>
    </symbol>
  </g>
</svg>
