<?xml version="1.0" encoding="UTF-8" standalone="no"?>
<svg
   id="Layer_1"
   data-name="Layer 1"
   viewBox="0 0 204.59 204.59"
   version="1.1"
   sodipodi:docname="syncedIdentity_icon-dark.svg"
   inkscape:version="1.4 (86a8ad7, 2024-10-11)"
   xml:space="preserve"
   xmlns:inkscape="http://www.inkscape.org/namespaces/inkscape"
   xmlns:sodipodi="http://sodipodi.sourceforge.net/DTD/sodipodi-0.dtd"
   xmlns="http://www.w3.org/2000/svg"
   xmlns:svg="http://www.w3.org/2000/svg"
   xmlns:rdf="http://www.w3.org/1999/02/22-rdf-syntax-ns#"
   xmlns:cc="http://creativecommons.org/ns#"
   xmlns:dc="http://purl.org/dc/elements/1.1/"><sodipodi:namedview
     id="namedview1"
     pagecolor="#000000"
     bordercolor="#000000"
     borderopacity="0.25"
     inkscape:showpageshadow="2"
     inkscape:pageopacity="0.0"
     inkscape:pagecheckerboard="0"
     inkscape:deskcolor="#d1d1d1"
     inkscape:zoom="0.9861186"
     inkscape:cx="-125.74552"
     inkscape:cy="84.675413"
     inkscape:window-width="1920"
     inkscape:window-height="1009"
     inkscape:window-x="-8"
     inkscape:window-y="-8"
     inkscape:window-maximized="1"
     inkscape:current-layer="Layer_1" /><defs
     id="defs856"><style
       id="style854">.cls-1{fill:#ac55ff;}</style><style
       id="style2411">.cls-1{fill:#606161;}</style></defs><title
     id="title858">identity</title><path
     class="cls-1"
     d="M332.32,153.7H179.68a26,26,0,0,0-26,26V332.32a26,26,0,0,0,26,26H332.32a26,26,0,0,0,26-26V179.68A26,26,0,0,0,332.32,153.7Zm14,178.62a14,14,0,0,1-14,14H179.68a14,14,0,0,1-14-14V179.68a14,14,0,0,1,14-14H332.32a14,14,0,0,1,14,14Z"
     id="path860"
     style="fill:#e7e7e7;fill-opacity:1"
     transform="translate(-153.7 -153.7)" /><metadata
     id="metadata932"><rdf:RDF><cc:Work
         rdf:about=""><dc:title>identity</dc:title></cc:Work></rdf:RDF></metadata><path
     d="M 154.40997,126.10572 A 53.816715,53.816715 0 0 0 142.81203,108.91027 54.051264,54.051264 0 0 0 125.61659,97.312331 c -0.0576,-0.0288 -0.11512,-0.0432 -0.17268,-0.072 8.96466,-6.47527 14.7924,-17.02277 14.7924,-28.92289 0,-19.71361 -15.97234,-35.68595 -35.68595,-35.68595 -19.713613,0 -35.685953,15.97234 -35.685953,35.68595 0,11.90012 5.82775,22.44762 14.79241,28.93728 -0.0576,0.0288 -0.11512,0.0432 -0.17268,0.072 -6.44649,2.719609 -12.23107,6.619159 -17.19545,11.597939 a 54.051264,54.051264 0 0 0 -11.59793,17.19545 53.485756,53.485756 0 0 0 -4.2449,19.87189 1.1511597,1.1511597 0 0 0 1.15116,1.17994 h 8.6337 c 0.63313,0 1.13677,-0.50363 1.15116,-1.12238 0.28779,-11.10869 4.74853,-21.5123 12.63397,-29.39774 8.15885,-8.15884 18.99414,-12.64838 30.534513,-12.64838 11.54038,0 22.37567,4.48954 30.53451,12.64838 7.88545,7.88544 12.34619,18.28905 12.63398,29.39774 0.0144,0.63314 0.51802,1.12238 1.15116,1.12238 h 8.6337 a 1.1511597,1.1511597 0 0 0 1.15116,-1.17994 c -0.1439,-6.87818 -1.56846,-13.56929 -4.2449,-19.88628 z M 104.55036,93.067431 c -6.604773,0 -12.821043,-2.57572 -17.497623,-7.25231 -4.67659,-4.67659 -7.25231,-10.89285 -7.25231,-17.49763 0,-6.60478 2.57572,-12.82104 7.25231,-17.49762 4.67658,-4.67659 10.89285,-7.25231 17.497623,-7.25231 6.60478,0 12.82104,2.57572 17.49763,7.25231 4.67659,4.67658 7.25231,10.89284 7.25231,17.49762 0,6.60478 -2.57572,12.82104 -7.25231,17.49763 -4.67659,4.67659 -10.89285,7.25231 -17.49763,7.25231 z"
     id="path1"
     style="fill:#1da3e0;fill-opacity:1;stroke-width:0.143895" /><path
     style="fill:#1da3e0;fill-opacity:1;fill-rule:nonzero;stroke:none;stroke-width:0.687719"
     d="M 135.18604,147.86716 107.5948,120.27799 a 4.0699131,4.0699131 0 0 0 -5.75757,0 l -5.727324,5.73007 7.266434,7.26643 a 4.834655,4.834655 0 0 1 4.9722,1.1581 4.8374059,4.8374059 0 0 1 1.1478,5.00453 l 7.00579,7.0037 a 4.8332798,4.8332798 0 0 1 5.00521,1.14986 4.8415325,4.8415325 0 0 1 0,6.84762 4.8484095,4.8484095 0 0 1 -6.85311,0 4.8442835,4.8442835 0 0 1 -1.05083,-5.26791 l -6.53333,-6.53127 V 159.83 a 4.8415325,4.8415325 0 0 1 1.27915,7.76435 4.8415325,4.8415325 0 0 1 -6.84759,0 4.8415325,4.8415325 0 0 1 0,-6.84833 4.8552865,4.8552865 0 0 1 1.58449,-1.05837 V 142.3386 a 4.8477216,4.8477216 0 0 1 -2.62707,-6.35037 l -7.164658,-7.16602 -18.920482,18.91566 a 4.0747272,4.0747272 0 0 0 0,5.75688 l 27.5926,27.5926 a 4.0747272,4.0747272 0 0 0 5.75622,0 l 27.46331,-27.46332 a 4.0747272,4.0747272 0 0 0 0,-5.75687"
     id="path2"
     clip-path="url(#clipPath2)" /></svg>
