<svg height="355" viewBox="12.405 7.085 638.036 79.976" width="2500" xmlns="http://www.w3.org/2000/svg"><path d="m277.997 59.117h40.652l-21.495-34.583-39.451 62.527h-17.955l47.985-75.108c2.087-3.035 5.564-4.868 9.42-4.868 3.73 0 7.208 1.77 9.231 4.741l48.176 75.235h-17.955l-8.472-13.972h-41.158zm186.506 13.972v-65.246h-15.236v71.631c0 1.96.759 3.857 2.213 5.311s3.414 2.276 5.563 2.276h69.482l8.977-13.972zm-252.067-11.696c14.794 0 26.806-11.95 26.806-26.743 0-14.794-12.012-26.807-26.806-26.807h-66.656v79.218h15.23v-65.246h50.414c7.081 0 12.771 5.754 12.771 12.835 0 7.08-5.69 12.834-12.771 12.834l-42.953-.063 45.482 39.64h22.128l-30.6-25.668zm-160.416 25.667c-21.868 0-39.615-17.702-39.615-39.577s17.747-39.64 39.615-39.64h46.045c21.875 0 39.609 17.765 39.609 39.64s-17.733 39.577-39.608 39.577zm45.02-13.972c14.17 0 25.644-11.443 25.644-25.605s-11.474-25.668-25.642-25.668h-44.003c-14.162 0-25.643 11.507-25.643 25.669s11.481 25.605 25.643 25.605zm289.32 13.972c-21.876 0-39.64-17.702-39.64-39.577s17.764-39.64 39.64-39.64h54.687l-8.915 13.971h-44.761c-14.162 0-25.668 11.507-25.668 25.669s11.506 25.605 25.668 25.605h54.94l-8.977 13.972zm186.316-13.972c-11.696 0-21.622-7.84-24.657-18.65h65.12l8.977-13.973h-74.096c3.035-10.748 12.96-18.65 24.657-18.65h44.698l9.041-13.973h-54.75c-21.876 0-39.64 17.766-39.64 39.64 0 21.876 17.764 39.578 39.64 39.578h46.974l8.977-13.972zm61.896-56.836a6.934 6.934 0 0 1 6.954-6.955c3.92 0 7.018 3.098 7.018 6.955 0 3.92-3.098 7.018-7.018 7.018-3.857 0-6.954-3.098-6.954-7.018zm6.954 8.977c4.931 0 8.915-3.983 8.915-8.914s-3.984-8.914-8.915-8.914c-4.868 0-8.85 3.983-8.85 8.914s3.982 8.914 8.85 8.914zm-.822-14.225c1.391 0 1.96.064 2.593.316 1.77.57 1.96 2.15 1.96 2.782 0 .127 0 .443-.127.822-.063.38-.316 1.138-1.201 1.707-.127.063-.19.127-.443.253l2.276 4.11h-2.213l-2.023-3.794h-1.39v3.794h-1.96v-9.99zm.696 4.552c.632-.063 1.264-.063 1.643-.632.19-.253.254-.506.254-.885 0-.506-.317-.948-.76-1.201-.442-.19-.884-.19-1.833-.19h-.568v2.908z" fill="#f80000"/></svg>