<?xml version="1.0" encoding="utf-8"?>
<!-- Generator: Adobe Illustrator 27.7.0, SVG Export Plug-In . SVG Version: 6.00 Build 0)  -->
<svg version="1.1" id="Layer_1" xmlns="http://www.w3.org/2000/svg" xmlns:xlink="http://www.w3.org/1999/xlink" x="0px" y="0px"
	 viewBox="0 0 512 512" style="enable-background:new 0 0 512 512;" xml:space="preserve">
<style type="text/css">
	.st0{fill:#FFFFFF;}
</style>
<g>
	<polygon class="st0" points="263,151.8 199.4,287 309.1,246.7 	"/>
	<polygon class="st0" points="182.2,323.4 161.5,367.4 335.3,300.6 321.6,272.3 	"/>
	<path class="st0" d="M378.5,0h-245C59.8,0,0,59.8,0,133.5v245C0,452.2,59.8,512,133.5,512h245c73.7,0,133.5-59.8,133.5-133.5v-245
		C512,59.8,452.2,0,378.5,0z M406.2,388.6l-19.5,9.5c-1.7,0.8-3.7,0.1-4.5-1.6l-34.3-70.4l-229.8,88.3c-1.7,0.7-3.7-0.2-4.3-1.9
		v-0.1l-1.6-4.3c-0.4-0.8-0.3-1.7,0-2.5l32.2-68.3L116,347.7c-1.7,0.6-3.7-0.2-4.3-2l-7.4-20.3c-0.6-1.7,0.2-3.7,2-4.3l55.2-20.3
		l95-201.6c0.6-1.2,1.7-1.9,3-1.9h6.3c1.3,0,2.4,0.7,3,1.9L362,290.3l29.2-11.2c1.7-0.7,3.7,0.2,4.3,1.9l7.8,20.2
		c0.7,1.7-0.2,3.7-1.9,4.3l-26.9,10.4l33.2,68.2C408.5,385.8,407.8,387.8,406.2,388.6z"/>
</g>
</svg>
