<?xml version="1.0" encoding="utf-8"?>
<!-- Generator: Adobe Illustrator 27.7.0, SVG Export Plug-In . SVG Version: 6.00 Build 0)  -->
<svg version="1.1" id="Layer_1" xmlns="http://www.w3.org/2000/svg" xmlns:xlink="http://www.w3.org/1999/xlink" x="0px" y="0px"
	 viewBox="0 0 512 512" style="enable-background:new 0 0 512 512;" xml:space="preserve">
<style type="text/css">
	.st0{fill:#001E36;}
	.st1{fill:#31A8FF;}
</style>
<g id="Layer_2_1_">
	<path class="st0" d="M90.7,6.4h330.7C471.5,6.4,512,46.9,512,97V415c0,50.1-40.5,90.7-90.7,90.7H90.7C40.5,505.6,0,465.1,0,415V97
		C0,46.9,40.5,6.4,90.7,6.4z"/>
	<g id="Lr">
		<path class="st1" d="M268.8,359.2H133.6c-2.4,0-3.4-1.2-3.4-3.8V137.4c-0.2-1.4,0.8-2.8,2.4-3c0.2,0,0.4,0,0.8,0h41.7
			c1-0.2,2.4,0.6,2.4,1.8c0,0.2,0,0.4,0,0.6v179.1h98.6c2.2,0,2.8,1,2.4,3l-6.2,37.1c0,1-0.6,2-1.2,2.6
			C270.4,359,269.6,359.2,268.8,359.2z"/>
		<path class="st1" d="M302.9,188.5h37.3c2.2,0,3.8,1.4,4.4,3.4c0.8,1.4,1.4,3.2,1.8,5c0.4,2.2,0.8,4.4,1,6.6c0.2,2.4,0.4,5,0.4,7.6
			c6.4-7.4,14.2-13.6,22.8-18.4c9.8-5.4,20.8-8,31.8-7.6c1.4-0.2,2.8,0.8,3,2.4c0,0.2,0,0.4,0,0.8V230c0,1.8-1,2.4-3.4,2.4
			c-13.8-0.8-27.8,1.8-40.3,7.2c-4.2,2-8.4,4.4-11.6,8v108.8c0,2.2-0.8,3-2.8,3h-41.5c-1.8,0.2-3.2-0.8-3.4-2.6c0-0.2,0-0.6,0-0.8
			V237.8c0-5.2,0-10.4-0.2-16c-0.2-5.6-0.2-11.2-0.4-16.6c-0.2-4.8-0.6-9.4-1.2-14.2c-0.2-1,0.4-2.2,1.4-2.4
			C302.3,188.3,302.5,188.3,302.9,188.5L302.9,188.5z"/>
	</g>
</g>
</svg>
