<?xml version="1.0" encoding="utf-8"?>
<!-- Generator: Adobe Illustrator 27.7.0, SVG Export Plug-In . SVG Version: 6.00 Build 0)  -->
<svg version="1.1" id="Layer_1" xmlns="http://www.w3.org/2000/svg" xmlns:xlink="http://www.w3.org/1999/xlink" x="0px" y="0px"
	 viewBox="0 0 512 512" style="enable-background:new 0 0 512 512;" xml:space="preserve">
<style type="text/css">
	.st0{fill:#FFFFFF;}
</style>
<path class="st0" d="M421.3,6.4H90.7C40.5,6.4,0,46.9,0,97V415c0,50.1,40.5,90.7,90.7,90.7h330.7c50.1,0,90.7-40.5,90.7-90.7V97
	C512,46.9,471.5,6.4,421.3,6.4z M278.6,318.9l-6.2,37.1c0,1-0.6,2-1.2,2.6c-0.8,0.4-1.6,0.6-2.4,0.6H133.6c-2.4,0-3.4-1.2-3.4-3.8
	V137.4c-0.2-1.4,0.8-2.8,2.4-3c0.2,0,0.4,0,0.8,0h41.7c1-0.2,2.4,0.6,2.4,1.8c0,0.2,0,0.4,0,0.6v179.1h98.6
	C278.4,315.9,279,316.9,278.6,318.9z M405.4,188.3V230c0,1.8-1,2.4-3.4,2.4c-13.8-0.8-27.8,1.8-40.3,7.2c-4.2,2-8.4,4.4-11.6,8
	v108.8c0,2.2-0.8,3-2.8,3h-41.5c-1.8,0.2-3.2-0.8-3.4-2.6c0-0.2,0-0.6,0-0.8V237.8c0-5.2,0-10.4-0.2-16c-0.2-5.6-0.2-11.2-0.4-16.6
	c-0.2-4.8-0.6-9.4-1.2-14.2c-0.2-1,0.4-2.2,1.4-2.4c0.4-0.4,0.6-0.4,1-0.2h37.3c2.2,0,3.8,1.4,4.4,3.4c0.8,1.4,1.4,3.2,1.8,5
	c0.4,2.2,0.8,4.4,1,6.6c0.2,2.4,0.4,5,0.4,7.6c6.4-7.4,14.2-13.6,22.8-18.4c9.8-5.4,20.8-8,31.8-7.6c1.4-0.2,2.8,0.8,3,2.4
	C405.4,187.7,405.4,187.9,405.4,188.3z"/>
</svg>
