<?xml version="1.0" encoding="utf-8"?>
<!-- Generator: Adobe Illustrator 28.2.0, SVG Export Plug-In . SVG Version: 6.00 Build 0)  -->
<svg version="1.1" id="Layer_1" xmlns="http://www.w3.org/2000/svg" xmlns:xlink="http://www.w3.org/1999/xlink" x="0px" y="0px"
	 viewBox="0 0 512 512" style="enable-background:new 0 0 512 512;" xml:space="preserve">
<style type="text/css">
	.st0{fill:#FFFFFF;filter:url(#Adobe_OpacityMaskFilter);}
	.st1{mask:url(#mask1_2489_28656_00000091732884012206396100000001372559129126732445_);}
	.st2{fill:#F3AC49;}
	.st3{fill:#F4ACBA;}
	.st4{fill:#F18928;stroke:#F18928;stroke-width:0.7554;}
	.st5{fill:#66BCB2;stroke:#66BCB2;stroke-width:0.7554;}
	.st6{fill:#7EBAD2;stroke:#7EBAD2;stroke-width:0.7554;}
	.st7{fill:#6E9ACA;stroke:#87ADD4;stroke-width:0.7554;}
	.st8{fill:#F3AC49;stroke:#F3AC49;stroke-width:0.7554;}
	.st9{fill:#FBCF67;stroke:#FBCF67;stroke-width:0.7554;stroke-linejoin:bevel;}
	.st10{fill:#8D888C;stroke:#8D888C;stroke-width:0.7554;}
	.st11{fill:#5E5F97;stroke:#5E5F97;stroke-width:0.7554;}
	.st12{fill:#F6A453;}
	.st13{fill:#87ADD4;}
	.st14{fill:#DDC4E0;}
	.st15{fill:#F8C9D1;stroke:#F8C9D1;stroke-width:0.7554;}
	.st16{fill:#9B8BC1;}
	.st17{fill:#7EBAD2;}
	.st18{fill:#513F92;stroke:#513F92;stroke-width:0.7554;}
	.st19{fill:#B59259;stroke:#B59259;stroke-width:0.7554;}
	.st20{fill:#F8B570;}
	.st21{fill:#7D89C1;stroke:#7D89C1;stroke-width:0.7554;}
	.st22{fill:#7D89C1;}
</style>
<defs>
	<filter id="Adobe_OpacityMaskFilter" filterUnits="userSpaceOnUse" x="-1" y="0" width="520" height="520">
		<feColorMatrix  type="matrix" values="1 0 0 0 0  0 1 0 0 0  0 0 1 0 0  0 0 0 1 0"/>
	</filter>
</defs>
<mask maskUnits="userSpaceOnUse" x="-1" y="0" width="520" height="520" id="mask1_2489_28656_00000091732884012206396100000001372559129126732445_">
	<path class="st0" d="M507.9,187.2c0.3,0.2,0.2,0.6,0,0.7c-2.2,1.1-4.3,2.2-6.5,3.2c-17,7.5-33.2,16.3-47,28.9
		c-4.7,4.3-9,9.2-13,14.2c-3.8,4.7-5.1,10.6-5,16.6c0,0.9,0.1,1.9,0.3,2.9c0.2,1,1,1.8,2.1,1.8h18.4c1.1,0,2.1,0.9,2,2.1
		c-0.4,7.3-3,13.7-7.5,19c-6.1,7.2-8.5,15.7-11.4,24.3c-4.2,12.5-4.4,25.4-3.5,38.2c1,13.3-3.9,23.9-11.9,33.9
		c-6.2,7.8-12.3,15.7-18.5,23.5c-6.4,8-8.7,17.1-8.1,27.2c0.9,13,3.9,25.6,6.8,38.3c2.3,10.4,3.1,21.1,4.5,31.6c0,0.3,0,0.6,0,0.9
		c-0.1,1.5-1.7,2.4-3,1.8c-2-0.8-3.9-1.5-5.5-2.7c-7.9-5.7-12.8-13.7-16.8-22.4c-1.9-4.2-3.8-8.4-5.7-12.5c-0.2-0.5-0.6-0.9-1.2-1.1
		c-5.4-2.1-7-3.5-8.5-7.1c-0.3-0.8-1.1-1.3-1.9-1.3c-8.4-0.1-16.7,0.8-24.7,3.5c-14.4,5-28.7,9.9-42.9,15.4
		c-15.8,6.1-32.1,7.4-48.5,5.4c-15.7-1.9-31.3-5.3-46.9-8c-5.2-0.9-10.6-1.4-15.8-2.2c-1.3-0.2-2.6-0.7-3.8-1.3
		c-9.5-4.6-18.8-9.5-28.4-13.9c-10.4-4.8-18.4-1.4-22.2,9.3c-1.6,4.4-2.5,9-4,13.3c-2.3,6.7-4.8,13.4-7.5,19.9
		c-1.9,4.5-5.3,6.9-10.4,7.7c-1.3,0.2-2.3-0.9-2.2-2.2c0.3-4.2,0.6-8.2,1.3-12.2c1.5-8.5,3.9-16.8,4.8-25.4
		c0.9-8.5,0.5-17.2,0.4-25.8c0-1.2-1.2-2.7-2.1-3.7c-7-7.1-14-14.3-21.2-21.2c-7.6-7.4-15-15-20.1-24.3c-4.6-8.4-11.8-9.7-19.8-8.1
		c-12.9,2.5-25.6,5.8-38.4,8.8c-3.2,0.7-6.4,1.6-9.5,2.4c-0.4,0.1-0.8-0.1-1-0.4c-0.2-0.3-0.1-0.7,0.1-1c1.5-1.6,3-3.1,4.7-4.6
		c9.7-8,19.6-15.8,29.1-24c5.7-4.9,11-10.2,16.3-15.6c1.1-1.1,1.7-3.1,1.6-4.7c-2.6-38.2,6.2-74.1,22.1-108.6
		c6.7-14.5,13.6-28.8,20.6-43.6c0.4-0.8,1.2-1.2,2-1.3c5.7-0.5,6.7-6.5,9-10.8c1.5-2.9,2.7-5.9,3.9-9.1c0.5-1.4,2.3-1.7,3.3-0.7
		c0.8,0.7,1.5,1.4,2.3,2.2c0.8,0.8,2.1,0.8,2.9,0c2-1.8,4-3.5,5.5-5.6c6-8.5,11.8-17.1,17.2-25.9c2.5-4.1,5.3-6.6,10.1-8
		c15.9-4.5,31.7-9.4,47.5-14.2c0.5-0.2,1-0.4,1.2-0.9c0-0.1,0-0.1,0.1-0.2c1.2-9.4,1.9-10.2,11.4-11.8c10.1-1.7,16.5-7.1,18.2-17.3
		c1.7-10.2,2.2-20.6,3.2-31c0.8-8.7,1.4-17.4,2.5-26.1c0.6-5.2,2-7.8,5.3-9.9c1-0.6,2.3-0.2,2.8,0.9c1.8,3.5,3.7,6.8,4.9,10.5
		c3.3,10.3,5.9,20.8,9.2,31.1c2.8,8.9,5.7,17.7,9,26.3c4.5,11.6,13.7,16.5,25.7,16.7c4.7,0.1,9.3,0.2,14,0c5.7-0.2,11,1,15.6,4.3
		c12.3,8.9,24.8,17.6,36.7,27c8.9,7.1,17,15.1,25.9,23.2c0.5,0.5,1.3,0.6,2,0.5c4.3-0.7,8.1,1.5,11.9,4.1c0.8,0.6,1.1,1.7,0.7,2.6
		c-1.2,2.4-2.4,4.8-3.6,7.4c-0.5,1.1,0,2.4,1.1,2.9c8.8,4,15,11,22,17.1c2.5,2.2,5.1,4.1,7.7,6.1c4.9,3.8,10.3,4.5,16.3,3
		c11.5-2.9,23.1-5.9,34.7-8.4c9-2,17.5-3,27-1.7C507.8,187.2,507.9,187.2,507.9,187.2z M264.1,437.9
		C264.1,437.9,264.1,437.9,264.1,437.9c9.5,0,18.9,0.1,28.3-0.1c2.5,0,5.3-0.4,7.5-1.5c11.8-6,23.7-11.8,35.2-18.5
		c11.8-6.9,12.8-10.3,9.3-23.6c-3.2-12-9-22.9-15.1-33.5c-7.3-12.6-13-25.5-13.3-40.4c-0.2-7.8-2.4-15.3-6.2-22.3
		c-3.3-6.2-8.4-9.2-15.3-9.2c-19-0.2-37.7,2-55.8,8.2c-46.9,15.9-75.4,54.4-76.2,102.5c-0.2,11.6,4.8,19.5,15,24.1
		c7.1,3.2,14.5,5.9,21.9,8.2C220.5,438.1,242.2,438.7,264.1,437.9C264.1,437.9,264.1,437.9,264.1,437.9z M96.9,314
		C96.9,314,96.9,314,96.9,314c1.9-0.2,3.3-0.2,4.6-0.4c16.6-2.7,32.1-8.8,47.1-16.2c4.7-2.4,9.2-5.4,13.5-8.5c1.6-1.2,3-3.3,3.7-5.2
		c12.6-39,25-78.1,37.4-117.1c0.1-0.4,0.2-0.8,0.3-1.3c0.2-1.1-0.5-2.2-1.6-2.4c-4.5-0.5-8.4,1-12.2,3.2
		c-14.5,8.6-28.1,18.6-40.4,30.1c-18,16.9-33.3,35.9-42.3,59.2C99.8,274.1,97.1,293.5,96.9,314C96.9,314,96.9,314,96.9,314z
		 M401.5,250C401.5,250,401.5,250,401.5,250c-1.3,0-2.5-0.2-3.7,0c-5.9,1.1-11.9,1.9-17.7,3.4c-12.5,3.1-24.5,7.6-35.8,14
		c-6.3,3.6-7.4,6-6.1,13.1c0.5,2.6,0.9,5.1,1.7,7.6c5,15.3,9.7,30.7,15.4,45.8c5,13.1,11.1,25.8,17,38.6c0.7,1.6,2,3,3.3,4.5
		c1,1.1,2.8,0.9,3.5-0.3c6.4-11.7,11.2-22.9,14.2-34.9c7.4-29.5,8.6-59.7,8.4-89.9C401.8,251.2,401.7,250.7,401.5,250
		C401.5,250,401.5,250,401.5,250z M206.9,268.8C206.9,268.8,206.9,268.8,206.9,268.8c0.9,0.1,1.5,0.3,2.2,0.3
		c13.3,0,26.5-0.9,39.4-4.3c8.8-2.3,17.1-5.6,24.7-10.7c5.9-4,8.6-9.5,7.6-16.5c-0.7-4.6-1.5-9.2-3-13.6
		c-7.3-21.3-18.9-40.6-30.1-59.9c-1.7-3-4.7-2.9-6.5,0c-0.9,1.5-1.7,3.1-2.3,4.8c-2.8,7.9-5.6,15.7-8.1,23.6
		c-7.8,24.6-15.5,49.2-23.3,73.8C207.3,267,207.1,267.8,206.9,268.8L206.9,268.8z M289.4,156.9C289.4,156.9,289.4,156.9,289.4,156.9
		l-1,1c-0.1,0.2-0.2,0.4-0.1,0.6c5.7,17.5,11.1,35.1,17.2,52.6c2.3,6.5,5.8,12.7,9.1,18.7c3.1,5.5,7.9,7.6,14.5,7
		c16.1-1.5,29.4-9.9,43-16.7c0.6-0.3,1.1-0.9,1.1-1.6c0.5-5.8-1.1-10.6-4.5-14.8c-2.3-2.9-4.6-5.8-7.3-8.3
		c-18.1-16.1-38.6-28.2-61.4-36.4C296.7,157.9,293,157.6,289.4,156.9C289.4,156.9,289.4,156.9,289.4,156.9z M126.3,389
		c0.5-0.2,0.9-0.7,1-1.2c3.6-12.6,7.2-25,10.6-37.5c0.4-1.6,0.6-3.3,0.7-5.1c0.1-1.3-1-2.4-2.2-2.3c-10.7,0.8-20.5,2.9-28.6,9.9
		c-3.1,2.7-5.7,6.1-4.9,10.3c1.9,10.2,6.2,19.2,15.4,25.1C120.7,389.7,123.3,390.3,126.3,389z"/>
</mask>
<g class="st1">
	<path class="st2" d="M192.4,408.6c-0.5,6.3-2.1,12.9-1.1,18.9c2.5,15.3-8.9,14-17.3,14.9c-9.2,0.9-16.9,10.1-27.2,4.9
		c0.5-0.6,0.8-1.1,1.3-1.8c12-8.2,18.5-23.2,34.3-27.2C185.4,417.6,185.3,408.4,192.4,408.6z"/>
	<path class="st3" d="M-0.9,259.6C-0.9,174.1-0.9,88.5-1,3c0-2.5,0.5-3,3-3c171.3,0.1,342.7,0.1,514,0c2.5,0,3,0.5,3,3
		c-0.1,171.3-0.1,342.7,0,514c0,2.5-0.5,3-3,3c-171.3-0.1-342.7-0.1-514,0c-2.5,0-3-0.5-3-3C-0.9,431.2-0.9,345.4-0.9,259.6z
		 M3.8,283.2c0,74.4-0.1,148.9-0.1,223.2c1.5,2.8-3.8,8.9,3.1,8.9c152.2,0.1,304.4,0.1,456.6,0.1c1.3,0,3.8-1.8,3.7-2.3
		c-2.7-11.8,4.7-11,12.5-10.7c8.4,0.4,16.9-0.1,25.4,0.1c3.1,0.1,3.8-0.8,3.8-3.8c-0.1-34.4-0.1-68.8-0.1-103.2
		c-0.1-129-0.1-257.9-0.1-386.9c-0.6-0.5-1.1-1.4-1.7-1.4c-15.6,0-31.2,0-46.8,0.2c-0.8,0-2.3,2.5-2.3,3.7
		c-0.1,43.8,0,87.5,0.6,131.2c0.1,10.5-5.6,14.6-13.8,17.1c-2.8,0.7-5.2,1.1-8,1.8c-10.5,0-21.4-3.3-25.9,12.4
		c-2.8,9.8-12,17.8-18.3,26.6c-3,2.2-5.7,4.9-8.9,6.5c-15,7.3-29.3-4.1-45.3-1.8c-17.7,2.5-29.4,7.3-29.9,26c0,0.9,9,18.8-7.7,8.5
		c-0.7-0.4-1.7,0-2.7,0c-12.1-8.1-26.7,0.2-39.1-5.9c-0.5-0.9-1-1.9-1.6-2.8c0.1-4.9,0.5-9.7,0.1-14.5c-0.7-6.8,0.3-10.6,8.7-9.2
		c5,0.9,13.1,2.5,15-3c6.6-20,16.6-38.2,25.1-57.2c4.9-11-6.5-21.5-7.8-32.7c-1.4-10.7-10.2-19.9-6.8-31.4
		c4.8-15.8,16.2-27.7,25.4-41c0.9-0.9,1.9-1.9,2.9-2.9c7.9-11.8,17.1-21.9,31.4-26.1c2.2-1.2,7,0.9,6.2-3.6c-0.6-3.9-4.7-1.9-7-1.9
		C239.2,7.4,127.9,7.6,16.6,7c-13-0.1-15,4.4-12.9,15c0,84.2,0,168.4,0,252.6C3.7,277.4,3.8,280.3,3.8,283.2z M388.8,70.7
		c-0.1,0-0.3,0-0.5,0c0-19.1,0-38.2,0-57.3c0-2.1,0.9-4.8-3.1-4.7c-4,0.1-2.8,2.9-2.8,4.9c-0.3,37.3-0.5,74.5-0.8,111.8
		c0,4.1,1.7,6.8,5.5,8.3c0.3,0.1,1.6-1.1,1.6-1.6C388.8,111.5,388.8,91.1,388.8,70.7z"/>
	<path class="st4" d="M508.5,8.8c0.1,129,0.1,257.9,0.1,386.9c0,34.4,0,68.8,0.1,103.2c0,3-0.7,3.9-3.8,3.8
		c-8.5-0.2-16.9,0.2-25.4-0.1c-7.8-0.4-15.3-1.2-12.5,10.7c0.1,0.5-2.4,2.3-3.7,2.3c-152.2,0.1-304.4,0.1-456.6-0.1
		c-7,0-1.7-6-3.1-8.9c0.8-0.8,1.6-1.6,2.3-2.4c7.9-8.8,15.8-17.6,23.7-26.4c28.1-0.4,56.3-0.6,84.4-1.9c3.3-0.1,4,10.4,8,1.5
		c1.4-3.1,3.9-5.5,5.9-8.3c-0.4,2-1.9,4.6-1.2,6c2.2,4,3.8-0.5,4.9-1.3c7-5.7,13.1,0.7,19,2.2c3.8,0.9,6.4,7.6,9.3,11.8
		c2.5,3.7,4.7,7.7,7,11.5c0.1-3.2,0.4-6.4,0.5-9.5c0.1-2.9-0.3-5.8,0.1-8.7c1.2-9.2-0.8-17.7,10.9-24.6c9.4-5.5,23.4-12.8,20.8-29.6
		c-1.1-7.1,0-14.5,0.1-21.9c7.3-5.2,14.6-10.5,21.9-15.8c10.2-8.8,22.1-14.5,34.9-18.4c0.4,0,0.7,0,1.1,0c0.6-0.2,1.2-0.5,1.8-0.7
		c14.4,1.5,12.7-10.4,15.2-18.6c18.5-7,39.6,6.5,57.4-7.3c4.9-3.8,11.5-5.9,15.5-10.3c6.7-7.4,13.7-13,23.9-14.7
		c5.7-0.9,14.8,2.8,16.4-4.5c1.7-7.6-1.3-16-2.3-24.2c3.5-4.4,6.9-8.6,10.4-13c2.9-9,8.8-2.1,13.1-2.3c14.6-0.7,16.9-14,23.7-22.4
		c12.6-15.5,20.1-34.1,26.3-52.6c5.9-17.5,0.4-36,0.4-54.2c0.1-44.5,0-89,0.1-133.5c0-1.2,0.6-2.4,0.9-3.6c0.9,0.4,1.7,0.8,2.5,1.2
		c-0.6,0.2-1.2,0.4-1.8,0.7c0.2,0.2,0.4,0.4,0.6,0.7c0.4-0.4,0.8-0.9,1.2-1.4C478,9.8,493.3,9.2,508.5,8.8z"/>
	<path class="st5" d="M3.5,274.5c0-84.2,0-168.4,0-252.6c0.4,0,0.8-0.1,1.2-0.1c44.2,0,88.3,0.4,132.5-0.3
		c12.1-0.2,20.4,3.1,28.5,11.9c7.7,8.3,17.4,14.7,26.3,21.9c7.8,6.9,4.2,17.1,4,24.4c-0.6,21.1-0.6,42.6-7.4,63.3
		c-1.7,5.2-1.5,11-3.2,16.2c-3.6,10.9,2.9,23-5.4,33.6c-6.7,8.5-11.4,18.6-17,28c-4.9,7.9-12.1,14.6-13.1,24.6
		c-0.5,0.1-1,0.2-1.5,0.4c-10.7-2.1-23.6,9.6-32.4-5.2c0,0-0.6,0.2-0.7,0.4c-2.6,8.2-11.2,8.5-16.8,9.9c-24.7,6.5-50.3,6.2-75.5,4.4
		c-16.3-1.2-21.4,3.9-18.4,19.2C4.3,274.5,3.9,274.5,3.5,274.5z"/>
	<path class="st6" d="M162.9,220.7c5.6-9.4,10.3-19.5,17-28c8.4-10.6,1.8-22.7,5.4-33.6c1.7-5.2,1.5-11,3.2-16.2
		c6.8-20.6,6.8-42.1,7.4-63.3c0.2-7.4,3.8-17.5-4-24.4c10.6,4.9,24.8-1.2,32.6,13.4c6.5,12.3,16.1-3.1,24.5-0.2
		c1.5-4.9,5.7-8.4,5.9-14.5c0.1-4.9,1.5-15.5,7.4-14c18.2,4.8,36.5-1.1,54.4,2.2c-9.2,13.2-20.7,25.1-25.4,41
		c-3.4,11.4,5.4,20.6,6.8,31.4c1.4,11.2,12.8,21.7,7.8,32.7c-8.6,19-18.5,37.3-25.1,57.2c-1.8,5.5-9.9,3.8-15,3
		c-8.5-1.5-9.4,2.3-8.7,9.2c0.4,4.8,0,9.7-0.1,14.5c-10.2-0.5-20.5-0.7-30.6-1.7c-3.1-0.3-6-2.3-8.9-3.6c1.5-2.9,0.1-7.5,5-8.4
		c0.5-0.1,1.4-1.9,1.2-2.3c-2.8-3.9-5.8-7.7-8.9-11.4c-0.1-0.1-1.8,0.9-2.5,1.6C199.2,220.5,184.1,230.3,162.9,220.7z"/>
	<path class="st7" d="M316.8,42.1c-17.9-3.2-36.2,2.6-54.4-2.2c-6-1.5-7.3,9.2-7.4,14c-0.2,6.2-4.4,9.6-5.9,14.5
		c-8.4-2.9-17.9,12.5-24.5,0.2c-7.8-14.6-22-8.6-32.6-13.4c-8.9-7.2-18.7-13.6-26.3-21.9c-8.1-8.8-16.5-12.1-28.5-11.9
		C93,22.3,48.9,21.9,4.7,21.9C7,17.8-0.4,9,9,9c109.6-0.4,219.2-0.3,328.8,0c4.4,0,8.8,2.7,13.2,4.1c-14.2,4.1-23.5,14.4-31.4,26.1
		C318.7,40.2,317.8,41.1,316.8,42.1z"/>
	<path class="st8" d="M303.6,315c0.7-7.5,4.4-11.2,12.3-11.8c8.3-0.6,3.1-8.4,5.2-12.6c5-9.8,8.4-20.6,7.9-32.1
		c3.2-1.2,6.6-1.9,9.4-3.6c9.9-6.1,16.9-15.3,29.6-18.8c7-2,14.1-1.5,20.6-3.7c12-4.1,11.4-17.1,16.7-26.1
		c6.5-5.2,9.5-12.4,13.3-19.7c3.5-6.6-1.8-19.2,11.5-19.9c3.9-0.2,5.4-2.2,6-5.5c2.8-0.7,5.6-1.4,8.3-2.1c6.5,32.1-7,58.3-30.6,76.2
		c-16.3,12.3-15.8,26.8-18.4,42.3c-3.5,4.4-6.9,8.6-10.4,13c-3.7,7-10.3,3.5-15.7,4.1c-4.8,0.6-9.6-0.8-14,2.9
		C340.6,310.3,323.4,316.6,303.6,315z"/>
	<path class="st9" d="M405.6,206.2c-5.3,8.9-4.8,22-16.8,26.2c-6.5,2.3-13.7,1.7-20.7,3.7c-12.7,3.5-19.8,12.7-29.6,18.8
		c-2.8,1.7-6.4,2.5-9.5,3.6c-10.4-6.3-20.8-12.8-31.2-19.1c0.9,0,2.2-0.4,2.8,0c16.1,9.9,7.5-7.6,7.5-8.5c0.6-18.7,12.3-23.5,30-26
		c16-2.3,30.2,9.1,45.3,1.8c3.3-1.6,6-4.3,8.9-6.5C396.8,202.2,401.3,204.3,405.6,206.2z"/>
	<path class="st10" d="M274.2,351.6c-2.6,8.3-0.9,20.1-15.3,18.6c-0.3-0.9-1.6,0.1-1.8,0.8c-0.4,0-0.9-0.3-1.3-0.3
		c-2.2-41.5-0.4-83.1-7.2-124.4c0.6-6.5,4.7-10.3,10.2-12.9c12.4,6.2,27-2.1,39.1,5.9c10.4,6.3,20.6,12.8,31.1,19.2
		c0.5,11.5-2.7,22.1-7.7,32c-2.2,4.2,3.1,12.1-5.2,12.7c-7.9,0.5-11.6,4.3-12.3,11.8C293.8,327.2,284,339.4,274.2,351.6z"/>
	<path class="st11" d="M3.5,274.5c0.4,0,0.7-0.1,1.1-0.1c44.6,1.6,89.2,3.7,133.7-1.4c-12.9,16.5-25.7,30.2-50.8,28
		c-27.1-2.3-54.7,0.9-82,1.7c-0.7-6.5-1.2-13.1-1.9-19.6C3.6,280.3,3.5,277.4,3.5,274.5z"/>
	<path class="st12" d="M395.6,277.6c2.6-15.5,2.1-30,18.4-42.3c23.5-17.9,37.1-44.1,30.5-76.2c8.2-2.5,13.6-6,13.4-16.5
		c-0.6-43.7-0.2-87.5-0.1-131.2c0-1.3,1.5-3.7,2.3-3.7c15.6-0.3,31.2-0.3,46.8-0.2c0.6,0,1.1,0.9,1.7,1.4
		c-15.3,0.4-30.5,0.9-45.7,1.4c-0.9-0.4-1.7-0.8-2.5-1.2c-0.3,1.2-0.9,2.4-0.9,3.6c-0.1,44.5,0,89-0.1,133.5
		c-0.1,18.1,5.5,36.7-0.4,54.2c-6.2,18.6-13.7,37.1-26.3,52.6c-6.8,8.4-9.2,21.9-23.7,22.4C404.4,275.5,398.5,268.6,395.6,277.6z"/>
	<path class="st13" d="M259,233.4c-5.4,2.7-9.7,6.8-10.4,13.2c-2.9,2-5.9,4-8.8,6c-14.5-0.4-29-0.9-43.5-1.4
		c-2.9-0.4-5.8-0.9-8.7-1.4c-12-6.9-25.1-3.5-37.8-4.5c0.9-10,8.1-16.7,13.1-24.6c21.1,9.5,36.2-0.3,49.5-15.5
		c0.7-0.7,2.4-1.7,2.5-1.6c3.1,3.7,6,7.5,8.9,11.4c0.2,0.4-0.6,2.1-1.2,2.3c-4.9,0.9-3.5,5.5-5,8.4c3,1.2,5.9,3.3,8.9,3.6
		c10.2,0.9,20.7,1,30.9,1.5C258,231.7,258.5,232.4,259,233.4z"/>
	<path class="st14" d="M388.9,70.6c0,20.5-0.1,41.5-0.2,62c0,0.6-1.3,1.8-1.6,1.6c-3.7-1.5-5.5-4.1-5.5-8.3
		c0.3-37.4,0.4-74.9,0.7-112.3c0-2-1.1-5,2.9-5c3.9-0.1,3.2,2.6,3.3,4.8c0,19.2-0.1,38-0.1,57.1C388.5,70.6,388.7,70.6,388.9,70.6z"
		/>
	<path class="st15" d="M405.4,206.4c-4.4-2-8.9-4.3-13.2-6.2c6.3-8.8,15.3-16.7,18.2-26.5c4.5-15.6,16-12.5,26.5-12.6
		c-0.7,3.3-2.6,5.5-6.5,5.7c-13.3,0.7-7.8,13.4-11.3,20C415.4,194.1,412,201.2,405.4,206.4z"/>
	<path class="st6" d="M351,13.1c-4.4-1.5-8.8-4.1-13.2-4.1C228.2,8.7,118.6,8.6,9,9c-9.4,0-2,8.8-4.3,12.9c-0.4,0-0.8,0.1-1.2,0.1
		C1.4,11.4,3.4,6.9,16.4,7C127.6,7.6,239,7.4,350.2,7.5c2.4,0,6.5-2,7,1.9C358.1,14,353.3,11.9,351,13.1z"/>
	<path class="st16" d="M3.6,283.2c0.7,6.5,1.2,13.1,1.9,19.6c-0.3,4.4-0.9,8.9-0.9,13.3c-0.1,61.3-0.1,122.6,0,183.9
		c0,1.4,0.8,2.8,1.2,4.1c-0.8,0.8-1.6,1.6-2.3,2.4C3.5,432.1,3.6,357.7,3.6,283.2z"/>
	<path class="st17" d="M316.8,42.1c0.9-0.9,1.9-1.9,2.9-2.9C318.7,40.2,317.8,41.1,316.8,42.1z"/>
	<path class="st18" d="M5.9,504.1c-0.4-1.4-1.2-2.8-1.2-4.1c-0.1-61.3-0.1-122.6,0-183.9c0-4.4,0.6-8.9,0.9-13.3
		c27.4-0.8,54.9-4.1,82-1.7c25.1,2.2,37.8-11.5,50.8-28c0.4-0.1,0.8-0.1,1.2-0.3c5.1-1.9,7.5,1,11.9,3.6c17.2,10,35.9,4.9,52.4-3.1
		c11-5.3,18.6-2.2,22.4,6c10,21.7,5.7,45.6,8.3,68.5c3,25.7-12.6,19.5-25.9,19.6c-8.9,0.1-17.6,0.1-26.5-0.1
		c-1.9-0.1-4.1-0.9-5.5-2.1c-9.8-7.8-21.4,1.7-31.4-3.3c-10.7-5.3-17.9,8.1-27.8,5.2c-3.1-0.9-5.3-6.8-7.9-6.7
		c-15.7,0.3-31.5,0.4-44.8,11.3c-5.7,4.7-15.4,5.7-15.8,15.2c-0.7,14.6-0.6,29.3-0.5,43.9c0.1,13.4,0.2,13.4,7.9,16.2
		c0.4,0.1,0.5,1.2,0.8,1.9c-9.1,9.7-18.3,19.3-27.4,28.9C21.7,486.6,13.8,495.4,5.9,504.1z"/>
	<path class="st11" d="M57,448.9c-0.2-0.7-0.3-1.7-0.7-1.9c-7.7-2.8-7.8-2.7-7.9-16.2c-0.1-14.6-0.1-29.3,0.5-43.9
		c0.4-9.4,10.1-10.5,15.8-15.2c13.3-10.9,29.1-11,44.8-11.3c2.5-0.1,4.9,5.8,7.9,6.7c9.9,2.9,17.1-10.5,27.8-5.2
		c10,4.9,21.6-4.6,31.4,3.3c1.5,1.2,3.6,2,5.5,2.1c8.9,0.2,17.6,0.1,26.5,0.1c13.3-0.1,28.8,6.1,25.9-19.6
		c-2.6-22.9,1.7-46.8-8.3-68.5c-3.8-8.2-11.4-11.3-22.4-6c-16.5,8-35.2,13.1-52.4,3.1c-4.4-2.6-6.8-5.5-11.9-3.6
		c3-9,5.9-18.1,8.9-27.2c0.5-0.1,1-0.2,1.5-0.4c12.6,1,25.8-2.4,37.8,4.5c2.9,0.4,5.8,1,8.7,1.4c2,3.3,39.9,4.5,43.4,1.4
		c2.9-2,5.9-4.1,8.8-6c6.8,41.2,5.1,83.1,7.3,124.5c-12.8,3.8-24.7,9.5-34.9,18.4c-12.2-0.5-24.7,0.2-36.6-1.9
		c-17-3-30.1,4.4-43.2,12.7c-5.4,3.4-11.4,4.3-17.1,2.6c-19.7-5.6-37.6,6.4-36.6,26.3c0.7,13.4-1,21.3-17,16.8
		c-3.3-0.9-7.3,0.6-10.9,0.9C58.8,447.5,57.9,448.2,57,448.9z"/>
	<path class="st10" d="M59.7,446.9c3.6-0.4,7.6-1.9,10.9-0.9c16,4.5,17.7-3.3,17-16.8c-1-19.9,16.8-31.9,36.6-26.3
		c5.7,1.7,11.7,0.8,17.1-2.6c13.1-8.3,26.2-15.7,43.2-12.7c11.9,2.1,24.4,1.4,36.6,1.9c-7.3,5.2-14.6,10.5-21.9,15.8
		c-2.5,1.5-5,3.1-7.6,4.5c-6.7-0.1-6.6,8.6-9.6,9.3c-15.1,3.8-21.3,18.1-32.7,25.9c-1.2-2.1-2-2.7-4.7-1.2c-4.3,2.3-9.2,4.4-14,4.6
		c-21.9,0.9-43.8,1.2-65.7,1.5C63.2,449.9,61.5,447.9,59.7,446.9z"/>
	<path class="st12" d="M303.6,315c19.8,1.6,37-4.8,52-17.4c4.4-3.7,9.2-2.3,14-2.9c5.4-0.7,12,2.9,15.7-4.1
		c0.9,8.1,3.8,16.6,2.3,24.2c-1.6,7.3-10.7,3.6-16.4,4.5c-10.2,1.7-17.2,7.3-23.9,14.7c-4.1,4.5-10.7,6.5-15.5,10.3
		c-17.8,13.9-38.9,0.2-57.4,7.3C284,339.4,293.8,327.2,303.6,315z"/>
	<path class="st19" d="M59.7,446.9c1.8,1.1,3.5,3,5.3,3c21.9-0.3,43.9-0.6,65.7-1.4c4.8-0.2,9.7-2.3,14-4.7c2.8-1.5,3.7-0.9,4.8,1.2
		c-0.4,0.6-0.9,1.2-1.3,1.8c-6.8,7.5-13.6,15-20.4,22.5c-2,2.8-4.5,5.2-5.9,8.3c-4,8.9-4.6-1.7-8-1.5c-28.1,1.4-56.3,1.4-84.4,1.9
		c9.2-9.7,18.3-19.3,27.4-28.9C57.8,448.1,58.8,447.5,59.7,446.9z"/>
	<path class="st20" d="M127.9,469.1c6.8-7.5,13.6-15,20.4-22.5c9.7,5,17.1-3.8,25.9-4.6c8.1-0.8,18.9,0.4,16.5-14.2
		c-0.9-5.8,0.7-12,1.1-18c2.5-1.5,5-3.1,7.6-4.5c-0.1,7.3-1.2,14.7-0.1,21.9c2.5,16.8-11.5,24-20.8,29.6
		c-11.7,6.9-9.7,15.5-10.9,24.6c-0.4,2.8,0,5.8-0.1,8.7c-0.1,3.2-0.4,6.4-0.5,9.5c-2.3-3.8-4.5-7.8-7-11.5
		c-2.9-4.3-5.4-10.9-9.3-11.8c-5.9-1.5-11.9-7.8-19-2.2c-1,0.8-2.7,5.3-4.9,1.3C126,473.8,127.4,471.2,127.9,469.1z"/>
	<path class="st10" d="M148.3,245.7c-3,9-5.9,18.1-8.9,27.1c-0.4,0.1-0.8,0.1-1.2,0.3c-44.5,5.2-89.1,3-133.7,1.4
		c-3-15.2,2.3-20.3,18.4-19.2c25.2,1.7,50.8,2,75.5-4.4c5.6-1.5,14.2-1.8,16.8-9.9c0.1-0.2,0.7-0.4,0.7-0.4
		C124.7,255.3,137.7,243.7,148.3,245.7z"/>
	<path class="st21" d="M239.8,252.6c-3.1,3.2-41.5,2-43.5-1.4C210.9,251.6,225.4,252.2,239.8,252.6z"/>
	<path class="st22" d="M196.3,251.2c-2.9-0.4-5.8-0.9-8.7-1.4C190.5,250.3,193.4,250.8,196.3,251.2z"/>
</g>
</svg>
