<?xml version="1.0" encoding="utf-8"?>
<!-- Generator: Adobe Illustrator 27.7.0, SVG Export Plug-In . SVG Version: 6.00 Build 0)  -->
<svg version="1.1" id="Layer_1" xmlns="http://www.w3.org/2000/svg" xmlns:xlink="http://www.w3.org/1999/xlink" x="0px" y="0px"
	 viewBox="0 0 512 512" style="enable-background:new 0 0 512 512;" xml:space="preserve">
<style type="text/css">
	.st0{fill:#E9654B;}
	.st1{fill:#B6CFEA;}
	.st2{fill:#E6F5F8;}
	.st3{fill:#D0E8F0;}
	.st4{fill:#EE794B;}
	.st5{clip-path:url(#SVGID_00000086683804579030267780000006295747043667414704_);}
	.st6{clip-path:url(#SVGID_00000062909493048628215990000005390197148592471224_);}
	.st7{clip-path:url(#SVGID_00000124867671428468815090000004507633575698594195_);}
	.st8{fill:#E34E3B;}
	.st9{clip-path:url(#SVGID_00000062876530362554904370000002991658932250405794_);}
	.st10{fill:#FBDFC3;}
	.st11{fill:#010101;}
	.st12{fill:#FFFFFF;}
	.st13{clip-path:url(#SVGID_00000022545079136486197770000010784466916676164761_);}
</style>
<g>
	<path class="st0" d="M176.1,358.4c0,0-3.4,10.2-8.5,15.3c-3,3.4-7.4,5.2-11.9,5.1c-8.4,2.3-16.9,4-25.5,5.1c0,0,11.9,1.7,25.5,3.4
		c5.1,0,5.1,0,8.5,1.7c8.5,0,11.9-5.1,11.9-5.1V358.4z M332.6,358.4c0,0,3.4,10.2,8.5,15.3c3,3.4,7.4,5.2,11.9,5.1
		c8.4,2.3,16.9,4,25.5,5.1c0,0-11.9,1.7-27.2,3.4c-5.1,0-5.1,0-8.5,1.7c-10.2,0-11.9-5.1-11.9-5.1L332.6,358.4z"/>
	<path class="st1" d="M439.7,190c0,101.4-82.2,183.6-183.6,183.6c-101.4,0-183.6-82.2-183.6-183.6C72.4,88.6,154.6,6.4,256.1,6.4
		C357.5,6.4,439.7,88.6,439.7,190z"/>
	<path class="st2" d="M432.9,190c0,97.7-79.2,176.8-176.8,176.8c-97.7,0-176.8-79.2-176.8-176.8c0-97.7,79.2-176.8,176.8-176.8
		C353.7,13.2,432.9,92.4,432.9,190L432.9,190z"/>
	<path class="st3" d="M400.6,193.4c0,79.8-64.7,144.5-144.5,144.5c-79.8,0-144.5-64.7-144.5-144.5c0-79.8,64.7-144.5,144.5-144.5
		C335.9,48.9,400.6,113.6,400.6,193.4L400.6,193.4z"/>
	<path class="st4" d="M171,261.5c0,0,11.9,192.1,11.9,195.5c0,1.7,1.7,5.1-6.8,8.5c-8.5,3.4-35.7,10.2-35.7,10.2h40.8
		c18.7,0,18.7-15.3,18.7-18.7c0-3.4,5.1-76.5,5.1-76.5s1.7,86.7,1.7,90.1c0,3.4-1.7,8.5-13.6,11.9c-8.5,1.7-34,6.8-34,6.8h39.1
		c23.8,0,23.8-15.3,23.8-15.3l5.1-76.5c0,0,1.7,76.5,1.7,85c0,6.8-5.1,11.9-23.8,15.3c-11.9,3.4-27.2,6.8-27.2,6.8h44.2
		c22.1-1.7,25.5-17,25.5-17L285,297.2L171,261.5z"/>
	<path class="st4" d="M341.1,261.5c0,0-11.9,192.1-11.9,195.5c0,1.7-1.7,5.1,6.8,8.5c8.5,3.4,35.7,10.2,35.7,10.2h-40.8
		c-18.7,0-18.7-15.3-18.7-18.7c0-3.4-5.1-76.5-5.1-76.5s-1.7,86.7-1.7,90.1c0,3.4,1.7,8.5,13.6,11.9l34,6.8h-39.1
		c-23.8,0-23.8-15.3-23.8-15.3l-5.1-76.5c0,0-1.7,76.5-1.7,85c0,6.8,5.1,11.9,23.8,15.3c11.9,3.4,27.2,6.8,27.2,6.8h-44.2
		c-22.1-1.7-25.5-17-25.5-17l-37.4-190.4L341.1,261.5z M342.8,167.9c0,47.6-39.1,85-85,85c-45.9,0-85-39.1-85-85
		c0-45.9,39.1-85,85-85C303.7,82.9,342.8,120.3,342.8,167.9z"/>
	<g>
		<defs>
			<rect id="SVGID_1_" x="168" y="164" width="176" height="204"/>
		</defs>
		<clipPath id="SVGID_00000064346109475342459710000011879785922999075509_">
			<use xlink:href="#SVGID_1_"  style="overflow:visible;"/>
		</clipPath>
		<g style="clip-path:url(#SVGID_00000064346109475342459710000011879785922999075509_);">
			<g>
				<defs>
					<polyline id="SVGID_00000061454833926693337670000004126120326122314943_" points="342.8,164.5 332.6,397.5 179.5,397.5 
						171,164.5 					"/>
				</defs>
				<clipPath id="SVGID_00000037680581196880043840000002870022512609393281_">
					<use xlink:href="#SVGID_00000061454833926693337670000004126120326122314943_"  style="overflow:visible;"/>
				</clipPath>
				<g style="clip-path:url(#SVGID_00000037680581196880043840000002870022512609393281_);">
					<path class="st4" d="M409.1,213.8c0,83.6-67.7,151.3-151.3,151.3c-83.6,0-151.3-67.8-151.3-151.3
						c0-83.6,67.8-151.3,151.3-151.3C341.3,62.5,409.1,130.3,409.1,213.8L409.1,213.8z"/>
				</g>
			</g>
		</g>
	</g>
	<g>
		<g>
			<defs>
				<rect id="SVGID_00000062887659108464838610000004991204662069382027_" width="512" height="512"/>
			</defs>
			<clipPath id="SVGID_00000029741621724561098510000018118330735933783689_">
				<use xlink:href="#SVGID_00000062887659108464838610000004991204662069382027_"  style="overflow:visible;"/>
			</clipPath>
			<g id="argocd-original-g" style="clip-path:url(#SVGID_00000029741621724561098510000018118330735933783689_);">
				<path class="st8" d="M337.7,261.5c0,0,10.2-90.1-3.4-124.1c-25.5-59.5-85-54.4-85-54.4s34,13.6,35.7,64.6
					c1.7,35.7,0,88.4,0,88.4L337.7,261.5z"/>
			</g>
		</g>
	</g>
	<g>
		<g>
			<defs>
				<rect id="SVGID_00000167396271592552593660000013325588306673404046_" width="512" height="512"/>
			</defs>
			<clipPath id="SVGID_00000142169669988706277250000016063151340031146897_">
				<use xlink:href="#SVGID_00000167396271592552593660000013325588306673404046_"  style="overflow:visible;"/>
			</clipPath>
			<g id="argocd-original-i" style="clip-path:url(#SVGID_00000142169669988706277250000016063151340031146897_);">
				<path class="st10" d="M234,122c0,6.6-5.3,11.9-11.9,11.9c-6.6,0-11.9-5.3-11.9-11.9c0,0,0,0,0,0c0-6.6,5.3-11.9,11.9-11.9
					C228.6,110.1,234,115.5,234,122z"/>
			</g>
		</g>
	</g>
	<path class="st11" d="M286.7,295.5c0,28.9-13.6,47.6-30.6,47.6s-30.6-22.1-30.6-51c0,0,13.6,27.2,32.3,27.2
		C276.5,319.3,286.7,295.5,286.7,295.5z"/>
	<path class="st12" d="M286.7,295.5c0,18.7-13.6,28.9-30.6,28.9s-28.9-13.6-28.9-30.6c0,0,13.6,17,32.3,17S286.7,295.5,286.7,295.5z
		"/>
	<path class="st0" d="M368.3,215.5c0,29.1-23.6,52.7-52.7,52.7c-29.1,0-52.7-23.6-52.7-52.7c0-29.1,23.6-52.7,52.7-52.7
		C344.7,162.8,368.3,186.4,368.3,215.5z M249.3,215.5c0,29.1-23.6,52.7-52.7,52.7c-29.1,0-52.7-23.6-52.7-52.7
		c0-29.1,23.6-52.7,52.7-52.7C225.7,162.8,249.3,186.4,249.3,215.5L249.3,215.5z"/>
	<path class="st12" d="M356.4,215.5c0,22.5-18.3,40.8-40.8,40.8s-40.8-18.3-40.8-40.8c0-22.5,18.3-40.8,40.8-40.8
		C338.1,174.7,356.4,193,356.4,215.5z M234,215.5c0,22.5-18.3,40.8-40.8,40.8c-22.5,0-40.8-18.3-40.8-40.8
		c0-22.5,18.3-40.8,40.8-40.8c0,0,0,0,0,0C215.7,174.7,234,193,234,215.5L234,215.5z"/>
	<path class="st11" d="M205,210.4c0,6.6-5.3,11.9-11.9,11.9c-6.6,0-11.9-5.3-11.9-11.9l0,0c0-6.6,5.3-11.9,11.9-11.9
		S205,203.9,205,210.4L205,210.4z M327.5,210.4c0.1,6.6-5.1,12-11.7,12.1s-12-5.1-12.1-11.7c0-0.1,0-0.3,0-0.4
		c0.1-6.6,5.5-11.8,12.1-11.7C322.2,198.9,327.4,204,327.5,210.4L327.5,210.4z M0,0"/>
	<path class="st12" d="M206.8,54c0,4.7-3.8,8.5-8.5,8.5s-8.5-3.8-8.5-8.5s3.8-8.5,8.5-8.5S206.8,49.3,206.8,54z M137,283.6
		c-1.9,0.2-3.8-0.4-5.1-1.7c-20.4-25.5-30.6-57.8-30.6-90.1c-0.1-26.9,7-53.3,20.4-76.5c13.6-22.1,32.3-40.8,54.4-54.4
		c2.9-1.3,6.3-0.6,8.5,1.7c1.3,2.9,0.6,6.3-1.7,8.5c-42.9,24.3-69.6,69.7-69.7,119c0,30.2,10.1,59.6,28.9,83.3
		c1.7,1.7,1.7,6.8-1.7,8.5C138.7,283.6,138.7,283.6,137,283.6L137,283.6z"/>
	<g>
		<g>
			<defs>
				<rect id="SVGID_00000140003602175229459960000003791959374268793250_" width="512" height="512"/>
			</defs>
			<clipPath id="SVGID_00000171699714118797208810000017882345509839779467_">
				<use xlink:href="#SVGID_00000140003602175229459960000003791959374268793250_"  style="overflow:visible;"/>
			</clipPath>
			<g id="argocd-original-k" style="clip-path:url(#SVGID_00000171699714118797208810000017882345509839779467_);">
				<path class="st0" d="M332.6,363.5v-13.6c-23.8,13.6-49.3,27.2-79.9,27.2c-34,0-56.1-15.3-78.2-27.2l1.7,13.6
					c0,0,25.5,27.2,78.2,27.2C303.7,389,332.6,363.5,332.6,363.5L332.6,363.5z"/>
			</g>
		</g>
	</g>
</g>
</svg>
