<?xml version="1.0" encoding="utf-8"?>
<!-- Generator: Adobe Illustrator 28.2.0, SVG Export Plug-In . SVG Version: 6.00 Build 0)  -->
<svg version="1.1" id="Layer_1" xmlns="http://www.w3.org/2000/svg" xmlns:xlink="http://www.w3.org/1999/xlink" x="0px" y="0px"
	 viewBox="0 0 512 512" style="enable-background:new 0 0 512 512;" xml:space="preserve">
<style type="text/css">
	.st0{fill:#FFFFFF;}
</style>
<g>
	<path class="st0" d="M511.2,360.9c-1.8-17-5.7-33-14.1-47.6c-45-78.1-90.2-156-135.2-234c-27.1-46.9-75.2-67.8-126.1-59.8
		c-36.9,5.8-65.1,26.1-83.9,58.5c-43.8,75.4-87.3,151-131,226.5C8.5,325.7-0.4,347.7,0,373.2c0.6,35,14.1,63.9,38.8,87.9
		c19.4,18.8,43.5,31,69.9,32.1c48.2,2.1,96.5,0.6,144.7,0.6c0-0.1,0-0.1,0-0.2c46,0,91.9,0.2,137.9-0.1c30.4-0.2,57.9-9.7,80.4-30.4
		C501.5,435.7,515.6,402.1,511.2,360.9z M239.4,389.5c-12.8,22.2-25.5,44.5-38.6,66.5c-1.4,2.4-5.1,4.7-7.8,4.7
		c-6.5,0.1-13,0.1-19.5,0.1c-19.5,0.1-38.9-0.1-58.4-0.1c-0.1-1.1-0.2-2.2-0.4-3.3c16.6-28.9,33.1-57.8,49.7-86.7
		c10.9-18.9,3.1-32.8-18.6-32.9c-31.4-0.1-62.8,0-94.2,0c-2.8,0-5.6,0-9.3,0c1.2-2.9,1.9-5,3-6.9c11.8-20.5,23.5-41.1,35.6-61.3
		c1.7-2.8,5.9-5.6,8.9-5.7c25.7-0.5,51.4-0.3,77-0.2c10.9,0,19.2,4.8,24.6,14.2c16,27.6,31.9,55.3,47.8,83
		C244.7,370.5,244.8,380,239.4,389.5z M210,245.2c-11.6,0-20.3-5-26-15c-12.5-21.7-25.2-43.4-37.5-65.2c-1.3-2.4-2.3-6.4-1.2-8.4
		c13.2-23.6,26.8-47,40.9-71.3c13.1,22.6,25.7,44.3,38.2,65.9c4.9,8.4,9.6,16.8,14.5,25.2c10.3,17.6,26.1,17.7,36.3,0.2
		c16-27.6,32-55.3,48-82.9c1.4-2.4,2.9-4.8,5-8.1c14.1,24.4,27.7,48,41.1,71.7c0.9,1.6,0.1,4.9-0.9,6.8
		c-12.7,22.3-25.6,44.5-38.5,66.7c-5.7,9.7-14.3,14.4-25.5,14.4C272.9,245.2,241.4,245.2,210,245.2z M470.9,338
		c-7.8,0-15.7,0-23.6,0c-26.8,0-53.7-0.1-80.5,0c-19.5,0.1-27.7,14.4-18.1,31.2c17.2,29.9,34.3,59.8,51.5,89.7
		c-0.2,0.6-0.5,1.2-0.7,1.8c-26.3,0.1-52.5,0.3-78.8,0.1c-2.5,0-5.9-2.1-7.2-4.3c-13.2-22.3-26.2-44.8-39-67.4
		c-5.4-9.4-4.9-19.2,0.5-28.5c15.7-27.2,31.5-54.3,47.1-81.4c5.8-10,14.1-15.3,25.8-15.3c25.4,0.1,50.8-0.1,76.3,0.2
		c2.6,0,6.5,1.4,7.7,3.4c13.4,22.6,26.3,45.4,39.3,68.1C471.2,336,471,336.7,470.9,338z"/>
</g>
</svg>
