<?xml version="1.0" encoding="utf-8"?>
<!-- Generator: Adobe Illustrator 27.7.0, SVG Export Plug-In . SVG Version: 6.00 Build 0)  -->
<svg version="1.1" id="Layer_1" xmlns="http://www.w3.org/2000/svg" xmlns:xlink="http://www.w3.org/1999/xlink" x="0px" y="0px"
	 viewBox="0 0 512 512" style="enable-background:new 0 0 512 512;" xml:space="preserve">
<style type="text/css">
	.st0{fill:#FFFFFF;}
</style>
<g>
	<path class="st0" d="M313,150.5L63.5,248.3l-25.3-63.1L155.7,0h200.5l117.7,185.2l-34.6,86.2L313,150.5z M423.3,197.7l3.3-8.2
		l-42.5-67l-27.7,10.9L423.3,197.7z M87.1,193.7L361,86.3l-28-44.1H178.9L85.5,189.6L87.1,193.7z"/>
	<path class="st0" d="M169.4,512l-21.3-53L49,486.6l-11.3-40.7l135.5-37.8l24.7,61.6h115.9l24.8-61.6l135.6,37.8L463,486.6
		L363.8,459l-21.3,53H169.4z"/>
</g>
</svg>
