<?xml version="1.0" encoding="utf-8"?>
<!-- Generator: Adobe Illustrator 28.2.0, SVG Export Plug-In . SVG Version: 6.00 Build 0)  -->
<svg version="1.1" id="Layer_1" xmlns="http://www.w3.org/2000/svg" xmlns:xlink="http://www.w3.org/1999/xlink" x="0px" y="0px"
	 viewBox="0 0 512 512" style="enable-background:new 0 0 512 512;" xml:space="preserve">
<style type="text/css">
	.st0{fill:#FFFFFF;}
</style>
<g transform="matrix(1, 0, 0, 1, -910.945007, -2957.187256)">
	<g>
		<path class="st0" d="M1422.9,3234.9c0,24.4-19.8,44.1-44.1,44.1c-1.5,0-3.1-0.1-4.6-0.2c-20.2,95.9-105.3,168-207.3,168
			s-187.1-72-207.3-168c-1.5,0.2-3,0.2-4.6,0.2c-24.4,0-44.1-19.8-44.1-44.1c0-24.4,19.8-44.1,44.1-44.1c1.5,0,3.1,0.1,4.6,0.2
			c8.6-40.9,29-77.4,57.5-105.9c12.8-12.8,27.2-23.9,42.9-33.1c16.5-9.7,34.3-16.5,52.3-21.1c1.8-0.5,3.7-0.2,6.8,4.5
			c12.8,18.4,37.1,32.6,60.5,23.5c21.3-9.1,32.5-35.5,17.2-54.8c-11.2-13.2-31.4-16.2-43.6-3c-4.1,4.1-5.1,10.1-5.1,15.2
			c0,4.1,4.1,13.2,8.1,8.1c2-3,4.1-8.1,9.1-8.1c9.1,0,14.2,11.2,9.1,18.3c-8.1,12.2-25.4,8.1-33.5-2c-8.1-12.2-7.1-26.4,2-37.5
			c12.2-15.2,33.5-19.3,50.7-11.2c16.2,9.1,28.4,24.3,32.6,42.6c0.8,3.1,1.6,4.4,2.4,5.9c73.1,22.3,129.5,83.1,145.4,158.8
			c1.5-0.2,3-0.2,4.6-0.2C1403.2,3190.7,1422.9,3210.5,1422.9,3234.9z M1243.6,3113.5c-19.6,0-35.6,21.9-35.6,48.9
			c0,27,15.9,48.9,35.6,48.9c19.6,0,35.6-21.9,35.6-48.9C1279.1,3135.4,1263.2,3113.5,1243.6,3113.5z M1194.6,3235.3
			c-1.4-9.7-7.8-17.8-16.4-21.8l-4.7-110.2h-14.4l-4.7,110.2c-3.2,1.5-6.2,3.6-8.6,6.1l-22.5-7.2l-8,29.2l23.4,5.4
			c2,7.5,6.9,13.8,13.5,17.5l-1,24h30.3l-1-24c2.9-1.6,5.4-3.7,7.6-6.2l109.6,25.1l3.1-13.9L1194.6,3235.3z M1090.3,3113.5
			c-19.6,0-35.6,21.9-35.6,48.9c0,27,15.9,48.9,35.6,48.9c19.6,0,35.6-21.9,35.6-48.9C1125.9,3135.4,1110,3113.5,1090.3,3113.5z
			 M1166.9,3368.5c31.9,0,57.8-24.7,57.8-55.3h-115.6C1109.1,3343.8,1135,3368.5,1166.9,3368.5z"/>
		<path class="st0" d="M1093,3147.9c0,9.7-5.7,17.6-12.8,17.6c-7.1,0-12.8-7.9-12.8-17.6c0-9.8,5.7-17.6,12.8-17.6
			C1087.3,3130.2,1093,3138.1,1093,3147.9z"/>
		<path class="st0" d="M1246.3,3147.9c0,9.7-5.7,17.6-12.8,17.6c-7.1,0-12.8-7.9-12.8-17.6c0-9.8,5.7-17.6,12.8-17.6
			C1240.5,3130.2,1246.3,3138.1,1246.3,3147.9z"/>
	</g>
</g>
</svg>
