<?xml version="1.0" encoding="utf-8"?>
<!-- Generator: Adobe Illustrator 27.7.0, SVG Export Plug-In . SVG Version: 6.00 Build 0)  -->
<svg version="1.1" id="Warstwa_1" xmlns="http://www.w3.org/2000/svg" xmlns:xlink="http://www.w3.org/1999/xlink" x="0px" y="0px"
	 viewBox="0 0 512 512" style="enable-background:new 0 0 512 512;" xml:space="preserve">
<style type="text/css">
	.st0{fill:#FFFFFF;}
</style>
<g>
	<path class="st0" d="M291.8,512H27.5C12.3,512,0,499.7,0,484.5V413c0-15.2,12.3-27.5,27.5-27.5h264.2c15.2,0,27.5,12.3,27.5,27.5
		v71.5C319.3,499.7,307,512,291.8,512z"/>
	<path class="st0" d="M484.5,319.3h-457C12.3,319.3,0,307,0,291.8v-71.5c0-15.2,12.3-27.5,27.5-27.5h457c15.2,0,27.5,12.3,27.5,27.5
		l0,0v71.5C512,307,499.7,319.3,484.5,319.3L484.5,319.3z"/>
	<path class="st0" d="M484.5,126.6H220.2c-15.2,0-27.5-12.3-27.5-27.5V27.5C192.7,12.3,205,0,220.2,0h264.2
		C499.7,0,512,12.3,512,27.5V99C512,114.3,499.7,126.6,484.5,126.6z"/>
	<path class="st0" d="M484.5,512H413c-15.2,0-27.5-12.3-27.5-27.5V413c0-15.2,12.3-27.5,27.5-27.5h71.5c15.2,0,27.5,12.3,27.5,27.5
		v71.5C512,499.7,499.7,512,484.5,512z"/>
	<path class="st0" d="M27.5,0H99c15.2,0,27.5,12.3,27.5,27.5V99c0,15.2-12.3,27.5-27.5,27.5H27.5C12.3,126.6,0,114.3,0,99.1V27.5
		C0,12.3,12.3,0,27.5,0z"/>
</g>
</svg>
