<?xml version="1.0" encoding="utf-8"?>
<!-- Generator: Adobe Illustrator 27.7.0, SVG Export Plug-In . SVG Version: 6.00 Build 0)  -->
<svg version="1.1" id="Layer_1" xmlns="http://www.w3.org/2000/svg" xmlns:xlink="http://www.w3.org/1999/xlink" x="0px" y="0px"
	 viewBox="0 0 512 512" style="enable-background:new 0 0 512 512;" xml:space="preserve">
<style type="text/css">
	.st0{fill:#FFFFFF;}
</style>
<g>
	<path class="st0" d="M16.6,25.8C7.6,25.7,0.1,32.9,0,42c0,1,0.1,1.9,0.2,2.8l69.6,422.7c1.8,10.7,11,18.5,21.8,18.6h334.1
		c8.1,0.1,15.1-5.8,16.4-13.8l69.6-427.5c1.4-8.9-4.6-17.4-13.6-18.8c-0.9-0.2-1.9-0.2-2.8-0.2L16.6,25.8z M309.8,331.3H203.2
		l-28.9-150.8h161.3L309.8,331.3z"/>
	<path class="st0" d="M489.2,180.3H335.4L309.6,331H203L77.2,480.3c4,3.4,9.1,5.4,14.3,5.4h333.9c8.1,0.1,15.1-5.8,16.4-13.8
		L489.2,180.3z"/>
</g>
</svg>
