<?xml version="1.0" encoding="utf-8"?>
<!-- Generator: Adobe Illustrator 28.2.0, SVG Export Plug-In . SVG Version: 6.00 Build 0)  -->
<svg version="1.1" id="Layer_1" xmlns="http://www.w3.org/2000/svg" xmlns:xlink="http://www.w3.org/1999/xlink" x="0px" y="0px"
	 viewBox="0 0 512 512" style="enable-background:new 0 0 512 512;" xml:space="preserve">
<style type="text/css">
	.st0{fill-rule:evenodd;clip-rule:evenodd;fill:#FFFFFF;}
</style>
<g>
	<path class="st0" d="M37.1,25.2C16.6,25.2,0,41.8,0,62.3v387.3c0,20.5,16.6,37.1,37.1,37.1h437.7c20.5,0,37.1-16.6,37.1-37.1V62.3
		c0-20.5-16.6-37.1-37.1-37.1H37.1z M345.1,336.1c3.4-9.4,5.3-19.5,5.3-30.1c0-48.9-39.6-88.5-88.5-88.5c-10.2,0-19.9,1.7-29,4.9
		l-29.3-76.2c16-5.4,27.5-20.5,27.5-38.3c0-22.3-18.1-40.4-40.4-40.4c-22.3,0-40.4,18.1-40.4,40.4s18.1,40.4,40.4,40.4
		c1.7,0,3.4-0.1,5.1-0.3l29.8,77.3c-20,9-36,25.2-44.8,45.4l-58.3-22c0.6-2.6,0.9-5.3,0.9-8.1c0-19.1-15.5-34.6-34.6-34.6
		c-19.1,0-34.6,15.5-34.6,34.6c0,19.1,15.5,34.6,34.6,34.6c13.5,0,25.3-7.8,31-19.1l58.2,22c-2.9,8.8-4.5,18.1-4.5,27.9
		c0,14.3,3.4,27.8,9.4,39.8L139,373.2c-7.3-10.4-19.4-17.2-33.1-17.2c-22.3,0-40.4,18.1-40.4,40.4c0,22.3,18.1,40.4,40.4,40.4
		s40.4-18.1,40.4-40.4c0-5.8-1.2-11.3-3.4-16.2l43.7-27.4c15.6,25.1,43.5,41.7,75.2,41.7c35.5,0,66.1-20.9,80.2-51l40.1,16
		c-0.6,2.6-0.9,5.3-0.9,8.1c0,19.1,15.5,34.6,34.6,34.6s34.6-15.5,34.6-34.6s-15.5-34.6-34.6-34.6c-13.5,0-25.3,7.8-31,19.1
		L345.1,336.1z"/>
</g>
</svg>
