<?xml version="1.0" encoding="utf-8"?>
<!-- Generator: Adobe Illustrator 28.2.0, SVG Export Plug-In . SVG Version: 6.00 Build 0)  -->
<svg version="1.1" id="Layer_1" xmlns="http://www.w3.org/2000/svg" xmlns:xlink="http://www.w3.org/1999/xlink" x="0px" y="0px"
	 viewBox="0 0 512 512" style="enable-background:new 0 0 512 512;" xml:space="preserve">
<style type="text/css">
	.st0{fill:#FFCC00;}
	.st1{fill:#8600EF;}
</style>
<g>
	<g>
		<path class="st0" d="M252.7,186.9c-16,0-28.9,5.8-38.7,17.5c-9.8,11.6-14.7,27-14.7,46c0,20.2,4.9,36.3,14.7,48.3
			c9.8,11.9,22.7,17.9,38.7,17.9c16.2,0,28.9-6,38.3-18.1c9.4-12.1,14.1-28.2,14.1-48.1c0-18.8-4.7-34-14.1-45.8
			C281.7,192.9,268.9,186.9,252.7,186.9z"/>
		<path class="st0" d="M252.7,3.3C113.2,3.3,0,116.4,0,256s113.2,252.7,252.7,252.7S505.5,395.6,505.5,256S392.3,3.3,252.7,3.3z
			 M364.1,317.5c-10.6,19.1-25.3,33.9-44.4,44.6c-19.1,10.6-41.4,15.9-66.9,15.9c-25.1,0-47.2-5.2-66.4-15.7
			c-19.2-10.5-34.2-25.4-44.8-44.6c-10.7-19.2-16-41.6-16-67.2c0-24.7,5.3-46.5,16-65.1c10.7-18.6,25.6-33.2,44.6-43.7
			c19.1-10.5,41.3-15.8,66.6-15.8c25.3,0,47.4,5.3,66.5,15.8c19.1,10.6,33.9,25.1,44.6,43.7c10.7,18.6,16,40.3,16,65.1
			C379.9,276.1,374.6,298.4,364.1,317.5z"/>
	</g>
	<path class="st1" d="M501.2,73.5L461.9,59l-14.5-39.3c-2.4-6.5-8.6-10.8-15.6-10.8c-6.9,0-13.1,4.3-15.6,10.8L401.7,59l-39.3,14.5
		c-6.5,2.4-10.8,8.6-10.8,15.6c0,6.9,4.3,13.2,10.8,15.6l39.3,14.5l14.5,39.3c2.4,6.5,8.6,10.8,15.6,10.8c7,0,13.2-4.3,15.6-10.8
		l14.5-39.3l39.3-14.5c6.5-2.4,10.8-8.6,10.8-15.6C512,82.1,507.7,75.9,501.2,73.5z"/>
</g>
</svg>
