<?xml version="1.0" encoding="utf-8"?>
<!-- Generator: Adobe Illustrator 28.2.0, SVG Export Plug-In . SVG Version: 6.00 Build 0)  -->
<svg version="1.1" id="Layer_1" xmlns="http://www.w3.org/2000/svg" xmlns:xlink="http://www.w3.org/1999/xlink" x="0px" y="0px"
	 viewBox="0 0 512 512" style="enable-background:new 0 0 512 512;" xml:space="preserve">
<style type="text/css">
	.st0{fill:#1570EF;}
	.st1{fill:#FFFFFF;}
</style>
<g>
	<rect class="st0" width="512" height="512"/>
	<path class="st1" d="M350.2,229.8h-42.5c-1.2-7-3.4-13.1-6.7-18.5c-3.3-5.5-7.3-10.1-12.2-13.9c-4.8-3.8-10.4-6.6-16.6-8.5
		c-6.1-2-12.8-3-19.9-3c-12.7,0-23.9,3.2-33.6,9.5c-9.8,6.3-17.4,15.5-23,27.7c-5.5,12.1-8.3,26.9-8.3,44.4c0,17.8,2.8,32.8,8.3,45
		c5.6,12.1,13.3,21.3,23,27.5c9.8,6.1,20.9,9.2,33.5,9.2c7,0,13.5-0.9,19.5-2.7c6.1-1.9,11.6-4.7,16.5-8.3
		c4.9-3.6,9.1-8.1,12.4-13.4c3.4-5.3,5.8-11.4,7-18.2l42.5,0.2c-1.6,11.1-5,21.4-10.3,31.1c-5.2,9.7-12.1,18.3-20.6,25.7
		c-8.5,7.3-18.4,13.1-29.8,17.3c-11.4,4.1-24,6.1-37.8,6.1c-20.5,0-38.7-4.7-54.8-14.2c-16.1-9.5-28.7-23.1-38-41
		c-9.2-17.9-13.9-39.3-13.9-64.3c0-25.1,4.7-46.5,14-64.3c9.3-17.9,22-31.6,38.1-41c16.1-9.5,34.2-14.2,54.5-14.2
		c13,0,25,1.8,36.1,5.5c11.1,3.6,21.1,9,29.8,16c8.7,7,15.9,15.5,21.5,25.7C344.7,205.3,348.4,216.8,350.2,229.8z"/>
</g>
</svg>
