<?xml version="1.0" encoding="utf-8"?>
<!-- Generator: Adobe Illustrator 28.2.0, SVG Export Plug-In . SVG Version: 6.00 Build 0)  -->
<svg version="1.1" id="Layer_1" xmlns="http://www.w3.org/2000/svg" xmlns:xlink="http://www.w3.org/1999/xlink" x="0px" y="0px"
	 viewBox="0 0 512 512" style="enable-background:new 0 0 512 512;" xml:space="preserve">
<style type="text/css">
	.st0{fill:url(#SVGID_1_);}
	.st1{fill:#232323;}
	.st2{fill:#FFFFFF;}
	.st3{fill:#DADADA;}
	.st4{fill:#020202;}
	.st5{fill:#E03A36;}
</style>
<g>
	
		<radialGradient id="SVGID_1_" cx="2027.3545" cy="-1113.0392" r="737.5401" fx="2027.0868" fy="-1739.051" gradientTransform="matrix(0.3317 0 0 -0.3317 -415.9383 -113.7423)" gradientUnits="userSpaceOnUse">
		<stop  offset="0.2" style="stop-color:#E03C3B"/>
		<stop  offset="0.652" style="stop-color:#E03C3B"/>
		<stop  offset="0.722" style="stop-color:#DD3C3B"/>
		<stop  offset="0.775" style="stop-color:#D33B3A"/>
		<stop  offset="0.822" style="stop-color:#C33938"/>
		<stop  offset="0.866" style="stop-color:#AC3736"/>
		<stop  offset="0.908" style="stop-color:#8E3434"/>
		<stop  offset="0.949" style="stop-color:#6A3030"/>
		<stop  offset="0.987" style="stop-color:#3F2C2C"/>
		<stop  offset="1" style="stop-color:#2F2A2B"/>
	</radialGradient>
	<path class="st0" d="M15.9,267.8c0-132.9,107.7-240.6,240.6-240.6c132.9,0,240.6,107.7,240.6,240.6S389.4,508.4,256.5,508.4
		C123.7,508.4,15.9,400.7,15.9,267.8z"/>
	<path class="st1" d="M81.7,330.5c-4-25.4,6.2-43.2,16.3-53.1c4.6-4.5,10-8.6,14.9-8.4c7.2-0.6,44.7,26.8,94.9,57.3
		c26.1,18.9,38.3,21.1,38.2,29.5v-1.3c-3.3,21-20.5,46.3-44.4,52.3C144,424.2,93.7,388.1,81.7,330.5L81.7,330.5z"/>
	<path class="st1" d="M256.5,510.6c-64.9,0-125.8-25.3-171.7-71.1C39,393.6,13.7,332.7,13.7,267.8C13.7,202.9,39,142,84.8,96.1
		C130.7,50.2,191.7,25,256.5,25s125.8,25.3,171.7,71.1c45.9,45.9,71.1,106.8,71.1,171.7s-25.3,125.8-71.1,171.7
		C382.4,485.4,321.4,510.6,256.5,510.6L256.5,510.6z M256.5,29.4c-131.4,0-238.4,106.9-238.4,238.4c0,131.4,106.9,238.4,238.4,238.4
		c63.7,0,123.5-24.8,168.6-69.8s69.8-104.9,69.8-168.6C494.9,136.3,388,29.4,256.5,29.4L256.5,29.4z"/>
	<path class="st1" d="M431.3,330.5c4-25.4-6.2-43.2-16.3-53.1c-4.6-4.5-10-8.6-14.9-8.4c-7.2-0.6-44.7,26.8-94.9,57.3
		c-26.1,18.9-38.3,21.1-38.2,29.5v-1.3c3.3,21,20.5,46.3,44.4,52.3C369.1,424.2,419.4,388.1,431.3,330.5L431.3,330.5z"/>
	<path class="st2" d="M274.4,348.7c-4.2,2.3-5,4.3-3.7,8.8c3.5,11.9,8.6,21.3,15.3,28.6c16,17.5,40.5,22.2,70.5,18.9
		c25.6-4.1,38-12,57-35.7c8.4-16.7,19.4-40.5,6.9-68.1c-3.5-7.7-8.9-14-15.3-19.5c-2.4-2-4.3-2.1-7-0.6
		C386.4,287.5,297.3,336.4,274.4,348.7L274.4,348.7L274.4,348.7z"/>
	<path class="st3" d="M358.1,379.3c-41,12-79.4-3-79.4-3s18,31.9,62.2,31.7c50.8-3.9,70.5-32.1,79.3-50.5c8.7-18.4,6.4-35.3,5-41.8
		C423.7,309.2,418.3,362,358.1,379.3z"/>
	<path class="st2" d="M239.2,348.7c4.2,2.3,5,4.3,3.7,8.8c-3.5,11.9-8.6,21.3-15.3,28.6c-16,17.5-40.5,22.2-70.5,18.9
		c-25.6-4.1-38-12-57-35.7c-8.4-16.7-19.4-40.5-6.9-68.1c3.5-7.7,8.9-14,15.3-19.5c2.4-2,4.3-2.1,7-0.6
		C127.3,287.5,216.3,336.4,239.2,348.7L239.2,348.7L239.2,348.7z"/>
	<path class="st3" d="M155.5,379.3c41,12,79.4-3,79.4-3s-18,31.9-62.2,31.7c-50.8-3.9-70.5-32.1-79.3-50.5
		c-8.7-18.4-6.4-35.3-5-41.8C89.9,309.2,95.3,362,155.5,379.3L155.5,379.3z"/>
	<path class="st4" d="M353.6,349.6c5.1,23.6,4.4,52.4,4.4,52.4c0,1.5,0,1.5,1,4.8c7.5-14.2,11.7-29.1,13.3-44.7
		c2-20.2-0.9-36.8-10.4-61.3c-6.3-11.5-12.7-22.9-21.6-32.9c-13.5-15-19.3-10.5-34.9-1.9c-1.5,1.1-4.6,4.2-4.6,4.2
		C317.8,281,341.7,298.4,353.6,349.6z"/>
	<path class="st5" d="M111,181.9c7.3-4.6,15.2-13,19.8-26.8c7-22.2,1.2-32.8,1.2-32.8s-6.2,4.8-22.2,0.2
		c-16.6-4.9-24.1-5.7-53.7-34.6c-34.5-35.2-51-73.6-51-73.6s0,10,1.3,20c0,0,7.3,44,38.5,84.1c20.3,26.1,41.3,42.7,50.7,48.5
		C106.9,173.9,111,175.5,111,181.9"/>
	<path class="st1" d="M6.5,34.3c-0.6-6.7-1.1-13.4-1.3-20c19.8,42.9,53.2,80.9,81.3,99.2c7.3,4.7,16.2,7.2,23.4,9
		c15.9,4,22.1,0.7,23.5-1.6c1.3-2.1,1-5.1-0.8-8.6c-2.4-4.6-6.8-6.8-13.4-6.8c-5.3,0-11.3,1.5-16.7,2.7c-11.4,2.6-12.8,1.2-12.8,1.2
		C65,93.2,30.5,62.2,6.2,5.7c-1.5-3.6-2-4.6-3.9-4.2C0.4,1.8,0.5,3.7,0.5,3.7c-2.6,26.9,4.6,102.7,45.2,160.9c2.7,3.9,5,6.9,6,9.7
		c3.5,9.7-2.4,20-2.4,20c-7.2,14.4-1.8,47,12.1,48.1c8.1,0.6,13-12.2,16.9-18.2c3.8-5.9,17.3-21.4,25.5-30.3
		c8.3-8.9,10.5-15.1,1.7-21.2c-5.2-3.6-9.8-5.8-9.8-5.8S70,151.4,44.1,117.4C13.7,77.6,6.5,34.3,6.5,34.3L6.5,34.3z"/>
	<path class="st5" d="M401,181.9c-7.3-4.6-15.2-13-19.8-26.8c-7-22.2-1.2-32.8-1.2-32.8s6.2,4.8,22.2,0.2
		c16.6-4.9,24.1-5.7,53.7-34.6c34.5-35.2,51-73.6,51-73.6s0,10-1.3,20c0,0-7.3,44-38.5,84.1c-20.3,26.1-41.3,42.7-50.7,48.5
		C405.1,173.9,401,175.5,401,181.9"/>
	<path class="st1" d="M505.6,34.3c0.6-6.7,1.1-13.4,1.3-20c-19.8,42.9-53.2,80.9-81.3,99.2c-7.3,4.7-16.2,7.2-23.4,9
		c-15.9,4-22.1,0.7-23.5-1.6c-1.3-2.1-1-5.1,0.8-8.6c2.4-4.6,6.8-6.8,13.4-6.8c5.3,0,11.3,1.5,16.7,2.7c11.4,2.6,12.8,1.2,12.8,1.2
		C447,93.2,481.5,62.2,505.8,5.7c1.5-3.6,2-4.6,3.9-4.3c1.9,0.4,1.8,2.3,1.8,2.3c2.6,26.9-4.6,102.7-45.2,160.9
		c-2.7,3.9-5,6.9-6,9.7c-3.5,9.7,2.4,20,2.4,20c7.2,14.4,1.8,47-12.1,48.1c-8.1,0.6-13-12.2-16.9-18.2c-3.8-5.9-17.3-21.4-25.5-30.3
		c-8.3-8.9-10.5-15.1-1.7-21.2c5.2-3.6,9.8-5.8,9.8-5.8s25.6-15.5,51.6-49.6C498.3,77.6,505.6,34.3,505.6,34.3L505.6,34.3z"/>
	<path class="st4" d="M159.4,349.6c-5.1,23.6-4.4,52.4-4.4,52.4c0,1.5,0,1.5-1,4.8c-7.5-14.2-11.7-29.1-13.2-44.7
		c-2-20.2,0.9-36.8,10.4-61.3c6.3-11.5,12.7-22.9,21.6-32.9c13.5-15,19.3-10.5,34.9-1.9c1.5,1.1,4.6,4.2,4.6,4.2
		C195.2,281,171.3,298.4,159.4,349.6z"/>
</g>
</svg>
