<?xml version="1.0" encoding="utf-8"?>
<!-- Generator: Adobe Illustrator 27.7.0, SVG Export Plug-In . SVG Version: 6.00 Build 0)  -->
<svg version="1.1" id="Layer_1" xmlns="http://www.w3.org/2000/svg" xmlns:xlink="http://www.w3.org/1999/xlink" x="0px" y="0px"
	 viewBox="0 0 512 512" style="enable-background:new 0 0 512 512;" xml:space="preserve">
<style type="text/css">
	.st0{fill:#2B6AFF;}
	.st1{fill:#FEFEFE;}
</style>
<g>
	<path class="st0" d="M512,253.3c0,47.2,0,94.3,0,141.5c0,14.3-1,28.4-4,42.5c-4.5,21.8-16.6,38.9-33.5,52.9
		c-13.6,11.3-29.5,17.4-46.9,19.6c-12.2,1.5-24.6,2.3-37,2.2c-91.9,0-183.7,0-275.6-0.1c-13.6,0.1-27.2-1.3-40.6-4
		c-15.6-3.3-29-10.6-40.7-21.2c-12.5-11.3-22.1-24.6-27.3-40.8c-2.9-9.3-4.4-18.8-5.2-28.5C0,402.4,0,387.3,0,372.1
		C0,286.1,0,200,0.1,114c0-16,1.5-31.8,5.9-47.2c3.2-11,9-20.6,16.1-29.4C32.9,24.2,45.8,14.1,61.7,7.8c9-3.5,18.5-5.2,28.1-6.2
		C103.5,0.1,117.3,0,131.1,0c86.4,0,172.7,0,259.1,0c10,0,20,0.1,29.9,1.2C439,3.4,457,8.1,472.4,19.9c18.7,14.3,31,32.8,35.8,56
		c2.5,12.1,3.8,24.5,3.8,36.8C512,159.7,512,206.5,512,253.3z"/>
	<path class="st1" d="M314.2,234.7c-2.8,4.3-5.6,8.7-8.3,13.1c-10.4,16.4-20.4,33.1-30.6,49.7c-3.2,5.2-7.1,10-12.1,13.7
		c-15.4,11.3-31.3-0.1-33.1-13.6c-1.3-8.7-2-17.4-2.2-26.2c-0.1-10.1,0-20.3,0-30.4c0-1.5-0.1-2.9-0.2-4.4c-0.7,0-0.8,0.6-1,0.8
		c-19.2,31.7-39.3,62.8-58.9,94.2c-1.2,1.9-2.3,3.8-3.6,5.7c-0.6,0.8-0.6,1.4,0.2,2.2c19.8,20.5,43.3,34.4,71.7,38.7
		c34.5,5.3,65.8-2.4,93.9-23.3c3.4-2.5,6.5-5.5,9.9-8.1c4.1-3.2,8.7-5.2,14.1-3.9c0.8,0.1,1.4,0.5,2,1c1.3,1.3,2.5,2.4,3.9,3.5
		c4.2,3.1,4.4,7.2,3.3,11.8c-1.4,5.4-5.1,9.1-9.2,12.5c-19,15.8-40.4,27.1-64.8,32.2c-46.6,9.9-89.1,0.5-126.5-29
		c-28.5-22.5-46.7-51.8-54.6-87.4c-4.1-18.4-4.5-37-1.7-55.7c8.5-58.1,50-102.1,96.3-119.7c15-5.7,30.7-8.9,46.7-9.4
		c17.5-0.6,34.6,1,51.4,6.4c22.4,7.1,42.8,19.2,59.7,35.5c23.3,22.5,38,49.7,44.1,81.6c3,15.5,3.7,31.2,1.2,46.8
		c-3,18.8-18.3,37.5-38.9,41.4c-20.4,3.9-39.5-6.6-47.7-26.6c-3.6-8.6-4.5-17.6-4.5-26.8c0-8.5,0-16.9,0-25.3c0-0.3,0-0.6-0.1-0.8
		L314.2,234.7z"/>
	<path class="st0" d="M255.5,275.5v-12.7c0-17.4,0.1-34.9-0.1-52.3c-0.1-7.1-1.7-13.8-6.9-19.1c-4.7-4.7-11.8-6-17.8-3.4
		c-4.2,1.8-7.8,4.8-10.4,8.7c-6.2,8.7-11.3,18.1-17.1,27.1c-18.8,28.6-36.2,58-54.7,86.8c-1.5,2.3-2.7,2.4-4-0.2
		c-1.5-3.1-2.9-6.2-4.1-9.4c-5.4-13.6-8.2-28-8.4-42.6c-0.4-30.5,8.1-58.1,27.4-81.9c18.9-23.4,43.2-38.6,72.8-44
		c42.9-7.8,80.1,4.1,111.1,34.4c19.3,18.8,30.5,42.2,35,68.8c1.7,9.8,2,19.8,1,29.7c-0.8,7.3-3.7,13.6-9.5,18.3
		c-4.8,3.8-10.3,6-16.4,3.6c-6.4-2.5-9.7-7.8-10.8-14.5c-1.6-9.8-1.4-19.7-1.2-29.5c0.1-8.4,0.7-16.9-1.1-25.3
		c-2.2-9.7-7.8-16.5-17.8-19c-4.8-1.2-9.3,0.4-13.5,2.7c-6.4,3.4-11.2,8.6-15.3,14.4c-7.3,10.3-13.6,21.3-20.3,32
		c-5.6,9-11.2,17.9-16.8,26.9c-0.2,0.3-0.4,0.6-0.6,0.9L255.5,275.5z"/>
</g>
</svg>
