<?xml version="1.0" encoding="utf-8"?>
<!-- Generator: Adobe Illustrator 27.7.0, SVG Export Plug-In . SVG Version: 6.00 Build 0)  -->
<svg version="1.1" id="Layer_1" xmlns="http://www.w3.org/2000/svg" xmlns:xlink="http://www.w3.org/1999/xlink" x="0px" y="0px"
	 viewBox="0 0 512 512" style="enable-background:new 0 0 512 512;" xml:space="preserve">
<style type="text/css">
	.st0{fill:#FFFFFF;}
</style>
<path class="st0" d="M505.6,207.5c-10.3-53.4-35-99.1-74.1-136.9c-28.3-27.4-62.6-47.8-100.2-59.7c-28.2-9-57-11.6-86.3-10.7
	c-26.9,0.8-53.3,6.1-78.5,15.7C88.7,45.5,19.2,119.4,4.8,216.9c-4.7,31.4-4,62.6,2.9,93.5C21.1,370,51.6,419.3,99.5,457
	c62.8,49.4,134.1,65.2,212.3,48.6c40.9-8.6,76.8-27.5,108.8-54c6.9-5.6,13.2-11.9,15.5-20.9c1.9-7.6,1.5-14.6-5.5-19.7
	c-2.3-1.9-4.5-3.8-6.6-5.9c-0.9-0.8-2-1.4-3.3-1.6c-9.2-2.1-16.8,1.2-23.7,6.6c-5.6,4.5-10.8,9.4-16.6,13.6
	c-47.1,35-99.7,48-157.6,39.1c-47.7-7.3-87.1-30.5-120.4-64.9c-1.3-1.4-1.3-2.3-0.4-3.8c2.1-3.2,4-6.5,6-9.6
	c32.9-52.7,66.7-105,98.9-158.2c0.4-0.5,0.5-1.4,1.6-1.4c0.1,2.5,0.4,4.9,0.4,7.4c0,16.9-0.1,33.9,0,51c0.2,14.7,1.5,29.4,3.6,43.9
	c3.1,22.5,29.7,41.8,55.6,22.8c8.5-6.2,14.9-14.2,20.3-23c17-27.8,33.8-55.8,51.3-83.4c4.6-7.3,9.3-14.7,14-22l0.7,0.5
	c0.1,0.5,0.1,0.9,0.1,1.4c0,14.2,0,28.3,0,42.5c0,15.4,1.6,30.5,7.6,45c13.9,33.5,45.8,51.2,80.1,44.6c34.6-6.6,60.2-37.9,65.3-69.5
	C511.8,259.8,510.6,233.5,505.6,207.5z M463.1,272.8c-1.3,12.2-6.2,22.9-16,30.8c-8.1,6.5-17.3,10.1-27.5,6
	c-10.8-4.2-16.3-13-18.2-24.3c-2.7-16.4-2.3-33-2-49.6c0.2-14.1,1.2-28.4-1.9-42.4c-3.6-16.2-13-27.7-29.8-31.9
	c-8.1-2-15.6,0.7-22.7,4.5c-10.7,5.8-18.8,14.4-25.6,24.2c-12.2,17.3-22.8,35.7-34.1,53.7c-9.4,15-18.8,30.1-28.2,45.1
	c-0.4,0.5-0.7,1.1-1.1,1.5l-0.8-0.2v-21.3c0-29.2,0.1-58.6-0.2-87.8c-0.1-11.9-2.8-23.1-11.5-32.1c-7.9-7.9-19.7-10.1-29.9-5.8
	c-7,3.1-13,8.1-17.4,14.6c-10.3,14.7-19,30.4-28.8,45.5c-31.5,48-60.8,97.4-91.8,145.6c-2.5,3.9-4.6,4-6.7-0.4
	c-2.6-5.2-4.8-10.5-6.9-15.9c-9-22.8-13.7-47-14.1-71.5c-0.7-51.2,13.6-97.6,45.9-137.5c31.7-39.2,72.5-64.7,122.3-73.9
	c72-13.2,134.5,6.9,186.5,57.8C435,139,453.8,178.2,461.3,223C464.1,239.4,464.7,256.2,463.1,272.8z"/>
</svg>
