<?xml version="1.0" encoding="utf-8"?>
<!-- Generator: Adobe Illustrator 28.2.0, SVG Export Plug-In . SVG Version: 6.00 Build 0)  -->
<svg version="1.1" id="Layer_1" xmlns="http://www.w3.org/2000/svg" xmlns:xlink="http://www.w3.org/1999/xlink" x="0px" y="0px"
	 viewBox="0 0 512 512" style="enable-background:new 0 0 512 512;" xml:space="preserve">
<style type="text/css">
	.st0{fill:#FFFFFF;}
</style>
<path class="st0" d="M385.5,0h-259C56.6,0,0,56.6,0,126.5v259C0,455.4,56.6,512,126.5,512h259c69.9,0,126.5-56.6,126.5-126.5v-259
	C512,56.6,455.4,0,385.5,0z M193.4,358.4H78.9c-32.1,0-48.2-16.1-48.2-48.2V201.8c0-32.1,16.1-48.2,48.2-48.2h114.4
	c32.1,0,48.2,16.1,48.2,48.2l-45.8,18.1v-30.1H75.3v130.1h120.5v-33.7l45.8,24.1C241.5,342.3,225.5,358.4,193.4,358.4z M340.3,230.7
	c8,0,12,4,12,12v22.9c0,8-4,12-12,12H171.7c-8,0-12-4-12-12v-22.9c0-8,4-12,12-12H340.3z M481.3,310.2c0,32.1-16.1,48.2-48.2,48.2
	H318.6c-32.1,0-48.2-16.1-48.2-48.2l45.8-24.1v33.7h120.5V189.7H316.2v30.1l-45.8-18.1c0-32.1,16.1-48.2,48.2-48.2h114.4
	c32.1,0,48.2,16.1,48.2,48.2V310.2z"/>
</svg>
