<?xml version="1.0" encoding="utf-8"?>
<!-- Generator: Adobe Illustrator 28.2.0, SVG Export Plug-In . SVG Version: 6.00 Build 0)  -->
<svg version="1.1" id="Layer_1" xmlns="http://www.w3.org/2000/svg" xmlns:xlink="http://www.w3.org/1999/xlink" x="0px" y="0px"
	 viewBox="0 0 512 512" style="enable-background:new 0 0 512 512;" xml:space="preserve">
<g transform="translate(-574.87 -136.5)">
	<path d="M744.4,431.8c-4.8-2.4-7.5-5.9-8.3-10.6l-0.6-3.5h4.7c3.5,0,4.7,0.4,4.7,1.6c0,0.9,1.1,2.7,2.5,4c2,2,3.5,2.5,8.1,2.5
		c6.1,0,9.6-2.2,9.6-6c0-2.8-3.3-4.6-13.1-7c-4.7-1.2-9.7-2.9-11.1-4c-7.8-5.7-6.2-18,3-22.6c5-2.5,15.3-2.4,20.8,0.3
		c4.7,2.3,7.2,5.4,8.1,10c0.6,3,0.6,3-4,3c-4.1,0-4.8-0.3-6.1-2.9c-1.8-3.4-3.3-4.2-9-4.2c-6.7,0-10.4,3.8-7.9,7.9
		c0.5,0.7,5.7,2.6,11.7,4.1c13.1,3.4,15.8,5.5,16.4,12.9c0.6,6.7-1.9,11.3-7.7,14.2C760.1,434.6,750.1,434.7,744.4,431.8
		L744.4,431.8z M833.1,431.8c-4.8-2.4-7.5-5.9-8.3-10.6l-0.6-3.5h4.7c3.5,0,4.7,0.4,4.7,1.6c0,0.9,1.1,2.7,2.5,4
		c2,2,3.5,2.5,8.1,2.5c6.1,0,9.6-2.2,9.6-6c0-2.8-3.3-4.6-13.1-7c-4.7-1.2-9.7-2.9-11.1-4c-7.8-5.7-6.2-18,3-22.6
		c5-2.5,15.3-2.4,20.8,0.3c4.7,2.3,7.2,5.4,8.1,10c0.6,3,0.6,3-4,3c-4.1,0-4.8-0.3-6.1-2.9c-1.8-3.4-3.3-4.2-9-4.2
		c-6.7,0-10.4,3.8-7.9,7.9c0.5,0.7,5.7,2.6,11.7,4.1c13.1,3.4,15.8,5.5,16.4,12.9c0.6,6.7-1.9,11.3-7.7,14.2
		C848.9,434.6,838.9,434.7,833.1,431.8L833.1,431.8z M794.3,423.9c0-9.8,1-7.2-12.7-32.1l-3.5-6.3h5.9h5.9l10,20.3l9.5-20.3h5.7h5.7
		l-4.3,7.8c-2.4,4.3-6,10.9-8.1,14.7c-3.7,6.6-3.9,7.3-3.9,15.9v9h-5h-5L794.3,423.9L794.3,423.9z M881.1,413.2v-19.7H874h-7.1v-4
		v-4h19.7h19.7v4v4h-7.6h-7.6v19.7v19.7h-5h-5V413.2z M911.3,409.1v-23.7H929h17.6v4v4h-13.1h-13.1v5v5h12.1h12.1v4v4h-12.1h-12.1
		v6.6v6.6H934h13.6v4v4h-18.2h-18.2V409.1z M955.7,409.1v-23.7h7h7l1,3.8c0.5,2.1,2.4,10.2,4.3,18.1c1.8,7.9,3.4,14.2,3.6,14.1
		c0.2-0.2,1.9-7.3,3.9-15.9c2-8.6,3.8-16.6,4.1-17.8c0.5-2.1,1.1-2.3,7.6-2.3h7v23.7v23.7h-4.5H992l-0.5-36.8l-8.1,36.3l-5.1,0.3
		l-5.1,0.3l-4-18.5l-4-18.5l-0.5,36.8h-4.5h-4.5L955.7,409.1L955.7,409.1z M1015.2,365.7c-4.6-2-7.8-5-10.4-10
		c-1.7-3.2-2.2-5.8-2.2-12.6c0-10.6,2.7-16.9,9.4-21.6c5.7-4,16.6-4.8,23.6-1.8c4.9,2.2,9.7,7.5,10.1,11.4c0.3,2.3-0.1,2.5-4.4,2.8
		c-4,0.3-4.8,0-5.4-1.7c-1.7-5.5-10.4-7.9-16.7-4.6c-8.9,4.6-9.3,24.5-0.6,29.8c5.9,3.6,13.1,2,16.8-3.7c3.1-4.7,2.6-5.5-3.6-5.5
		h-5.5v-4v-4h10.1h10.1v13.1v13.1h-3.5c-3.1,0-3.5-0.3-3.5-2.5c0-2.9-1.2-3.2-3.2-0.9C1032.7,367.2,1021.9,368.6,1015.2,365.7
		L1015.2,365.7z M737.8,342.6v-23.7l12.9,0c10.3,0,13.6,0.4,16.3,1.8c8.7,4.4,9.6,18.2,1.6,25.5c-2.4,2.2-3.8,2.6-11.7,2.9l-9,0.4
		v8.5v8.5h-5h-5V342.6L737.8,342.6z M762,339c1.2-1.2,2-3.4,2-5.5c0-4.8-2.9-6.6-10.3-6.6h-5.8v7.1v7.1h6.1
		C758.7,341.1,760.5,340.6,762,339L762,339z M782.2,342.6v-23.7h14.2c16.2,0,20,1,23.1,6.2c3.4,5.6,1.9,14.3-2.9,16.9
		c-1.8,1-1.8,1.2,1,4c2.7,2.7,3,3.5,3,10.4c0,4.6,0.5,7.9,1.3,8.7c1,1,0.1,1.2-4.8,1l-6.1-0.3l-0.5-7.9c-0.6-9.9-1.6-10.8-11.8-10.8
		h-7.4v9.6v9.6h-4.5h-4.5L782.2,342.6L782.2,342.6z M809.6,337.4c2.4-2.2,2.3-5.9-0.2-8.4c-1.7-1.7-3.4-2-10.1-2h-8.1v6.1v6.1h8.2
		C805.8,339,808.2,338.6,809.6,337.4z M829.6,342.6v-23.7h5h5v23.7v23.7h-5h-5V342.6z M848.8,342.5v-23.8l10.3,0.6l18.4,31.8
		l0.3-16.2l0.3-16.2h4.5h4.5v23.7v23.7h-5h-5l-19.3-33.8l0,33.8h-4.5h-4.5V342.5z M907.3,346.6v-19.7h-7.1h-7.1v-4v-4h19.7h19.7v4v4
		h-7.6h-7.6v19.7v19.7h-5h-5V346.6z M936.5,342.6v-23.7h5h5v23.7v23.7h-5h-5V342.6z M955.7,342.5v-23.8l10.3,0.6l18.4,31.8l0.3-16.2
		l0.3-16.2h4.5h4.5v23.7v23.7h-5h-5l-19.3-33.8l0,33.8h-4.5h-4.5V342.5z M746,298.6c-7.2-3.7-8.1-6.9-8.2-28.4l0-17.9h5h5l0.3,18.2
		c0.3,17.8,0.4,18.3,2.7,20.2c3.5,2.8,9.7,2.6,12.8-0.5c2.4-2.4,2.5-2.7,2.5-20.2v-17.7h5.1h5.1l-0.3,19.1
		c-0.3,20.9-0.6,21.7-7.3,26.7C764.4,301.3,751.9,301.6,746,298.6L746,298.6z M786.2,276v-23.8l10.3,0.6l18.4,31.8l0.3-16.2
		l0.3-16.2h4.5h4.5V276v23.7h-5h-5l-19.3-33.8l0,33.8h-4.5h-4.5V276z M833.7,276v-23.7h5h5V276v23.7h-5h-5V276z M850.4,296.9
		c1-1.5,4.5-7,7.8-12.2l5.9-9.4l-5.8-9.2c-3.2-5.1-6.5-10.3-7.3-11.5c-1.4-2.3-1.4-2.3,4.5-2.3h6l4,7.1c2.2,3.9,4.2,7.1,4.5,7.1
		c0.3,0,2.4-3.2,4.5-7.1l4-7.1l5.8,0l5.8,0l-3.7,5.8c-2,3.2-5.3,8.2-7.2,11.2s-3.2,5.9-3,6.6c0.3,0.7,3.7,6.2,7.6,12.3l7.1,11.1
		l-5.1,0.3c-2.8,0.2-5.6,0.1-6.2-0.1c-0.6-0.2-2.9-3.7-5.1-7.6c-2.2-4-4.3-7.2-4.7-7.2c-0.4,0-2.7,3.4-5.1,7.6l-4.3,7.6h-6h-6
		L850.4,296.9z"/>
	<path d="M816,648c-19.7-1.3-46.3-7.1-63.8-13.8c-28-10.7-50.4-25.5-70.9-46.6c-35.4-36.6-56.3-85.5-64.2-150.6
		c-2.5-20.4-2.5-70.4,0-89.7c9-70.7,36.4-125.5,81.4-162.9c47.6-39.6,118-56,188.3-43.8c31.1,5.4,60.2,17.4,84.2,34.7
		c11.3,8.2,30.1,27.2,38.4,38.9c8.5,11.9,18.7,32.4,23.4,46.7c3.1,9.6,7.6,29.4,7.6,33.5c0,1.2-4.7,1.5-31.7,1.5h-31.7l-1.1-4.3
		c-14.4-58-55.7-90.6-120.9-95.6c-56.1-4.3-105.2,17.4-135.9,60.1c-13.9,19.2-25.7,47.6-31,74.1c-4.1,20.8-5.2,33.1-5.2,60
		c0,26.1,1.2,42.2,4.6,62c11.6,67.7,44.4,111.7,96.2,129c28.3,9.4,66.5,11.4,92.8,4.7c51.3-13,85.8-52,101.9-115l3.3-13.1l63.8-0.5
		l-0.7,3.8c-12.5,72-41,120.3-90.3,153.4C918.4,638.4,865.4,651.3,816,648L816,648z"/>
</g>
</svg>
