<?xml version="1.0" encoding="utf-8"?>
<!-- Generator: Adobe Illustrator 28.2.0, SVG Export Plug-In . SVG Version: 6.00 Build 0)  -->
<svg version="1.1" id="Layer_1" xmlns="http://www.w3.org/2000/svg" xmlns:xlink="http://www.w3.org/1999/xlink" x="0px" y="0px"
	 viewBox="0 0 512 512" style="enable-background:new 0 0 512 512;" xml:space="preserve">
<style type="text/css">
	.st0{fill:#FAA61A;}
	.st1{fill:#1D284C;}
</style>
<g>
	<g>
		<g>
			<g>
				<path class="st0" d="M357.7,400.6v-62.9c0-4.8,3.7-8.8,8.5-9.4c36.2-4.2,64.3-35,64.3-72.3s-28.2-68.1-64.3-72.3
					c-4.8-0.6-8.5-4.5-8.5-9.4v-62.9c0-5.4,4.6-9.8,10-9.4c80.5,5.1,144.4,72.3,144.4,154c0,81.8-63.9,148.9-144.4,154
					C362.2,410.3,357.7,406,357.7,400.6z"/>
			</g>
		</g>
		<g>
			<path class="st0" d="M333,215.2h-97.4h-86.3H44.7v15.5h95.2h95.7v15.5h-95.7v41.2c0,5.2,4.2,9.4,9.4,9.4H333
				c5.2,0,9.4-4.2,9.4-9.4v-62.7C342.4,219.4,338.2,215.2,333,215.2z"/>
			<path class="st0" d="M333,328.8h-97.4h-86.3H89.5v15.5h50.5h95.7v15.5h-95.7v41.2c0,5.2,4.2,9.4,9.4,9.4H333
				c5.2,0,9.4-4.2,9.4-9.4v-62.7C342.4,333,338.2,328.8,333,328.8z"/>
			<path class="st0" d="M333,101.7h-97.4h-86.3H0v15.5h139.9h95.7v15.5h-95.7v41.2c0,5.2,4.2,9.4,9.4,9.4H333c5.2,0,9.4-4.2,9.4-9.4
				V111C342.4,105.9,338.2,101.7,333,101.7z"/>
		</g>
	</g>
	<circle class="st1" cx="300.6" cy="369.5" r="16.5"/>
	<circle class="st1" cx="300.6" cy="256" r="16.5"/>
	<circle class="st1" cx="300.6" cy="142.4" r="16.5"/>
</g>
</svg>
