<?xml version="1.0" encoding="utf-8"?>
<!-- Generator: Adobe Illustrator 27.7.0, SVG Export Plug-In . SVG Version: 6.00 Build 0)  -->
<svg version="1.1" id="Layer_1" xmlns="http://www.w3.org/2000/svg" xmlns:xlink="http://www.w3.org/1999/xlink" x="0px" y="0px"
	 viewBox="0 0 512 512" style="enable-background:new 0 0 512 512;" xml:space="preserve">
<style type="text/css">
	.st0{fill:#FFFFFF;}
</style>
<g>
	<path class="st0" d="M115.7,254c-1.8,1.8-3.1,6.1-3.1,9.7c0,8.4,4.4,12.8,12.8,12.8s12.8-4.4,12.8-12.8c0-3.6-1.3-7.9-3.1-9.7
		C131.3,250.1,119.6,250.1,115.7,254z"/>
	<path class="st0" d="M384,0H128C57.3,0,0,57.3,0,128v256c0,70.7,57.3,128,128,128h256c70.7,0,128-57.3,128-128V128
		C512,57.3,454.7,0,384,0z M345.6,337.9c-13.8,11-57.6,30.5-74.2,33.3c-9.2,1.3-49.2,2.6-88.6,2.6c-78.1,0-84.7-1-102.1-14.3
		c-7.9-5.9-19.2-20.7-19.2-25.1c0-0.8,65.3-1.5,145.4-1.5C351.7,332.8,352,332.8,345.6,337.9z M457.5,233.5
		c-5.4,7.7-14.6,12.5-30.2,15.9c-5.1,1-9.5,6.1-17.2,18.9c-13.3,22.3-32.8,45.8-41.7,50.7c-5.9,3.1-32,3.6-157.2,3.6H60.9l1-50.7
		c0.8-49.9,0.8-50.7,8.2-65.3c13.6-26.6,41.2-47.4,73.2-54.8c19.2-4.4,60.9-2.3,80.9,3.8c8.7,2.8,22.5,8.4,30.7,13.1
		c14.8,7.9,20.7,12,74.5,53.2c25.9,20,46.3,30.2,57.3,28.4c4.9-0.5,3.3-2.3-9.2-9.7c-16.4-9.5-21.5-18.2-22.5-38.4l-0.5-9l12.3,0.8
		c18.4,1.3,34,9,40.7,20l5.4,9.2l4.6-8.7c5.1-10,15.6-15.9,32.3-18.7c9.2-1.5,11-1,13.6,3.8C467.2,206.8,464.4,223,457.5,233.5z"/>
</g>
</svg>
