<?xml version="1.0" encoding="utf-8"?>
<!-- Generator: Adobe Illustrator 28.2.0, SVG Export Plug-In . SVG Version: 6.00 Build 0)  -->
<svg version="1.1" id="Layer_1" xmlns="http://www.w3.org/2000/svg" xmlns:xlink="http://www.w3.org/1999/xlink" x="0px" y="0px"
	 viewBox="0 0 512 512" style="enable-background:new 0 0 512 512;" xml:space="preserve">
<style type="text/css">
	.st0{fill:#B5BEFB;}
	.st1{fill:#FBBF74;}
	.st2{fill:#F2BB78;}
	.st3{fill:#637E63;}
	.st4{fill:#15CD9D;}
	.st5{fill:#00FFFF;}
	.st6{fill:#5C818F;}
	.st7{fill:#41C99D;}
	.st8{fill:#2CC4AC;}
	.st9{fill:#47C698;}
	.st10{fill:#00FF99;}
	.st11{fill:#2CC79F;}
	.st12{fill:#48D09A;}
	.st13{fill:#449678;}
	.st14{fill:#4CD298;}
	.st15{fill:#5CCD95;}
	.st16{fill:#31C5B1;}
	.st17{fill:#7F9DA3;}
	.st18{fill:#2E2B2B;}
	.st19{fill:#000100;}
	.st20{fill:#FFFEFD;}
	.st21{fill:#FDA836;}
	.st22{fill:#FDBD73;}
	.st23{fill:#F7A543;}
	.st24{fill:#FFBD76;}
	.st25{fill:#EFC381;}
	.st26{fill:#2E2C2A;}
	.st27{fill:#FA6874;}
	.st28{fill:#54E6DD;}
	.st29{fill:#2E2C2B;}
</style>
<g>
	<path class="st0" d="M227.7,22.3c1.3-8.5,6.7-14.2,13.1-19.1c1.6-1.2,3.6-2,5.2-3.1C252.7,0,259.5,0,266.6,0
		c1.8,1.1,3.3,2.3,4.9,3.2c7.2,3.9,12,9.6,14.5,17.4c0.2,0.7,0.2,1.6,0.5,2.7c-0.1,4.9-0.4,9.3-0.8,13.8c-1.2,6.3-4.9,11-9.8,14.9
		c-0.5,0.4-0.9,0.8-1.7,1.4c-0.6,0.5-0.9,0.7-1.5,1.3c1.6,0.1,2.8,0.3,3.9,0.3c16.8,0.5,33.6-1.2,50.3,1.3c0,0,0,0,0.1,0.1
		c0.8,0.2,1.4,0.3,2,0.4c0,0,0.2,0.1,0.5,0.3c1.1,0.4,1.9,0.6,2.8,0.8c0,0,0.2,0.1,0.4,0.3c1.6,0.8,3,1.3,4.4,1.9
		c0,0,0.2,0.1,0.4,0.3c0.3,0.2,0.5,0.2,0.7,0.3c0,0,0.2,0.1,0.4,0.3c0.2,0.2,0.4,0.3,0.4,0.3l0.3-0.1c0,0,0,0,0.1,0.2
		c0.5,0.4,1,0.7,1.6,0.9c0,0,0.1,0,0.1,0.2c0.6,0.4,1.1,0.7,1.8,0.9c0.3,0.1,0.5,0.1,0.7,0.3c3.8,4.3,8,8.2,11.2,12.7
		c5.4,7.6,8.4,16.2,8,25.7c-14.3,0-28.4,0.1-42.5,0.1c-53.6,0-107.3,0.1-160.9-0.1c0.8-12.7,5.7-23.4,14.6-32.2c2-2,4.1-3.9,6.2-5.9
		c0.7-0.6,1.2-1.1,1.7-1.6c0,0,0,0,0.2,0c0.3-0.1,0.5-0.3,0.7-0.5c0,0,0-0.1,0.2,0c0.4-0.1,0.6-0.3,0.8-0.6c0,0,0-0.1,0.2,0
		c0.5-0.1,0.8-0.3,1.1-0.5c3.3-1.5,6.6-2.9,10.2-4.3c15.1-3.3,30.2-0.7,45.2-1.9c-0.2-0.4-0.3-0.6-0.5-0.8c-0.4-0.3-0.9-0.6-1.3-0.9
		c-2.4-2.5-5.2-4.8-7-7.6c-1.8-2.8-2.5-6.2-3.7-9.7C227.7,30.7,227.7,26.5,227.7,22.3 M248.1,22.9c-4.6,7.1-0.7,15.3,6.8,16.8
		c5.2,1,11.8-3.7,12.7-8.3c0.8-4-0.6-6.8-2.8-9.5C260.5,16.9,252.4,17.6,248.1,22.9z"/>
	<path class="st1" d="M179.7,63.9c-2,2-4.1,3.9-6.1,5.9c-8.9,8.8-13.8,19.4-14.7,32.4c-0.2,3.8-0.3,7.2-0.3,10.6
		c-0.1,11.8,3.1,15,14.8,15c57.8,0,115.6,0,173.4,0c2,0,3.9,0,5.9-0.1c5.3-0.3,9.9-4.8,10-10c0.1-5.2,0-10.4-0.1-15.5
		c0.1-9.5-2.8-18.1-8.3-25.7c-3.2-4.5-7.4-8.4-10.9-12.7c9.8-0.2,19.4-0.3,29.1-0.3c8.8,0.1,17.2,1.8,25.4,5
		c6.5,2.5,12.4,6.2,17.9,11c0.5,0.4,0.8,0.5,1,0.6c0,0,0,0,0,0.2c0.4,0.4,0.7,0.6,1,0.9c0,0,0,0,0.1,0.1c0.2,0.3,0.3,0.4,0.5,0.4
		c0,0,0,0,0.1,0.1c0.2,0.3,0.3,0.4,0.5,0.4c0,0,0,0,0,0.2c2.1,2.5,4.2,4.7,6.3,7c11,12.3,16.3,26.9,16.6,43.2
		c0.2,13.3,0.5,26.6-1.3,39.9c-1.1,7.7-0.2,15.5,0.9,23.3c0.9,6.1,1.6,12.4-1.3,18.3c-0.4,0.7-0.3,1.7-0.3,2.6
		c0.1,3.6,0.5,7.1,0.5,10.7c-0.1,7.8-0.3,15.6-0.5,23.4c0,0.7-0.2,1.4-0.3,2.1c-0.8,4.1-2.1,8.2-2.2,12.3c-0.4,16-0.5,31.9-0.6,47.9
		c0,1-0.1,2-0.1,3c-0.3,0-0.6,0-1,0c-0.2-1.7-0.4-3.3-0.4-5c0-2.1,0.5-4.3,0.4-6.4c-0.1-4.9-0.4-9.8-0.5-14.7
		c-0.1-7.2,0-14.5,0-21.7c0-1.5,0.1-3.2-2.1-3.6c-0.4-8.7-0.1-17.2-1.2-25.6c-1.7-13.7-7.8-25.7-17.3-35.7
		c-6.2-6.5-12.8-12.7-19.4-18.8c-2-1.9-4.4-3.3-6.7-5c-6.9-5-14.4-8.5-22.6-10.3c-0.6-0.1-1.3,0.2-2.2,0.3c-6.5-2.5-13-3.8-19.8-3.8
		c-57.9,0-115.8,0-173.6,0.1c-2.8,0-5.7,0.2-8.5,0.7c-28.5,4.7-48.6,28.4-48.8,57.3c-0.1,13.5,0,27,0,40.5c0,49.7,0,99.3,0,149
		c0,12.6,3.5,24.2,11.1,34.3c2.6,3.4,5.8,6.3,8.6,9.5c-0.2,0.2-0.1,0.4,0.1,0.5c0,0,0,0,0.1,0.1c0.4,0.2,0.7,0.3,1,0.4
		c0,0,0,0,0,0.2c0.6,1.1,1.1,2.2,1.9,3c3.8,4.3,7.7,8.4,11.4,12.8c5.6,6.6,12,12.2,19.6,16.3c11.8,6.4,24.4,9.4,37.8,8.7
		c-3.1,1-6.1,1.7-9.2,2.5c-3.2,0.8-6.2,0.8-9.3-0.8c-2.4-1.3-5.1-2.6-7.7-2.7c-2.9-0.2-5.1-1.1-7.4-2.6c-0.4-0.3-0.9-0.4-1.8-0.8
		c0.6,1.6,1.1,2.6,1.6,3.8c-2.7,1.2-6.1,0.3-7.7,3.4c-0.1,0.2-0.5,0.2-0.7,0.2c-5.7-0.2-11.5-0.4-17.2-0.8c-3.3-0.2-6.6-0.4-9.2,2.2
		c-1.2,1.3-2.3,1.3-3.7,0.4c-1.3-0.8-2.7-1.6-4.1-1.8c-4.9-0.6-9.6-1.8-13.8-4.5c-3.7-2.3-7.6-4.2-11.2-6.5c-2.9-1.9-5.5-4.1-8-6.4
		c-2.3-2.1-4.1-4.8-6.6-6.8c-2.7-2.2-3.4-5.4-5.2-8c-1.3-2-2.2-4.2-3.2-6.4c-0.6-1.3-1.6-2.7-1.6-4.1c-0.1-5.9-2.7-10.9-5.6-15.9
		c-0.2,2.3-0.6,4.7-0.2,6.9c1.3,7.6,3.9,14.9,7,22c0.5,1.2,0.6,2.1-1.1,2.3c-2.6-6.7-5.1-13.3-7.6-20c-0.2-0.2-0.3-0.3-0.5-0.4
		c0,0,0,0,0.1-0.1c-0.1-1.3-0.4-2.5-0.7-3.6c0,0,0,0,0.1-0.2c-0.1-1.7-0.2-3.2-0.3-4.9c0-4.4-0.2-8.6-0.1-12.8
		c0-101.1,0.1-202.2,0.2-303.4c0.9-9.4,3.4-18.1,7.6-26.3c0.3-0.6,0.4-1.3,0.6-2c1.3-1.9,2.5-3.8,4-5.9c1.9-2.4,3.5-4.6,5.2-6.8
		c0,0,0,0,0.2,0c2.5-2.1,4.7-4.2,7-6.3c1.4-1.3,2.7-2.6,4.1-3.9c0,0,0,0,0.2,0.1c0.8-0.5,1.4-1.1,2-1.7c0,0,0,0,0.2,0.1
		c1-0.5,1.7-1.1,2.5-1.7c0,0,0,0,0.2,0.1c0.6-0.4,1-0.7,1.4-1.1c0,0,0,0,0.2,0.1c2.7-1.3,5.3-2.6,8-3.9c3.9-1.4,7.6-2.8,11.3-4.2
		c0,0,0.1,0,0.3,0c0.3,0,0.5,0,0.8,0c4.2-0.7,8.1-1.3,12.4-2c13.3,0,26.4,0,39.5,0C178.2,63.4,179,63.7,179.7,63.9z"/>
	<path class="st2" d="M433,264.8c2.3,0.1,2.1,1.8,2.1,3.3c0,7.2-0.1,14.5,0,21.7c0.1,4.9,0.4,9.8,0.5,14.7c0,2.1-0.4,4.2-0.4,6.4
		c0,1.7,0.3,3.3,0.4,5c0.3,0,0.6,0,1,0c0-1,0.1-2,0.1-3c0.2-16,0.2-31.9,0.6-47.9c0.1-4.1,1.5-8.2,2.2-12.3c0.1-0.7,0.3-1.4,0.3-2.1
		c0.2-7.8,0.5-15.6,0.5-23.4c0-3.6-0.3-7.1-0.5-10.7c0-0.9-0.1-1.9,0.3-2.6c2.9-5.9,2.2-12.2,1.3-18.3c-1.1-7.8-2-15.7-0.9-23.3
		c1.8-13.3,1.5-26.6,1.3-39.9c-0.2-16.3-5.6-30.9-16.6-43.2c-2.1-2.3-4.2-4.5-6.3-7c3.3,3.2,6.9,6.3,9.9,9.9
		c4.6,5.4,7.7,11.8,10.1,18.4c1.7,4.7,2.3,9.9,3.2,14.9c0.4,2.2,0.5,4.6,0.5,6.9c0,42.3,0,84.5,0,126.8c0,3.8,0.1,7.7,0.1,11.5
		c0.2,38.5,0.3,77,0.5,115.5c0.1,18.6,0.3,37.2-0.1,55.7c-0.2,8.5-2,16.8-5.3,24.8c-5.2,12.7-13.6,23-24.5,31.1
		c-4.1,3-8.7,5.3-13.3,7.6c-5.4,2.7-11.1,4.5-17.5,5.1c-0.7,0-0.9,0-1.2-0.1c0-0.1,0-0.3,0.2-0.3c13.9-2.6,26-8.3,36.6-17.5
		c9.2-8,15.7-17.6,19.7-29c1.1-3.1,2.9-6.2,0.9-9.7c-0.3-0.5-0.1-1.3,0-1.8c1.8-7.3-0.3-14.3-1.8-21.3c-0.1-0.5-0.6-0.9-0.9-1.4
		c-1.1,1.2-0.4,4.2-3.3,2.7c0-4.9,0.1-9.5,0.1-14.2C433,366.7,433,315.8,433,264.8 M442.1,294.1c0-7.1,0-14.3,0-21.4
		c-0.1,0-0.3,0-0.4,0c0,36.6,0,73.3,0,109.9c0.1,0,0.3,0,0.4,0C442.1,353.2,442.1,323.9,442.1,294.1 M441.6,238.3c0,7.5,0,15,0,22.5
		c0.1,0,0.2,0,0.3,0c0-10.9,0-21.8,0-32.7c-0.1,0-0.2,0-0.3,0C441.6,231.4,441.6,234.6,441.6,238.3 M441.6,433.2
		c0,0.6,0.1,1.2,0.1,1.9c0.1,0,0.2,0,0.3,0c0-10.4,0-20.7,0-31.1c-0.1,0-0.3,0-0.4,0C441.6,413.5,441.6,423.1,441.6,433.2
		 M435.7,322.5c0,1,0,2,0,3c0.2,0,0.5,0,0.7,0c0-1.8,0-3.6,0-5.4c-0.2,0-0.4,0-0.5,0C435.8,320.7,435.8,321.4,435.7,322.5
		 M441.6,225.1c0.1,0.1,0.1,0.3,0.2,0.4c0.1,0,0.2-0.1,0.2-0.1c0-0.5,0-1.1,0-1.6c-0.1,0-0.2,0-0.3,0
		C441.7,224.1,441.6,224.5,441.6,225.1z"/>
	<path class="st3" d="M381.6,510.2c0.2,0,0.5,0,0.9,0.1c-2.1,0.6-4.3,1.6-6.6,1.6c-59.4,0.1-118.9,0.1-178.3,0.1
		c-20.7,0-41.4,0.1-62.1,0c-2.1,0-4.2-0.8-6.2-1.5c13.1,0,26,0.2,39.2,0.5c18.6,0,37,0,55.4,0c48.5,0,96.9,0,145.4,0
		c3.1,0,6.2-0.4,9.4-0.5c0.1,0,0.3,0,0.5,0C380.1,510.4,380.8,510.3,381.6,510.2z"/>
	<path class="st4" d="M69.9,129.2c-0.1,101.1-0.1,202.2-0.2,303.2c0,4.2,0.1,8.4,0.1,12.8c-0.1,0.2-0.3,0.3-0.3,0.3
		c-0.2-3-0.3-5.9-0.5-8.9c-0.1-1.5,0-3,0-5c0-44.6,0-88.7,0-132.8c0-0.9-0.3-1.9-0.4-2.8c0-1.1,0-2.2,0.1-3.7
		c0.2-0.9,0.3-1.3,0.3-1.7c0-15.2,0-30.4,0-45.6c0-0.7-0.3-1.4-0.4-2c0-16.5-0.1-33-0.1-49.5c0-21,0-42.1,0-63.1c0-1,0.4-2,0.9-2.9
		C69.7,128,69.8,128.6,69.9,129.2z"/>
	<path class="st5" d="M68.5,296.2c0.2,0.7,0.5,1.6,0.5,2.6c0,44.1,0,88.2,0,132.6c-0.2-0.6-0.5-1.4-0.5-2.2
		C68.5,384.9,68.5,340.7,68.5,296.2z"/>
	<path class="st1" d="M168.2,510.9c-12.9-0.2-25.9-0.4-39.1-0.6c-0.3,0-0.4,0-0.7-0.1c-0.9-0.3-1.7-0.5-2.1-0.8
		c3.1-1.7,6-0.3,8.9-0.3c3.2,0,6.4,0.6,9.5,0.6c7.2,0,14.4-0.3,21.6-0.4c0.8,0,1.6,0.7,2.3,1.1C168.4,510.6,168.3,510.8,168.2,510.9
		z"/>
	<path class="st6" d="M326.7,56.2c-16.6-2.3-33.4-0.6-50.2-1.1c-1.1,0-2.3-0.2-3.9-0.3c0.7-0.6,1-0.8,1.4-1.2
		c1.1,0.2,2.1,0.6,3.1,0.6c13.2,0,26.4-0.1,39.7,0.1C320.1,54.3,323.4,55.4,326.7,56.2z"/>
	<path class="st7" d="M71.1,454.6c2.5,6.6,5,13.1,7.6,20c0.3,0.5,0.5,0.8,0.7,1.2c1,1.6,1.9,2.9,2.8,4.4c0,0.1,0.1,0.2,0.2,0.3
		c0.1,0.3,0.2,0.4,0.4,0.4c0,0,0,0,0,0.1c0.2,0.3,0.3,0.5,0.5,0.7c0,0.1,0.1,0.2,0.2,0.3c0.1,0.3,0.2,0.4,0.4,0.4c0,0,0,0,0,0.1
		c0.2,0.3,0.3,0.4,0.5,0.7c0.2,0.4,0.4,0.6,0.6,0.9c0.1,0.3,0.3,0.4,0.5,0.4c0,0,0,0,0,0.1c0.2,0.2,0.3,0.3,0.5,0.4c0,0,0,0,0,0.1
		c0.2,0.3,0.3,0.4,0.5,0.7c0.7,0.9,1.4,1.6,2.2,2.5c0.2,0.2,0.3,0.3,0.5,0.4c0,0,0,0,0.1,0.2c0.9,0.9,1.8,1.7,2.6,2.5
		c0,0,0,0,0.1,0.1c0.1,0.3,0.3,0.4,0.5,0.4c0,0,0,0,0.1,0.1c0.2,0.3,0.3,0.4,0.5,0.5c0.3,0.2,0.5,0.4,0.8,0.6c0.8,0.8,1.5,1.4,2,2.2
		c-0.1,0.1-0.3,0.3-0.3,0.3c-2.3-1.9-4.8-3.5-6.8-5.6c-2.9-3.1-5.7-6.4-7.9-10c-2.9-4.9-5.5-10.1-7.8-15.3
		c-1.3-3.1-1.8-6.6-2.6-10.1C70.9,454.6,71.1,454.6,71.1,454.6z"/>
	<path class="st8" d="M238.4,52.9c0.5,0.1,0.9,0.4,1.3,0.8c0.2,0.2,0.3,0.4,0.5,0.8c-15,1.2-30.1-1.3-45,2c1.4-0.6,2.8-1.4,4.4-1.7
		c2.7-0.4,5.4-0.6,8.2-0.6c9.7-0.1,19.5,0,29.2-0.1C237.4,54.1,239.1,55.1,238.4,52.9z"/>
	<path class="st9" d="M70,129c-0.2-0.4-0.3-1-0.4-1.8c0.6-6.8,1.4-13.3,4.8-19.2c1.3-2.3,2.3-4.7,3.6-7.2c0,0.6-0.1,1.3-0.4,1.9
		C73.3,110.9,70.8,119.6,70,129z"/>
	<path class="st10" d="M68.5,243.1c0.2,0.4,0.5,1.1,0.5,1.8c0,15.2,0,30.4,0,45.6c0,0.4-0.1,0.9-0.3,1.5
		C68.5,275.9,68.5,259.6,68.5,243.1z"/>
	<path class="st11" d="M179.9,63.8c-0.9-0.1-1.7-0.4-2.4-0.4c-13.1,0-26.2,0-39.6-0.1c-0.3-0.3-0.3-0.4-0.3-0.5
		c11.6,0,23.1,0,34.7-0.1c3,0,5.9-0.3,9.2-0.5C181.1,62.7,180.6,63.3,179.9,63.8z"/>
	<path class="st12" d="M98.3,77.7c-1.2,1.3-2.5,2.6-3.9,3.9c-2.3,2.1-4.5,4.2-7,6.3c1.3-1.9,2.7-3.9,4.4-5.5
		C93.8,80.7,96,79.3,98.3,77.7z"/>
	<path class="st13" d="M372.5,63.1c-9.5,0.2-19.1,0.3-29,0.4c-0.5,0-0.6,0-0.9-0.2c-0.1-0.1-0.1-0.4-0.1-0.4
		C352.4,62.9,362.4,62.9,372.5,63.1z"/>
	<path class="st7" d="M126.1,509.5c0.7,0.2,1.4,0.4,2.3,0.7c-5.6-0.3-11.1-1.6-16.3-4.5c0-0.2,0-0.3,0.2-0.3c3.2,1,6.2,2,9.2,3
		c0,0,0,0,0.1,0.1c0.4,0.2,0.7,0.2,1.1,0.3c0.3,0.1,0.5,0.1,0.8,0.2c0.5,0.2,0.8,0.2,1.3,0.3C125.4,509.4,125.7,509.4,126.1,509.5z"
		/>
	<path class="st14" d="M124.2,65.5c-3.4,1.4-7.1,2.8-11,4.1c-0.2-0.1-0.2-0.3-0.2-0.3C116.6,68,120.3,66.7,124.2,65.5z"/>
	<path class="st15" d="M137.4,62.8c0.2,0.1,0.2,0.2,0.3,0.5c-4,0.8-7.9,1.5-12.1,2.1c-0.2-0.1-0.2-0.3-0.2-0.3
		C129.3,64.2,133.2,63.5,137.4,62.8z"/>
	<path class="st12" d="M112.8,69.2c0.2,0,0.2,0.2,0.2,0.3c-2.5,1.4-5.1,2.7-7.8,3.9C107.5,72,110,70.6,112.8,69.2z"/>
	<path class="st16" d="M227.6,22.5c0.2,4.1,0.1,8.2,0.1,12.7c-0.3-0.5-1-1.3-0.9-2C226.8,29.6,227.1,26.1,227.6,22.5z"/>
	<path class="st12" d="M87.1,88c-1.5,2.2-3.2,4.4-5,6.6C83.6,92.4,85.3,90.2,87.1,88z"/>
	<path class="st7" d="M111.9,505.5c-2.5-1.1-5-2.2-7.4-3.6c0-0.3,0.2-0.4,0.3-0.4c2.5,1.3,4.9,2.5,7.2,3.8
		C112.1,505.3,112,505.5,111.9,505.5z"/>
	<path class="st17" d="M285.9,37c0.1-4.4,0.4-8.9,0.7-13.6C287.6,27.8,287.8,32.4,285.9,37z"/>
	<path class="st7" d="M101.9,500.6c-2-1.4-4-2.9-6.1-4.5c-0.1-0.2,0.1-0.4,0.3-0.4c0.4,0.1,0.5,0.1,0.8,0.2c0.3,0.3,0.5,0.4,0.8,0.8
		c1.6,1.3,3,2.4,4.4,3.6C102,500.4,102,500.5,101.9,500.6z"/>
	<path class="st6" d="M337,59.9c-1.4-0.4-2.8-0.9-4.3-1.6C334.1,58.7,335.5,59.2,337,59.9z"/>
	<path class="st9" d="M69.5,445.7c0-0.2,0.2-0.3,0.2-0.3c0.2,1.5,0.4,2.9,0.4,4.7C69.9,448.9,69.7,447.4,69.5,445.7z"/>
	<path class="st9" d="M70.1,450.5c0.3,0.9,0.6,2.1,0.7,3.4C70.5,453,70.3,451.9,70.1,450.5z"/>
	<path class="st12" d="M103.2,74.5c-0.6,0.6-1.4,1.1-2.3,1.7C101.4,75.6,102.2,75.1,103.2,74.5z"/>
	<path class="st7" d="M104.4,501.8c-0.8-0.2-1.6-0.6-2.4-1c0-0.2,0-0.3,0.4-0.5c0.9,0.4,1.6,0.8,2.3,1.2
		C104.7,501.5,104.5,501.7,104.4,501.8z"/>
	<path class="st12" d="M100.5,76.1c-0.4,0.6-1,1.2-1.8,1.7C99.1,77.2,99.7,76.7,100.5,76.1z"/>
	<path class="st6" d="M332.1,57.8c-0.8,0-1.6-0.3-2.6-0.6C330.3,57.2,331.2,57.4,332.1,57.8z"/>
	<path class="st6" d="M342.3,62.8c0.2,0.1,0.2,0.3,0.2,0.4c-0.5-0.1-1.1-0.3-1.7-0.8C341.2,62.4,341.7,62.6,342.3,62.8z"/>
	<path class="st12" d="M104.8,73.5c-0.2,0.4-0.7,0.8-1.3,1.1C103.7,74.2,104.2,73.8,104.8,73.5z"/>
	<path class="st6" d="M328.9,56.7c-0.5,0.1-1.2,0-1.9-0.2C327.5,56.4,328.2,56.5,328.9,56.7z"/>
	<path class="st6" d="M340.7,62.1c-0.5-0.1-1-0.3-1.5-0.7C339.6,61.4,340.2,61.7,340.7,62.1z"/>
	<path class="st2" d="M418,80.8c-0.3-0.1-0.6-0.3-1-0.7C417.3,80.1,417.6,80.4,418,80.8z"/>
	<path class="st2" d="M416.9,79.7c-0.2,0.1-0.5,0-0.9-0.2C416.2,79.4,416.5,79.5,416.9,79.7z"/>
	<path class="st11" d="M184.6,60.6c-0.1,0.2-0.4,0.5-0.9,0.6C183.8,61,184.1,60.8,184.6,60.6z"/>
	<path class="st14" d="M125.2,65c0.2,0,0.2,0.2,0.1,0.3c-0.1,0.1-0.2,0.2-0.6,0.2C124.7,65.3,124.9,65.1,125.2,65z"/>
	<path class="st9" d="M71.1,454.5c0,0.2-0.2,0.2-0.3,0.2c-0.1-0.1-0.2-0.2-0.2-0.4C70.8,454.1,71,454.2,71.1,454.5z"/>
	<path class="st6" d="M339.1,61c0,0.2-0.2,0.2-0.2,0.2s-0.2-0.1-0.3-0.3C338.7,60.9,338.9,60.9,339.1,61z"/>
	<path class="st11" d="M183.3,61.2c0,0.2-0.2,0.4-0.6,0.6C182.7,61.6,182.9,61.4,183.3,61.2z"/>
	<path class="st6" d="M338.1,60.5c-0.1,0.1-0.3,0.1-0.5-0.1C337.7,60.3,337.8,60.3,338.1,60.5z"/>
	<path class="st11" d="M182.3,61.8c0,0.2-0.1,0.4-0.5,0.5C181.8,62.1,181.9,61.9,182.3,61.8z"/>
	<path class="st2" d="M419.1,81.9c-0.1,0.1-0.3,0-0.4-0.3C418.8,81.5,418.9,81.6,419.1,81.9z"/>
	<path class="st2" d="M418.5,81.3c-0.1,0.1-0.3,0-0.4-0.3C418.2,81,418.4,81,418.5,81.3z"/>
	<path class="st18" d="M362.5,102c0.3,5.2,0.4,10.4,0.3,15.6c-0.1,5.3-4.7,9.8-10,10c-2,0.1-3.9,0.1-5.9,0.1
		c-57.8,0-115.6,0-173.4,0c-11.7,0-14.9-3.2-14.8-15c0-3.4,0.1-6.8,0.3-10.4c53.7-0.2,107.4-0.3,161-0.3
		C334.1,102.1,348.2,102,362.5,102z"/>
	<path class="st19" d="M248.2,22.7c4.2-5.2,12.3-5.8,16.5-0.9c2.3,2.7,3.6,5.5,2.8,9.5c-0.9,4.6-7.4,9.3-12.7,8.3
		C247.4,38.2,243.4,30,248.2,22.7z"/>
	<path class="st20" d="M132.8,456.8c-2.9-3.1-6.1-6-8.7-9.4c-7.6-10.1-11.1-21.7-11.1-34.3c-0.1-49.7,0-99.3,0-149
		c0-13.5,0-27,0-40.5c0.1-28.9,20.2-52.5,48.8-57.3c2.8-0.5,5.7-0.7,8.5-0.7c57.9,0,115.8,0,173.6-0.1c6.8,0,13.3,1.2,20,3.9
		c1.7,0.7,3.1,1.3,4.5,2c6.9,3.3,12.6,8.2,18,13.5c0,0,0,0,0,0.1c0.2,0.3,0.3,0.4,0.5,0.6c0.1,0.2,0.2,0.3,0.4,0.5
		c0.3,0.2,0.4,0.4,0.6,0.4c0,0-0.1,0-0.1,0.1c0.2,0.4,0.5,0.6,0.7,0.8c0,0,0,0,0.1,0.2c0.2,0.3,0.3,0.4,0.5,0.7
		c7.8,10.6,11.1,22.3,11.1,35.3c-0.1,63.4,0,126.9-0.1,190.3c0,2.8-0.2,5.7-0.7,8.5c-5,27.8-28.2,47.7-56.4,47.7
		c-57.6,0.2-115.3,0.1-172.9,0c-4.6,0-9.3-0.7-13.8-1.6c-8.4-1.7-15.7-5.9-22.5-10.9c0,0,0,0-0.1-0.1c-0.4-0.2-0.7-0.3-1-0.4
		c0,0,0,0,0.1-0.1C132.9,456.9,132.9,456.9,132.8,456.8 M239.3,397.8c10.8-10.8,21.5-21.7,32.3-32.5c1.1-1.1,2.1-2.2,3-3.4
		c1.7-2.6,1.8-5.4,0.3-8.1c-1.6-2.7-4.1-4.4-7.1-3.7c-2.2,0.5-4.5,1.7-6.1,3.3c-17.7,17.7-35.2,35.5-52.8,53.3
		c-5.1,5.1-10.3,10.1-15.4,15.2c-6.3-4.6-12.6-9.3-18.9-13.9c-5.2-3.8-10.3-7.7-15.6-11.3c-5.2-3.6-11.9-0.4-12.4,5.7
		c-0.3,3.6,1.7,6,4.4,8c12,8.7,24,17.4,36,26.1c6.4,4.6,9.8,4.4,15.4-1.2C214.5,422.8,226.7,410.5,239.3,397.8 M300.9,293.1
		c2.7,5.7,7.6,8.6,13.4,10.3c8.4,2.5,17,2.9,25.7,2.4c6.4-0.4,12.6-1.1,18.5-4c8.5-4.1,12.4-13.2,8.9-21.1c-2.3-5.1-6.4-8.3-11.6-10
		c-11.2-3.9-22.6-3.8-34.1-2.3c-5.2,0.7-10.3,2.1-14.8,5.2C300,278.3,297.9,285.2,300.9,293.1 M213.4,279c-3.2-5.3-8.2-7.8-13.9-9.3
		c-10-2.6-20.1-2.8-30.3-1.3c-5.5,0.8-10.8,2.2-15.5,5.6c-9.8,7.1-9.4,20.2,0.9,26.5c2.5,1.5,5.3,2.7,8.1,3.4
		c7.9,2.1,16,2.5,24.2,1.9c6.3-0.4,12.6-1.2,18.4-4C214.5,297.5,218,288,213.4,279 M349,399.1c-2.3,0.1-4.6,0.1-7,0.1
		c-25.5,0-51.1,0-76.6,0c-6.8,0-11.4,4-11.4,9.8c0,5.9,4.6,10.2,11.3,10.2c8.1,0,16.3,0,24.4,0c19.7,0,39.5,0,59.2,0
		c3.8,0,6.8-1.3,9-4.4C362.3,408.6,358.2,399.4,349,399.1 M290.1,277.1c-5.4-2.5-10.4-0.1-11.5,5.8c-1,5.2-3.5,9.3-7.8,12.3
		c-12.8,9-33.6,2.7-35.1-12.8c-0.3-2.9-2.1-4.9-4.8-5.9c-6-2.2-11.3,2.9-10.2,9.8c0.9,5.5,3.1,10.6,6.6,15
		c9.4,11.8,26.4,16.8,41.7,11.8c13.3-4.4,22-13.2,24.7-27.2C294.5,282.4,293.5,279.4,290.1,277.1 M164.7,231.1c-2,3-4.3,5.9-5.8,9.2
		c-1.3,3-0.6,6.2,1.7,8.7c3.4,3.8,8.8,4,12.6,0.4c2.8-2.7,5.4-5.8,8.4-8.2c4.2-3.4,6.8-3.4,10.8-0.2c3,2.4,5.6,5.5,8.3,8.3
		c3.2,3.3,7.3,4.1,10.9,2.1c3.8-2.1,5.8-6.6,4.4-10.8c-0.8-2.4-2-4.8-3.5-6.8C201.1,218.5,179.3,217.2,164.7,231.1 M319.5,242.1
		c5.9-4.6,8.8-4.6,14.3,0.4c2.3,2.1,4.3,4.5,6.5,6.7c3,2.9,6.8,3.5,10.3,1.7c3.5-1.9,5.6-5.7,4.7-9.6c-0.5-2.3-1.5-4.6-2.8-6.5
		c-7.3-11.1-21.8-16-35-12c-8.8,2.7-15.5,8-19.3,16.5c-2,4.5-0.4,9.3,3.5,11.8c3.8,2.4,7.9,1.6,11.4-2.3
		C315.1,246.6,317.2,244.5,319.5,242.1z"/>
	<path class="st21" d="M133.9,458c6.8,4.8,14.1,9,22.5,10.7c4.5,0.9,9.2,1.6,13.8,1.6c57.6,0.1,115.3,0.2,172.9,0
		c28.3-0.1,51.5-19.9,56.4-47.7c0.5-2.8,0.7-5.7,0.7-8.5c0-63.4,0-126.9,0.1-190.3c0-13-3.4-24.7-11.2-35.4
		c-0.2-0.4-0.4-0.5-0.5-0.7c0,0,0,0,0-0.2c-0.2-0.4-0.4-0.6-0.7-0.8c0,0,0.1,0,0-0.1c-0.2-0.2-0.4-0.3-0.6-0.4
		c-0.1,0-0.3-0.1-0.4-0.5c-0.2-0.4-0.4-0.5-0.5-0.6c0,0,0,0,0-0.2c0.7-1.9,1.4-3.5,2.2-5.2c2.2,1.6,4.6,3,6.6,4.9
		c6.6,6.2,13.2,12.3,19.4,18.8c9.5,10,15.6,22,17.3,35.7c1.1,8.4,0.8,16.9,1.2,25.6c0,51.2,0,102.1,0,153c0,4.6,0,9.3-0.2,14.4
		c-0.4,2.3-0.6,4.1-0.9,6.2c0,0.6-0.1,1-0.2,1.5c-0.4,1.1-0.6,2.1-0.8,3.3c0,0.6,0,1-0.2,1.6c-1.4,3.3-2.5,6.5-3.9,9.7
		c-4.3,9.9-10.4,18.4-18.5,25.5c-14,12.3-30.3,18.7-48.8,18.8c-51.6,0.2-103.2,0.1-154.8,0.1c-13.5,0.9-26-2.1-37.8-8.5
		c-7.6-4.1-14-9.7-19.6-16.3c-3.7-4.3-7.6-8.5-11.4-12.8C135,460.2,134.5,459.1,133.9,458z"/>
	<path class="st22" d="M204.6,498.8c51.6-0.2,103.2-0.1,154.8-0.3c18.5-0.1,34.8-6.5,48.8-18.8c8.1-7.1,14.3-15.6,18.5-25.5
		c1.4-3.1,2.5-6.3,4-9.7c0.2-0.7,0.1-1.2,0-1.7c0.2-1,0.5-2,1-3.1c0.2-0.7,0.1-1.2,0.1-1.7c0.3-1.9,0.5-3.7,0.9-5.8
		c3,1,2.3-1.9,3.4-3.1c0.3,0.5,0.8,0.9,0.9,1.4c1.5,7,3.6,14,1.8,21.3c-0.1,0.6-0.3,1.4,0,1.8c1.9,3.5,0.2,6.6-0.9,9.7
		c-4,11.4-10.5,21.1-19.7,29c-10.6,9.2-22.7,14.9-36.8,17.5c-1.2,0.2-1.9,0.4-2.7,0.6c0,0-0.2,0.1-0.5,0
		c-70.1,0-139.9-0.1-209.6-0.1c-0.8-0.4-1.6-1-2.4-1c-7.2,0.1-14.4,0.4-21.6,0.4c-3.2,0-6.4-0.6-9.5-0.6c-2.9,0-5.8-1.4-8.9,0.3
		c-0.6,0-0.9,0-1.5-0.2c-0.6-0.2-1-0.3-1.3-0.4c-0.2,0-0.4,0-0.8-0.2c-0.5-0.2-0.8-0.3-1.1-0.4c0,0,0,0,0-0.2
		c-0.7-0.8-1.3-1.8-2.1-2.1c-3.7-1-7.3-1.8-10.4-4.5c-1.6-1.4-3.5-2.4-5.4-3.3c-1.9-0.8-4-1.2-6-1.8c-0.2-0.2-0.4-0.3-0.7-0.8
		c-0.3-2-1.4-2.6-3-2.4c-0.2-0.1-0.5-0.2-0.8-0.6c-0.2-0.4-0.4-0.5-0.5-0.6c0,0,0,0-0.1-0.1c-0.2-0.2-0.3-0.4-0.4-0.4c0,0,0,0,0-0.2
		c-0.9-1-1.8-1.7-2.7-2.5c0,0,0,0-0.1-0.1c-0.2-0.2-0.3-0.4-0.5-0.4c-0.7-0.7-1.4-1.5-2.2-2.5c-0.3-0.4-0.4-0.6-0.5-0.7
		c0,0,0,0,0-0.1c-0.2-0.2-0.3-0.4-0.5-0.4c0,0,0,0-0.1-0.1c-0.2-0.2-0.3-0.3-0.4-0.4c-0.2-0.2-0.4-0.4-0.6-0.9
		c-0.2-0.4-0.3-0.5-0.5-0.7c0,0,0,0-0.1-0.1c-0.1-0.2-0.3-0.3-0.4-0.4c0,0-0.1-0.1-0.2-0.4c-0.2-0.4-0.3-0.6-0.5-0.7c0,0,0,0,0-0.1
		c-0.1-0.2-0.3-0.3-0.4-0.4c0,0-0.1-0.1-0.1-0.4c0.2-2.5-0.4-4.1-2.9-4.3c-0.2-0.3-0.3-0.5-0.5-0.9c1.5-0.5,1.4-1.3,0.9-2.5
		c-3.2-7.1-5.7-14.3-7-22c-0.4-2.2-0.1-4.6,0.2-6.9c2.9,5,5.5,10,5.6,15.9c0,1.4,1,2.8,1.6,4.1c1,2.2,1.8,4.4,3.2,6.4
		c1.8,2.6,2.5,5.8,5.2,8c2.4,2,4.2,4.7,6.6,6.8c2.5,2.3,5.2,4.5,8,6.4c3.6,2.4,7.5,4.3,11.2,6.5c4.3,2.6,8.9,3.9,13.8,4.5
		c1.4,0.2,2.8,1,4.1,1.8c1.5,0.9,2.5,0.9,3.7-0.4c2.5-2.7,5.9-2.4,9.2-2.2c5.7,0.3,11.5,0.5,17.2,0.8c0.3,0,0.7,0,0.7-0.2
		c1.6-3.1,5-2.3,7.7-3.4c-0.5-1.2-0.9-2.3-1.6-3.8c0.9,0.4,1.4,0.6,1.8,0.8c2.2,1.5,4.5,2.4,7.4,2.6c2.6,0.1,5.3,1.5,7.7,2.7
		c3.1,1.6,6.1,1.6,9.3,0.8C198.5,500.5,201.5,499.7,204.6,498.8z"/>
	<path class="st23" d="M388.4,179.4c-0.6,1.8-1.3,3.5-2.1,5.4c-5.4-5.1-11.1-10-18-13.3c-1.4-0.6-2.7-1.3-4.3-2
		c0.5-0.2,1.2-0.5,1.8-0.4C374.1,170.9,381.5,174.4,388.4,179.4z"/>
	<path class="st21" d="M132.9,457.4c0.2,0,0.5,0,0.9,0.3C133.6,457.7,133.3,457.6,132.9,457.4z"/>
	<path class="st21" d="M132.8,456.8c0.1,0,0.2,0.1,0.2,0.3C132.6,457.2,132.6,457.1,132.8,456.8z"/>
	<path class="st24" d="M442.1,294.3c0,29.6,0,58.9,0,88.2c-0.1,0-0.3,0-0.4,0c0-36.6,0-73.3,0-109.9c0.1,0,0.3,0,0.4,0
		C442.1,279.8,442.1,286.9,442.1,294.3z"/>
	<path class="st24" d="M441.6,238c0-3.5,0-6.7,0-9.8c0.1,0,0.2,0,0.3,0c0,10.9,0,21.8,0,32.7c-0.1,0-0.2,0-0.3,0
		C441.6,253.3,441.6,245.8,441.6,238z"/>
	<path class="st24" d="M441.6,432.9c0-9.8,0-19.4,0-29c0.1,0,0.3,0,0.4,0c0,10.4,0,20.7,0,31.1c-0.1,0-0.2,0-0.3,0
		C441.7,434.4,441.7,433.8,441.6,432.9z"/>
	<path class="st1" d="M435.7,322.3c0.1-0.9,0.1-1.6,0.2-2.3c0.2,0,0.4,0,0.5,0c0,1.8,0,3.6,0,5.4c-0.2,0-0.5,0-0.7,0
		C435.7,324.5,435.7,323.5,435.7,322.3z"/>
	<path class="st24" d="M441.6,224.9c0-0.5,0-0.8,0.1-1.1c0.1,0,0.2,0,0.3,0c0,0.5,0,1.1,0,1.6c0,0-0.1,0.1-0.2,0.1
		C441.8,225.4,441.7,225.2,441.6,224.9z"/>
	<path class="st25" d="M379.1,510.4c0.5-0.2,1.3-0.4,2.3-0.6c0.2,0,0.2,0.2,0.2,0.3C380.8,510.3,380.1,510.4,379.1,510.4z"/>
	<path class="st25" d="M168.6,510.5c69.9-0.1,139.6-0.1,209.6,0c-2.8,0.2-5.9,0.6-9,0.6c-48.5,0-96.9,0-145.4,0
		c-18.4,0-36.8,0-55.4,0C168.3,510.8,168.4,510.6,168.6,510.5z"/>
	<path class="st1" d="M79.5,475.8c2.4,0,3,1.6,2.9,4.1C81.4,478.7,80.5,477.4,79.5,475.8z"/>
	<path class="st1" d="M94,493.5c1.5-0.3,2.6,0.2,2.9,2.1c-0.2,0.2-0.3,0.2-0.6,0C95.5,494.9,94.8,494.3,94,493.5z"/>
	<path class="st1" d="M89.4,489.1c0.8,0.6,1.7,1.3,2.6,2.3C91.2,490.8,90.4,490,89.4,489.1z"/>
	<path class="st1" d="M92.7,492.3c0.1,0,0.2,0.1,0.4,0.3C92.9,492.7,92.8,492.6,92.7,492.3z"/>
	<path class="st1" d="M92.1,491.7c0.1,0,0.2,0.1,0.4,0.3C92.4,492.1,92.3,492,92.1,491.7z"/>
	<path class="st1" d="M88.9,488.5c0.1-0.1,0.3,0.1,0.4,0.3C89.2,488.9,89.1,488.8,88.9,488.5z"/>
	<path class="st1" d="M86.2,485.3c0.1,0,0.2,0.1,0.4,0.4C86.5,485.7,86.4,485.6,86.2,485.3z"/>
	<path class="st1" d="M82.5,480.5c0.1,0,0.2,0.1,0.4,0.3C82.7,480.9,82.6,480.8,82.5,480.5z"/>
	<path class="st1" d="M82.9,481.1c0.1,0,0.3,0.2,0.4,0.5C83.3,481.5,83.1,481.4,82.9,481.1z"/>
	<path class="st1" d="M83.6,482.1c0.1,0,0.2,0.1,0.4,0.3C83.8,482.5,83.7,482.4,83.6,482.1z"/>
	<path class="st1" d="M84.1,482.6c0.1,0,0.2,0.1,0.4,0.4C84.4,483.1,84.2,482.9,84.1,482.6z"/>
	<path class="st1" d="M85.2,484.2c0.1,0,0.2,0.1,0.4,0.3C85.4,484.6,85.3,484.5,85.2,484.2z"/>
	<path class="st1" d="M85.7,484.8c0.1-0.1,0.2,0.1,0.4,0.3C86,485.1,85.9,485,85.7,484.8z"/>
	<path class="st1" d="M97.8,496.7c1.9,0.4,4,0.8,5.9,1.7c1.9,0.8,3.8,1.9,5.4,3.3c3,2.6,6.7,3.4,10.4,4.5c0.8,0.2,1.4,1.2,2,2.1
		c-3-0.8-6-1.7-9.2-2.7c-2.5-1.3-4.9-2.5-7.4-3.8c-0.8-0.5-1.5-1-2.4-1.4C100.8,499,99.4,497.9,97.8,496.7z"/>
	<path class="st1" d="M121.6,508.4c0.2-0.1,0.5,0,0.9,0.2C122.3,508.6,122,508.6,121.6,508.4z"/>
	<path class="st1" d="M123.5,509c0.2-0.1,0.6,0,1.1,0.2C124.4,509.2,124,509.1,123.5,509z"/>
	<path class="st26" d="M239.1,398c-12.4,12.5-24.7,24.8-36.9,37.2c-5.6,5.6-9,5.9-15.4,1.2c-12-8.7-24-17.4-36-26.1
		c-2.8-2-4.7-4.5-4.4-8c0.5-6.1,7.2-9.2,12.4-5.7c5.3,3.6,10.4,7.5,15.6,11.3c6.3,4.6,12.6,9.3,18.9,13.9
		c5.2-5.1,10.3-10.1,15.4-15.2c17.6-17.8,35.1-35.6,52.8-53.3c1.6-1.6,3.9-2.8,6.1-3.3c3-0.7,5.6,1,7.1,3.7c1.6,2.7,1.5,5.5-0.3,8.1
		c-0.8,1.3-1.9,2.4-3,3.4C260.8,376.2,250,387,239.1,398z"/>
	<path class="st27" d="M300.8,292.9c-3-7.8-0.8-14.7,6.1-19.4c4.4-3.1,9.5-4.5,14.8-5.2c11.5-1.5,23-1.6,34.1,2.3
		c5.2,1.8,9.4,4.9,11.6,10c3.5,7.9-0.4,17-8.9,21.1c-5.8,2.8-12.1,3.6-18.5,4c-8.7,0.5-17.3,0.1-25.7-2.4
		C308.6,301.7,303.7,298.8,300.8,292.9z"/>
	<path class="st27" d="M213.5,279.1c4.5,8.9,1,18.3-8.1,22.7c-5.8,2.8-12.1,3.6-18.4,4c-8.1,0.5-16.3,0.2-24.2-1.9
		c-2.8-0.8-5.6-1.9-8.1-3.4c-10.3-6.3-10.7-19.4-0.9-26.5c4.6-3.3,9.9-4.8,15.5-5.6c10.2-1.5,20.3-1.3,30.3,1.3
		C205.2,271.2,210.2,273.7,213.5,279.1z"/>
	<path class="st28" d="M349.2,399.1c9,0.3,13.1,9.5,8.6,15.8c-2.2,3.1-5.2,4.4-9,4.4c-19.7,0-39.5,0-59.2,0c-8.1,0-16.3,0-24.4,0
		c-6.7,0-11.3-4.3-11.3-10.2c0-5.8,4.6-9.8,11.4-9.8c25.5,0,51.1,0,76.6,0C344.3,399.2,346.6,399.1,349.2,399.1z"/>
	<path class="st29" d="M290.3,277.2c3.2,2.3,4.2,5.2,3.5,8.8c-2.8,14-11.4,22.9-24.7,27.2c-15.2,5-32.3,0-41.7-11.8
		c-3.5-4.4-5.7-9.5-6.6-15c-1.1-6.9,4.2-12,10.2-9.8c2.8,1,4.6,3,4.8,5.9c1.5,15.5,22.2,21.8,35.1,12.8c4.3-3,6.8-7.1,7.8-12.3
		C279.8,277,284.7,274.6,290.3,277.2z"/>
	<path class="st18" d="M164.8,230.9c14.4-13.7,36.3-12.4,47.7,2.9c1.5,2,2.7,4.4,3.5,6.8c1.4,4.2-0.6,8.7-4.4,10.8
		c-3.7,2-7.7,1.2-10.9-2.1c-2.7-2.8-5.3-5.9-8.3-8.3c-4.1-3.2-6.7-3.2-10.8,0.2c-3,2.4-5.6,5.5-8.4,8.2c-3.7,3.6-9.2,3.4-12.6-0.4
		c-2.3-2.6-3-5.8-1.7-8.7C160.4,237,162.7,234.1,164.8,230.9z"/>
	<path class="st29" d="M319.3,242.2c-2.2,2.3-4.2,4.4-6.2,6.6c-3.6,3.8-7.7,4.7-11.4,2.3c-3.9-2.4-5.5-7.2-3.5-11.8
		c3.8-8.5,10.5-13.8,19.3-16.5c13.2-4.1,27.7,0.9,35,12c1.3,2,2.3,4.3,2.8,6.5c0.9,3.9-1.2,7.7-4.7,9.6c-3.5,1.8-7.4,1.3-10.3-1.7
		c-2.2-2.2-4.2-4.6-6.5-6.7C328.2,237.6,325.4,237.5,319.3,242.2z"/>
	<path class="st23" d="M387.9,186.8c0.2,0.1,0.4,0.3,0.6,0.7C388.3,187.4,388.1,187.2,387.9,186.8z"/>
	<path class="st23" d="M387.3,186.2c0.1,0,0.3,0.1,0.5,0.3C387.8,186.6,387.6,186.5,387.3,186.2z"/>
	<path class="st23" d="M388.6,187.8c0.1,0,0.2,0.1,0.4,0.4C388.9,188.2,388.8,188,388.6,187.8z"/>
	<path class="st23" d="M386.4,185.1c0.1,0,0.2,0.1,0.4,0.4C386.7,185.5,386.6,185.4,386.4,185.1z"/>
	<path class="st2" d="M430.9,443c0.1,0.3,0.2,0.8,0.1,1.4C430.8,444,430.8,443.6,430.9,443z"/>
	<path class="st2" d="M431.9,438.2c0.1,0.3,0.2,0.8,0.1,1.3C431.9,439.2,431.9,438.8,431.9,438.2z"/>
</g>
</svg>
