<?xml version="1.0" encoding="utf-8"?>
<!-- Generator: Adobe Illustrator 28.2.0, SVG Export Plug-In . SVG Version: 6.00 Build 0)  -->
<svg version="1.1"
	 id="svg8" xmlns:svg="http://www.w3.org/2000/svg" xmlns:inkscape="http://www.inkscape.org/namespaces/inkscape" xmlns:sodipodi="http://sodipodi.sourceforge.net/DTD/sodipodi-0.dtd" xmlns:cc="http://creativecommons.org/ns#" xmlns:rdf="http://www.w3.org/1999/02/22-rdf-syntax-ns#" xmlns:dc="http://purl.org/dc/elements/1.1/"
	 xmlns="http://www.w3.org/2000/svg" xmlns:xlink="http://www.w3.org/1999/xlink" x="0px" y="0px" viewBox="0 0 512 512"
	 style="enable-background:new 0 0 512 512;" xml:space="preserve">
<style type="text/css">
	.st0{fill:#C0C000;}
	.st1{fill:#00C0C0;}
	.st2{fill:#00C000;}
</style>
<sodipodi:namedview  bordercolor="#666666" borderopacity="1.0" fit-margin-bottom="0" fit-margin-left="0" fit-margin-right="0" fit-margin-top="0" id="base" inkscape:current-layer="layer1" inkscape:cx="199.98633" inkscape:cy="92.251514" inkscape:document-rotation="0" inkscape:document-units="mm" inkscape:pageopacity="0.0" inkscape:pageshadow="2" inkscape:window-height="1364" inkscape:window-maximized="1" inkscape:window-width="3408" inkscape:window-x="14" inkscape:window-y="36" inkscape:zoom="0.49497475" pagecolor="#ffffff" showgrid="false">
	</sodipodi:namedview>
<g id="layer1" transform="translate(-66.205082,-134.16488)" inkscape:groupmode="layer" inkscape:label="Layer 1">
	<g id="text78">
		<path id="path98" class="st0" d="M66.2,524.7V251.9h182.5v45.5H122.6v65h107.7v44H122.6v72.9h126.6v45.3L66.2,524.7z"/>
		<path id="path100" class="st1" d="M380,523.4c-10.1,3.4-21,5.1-32.6,5.1c-17.7,0-31.8-4.6-42.3-13.9
			c-10.5-9.2-15.7-24.6-15.7-46.1v-107h-29.8V322h29.8v-50h54.1v50h34.5v39.5h-34.5v101.4c0,8.5,1.7,14.1,5.2,16.9
			c3.5,2.7,8.7,4.1,15.5,4.1c5.5,0,10.7-0.5,15.7-1.5L380,523.4z"/>
		<path id="path102" class="st2" d="M578.2,322l-68.4,202.7h-51.5L389.7,322h56.8l37.7,136.2L521.6,322H578.2z"/>
	</g>
</g>
</svg>
