<?xml version="1.0" encoding="utf-8"?>
<!-- Generator: Adobe Illustrator 28.2.0, SVG Export Plug-In . SVG Version: 6.00 Build 0)  -->
<svg version="1.1" id="Layer_1" xmlns="http://www.w3.org/2000/svg" xmlns:xlink="http://www.w3.org/1999/xlink" x="0px" y="0px"
	 viewBox="0 0 512 512" style="enable-background:new 0 0 512 512;" xml:space="preserve">
<style type="text/css">
	.st0{fill:#FFFFFF;}
</style>
<path class="st0" d="M460.5,0h-409C23.1,0,0,23.1,0,51.5v409C0,488.9,23.1,512,51.5,512h409c28.4,0,51.5-23.1,51.5-51.5v-409
	C512,23.1,488.9,0,460.5,0z M439.9,292.6H163c0,13.7,1.8,25.7,5.4,36c3.6,10.3,10.2,20.9,19.7,31.8c9.5,10.9,19.4,19.2,29.6,24.8
	c10.3,5.7,22.5,8.5,36.6,8.5h185.6l0,72.4h-205c-31.7,0-62.1-7.2-91.4-21.6c-31.7-15.6-55.8-40.4-72.4-74.4
	c-16.6-34-24.9-71.4-24.9-112.3c0-40.4,8-77,24-109.8c17.6-35.6,42.1-61.6,73.3-78c17.2-8.8,33.8-15,49.6-18.6
	c15.8-3.6,34-5.4,54.4-5.4h190V121H261.7c-15.7,0-28.8,2.1-39.4,6.2c-10.6,4.1-21.2,11.5-31.6,22.1c-10.4,10.6-17.7,20.9-21.7,30.9
	c-4,10-6,22.4-6,37.3h276.9V292.6z"/>
</svg>
