<?xml version="1.0" encoding="utf-8"?>
<!-- Generator: Adobe Illustrator 28.2.0, SVG Export Plug-In . SVG Version: 6.00 Build 0)  -->
<svg version="1.1" id="Layer_1" xmlns="http://www.w3.org/2000/svg" xmlns:xlink="http://www.w3.org/1999/xlink" x="0px" y="0px"
	 viewBox="0 0 512 512" style="enable-background:new 0 0 512 512;" xml:space="preserve">
<style type="text/css">
	.st0{fill:#663408;}
	.st1{fill:#FFFFFF;}
</style>
<path class="st0" d="M460.5,512h-409C23.1,512,0,488.9,0,460.5v-409C0,23.1,23.1,0,51.5,0h409C488.9,0,512,23.1,512,51.5v409
	C512,488.9,488.9,512,460.5,512z"/>
<g>
	<path class="st1" d="M439.9,466.1h-205c-31.7,0-62.1-7.2-91.4-21.6c-31.7-15.6-55.8-40.4-72.4-74.4c-16.6-34-24.9-71.4-24.9-112.3
		c0-40.4,8-77,24-109.8c17.6-35.6,42.1-61.6,73.3-78c17.2-8.8,33.8-15,49.6-18.6c15.8-3.6,34-5.4,54.4-5.4h190V121H261.7
		c-15.7,0-28.8,2.1-39.4,6.2c-10.6,4.1-21.2,11.5-31.6,22.1c-10.4,10.6-17.7,20.9-21.7,30.9c-4,10-6,22.4-6,37.3h276.9v75.1H163
		c0,13.7,1.8,25.7,5.4,36c3.6,10.3,10.2,20.9,19.7,31.8c9.5,10.9,19.4,19.2,29.6,24.8c10.3,5.7,22.5,8.5,36.6,8.5h185.6L439.9,466.1
		z"/>
</g>
</svg>
