<?xml version="1.0" encoding="utf-8"?>
<!-- Generator: Adobe Illustrator 27.7.0, SVG Export Plug-In . SVG Version: 6.00 Build 0)  -->
<svg version="1.1"
	 id="svg2987" xmlns:rdf="http://www.w3.org/1999/02/22-rdf-syntax-ns#" xmlns:sodipodi="http://sodipodi.sourceforge.net/DTD/sodipodi-0.dtd" xmlns:inkscape="http://www.inkscape.org/namespaces/inkscape" xmlns:svg="http://www.w3.org/2000/svg" xmlns:cc="http://creativecommons.org/ns#" xmlns:dc="http://purl.org/dc/elements/1.1/" inkscape:export-filename="/home/websites/etherpad-lite/src/static/favicon.ico.png" inkscape:export-xdpi="96" sodipodi:docname="etherpad_icon.svg"
	 xmlns="http://www.w3.org/2000/svg" xmlns:xlink="http://www.w3.org/1999/xlink" x="0px" y="0px" viewBox="0 0 16 16"
	 style="enable-background:new 0 0 16 16;" xml:space="preserve">
<style type="text/css">
	.st0{fill:#374256;stroke:#374256;stroke-width:0.6802;stroke-miterlimit:3.6;}
	.st1{fill:#B1B1B1;}
	.st2{fill:none;stroke:#AEAEAE;stroke-width:0.5433;stroke-miterlimit:3.6;}
	.st3{fill:#374256;}
	.st4{fill:none;stroke:#374256;stroke-width:0.5433;stroke-miterlimit:3.6;}
	.st5{fill:#80ECB6;stroke:#80ECB6;stroke-width:0.5232;stroke-miterlimit:3.6;}
	.st6{fill:#FF9800;stroke:#FF9800;stroke-width:0.4736;stroke-linecap:round;stroke-miterlimit:3.6;}
	.st7{fill:#F2F2F4;stroke:#F2F2F4;stroke-width:0.4167;stroke-linecap:round;stroke-miterlimit:3.6;}
</style>
<sodipodi:namedview  bordercolor="#666666" borderopacity="1" gridtolerance="10" guidetolerance="10" id="namedview21" inkscape:current-layer="layer1-3" inkscape:cx="71.511303" inkscape:cy="6.5274382" inkscape:pageopacity="0" inkscape:pageshadow="2" inkscape:snap-object-midpoints="true" inkscape:window-height="1043" inkscape:window-maximized="1" inkscape:window-width="1920" inkscape:window-x="0" inkscape:window-y="0" inkscape:zoom="5.6568543" objecttolerance="10" pagecolor="#ffffff" showgrid="false">
	</sodipodi:namedview>
<g id="layer1" transform="translate(0,-1036.3618)">
	<g id="layer1-3" transform="translate(16.860288,-0.33232922)">
		<path id="path3806-2-6" inkscape:connector-curvature="0" class="st0" d="M-11.9,1039.9c5.7,0,6.2,0,6.2,0l0-0.9l-3.1,0l-3.1,0
			L-11.9,1039.9z"/>
		<path id="path3770-7-0-9-5" inkscape:connector-curvature="0" class="st1" d="M-4.5,1052.7v-2.2h2.2v2.2H-4.5z"/>
		<path id="path3770-7-0-6" inkscape:connector-curvature="0" class="st1" d="M-15.4,1052.7v-2.2h2.2v2.2H-15.4z"/>
		<path id="path3775-0-9" inkscape:connector-curvature="0" class="st2" d="M-14.3,1041.8l2.2-1.1v-2.1"/>
		<path id="path3777-6-3" inkscape:connector-curvature="0" class="st2" d="M-3.4,1041.8l-2.2-1.1l0-2.1"/>
		<path id="path3019-7" inkscape:connector-curvature="0" class="st3" d="M-15.4,1041.8c0,3.8,0,6.2,0,7.6c0,2.2,0,2.2,0,2.2
			c1.2,0,1.2,0,1.2,1.1h10.7c0-1.1,0-1.1,1.2-1.1c0-3.3,0-6.5,0-9.8H-15.4z"/>
		<path id="path3770-45" inkscape:connector-curvature="0" class="st3" d="M-15.4,1042.9v-4.3h1.1v4.3H-15.4z"/>
		<path id="path3770-1-2" inkscape:connector-curvature="0" class="st3" d="M-3.4,1042.9v-4.3h1.1v4.3H-3.4z"/>
		<path id="path3770-7-5" inkscape:connector-curvature="0" class="st1" d="M-15.4,1038.5v-1.1h1.1v1.1H-15.4z"/>
		<path id="path3770-4-4" inkscape:connector-curvature="0" class="st1" d="M-3.4,1038.5v-1.1h1.1v1.1H-3.4z"/>
		<path id="path3767-1-7" inkscape:connector-curvature="0" class="st4" d="M-11.7,1038.8c2.6-2.6,3.2-2.4,5.6,0"/>
		<path id="rect4500-6-1-5-4" class="st5" d="M-13.7,1043.7h9.8c0,0,0,0,0,0v1c0,0,0,0,0,0h-9.8c0,0,0,0,0,0L-13.7,1043.7
			C-13.7,1043.7-13.7,1043.7-13.7,1043.7z"/>
		<path id="rect4500-6-1-0-54-4" class="st6" d="M-13.6,1049.3h8.8c0,0,0,0,0,0v1c0,0,0,0,0,0h-8.8c0,0,0,0,0,0L-13.6,1049.3
			C-13.7,1049.3-13.7,1049.3-13.6,1049.3z"/>
		<path id="rect4500-6-1-0-3-7-3" class="st7" d="M-13.7,1046.5h6.1c0,0,0,0,0,0v1.1c0,0,0,0,0,0h-6.1c0,0,0,0,0,0L-13.7,1046.5
			C-13.7,1046.6-13.7,1046.5-13.7,1046.5z"/>
	</g>
</g>
</svg>
