<?xml version="1.0" encoding="utf-8"?>
<!-- Generator: Adobe Illustrator 28.2.0, SVG Export Plug-In . SVG Version: 6.00 Build 0)  -->
<svg version="1.1" id="Layer_1" xmlns="http://www.w3.org/2000/svg" xmlns:xlink="http://www.w3.org/1999/xlink" x="0px" y="0px"
	 viewBox="0 0 512 512" style="enable-background:new 0 0 512 512;" xml:space="preserve">
<style type="text/css">
	.st0{fill:#171720;}
	.st1{fill:#FFFFFF;}
</style>
<g id="app-icon" transform="translate(-1977.763 -385.763)">
	<path id="Rectangle_79" class="st0" d="M2111.1,385.8h245.3c73.6,0,133.3,59.7,133.3,133.3v245.3c0,73.6-59.7,133.3-133.3,133.3
		h-245.3c-73.6,0-133.3-59.7-133.3-133.3V519.1C1977.8,445.5,2037.5,385.8,2111.1,385.8z"/>
	<g id="Group_124" transform="translate(1994.608 402.675)">
		<path id="Path_23" class="st1" d="M345.8,73.3H198.5c-39.7,0-78.5,32.3-86.5,72l-37.6,187c-4.2,17.9-0.2,36.8,11.1,51.4
			c11.5,13.9,28.9,21.7,46.9,21.2h48.8c1.6,0,3-1.1,3.4-2.7c0.4-1.5-0.4-3-1.9-3.4c-29.3-8.2-45.3-36.3-38.9-68.4l13.1-65.1h151.2
			c9.8-0.3,19.3,3.9,25.6,11.4c0.8,0.9,2.1,1.3,3.3,0.8c1.2-0.4,2.1-1.5,2.4-2.8c3.3-17.5-1.2-35.5-12.4-49.4
			c-11.6-13.3-28.5-20.7-46.1-20.1H169.1L180,151c2.3-10,11-17.2,21.2-17.6h127.5c35.2,0,60.3,25.1,59.5,59.7
			c-0.1,1.5,1.1,2.8,2.6,2.9c0.1,0,0.1,0,0.2,0l0,0c1.7,0,3.1-1.2,3.4-2.8l9.5-47.2c4.2-17.9,0.2-36.8-11.1-51.4
			C381.3,80.5,363.9,72.7,345.8,73.3z"/>
	</g>
</g>
</svg>
