<?xml version="1.0" encoding="utf-8"?>
<!-- Generator: Adobe Illustrator 28.2.0, SVG Export Plug-In . SVG Version: 6.00 Build 0)  -->
<svg version="1.1" id="Layer_1" xmlns="http://www.w3.org/2000/svg" xmlns:xlink="http://www.w3.org/1999/xlink" x="0px" y="0px"
	 viewBox="0 0 512 512" style="enable-background:new 0 0 512 512;" xml:space="preserve">
<style type="text/css">
	.st0{fill:#FFFFFF;}
</style>
<path class="st0" d="M378.7,0H133.3C59.7,0,0,59.7,0,133.3v245.3C0,452.3,59.7,512,133.3,512h245.3c73.6,0,133.3-59.7,133.3-133.3
	V133.3C512,59.7,452.3,0,378.7,0z M420.7,162.8l-9.5,47.2c-0.4,1.6-1.8,2.8-3.4,2.8c-0.1,0-0.1,0-0.2,0c-1.5-0.1-2.7-1.4-2.6-2.9
	c0.7-34.6-24.3-59.7-59.5-59.7H218c-10.2,0.4-18.9,7.7-21.2,17.6l-10.9,54.2h111.8c17.6-0.5,34.5,6.9,46.1,20.1
	c11.2,13.8,15.7,31.9,12.4,49.4c-0.2,1.3-1.1,2.4-2.4,2.8c-1.2,0.4-2.5,0.1-3.3-0.8c-6.3-7.5-15.8-11.7-25.6-11.4H173.8l-13.1,65.1
	c-6.5,32.1,9.5,60.2,38.9,68.4c1.5,0.4,2.3,2,1.9,3.4c-0.4,1.6-1.8,2.7-3.4,2.7h-48.8c-18.1,0.5-35.4-7.3-46.9-21.2
	c-11.2-14.6-15.3-33.5-11.1-51.4l37.6-187c8-39.7,46.8-72,86.5-72h147.3c18.1-0.6,35.4,7.2,47,21.2
	C420.9,126,424.9,144.8,420.7,162.8z"/>
</svg>
