<?xml version="1.0" encoding="utf-8"?>
<!-- Generator: Adobe Illustrator 27.7.0, SVG Export Plug-In . SVG Version: 6.00 Build 0)  -->
<svg version="1.1"
	 id="svg2" xmlns:sodipodi="http://sodipodi.sourceforge.net/DTD/sodipodi-0.dtd" xmlns:svg="http://www.w3.org/2000/svg" xmlns:inkscape="http://www.inkscape.org/namespaces/inkscape"
	 xmlns="http://www.w3.org/2000/svg" xmlns:xlink="http://www.w3.org/1999/xlink" x="0px" y="0px" viewBox="0 0 512 512"
	 style="enable-background:new 0 0 512 512;" xml:space="preserve">
<style type="text/css">
	.st0{fill:#2C65A6;}
</style>
<g id="g10" transform="scale(0.1)">
	<path id="path32" class="st0" d="M5116.6,417.7l-886.6,4350c-22.9,112.6-151.8,167-248.5,105l-1311.4-841l-357.8,394.5
		c-104.8,115.5-296.8,54.9-316.2-99.9l-93.2-662.7c-12.1-86,16.7-172.8,77.8-234.6l1860.5-1929.7c39.8-41.3-13.1-105.1-61.1-73.5
		L1378.3,3007.4c-91.8,60.2-210.5,60.9-302.9,1.6L75.3,2367.4c-112.8-72.3-95.5-242.1,29.6-290.3L4897.6,232.5
		C5018.1,186.1,5142.4,291.2,5116.6,417.7"/>
</g>
</svg>
