<?xml version="1.0" encoding="utf-8"?>
<!-- Generator: Adobe Illustrator 28.2.0, SVG Export Plug-In . SVG Version: 6.00 Build 0)  -->
<svg version="1.1" id="Layer_1" xmlns="http://www.w3.org/2000/svg" xmlns:xlink="http://www.w3.org/1999/xlink" x="0px" y="0px"
	 viewBox="0 0 512 512" style="enable-background:new 0 0 512 512;" xml:space="preserve">
<style type="text/css">
	.st0{fill:#FFFFFF;}
</style>
<g>
	<path d="M256,0L256,0c141.4,0,256,114.6,256,256l0,0c0,141.4-114.6,256-256,256l0,0C114.6,512,0,397.4,0,256l0,0
		C0,114.6,114.6,0,256,0z"/>
	<path class="st0" d="M227,130.3c42.7-42.7,112-42.7,154.7,0c42.7,42.7,42.7,112,0,154.7L285,381.7c-42.7,42.7-112,42.7-154.7,0
		c-42.7-42.7-42.7-112,0-154.7L227,130.3z"/>
	<path d="M362.3,169l0.2,0.2l0.1,0.2l0.8,0.9l0.1,0.1l0.1,0.1l0.3,0.5l0.4,0.6l0.1,0.2l0.1,0.1l0.2,0.4l0.4,0.6l0.1,0.3l0.1,0.2
		l0.1,0.4l0.2,0.6l0.1,0.3l0.1,0.3l0.1,0.4l0.1,0.5l0.1,0.6l0.1,0.3l0,0.2l0.1,0.4l0,0.7l0,0.4l0,0.2l0,0.3l0,0.7l0,0.5l0,0.1
		c-0.3,2.6-1.2,5-2.9,7.1l-0.1,0.1l-0.4,0.4l-0.6,0.7l-58,58l48.3,48.3c1.7,1.7,2.9,3.8,3.5,6.1c0.6,2.3,0.6,4.8,0,7.1
		c-0.6,2.3-1.8,4.4-3.5,6.1c-1.7,1.7-3.8,2.9-6.1,3.6l-1.5,0.3l-183.7,29c-13.1,2.1-21.1-13.8-11.8-23.2l58-58l-48.3-48.3
		c-1.7-1.7-2.9-3.8-3.5-6.1c-0.6-2.3-0.6-4.8,0-7.1c0.6-2.3,1.8-4.4,3.5-6.1c1.7-1.7,3.8-2.9,6.1-3.6l1.5-0.3l183.7-29l0.2,0
		l0.4-0.1l0.7,0l0.4,0l0.2,0l0.3,0l0.7,0l0.5,0l0.1,0c2.1,0.2,4,0.9,5.8,2l0.1,0.1l0.3,0.2l0.8,0.6l0.1,0.1l0.4,0.4L362.3,169z"/>
</g>
</svg>
