<?xml version="1.0" encoding="utf-8"?>
<!-- Generator: Adobe Illustrator 28.2.0, SVG Export Plug-In . SVG Version: 6.00 Build 0)  -->
<svg version="1.1" id="Layer_1" xmlns="http://www.w3.org/2000/svg" xmlns:xlink="http://www.w3.org/1999/xlink" x="0px" y="0px"
	 viewBox="0 0 512 512" style="enable-background:new 0 0 512 512;" xml:space="preserve">
<style type="text/css">
	.st0{fill:#FFFFFF;}
</style>
<path class="st0" d="M256,0C114.6,0,0,114.6,0,256s114.6,256,256,256s256-114.6,256-256S397.4,0,256,0z M400.2,182.9h-91.6
	l-8.4,44.8H389l-29,73l-72.4,0.2l-24,118l-142.9-9.6l146.4-9.6l-160.9-9.6l164.4-9.7l-227.5-9.7l231.4-9.6l-187.6-9.7l191.2-9.6
	l-221.8-9.6l225.6-9.7l-196.1-9.6l199.6-9.6L16.7,293l272.5-9.6l-201.8-9.6l205.6-9.6L132,254.5l164.4-9.6l-244-9.6l247.5-7.4
	l-145.9-11.8l149.7-9.6l-263.1-9.6l266.6-14l-174.3-6l178.1-9.6l-225.2-9.6l228.7-9.6l-197.8-9.6l201.6-9.6l-160.8-9.7l109.5-6.2
	c49.5-2.8,145.7-3.8,162-3L400.2,182.9z"/>
</svg>
