<?xml version="1.0" encoding="utf-8"?>
<!-- Generator: Adobe Illustrator 28.2.0, SVG Export Plug-In . SVG Version: 6.00 Build 0)  -->
<svg version="1.1" id="Layer_1" xmlns="http://www.w3.org/2000/svg" xmlns:xlink="http://www.w3.org/1999/xlink" x="0px" y="0px"
	 viewBox="0 0 512 512" style="enable-background:new 0 0 512 512;" xml:space="preserve">
<style type="text/css">
	.st0{fill:#0E2437;}
	.st1{fill:#00D07B;}
</style>
<g transform="translate(0.000000,700.000000) scale(0.100000,-0.100000)">
	<g>
		<circle class="st0" cx="2560" cy="4440" r="2560"/>
		<g>
			<path class="st1" d="M4291.8,5904.7l-290.1-733.9h-915.6l-84.3-447.7h888.4l-290.1-729.9l-723.8-2l-239.9-1179.6L1207.8,2908
				l1463.7,96.4l-1609.4,96.4l1644.4,97.4l-2274.9,97.4l2314.1,96.4l-1876.3,97.4l1912.4,96.4L564.2,3682l2255.8,97.4l-1960.6,96.4
				l1995.8,96.4l-2688.4,97.4l2724.6,96.4l-2017.8,96.4l2056,96.4L1320.2,4455l1644.4,96.4L525,4647.8l2474.7,74.3L1541,4840.6
				l1496.8,96.4l-2631.2,96.4L3073,5172.8L1330.2,5233l1780.9,96.4l-2251.8,96.4l2286.9,96.4l-1977.7,96.4l2015.8,96.4l-1608.3,97.4
				l1095.3,62.3C3166.3,5902.7,4128.1,5912.7,4291.8,5904.7z"/>
		</g>
	</g>
</g>
</svg>
