<?xml version="1.0" encoding="utf-8"?>
<!-- Generator: Adobe Illustrator 28.2.0, SVG Export Plug-In . SVG Version: 6.00 Build 0)  -->
<svg version="1.1" id="Layer_1" xmlns="http://www.w3.org/2000/svg" xmlns:xlink="http://www.w3.org/1999/xlink" x="0px" y="0px"
	 viewBox="0 0 512 512" style="enable-background:new 0 0 512 512;" xml:space="preserve">
<style type="text/css">
	.st0{fill:#00A6E2;}
	.st1{fill:#FFFFFF;}
	.st2{clip-path:url(#SVGID_00000041257397979137087980000018337759582138837135_);fill:#303030;}
</style>
<g>
	<path class="st0" d="M474.9,361c-21.2,0-39.5-14.4-44.8-34.2c13.5,4.8,27.5,7.7,42.4,7.7c21.2,0,38-16.9,38-38
		c0-21.2-16.9-38-38-38c-25.5,0-47.7-20.7-47.7-46.2c0-3.4,0-10.1,0-10.1v-29.4c0-93.4-75.6-169.5-169.5-169.5
		c-93.4,0-169.5,75.6-169.5,169.5v29.4c0,0,0,6.3,0,10.1c0,25.5-22.2,46.2-47.7,46.2c-21.2,0-38,16.9-38,38c0,21.2,16.9,38,38,38
		c16.9,0,32.8-3.4,47.2-9.6C80.4,345.6,62.1,361,40,361c-21.2,0-38,16.9-38,38s16.9,38,38,38c33.2,0,63.6-13.5,85.7-35.2V452
		c0,21.2,16.9,38,38,38s38-16.9,38-38v-71.3h14.9v90.1c0,21.2,16.9,38,38,38s38-16.9,38-38v-90.1h14.9V452c0,21.2,16.9,38,38,38
		s38-16.9,38-38v-54.9c22.6,24.6,54.4,39.5,90.1,39.5c21.2,0,38-16.9,38-38C512.9,377.8,495.6,361,474.9,361z"/>
	<g>
		<g>
			<circle id="SVGID_19_" class="st1" cx="252.4" cy="184.2" r="84.3"/>
		</g>
		<g>
			<defs>
				<circle id="SVGID_1_" cx="252.4" cy="184.2" r="84.3"/>
			</defs>
			<clipPath id="SVGID_00000142140810460400126830000013512359015312328848_">
				<use xlink:href="#SVGID_1_"  style="overflow:visible;"/>
			</clipPath>
			<path style="clip-path:url(#SVGID_00000142140810460400126830000013512359015312328848_);fill:#303030;" d="M294.2,152.5
				c31.2,8.3,50,40.7,41.7,71.9c-8.3,31.2-40.7,50-71.9,41.7c-31.2-8.3-50-40.7-41.7-71.9S262.6,144.1,294.2,152.5z"/>
		</g>
	</g>
</g>
</svg>
