<?xml version="1.0" encoding="utf-8"?>
<!-- Generator: Adobe Illustrator 28.2.0, SVG Export Plug-In . SVG Version: 6.00 Build 0)  -->
<svg version="1.1" id="Layer_1" xmlns="http://www.w3.org/2000/svg" xmlns:xlink="http://www.w3.org/1999/xlink" x="0px" y="0px"
	 viewBox="0 0 512 512" style="enable-background:new 0 0 512 512;" xml:space="preserve">
<style type="text/css">
	.st0{fill:#5B738C;}
	.st1{fill:#0D151F;}
</style>
<g>
	<path class="st0" d="M463.3,255.8c0-57.6,0-115.7-0.1-151.7c0-13.6,0-22.7,0-25c0-27.5-31.8-75.8-65.7-77.5
		C363.5-0.2,189.5,0,189.5,0l-1.2,127.1l-13.7-2.1l-3.5,131.1l17.2-1.3V378l-17.2,1.3c0,0-123.5,73.7-29.6,132.6
		c41.2,0.4,159-0.7,181,0v0c33.9-0.2,62.6-0.1,75-0.7c33.9-1.7,65.7-50,65.7-77.5c0-2.3,0-11.2,0-24.7c0-7.1,0.1-15.2,0.1-23.9h0.1
		l0-36.9C463.4,319.7,463.4,287.6,463.3,255.8L463.3,255.8z"/>
	<path class="st1" d="M189.7,255.2V127.5h134V0.4c0,0-174.5-0.2-209.2,1.5c-33.9,1.7-65.7,50-65.7,77.5c0,2.3,0,10.8,0,23.7
		c-0.1,36.1-0.2,94.9-0.1,153c0,31.7,0,63.5,0,91.9l0,36.7h0.1c0,9.1,0,17.5,0.1,24.9c0,12.9,0,21.4,0,23.7
		c0,27.5,31.8,75.8,65.7,77.5c12.4,0.6,41.1,0.9,74.9,1.2v-3c0.1,0,0.1,0,0.2,0V378.3h134V255.2H189.7z"/>
</g>
</svg>
