<?xml version="1.0" encoding="utf-8"?>
<!-- Generator: Adobe Illustrator 28.2.0, SVG Export Plug-In . SVG Version: 6.00 Build 0)  -->
<svg version="1.1" id="Layer_1" xmlns="http://www.w3.org/2000/svg" xmlns:xlink="http://www.w3.org/1999/xlink" x="0px" y="0px"
	 viewBox="0 0 512 512" style="enable-background:new 0 0 512 512;" xml:space="preserve">
<style type="text/css">
	.st0{clip-path:url(#SVGID_00000176764094846440568740000017453139199982399157_);}
	.st1{clip-path:url(#SVGID_00000176764094846440568740000017453139199982399157_);fill:none;stroke:#1A171B;stroke-width:0.7705;}
	.st2{fill:#FFE400;}
	
		.st3{clip-path:url(#SVGID_00000039098905744219318470000008955863525203145345_);fill:none;stroke:#1A171B;stroke-width:1.1557;stroke-linejoin:bevel;}
	.st4{clip-path:url(#SVGID_00000162334935939796713020000003049082870282135177_);}
	.st5{clip-path:url(#SVGID_00000099625993509283542770000009580904255417371834_);}
	.st6{clip-path:url(#SVGID_00000116200705355960144590000013474850223760477323_);fill:#FFE50C;}
	.st7{clip-path:url(#SVGID_00000116200705355960144590000013474850223760477323_);fill:#FFE71C;}
	.st8{clip-path:url(#SVGID_00000116200705355960144590000013474850223760477323_);fill:#FEE92F;}
	.st9{clip-path:url(#SVGID_00000116200705355960144590000013474850223760477323_);fill:#FEEC45;}
	.st10{clip-path:url(#SVGID_00000116200705355960144590000013474850223760477323_);fill:#FEEE5C;}
	.st11{clip-path:url(#SVGID_00000116200705355960144590000013474850223760477323_);fill:#FEF073;}
	.st12{clip-path:url(#SVGID_00000116200705355960144590000013474850223760477323_);fill:#FEF389;}
	.st13{clip-path:url(#SVGID_00000116200705355960144590000013474850223760477323_);fill:#FDF59C;}
	.st14{clip-path:url(#SVGID_00000116200705355960144590000013474850223760477323_);fill:#FDF7AC;}
	.st15{clip-path:url(#SVGID_00000116200705355960144590000013474850223760477323_);fill:#FDF8B8;}
	.st16{clip-path:url(#SVGID_00000008149007548568246780000016720782307078686131_);}
	.st17{clip-path:url(#SVGID_00000157306607079130222160000018238806400800667051_);}
	.st18{clip-path:url(#SVGID_00000068665547705798990160000010512304793928708267_);fill:#FEE300;}
	.st19{clip-path:url(#SVGID_00000068665547705798990160000010512304793928708267_);fill:#FDE200;}
	.st20{clip-path:url(#SVGID_00000068665547705798990160000010512304793928708267_);fill:#FCE000;}
	.st21{clip-path:url(#SVGID_00000068665547705798990160000010512304793928708267_);fill:#FADE00;}
	.st22{clip-path:url(#SVGID_00000068665547705798990160000010512304793928708267_);fill:#F9DC00;}
	.st23{clip-path:url(#SVGID_00000068665547705798990160000010512304793928708267_);fill:#F8DA00;}
	.st24{clip-path:url(#SVGID_00000068665547705798990160000010512304793928708267_);fill:#F6D800;}
	.st25{clip-path:url(#SVGID_00000068665547705798990160000010512304793928708267_);fill:#F5D600;}
	.st26{clip-path:url(#SVGID_00000068665547705798990160000010512304793928708267_);fill:#F4D500;}
	.st27{clip-path:url(#SVGID_00000068665547705798990160000010512304793928708267_);fill:#F3D400;}
	.st28{fill:#FFE500;}
	.st29{fill-rule:evenodd;clip-rule:evenodd;}
	.st30{fill-rule:evenodd;clip-rule:evenodd;fill:#E2001A;}
	.st31{fill:#E2001A;}
</style>
<g>
	<g>
		<defs>
			<rect id="SVGID_1_" y="56.7" width="512" height="398.5"/>
		</defs>
		<clipPath id="SVGID_00000080897363267407556570000014261417108544950193_">
			<use xlink:href="#SVGID_1_"  style="overflow:visible;"/>
		</clipPath>
		<path style="clip-path:url(#SVGID_00000080897363267407556570000014261417108544950193_);" d="M404.4,268.1l19.7-35.7
			c-14.9-15.6-39.6-39.9-81.2-78.3c-96.7-89.7-102.5-89.3-104.8-89.3c-2.5,0-7.1-1.7-103.4,89C26.6,255.9,30.4,259.2,30.4,259.2
			S27,264.8,136,365.5c97.8,90.5,99.6,88,102.3,88c2.7,0,8.5,1.4,105-89.3c52.1-49,78-75.1,90.7-89L404.4,268.1z M404.4,268.1"/>
		
			<path style="clip-path:url(#SVGID_00000080897363267407556570000014261417108544950193_);fill:none;stroke:#1A171B;stroke-width:0.7705;" d="
			M404.4,268.1l19.7-35.7c-14.9-15.6-39.6-39.9-81.2-78.3c-96.7-89.7-102.5-89.3-104.8-89.3c-2.5,0-7.1-1.7-103.4,89
			C26.6,255.9,30.4,259.2,30.4,259.2S27,264.8,136,365.5c97.8,90.5,99.6,88,102.3,88c2.7,0,8.5,1.4,105-89.3
			c52.1-49,78-75.1,90.7-89L404.4,268.1z M404.4,268.1"/>
	</g>
	<path class="st2" d="M404.4,268.1l16.8-30.7c-12.7-14.1-38.6-40.3-91.1-88.8C234,59.7,228.8,59.3,225.3,59.3
		c-3.5,0-6.8-1.9-103.4,89C13.8,250.3,17.5,253.6,17.5,253.6s-3.3,5.6,105.7,106.3c97.1,89.9,99.4,88,102.3,88
		c2.9,0,8.5,1.5,105-89.3c49.6-46.7,75.3-72.6,88.6-87L404.4,268.1z M404.4,268.1"/>
	<g>
		<defs>
			<rect id="SVGID_00000027606507458006996900000004411601429978916483_" y="56.7" width="512" height="398.5"/>
		</defs>
		<clipPath id="SVGID_00000093872940497626898140000008196912670568087976_">
			<use xlink:href="#SVGID_00000027606507458006996900000004411601429978916483_"  style="overflow:visible;"/>
		</clipPath>
		
			<path style="clip-path:url(#SVGID_00000093872940497626898140000008196912670568087976_);fill:none;stroke:#1A171B;stroke-width:1.1557;stroke-linejoin:bevel;" d="
			M404.4,268.1l16.8-30.7c-12.7-14.1-38.6-40.3-91.1-88.8C234,59.7,228.8,59.3,225.3,59.3c-3.5,0-6.8-1.9-103.4,89
			C13.8,250.3,17.5,253.6,17.5,253.6s-3.3,5.6,105.7,106.3c97.1,89.9,99.4,88,102.3,88c2.9,0,8.5,1.5,105-89.3
			c49.6-46.7,75.3-72.6,88.6-87L404.4,268.1z M404.4,268.1"/>
	</g>
	<g>
		<defs>
			<rect id="SVGID_00000103256999644782150730000017101716717070036406_" x="19.4" y="59.5" width="401.3" height="387.5"/>
		</defs>
		<defs>
			<path id="SVGID_00000119824923597339757180000000759617814913688467_" d="M225.3,62.4C225.3,62.2,225.3,62.2,225.3,62.4
				C225.3,62.2,225.3,62.2,225.3,62.4c0.2,0,0.4,0,0.4,0s0,0-0.2,0C226.1,62.4,224.9,62.4,225.3,62.4L225.3,62.4z M420.2,241.8
				c-11.4-12.9-35.9-39-91.9-90.9C243.3,72,227.8,63.4,225.5,62.4c-2.3,0.8-17.6,9.3-101.3,88.2c-42.6,40.1-72.9,69.7-90.1,88
				c-7.5,7.9-12.7,14.1-13.3,14.7c1.7,2.9,13.5,19.9,104.6,104.2c39,36.1,67.7,61.7,85.5,76.2c2.5,2.1,14.3,11,14.3,11h0.4
				c1.2-0.2,14.7-5.2,103.2-88.4c54.4-51.3,78.9-77.4,90.9-90.5L420.2,241.8z M20,255.2c0.4-0.6,0.4-1,0.4-1.5
				C20.4,253.6,20,255.2,20,255.2L20,255.2z M20,255.2"/>
		</defs>
		<defs>
			<rect id="SVGID_00000138549354585272849880000010890290386063347613_" x="19.4" y="59.5" width="401.3" height="387.5"/>
		</defs>
		<clipPath id="SVGID_00000132804342830082568310000014139551720302246300_">
			<use xlink:href="#SVGID_00000103256999644782150730000017101716717070036406_"  style="overflow:visible;"/>
		</clipPath>
		
			<clipPath id="SVGID_00000116914326526854370840000003833143118900123797_" style="clip-path:url(#SVGID_00000132804342830082568310000014139551720302246300_);">
			<use xlink:href="#SVGID_00000119824923597339757180000000759617814913688467_"  style="overflow:visible;"/>
		</clipPath>
		
			<clipPath id="SVGID_00000119818790213497073190000001603739483475434121_" style="clip-path:url(#SVGID_00000116914326526854370840000003833143118900123797_);">
			<use xlink:href="#SVGID_00000138549354585272849880000010890290386063347613_"  style="overflow:visible;"/>
		</clipPath>
		<path style="clip-path:url(#SVGID_00000119818790213497073190000001603739483475434121_);fill:#FFE50C;" d="M179,396.8
			c0,0,0.2,0.2,0.4,0.2c-0.4-0.2-0.8-0.8-10.4-11.6l-0.6-0.6l-7.3-7.5L60.3,276.2l-16.4-16.4l-0.6-1c0-0.2,0.4-1.7,0.4-1.7
			c0.6-0.6,78.7-76,121.6-112.3c0,0,62.5-50.4,63.5-51.5c0-0.2-1.9-34.9-1.9-36.1c-1,0.8-95.5,85.1-95.5,85.1
			C96.4,173.3,29.8,246.1,27,248.8c-1.4,1.5-2.3,3.3-2.3,5.4c0,2.1,0.8,3.9,2.5,5.4l0.4,0.4c21.4,20.3,74.1,70.6,102.3,97.8
			c10.2,9.8,13.9,12.9,17.6,15.8l16.8,13.7c0,0,13.1,10,18.3,13.9C181.1,399.3,179,396.8,179,396.8L179,396.8z M179,396.8"/>
		<path style="clip-path:url(#SVGID_00000119818790213497073190000001603739483475434121_);fill:#FFE71C;" d="M167.4,385.6l-7.1-7.5
			L59.4,277L43,260.6l-0.8-1.2c0-0.4,0.2-2.5,0.2-2.5c0.2-0.4,76.8-74.7,121.9-112.9c0,0,62.1-50,63.1-51.1c0-0.2-1.9-31.7-1.9-33
			c-1,0.8-93.4,83.2-93.4,83.2C98,173,34.5,242.8,27.7,249.6c-1.2,1.2-2.1,2.9-2.1,4.6c0,1.7,0.6,3.3,2.1,4.6l0.4,0.4
			c21,20.1,73.3,69.8,102.3,97.8c10.2,9.8,13.9,12.9,17.4,15.8c0,0-0.2,0-0.4,0c0.4,0,2.1,1.4,15.6,12.5c0,0,1.7,1.2,1.7,1.4
			c0,0,7.7,5.8,9.3,7.1C171.9,390.6,167.4,385.6,167.4,385.6L167.4,385.6z M167.4,385.6"/>
		<path style="clip-path:url(#SVGID_00000119818790213497073190000001603739483475434121_);fill:#FEE92F;" d="M166.7,386
			C166.7,386,166.7,386.2,166.7,386l-7.1-7.3L58.8,277.7l-16.4-16.4l-0.8-1.4c0,0,0-0.2,0-0.4l0.2-2.7c0.4-1,78.2-76.4,122.2-113.5
			c0,0,61.7-49.8,62.9-50.9c0-0.2-1.9-29.3-1.9-30.5c-1,0.8-91.9,82-91.9,82c-34,29.9-97.4,99.6-104.2,106.5c-1,1-1.7,2.5-1.7,3.9
			c0,1.4,0.6,2.9,1.7,3.7l0.4,0.4c21.2,20.1,73.3,69.7,102.3,97.8c10,9.8,13.7,12.7,17.4,15.8c0,0,16.8,13.7,17,13.9
			c0,0,0.4,0.2,1.7,1.3C167.2,386.6,166.7,386,166.7,386L166.7,386z M166.7,386"/>
		<path style="clip-path:url(#SVGID_00000119818790213497073190000001603739483475434121_);fill:#FEEC45;" d="M58,278.3l-16.4-16.4
			l-1-1.7l-0.2-0.4v-0.4l0.2-2.7c0.4-1,78.3-76.6,122.5-114.2c0,0,61.5-49.6,62.5-50.4c0-0.2-1.9-26.8-1.9-28
			c-1,0.8-90.3,80.5-90.3,80.5C99.5,174.3,36,244.2,29.1,251.1c-1,0.8-1.4,2.1-1.4,3.1c0,1.2,0.4,2.3,1.4,3.1l0.4,0.4
			c21,19.9,72.9,69.3,102.3,97.8c10,9.8,13.7,12.7,17.2,15.6c0,0,3.9,3.1,7.3,5.8C147.9,368.2,114.9,335.2,58,278.3L58,278.3z
			 M58,278.3"/>
		<path style="clip-path:url(#SVGID_00000119818790213497073190000001603739483475434121_);fill:#FEEE5C;" d="M41,262.5l-1.2-1.9
			l-0.2-0.6v-0.4c0-0.2,0.2-2.9,0.2-2.9c0.4-1,78.2-77,122.9-114.8c0,0,61-49.2,62.3-50.2c0-0.2-1.9-24.3-1.9-25.5
			c-1,0.8-88.8,79.3-88.8,79.3C100.5,174.9,36.8,245.1,30,251.9c-0.8,0.6-1.2,1.7-1.2,2.5c0,0.8,0.4,1.9,1.2,2.5l0.4,0.4
			c16.4,15.6,71.8,68.5,102.3,97.8c3.3,3.3,6,5.8,8.1,7.7C129.4,350.9,41,262.5,41,262.5L41,262.5z M41,262.5"/>
		<path style="clip-path:url(#SVGID_00000119818790213497073190000001603739483475434121_);fill:#FEF073;" d="M40.1,263.3l-0.2-0.2
			l-1-1.7l-0.4-0.8l-0.2-0.8c0-0.2,0.2-3.1,0.2-3.1c0.2-1,78.3-77.6,123.3-115.6c0,0,60.6-49,61.9-49.8c0-0.2-1.9-21.2-1.9-22.4
			c-1,0.8-86.8,77.4-86.8,77.4c-33.4,29.3-97.3,99.4-104.2,106.3c-0.6,0.4-0.8,1-0.8,1.7c0,0.6,0.2,1.2,0.8,1.7
			c0,0,24.5,23.3,37.8,36.1C55.1,278.3,40.1,263.3,40.1,263.3L40.1,263.3z M40.1,263.3"/>
		<path style="clip-path:url(#SVGID_00000119818790213497073190000001603739483475434121_);fill:#FEF389;" d="M39.7,263.8
			L39.7,263.8z M38.3,261.7l-0.4-1l-0.2-1c0-0.2,0.2-3.3,0.2-3.3c0.2-1,78.5-77.8,123.5-116c0,0,60.4-48.8,61.6-49.6
			c0-0.2-1.9-19.5-1.9-20.8c-1,0.8-85.7,76.6-85.7,76.6C102,175.7,38.3,245.9,31.2,252.7c-0.4,0.4-0.6,0.8-0.6,1.2
			c0,0.4,0.2,0.8,0.6,1.3c0,0,5.2,5,7.9,7.5C38.7,262.3,38.3,261.7,38.3,261.7L38.3,261.7z M38.3,261.7"/>
		<path style="clip-path:url(#SVGID_00000119818790213497073190000001603739483475434121_);fill:#FDF59C;" d="M36.6,256.3
			c0.2-1,78.5-78.5,123.9-116.9c0,0,60-48.4,61.2-49.4c0-0.2-0.2-4.2-0.2-4.2s-1.5-10.6-1.7-13.3c-1,0.8-83.6,74.7-83.6,74.7
			c-25.9,22.6-70.6,70.6-92,93.6l-12,12.7v-0.2c0,0-0.2,0.4-0.4,0.8c0,0.2,0.2,0.4,0.2,0.4s0,0-0.2,0c0.4,0.2,1.4,1.2,4.6,4.2
			C36.6,257.9,36.6,256.3,36.6,256.3L36.6,256.3z M36.6,256.3"/>
		<path style="clip-path:url(#SVGID_00000119818790213497073190000001603739483475434121_);fill:#FDF7AC;" d="M137.3,148.6
			c-25.7,22.6-70.4,70.4-92,93.4c0,0-10.4,11-11.6,12.2c0.2,0.2,1.2,1.2,1.7,1.4c5.2-5.6,80.1-79.9,124.1-117.3l1-0.8
			c0,0,57.9-46.7,59.6-48.2c0-0.2-0.4-3.3-0.4-3.3s-0.8-8.1-1-10.2C217.8,76.5,137.3,148.6,137.3,148.6L137.3,148.6z M137.3,148.6"
			/>
		<path style="clip-path:url(#SVGID_00000119818790213497073190000001603739483475434121_);fill:#FDF8B8;" d="M138.1,149.4
			c-25.7,22.6-70.4,70.4-91.7,93.2c0,0.2-0.4,0.4-1,1.3c0,0-1.9,2.1-3.3,3.5c20.8-20.8,79.7-78.5,116.9-110l1-0.8v0.2
			c0.2-0.4,0.8-1,5.8-5c0,0,53.1-43,53.3-43.2c0-0.2-0.2-2.7-0.2-2.7S218,78.6,218,78C216.8,79,138.1,149.4,138.1,149.4L138.1,149.4
			z M138.1,149.4"/>
	</g>
	<g>
		<defs>
			<rect id="SVGID_00000134960204444216464180000017224393037188909698_" x="19.4" y="59.5" width="401.3" height="387.5"/>
		</defs>
		<defs>
			<path id="SVGID_00000008866341082276436930000016513368313826305211_" d="M225.3,62.4C225.3,62.2,225.3,62.2,225.3,62.4
				C225.3,62.2,225.3,62.2,225.3,62.4c0.2,0,0.4,0,0.4,0s0,0-0.2,0C226.1,62.4,224.9,62.4,225.3,62.4L225.3,62.4z M420.2,241.8
				c-11.4-12.9-35.9-39-91.9-90.9C243.3,72,227.8,63.4,225.5,62.4c-2.3,0.8-17.6,9.3-101.3,88.2c-42.6,40.1-72.9,69.7-90.1,88
				c-7.5,7.9-12.7,14.1-13.3,14.7c1.7,2.9,13.5,19.9,104.6,104.2c39,36.1,67.7,61.7,85.5,76.2c2.5,2.1,14.3,11,14.3,11h0.4
				c1.2-0.2,14.7-5.2,103.2-88.4c54.4-51.3,78.9-77.4,90.9-90.5L420.2,241.8z M20,255.2c0.4-0.6,0.4-1,0.4-1.5
				C20.4,253.6,20,255.2,20,255.2L20,255.2z M20,255.2"/>
		</defs>
		<defs>
			<rect id="SVGID_00000027568117369823082150000017174998581923016338_" x="19.4" y="59.5" width="401.3" height="387.5"/>
		</defs>
		<clipPath id="SVGID_00000117659906580891808230000008071591571670048640_">
			<use xlink:href="#SVGID_00000134960204444216464180000017224393037188909698_"  style="overflow:visible;"/>
		</clipPath>
		
			<clipPath id="SVGID_00000132769043866457548730000010046109365000707978_" style="clip-path:url(#SVGID_00000117659906580891808230000008071591571670048640_);">
			<use xlink:href="#SVGID_00000008866341082276436930000016513368313826305211_"  style="overflow:visible;"/>
		</clipPath>
		
			<clipPath id="SVGID_00000084503023516331359570000009575125019579697561_" style="clip-path:url(#SVGID_00000132769043866457548730000010046109365000707978_);">
			<use xlink:href="#SVGID_00000027568117369823082150000017174998581923016338_"  style="overflow:visible;"/>
		</clipPath>
		<path style="clip-path:url(#SVGID_00000084503023516331359570000009575125019579697561_);fill:#FEE300;" d="M260.2,101l10.4,12.5
			l10.8,12l7.3,7.5C327,171.4,405,249.8,405.9,250.5c0.2,0.2,0.4,0.4,0.4,0.6c0,0.2-0.2,0.4-0.2,0.6c-3.3,3.1-79.7,76.8-121.2,112.1
			l-63.9,51.7l1.9,39.4l97.6-87c35.7-31.3,103.8-106.1,104.4-106.7c1.7-1.4,2.7-3.7,2.7-6.2c0-2.5-1-4.6-2.7-6.2l-0.4-0.4
			c-11.8-11.2-71.8-68.5-102.3-97.8c-10.4-10-14.1-13.1-17.9-16.2l-16.6-13.7L260.2,101z M260.2,101"/>
		<path style="clip-path:url(#SVGID_00000084503023516331359570000009575125019579697561_);fill:#FDE200;" d="M271.6,112.8
			c0,0-0.2-0.2-0.4-0.2c0.4,0.2,0.8,0.8,10.4,11.6l0.6,0.6l7.3,7.5l100.9,101.1l16.4,16.4l0.6,1c0,0.2-0.4,1.7-0.4,1.7
			c-0.6,0.6-78.7,76-121.4,112.3c0,0-62.5,50.4-63.5,51.5c0,0.2,1.9,34.9,1.9,36.1c1-0.8,95.5-85.1,95.5-85.1
			c35.1-30.9,101.7-103.8,104.4-106.5c1.4-1.4,2.3-3.3,2.3-5.4s-0.8-3.9-2.5-5.4l-0.4-0.4c-21.4-20.3-74.1-70.6-102.3-97.8
			c-10.2-9.8-13.9-12.9-17.6-15.8l-16.8-13.7c0,0-13.1-10-18.3-13.9C269.5,110.4,271.6,112.8,271.6,112.8L271.6,112.8z M271.6,112.8
			"/>
		<path style="clip-path:url(#SVGID_00000084503023516331359570000009575125019579697561_);fill:#FCE000;" d="M283.2,124.1l7.1,7.5
			l100.9,101.1l16.4,16.4l0.8,1.2c0,0.4-0.2,2.5-0.2,2.5c-0.2,0.4-76.8,74.7-121.9,112.9c0,0-62.1,50-63.1,51.1
			c0,0.2,1.9,31.8,1.9,33c1-0.8,93.4-83.2,93.4-83.2c34-29.9,97.6-99.6,104.4-106.5c1.2-1.2,2.1-2.9,2.1-4.6c0-1.7-0.6-3.3-2.1-4.6
			l-0.4-0.4c-21-20.1-73.3-69.7-102.3-97.8c-10.2-9.8-13.9-12.9-17.4-15.8c0,0,0.2,0,0.4,0c-0.4,0-2.1-1.5-15.6-12.5
			c0,0-1.7-1.3-1.7-1.5c0,0-7.7-5.8-9.3-7.1C278.8,119.1,283.2,124.1,283.2,124.1L283.2,124.1z M283.2,124.1"/>
		<path style="clip-path:url(#SVGID_00000084503023516331359570000009575125019579697561_);fill:#FADE00;" d="M291.3,130.7
			l100.9,101.1l16.4,16.4l1,1.4l0.2,0.6l-0.2,2.7c-0.4,1-78.2,76.4-122.3,113.8c0,0-61.6,49.6-62.7,50.6c0,0.2,1.9,28.4,1.9,29.7
			c1-0.8,91.3-81.6,91.3-81.6c34-29.9,97.3-99.6,104.2-106.5c1-1,1.7-2.3,1.7-3.5c0-1.5-0.6-2.7-1.7-3.5l-0.4-0.4
			c-21-20.1-73.3-69.7-102.3-97.8c-10-9.8-13.7-12.7-17.4-15.8c0,0-13.1-10.8-15.4-12.7C288.4,127.6,291.3,130.7,291.3,130.7
			L291.3,130.7z M291.3,130.7"/>
		<path style="clip-path:url(#SVGID_00000084503023516331359570000009575125019579697561_);fill:#F9DC00;" d="M409.4,247.4l1.2,1.7
			l0.2,0.6c0,0.2,0,0.4,0,0.4l-0.2,2.9c-0.4,1-78.2,76.8-122.7,114.6c0,0-61.2,49.4-62.3,50.2c0,0.2,1.9,25.1,1.9,26.4
			c1-0.8,89.3-79.7,89.3-79.7c33.6-29.5,97.3-99.6,104.2-106.5c0.8-0.8,1.2-1.9,1.2-2.7c0-1-0.4-2.1-1.2-2.7l-0.4-0.4
			c-21-19.9-73.1-69.5-102.3-97.8c-8.1-7.9-12-11.2-15.2-13.9C311,148.8,409.4,247.4,409.4,247.4L409.4,247.4z M409.4,247.4"/>
		<path style="clip-path:url(#SVGID_00000084503023516331359570000009575125019579697561_);fill:#F8DA00;" d="M410.2,246.5l0.2,0.2
			l1,1.7l0.4,0.8l0.2,0.8l-0.2,3.1c-0.2,1-78.2,77.4-123.1,115.4c0,0-60.8,49-61.9,50c0,0.2,1.9,22,1.9,23
			c1-0.8,87.2-77.8,87.2-77.8c33.6-29.5,97.4-99.4,104.2-106.3c0.6-0.6,1-1.2,1-1.9c0-0.6-0.2-1.2-0.8-1.9c0,0-37.1-35.5-56-53.3
			C382.6,218.9,410.2,246.5,410.2,246.5L410.2,246.5z M410.2,246.5"/>
		<path style="clip-path:url(#SVGID_00000084503023516331359570000009575125019579697561_);fill:#F6D800;" d="M410.6,246.1l0.2,0.4
			c0.2,0.2,0.4,0.6,1.2,1.9l0.4,1l0.2,0.8l-0.2,3.1c-0.2,1-78.5,77.6-123.3,115.8c0,0-60.6,48.8-61.6,49.8c0,0.2,1.9,20.3,1.9,21.6
			c1-0.8,86.1-77,86.1-77c33.4-29.3,97.1-99.4,104.2-106.3c0.4-0.4,0.8-1,0.8-1.5c0-0.4-0.2-1-0.6-1.4c0,0-14.1-13.3-19.7-18.7
			C405,240.5,410.6,246.1,410.6,246.1L410.6,246.1z M410.6,246.1"/>
		<path style="clip-path:url(#SVGID_00000084503023516331359570000009575125019579697561_);fill:#F5D600;" d="M412.5,247.8
			L412.5,247.8z M413.1,248.8l0.2,1c0,0.2-0.2,3.3-0.2,3.3c-0.2,1-78.5,78-123.7,116.2c0,0-60.4,48.6-61.4,49.6
			c0,0.2,1.9,18.7,1.9,19.9c1-0.8,85.3-76.2,85.3-76.2c33.2-29.3,97.1-99.4,104.2-106.3c0.4-0.4,0.6-0.8,0.6-1c0-0.4-0.2-0.6-0.4-1
			c0,0-4.6-4.4-6.4-6C412.9,248.6,413.1,248.8,413.1,248.8L413.1,248.8z M413.1,248.8"/>
		<path style="clip-path:url(#SVGID_00000084503023516331359570000009575125019579697561_);fill:#F4D500;" d="M413.8,253.2
			c-0.2,1-78.5,78.2-123.9,116.6c-0.6,0.4-59.2,47.7-61.2,49.4c0,0.2,0.4,4.2,0.4,4.2s1.2,12.9,1.4,14.1c1-0.8,84.3-75.1,84.3-75.1
			c25.7-22.6,70.6-70.6,91.9-93.6l12-12.7c0,0,0.2-0.4,0.4-0.6c0-0.2-0.2-0.6-0.2-0.6s-3.5-3.3-5-4.8
			C413.8,250.9,413.8,253.2,413.8,253.2L413.8,253.2z M413.8,253.2"/>
		<path style="clip-path:url(#SVGID_00000084503023516331359570000009575125019579697561_);fill:#F3D400;" d="M414.8,253.4v0.2
			c-0.2,0.8-78.7,78.7-124.1,117.3c-0.2,0.2-0.4,0.4-1,0.8c0,0-59.6,48.2-59.8,48.4c0,0.2,1.7,13.9,1.7,15.2
			c1-0.8,82.2-73.5,82.2-73.5c25.7-22.6,70.4-70.4,91.9-93.4c0,0.2,1.7-1.7,1.7-1.7c0.2-0.2,9.3-9.8,10.2-10.8
			c-0.2-0.4-1.9-1.9-2.7-2.7C415,253.2,414.8,253.4,414.8,253.4L414.8,253.4z M414.8,253.4"/>
	</g>
	<path class="st28" d="M28.3,206.2L47.5,187l18.6,18.7l-19.3,19.2L28.3,206.2z M28.3,206.2"/>
	<rect x="389.3" y="189.4" class="st28" width="5.4" height="21"/>
	<path class="st29" d="M250.8,184.5v122.5h-36.1V206.7l15.6-3.7l-4.6-18.3L250.8,184.5z M250.8,184.5"/>
	<path class="st29" d="M104.9,211c15-0.6,36.7-1.7,50.4,0c17.4,2.1,40.3,6.6,42.1,31.1c0.8,11.6-3.1,21.6-19.5,34.7
		c0,0,16.6,18.1,31.7,35.3c0,0-18.9,17.9-29.3,26.4l-37.2-61.7c8.3-6.4,18.3-15.8,18.3-26.8c0-10.6-10-15.6-13.5-15.6h-7.7v103
		h-35.7V211H104.9z M104.9,211"/>
	<path class="st29" d="M293,336.8v-96.7h-34.9V209h106.5v31.1h-34.9v96.7H293z M293,336.8"/>
	<path d="M91.2,179.1L91,209.8H53.4v28.6l34.7-0.2v29.5H54v49.6H16.7V180.7C54,179.1,91.2,179.1,91.2,179.1L91.2,179.1z M91.2,179.1
		"/>
	<path class="st29" d="M477.5,257.1l24.1,0.8l9.5-62.1l-29.7-2.5L477.5,257.1z M477.5,257.1"/>
	<path d="M466.7,270.8l18.9-15.4l19.9,24.9l-18.7,15.1l-15.3-18.9L466.7,270.8z M466.7,270.8"/>
	<path class="st29" d="M242.5,299.9h-42.3L200,194l14.9-3.7l-4.8-19.1h32.4V299.9z M242.5,299.9"/>
	<path class="st29" d="M278.4,233c0,0-31.6,0.8-31.4,0.8l-3.5,0.4v-38.6h112.7v38.6h-3.7l-30.9-1.2v96.7h-43V233H278.4z M278.4,233"
		/>
	<path class="st29" d="M354,165h1.3c12.2,0,47.7-0.6,95.9,2.1l5.4,0.4l-50.6,94.2c10.4,0.2,23.9,0.4,41.7-0.8l3.9-0.2v38.2
		c0,0-98.4,0-100,0H344l50-96.7c-10.8,0-23.7,0-39.2,0.8l-1.4,0.2V165H354z M354,165"/>
	<path d="M82.9,168.7v34.7H45.1v21.2l34.7-0.2v36.1h-34V310H2.1V167.4l2.9-0.2c37.4-1.7,76.8-1.5,76.8-1.5"/>
	<path class="st29" d="M132.1,262.7c7.7-6.4,15.1-14.1,15.1-23c0-8.5-8.1-12.5-10.6-12.5h-4.6V262.7z M144.3,197.7
		c17,2.1,42.8,6.9,44.8,34c0.8,12.2-3.3,22.6-18.1,35.3l31.8,37.2l-1.9,1.9c-8.7,8.9-18.5,17.4-28.9,25.7l-2.7,2.3l-37.2-61.7v57.7
		H90.6V197.9l2.9-0.2C108.4,197.1,130.4,196.3,144.3,197.7L144.3,197.7z M144.3,197.7"/>
	<path class="st29" d="M467.5,184.2l36.5,2.9l-10.6,68.3l-30.1-1L467.5,184.2z M467.5,184.2"/>
	<path d="M498.4,275.6l-19.3-23.9L455.3,271h-3.7v3.7c-17,0.8-29.9,0.4-39.2,0.2l50.9-94.4c-48.2-2.7-83-2.1-108.4-1.5v31.8
		c31.3-1.7,44.8-1.5,56.5-1.7L361,305.9h2.3c1.7,0,96.9,0,96.9,0v-29.1l14.5,18.1L498.4,275.6z M498.4,275.6"/>
	<path class="st30" d="M239.4,174.3v122.2h-36.1v-100l15.6-3.7l-4.8-18.5H239.4z M239.4,174.3"/>
	<path class="st30" d="M93.5,200.9c15-0.6,36.7-1.7,50.4,0c17.4,2.1,40.3,6.7,42.1,31.1c0.8,11.6-3.1,21.6-19.5,34.7l32,37.4
		c-8.5,8.7-18.3,17.2-28.4,25.5l-38-63.1c8.3-6.4,18.3-15.8,18.3-26.8c0-10.6-10-15.6-13.5-15.6h-7.7v103H93.5V200.9z M93.5,200.9"
		/>
	<path class="st30" d="M281.5,326.6v-96.7l-34.9,0.8v-32h106.5v32l-34.9-0.8v96.7H281.5z M281.5,326.6"/>
	<path class="st30" d="M356.5,199.8v-31.7c12.2,0,47.1-0.6,95.3,2.1l-50.9,94.4c11,0.2,26.6,0.6,47.7-0.8v31.7c0,0-95.3,0-96.9,0
		h-2.3l50.2-96.7C388.2,199,374.5,199,356.5,199.8L356.5,199.8z M356.5,199.8"/>
	<path class="st31" d="M79.8,188.2v11.4H42v28.6l34.7-0.2v29.5H42.4v49.6H5.3V170.6l74.5-1.4V188.2z M79.8,188.2"/>
	<path class="st30" d="M466.7,251.3l24.1,0.8l9.5-62.1l-29.7-2.5L466.7,251.3z M466.7,251.3"/>
	<path class="st31" d="M459.8,271.4l18.7-15.1l15.4,18.9L475,290.3L459.8,271.4z M459.8,271.4"/>
</g>
</svg>
