<?xml version="1.0" encoding="utf-8"?>
<!-- Generator: Adobe Illustrator 27.7.0, SVG Export Plug-In . SVG Version: 6.00 Build 0)  -->
<svg version="1.1" id="Layer_1" xmlns="http://www.w3.org/2000/svg" xmlns:xlink="http://www.w3.org/1999/xlink" x="0px" y="0px"
	 viewBox="0 0 512 512" style="enable-background:new 0 0 512 512;" xml:space="preserve">
<style type="text/css">
	.st0{fill:#FFFFFF;}
</style>
<path class="st0" d="M0,0v512h512V0H0z M128.9,439H70.6v-27.4h58.3V439z M128.9,383H70.6v-27.4h58.3V383z M128.9,327H70.6v-27.4
	h58.3V327z M214.7,439h-58.3v-27.4h58.3V439z M214.7,383h-58.3v-27.4h58.3V383z M214.7,327h-58.3v-27.4h58.3V327z M300.4,439h-58.3
	v-27.4h58.3V439z M300.4,383h-58.3v-27.4h58.3V383z M300.4,327h-58.3v-27.4h58.3V327z M386.1,439h-58.3v-27.4h58.3V439z M439.5,383
	H327.8v-27.4h111.7V383z M327.8,327v-27.4H411V327H327.8z M468.3,271.8H43.7v-56.3h424.6L468.3,271.8L468.3,271.8z M70.6,187.7
	v-31.2h85.7v31.2H70.6z M185.5,187.7v-31.2h111.8v31.2H185.5z M468.3,129.4H43.7V73h424.6L468.3,129.4L468.3,129.4z"/>
</svg>
