<?xml version="1.0" encoding="utf-8"?>
<!-- Generator: Adobe Illustrator 28.2.0, SVG Export Plug-In . SVG Version: 6.00 Build 0)  -->
<svg version="1.1" id="Layer_1" xmlns="http://www.w3.org/2000/svg" xmlns:xlink="http://www.w3.org/1999/xlink" x="0px" y="0px"
	 viewBox="0 0 512 512" style="enable-background:new 0 0 512 512;" xml:space="preserve">
<style type="text/css">
	.st0{fill:#FFFFFF;}
</style>
<g>
	<path class="st0" d="M227.4,1.5c58.9-6.5,120,7.6,169.3,40.8c62.4,40.8,104.8,110.4,112.7,184.6c7.8,65.3-10.9,133.3-51.2,185.3
		c-39,51.4-98.3,86.8-162.1,96.6c-66.8,10.9-137.7-6-191.8-46.7C49,421.5,11.5,357.6,3,289.5c-8.1-61.2,6.5-125.3,41.2-176.6
		C85.1,51.4,153.9,9.3,227.4,1.5 M221.8,91c-71.1,13.5-128.1,77.8-133,150c-7.8,73,38.2,147.7,107.6,172.6
		c70.8,28.2,158.3,0.5,199.4-63.7c45.2-65.7,34.7-162.5-24.1-216.4C332.6,95.8,274.7,79.8,221.8,91z"/>
	<path class="st0" d="M273.3,137.3c6.8,2.6,9.3,9.7,12.5,15.7c13.9,29.2,28.2,58.2,42.3,87.3c14.9,0.4,29.9-0.7,44.7,1.1
		c14.7,2.5,17.1,25.8,2.3,30.1c-22.1,2.7-44.5,0.4-66.7,1c-8.4-17.1-16.6-34.3-25.2-51.4c-11.6,40.2-21.8,80.8-32.9,121.2
		c-3.6,11.5-4.4,25-14.2,33.3c-18.2-34.2-34-69.7-51.6-104.2c-16.5-0.6-33.1,1.3-49.4-1.6c-13.4-5.4-12.5-27,1.7-30.6
		c22.1-2.4,44.4-0.4,66.5-0.9c8.5,17.4,16.9,34.7,25.3,52C243.9,239.4,255.2,187.1,273.3,137.3z"/>
</g>
</svg>
