<?xml version="1.0" encoding="utf-8"?>
<!-- Generator: Adobe Illustrator 28.2.0, SVG Export Plug-In . SVG Version: 6.00 Build 0)  -->
<svg version="1.1" id="Layer_1" xmlns="http://www.w3.org/2000/svg" xmlns:xlink="http://www.w3.org/1999/xlink" x="0px" y="0px"
	 viewBox="0 0 512 512" style="enable-background:new 0 0 512 512;" xml:space="preserve">
<style type="text/css">
	.st0{fill:#D80037;}
	.st1{fill-rule:evenodd;clip-rule:evenodd;stroke:#000000;stroke-width:0.3479;stroke-miterlimit:11.3386;}
</style>
<g transform="translate(-103.1 -145.5)">
	<path class="st0" d="M445.1,605.6l-119.5-87.5L206,605.6l119.5-367.9l59.8,184L445.1,605.6z"/>
	<path class="st1" d="M175.5,571.5c3.6-3,9-7.2,16.1-6.6c7.2,0.6,23.3,1.8,29.3,0.6c6-1.2,10.7,0.6,12.5-4.2
		c1.8-4.8,2.4-20.3,7.2-26.3c4.8-6,17.9-12.5,19.7-18.5c1.8-6,2.4-8.4,0-14.3c-2.4-6-7.8-11.3-15.5-14.9c-7.8-3.6-14.9-6-14.9-6
		s-15.5,14.3-16.1,17.9c-0.6,3.6,1.2,7.2-2.4,9c-3.6,1.8-9.6-3.6-10.7-13.1c-1.2-9.6,3-20.9,2.4-27.5c-0.6-6.6-4.8-12.5-1.2-19.1
		c3.6-6.6,11.9-16.7,18.5-21.5c6.6-4.8,17.9-5.4,19.7-11.3c1.8-6-11.3-28.7-11.3-34s1.8-15.5-2.4-23.9c-4.2-8.4-9-26.3-26.9-37.6
		c-17.9-11.3-30.5-16.1-33.4-24.5c-3-8.4-0.6-8.4,3-10.7c3.6-2.4-9.6-16.1-13.7-29.3c-4.2-13.1-11.3-39.4-8.4-41.8
		c3-2.4,11.9,0,13.7,4.8c1.8,4.8,9,34,9,34s-1.8-22.1,1.2-28.7c3-6.6,6.6-13.1,10.2-11.3c3.6,1.8,1.8,40.6,1.8,40.6s3.6-9,6-14.3
		s4.2-10.2,7.2-7.2c3,3,0.6,31.7,0.6,31.7s4.8-7.2,8.4-9c3.6-1.8,5.4-3,7.8,1.2c2.4,4.2,1.8,9.6,1.8,9.6s1.8-6,6-6s9.6,1.8,7.8,6.6
		c-1.8,4.8,16.1,0.6,14.9,9c-1.2,8.4,0,16.1,4.8,16.1c4.8,0,7.8,6.6,17.3,4.2c6,3.6-3,25.7,1.2,22.7c4.2-3,13.7-5.4,17.3,1.2
		c3.6,6.6-4.8,14.3,0,20.3c4.8,6,0,11.3,7.2,16.1c7.2,4.8,7.8,1.2,9.6,11.9c1.8,10.7,1.8,15.5,4.8,19.7c3,4.2,6.6,7.2,6,16.1
		c-0.6,9-6,17.3,1.2,16.1c7.2-1.2,10.2-8.4,15.5-11.3c5.4-3,6.6-3.6,13.7-9c7.2-5.4,8.4-12.5,12.5-14.3c4.2-1.8,7.8-1.2,13.7-3.6
		c6-2.4,11.9-7.8,14.9-10.2c3-2.4,3-3.6,8.4-8.4c5.4-4.8,10.7-7.8,14.3-15.5c3.6-7.8,3-8.4,7.2-19.7c4.2-11.3,3-14.9,5.4-19.7
		c2.4-4.8,2.4-9,6.6-13.1c4.2-4.2,7.8-9,8.4-4.8c0.6,4.2,0.6,10.2,0.6,13.7s5.4-5.4,10.2-14.3s2.4-10.2,4.2-17.9
		c1.8-7.8,0-13.1,0.6-22.1c0.6-9,1.8-9.6,2.4-22.7c0.6-13.1,1.7-15.3,1.7-24.9c0-9.6-0.3-13.4-0.5-20.5c2.1-5.4,4.4-7.1,6-6.6
		c1.9,0.5,4.5,0.5,6.1,7.8c1.2,7.8,2.3,13.6,3.5,28.1c-1.2,14.3-1.8,26.9,0.6,30.5c2.4,3.6,4.2,3,6-1.2c1.8-4.2,1.8-6,4.2-13.1
		c2.4-7.2,2.2-11.9,3.5-21.9c-0.6-14.9,0.1-21.7,0.7-33.1c0.6-11.3-0.1-11.7,1.2-18.5c1.1-6.5,2.6-8,7.8-7.2
		c3,3.6,3.6,12.5,4.8,20.3c1.2,7.8,1.2,7.2,1.8,21.5c0.6,14.3,0.1,20.1-1.1,24.8c-0.3,5.3-1.3,10.6-0.7,12.8
		c3.6-2.4,3.6-6.6,7.2-14.9c3.6-8.4,6.6-15.5,7.8-25.1c1.2-9.6,4.4-13.1,6.4-23.6c4.8-10.2,5.8-12.6,9.1-12.9
		c3.5,2.5,5.1,4.7,4.8,12.5c-1.8,8.4-1.8,12.5-4.8,20.9c-3,8.4-2.4,11.9-6.6,20.9c-2.5,7.9-2.9,10.5-4.2,13.1c6,0.6,5.9-1.8,9.6-6
		c6-11.5,3.7-9.1,6-12.5c3.3-6.9,6.2-9.5,9-8.4c3,4.8,4.2,6,1.8,11.3c-2.4,5.4-0.6,1.8-4.2,9.6c-3.6,7.8-7.2,10.7-2.4,10.2
		c4.8-0.6,5.4,0,8.4-4.8c3-4.8,0-5.4,6.6-8.4c6.6-3,10.7-8.4,12.5-4.2c1.8,4.2,2.4,3.6-1.8,9.6c-4.2,6-8.4,7.8-6.6,10.7
		c1.8,3,6.6,3.6,10.2,3.6c3.6,0,4.2,0.6,2.4,6.6c-1.8,6-2.4,6-3,9c-0.6,3,2.4,5.4,2.4,5.4s5.4-3.6,1.2,5.4c-4.2,9-6.6,6.6-9,10.7
		c-2.4,4.2-4.8,8.4-1.2,8.4c3.6,0,7.2-0.6,6.6,2.4c-0.6,3-6,6-3,7.8s5.4-0.6,7.8,1.8c2.4,2.4,0,6.6,0,9.6c0,3-0.6,5.4,0.6,8.4
		c1.2,3,3.6,6,1.8,9c-1.8,3,0.6,3.6-4.2,6.6c-4.8,3-7.8,2.4-7.8,5.4s-0.6,2.4,2.4,4.8c3,2.4,6.6,0.6,4.2,6s-1.8,4.8-3,9.6
		c-1.2,4.8,0.6,2.4-4.8,13.7c-5.4,11.3-10.7,19.7-16.1,22.7c-5.4,3-4.2,9.6-0.6,10.7c3.6,1.2,4.2,6.6,0.6,14.3
		c-3.6,7.8-7.8,17.9-9,23.3c-1.2,5.4-2.4,6-8.4,12.5c-6,6.6-10.7,12.5-16.1,14.3c-5.4,1.8-6,7.8-9.6,10.7c-3.6,3-4.8,4.8-12.5,4.8
		c-7.8,0-7.8-1.8-15.5,0.6c-7.8,2.4-11.3,4.8-11.9,8.4c-0.6,3.6-3,5.4-7.8,4.2c-4.8-1.2-1.2,2.4-7.2,4.8c-6,2.4-4.2,5.4-11.3,4.8
		c-7.2-0.6-10.7-6-12.5,0c-1.8,6-2.4,10.7-10.2,5.4c-7.8-5.4-11.9-19.7-16.1-4.8c-4.2,14.9-4.2,18.5,0.6,22.7
		c4.8,4.2,6,7.8,16.7,11.9c10.7,4.2,10.7,9,18.5,11.9c7.8,3,8.4,4.2,20.3,10.2c11.9,6,14.9,7.8,22.1,11.9c7.2,4.2,9,8.4,10.7,12.5
		c1.8,4.2,9.6,9,6.6,14.9c-3,6-9,2.4-9,5.4c0,3,1.2,5.4-1.2,11.3c-2.4,6-1.8,8.4-10.2,10.7c-8.4,2.4-13.1,3.6-17.3,1.8
		c-4.2-1.8-5.4,5.4-9.6,3.6c-4.2-1.8-6-7.2-9-4.2c-3,3,2.4,4.8-4.8,6.6c-7.2,1.8-7.8-3-8.4,1.2c-0.6,4.2,1.8,8.4-6,4.2
		c-7.8-4.2-5.4-12.5-11.3-6.6c-6,6-3,13.1-13.7,7.2c-10.7-6-7.2-6.6-15.5-6c-8.4,0.6-8.4,1.2-11.3-5.4c-3-6.6,3-4.8-10.2-5.4
		c-13.1-0.6-6.6,7.8-14.9-3.6c-8.4-11.3-10.2-22.7-13.7-10.2c-3.6,12.5,0,15.5-5.4,19.1c-5.4,3.6-32.8,2.4-32.8,2.4
		s-0.6,13.7-3,16.1c-2.4,2.4-8.4-2.4-13.7,2.4c-5.4,4.8-1.8,7.8-6.6,11.9c-4.8,4.2-14.3,4.8-14.3,4.8s6.6-5.4,8.4-10.2
		c1.8-4.8,4.2-13.1,4.2-13.1s-9.6,3.6-13.7,4.2c-4.2,0.6-10.7-0.6-10.7-0.6l1.8,13.7c0,0-11.3,0-11.3-4.8c0-4.8,3.6-17.9,6.6-19.7
		c3-1.8,7.2-1.2,7.2-1.2s-1.2-6,1.8-7.2c3-1.2,4.8,0,9.6,0c4.8,0,26.3-6.6,26.3-6.6s-0.6-15.5,1.8-22.1c2.4-6.6,13.7-25.1,8.4-28.1
		c-5.4-3-9.6-0.6-12.5,2.4c-3,3-8.4,11.9-19.7,14.3c-11.3,2.4-20.3,3.6-20.3,3.6s-2.4,1.2-2.4,6c0,4.8,4.2,9.6-1.8,15.5
		c-6,6-10.7,11.3-17.3,8.4c-6.6-3-7.8-6.6-7.8-6.6s4.8,3,12.5,1.2c7.8-1.8,4.8-16.7,4.2-19.7c-0.6-3-6.6-6-10.2-3
		c-3.6,3-8.4,10.7-5.4,13.7c3,3-8.4-6.6-7.8-10.7c0.6-4.2,2.4-7.2,2.4-7.2s-7.8,0-12.5-0.6c-4.8-0.6-8.4-3-8.4,0.6
		c0,3.6,2.4,19.7-3,9.6S170.1,576.9,175.5,571.5L175.5,571.5z"/>
</g>
</svg>
