<?xml version="1.0" encoding="utf-8"?>
<!-- Generator: Adobe Illustrator 28.2.0, SVG Export Plug-In . SVG Version: 6.00 Build 0)  -->
<svg version="1.1" id="svg71" xmlns:svg="http://www.w3.org/2000/svg"
	 xmlns="http://www.w3.org/2000/svg" xmlns:xlink="http://www.w3.org/1999/xlink" x="0px" y="0px" viewBox="0 0 512 512"
	 style="enable-background:new 0 0 512 512;" xml:space="preserve">
<style type="text/css">
	.st0{fill:#FFFFFF;}
</style>
<g id="g69" transform="matrix(0.23173063,0,0,-0.23173063,-95.996013,6343.887)">
	<g>
		<path id="path65_00000116214116406726047670000008904320523898144170_" class="st0" d="M1522.2,27322.4c-17.7-0.9-37-2.3-42.9-3.4
			c-5.9-1.1-15.2-2-20.6-2c-5.4,0-12.7-0.7-16.1-1.8c-3.4-0.9-13.4-2.5-22.4-3.4c-17.2-2-33.6-4.5-53.6-8.2
			c-6.8-1.4-17.3-3.4-23.2-4.5c-5.9-1.3-16.3-3.2-23.2-4.6c-6.8-1.4-16.3-3.2-20.7-4.1c-4.5-0.9-11.8-2.7-16.1-3.8
			c-4.3-1.1-12.7-3.2-18.6-4.8c-42.4-10.6-69.7-18.1-103.7-29c-35.2-11.1-59.9-19.3-72.8-24.3c-6.4-2.5-11.1-4.3-27.7-10.6
			c-8.8-3.2-25.6-9.8-30-11.8c-2-0.7-13.6-5.7-25.9-10.7c-59.7-25-132.2-61-182.1-90.7c-7.3-4.3-13.4-7.7-13.8-7.7s-4.1-2.3-8.4-5.2
			c-4.3-2.9-10.6-6.6-13.9-8.6c-7.3-3.9-8.6-4.6-45.6-29c-111.1-72.8-213.7-159.7-301.9-256.1c-27.7-30.2-26.6-28.1-22-49.9
			c1.4-6.4,3.6-16.8,4.6-23.2c3.4-18.1,7-35.4,9.8-49.2c1.6-6.8,3.4-16.3,4.3-20.7s2.5-11.4,3.4-15.2c1.1-3.8,3.2-12.5,4.8-19.5
			c2.9-12.9,5.9-24.7,10.9-44.2c7.2-27.5,8.9-30,14.7-20.2c4.3,7.2,33.3,45.8,44,58.8c4.1,4.7,10.4,12.3,14.1,17
			c46.1,55.4,106,115.9,163.3,164.7c49.4,42.2,88.2,71.4,143.1,108c25,16.8,20.4,13.9,57.9,36.5c40.1,24.3,57.6,34,99.3,54.5
			c24.1,12,36.3,17.9,64.4,30.8c5,2.1,13.4,5.9,18.8,8c5.4,2.1,12.3,4.8,15.2,6.3c3,1.2,9.8,4.1,15.2,6.1c5.4,2.1,11.4,4.6,13.4,5.4
			c14.3,5.9,47.9,18.1,49.9,18.1c0.7,0,3.9,1.1,7,2.3c19,8,110.3,34.9,138.1,40.4c3.9,0.7,10.4,2.3,14.3,3.4
			c3.9,1.1,13.6,3.2,21.5,4.8c7.9,1.6,17.9,3.8,22.4,4.7c16.6,3.8,67.4,11.8,89.4,14.1c9.3,0.9,19,2.1,21.5,2.7
			c2.5,0.5,15.4,1.8,28.6,2.5c71.4,4.8,96,5.9,117.1,4.8c44.7-2,84.1-4.8,94.4-6.8c11.1-2.1,14.1-5.2,17.5-18.4
			c0.7-2.9,3-10.9,5-17.9c2-6.8,5.4-19.7,7.5-28.6c2-8.8,4.5-19.3,5.5-23.2c0.9-3.9,2.5-12,3.2-17.9c0.9-5.9,2.3-13.1,3.4-15.7
			c1.1-2.9,2-8.4,2-12.5c0-4.1,0.9-10.4,1.8-13.8c1.1-3.4,2.7-14.7,3.6-25c1.1-10.4,2.5-25.6,3.4-34c1.1-8.4,1.8-41.3,1.8-73.3
			c0-32-0.7-64.9-1.8-73.3c-0.9-8.4-2.3-23.6-3.4-34c-0.9-10.4-2.5-21.6-3.6-25c-0.9-3.4-1.8-8.6-1.8-11.6c0-2.9-1.1-10.9-2.5-17.9
			c-1.6-6.8-3.9-19-5.5-26.8c-2.9-14.3-5.2-24-10.9-45.6c-6.1-23.6-8.4-31.5-10.6-37.6c-1.3-3.4-3.9-11.4-6.1-17.9
			c-4.1-13.2-7.2-22.5-9.3-27.7c-0.7-2-4.3-11.3-7.9-20.6c-3.6-9.3-7.9-19.9-9.3-23.2c-1.6-3.4-3.9-8.6-5.2-11.6
			c-43.8-104.8-124.1-223.5-218-322.8c-28.8-30.4-76-75.8-103.7-99.4c-41.5-35.6-59.4-50.1-96.6-78
			c-33.1-24.9-104.1-74.2-112.7-78.3c-0.9-0.5-5.4-3.2-9.8-6.1c-28.6-18.4-29.7-19.3-24.5-24.7c1.3-1.3,10.7-11.6,20.9-22.9
			c22.9-25,59.6-62.1,82.1-82.6c11.4-10.7,17.5-15.2,19.7-14.5c3.4,1.3,38.4,24.3,69,45.4c47.6,32.7,136.4,102.3,172.6,134.8
			c50.1,45.2,83,77.4,117.1,114.6c40.1,43.3,60.4,67.4,95,112.5c21.5,28.1,57.6,81.4,76.5,113c6.6,11.1,12.7,20.6,13.4,21.1
			c1.8,1.1,19.5-2.9,55.6-12.5c17.2-4.5,57.2-17.2,70.3-22.4c2.1-0.7,7.2-2.7,11.1-4.1c26.6-10,59.9-25.2,59.9-27.4
			c0-0.7-13.4-26.3-22.9-43.6c-9.7-17.5-35.1-59.2-50.3-82.3c-24-36.5-81.9-112.5-106.4-139.5c-3-3.4-13.6-15-23.4-25.9
			c-37.2-41.1-71.9-75.8-114.5-114.5c-10.7-9.8-20-18.2-20.6-18.8c-1.3-1.4-39.2-33.8-48.5-41.3c-4.3-3.6-11.8-9.8-16.8-13.8
			c-13.6-11.1-90.5-69.2-106-80.1c-7.5-5.2-26.1-17.7-41-27.7c-15-10.2-27.4-19.3-27.4-20.7c0-1.3,4.6-5.4,10.4-9.1
			c5.5-3.8,12.7-8.4,15.6-10.6c8.6-5.9,42.9-28.4,45.8-29.9c3-1.4,7.2-3.9,17.3-10.6c4.1-2.7,10.6-6.6,14.3-8.6
			c3.6-2,9.5-5.4,12.9-7.3c20.7-12.3,41.3-22.9,44.2-22.9s15.2,7.9,24.7,15.7c1.1,0.7,5.9,4.1,10.7,7.5c12.3,8.2,66,49.5,94.1,72.4
			c54.5,44.2,101,86,152.7,137.7c37.2,37.4,68.9,71.2,86.9,92.8c2.3,2.9,5.2,6.1,6.1,7.2c13.9,15.4,68.1,83.2,76.4,95.9
			c1.8,2.5,7.7,10.9,13.4,18.8c14.7,20.2,54.2,80.1,54.2,82.1c0,0.5,2.3,4.3,5.2,8.6c2.7,4.3,7.3,11.8,10,16.6
			c2.7,5,6.8,12.2,8.9,16.1c17.7,30.4,52.4,100.5,63.5,127.9c2.1,5.4,5.2,12.5,6.4,15.6c4.6,10.6,7.5,17.3,10.6,25.6
			c1.8,4.5,3.8,9.7,4.6,11.6c0.9,2,2.3,6.1,3.2,8.9c0.9,3,3.4,9.8,5.5,15.2s4.6,12.3,5.4,15.2c0.9,3,4.8,15,8.9,26.8
			c8.2,24.5,12.5,38.8,20.6,68c1.6,5.9,4.1,14.5,5.5,19c1.4,4.6,2.5,9.5,2.5,11.1c0,1.4,1.1,6.6,2.5,11.3c1.4,4.8,3.9,15.2,5.5,23.1
			c1.8,7.9,4.1,19.1,5.4,25c9.3,41.7,21.3,119.6,24.1,157.9c1.1,12.2,2.1,22.9,2.7,23.6c0.5,0.9,2,21.1,3,45.1
			c2.7,51.3,2.9,134.5,0.7,172.4c-1.3,20.2-1.1,27.4,0.5,28.3c1.8,1.3,42.7-18.2,68.1-32.4c5.4-3,13.2-7.3,17.5-9.7
			c4.3-2.3,9.1-5,10.7-6.1c40.4-23.6,41.5-24.5,41.5-36.1c0-4.7,1.3-16.6,2.9-26.5c2.5-14.7,3-32.7,3-101c0-54.2-0.7-87.8-2-96.6
			c-1.1-7.3-2.9-23.4-3.9-35.8c-1.1-12.3-2.7-26.8-3.6-32.2c-1.6-10-4.5-29.9-7-49.2c-0.7-5.9-2-12.3-2.5-14.3
			c-0.7-2-2-8.8-2.9-15.2c-2-12.2-5.5-30.6-9.8-50.1c-6.1-27.2-7.9-35.2-9.8-42.9c-1.3-4.5-3.4-12.9-5-18.8
			c-3.6-14.8-12-44.7-15.7-57.2c-1.3-3.9-3.6-11.6-5.2-17c-1.6-5.4-6.1-19.5-10.2-31.3c-3.9-11.8-7.9-23.8-8.8-26.8
			c-0.9-2.9-4.5-13.4-8-23.2s-7.2-19.8-8-22.4c-4.5-13.2-10-26.8-30.4-75.1c-20.7-49-38.3-86-55.1-116.6
			c-3.2-5.7-8.2-14.8-11.1-20.2c-3-5.4-8-14.1-11.3-19.1c-3.2-5.2-8.2-13.4-11.1-18.1c-8.8-14.3-30-46-40.4-60.4
			c-16.8-23.1-51.9-68.1-57-73.1c-0.5-0.5-3.2-3.8-6.1-7.2c-25.4-31.3-95.7-101.4-137-136.8c-29.7-25.4-67.1-55.4-78.7-63.5
			c-3.4-2.3-6.6-4.8-7.2-5.4c-1.4-1.6-61-42.7-72.4-50.1c-20.6-13.1-30.2-19.1-32.7-20.6c-1.6-1.1-6.3-3.9-10.2-6.4
			s-8.4-5.2-9.8-5.7c-1.4-0.7-5-2.9-8-4.7c-2.9-2-9.3-5.7-14.3-8.4c-15.9-8.8-17.7-9.8-28.6-15.9c-21.5-12.3-97.3-49.2-124.5-60.6
			c-26.8-11.4-28.3-11.8-33.1-9.1c-2.9,1.4-18.4,9.1-34.7,17c-16.3,7.9-34.7,17.2-41.1,20.7c-6.4,3.6-16.8,9.1-22.9,12.7
			c-68.1,37.4-171.7,108.6-228.5,157c-7,5.9-16.5,13.9-21.3,17.9c-4.8,3.9-13.4,11.3-18.8,16.1c-5.5,5-17.2,15.4-26.1,23.2
			c-8.8,7.7-33.6,31.8-55.4,53.7c-35.8,35.8-48.8,49.7-77.6,82.3c-5.2,5.9-11.6,13.2-14.1,16.1c-7.2,8-7.7,10.9-3.6,21.1
			c3.9,9.8,5.2,12.7,13.9,32.2c3,6.6,5.5,12.5,5.5,13.1c0,1.1,20.7,45.2,23.2,49c0.9,1.4,4.8,9.1,8.8,17
			c10.6,20.6,17.9,33.6,35.4,62.8c8.8,14.3,16.6,27.2,17.5,29c15.6,25.8,58.5,82.3,80.1,105.2c5.4,5.7,11.4,12.5,13.4,15
			c4.8,6.1,45.6,42.9,57.6,51.9c8.8,6.6,23.8,17,32.5,22.4c7.9,4.8,35.6,19,41.8,21.3c3.8,1.3,13.8,5,22.2,8
			c35.8,13.2,61.5,20.7,109.6,31.7c7.5,1.6,13.8,3.6,13.8,4.1c0,0.7,1.8,3,4.1,5.5c15,16.6,61,85.5,81.7,122.5
			c12.2,21.6,26.8,51.5,26.8,54.5c0,3.2-1.3,3.6-10.2,3.6c-5.7-0.2-18.4-0.9-28.3-1.8c-9.8-1.1-27.2-2.7-38.4-3.6
			c-11.3-1.1-24.9-2.5-30.4-3.6c-5.4-0.9-17.5-2.9-26.8-4.5c-39.5-6.6-75.3-15.2-121.6-29.5c-23.2-7.2-25.6-7.9-67.1-24.3
			c-19.5-7.7-29.3-12.3-50.1-24c-69.7-39-137.2-98.7-197.8-175.3c-16.6-20.9-27.9-35.9-34.9-46.5c-3-4.5-9.8-14.5-15.4-22.4
			c-5.4-7.9-13.2-20.2-17.7-27.4c-4.3-7.2-9.3-15.2-10.9-17.9c-1.8-2.7-3.9-6.4-5-8.4c-0.9-2-2.9-5.2-3.9-7.2
			c-8.2-12.7-40.8-72.4-43.6-79.6c-0.5-1.4-1.8-3.9-2.7-5.4c-0.9-1.4-2.3-4.5-3.4-6.6c-0.9-2.1-4.5-9.8-7.7-17
			c-19.9-42.4-29.5-64.4-38.1-87.6c-1.4-3.8-3.8-10.2-5.4-14.3c-1.6-4.3-4.1-10.9-5.5-14.8c-1.4-3.9-3.8-9.8-5.2-13.1
			c-1.4-3.2-2.5-7.3-2.5-9.3c0-1.8-0.7-3.8-1.6-4.3s-2.1-3.2-2.7-5.9c-0.5-2.9-3.2-11.6-5.7-19.5c-2.9-8.6-4.3-16.3-3.8-18.8
			c1.1-3.6,44.2-62.8,56-76.7c51.1-60.1,65.1-75.3,112.3-122.5c65.6-65.5,105.9-101.2,168.3-149.7c7.9-6.1,15.2-11.8,16.1-12.5
			c34-26.5,107.5-77.6,137.2-95.3c1.8-0.9,12.5-7.5,24.1-14.5c11.6-7.2,24.3-14.7,28.3-16.8s10.4-5.9,14.3-8
			c37-21.5,103.9-54.2,156.5-76.7l27.9-11.8l26.6,8.8c32.9,10.9,38.6,13.1,51.7,18.8c5.7,2.5,11.1,4.7,12,4.7s6.8,2.5,12.9,5.4
			c6.3,3,12,5.4,12.5,5.4c0.7,0,7,2.7,14.1,6.1c7.2,3.2,18.8,8.6,25.6,11.8c97.5,45.1,206,110.3,296.7,178.5
			c34,25.6,35.6,26.8,69.9,56c70.8,60.1,122.3,111.8,179.9,180.4c48.3,57.4,105.5,140.4,137,198.5c4.1,7.3,10.2,18.6,13.8,25
			s11.6,22.2,17.9,34.9c10.2,21.1,14.5,29.9,24.3,51.9c1.8,3.9,5.2,11.6,7.7,17s6.3,14.3,8.4,19.7s5,12.3,6.3,15.2
			c1.3,3,5,11.8,8,19.7c3.2,7.9,6.4,15.9,7.5,17.7c1.1,2,2.5,5.5,3.2,8c0.9,2.5,3.2,9.1,5.4,14.5c6.3,16.3,8.9,23.6,13.4,36.7
			c2.3,7,6.1,17,8,22.4c2.1,5.4,4.5,12.3,5.4,15.2c0.7,3,4.6,15.4,8.8,27.7c7,21.5,10.2,31.8,15.6,50.6c1.4,4.7,3.6,12.2,5,17
			c1.3,4.7,3.8,13.6,5.5,20c1.6,6.4,4.1,15.6,5.5,20.4c1.4,4.7,2.5,9.8,2.5,11.3c0,1.4,1.1,6.3,2.5,10.9s3.9,14.8,5.5,22.7
			c1.6,7.9,4.1,18.4,5.5,23.4s2.5,11.1,2.5,13.8c0,2.5,0.9,6.8,2,9.7c1.1,2.7,2.5,9.8,3.4,15.7c1.8,12.9,4.8,30.9,7.3,42
			c0.9,4.5,2.5,14.1,3.4,21.5c0.9,7.3,2.3,19.1,3.4,25.9c3.2,23.4,7.3,60.8,9.5,87.6c3,36.3,3,179.7,0,211.9
			c-4.6,49.7-13.6,103-20.9,126.1c-1.3,3.9-2.9,9.1-3.4,11.6c-0.9,4.6-6.1,8.6-42.7,33.3c-15.4,10.4-31.1,20.6-35.2,22.7
			c-1.4,0.7-5,2.9-8,4.8c-2.9,2-6.6,4.1-8,4.8c-1.4,0.7-7.9,4.3-14.1,8.2c-6.3,3.8-13.2,7.7-15.2,8.6c-2.1,0.9-6.6,3.4-10,5.5
			c-8.2,5-81.2,41.7-98.4,49.5c-7.3,3.4-19,8.8-25.9,11.8c-6.8,3.2-25.4,11.3-41.1,17.9c-15.7,6.4-30.9,12.9-34,14.1
			c-2.9,1.4-8.6,3.6-12.5,5.2c-3.9,1.4-10.7,3.9-15.2,5.7c-4.5,1.6-10.4,4.1-13.4,5.4c-5,2.1-8,3.2-26.8,10.4
			c-3.9,1.4-13.6,5.2-21.5,8.4s-17.5,7-21.5,8.4c-3.9,1.6-8.8,3.4-10.7,4.3c-2,0.7-11.3,4.3-20.6,7.9c-9.3,3.6-20.2,7.7-24.1,9.1
			c-3.9,1.6-9.5,3.9-12.2,5.4c-2.9,1.4-5.9,2-7,1.4c-1.8-1.3-0.9-11.3,2.1-21.3c0.7-2.9,2.9-11.8,4.5-19.7c1.6-7.9,3.9-19.1,5.4-25
			c1.3-5.9,3.6-17.2,5.4-25c1.6-7.9,4.1-19.1,5.4-25c1.4-5.9,3.8-17.2,5.4-25c1.8-7.9,3.9-17.9,4.8-22.4c2.3-10.6,6.4-39.5,8.6-59.9
			c0.9-8.8,2.5-22.9,3.6-31.3c3.4-29.2,7.7-123.6,6.6-149.1c-2.5-60.3-5.2-106.6-6.8-117.3c-0.9-6.4-2.5-19.7-3.4-29.5
			c-2.5-27.5-10-78.1-14.1-97.5c-2.3-10-5.4-25.2-7.2-35.8c-0.9-4.5-2.5-12-3.8-17c-1.1-4.8-3.2-13.6-4.6-19.1
			c-5.2-21.6-12.7-49.5-15.9-59.6c-1.3-3.9-4.1-13.1-6.3-20c-2.1-7.2-4.3-13.1-4.5-13.1c-1.6,0-16.5,5.9-25.4,9.8
			c-5.7,2.7-12,5.5-13.9,6.4c-13.9,5.7-18.4,7.5-22.4,8.8c-2.5,0.9-8.9,3.2-14.3,5.4c-5.4,2-18.2,6.6-28.6,10s-21.1,7-24.1,8
			c-2.9,1.1-8.2,2.7-11.6,3.4c-3.4,0.9-12.3,3.4-19.7,5.5c-7.3,2.1-15.7,4.5-18.8,5c-7,1.6-6.8,4.8,1.8,27.9
			c3.6,9.8,7.2,20.4,7.9,23.2c0.9,3,2.3,7.3,3.4,9.8c0.9,2.5,3.2,9.3,4.8,15.2c1.8,5.9,4.3,13.9,5.5,17.9c1.1,3.9,3.6,12.3,5.2,18.8
			c1.6,6.4,4.1,15.6,5.5,20.4c1.4,4.6,2.5,9.8,2.5,11.4c0,1.4,1.1,6.8,2.5,11.8c2.5,8.8,5.4,22.4,10.2,47.6
			c2.1,11.4,2.9,16.1,6.8,47.4c1.3,8.9,2.9,20.6,3.8,25.9c7.9,45.2,7.9,189,0,242.5c-2.5,17.5-5.5,41-7.2,53.5
			c-3.8,32.5-23.6,117.7-34.9,149.3c-1.3,3.4-3.9,11.4-5.9,17.9c-2.1,6.4-5.4,16.1-7.5,21.5s-4.5,11.8-5.4,14.3
			c-0.7,2.5-3.6,8.8-6.1,13.8c-2.5,5.2-4.6,9.8-4.6,10.4c0,0.4-2.9,6.8-6.3,14.1c-6.3,13.4-7.7,14.7-18.8,17.3
			c-3.4,0.7-11.8,3-18.8,5c-22.4,6.6-57.4,13.4-84.1,16.3c-8.8,0.9-21.6,2.5-28.6,3.6C1700.6,27323,1563.3,27324.4,1522.2,27322.4z"
			/>
		<path id="path67_00000010312628279998694410000006652920664578236839_" class="st0" d="M1486.4,26884.1
			c-63.8-2.7-132-10.4-182.4-20.4c-6.8-1.3-15.7-2.9-19.7-3.6c-3.9-0.5-9.5-1.8-12.5-2.7c-2.9-0.9-11.8-2.9-19.7-4.5
			c-7.9-1.8-17.9-4.1-22.4-5.4c-4.5-1.3-13.2-3.6-19.7-5.4c-6.4-1.6-14.8-4.1-18.8-5.2c-3.9-1.3-12-3.8-17.9-5.5
			c-5.9-1.6-12.7-3.9-15.2-4.8c-2.5-1.1-6.8-2.5-9.8-3.2c-2.9-0.9-9.8-3.2-15.2-5.4c-5.4-2.1-12.2-4.5-15.2-5.4
			c-5.4-1.4-55.1-21.6-61.2-24.9c-1.8-0.9-19.7-9.7-39.9-19.7c-20.2-9.8-41.1-20.4-46.5-23.6c-101.9-57.8-188.3-126.6-264.8-210.8
			c-18.4-20.2-19.1-21.1-40.2-46.5c-34.3-41.1-71.5-94.1-101.6-144.9c-5.5-9.3-10.9-18.2-11.8-19.7c-0.9-1.4-3.4-6.1-5.5-10
			c-3.6-7-3.6-7.9-1.1-12.5c1.4-2.9,8-18.1,14.7-33.8c19.7-47,22.2-52.4,53.6-115.9c12.5-25.4,23.6-45.8,24.5-45.6
			c2.3,0.9,5.4,6.8,12.3,23.8c13.2,32.7,38.1,83.3,53.8,109.1c1.8,3,3.8,6.6,4.5,8c6.3,13.8,49.4,78,71.4,106.6
			c11.6,15,38.3,47.2,43.6,52.6c0.5,0.5,9.7,10.4,20.6,22.2c18.6,20.2,61.3,60.3,80.5,75.3c5,3.9,9.3,7.7,9.8,8.2
			c2,2.1,44.5,33.6,57.2,42.2c45.1,30.6,104.1,62.2,154.7,82.8c7.9,3,16.3,6.6,18.8,7.7c7.2,3,32.5,12,38.4,13.6
			c3,0.9,7.3,2.3,9.8,3.2c6.4,2.7,22.7,7.5,52.4,15.6c16.3,4.7,25.2,6.8,33.4,8c4.5,0.9,11.6,2.3,16.1,3.4
			c30,7.2,89.1,15.6,128.8,18.2c64.2,4.5,98.5,5.4,132.3,3.6c19.1-0.9,44.5-2.1,56.3-2.7c11.8-0.5,27-2,33.6-3
			c15.2-2.5,16.5-1.4,19,15.6c1.1,7,2.7,17.7,3.6,24.1c4.8,30,7.3,61.3,7.7,95.7l0.5,37.6l-19.7,2.1c-19.3,2.3-69.9,4.8-127,6.6
			C1535,26885.4,1506.1,26885,1486.4,26884.1z"/>
	</g>
</g>
</svg>
