<?xml version="1.0" encoding="utf-8"?>
<!-- Generator: Adobe Illustrator 27.7.0, SVG Export Plug-In . SVG Version: 6.00 Build 0)  -->
<svg version="1.1" id="Layer_1" xmlns="http://www.w3.org/2000/svg" xmlns:xlink="http://www.w3.org/1999/xlink" x="0px" y="0px"
	 viewBox="0 0 512 512" style="enable-background:new 0 0 512 512;" xml:space="preserve">
<style type="text/css">
	.st0{fill-rule:evenodd;clip-rule:evenodd;fill:#2F8DED;}
</style>
<g>
	<path class="st0" d="M150.3,32.9c-0.3-2.8-0.9-5.5-1.8-8.1c-1.7-5-4.5-9.5-8.1-13.3c-3.6-3.8-8-6.8-12.9-8.7
		c-2.9-1.1-5.9-1.9-8.9-2.3c-1.2-0.2-2.5-0.2-3.7-0.3c-20.1-0.3-40.2,0-60.4,0c-1.2,0-2.5,0.1-3.7,0.2c-2.8,0.3-5.5,0.9-8.1,1.8
		c-5,1.7-9.5,4.5-13.3,8.1c-4,3.8-7.2,8.6-9.1,13.8c-1.1,2.9-1.8,5.9-2.1,9c-0.1,1.2-0.2,2.5-0.2,3.7V96c0,1.2,0.1,2.5,0.2,3.7
		c0.3,2.8,0.9,5.5,1.8,8.1c1.7,5,4.5,9.5,8.1,13.3c2.9,3.1,6.4,5.6,10.2,7.5v344.6c0,0.6,0,1.2,0.1,1.7c0.1,1.2,0.3,2.3,0.7,3.4
		c0.7,2.2,1.8,4.3,3.2,6.1c1.8,2.2,4.2,4,6.9,5.1c1.6,0.7,3.3,1.1,5,1.3c0.6,0.1,1.2,0.1,1.7,0.1h56.7c0.6,0,1.2,0,1.7-0.1
		c1.7-0.2,3.4-0.6,5-1.3c2.1-0.9,4.1-2.2,5.7-3.8c2-2,3.6-4.6,4.4-7.4c0.3-1.1,0.6-2.2,0.7-3.4c0.1-0.6,0.1-1.2,0.1-1.7V128.7
		c3.5-1.8,6.8-4.1,9.5-6.9c3.9-3.9,6.9-8.7,8.7-14c0.9-2.6,1.5-5.4,1.8-8.1c0.1-1.2,0.2-2.5,0.2-3.7V36.6
		C150.5,35.4,150.5,34.1,150.3,32.9z M123.8,84.1c0,0.7,0,1.5-0.1,2.2c-0.2,1.8-0.6,3.6-1.2,5.4c-1.1,2.9-2.8,5.6-5,7.8
		c-2.2,2.2-4.9,3.9-7.8,5c-1.5,0.6-3.2,1-4.8,1.2c-0.7,0.1-1.5,0.1-2.2,0.2c-12,0.2-24,0-36,0c-0.7,0-1.5,0-2.2-0.1
		c-1.8-0.2-3.6-0.6-5.4-1.2c-2.9-1.1-5.6-2.8-7.8-5c-2.2-2.2-3.9-4.9-5-7.8c-0.6-1.6-1-3.2-1.2-4.8c-0.1-0.7-0.1-1.5-0.2-2.2
		c-0.2-12,0-24,0-36c0-0.7,0-1.5,0.1-2.2c0.2-1.6,0.5-3.3,1.1-4.8c1-3,2.7-5.7,4.8-8c2.2-2.3,4.8-4.1,7.7-5.2
		c1.7-0.7,3.5-1.1,5.3-1.4c0.7-0.1,1.5-0.1,2.2-0.2c12.2-0.2,24.4-0.2,36.6,0c0.7,0,1.5,0.1,2.2,0.2c1.6,0.2,3.3,0.6,4.8,1.2
		c2.9,1.1,5.6,2.8,7.8,5c2.2,2.2,3.9,4.9,5,7.8c0.6,1.6,1,3.2,1.2,4.8c0.1,0.7,0.1,1.5,0.2,2.2C123.9,60,123.8,72,123.8,84.1z"/>
	<path class="st0" d="M493.7,412.4c-0.3-3.1-1-6.1-2.1-9c-1.8-4.9-4.7-9.4-8.4-13.1s-8.2-6.6-13.1-8.4c-2.6-1-5.3-1.6-8.1-2
		c-1.2-0.2-2.5-0.2-3.7-0.3c-20.1-0.3-40.2,0-60.4,0c-1.2,0-2.5,0.1-3.7,0.2c-3.1,0.3-6.1,1-9,2.1c-5.2,1.9-10,5.1-13.8,9.1
		c-2.5,2.6-4.6,5.6-6.2,8.9H288V18.5c0-0.6,0-1.2-0.1-1.7c-0.1-1.1-0.3-2.3-0.7-3.4c-0.7-2.2-1.8-4.3-3.2-6.1
		c-1.8-2.2-4.2-4-6.9-5.1c-1.1-0.4-2.2-0.8-3.3-1c-0.6-0.1-1.1-0.2-1.7-0.3c-0.6,0-1.2-0.1-1.7-0.1h-56.7c-0.6,0-1.2,0-1.7,0.1
		c-1.7,0.2-3.4,0.6-5,1.3c-2.1,0.9-4.1,2.2-5.7,3.8c-2,2-3.6,4.6-4.4,7.4c-0.3,1.1-0.6,2.2-0.7,3.4c-0.1,0.6-0.1,1.2-0.1,1.7v455.6
		v4.5c0,0.3,0,0.7,0,1c0.1,1,0.3,2,0.6,3c1.2,3.6,3.9,6.6,7.5,8.1c0.9,0.4,2,0.7,3,0.8c0.9,0.1,1.1,0.1,2.1,0.2h156.2
		c1.6,3.2,3.7,6.2,6.2,8.9c3.8,4,8.6,7.2,13.8,9.1c2.9,1.1,5.9,1.8,9,2.1c1.2,0.1,2.5,0.2,3.7,0.2h59.4c1.2,0,2.5-0.1,3.7-0.2
		c3.1-0.3,6.1-1,9-2.1c5.2-1.9,10-5.1,13.8-9.1c3.6-3.8,6.4-8.4,8.1-13.3c0.9-2.6,1.5-5.4,1.8-8.1c0.1-1.2,0.2-2.5,0.2-3.7v-59.4
		C493.9,414.8,493.9,413.6,493.7,412.4z M467.2,463.5c0,0.7,0,1.5-0.1,2.2c-0.2,1.8-0.6,3.6-1.2,5.4c-1.1,2.9-2.8,5.6-5,7.8
		c-2.2,2.2-4.9,3.9-7.8,5c-1.5,0.6-3.2,1-4.8,1.2c-0.7,0.1-1.5,0.1-2.2,0.2c-12,0.2-24,0-36,0c-0.7,0-1.5,0-2.2-0.1
		c-1.8-0.2-3.6-0.6-5.4-1.2c-2.9-1.1-5.6-2.8-7.8-5c-2.2-2.2-3.9-4.9-5-7.8c-0.6-1.6-1-3.2-1.2-4.8c-0.1-0.7-0.1-1.5-0.2-2.2
		c-0.2-12,0-24,0-36c0-0.7,0-1.5,0.1-2.2c0.2-1.6,0.5-3.3,1.1-4.8c1-3,2.7-5.7,4.8-8c2.2-2.3,4.8-4.1,7.7-5.2
		c1.7-0.7,3.5-1.1,5.3-1.4c0.7-0.1,1.5-0.1,2.2-0.2c12.2-0.2,24.4-0.2,36.6,0c0.7,0,1.5,0.1,2.2,0.2c1.6,0.2,3.3,0.6,4.8,1.2
		c2.9,1.1,5.6,2.8,7.8,5c2.2,2.2,3.9,4.9,5,7.8c0.6,1.6,1,3.2,1.2,4.8c0.1,0.7,0.1,1.5,0.2,2.2C467.3,439.5,467.2,451.5,467.2,463.5
		z"/>
</g>
</svg>
