<?xml version="1.0" encoding="utf-8"?>
<!-- Generator: Adobe Illustrator 28.2.0, SVG Export Plug-In . SVG Version: 6.00 Build 0)  -->
<svg version="1.1"
	 id="svg1" xmlns:svg="http://www.w3.org/2000/svg" xmlns:inkscape="http://www.inkscape.org/namespaces/inkscape" xmlns:sodipodi="http://sodipodi.sourceforge.net/DTD/sodipodi-0.dtd" inkscape:export-filename="export shield logo.png" inkscape:export-xdpi="96" inkscape:export-ydpi="96" inkscape:version="1.4 (e7c3feb100, 2024-10-09)"
	 xmlns="http://www.w3.org/2000/svg" xmlns:xlink="http://www.w3.org/1999/xlink" x="0px" y="0px" viewBox="0 0 512 512"
	 style="enable-background:new 0 0 512 512;" xml:space="preserve">
<style type="text/css">
	.st0{fill:none;stroke:#FFFFFF;stroke-width:23.7586;stroke-miterlimit:15.1181;}
	.st1{stroke:#000000;stroke-width:16.3555;stroke-miterlimit:15.1181;}
	.st2{fill:#1E83F7;}
	.st3{fill:#ED79B5;}
	.st4{fill:#FA2921;}
	.st5{fill:#FFB400;}
	.st6{fill:#18C249;}
	.st7{fill:none;stroke:#000000;stroke-width:16.3555;stroke-miterlimit:15.1181;}
</style>
<sodipodi:namedview  bordercolor="#000000" borderopacity="0.25" id="namedview1" inkscape:current-layer="layer1" inkscape:cx="183.28874" inkscape:cy="385.40173" inkscape:deskcolor="#d1d1d1" inkscape:document-units="px" inkscape:pagecheckerboard="0" inkscape:pageopacity="0.0" inkscape:showpageshadow="2" inkscape:window-height="872" inkscape:window-maximized="1" inkscape:window-width="1404" inkscape:window-x="0" inkscape:window-y="0" inkscape:zoom="0.50466821" pagecolor="#ffffff">
	</sodipodi:namedview>
<g id="layer1" transform="translate(-26.587081,-55.001309)" inkscape:groupmode="layer" inkscape:label="Layer 1">
	<path id="path9" inkscape:label="Outline white" sodipodi:nodetypes="ccccc" class="st0" d="M281.5,68.8c0,0-87,53.2-202.7,62.5
		c-1.4,206.3,42.4,327.8,202.7,421.9c156.7-92,206.3-218.5,204.8-421.9C377.8,123.4,281.5,68.8,281.5,68.8z"/>
	<path id="path7" inkscape:label="Black background" sodipodi:nodetypes="ccccc" class="st1" d="M281.5,68.8c0,0-87,53.2-202.7,62.5
		c-1.4,206.3,42.4,327.8,202.7,421.9c156.7-92,206.3-218.5,204.8-421.9C377.8,123.4,281.5,68.8,281.5,68.8z"/>
	<g id="g1" transform="matrix(0.72546093,0,0,0.72546093,17.967926,15.100008)" inkscape:label="Iris">
		<path id="path2" sodipodi:nodetypes="ccccc" class="st2" d="M294.9,347.5c-68.7,34.7-118.2,71.1-165.5,124.8
			c64.7,142.5,145.3,210.1,230.8,268.5l84.2-54.5C312.4,619.6,297,491.3,294.9,347.5z"/>
		<path id="path3" sodipodi:nodetypes="ccccc" class="st3" d="M360.3,296.9c-145.4,45.9-185.7,97.7-242.7,148.6
			c-26-83.7-40.3-177.2-34.7-287.3l58.5-7.9C220.5,189.2,301.6,224.9,360.3,296.9z"/>
		<path id="path4" sodipodi:nodetypes="ccccc" class="st4" d="M426.7,349.4c40-65.9,69.4-137.7,74.3-219L363.3,76
			C299.2,109,245,124.7,181,145.3C281.3,185.1,366.7,248.9,426.7,349.4z"/>
		<path id="path5" sodipodi:nodetypes="ccccc" class="st5" d="M401.9,426.7c61-80.9,112.7-167.6,123.8-285.3l118.9,21.8
			c-2.7,85.4-9.1,182.5-29.7,270.5C532.7,440.8,469.9,436.3,401.9,426.7L401.9,426.7z"/>
		<path id="path6" sodipodi:nodetypes="cccc" class="st6" d="M320.7,431.7c17.4,92.9,32,187,136.7,238.8
			c52.2-41.7,103.9-98.9,153.6-214C515.4,467.5,418.9,462.8,320.7,431.7L320.7,431.7z"/>
	</g>
	<path id="path1" inkscape:label="Outline black" sodipodi:nodetypes="ccccc" class="st7" d="M281.5,68.8c0,0-87,53.2-202.7,62.5
		c-1.4,206.3,42.4,327.8,202.7,421.9c156.7-92,206.3-218.5,204.8-421.9C377.8,123.4,281.5,68.8,281.5,68.8z"/>
</g>
</svg>
