<?xml version="1.0" encoding="utf-8"?>
<!-- Generator: Adobe Illustrator 28.2.0, SVG Export Plug-In . SVG Version: 6.00 Build 0)  -->
<svg version="1.1" id="Layer_1" xmlns="http://www.w3.org/2000/svg" xmlns:xlink="http://www.w3.org/1999/xlink" x="0px" y="0px"
	 viewBox="0 0 512 512" style="enable-background:new 0 0 512 512;" xml:space="preserve">
<style type="text/css">
	.st0{fill:#FFFFFF;}
	.st1{fill-rule:evenodd;clip-rule:evenodd;fill:#FFFFFF;}
</style>
<g>
	<path class="st0" d="M333.4,215.4c-22.3-38.4-57-79.2-100.1-117.3c-2.8-2.5-5.7-5-8.5-7.4h160.3C373.9,131,355.8,175.4,333.4,215.4
		z"/>
	<path class="st0" d="M256,158.8c-43.6,9.3-93.4,29.7-143.1,58.8c-27,15.9-52.3,33.4-74,51.1V99.6c0-4.9,4-8.9,8.9-8.9h132.6
		C206.7,110.6,232.9,133.9,256,158.8z"/>
	<path class="st0" d="M302.7,306.8c29.9-33.1,58.1-78.7,81.2-131.4c12.5-28.6,22.6-57.6,29.7-84.6h50.4c4.9,0,9,4,9,8.9v214.8
		C424.2,320.7,361.1,318.3,302.7,306.8z"/>
	<path class="st0" d="M177.4,215.4c-4.6,44.1-0.5,97.4,11.9,153.3c1.7,7.6,3.5,15.1,5.4,22.5H47.9c-4.9,0-8.9-4-8.9-8.9v-76.7
		C74.5,273,125.2,239.4,177.4,215.4z"/>
	<path class="st0" d="M207,306.6c40.8,17.9,93,30.5,150.3,36c41.1,3.9,81.4,3.7,115.7-0.3v40c0,4.9-4,8.9-8.9,8.9H223.8
		C216.3,364,210.4,335.1,207,306.6z"/>
	<path class="st1" d="M33.4,51.8C14.9,51.8,0,66.7,0,85.1v311.7c0,18.4,14.9,33.4,33.4,33.4h27.8v16.5c0,3.6,1.5,7,4.1,9.6
		c2.6,2.5,6.1,4,9.8,4c3.7,0,7.2-1.4,9.8-4c2.6-2.5,4.1-6,4.1-9.6v-16.5H423v16.5c0,3.6,1.5,7,4.1,9.6c2.6,2.5,6.1,4,9.8,4
		c3.7,0,7.2-1.4,9.8-4c2.6-2.5,4.1-6,4.1-9.6v-16.5h27.8c18.4,0,33.4-14.9,33.4-33.4V85.1c0-18.4-14.9-33.4-33.4-33.4H33.4z
		 M33.4,74c-6.1,0-11.1,5-11.1,11.1v311.7c0,6.1,5,11.1,11.1,11.1h445.2c6.1,0,11.1-5,11.1-11.1V85.1c0-6.1-5-11.1-11.1-11.1H33.4z"
		/>
</g>
</svg>
