<?xml version="1.0" encoding="utf-8"?>
<!-- Generator: Adobe Illustrator 27.7.0, SVG Export Plug-In . SVG Version: 6.00 Build 0)  -->
<svg version="1.1" id="Layer_1" xmlns:serif="http://www.serif.com/"
	 xmlns="http://www.w3.org/2000/svg" xmlns:xlink="http://www.w3.org/1999/xlink" x="0px" y="0px" viewBox="0 0 512 512"
	 style="enable-background:new 0 0 512 512;" xml:space="preserve">
<style type="text/css">
	.st0{fill:#FFFFFF;}
</style>
<g>
	<path class="st0" d="M283.5,379.4l7.2-2.8c0,0,10.8,7.6,22.2,12c24.9,9.5,28.1,22.1,30.4,31.3c0.4,1.8,0.9,3.5,1.4,4.9
		c2.9,7.6,6.1,13.1,11,18.8l22-10.4c-3.6-4.2-8.6-12.1-8.5-22.9c0.1-8.3,5.2-14.9,9.7-20.7c4.6-5.9,8.5-11,7.4-16.8
		c-0.1-0.7-2.3-6.7-36.5-15.6c-9.5-2.5-25.8-5.9-25.8-5.9s1.5-6.7,1.8-6.7c7.1,1.4,16.5,3.4,26,5.9c35.8,9.3,41.2,16.5,42.2,21.2
		c1.7,8.6-3.5,15.3-8.6,21.8c-4.3,5.5-8.4,10.7-8.4,16.9c-0.1,13.3,9.3,21.1,9.4,21.2l4.1,3.3l-36.7,17.3l-2.1-2.2
		c-6.8-7.3-10.8-13.8-14.4-23.3c-0.7-1.8-1.2-3.7-1.6-5.7c-2.1-8.6-7.2-18.8-28.3-26.8C293.5,389.1,283.5,379.4,283.5,379.4z"/>
	<path class="st0" d="M240.5,371.5c11.3,4.4,34.7,7.9,55.4-0.1c14.7-5.7,24.4-16,28.8-30.7l0.8-6.2l7.5,2.4l-0.1,0.5l-0.7,5
		c-4.9,16.6-16.4,28.8-33.1,35.3c-13.8,5.3-30,6.2-43.8,4.4c-7.6-1-12.2-2.5-17.5-4.9L240.5,371.5z"/>
	<path class="st0" d="M387.1,387.1c5.2,2.3-10.5,0.1-3.3,0.1C384.9,387.2,386,387.2,387.1,387.1z M387.1,387.1l1.4-8.7
		c8.8,7.4,28.1-8.3,32.2-11.6c12.9-10.4,19.2-17.7,22.3-39.1l-3.9-2.9l7.1-3.4l0,0.7l-0.1,6.4c-1.7,24.6-8.7,32-22.9,44.3
		C412.5,382.1,399.2,386.5,387.1,387.1z"/>
	<path class="st0" d="M142.5,137.8c-0.3,0-0.5-0.1-0.8-0.1C142,137.7,142.3,137.8,142.5,137.8z"/>
	<path class="st0" d="M28.9,199.7l-1.6-1.6c0.3-12.4,5.7-24.3,14.4-33.9c-1.9,2.3-3.6,4.7-5.3,7.5C30.4,181.7,28.5,191.2,28.9,199.7
		z M64.3,147.7c10.9-5,23.4-7.4,36.3-6.1c0.1,0.7,0.3,1,0.3,1l-0.1,0C99.4,142.5,82,140.4,64.3,147.7z M448.6,131.8
		c-0.6-4.4-2-9-4.1-13.5C446.7,122.9,448.1,127.5,448.6,131.8z M326,90c-2.3-3.7-5.4-7.5-9.4-10.9C320.9,82.5,324.2,86.2,326,90z
		 M424.9,93.3c-8.2-6.7-18.4-12.5-30.6-16.4c-4.5-1.4-9-2.4-13.3-3c-7-0.9-13.7-0.8-19.8,0c7.1-1.2,14.1-1.2,20.8-0.3
		C398.5,75.8,413.4,83.5,424.9,93.3z"/>
	<path class="st0" d="M279.7,189.4C279.7,189.5,279.7,189.5,279.7,189.4C279.7,189.5,279.7,189.5,279.7,189.4L279.7,189.4z
		 M279.7,189.4c0.7-0.3,1.4-0.6,2.1-0.9L279.7,189.4z"/>
	<path class="st0" d="M487,228.7c8,4.4,14.1,11.3,16.8,17c3.4,7.1,13.1,47.7-23.5,70.5c-32.9,20.4-58.3,7.8-68,1.1
		c-10.7,16.2-35.9,30.6-65.6,27.5c-29.1-3.1-44.2-17.8-51.7-29.3c-7.6,10.6-17.7,15.3-25.4,17.3c-7.9,2.1-16.5,2.2-24.2,0.5
		c5.9,12,9.9,31.8-5.9,50.5c-11.3,13.4-27.3,17.4-38.7,18.4c-11.2,1-21.7-0.7-28-3.1c-6.9,6-25,17-47.9,14
		c-5.5-0.7-11.3-2.3-17.3-4.9c-26.4-11.6-32.2-33.5-28.3-48.3c-22-0.5-39.7-6.9-52.6-19c-15.9-14.9-24-39-21.7-64.5
		c2.4-27.2,23.6-39.1,33.4-43.2C31,224,15.6,199.1,33,169.9c17.6-29.6,50.7-31.5,63.3-31c-0.9-9.4,0.5-31.4,29.6-47.8
		c34.5-19.3,65.1-7.7,77.7,0.7c8.5-12.9,27.9-30.9,57.7-32.2c38.6-1.6,57.3,14.3,65.3,24.5c11.6-9.7,38.6-20.2,69-10.5
		c34,10.8,52.6,35.2,56.6,55.5c32.7,9.7,52.3,32.1,53.9,61.8C507.1,213.1,497.2,223.3,487,228.7z M475.7,310.6
		c32-19.9,23.8-56.4,21-62.3c-2.4-5-9.7-13.5-19.7-16.2l-10.5-2.8l9.9-3.7c11.5-4.3,23-11.7,21.8-34.6c-0.9-16-8.6-44.5-50.6-56
		l-2.5-0.7l-0.3-2.3c-2.6-18.5-19.6-41.7-51.6-51.9c-32.5-10.3-58.6,5.3-63.9,11.9l-3.6,4.4l-3-4.9c-5-8.1-20.8-26.6-60.7-25
		c-36.6,1.5-52.8,31-53.5,32.2l-2.3,4.3l-3.9-3.5c-7.7-6.8-37.3-22-71.9-2.6c-33.2,18.6-25.7,44.6-25.6,44.9l1.5,5l-5.8-0.8
		c-1.7-0.2-41-5.3-60.4,27.2c-19.4,32.6,7.1,58.9,7.4,59.1l4.1,4l-5.7,1.6c-1.2,0.3-30.4,9-33.1,39.2c-2.1,23.6,5.2,45.7,19.6,59.1
		c12.4,11.6,29.9,17.2,52.2,16.8l6.2-0.1l-2.4,5c-5.6,11.8-2.2,33.3,22.6,44.1c29.7,13,54.3-5.2,57.9-9.3l2.1-2.4l3,1.7
		c6.7,3.9,41.1,9.1,59.3-12.5c18-21.3,6.4-44.1,0.4-51l-12.2-14.2l17.2,9.2c7.7,4.1,18.9,5.2,28.6,2.6c7.5-2,17.8-6.9,24.3-19.6
		l3.6-7l3.6,7.2c5.1,10.3,18.2,28,48.8,31.2c30.3,3.2,53.4-14.2,60.1-27.6l2.3-4.5l4,3.6C418.1,313.4,441.7,331.7,475.7,310.6z"/>
	<path class="st0" d="M84.2,353.1c2.2-0.3,16.1-3.9,24-13.9c5.4-6.9,6.8-15.4,4.3-25.3c0,0,14.3,14.2,1,30.7
		c-9.6,11-25.4,15.2-28.6,15.3l-0.5-6.9C84.3,353.1,84.2,353.1,84.2,353.1z M84.2,353.1C84.2,353.1,84.2,353.1,84.2,353.1
		C84.2,353.1,84.2,353.1,84.2,353.1z"/>
	<path class="st0" d="M109.3,339c4.6-1.1,9.1-1.3,13.2-0.7c8.1,1.2,14.7,5.3,17.6,10.3c0,0-14.5-9.2-28.4-2.9L109.3,339z"/>
	<path class="st0" d="M158.9,215.4c26.6-16.2,61.4-13.1,84.6,7.5l-5.4,4.8c-20.4-18.2-51.1-20.8-74.6-6.5
		c-22.6,13.8-32.1,48.1-19.9,72.1c13.6,26.7,39.6,38.8,58.3,36.9c0,0-18.2,8.2-35.9-2.4c-12.5-7.5-22.7-18.5-29.5-31.8
		C122.6,268.8,133.1,231.1,158.9,215.4z"/>
	<path class="st0" d="M169.2,322.1c4,3,6.3,7.1,7.3,11.5c1.7,13.8-9.3,19.4-9.3,19.4c3.5-5.8,5.9-20.4-2.1-26.5L169.2,322.1z"/>
	<path class="st0" d="M87.3,286.6c17.7-6.9,37.4-5.5,54.2,3.9l-4,5.8c-14.5-8.1-31.5-9.4-46.8-3.4c-12.1,4.7-19.4,12.6-20.2,17.9
		C70.4,310.8,68.9,295.4,87.3,286.6z"/>
	<path class="st0" d="M62.5,269.8c1.1,3.5,16.2,17,31.7,15.1l1.1,5.9c-2.8,0.3-5.6,0.3-8.4-0.1c-3.8-0.5-7.6-1.6-11-3.1
		C61,281.1,62.5,269.8,62.5,269.8z"/>
	<path class="st0" d="M42.9,231.5c4.7-1.6,18.5-3.9,33.5-0.5c20.6,5.6,26.2,23.4,26.2,23.4c-22-26.1-56.4-16.5-56.8-16.4L42.9,231.5
		z"/>
	<path class="st0" d="M206.3,292.4c4.6,8.8,13.9,21.2,31.8,30.9l0.5,0.3l-3.9,5.8l-0.4-0.2c-19.6-10.6-29.8-24.3-35-34
		c-4.5-8.5-5.6-17-4.8-24.6c2.3-17.8,17.9-23.6,17.9-23.6C206,253.8,196.4,273.7,206.3,292.4z"/>
	<path class="st0" d="M165,264.8c0,0,19.4-8.7,35.6,6.9l-5,3.8C189.1,268.8,173.8,264.3,165,264.8z"/>
	<path class="st0" d="M353.6,195.9c23.1,19.1,31.8,50.9,25.5,68.6c-3.3,9.3-8.7,16.1-14.6,21.1c-13.6,11.6-32.2,6.9-32.2,6.9
		c1.2-0.1,29.8-3.9,39.4-30.4c5.5-15.3-2.7-44.3-23.2-61.3c-12.3-10.2-33.7-19.9-65.8-8.5c-31.9,11.3-39.3,30.4-39.8,44.5
		c-0.8,21,13,41.4,20.5,45.1c0,0-16.8-2.7-24-21.2c-2.9-7.5-4.7-16-4.3-24.4c0.6-16,8.9-37.8,44.5-50.4
		C315.4,173.2,339.6,184.3,353.6,195.9z"/>
	<path class="st0" d="M293.8,263.2c2-2.9,4.4-5.4,7.2-7.6c17.7-12.5,40-4.1,40-4.1c-19.8,0.1-33.4,5.3-40.5,15.4
		c-10.7,15.3-3.4,37-2,39.8l-7,2.8C289.5,305.7,281.3,281.1,293.8,263.2z"/>
	<path class="st0" d="M300.4,222.3c0,0,13.3,1.7,16.2,15.4c1.2,8.4-1.6,15.8-7.9,20.7l-4.5-4.5c6-4.7,6.4-11.1,5.8-15.7
		C308.9,230.7,304.3,224.2,300.4,222.3z"/>
	<path class="st0" d="M362.5,281.2c15.6,9.4,6.9,26.8,6.9,26.8c2.1-11.2-7.4-20.2-10.2-21.7L362.5,281.2z"/>
	<path class="st0" d="M406,278.1l6.5-3.6c11,14.9,3.9,35.6,2.1,39.1l-7.1-3.1C408.7,308.1,414.9,290.1,406,278.1z"/>
	<path class="st0" d="M431.5,277.2c15.2-0.1,27-6.3,32.5-16.8c0,0,0.7,14.6-13.5,20.5c-5.5,2-11.8,3.1-18.6,3.2
		c-3.2,0-6.4-0.2-9.6-0.6c-17.7-2.3-33.7-11.4-41.6-24c-15.7-25.3,1.5-53.4,20-64c9.9-5.7,20.7-8.9,30.5-9.6
		c17.2-0.3,21,11.3,21,11.3c-9.4-7.4-30.1-5.5-47.1,4.1c-15.6,8.9-30.9,33.6-17.6,55C395.2,268.7,413.3,277.3,431.5,277.2z"/>
	<path class="st0" d="M461.2,274.5c9.2,5.1,6.8,16.3,6.8,16.3c0-2.3-1.5-4.9-4.4-7.4c-3.9-3.5-8.1-5-9.1-5c0.1,0-2.9-5.3-2.9-5.3
		C453.7,271.9,456.9,272.4,461.2,274.5z"/>
	<path class="st0" d="M430.7,219.9c14.1,13.2,42.2,7.1,45.7,5.7l3.3,6.3c-3.2,1.2-17.1,4.5-31.3,2.6
		C432.2,231.1,430.7,219.9,430.7,219.9z"/>
	<path class="st0" d="M438.5,251.1c0,0-1.1-12.8,8.8-18.1c3.8-2,8.2-3.5,13.2-4.2l1.3,5.8C447.1,236.7,440.2,246.3,438.5,251.1z"/>
	<path class="st0" d="M312.1,248.2c16.3-14.1,20.2-28.7,20.2-28.7c1,4.2-1,15.3-7.6,24.2c-2.5,3.3-5.6,6.3-9.4,8.6L312.1,248.2z"/>
	<path class="st0" d="M427.3,175.9c3-3.8,6.9-6.7,11.3-8.9c12.7-6.6,26.2,2.5,26.2,2.5c-9.9-1.3-23.6-0.7-32.1,9.9L427.3,175.9z"/>
	<path class="st0" d="M425.8,154.4c0,0,12.1,9.7,8.2,23.6c-3.7,10.6-12.6,16.5-19.4,18.7l-2.9-6.5
		C412.8,189.9,434.8,182.5,425.8,154.4z"/>
	<path class="st0" d="M374.1,106.6c0,0,16.5,7,21.4,26.4c2,9.9,1.8,20.7-0.6,32.4c-5.1,25.1-35.5,34.3-47.3,33.9l0.1-6.9
		c7.1,0.2,35-6.2,39.5-28.4C392,140.6,387.8,122.4,374.1,106.6z"/>
	<path class="st0" d="M390.3,137.8c19.3-13.4,52.2-11.1,59.3-9.3l-1.9,6.6c-5.3-1.3-35.7-3.5-52.4,8.1L390.3,137.8z"/>
	<path class="st0" d="M322.6,91.5l6.9-3.1c0.2,0.4,15,25.8,9.7,49.6c-4,18.5-25,21.8-25,21.8C349.7,138,322.9,92,322.6,91.5z"/>
	<path class="st0" d="M337.5,140.6c2.3,10.6,11.6,21.5,18.5,24.6c0,0-22.4-5.9-25.1-23.6L337.5,140.6z"/>
	<path class="st0" d="M276.2,151.2c0.8,12.2,7.6,27.3,18.7,31.2l-2.7,6.4c-14.4-5-22.9-22.6-23.8-37.4c-0.4-6.9,1-18.3,6-28.2
		c8.7-16,23.3-11.2,23.3-11.2C280.9,116.1,275.4,139.5,276.2,151.2z"/>
	<path class="st0" d="M252.5,108.6c0,0,16.3,2.4,21.6,16.4c1.5,4,2.4,8.5,2.4,13.5l-6.7-0.2C269.9,118.5,252.7,108.7,252.5,108.6z"
		/>
	<path class="st0" d="M141.7,137.7c0.2,0,17.8,0.8,30.5,14.1c4.2,4.4,8,10.2,10.3,17.9c9.3,30.3-3.7,42.7-19.2,51.5
		c-4.9,2.8-12,3.7-19.7,2.7c-5.8-0.8-12-2.6-17.8-5.5c-7.5-3.7-13.8-8.8-18.5-15c-10.4-17-2.8-32.1-2.8-32.1
		c0.1,25,15.6,36.5,24.9,41.1c12.1,6,24.2,6,29.5,3c12.8-7.3,24.5-16.7,16.1-44.1C167.1,145.8,141.7,137.7,141.7,137.7z"/>
	<path class="st0" d="M180.1,126.2c0,0-8.9,11.3-5.6,29.5l-6.6,0.8C164,134.9,180.1,126.2,180.1,126.2z"/>
	<path class="st0" d="M78.8,206.9c0,0,8.9-12.4,24.1-9.6c3.5,0.7,7.2,1.8,10.9,3.8l-3.2,5.1C94.3,197.8,78.9,206.8,78.8,206.9z"/>
	<path class="st0" d="M100.9,139.2c3.2,0.1,14.3,3.4,25,9.9c24.1,14.8,14.3,31.7,14.3,31.7c-0.8-23.8-36.4-34.6-39.5-34.8
		L100.9,139.2z"/>
	<path class="st0" d="M207.4,94.8c2,1.6,19.6,16.7,19.7,41.9c0.1,23.6-18.8,32.4-18.8,32.4c0.1-0.1,11.2-7.1,11-32.6
		c-0.1-22.2-15.4-35.3-17.1-36.7L207.4,94.8z"/>
	<path class="st0" d="M226.5,140.5c1.6,9.1,15.2,20.5,20.6,21.6c0,0-22.7-1.3-27.2-20.8L226.5,140.5z"/>
	<path class="st0" d="M270.4,162.4l7.7-1c0.2,0.8,3.8,20.1-11.1,35.2c-13.4,13.6-32.5,19.8-52.5,17.2c-0.6-0.1-1.2-0.2-1.9-0.3
		c-18.7-3-31-10.4-34.9-16.4l6.7-3.3c2.3,3.6,12.3,10.2,29.3,12.9c18,2.8,35.3-2.5,47.3-14.8C273.5,179.4,270.4,162.5,270.4,162.4z"
		/>
	<path class="st0" d="M177.3,369c0,0,9.2,9.1,2.1,22.3c-2.2,3.5-4.3,5.5-4.5,5.7l-5.8-4.8C169.2,392.1,178.8,382.8,177.3,369z"/>
	<path class="st0" d="M381.9,66.7c5,0.7,10.1,1.8,15,3.4c36.4,11.6,54.3,37,59,56.3c33,10.7,52.8,34.1,54.5,64.6
		c0.9,16.9-4.4,29.6-15.8,37.9c6.6,4.9,11.1,10.9,13.3,15.5c2.3,4.8,5.3,17.5,3.6,31.4c-1.6,12.9-7.9,31-28.6,43.8
		c-11.5,7.2-23.3,11.1-35,11.7c-0.4,9.7-4.4,20.2-11.6,29.7c-10,13.4-25.4,23.5-42.3,28.1c-1.6,2.5-3.4,4.8-5,6.9
		c-4.1,5.2-7.6,9.8-7.7,14.8c-0.1,11.3,7.6,17.9,7.9,18.1l4.1,3.3c1.1,0.9,1.6,2.1,1.5,3.4c-0.1,1.3-1,2.4-2.2,3L356,455.9
		c-0.8,0.4-1.8,0.5-2.7,0.4c-1.1-0.1-2.1-0.6-2.9-1.5l-2.1-2.2c-7.2-7.7-11.4-14.6-15.3-24.6c-0.8-2-1.3-4-1.8-6.1
		c-2.1-8.3-4-16.2-22.9-23.4c-10.2-3.9-18.4-8.7-24.3-14.4c-9.3,1.4-19.3,1.5-29,0.2c-3.2-0.4-6.3-1-9.3-1.7
		c-0.9,1.2-1.8,2.4-2.8,3.5c-12.3,14.5-29.5,18.8-41.8,19.9c-5.8,0.5-11.9,0.4-17.6-0.4c-3.6-0.5-6.9-1.2-9.9-2.1
		c-10.5,8.2-29,16-49.5,13.3c-6.3-0.8-12.6-2.6-18.7-5.3c-13-5.7-22.5-14.3-27.7-25c-3.5-7.3-4.9-15.5-3.9-23.1
		c-2.4-0.2-4.8-0.4-7.1-0.7c-17.6-2.3-32.3-8.8-43.5-19.3C6.6,327.9-2,302.6,0.4,276c2.3-25.7,20.3-38.7,31.5-44.3
		c-8.2-11.9-19.4-35.9-2.9-63.6c16.8-28.2,46.6-32.8,62.6-33.1c0-11.3,4.3-31.7,31.8-47.1c16.5-9.2,33.7-12.7,51.3-10.4
		c12.4,1.6,21.9,5.9,27.5,9c3.8-5,10.1-12,19.6-18.1c11.8-7.7,25-11.9,39.2-12.5c7.2-0.3,14.1,0,20.5,0.8
		c23.4,3.1,37.5,13,45.7,21.9C338.7,70.6,358.5,63.6,381.9,66.7z M381.4,70.6c-24.5-3.2-45.1,5.5-54.9,13.7
		c-6.5-8.3-20-20.4-45.6-23.7c-5.9-0.8-12.4-1.1-19.7-0.8c-29.7,1.2-49.2,19.3-57.7,32.2c-6.1-4.1-16.5-8.9-29.4-10.6
		c-13.8-1.8-30.5-0.1-48.3,9.9c-29.1,16.3-30.5,38.3-29.6,47.8c-12.6-0.4-45.7,1.4-63.3,31c-17.4,29.2-2,54.1,5.3,63.3
		c-9.8,4.1-31,16-33.4,43.2C2.5,302,10.7,326.1,26.6,341c10.5,9.9,24.2,15.9,40.8,18.1c3.8,0.5,7.7,0.8,11.8,0.9
		c-3.9,14.7,1.9,36.7,28.3,48.3c6,2.6,11.8,4.2,17.3,4.9c22.9,3,41-8,47.9-14c3,1.1,6.9,2.1,11.5,2.7c5,0.7,10.6,0.9,16.5,0.4
		c11.4-1,27.4-5,38.8-18.4c1.6-1.9,3-3.8,4.2-5.7c3.7,1,7.7,1.9,12,2.4c9.4,1.2,19.9,1.2,30.1-0.6c4.5,4.9,12,10.4,24.4,15.1
		c21.1,8,23.5,17.7,25.6,26.2c0.5,2,1,3.9,1.6,5.7c3.6,9.5,7.7,16.1,14.4,23.3l2.1,2.2l36.7-17.3l-4.1-3.3
		c-0.1-0.1-9.5-7.8-9.4-21.2c0.1-6.2,4.1-11.4,8.4-16.9c2-2.6,4-5.2,5.6-7.9c18.9-4.7,33.3-15.9,41.6-27
		c7.8-10.3,11.5-21.5,10.8-31.3c3.8,0.1,7.9-0.2,12.2-1.1c7.6-1.5,15.8-4.6,24.6-10c36.6-22.7,26.9-63.4,23.5-70.5
		c-2.8-5.7-8.9-12.6-16.8-17c10.2-5.5,20.2-15.7,19-37.8c-1.6-29.6-21.2-52-53.9-61.8c-3.9-20.3-22.6-44.7-56.6-55.5
		C390.7,72.2,386,71.2,381.4,70.6z"/>
</g>
</svg>
