<?xml version="1.0" encoding="utf-8"?>
<!-- Generator: Adobe Illustrator 27.7.0, SVG Export Plug-In . SVG Version: 6.00 Build 0)  -->
<svg version="1.1" id="Layer_1" xmlns:sketch="http://www.bohemiancoding.com/sketch/ns"
	 xmlns="http://www.w3.org/2000/svg" xmlns:xlink="http://www.w3.org/1999/xlink" x="0px" y="0px" viewBox="0 0 512 512"
	 style="enable-background:new 0 0 512 512;" xml:space="preserve">
<style type="text/css">
	.st0{fill-rule:evenodd;clip-rule:evenodd;fill:#FFFFFF;}
</style>
<g>
	<polygon class="st0" points="306.2,219.4 275.2,229.6 275.2,196.9 256,223.2 236.8,196.9 236.8,229.6 205.8,219.4 225,246 
		193.8,256 225,266 205.8,292.6 236.8,282.4 236.8,315.1 256,288.8 275.2,315.1 275.2,282.4 306.2,292.6 287,266 318.2,256 287,246 
			"/>
	<path class="st0" d="M406.8,0H105.2C47.1,0,0,47.1,0,105.2v301.6C0,464.9,47.1,512,105.2,512h301.6c58.1,0,105.2-47.1,105.2-105.2
		V105.2C512,47.1,464.9,0,406.8,0z M383.7,277.2l-12,36.6l-65.5-21.2l40.7,55.6l-31.2,22.8l-40.4-55.8V384h-38.4v-68.9l-40.4,55.8
		l-31.2-22.8l40.7-55.6l-65.5,21.2l-12-36.6l65.5-21.2l-65.5-21.2l12-36.6l65.5,21.2l-40.7-55.6l31.2-22.8l40.4,55.8V128h38.4v68.9
		l40.4-55.8l31.2,22.8l-40.7,55.6l65.5-21.2l12,36.6L318.2,256L383.7,277.2z"/>
</g>
</svg>
