<?xml version="1.0" encoding="utf-8"?>
<!-- Generator: Adobe Illustrator 28.2.0, SVG Export Plug-In . SVG Version: 6.00 Build 0)  -->
<svg version="1.1" id="Layer_1" xmlns="http://www.w3.org/2000/svg" xmlns:xlink="http://www.w3.org/1999/xlink" x="0px" y="0px"
	 viewBox="0 0 512 512" style="enable-background:new 0 0 512 512;" xml:space="preserve">
<style type="text/css">
	.st0{fill:#FFFFFF;filter:url(#Adobe_OpacityMaskFilter);}
	.st1{mask:url(#mask0_1_219_00000157994552529855169570000008941619228057443737_);}
	.st2{fill:#FFFFFF;}
	.st3{display:none;fill:#FFFFFF;}
	.st4{fill:#202020;}
	.st5{fill:#FF5A16;}
</style>
<defs>
	<filter id="Adobe_OpacityMaskFilter" filterUnits="userSpaceOnUse" x="3.5" y="53.4" width="505" height="405.2">
		<feColorMatrix  type="matrix" values="1 0 0 0 0  0 1 0 0 0  0 0 1 0 0  0 0 0 1 0"/>
	</filter>
</defs>
<mask maskUnits="userSpaceOnUse" x="3.5" y="53.4" width="505" height="405.2" id="mask0_1_219_00000157994552529855169570000008941619228057443737_">
	<path class="st0" d="M508.5,53.4H3.5v405.2h505V53.4z"/>
</mask>
<g class="st1">
	<path class="st2" d="M205.4,458.6c-73.5,0-133.3-32.9-168.3-92.6C6,313.7,3.5,257,3.5,193.7c0-37.5,11.3-70.2,32.6-94.5
		c19.6-22.3,47.4-36.8,78.3-40.7c36.7-4.6,82.2-5,129.6-5c77.1,0,98.9,0.9,129.2,4c40.4,4,74.3,19.1,98.2,43.6
		c24.2,24.9,37.1,58.1,37.1,96.1v7.6c0,64.9-43.4,119.1-103.8,133.9c-4.5,10.6-10.1,21.2-16.7,31.7l-0.2,0.3
		c-21.3,32.9-71.3,88.1-167.2,88.1L205.4,458.6L205.4,458.6z"/>
	<path class="st3" d="M370.1,89.1c-28.6-2.9-48.7-3.8-126-3.8c-49.7,0-91.7,0.5-125.6,4.8c-44.9,5.7-83.1,40.1-83.1,103.6
		c0,63.5,3.3,112.7,29.1,156.1c29.1,49.7,77.8,76.9,140.8,76.9h15.3c77.3,0,119.4-41.1,140.4-73.5c9.1-14.3,15.8-28.6,20.1-43
		c54.9-4.8,95.5-50.1,95.5-105.5V197C476.6,137.4,437.4,95.8,370.1,89.1L370.1,89.1z"/>
	<g>
		<path class="st4" d="M364.4,163.1c-7.6,0-11.9,4.3-11.9,10v53.9c0,5.7,4.3,10,11.9,10c24.3,0,37.7-13.9,37.7-36.8
			C402.1,177.5,388.7,163.1,364.4,163.1z"/>
		<path class="st4" d="M370.1,89.1c-28.6-2.9-48.7-3.8-126-3.8c-49.6,0-91.7,0.5-125.6,4.8c-44.9,5.7-83.1,40.1-83.1,103.6h0
			c0,64.4,3.3,112.7,29.1,156.1c29.1,49.7,77.8,76.9,140.8,76.9h15.3c77.3,0,119.4-41.1,140.4-73.5c9.1-14.3,15.8-28.6,20.1-43
			c54.9-4.8,95.5-50.1,95.5-105.5V197C476.5,137.3,437.4,95.8,370.1,89.1z M440.8,205.1c0,39.6-32.9,70.7-71.1,70.7h-17.2l-2.9,11.9
			c-3.8,18.6-11,33.4-19.1,46.8c-16.7,26.2-46.8,56.3-108.9,56.3h-14.8c-47.3,0-88.8-16.2-111.7-58.7c-20-36.8-23.9-76.4-23.9-138h0
			c0-40.1,15.8-62.5,55.4-68.3c28.2-4.3,65.4-4.8,117.4-4.8c77.4,0,93.6,1,120.8,3.3c48.2,5.7,75.9,29.1,75.9,73.5V205.1z"/>
	</g>
	<path class="st5" d="M118,224.3c0,28.2,15.8,52.5,35.8,71.6c13.4,12.9,34.4,26.3,48.7,34.9c4.3,2.4,8.6,3.8,13.4,3.8
		c5.7,0,10.5-1.4,14.3-3.8c14.3-8.6,35.3-22,48.2-34.9c20.5-19.1,36.3-43.4,36.3-71.6c0-30.6-22.9-57.8-55.9-57.8
		c-19.6,0-32.9,10-43,23.9c-9.1-13.8-22.9-23.9-42.5-23.9C140,166.5,118,193.7,118,224.3"/>
</g>
</svg>
