<?xml version="1.0" encoding="utf-8"?>
<!-- Generator: Adobe Illustrator 28.2.0, SVG Export Plug-In . SVG Version: 6.00 Build 0)  -->
<svg version="1.1" id="Layer_1" xmlns="http://www.w3.org/2000/svg" xmlns:xlink="http://www.w3.org/1999/xlink" x="0px" y="0px"
	 viewBox="0 0 512 512" style="enable-background:new 0 0 512 512;" xml:space="preserve">
<style type="text/css">
	.st0{fill:#FFFFFF;}
</style>
<g>
	<path class="st0" d="M262.8,510.7c-8,0-16.2,0.3-24.2-0.3l-15.4-1.9c-117.5-16-212-110.3-221.8-230.3c-1.1-13-1.9-23.8-1.1-37.1
		c7.8-126.9,110-231,236.6-239.6l12.6-0.3c8.8,0,17.9-0.4,26.7,0.3C327.4,5.7,378,25.7,417.6,58.3l16.3,14.2
		c30.2,28.8,52.2,64.6,65.1,104.3l5,16c6.4,24.1,9.1,50.3,7.8,75.1l-1.1,11.6c-8.4,84.2-55.2,157.2-129.2,198.4l-15.3,8.3
		C333.7,501.7,298.7,510.1,262.8,510.7z M253.4,55C152.2,55.6,65.8,134.3,54.1,233.9c-3.4,29.2,2,64.1,12,91.3
		c22.8,61.3,77.3,109.8,140.6,125.6c17,4.2,34.2,6,51.6,5.9c105.3-0.8,190.2-82.1,199.2-185.8c1.5-17.2,0.2-34.5-3.2-51.3
		c-17.7-90-91.1-156.9-183-164.3C265.5,54.8,259.4,54.9,253.4,55L253.4,55z"/>
	<path class="st0" d="M142.6,317.4l-22.1-27.7c8.5-1.4,17.5,0.1,26-0.7l-0.1-7.3l-35.6,0.3c-1.2-0.7-1.7-2-2.6-3.1l-6.6-8.1
		c-6.2-7.6-13.5-14.4-19.3-22.3c5.9-0.9,7.3-1.2,13.8-1.3l19.8-0.2c1.2-8.3-0.5-6.1-7.7-6.1c-11.3-0.1-12.7,1.4-18.9-6.7l-7.7-9.9
		c-3.5-4.3-7.5-8.3-10.7-12.9c-4.6-6.3,2.1-5,7-5l157,0.1c23.2,0,34.7,1.6,54.1,13.4l0.1-17.3c0-9.4,0.4-18.7-1.4-27.9
		c-4.8-24.3-26.5-40.7-48.2-49.7c-3.1-1.3-9.5-2.3-5.9-6.5c10.2-11.7,31-19.7,45.8-20.7c12.8-1.4,26.5,2.7,38.3,7.3
		c54,21.1,90,72.1,95.9,129.4c4,39.1-7.5,81.1-33.7,110.7c-38.8,43.8-108.3,55-159.8,27.9c-18.9-9.9-43.7-29.9-53.2-48.4
		c-1.7-3.4-1.2-3.4-5.1-3.4l-10.8-0.1c-1.9,0-4.8,0.6-6.1-1.1L142.6,317.4z"/>
</g>
</svg>
