<?xml version="1.0" encoding="utf-8"?>
<!-- Generator: Adobe Illustrator 28.2.0, SVG Export Plug-In . SVG Version: 6.00 Build 0)  -->
<svg version="1.1" id="Layer_1" xmlns="http://www.w3.org/2000/svg" xmlns:xlink="http://www.w3.org/1999/xlink" x="0px" y="0px"
	 viewBox="0 0 512 512" style="enable-background:new 0 0 512 512;" xml:space="preserve">
<style type="text/css">
	.st0{fill:#DD4814;stroke:#FFFFFF;stroke-linecap:round;stroke-linejoin:round;stroke-miterlimit:10;}
	.st1{fill:#333333;stroke:#FFFFFF;stroke-linecap:round;stroke-linejoin:round;stroke-miterlimit:10;}
	.st2{enable-background:new    ;}
	.st3{fill:#333333;}
	
		.st4{clip-path:url(#SVGID_00000072967503800406974520000014990322870340388269_);fill:#333333;stroke:#FFFFFF;stroke-miterlimit:10;}
	.st5{fill:none;stroke:#FFFFFF;stroke-miterlimit:10;}
	.st6{fill:#888888;stroke:#FFFFFF;stroke-linecap:round;stroke-linejoin:round;stroke-miterlimit:10;}
	.st7{fill:#2C001E;stroke:#FFFFFF;stroke-linecap:round;stroke-linejoin:round;stroke-miterlimit:10;}
	.st8{fill:#CDCDCD;}
	.st9{clip-path:url(#SVGID_00000120531980857070390050000006878921274756468149_);fill:none;stroke:#FFFFFF;stroke-miterlimit:10;}
	.st10{clip-path:url(#SVGID_00000157278917475766723930000009639473072180439686_);fill:none;stroke:#FFFFFF;stroke-miterlimit:10;}
	.st11{clip-path:url(#SVGID_00000015328894254147500420000015494194820882757261_);fill:none;stroke:#FFFFFF;stroke-miterlimit:10;}
	.st12{clip-path:url(#SVGID_00000116951350114407244560000016263809414147187871_);fill:none;stroke:#FFFFFF;stroke-miterlimit:10;}
	.st13{clip-path:url(#SVGID_00000146458646672533510460000009810748068860360855_);fill:none;stroke:#FFFFFF;stroke-miterlimit:10;}
</style>
<g>
	<polygon class="st0" points="511.1,256 510.9,344.7 256.3,492.7 256.5,404 	"/>
	<polygon class="st0" points="256.5,404 256.3,492.7 0,344.7 0.2,256 	"/>
	<polygon class="st1" points="511.3,167.3 384,241.3 127.8,93.3 255.1,19.3 	"/>
	<g class="st2">
		<polygon class="st1" points="512,167.6 511.7,256.3 384.4,330.3 384.7,241.6 		"/>
	</g>
	<g class="st2">
		<g>
			<polygon id="SVGID_1_" class="st3" points="384,241.3 383.8,330 127.5,182 127.8,93.3 			"/>
		</g>
		<g>
			<g>
				<defs>
					<polygon id="SVGID_00000031906330232778662810000007106421025042905750_" points="384,241.3 383.8,330 127.5,182 127.8,93.3 
											"/>
				</defs>
				<clipPath id="SVGID_00000077292734932152556500000014107084738093171360_">
					<use xlink:href="#SVGID_00000031906330232778662810000007106421025042905750_"  style="overflow:visible;"/>
				</clipPath>
				
					<polygon style="clip-path:url(#SVGID_00000077292734932152556500000014107084738093171360_);fill:#333333;stroke:#FFFFFF;stroke-miterlimit:10;" points="
					384,241.3 383.8,330 127.5,182 127.8,93.3 				"/>
			</g>
		</g>
		<g>
			<polygon id="SVGID_2_" class="st5" points="384,241.3 383.8,330 127.5,182 127.8,93.3 			"/>
		</g>
	</g>
	<polygon class="st6" points="383.9,285.6 256.6,359.6 0.3,211.7 127.6,137.7 	"/>
	<polygon class="st6" points="256.6,359.6 256.5,404 0.2,256 0.3,211.7 	"/>
	<polygon class="st6" points="383.9,285.6 383.8,330 256.5,404 256.6,359.6 	"/>
	<polygon class="st7" points="254.9,167.5 254.7,211.7 128,285.4 128.1,241.2 	"/>
	<polygon class="st8" points="254.9,167.5 128.1,241.2 0.4,167.5 127.8,93.3 	"/>
	<polygon class="st8" points="128.1,241.2 128,285.4 0.3,211.7 0.4,167.5 	"/>
	<polygon class="st8" points="254.9,167.5 254.7,211.7 128,285.4 128.1,241.2 	"/>
	<g>
		<g class="st2">
			<g>
				<g>
					<defs>
						<polygon id="SVGID_00000058590103466040220280000014787951336087732404_" points="254.9,211.7 128,285.4 0.4,211.7 
							127.8,137.7 						"/>
					</defs>
					<clipPath id="SVGID_00000021097071066845398380000014417631936061363607_">
						<use xlink:href="#SVGID_00000058590103466040220280000014787951336087732404_"  style="overflow:visible;"/>
					</clipPath>
					
						<polygon style="clip-path:url(#SVGID_00000021097071066845398380000014417631936061363607_);fill:none;stroke:#FFFFFF;stroke-miterlimit:10;" points="
						254.9,211.7 128.1,285.4 0.4,211.7 127.8,137.7 					"/>
				</g>
			</g>
			<g>
				<polygon id="SVGID_3_" class="st5" points="254.9,211.7 128,285.4 0.4,211.7 127.8,137.7 				"/>
			</g>
		</g>
		<g class="st2">
			<g>
				<g>
					<defs>
						<polygon id="SVGID_00000034061316469327980380000017520895515150926222_" points="255,167.5 128.2,241.2 0.5,167.5 
							127.9,93.3 						"/>
					</defs>
					<clipPath id="SVGID_00000167384669175088943000000010508041342867287482_">
						<use xlink:href="#SVGID_00000034061316469327980380000017520895515150926222_"  style="overflow:visible;"/>
					</clipPath>
					
						<polygon style="clip-path:url(#SVGID_00000167384669175088943000000010508041342867287482_);fill:none;stroke:#FFFFFF;stroke-miterlimit:10;" points="
						255,167.5 128.2,241.2 0.5,167.5 127.9,93.3 					"/>
				</g>
			</g>
			<g>
				<polygon id="SVGID_5_" class="st5" points="255,167.5 128.2,241.2 0.5,167.5 127.9,93.3 				"/>
			</g>
		</g>
		<g class="st2">
			<g>
				<g>
					<defs>
						<polygon id="SVGID_00000130644884758271721990000011383931044806261171_" points="128.2,241.2 128,285.4 0.4,211.7 0.5,167.5 
													"/>
					</defs>
					<clipPath id="SVGID_00000165934199504609151640000006281557511418184322_">
						<use xlink:href="#SVGID_00000130644884758271721990000011383931044806261171_"  style="overflow:visible;"/>
					</clipPath>
					
						<polygon style="clip-path:url(#SVGID_00000165934199504609151640000006281557511418184322_);fill:none;stroke:#FFFFFF;stroke-miterlimit:10;" points="
						128.2,241.2 128.1,285.4 0.4,211.7 0.5,167.5 					"/>
				</g>
			</g>
			<g>
				<polygon id="SVGID_7_" class="st5" points="128.2,241.2 128,285.4 0.4,211.7 0.5,167.5 				"/>
			</g>
		</g>
		<g class="st2">
			<g>
				<g>
					<defs>
						<polygon id="SVGID_00000055675767609525894760000012497987698656448654_" points="0.5,167.5 127.9,93.3 127.8,137.7 
							0.4,211.7 						"/>
					</defs>
					<clipPath id="SVGID_00000034792376140811017540000003374256555815148935_">
						<use xlink:href="#SVGID_00000055675767609525894760000012497987698656448654_"  style="overflow:visible;"/>
					</clipPath>
					
						<polygon style="clip-path:url(#SVGID_00000034792376140811017540000003374256555815148935_);fill:none;stroke:#FFFFFF;stroke-miterlimit:10;" points="
						0.5,167.5 127.9,93.3 127.8,137.7 0.4,211.7 					"/>
				</g>
			</g>
			<g>
				<polygon id="SVGID_9_" class="st5" points="0.5,167.5 127.9,93.3 127.8,137.7 0.4,211.7 				"/>
			</g>
		</g>
		<g class="st2">
			<g>
				<g>
					<defs>
						<polygon id="SVGID_00000118383084034338871160000009326097320321015980_" points="127.9,93.3 255,167.5 254.9,211.7 
							127.8,137.7 						"/>
					</defs>
					<clipPath id="SVGID_00000029764573535651534920000001033554629953534600_">
						<use xlink:href="#SVGID_00000118383084034338871160000009326097320321015980_"  style="overflow:visible;"/>
					</clipPath>
					
						<polygon style="clip-path:url(#SVGID_00000029764573535651534920000001033554629953534600_);fill:none;stroke:#FFFFFF;stroke-miterlimit:10;" points="
						127.9,93.3 255,167.5 254.9,211.7 127.2,138 					"/>
				</g>
			</g>
			<g>
				<polygon id="SVGID_11_" class="st5" points="127.9,93.3 255,167.5 254.9,211.7 127.8,137.7 				"/>
			</g>
		</g>
	</g>
</g>
</svg>
