<?xml version="1.0" encoding="utf-8"?>
<!-- Generator: Adobe Illustrator 28.2.0, SVG Export Plug-In . SVG Version: 6.00 Build 0)  -->
<svg version="1.1" id="Layer_1" xmlns="http://www.w3.org/2000/svg" xmlns:xlink="http://www.w3.org/1999/xlink" x="0px" y="0px"
	 viewBox="0 0 512 512" style="enable-background:new 0 0 512 512;" xml:space="preserve">
<style type="text/css">
	.st0{fill:#313CFC;}
	.st1{fill:#FFFFFF;}
</style>
<g>
	<circle class="st0" cx="256" cy="256" r="256"/>
	<g>
		<g>
			<path class="st1" d="M360,359.6L360,359.6c-2.2,20.4-19.1,36-39.6,36.4H201.3c-18.2,0-32.9-14.2-33.3-32.4c0-1.3,0-2.7,0-4l0,0
				c2.2-20.4,19.1-36,39.6-36.4h119.1c18.2,0,32.9,14.2,33.3,32.4C360,356.9,360,358.2,360,359.6z"/>
			<path class="st1" d="M278.7,257.3L278.7,257.3c-2.2,20.4-19.1,36-39.6,36.4h-52.9c-18.2,0-32.9-14.2-33.3-32.4c0-1.3,0-2.7,0-4
				l0,0c2.2-20.4,19.1-36,39.6-36.4h52.9c18.2,0,32.9,14.2,33.3,32.4C278.7,254.7,278.7,256,278.7,257.3z"/>
			<path class="st1" d="M290.7,154.7L290.7,154.7c-2.2,20.4-19.1,36-39.6,36.4h-20.4c-18.2,0-32.9-14.2-33.3-32.4c0-1.3,0-2.7,0-4
				l0,0c2.2-20.4,19.1-36,39.6-36.4h20.4c18.2,0,32.9,14.2,33.3,32.4C290.7,152,290.7,153.3,290.7,154.7z"/>
		</g>
	</g>
</g>
</svg>
