<?xml version="1.0" encoding="utf-8"?>
<!-- Generator: Adobe Illustrator 28.2.0, SVG Export Plug-In . SVG Version: 6.00 Build 0)  -->
<svg version="1.1" id="Layer_1" xmlns="http://www.w3.org/2000/svg" xmlns:xlink="http://www.w3.org/1999/xlink" x="0px" y="0px"
	 viewBox="0 0 512 512" style="enable-background:new 0 0 512 512;" xml:space="preserve">
<style type="text/css">
	.st0{fill:#FFFFFF;}
</style>
<path class="st0" d="M256,0C114.6,0,0,114.6,0,256s114.6,256,256,256s256-114.6,256-256S397.4,0,256,0z M197.3,154.7
	c2.2-20.4,19.1-36,39.6-36.4h20.4c18.2,0,32.9,14.2,33.3,32.4c0,1.3,0,2.7,0,4c-2.2,20.4-19.1,36-39.6,36.4h-20.4
	c-18.2,0-32.9-14.2-33.3-32.4C197.3,157.3,197.3,156,197.3,154.7z M152.9,261.3c0-1.3,0-2.7,0-4c2.2-20.4,19.1-36,39.6-36.4h52.9
	c18.2,0,32.9,14.2,33.3,32.4c0,1.3,0,2.7,0,4c-2.2,20.4-19.1,36-39.6,36.4h-52.9C168,293.8,153.3,279.6,152.9,261.3z M360,359.6
	c-2.2,20.4-19.1,36-39.6,36.4H201.3c-18.2,0-32.9-14.2-33.3-32.4c0-1.3,0-2.7,0-4c2.2-20.4,19.1-36,39.6-36.4h119.1
	c18.2,0,32.9,14.2,33.3,32.4C360,356.9,360,358.2,360,359.6z"/>
</svg>
