<?xml version="1.0" encoding="utf-8"?>
<!-- Generator: Adobe Illustrator 28.2.0, SVG Export Plug-In . SVG Version: 6.00 Build 0)  -->
<svg version="1.1" id="Layer_1" xmlns="http://www.w3.org/2000/svg" xmlns:xlink="http://www.w3.org/1999/xlink" x="0px" y="0px"
	 viewBox="0 0 512 512" style="enable-background:new 0 0 512 512;" xml:space="preserve">
<style type="text/css">
	.st0{fill:url(#SVGID_1_);}
	.st1{fill:#E4FDC3;}
</style>
<g>
	<linearGradient id="SVGID_1_" gradientUnits="userSpaceOnUse" x1="256" y1="511.034" x2="256" y2="0.966">
		<stop  offset="0" style="stop-color:#212121"/>
		<stop  offset="0.2575" style="stop-color:#141414"/>
		<stop  offset="0.6632" style="stop-color:#050505"/>
		<stop  offset="1" style="stop-color:#000000"/>
	</linearGradient>
	<path class="st0" d="M405.5,511h-299C47.7,511,0,463.4,0,404.5V107.5C0,48.6,47.7,1,106.5,1h299C464.3,1,512,48.6,512,107.5v297.1
		C512,463.4,464.3,511,405.5,511z"/>
	<g id="g8" transform="matrix(1.3333333,0,0,-1.3333333,0,86.666667)">
		<g id="g10" transform="scale(0.1)">
			<path id="path12" class="st1" d="M415.1-1083.9L415.1-1083.9c29.7,0,53.8-24.1,53.8-53.8v-264.6c0-29.7-24.1-53.8-53.8-53.8l0,0
				c-29.7,0-53.8,24.1-53.8,53.8v264.6C361.3-1108,385.4-1083.9,415.1-1083.9z"/>
			<path id="path14" class="st1" d="M749.5-674.4L749.5-674.4c29.7,0,53.8-24.1,53.8-53.8v-1083.5c0-29.7-24.1-53.8-53.8-53.8l0,0
				c-29.7,0-53.8,24.1-53.8,53.8v1083.5C695.7-698.5,719.8-674.4,749.5-674.4z"/>
			<path id="path16" class="st1" d="M1084-265L1084-265c29.7,0,53.8-24.1,53.8-53.8v-1902.4c0-29.7-24.1-53.8-53.8-53.8l0,0
				c-29.7,0-53.8,24.1-53.8,53.8v1902.4C1030.1-289.1,1054.2-265,1084-265z"/>
			<path id="path18" class="st1" d="M2087.2-110.8L2087.2-110.8c29.7,0,53.8-24.1,53.8-53.8v-2210.9c0-29.7-24.1-53.8-53.8-53.8l0,0
				c-29.7,0-53.8,24.1-53.8,53.8v2210.9C2033.4-134.8,2057.5-110.8,2087.2-110.8z"/>
			<path id="path20" class="st1" d="M1418.4-892.5L1418.4-892.5c29.7,0,53.8-24.1,53.8-53.8v-647.5c0-29.7-24.1-53.8-53.8-53.8l0,0
				c-29.7,0-53.8,24.1-53.8,53.8v647.5C1364.6-916.5,1388.6-892.5,1418.4-892.5z"/>
			<path id="path22" class="st1" d="M1752.8-674.4L1752.8-674.4c29.7,0,53.8-24.1,53.8-53.8v-1083.5c0-29.7-24.1-53.8-53.8-53.8l0,0
				c-29.7,0-53.8,24.1-53.8,53.8v1083.5C1699-698.5,1723.1-674.4,1752.8-674.4z"/>
			<path id="path24" class="st1" d="M2421.6-456.4L2421.6-456.4c29.7,0,53.8-24.1,53.8-53.8v-1519.6c0-29.7-24.1-53.8-53.8-53.8l0,0
				c-29.7,0-53.8,24.1-53.8,53.8v1519.6C2367.8-480.5,2391.9-456.4,2421.6-456.4z"/>
			<path id="path26" class="st1" d="M3090.5-408.5L3090.5-408.5c29.7,0,53.8-24.1,53.8-53.8v-1615.3c0-29.7-24.1-53.8-53.8-53.8l0,0
				c-29.7,0-53.8,24.1-53.8,53.8v1615.3C3036.7-432.6,3060.8-408.5,3090.5-408.5z"/>
			<path id="path28" class="st1" d="M2756-873.8L2756-873.8c29.7,0,53.8-24.1,53.8-53.8v-684.7c0-29.7-24.1-53.8-53.8-53.8l0,0
				c-29.7,0-53.8,24.1-53.8,53.8v684.7C2702.2-897.9,2726.3-873.8,2756-873.8z"/>
			<path id="path30" class="st1" d="M3424.9-1081.8L3424.9-1081.8c29.7,0,53.8-24.1,53.8-53.8v-268.7c0-29.7-24.1-53.8-53.8-53.8
				l0,0c-29.7,0-53.8,24.1-53.8,53.8v268.7C3371.1-1105.9,3395.2-1081.8,3424.9-1081.8z"/>
		</g>
	</g>
</g>
</svg>
