<?xml version="1.0" encoding="utf-8"?>
<!-- Generator: Adobe Illustrator 28.2.0, SVG Export Plug-In . SVG Version: 6.00 Build 0)  -->
<svg version="1.1" id="Layer_1" xmlns="http://www.w3.org/2000/svg" xmlns:xlink="http://www.w3.org/1999/xlink" x="0px" y="0px"
	 viewBox="0 0 512 512" style="enable-background:new 0 0 512 512;" xml:space="preserve">
<style type="text/css">
	.st0{fill:#FFFFFF;}
</style>
<path class="st0" d="M405.5,1h-299C47.7,1,0,48.6,0,107.5v297.1C0,463.4,47.7,511,106.5,511h299c58.8,0,106.5-47.7,106.5-106.5
	V107.5C512,48.6,464.3,1,405.5,1z M62.5,273.6c0,4-3.2,7.2-7.2,7.2c-4,0-7.2-3.2-7.2-7.2v-35.3c0-4,3.2-7.2,7.2-7.2
	c4,0,7.2,3.2,7.2,7.2V273.6z M107.1,328.2c0,4-3.2,7.2-7.2,7.2c-4,0-7.2-3.2-7.2-7.2V183.8c0-4,3.2-7.2,7.2-7.2c4,0,7.2,3.2,7.2,7.2
	V328.2z M151.7,382.8c0,4-3.2,7.2-7.2,7.2c-4,0-7.2-3.2-7.2-7.2V129.2c0-4,3.2-7.2,7.2-7.2c4,0,7.2,3.2,7.2,7.2V382.8z M196.3,299.2
	c0,4-3.2,7.2-7.2,7.2c-4,0-7.2-3.2-7.2-7.2v-86.3c0-4,3.2-7.2,7.2-7.2c4,0,7.2,3.2,7.2,7.2V299.2z M240.9,328.2c0,4-3.2,7.2-7.2,7.2
	c-4,0-7.2-3.2-7.2-7.2V183.8c0-4,3.2-7.2,7.2-7.2c4,0,7.2,3.2,7.2,7.2V328.2z M285.5,403.4c0,4-3.2,7.2-7.2,7.2
	c-4,0-7.2-3.2-7.2-7.2V108.6c0-4,3.2-7.2,7.2-7.2c4,0,7.2,3.2,7.2,7.2V403.4z M330.1,357.3c0,4-3.2,7.2-7.2,7.2s-7.2-3.2-7.2-7.2
	V154.7c0-4,3.2-7.2,7.2-7.2s7.2,3.2,7.2,7.2V357.3z M374.6,301.6c0,4-3.2,7.2-7.2,7.2c-4,0-7.2-3.2-7.2-7.2v-91.3
	c0-4,3.2-7.2,7.2-7.2c4,0,7.2,3.2,7.2,7.2V301.6z M419.2,363.7c0,4-3.2,7.2-7.2,7.2s-7.2-3.2-7.2-7.2V148.3c0-4,3.2-7.2,7.2-7.2
	s7.2,3.2,7.2,7.2V363.7z M463.8,273.9c0,4-3.2,7.2-7.2,7.2c-4,0-7.2-3.2-7.2-7.2v-35.8c0-4,3.2-7.2,7.2-7.2c4,0,7.2,3.2,7.2,7.2
	V273.9z"/>
</svg>
