<?xml version="1.0" encoding="utf-8"?>
<!-- Generator: Adobe Illustrator 28.2.0, SVG Export Plug-In . SVG Version: 6.00 Build 0)  -->
<svg version="1.1" id="svg6" xmlns:svg="http://www.w3.org/2000/svg"
	 xmlns="http://www.w3.org/2000/svg" xmlns:xlink="http://www.w3.org/1999/xlink" x="0px" y="0px" viewBox="0 0 512 512"
	 style="enable-background:new 0 0 512 512;" xml:space="preserve">
<style type="text/css">
	.st0{fill:#FFFFFF;}
	.st1{fill:#00B786;}
</style>
<g>
	<path id="path2" class="st0" d="M47.7,20.5l208.5,208.7L465.8,20.5H47.7z M19.9,55.4l235.5,230.9L492.3,56.1l-0.7,142.6L259,293.5
		l58.7,48.8l-31.5,23.2l-161,0.7c-18.7-0.1-100.2-71-105.2-159.7L19.9,55.4z"/>
	<path id="path4" class="st1" d="M303.4,299.3L512,215.4l-31.1,221.8l-45.8-35.3c-84.1,89.7-175.1,101.7-263.2,80.6
		c-88-21.1-124.4-81.3-152-137.8S-2.6,226.1,11,170.5c4.4,40.7-5.1,63.1,24.7,130.1c24.4,44.1,55.8,79,100.2,96.6
		c53.8,24,124.8,13,161.4-11.8l55.1-47L303.4,299.3z"/>
</g>
</svg>
