<?xml version="1.0" encoding="utf-8"?>
<!-- Generator: Adobe Illustrator 28.2.0, SVG Export Plug-In . SVG Version: 6.00 Build 0)  -->
<svg version="1.1" id="Layer_1" xmlns="http://www.w3.org/2000/svg" xmlns:xlink="http://www.w3.org/1999/xlink" x="0px" y="0px"
	 viewBox="0 0 512 512" style="enable-background:new 0 0 512 512;" xml:space="preserve">
<style type="text/css">
	.st0{fill:#2A0428;}
	.st1{fill:#DCC129;}
	.st2{fill:#DBC029;}
	.st3{fill:#2A0429;}
</style>
<g>
	<path class="st0" d="M380.1,92.3c21.9-12.6,43.6-25.2,65.4-37.7c13.7-7.9,21.6-5.6,29.2,8.2c15.5,27.9,26,57.7,32.4,88.9
		c3.1,15.3-2,22.4-17.3,25.1c-24.7,4.2-49.4,8.6-74.1,13c-0.8,5.6,3.1,4.3,5.7,4.3c23.5,0.1,46.9,0,70.4,0c14.7,0,20,5.4,20.2,20
		c1.3,111.6-69.2,235.7-201.2,282.6c-15.4,5.5-31.4,9.2-47.4,12.7c-12.6,2.8-19.9-3-22.1-15.8c-4.4-25.1-8.8-50.3-13.3-76.1
		c-63.8,4.8-119.5-14.1-165.6-58.4C29.2,327.2,8.8,287.7,2.3,242C-11.6,144.8,39.1,54.9,128.1,17.8C214.6-18.4,320.9,7.4,380.1,92.3
		z M208.2,402.1c103.1,1.1,188.5-82.7,192-185.2c3.7-109.5-83.5-195.7-185.3-199c-109.8-3.6-196,84-199.1,186
		C12.5,314.8,103.1,403.8,208.2,402.1z M244,416.4c4.5,25.7,9.1,51.6,13.8,78.3c71.4-14,130.5-47.6,175.5-104.2
		c41.8-52.5,63.1-112.5,62.9-180c-27.4,0-53.7,0-78.9,0C408.6,320.7,351.1,388.7,244,416.4z M458,65.9
		c-23.4,13.5-46.3,26.7-67.9,39.2c8.4,23.2,16.6,45.6,25,68.7c24.7-4.4,50.8-9,77.3-13.7C486.2,126.3,475.1,95.4,458,65.9z"/>
	<path class="st1" d="M208.2,402.1c-105.1,1.6-195.8-87.3-192.4-198.2c3.1-102,89.3-189.6,199.1-186c101.8,3.3,189,89.6,185.3,199
		C396.8,319.4,311.3,403.2,208.2,402.1z M319.6,210.2c0-61.3-49.4-111-109.5-111.9C147.5,97.5,97,148.3,96.3,208.7
		c-0.7,62,49.9,112.4,110.3,113.1C268.9,322.6,320.3,271.4,319.6,210.2z"/>
	<path class="st1" d="M244,416.4c107.1-27.7,164.6-95.7,173.3-206c25.2,0,51.6,0,78.9,0c0.3,67.6-21.1,127.5-62.9,180
		c-45,56.6-104.1,90.2-175.5,104.2C253.1,468,248.5,442.1,244,416.4z"/>
	<path class="st2" d="M458,65.9c17.1,29.5,28.2,60.5,34.4,94.2c-26.5,4.7-52.6,9.3-77.3,13.7c-8.4-23-16.5-45.5-25-68.7
		C411.7,92.6,434.6,79.3,458,65.9z"/>
	<path class="st3" d="M319.6,210.2c0.7,61.2-50.8,112.4-113,111.6c-60.4-0.7-111-51.1-110.3-113.1C97,148.3,147.5,97.5,210.1,98.4
		C270.2,99.2,319.6,148.9,319.6,210.2z M208.4,114.2c-52.4-0.1-96.1,43.1-96.3,95.2c-0.1,52.9,43,96.7,95.3,96.8
		c52.8,0.1,96.5-43.1,96.6-95.5C304.1,157.8,260.8,114.2,208.4,114.2z"/>
</g>
</svg>
