<?xml version="1.0" encoding="utf-8"?>
<!-- Generator: Adobe Illustrator 28.2.0, SVG Export Plug-In . SVG Version: 6.00 Build 0)  -->
<svg version="1.1"
	 id="svg6" xmlns:sodipodi="http://sodipodi.sourceforge.net/DTD/sodipodi-0.dtd" xmlns:inkscape="http://www.inkscape.org/namespaces/inkscape" xmlns:svg="http://www.w3.org/2000/svg" inkscape:version="1.3.2 (091e20ef0f, 2023-11-25)" sodipodi:docname="logo-pills.svg"
	 xmlns="http://www.w3.org/2000/svg" xmlns:xlink="http://www.w3.org/1999/xlink" x="0px" y="0px" viewBox="0 0 512 512"
	 style="enable-background:new 0 0 512 512;" xml:space="preserve">
<style type="text/css">
	.st0{fill:#1C4E80;stroke:#000000;stroke-width:3;stroke-miterlimit:10;}
</style>
<sodipodi:namedview  bordercolor="#000000" borderopacity="0.25" id="namedview6" inkscape:current-layer="svg6" inkscape:cx="534.05211" inkscape:cy="522.55166" inkscape:deskcolor="#d1d1d1" inkscape:pagecheckerboard="0" inkscape:pageopacity="0.0" inkscape:showpageshadow="2" inkscape:window-height="1311" inkscape:window-maximized="1" inkscape:window-width="2560" inkscape:window-x="1920" inkscape:window-y="24" inkscape:zoom="0.695625" pagecolor="#60ff7d">
	</sodipodi:namedview>
<g>
	<path id="path1-5" sodipodi:nodetypes="scscssscscssssccscssssccsssssssssccssscsssssscsscsssssssccsssscscscsscc" class="st0" d="
		M249.3,308.1c0,8.9,2.4,17.3,7.1,25.3c5.6-16,14.5-29.9,26.5-41.9c12.1-12,25.9-20.9,41.6-26.7c-8.1-4.8-16.5-7.1-25.2-7.1
		c-13.9,0-25.7,5-35.5,15C254.2,282.7,249.3,294.5,249.3,308.1L249.3,308.1z M263.7,372.8c0,13.4,2.5,26.1,7.6,38.2
		c5,12.1,12.1,22.9,21.1,32.2v30.4c0,4,1.4,7.4,4.1,10.1c2.7,2.8,6.1,4.1,10.1,4.1c4,0,7.3-1.4,10.1-4.1c2.7-2.8,4.2-6.1,4.3-10.1
		v-10.1c13.9,6.8,28.1,10.1,42.8,10.1c14.6,0,29-3.4,43-10.1v10.1c0,4,1.4,7.4,4.1,10.1c2.7,2.8,6.1,4.1,10.1,4.1
		c4,0,7.3-1.4,10.1-4.1c2.7-2.8,4.2-6.1,4.3-10.1v-30.4c9-9.4,16-20,21.1-32c5-12,7.6-24.8,7.6-38.4c0-13.7-2.7-26.7-8-39.1
		c-5.3-12.4-12.4-23.2-21.3-32.2s-19.5-16.2-32-21.4c-12.5-5.2-25.5-7.9-38.9-8.1c-13.4-0.2-26.4,2.5-38.9,8.1
		c-12.5,5.5-23.2,12.7-32,21.4c-8.8,8.7-15.9,19.5-21.3,32.2C266.2,346.4,263.6,359.5,263.7,372.8L263.7,372.8z M292.3,372.8
		c0-9.8,1.8-19.1,5.5-27.9c3.7-8.7,8.8-16.4,15.3-23c6.6-6.6,14.2-11.7,22.9-15.4c8.7-3.7,17.9-5.6,27.7-5.8c13,0,24.9,3.2,35.9,9.7
		c11,6.4,19.7,15.2,26.1,26.2c6.4,11,9.6,23.1,9.6,36.1c0,9.7-1.9,19-5.7,27.9c-3.8,8.9-8.9,16.6-15.3,23
		c-6.4,6.4-14,11.6-22.9,15.4c-8.8,3.8-18.1,5.7-27.7,5.5c-13,0-24.9-3.1-35.9-9.4c-11-6.3-19.6-15-25.9-26.2
		C295.7,397.8,292.5,385.7,292.3,372.8L292.3,372.8z M349.5,372.8c0,4,1.4,7.4,4.1,10.1c2.7,2.8,6.1,4.1,10.1,4.1h28.6
		c4,0,7.3-1.4,10.1-4.1c2.7-2.8,4.2-6.1,4.3-10.1c0.2-4-1.3-7.4-4.3-10.1c-3.1-2.8-6.4-4.2-10.1-4.4h-14.2V344c0-4-1.4-7.4-4.3-10.1
		c-2.9-2.8-6.3-4.2-10.1-4.4c-3.8-0.2-7.2,1.3-10.1,4.4c-2.9,3.1-4.3,6.4-4.1,10.1L349.5,372.8z M402.8,264.9
		c15.9,5.8,29.7,14.7,41.6,26.7c11.9,12,20.7,25.9,26.5,41.9c4.7-8,7.1-16.4,7.1-25.3c0-13.8-4.9-25.6-14.6-35.4s-21.6-14.8-35.5-15
		C419.3,257.7,410.9,260.1,402.8,264.9L402.8,264.9z"/>
	<path id="path2" class="st0" d="M356.4,5.1H69.7c-19.8,0-35.8,16-35.8,35.8v71.7c0,19.8,16,35.8,35.8,35.8V471
		c0,19.8,16,35.8,35.8,35.8h143.4V471H105.6v-35.8h89.6V184.3h-89.6v-35.8h215v53.8h35.8v-53.8c19.8,0,35.8-16,35.8-35.8V41
		C392.3,21.2,376.2,5.1,356.4,5.1z M159.3,220.2v179.2h-53.8V220.2H159.3z M69.7,112.6V41h286.7v71.7H69.7z"/>
</g>
</svg>
