<?xml version="1.0" encoding="utf-8"?>
<!-- Generator: Adobe Illustrator 28.2.0, SVG Export Plug-In . SVG Version: 6.00 Build 0)  -->
<svg version="1.1"
	 id="svg3570" xmlns:svg="http://www.w3.org/2000/svg" xmlns:inkscape="http://www.inkscape.org/namespaces/inkscape" xmlns:sodipodi="http://sodipodi.sourceforge.net/DTD/sodipodi-0.dtd" xmlns:cc="http://creativecommons.org/ns#" xmlns:rdf="http://www.w3.org/1999/02/22-rdf-syntax-ns#" xmlns:osb="http://www.openswatchbook.org/uri/2009/osb" xmlns:dc="http://purl.org/dc/elements/1.1/" inkscape:export-filename="/home/nicklas/git/MediathekView/res/MediathekView@x16.png"
	 xmlns="http://www.w3.org/2000/svg" xmlns:xlink="http://www.w3.org/1999/xlink" x="0px" y="0px" viewBox="0 0 512 512"
	 style="enable-background:new 0 0 512 512;" xml:space="preserve">
<style type="text/css">
	.st0{fill:#231F20;}
	.st1{fill:#5A5758;}
	.st2{fill:url(#path5777_00000133521118869660673590000000127141705244018066_);}
	.st3{fill:url(#path5795_00000140016156918624554310000013446160518525995144_);}
	.st4{fill:none;stroke:#231F20;stroke-width:2.6223;}
	.st5{fill:url(#path5811_00000024690568297586700300000005956086515572107938_);}
	.st6{fill:url(#path4222_00000144304964060579824220000005561742041555360946_);}
	.st7{fill:url(#path4226_00000056407464937433576900000000652091278337795474_);}
	.st8{fill:#F0F6FA;stroke:#000000;stroke-width:1.281;}
</style>
<sodipodi:namedview  bordercolor="#666666" borderopacity="1" gridtolerance="10" guidetolerance="10" id="namedview83" inkscape:current-layer="svg3570" inkscape:cx="-109.00831" inkscape:cy="347.22691" inkscape:guide-bbox="true" inkscape:pageopacity="0" inkscape:pageshadow="2" inkscape:snap-global="true" inkscape:snap-to-guides="true" inkscape:window-height="1054" inkscape:window-maximized="1" inkscape:window-width="1920" inkscape:window-x="1920" inkscape:window-y="0" inkscape:zoom="1.0269366" objecttolerance="10" pagecolor="#ffffff" showgrid="false" showguides="true">
	</sodipodi:namedview>
<g id="layer4" transform="translate(-45.900094,-78.240144)">
</g>
<g id="layer5" transform="translate(-45.900094,-78.240144)">
</g>
<g>
	<g id="layer1" transform="translate(-742.67131,-55.574179)">
		<path id="path5888" inkscape:connector-curvature="0" class="st0" d="M1131.3,58.6c-83.7,32.8-165.9,68.9-248.9,103.4
			c-29.1,12.2-58.3,24.2-87.4,36.5l33.7,361.8c0.4,4.4,4.2,7.6,8.5,7.2l363.4-34.5c4.3-0.4,7.5-4.3,7-8.6l-29.1-306
			c-1-6.2-10-9.7-15.4-8.5c-104,11.3-208.2,21.2-312.3,31.3c100.6-41.6,201.2-83.1,301.8-124.7L1131.3,58.6L1131.3,58.6z"/>
		<path id="path5767" inkscape:connector-curvature="0" class="st0" d="M1164.6,208.2L829.7,240l-12.2,5.1l-2.1-3.7l-14.2,1.3
			c-4.3,0.4-7.5,4.3-7,8.7l29.1,306c0.4,4.4,4.2,7.6,8.5,7.2l363.4-34.5c4.3-0.4,7.5-4.3,7-8.7l-29.1-306
			C1172.8,211,1168.9,207.8,1164.6,208.2"/>
		<path id="path5769" inkscape:connector-curvature="0" class="st1" d="M835.9,242.1l311.3-128.6l3-8.9L795.9,199l25.7,44.5l2.1,3.7
			L835.9,242.1L835.9,242.1z"/>
		
			<linearGradient id="path5777_00000060746259396218496410000009869939760769915041_" gradientUnits="userSpaceOnUse" x1="41.196" y1="852.014" x2="41.989" y2="852.014" gradientTransform="matrix(450.6512 0 0 -450.6512 -17775.4824 384113.5625)">
			<stop  offset="0" style="stop-color:#FFFFFF"/>
			<stop  offset="1" style="stop-color:#D7E2EB"/>
		</linearGradient>
		
			<path id="path5777" inkscape:connector-curvature="0" style="fill:url(#path5777_00000060746259396218496410000009869939760769915041_);" d="
			M829.6,238.7l317.3-132.8l-36-44.9L789.5,195.5l25.7,44.5l2.1,3.7L829.6,238.7z"/>
		
			<linearGradient id="path5795_00000170975908949087207270000014144361794206520705_" gradientUnits="userSpaceOnUse" x1="41.1757" y1="852.0795" x2="41.9687" y2="852.0795" gradientTransform="matrix(453.6438 0 0 -453.6438 -17871.8691 386790.4062)">
			<stop  offset="0" style="stop-color:#FFFFFF"/>
			<stop  offset="1" style="stop-color:#D2E2F0"/>
		</linearGradient>
		
			<path id="path5795" inkscape:connector-curvature="0" sodipodi:nodetypes="ccccc" style="fill:url(#path5795_00000170975908949087207270000014144361794206520705_);" d="
			M1167,206.6l-349.3,34.3l10.6,52.2l334.2-28.3L1167,206.6z"/>
		<path id="path5823" inkscape:connector-curvature="0" class="st4" d="M1197,509.6c0.3,3.7-2.4,7.1-6.1,7.4l-336.5,31.6
			c-3.7,0.3-7-2.4-7.3-6.2L826,309.5c-0.3-3.7,2.4-7.1,6.1-7.4l336.5-31.6c3.7-0.3,7,2.4,7.3,6.2L1197,509.6z"/>
		
			<path id="path5779" inkscape:connector-curvature="0" sodipodi:nodetypes="cccccccccccccccccccccccccccccccccccccccccccccccc" class="st0" d="
			M1125.8,55.6l-20.7,7.7l36,45.3l9.6-4.1L1125.8,55.6z M1072,76.9l-46.8,20l36,45.3l46.8-20.1L1072,76.9z M983.3,113.5l-46.8,20.1
			l36,45.3l46.8-20L983.3,113.5z M897.5,150.1l-46.8,20l36,45.3l46.8-20.1L897.5,150.1z M790.5,198.3l18.3,96.7l58.3-3.2l-0.1-21.4
			l-54.8-74.6l-4.1-2.9l-15.7,1.9L790.5,198.3z M1167.6,209.2l-10.7,56.8l10.4-0.8l3.3-54.9L1167.6,209.2z M1118.4,211.2l-49.9,4.7
			l-10.7,60.3l49.5-5.6L1118.4,211.2z M1035.4,219.7l-49.6,4.2l-10.6,58.3l50.2-1.6L1035.4,219.7z M945.3,228.2l-49.5,4.8
			l-10.6,57.6l49.5-3.1L945.3,228.2z"/>
		
			<linearGradient id="path5811_00000004527287229264761180000008870530691581197226_" gradientUnits="userSpaceOnUse" x1="93.8084" y1="827.7401" x2="94.6008" y2="827.7401" gradientTransform="matrix(12.124 -1.1521 -1.1521 -12.124 613.983 10348.6299)">
			<stop  offset="0" style="stop-color:#BDBCBC"/>
			<stop  offset="1" style="stop-color:#5A5758"/>
		</linearGradient>
		
			<path id="path5811" inkscape:connector-curvature="0" style="fill:url(#path5811_00000004527287229264761180000008870530691581197226_);" d="
			M802.5,199.7c-0.2,0-0.3,0-0.5,0c-2.2,0.2-3.8,1.8-4.3,3.8c0,0.2-0.1,0.3-0.1,0.5c0,0.3,0,0.7,0,1c0,0.2,0,0.3,0.1,0.5
			c0,0.2,0.1,0.3,0.1,0.5c0,0.2,0.1,0.3,0.2,0.4c0,0,0,0,0,0c0.1,0.1,0.1,0.3,0.2,0.4c0.3,0.6,0.7,1,1.2,1.4c0.5,0.4,1,0.7,1.6,0.9
			c0,0,0,0,0,0c0.1,0,0.3,0.1,0.4,0.1c0.3,0.1,0.6,0.1,1,0.1c0.2,0,0.3,0,0.5,0c0.3,0,0.7-0.1,1-0.2c0.2,0,0.3-0.1,0.4-0.2
			c0.3-0.1,0.6-0.3,0.8-0.4c0.2-0.1,0.4-0.3,0.6-0.4c0.1,0,0.1-0.1,0.2-0.2c0.2-0.2,0.3-0.4,0.5-0.5c0-0.1,0.1-0.1,0.1-0.2
			c0,0,0,0,0,0c0.1-0.1,0.2-0.3,0.2-0.4c0.1-0.1,0.1-0.3,0.2-0.4c0.2-0.4,0.3-0.9,0.4-1.4c0-0.3,0-0.6,0-1c0-0.2,0-0.3-0.1-0.5
			c0-0.1-0.1-0.3-0.1-0.4c0,0,0,0,0-0.1c0-0.1-0.1-0.3-0.1-0.4c0-0.1-0.1-0.2-0.2-0.3c0,0,0,0,0-0.1c0,0,0-0.1-0.1-0.1
			c-0.1-0.1-0.1-0.2-0.2-0.3c-0.1-0.1-0.2-0.2-0.3-0.4c-0.2-0.3-0.5-0.6-0.8-0.8c-0.1-0.1-0.2-0.2-0.3-0.3c-0.1,0-0.1-0.1-0.2-0.1
			c0,0,0,0,0,0c-0.1-0.1-0.2-0.1-0.4-0.2c0,0,0,0,0,0c-0.2-0.1-0.4-0.2-0.6-0.2c0,0-0.1,0-0.1-0.1c-0.2,0-0.3-0.1-0.5-0.1
			c-0.1,0-0.3-0.1-0.4-0.1C802.9,199.7,802.7,199.7,802.5,199.7L802.5,199.7z"/>
		
			<linearGradient id="path4222_00000181048004103753844510000002980855793571068343_" gradientUnits="userSpaceOnUse" x1="93.6371" y1="829.3554" x2="94.4295" y2="829.3554" gradientTransform="matrix(12.124 -1.1521 -1.1521 -12.124 633.0045 10442.2744)">
			<stop  offset="0" style="stop-color:#BDBCBC"/>
			<stop  offset="1" style="stop-color:#5A5758"/>
		</linearGradient>
		
			<path id="path4222" inkscape:connector-curvature="0" style="fill:url(#path4222_00000181048004103753844510000002980855793571068343_);" d="
			M817.6,274c-0.2,0-0.3,0-0.5,0c-2.2,0.2-3.8,1.8-4.3,3.8c0,0.2-0.1,0.3-0.1,0.5c0,0.3,0,0.7,0,1c0,0.2,0,0.3,0.1,0.5
			c0,0.2,0.1,0.3,0.1,0.5c0,0.2,0.1,0.3,0.2,0.4c0,0,0,0,0,0c0.1,0.1,0.1,0.3,0.2,0.4c0.3,0.6,0.7,1,1.2,1.4c0.5,0.4,1,0.7,1.6,0.9
			c0,0,0,0,0,0c0.1,0,0.3,0.1,0.4,0.1c0.3,0.1,0.6,0.1,1,0.1c0.2,0,0.3,0,0.5,0c0.3,0,0.7-0.1,1-0.2c0.2,0,0.3-0.1,0.4-0.2
			c0.3-0.1,0.6-0.3,0.8-0.4c0.2-0.1,0.4-0.3,0.6-0.4c0.1,0,0.1-0.1,0.2-0.2c0.2-0.2,0.3-0.4,0.5-0.5c0-0.1,0.1-0.1,0.1-0.2
			c0,0,0,0,0,0c0.1-0.1,0.2-0.3,0.2-0.4c0.1-0.1,0.1-0.3,0.2-0.4c0.2-0.4,0.3-0.9,0.4-1.4c0-0.3,0-0.6,0-1c0-0.2,0-0.3-0.1-0.5
			c0-0.1-0.1-0.3-0.1-0.4c0,0,0,0,0-0.1c0-0.1-0.1-0.3-0.1-0.4c0-0.1-0.1-0.2-0.2-0.3c0,0,0,0,0-0.1c0,0,0-0.1-0.1-0.1
			c-0.1-0.1-0.1-0.2-0.2-0.3c-0.1-0.1-0.2-0.2-0.3-0.4c-0.2-0.3-0.5-0.6-0.8-0.8c-0.1-0.1-0.2-0.2-0.3-0.3c-0.1,0-0.1-0.1-0.2-0.1
			c0,0,0,0,0,0c-0.1-0.1-0.2-0.1-0.4-0.2c0,0,0,0,0,0c-0.2-0.1-0.4-0.2-0.6-0.2c0,0-0.1,0-0.1-0.1c-0.2,0-0.3-0.1-0.5-0.1
			c-0.1,0-0.3-0.1-0.4-0.1C818,274,817.8,274,817.6,274L817.6,274z"/>
		
			<linearGradient id="path4226_00000016054259544908065780000017140145677957246379_" gradientUnits="userSpaceOnUse" x1="92.9824" y1="829.4176" x2="93.7748" y2="829.4176" gradientTransform="matrix(12.124 -1.1521 -1.1521 -12.124 671.6906 10442.2744)">
			<stop  offset="0" style="stop-color:#BDBCBC"/>
			<stop  offset="1" style="stop-color:#5A5758"/>
		</linearGradient>
		
			<path id="path4226" inkscape:connector-curvature="0" style="fill:url(#path4226_00000016054259544908065780000017140145677957246379_);" d="
			M848.3,274c-0.2,0-0.3,0-0.5,0c-2.2,0.2-3.8,1.8-4.3,3.8c0,0.2-0.1,0.3-0.1,0.5c0,0.3,0,0.7,0,1c0,0.2,0,0.3,0.1,0.5
			c0,0.2,0.1,0.3,0.1,0.5c0,0.2,0.1,0.3,0.2,0.4c0,0,0,0,0,0c0.1,0.1,0.1,0.3,0.2,0.4c0.3,0.6,0.7,1,1.2,1.4c0.5,0.4,1,0.7,1.6,0.9
			c0,0,0,0,0,0c0.1,0,0.3,0.1,0.4,0.1c0.3,0.1,0.6,0.1,1,0.1c0.2,0,0.3,0,0.5,0c0.3,0,0.7-0.1,1-0.2c0.2,0,0.3-0.1,0.4-0.2
			c0.3-0.1,0.6-0.3,0.8-0.4c0.2-0.1,0.4-0.3,0.6-0.4c0.1,0,0.1-0.1,0.2-0.2c0.2-0.2,0.3-0.4,0.5-0.5c0-0.1,0.1-0.1,0.1-0.2
			c0,0,0,0,0,0c0.1-0.1,0.2-0.3,0.2-0.4c0.1-0.1,0.1-0.3,0.2-0.4c0.2-0.4,0.3-0.9,0.4-1.4c0-0.3,0-0.6,0-1c0-0.2,0-0.3-0.1-0.5
			c0-0.1-0.1-0.3-0.1-0.4c0,0,0,0,0-0.1c0-0.1-0.1-0.3-0.1-0.4c0-0.1-0.1-0.2-0.2-0.3c0,0,0,0,0-0.1c0,0,0-0.1-0.1-0.1
			c-0.1-0.1-0.1-0.2-0.2-0.3c-0.1-0.1-0.2-0.2-0.3-0.4c-0.2-0.3-0.5-0.6-0.8-0.8c-0.1-0.1-0.2-0.2-0.3-0.3c-0.1,0-0.1-0.1-0.2-0.1
			c0,0,0,0,0,0c-0.1-0.1-0.2-0.1-0.4-0.2c0,0,0,0,0,0c-0.2-0.1-0.4-0.2-0.6-0.2c0,0-0.1,0-0.1-0.1c-0.2,0-0.3-0.1-0.5-0.1
			c-0.1,0-0.3-0.1-0.4-0.1C848.7,274,848.5,274,848.3,274L848.3,274z"/>
	</g>
	<g id="layer3" transform="matrix(0.99997866,0.00653371,-0.00653371,0.99997866,-41.526099,-71.345411)">
		<g id="text6709" transform="matrix(0.9949867,-0.1000073,0.1000073,0.9949867,0,0)">
			<path id="path4173" class="st8" d="M88.9,380.9l48.6,0l33.7,79.3l33.9-79.3l48.5,0l0,148.1h-36.1l0-108.3l-34.1,79.9h-24.2
				l-34.1-79.9l0,108.3H88.9L88.9,380.9L88.9,380.9z"/>
			<path id="path4175" class="st8" d="M273.6,380.9l38.4,0l39.3,109.3l39.2-109.3h38.4L374,529h-45.5L273.6,380.9L273.6,380.9z"/>
		</g>
	</g>
</g>
</svg>
