<?xml version="1.0" encoding="utf-8"?>
<!-- Generator: Adobe Illustrator 28.2.0, SVG Export Plug-In . SVG Version: 6.00 Build 0)  -->
<svg version="1.1" id="Layer_1" xmlns="http://www.w3.org/2000/svg" xmlns:xlink="http://www.w3.org/1999/xlink" x="0px" y="0px"
	 viewBox="0 0 512 512" style="enable-background:new 0 0 512 512;" xml:space="preserve">
<style type="text/css">
	.st0{fill:#FFFFFF;}
</style>
<path class="st0" d="M423,0H89C39.8,0,0,39.8,0,89v334c0,49.2,39.8,89,89,89h334c49.2,0,89-39.8,89-89V89C512,39.8,472.2,0,423,0z
	 M75.1,364.8l-24.7-16.8l136.7-200.4l24.7,16.8L75.1,364.8z M437.4,364.3L320.8,193.9L204.5,364.6l-24.5-16.7l128.6-188.6
	c2.8-4.1,7.4-6.5,12.3-6.5c4.9,0,9.5,2.4,12.3,6.5l128.9,188.3L437.4,364.3z"/>
</svg>
