<?xml version="1.0" encoding="utf-8"?>
<!-- Generator: Adobe Illustrator 28.2.0, SVG Export Plug-In . SVG Version: 6.00 Build 0)  -->
<svg version="1.1" id="Layer_1" xmlns="http://www.w3.org/2000/svg" xmlns:xlink="http://www.w3.org/1999/xlink" x="0px" y="0px"
	 viewBox="0 0 512 512" style="enable-background:new 0 0 512 512;" xml:space="preserve">
<style type="text/css">
	.st0{fill:#67EA94;}
	.st1{fill-rule:evenodd;clip-rule:evenodd;fill:#2C2D3C;}
</style>
<path class="st0" d="M423,512H89c-49.2,0-89-39.8-89-89V89C0,39.8,39.8,0,89,0h334c49.2,0,89,39.8,89,89v334
	C512,472.2,472.2,512,423,512z"/>
<g>
	<g id="_x31_xBsk2n9FZp60Rz1O-ceJ" transform="matrix(1.79 0 0 1.79 313.74 258.36)">
		<path vector-effect="non-scaling-stroke" class="st1" d="M3.9-36l-65,95.3L-74.8,50L-2.9-55.4c1.5-2.3,4.1-3.6,6.8-3.6
			c2.7,0,5.3,1.3,6.9,3.6l72,105.2l-13.7,9.4L3.9-36z"/>
	</g>
	<g id="KxN7E9YpbyPgz0S4z4Cl6" transform="matrix(1.81 0 0 1.81 145 256.15)">
		<path vector-effect="non-scaling-stroke" class="st1" d="M-38.6,60L36.9-50.7L23.3-60L-52.2,50.7L-38.6,60z"/>
	</g>
</g>
</svg>
