<?xml version="1.0" encoding="utf-8"?>
<!-- Generator: Adobe Illustrator 27.7.0, SVG Export Plug-In . SVG Version: 6.00 Build 0)  -->
<svg version="1.1" id="Layer_1" xmlns="http://www.w3.org/2000/svg" xmlns:xlink="http://www.w3.org/1999/xlink" x="0px" y="0px"
	 viewBox="0 0 512 512" style="enable-background:new 0 0 512 512;" xml:space="preserve">
<style type="text/css">
	.st0{fill-rule:evenodd;clip-rule:evenodd;fill:url(#b_00000130649411552679465810000017768101404117427357_);}
	.st1{opacity:0.47;}
	.st2{fill-rule:evenodd;clip-rule:evenodd;fill:url(#d_00000027584128459999650600000017434432872221233066_);}
</style>
<g>
	<g>
		
			<radialGradient id="b_00000109725667928012718240000002135846763957455496_" cx="-72.4826" cy="638.3134" r="19.3134" gradientTransform="matrix(0 -24.0001 -24 0 15617.6318 -1275.3624)" gradientUnits="userSpaceOnUse">
			<stop  offset="0" style="stop-color:#376DF9"/>
			<stop  offset="0.4621" style="stop-color:#D262B4"/>
			<stop  offset="0.7706" style="stop-color:#FF8D74"/>
			<stop  offset="1" style="stop-color:#FFD4CA"/>
		</radialGradient>
		<path id="b" style="fill-rule:evenodd;clip-rule:evenodd;fill:url(#b_00000109725667928012718240000002135846763957455496_);" d="
			M320,464c128-110.6,192-201.3,192-272C512,86,426,0,320,0S128,86,128,192C128,262.7,192,353.4,320,464z"/>
	</g>
	<g transform="matrix(1 0 0 -1 0 35)" class="st1">
		
			<radialGradient id="d_00000167397610161078161970000006472165133095358848_" cx="-74.3576" cy="661.6866" r="19.3134" gradientTransform="matrix(0 -24.0001 24 0 -15710.3682 -1272.3624)" gradientUnits="userSpaceOnUse">
			<stop  offset="0" style="stop-color:#376DF9"/>
			<stop  offset="0.4621" style="stop-color:#D262B4"/>
			<stop  offset="0.7706" style="stop-color:#FF8D74"/>
			<stop  offset="1" style="stop-color:#FFD4CA"/>
		</radialGradient>
		<path id="d" style="fill-rule:evenodd;clip-rule:evenodd;fill:url(#d_00000167397610161078161970000006472165133095358848_);" d="
			M192,48c128,110.6,192,201.3,192,272c0,106-86,192-192,192S0,426,0,320C0,249.3,64,158.6,192,48z"/>
	</g>
</g>
</svg>
