<?xml version="1.0" encoding="utf-8"?>
<!-- Generator: Adobe Illustrator 28.2.0, SVG Export Plug-In . SVG Version: 6.00 Build 0)  -->
<svg version="1.1" id="Layer_1" xmlns="http://www.w3.org/2000/svg" xmlns:xlink="http://www.w3.org/1999/xlink" x="0px" y="0px"
	 viewBox="0 0 512 512" style="enable-background:new 0 0 512 512;" xml:space="preserve">
<style type="text/css">
	.st0{fill:#F15A29;}
	.st1{fill:#F7941E;}
	.st2{fill:#FFFFFF;}
</style>
<g id="logo">
	<circle class="st0" cx="256" cy="256" r="34.6"/>
	<path class="st1" d="M256,309.2c-29.3,0-53.2-23.9-53.2-53.2c0-29.3,23.9-53.2,53.2-53.2c29.3,0,53.2,23.9,53.2,53.2
		C309.2,285.3,285.3,309.2,256,309.2z M256,212.7c-23.9,0-43.3,19.4-43.3,43.3s19.4,43.3,43.3,43.3s43.3-19.4,43.3-43.3
		S279.9,212.7,256,212.7z"/>
	<path class="st2" d="M256,342.6c-47.8,0-86.6-38.8-86.6-86.6s38.8-86.6,86.6-86.6s86.6,38.8,86.6,86.6S303.8,342.6,256,342.6z
		 M256,194.1c-34.1,0-61.9,27.7-61.9,61.9s27.7,61.9,61.9,61.9s61.9-27.7,61.9-61.9S290.1,194.1,256,194.1z"/>
	<path class="st2" d="M258.1,432.3c-58.4,0-115.2-29.6-147.7-82.2H14.3l-2.7-8.7c-26.4-86.1-7.1-178.1,51.8-246.2
		c45.4-52.5,108.5-84.2,177.7-89.2c69.2-5,136.2,17.2,188.7,62.6l-16.2,18.7C366.2,46.1,305.5,26,242.9,30.6
		c-62.6,4.5-119.7,33.2-160.8,80.7c-32.9,38-52.1,84.2-56.4,132.4h156.1v24.7h-157c0.3,19,2.9,38.1,8,56.9h92l3.5,6.3
		c40,71.4,130.6,97,202.1,57c20.6-11.6,38.4-28.1,51.5-47.9l20.7,13.6c-15.2,23.1-35.9,42.4-60,55.9
		C315.7,425.2,286.7,432.3,258.1,432.3z"/>
	<circle class="st1" cx="399.5" cy="327.8" r="14.8"/>
	<path class="st2" d="M399.5,356.5c-15.8,0-28.7-12.9-28.7-28.7c0-15.8,12.9-28.7,28.7-28.7c15.8,0,28.7,12.9,28.7,28.7
		C428.2,343.6,415.3,356.5,399.5,356.5z M399.5,307c-11.5,0-20.8,9.3-20.8,20.8c0,11.5,9.3,20.8,20.8,20.8
		c11.5,0,20.8-9.3,20.8-20.8C420.3,316.3,411,307,399.5,307z"/>
	<circle class="st1" cx="436.6" cy="95.2" r="14.8"/>
	<path class="st2" d="M436.6,123.9c-15.8,0-28.7-12.9-28.7-28.7s12.9-28.7,28.7-28.7s28.7,12.9,28.7,28.7S452.4,123.9,436.6,123.9z
		 M436.6,74.4c-11.5,0-20.8,9.3-20.8,20.8s9.3,20.8,20.8,20.8c11.5,0,20.8-9.3,20.8-20.8S448.1,74.4,436.6,74.4z"/>
	<path class="st2" d="M251.7,506.8c-62.3,0-121.9-22.1-169.5-63.3l16.2-18.7c47.5,41.1,108.1,61.2,170.8,56.6
		c62.6-4.5,119.7-33.2,160.8-80.7c32.9-38,52.1-84.2,56.4-132.4H330.2v-24.7h157c-0.3-19-2.9-38.1-8-56.9h-92l-3.5-6.3
		c-40-71.4-130.6-97-202.1-57c-20.6,11.6-38.4,28.1-51.5,47.9l-20.7-13.6c15.2-23.1,35.9-42.4,60-55.9
		c81.2-45.5,183.6-18.3,232,60.2h96.1l2.7,8.7c26.4,86.1,7.1,178.1-51.8,246.2c-45.4,52.5-108.5,84.2-177.7,89.2
		C264.4,506.6,258,506.8,251.7,506.8z"/>
	<circle class="st1" cx="112.5" cy="184.2" r="14.8"/>
	<path class="st2" d="M112.5,212.9c-15.8,0-28.7-12.9-28.7-28.7s12.9-28.7,28.7-28.7s28.7,12.9,28.7,28.7S128.3,212.9,112.5,212.9z
		 M112.5,163.5c-11.5,0-20.8,9.3-20.8,20.8S101,205,112.5,205s20.8-9.3,20.8-20.8S124,163.5,112.5,163.5z"/>
	<circle class="st1" cx="75.4" cy="416.8" r="14.8"/>
	<path class="st2" d="M75.4,445.5c-15.8,0-28.7-12.9-28.7-28.7s12.9-28.7,28.7-28.7s28.7,12.9,28.7,28.7S91.2,445.5,75.4,445.5z
		 M75.4,396c-11.5,0-20.8,9.3-20.8,20.8s9.3,20.8,20.8,20.8s20.8-9.3,20.8-20.8S86.8,396,75.4,396z"/>
</g>
</svg>
