<?xml version="1.0" encoding="utf-8"?>
<!-- Generator: Adobe Illustrator 27.7.0, SVG Export Plug-In . SVG Version: 6.00 Build 0)  -->
<svg version="1.1" id="Layer_2_00000036212745981423329460000001712660351366127507_"
	 xmlns="http://www.w3.org/2000/svg" xmlns:xlink="http://www.w3.org/1999/xlink" x="0px" y="0px" viewBox="0 0 512 512"
	 style="enable-background:new 0 0 512 512;" xml:space="preserve">
<style type="text/css">
	.st0{fill:#FFFFFF;}
	.st1{fill:#00F2D4;}
</style>
<g>
	<path class="st0" d="M471.8,319.8c-17.3,0-32,10.9-37.7,26.2H189.7c-4.1-11-12.8-19.6-23.7-23.7V77.9c15.3-5.7,26.2-20.4,26.2-37.7
		C192.2,18,174.2,0,152,0s-40.2,18-40.2,40.2c0,17.3,10.9,32,26.2,37.7v244.4c-15.3,5.7-26.2,20.4-26.2,37.7c0,6,1.3,11.7,3.7,16.8
		L57,435.3c-5.1-2.4-10.8-3.7-16.8-3.7C18,431.6,0,449.6,0,471.8S18,512,40.2,512s40.2-18,40.2-40.2c0-6-1.3-11.7-3.7-16.8
		l58.5-58.5c5.1,2.4,10.8,3.7,16.8,3.7c17.3,0,32-10.9,37.7-26.2h244.4c5.7,15.3,20.4,26.2,37.7,26.2c22.2,0,40.2-18,40.2-40.2
		S494,319.8,471.8,319.8L471.8,319.8z"/>
	<path class="st1" d="M512,40.2c0,22.2-18,40.2-40.2,40.2c-6,0-11.7-1.3-16.8-3.7l-58.5,58.5c2.4,5.1,3.7,10.8,3.7,16.8
		c0,17.3-10.9,32-26.2,37.7v244.4c15.3,5.7,26.2,20.4,26.2,37.7c0,22.2-18,40.2-40.2,40.2s-40.2-18-40.2-40.2
		c0-17.3,10.9-32,26.2-37.7V189.7c-11-4.1-19.6-12.8-23.7-23.7H77.9c-5.7,15.3-20.4,26.2-37.7,26.2C18,192.2,0,174.2,0,152
		s18-40.2,40.2-40.2c17.3,0,32,10.9,37.7,26.2h244.4c5.7-15.3,20.4-26.2,37.7-26.2c6,0,11.7,1.3,16.8,3.7L435.3,57
		c-2.4-5.1-3.7-10.8-3.7-16.8c0-22.2,18-40.2,40.2-40.2S512,18,512,40.2L512,40.2z"/>
</g>
</svg>
