<?xml version="1.0" encoding="utf-8"?>
<!-- Generator: Adobe Illustrator 27.7.0, SVG Export Plug-In . SVG Version: 6.00 Build 0)  -->
<svg version="1.1" id="svg" xmlns="http://www.w3.org/2000/svg" xmlns:xlink="http://www.w3.org/1999/xlink" x="0px" y="0px"
	 viewBox="0 0 512 512" style="enable-background:new 0 0 512 512;" xml:space="preserve">
<style type="text/css">
	.st0{fill-rule:evenodd;clip-rule:evenodd;fill:#090909;}
</style>
<g id="svgg">
	<path id="path0" class="st0" d="M43.9,86.2c-4.1,1.5-10.3,7.6-11.7,11.5c-0.9,2.5-1.1,23.1-1.3,150.4l-0.2,147.5l-15.2,0.2L0.4,396
		l-0.2,5.5L0,407l12.8,10l12.8,10H256h230.4l12.8-10l12.8-10l-0.2-5.6l-0.2-5.6l-15.2-0.2l-15.2-0.2l-0.2-147.9
		c-0.2-165.8,0.4-150-5.7-156.6c-6.4-7,17.9-6.3-219.6-6.2C62.5,85,47,85.1,43.9,86.2 M464.2,101.8l1.7,1.6v146.1v146.1h-81.6h-81.6
		l-0.8,2c-1.4,3.7-4.5,6.9-8.3,8.7l-3.7,1.7l-33.8,0c-36.5,0-36.2,0-41.4-3.9c-1.2-0.9-3-3.2-3.9-5.1l-1.7-3.4h-81.5H46.1V249.9
		V104.1l1.5-1.9l1.5-1.9h206.7h206.7L464.2,101.8 M268.2,138.1c-0.6,1.5-2.1,5-3.1,7.9c-2.6,6.9-4.8,12.6-11,28.5
		c-0.9,2.4-2.9,7.5-4.4,11.3c-1.5,3.8-3.5,9.1-4.5,11.7c-2.7,7.1-5.3,13.7-7.3,19c-1,2.6-2.5,6.3-3.2,8.2c-2,4.9-2,5,3.3,5
		c5.3,0,5.3,0,7.7-6.8c0.7-2.1,2.4-6.4,3.6-9.6c1.3-3.2,2.9-7.5,3.7-9.5c0.8-2,2.4-6.3,3.7-9.5c1.3-3.2,2.9-7.5,3.7-9.5
		c0.8-2,2.4-6.3,3.7-9.5c1.3-3.2,2.9-7.5,3.7-9.5c0.8-2,2.4-6.3,3.7-9.5c1.3-3.2,2.9-7.5,3.7-9.5c0.7-2,2-5.4,2.9-7.5l1.5-3.8h-5h-5
		L268.2,138.1 M220,157.9c-3,1.5-13.8,7.1-24,12.4c-10.3,5.3-21.4,11-24.7,12.7l-6,3.1v3.8v3.8l6.8,3.5c3.7,1.9,11.4,5.9,17,8.8
		c22,11.4,36.2,18.6,36.6,18.6c0.2,0,0.4-2.3,0.4-5v-5l-23.9-12c-13.1-6.6-23.9-12.3-23.8-12.7c0-0.4,10.8-6.1,23.9-12.7l23.8-12v-5
		c0-2.8-0.1-5-0.3-5C225.5,155.1,223,156.3,220,157.9 M286,160.1v5l24.5,12.2c13.5,6.7,24.4,12.4,24.2,12.7
		c-0.2,0.3-11.2,6-24.5,12.6L286,214.7v4.9c0,2.7,0.2,4.9,0.4,4.9c0.4,0,17.4-8.7,50-25.5l9.9-5.1v-4.2v-4.2l-14.3-7.3
		c-7.8-4-21.3-10.9-29.8-15.3c-8.6-4.4-15.7-8-15.9-8S286,157.3,286,160.1 M174.1,262.9v4.8h26.3h26.3v-4.8v-4.8h-26.3h-26.3V262.9
		 M250.9,262.9v4.8h9.5h9.5v-4.8v-4.8h-9.5h-9.5V262.9 M294,262.9v4.8h9.1h9.1v-4.8v-4.8h-9.1H294V262.9 M174.4,276
		c-0.2,0.6-0.3,2.8-0.2,5l0.2,3.9l17.8,0.2l17.8,0.2l-0.2-4.9l-0.2-4.9l-17.4-0.2C177.9,275,174.7,275.2,174.4,276 M225.8,275.5
		c-0.3,0.3-0.5,2.6-0.5,5.1v4.6l17.7-0.2l17.7-0.2v-4.8v-4.8l-17.2-0.2C234,275.1,226.1,275.2,225.8,275.5 M268.4,280.1v5.1H286
		h17.6v-5.1V275H286h-17.6V280.1 M319.6,280.1v5.1h17.6h17.6v-5.1V275h-17.6h-17.6V280.1 M184.3,298.8v4.8h16.5h16.5v-4.8V294h-16.5
		h-16.5V298.8 M174.1,314.1v4.8H192h17.9v-4.8v-4.8H192h-17.9V314.1 M234.1,314.1v4.8h13.5h13.5v-4.8v-4.8h-13.5h-13.5V314.1
		 M174.4,327.2c-0.2,0.6-0.3,2.8-0.2,4.9l0.2,3.9h43.1h43.1v-4.8v-4.8l-43-0.2C181.8,326.2,174.7,326.4,174.4,327.2 M285.2,331.3
		v5.1h17.6h17.6v-5.1v-5.1h-17.6h-17.6V331.3 M166.1,348.1v5.1l51.7-0.2l51.7-0.2l0.2-3.2c0.1-1.8,0-4-0.2-4.9l-0.4-1.7h-51.5h-51.5
		V348.1 M302.2,347.9l0.2,4.9H320h17.6v-4.8v-4.8l-17.8-0.2L302,343L302.2,347.9"/>
</g>
</svg>
