<?xml version="1.0" encoding="utf-8"?>
<!-- Generator: Adobe Illustrator 27.7.0, SVG Export Plug-In . SVG Version: 6.00 Build 0)  -->
<svg version="1.1" id="Layer_1" xmlns="http://www.w3.org/2000/svg" xmlns:xlink="http://www.w3.org/1999/xlink" x="0px" y="0px"
	 viewBox="0 0 512 512" style="enable-background:new 0 0 512 512;" xml:space="preserve">
<style type="text/css">
	.st0{fill:#FFFFFF;}
</style>
<g>
	<path class="st0" d="M0,389.8c0-10.2,0-19.3,0-28.5c0-72.5,0-145.1,0-217.6c0-11,2.1-13.2,12.9-13.2c14.1,0,28.2,0,42.3,0
		c9.9,0,12.7,2.5,14.3,12c1.4,8.2,9,11.3,15.1,5.6c13.4-12.6,29-21.1,47.2-24.1c25.4-4.2,50-2.8,70.5,15c12.6,10.9,20,25.9,20.3,42
		c1.4,68.9,1.4,137.8,1.9,206.7c0,0.4-0.2,0.9-0.6,2.1c-11.9,0-24,0-36.2,0c-10.3,0-20.7-0.3-31,0.1c-6.8,0.2-9.1-3.4-9.6-9.2
		c-0.2-1.9,0-3.8,0-5.6c0-51.4,0.1-102.8-0.1-154.3c0-7.8-1.1-15.7-2.9-23.3c-3.4-14.8-13.3-20.7-28.3-17.6
		c-16.1,3.3-26.4,14.8-36.4,26.5c-1.9,2.3-1.8,6.7-1.8,10.1c-0.1,53.3-0.1,106.6-0.1,159.9c0,11.1-2.3,13.4-13.5,13.4
		C42.9,389.8,21.8,389.8,0,389.8z"/>
	<path class="st0" d="M437.4,389.5c-54.3,0-108,0-162.4,0c0-14.9-0.4-29.9,0.4-44.7c0.1-2.5,5.3-5.9,8.6-6.8
		c4.6-1.2,9.8-0.2,14.7-0.3c6.8-0.1,10-3,10.1-9.6c0.1-45.3,0-90.6,0-135.9c0-6.3-3.4-9.3-9.4-9.5c-4.9-0.1-9.9,0.1-14.8-0.1
		c-5.9-0.2-9.7-2.8-9.8-9.2c-0.1-11.3,0-22.5,0-33.8c0-6.3,3.9-8.9,9.2-9c25.1-0.2,50.3-0.3,75.4,0.1c4.7,0.1,9.5,1.4,10.4,8.5
		c1.1,8.7,3.8,17.3,6.7,25.7c1,3,4.2,7,6.8,7.4c2.6,0.3,6.7-2.7,8.5-5.3c10-14.6,21.1-27.7,37.7-35.4c18.3-8.5,37.2-9.8,56.7-6.7
		c5.9,0.9,11.7,1.8,17.6,2.9c5.3,1.1,8.8,3.9,8,10.1c-1.6,12.3-2.9,24.7-4.6,37c-1.7,12.5-3.5,25-5.3,37.5
		c-0.9,6.6-1.9,13.1-2.7,19.7c-0.6,5.1-3.8,7.2-8.5,7.2c-10.8,0.1-21.6,0.2-32.4,0c-5.9-0.1-8.7-3.4-8.6-9.4c0.1-8,0.1-16,0-23.9
		c-0.1-9.4-6.2-13.2-14.9-9.1c-15.7,7.3-26.3,19.9-34.5,34.6c-4.6,8.4-8.6,17.1-12.4,25.9c-1.2,2.6-1.5,5.8-1.5,8.7
		c-0.1,20.4-0.1,40.9-0.1,61.3c0,8.2,2.5,10.7,10.9,10.7c9.9,0.1,19.7-0.1,29.6,0c7.7,0.1,10.4,2.9,10.5,10.6
		C437.5,362.1,437.4,375.7,437.4,389.5z"/>
</g>
</svg>
