<?xml version="1.0" encoding="utf-8"?>
<!-- Generator: Adobe Illustrator 27.7.0, SVG Export Plug-In . SVG Version: 6.00 Build 0)  -->
<svg version="1.1" id="Layer_1" xmlns="http://www.w3.org/2000/svg" xmlns:xlink="http://www.w3.org/1999/xlink" x="0px" y="0px"
	 viewBox="0 0 512 512" style="enable-background:new 0 0 512 512;" xml:space="preserve">
<style type="text/css">
	.st0{fill:#FFFFFF;}
</style>
<g>
	<g>
		<path class="st0" d="M51.2,12.8h409.6c28.3,0,51.2,22.9,51.2,51.2v384c0,28.3-22.9,51.2-51.2,51.2H51.2C22.9,499.2,0,476.3,0,448
			V64C0,35.7,22.9,12.8,51.2,12.8 M51.2,115.2V192h102.4v-76.8H51.2 M204.8,115.2V192h102.4v-76.8H204.8 M460.8,192v-76.8H358.4V192
			H460.8 M51.2,243.2V320h102.4v-76.8H51.2 M51.2,448h102.4v-76.8H51.2V448 M204.8,243.2V320h102.4v-76.8H204.8 M204.8,448h102.4
			v-76.8H204.8V448 M460.8,448v-76.8H358.4V448H460.8 M460.8,243.2H358.4V320h102.4V243.2z"/>
	</g>
</g>
</svg>
