<?xml version="1.0" encoding="utf-8"?>
<!-- Generator: Adobe Illustrator 28.2.0, SVG Export Plug-In . SVG Version: 6.00 Build 0)  -->
<svg version="1.1" id="Layer_1" xmlns="http://www.w3.org/2000/svg" xmlns:xlink="http://www.w3.org/1999/xlink" x="0px" y="0px"
	 viewBox="0 0 512 512" style="enable-background:new 0 0 512 512;" xml:space="preserve">
<style type="text/css">
	.st0{fill:#21253D;}
	.st1{fill:#FEFEFE;}
</style>
<g>
	<path class="st0" d="M246.2,0.5c0.9,0,1.8-0.1,2.6-0.1c52.5-1.3,104,13.6,147.7,42.8C408,50.8,419,59.1,429,68.6
		c7.8,7.4,15.4,15,22.3,23.2c36.7,43.7,59.3,99.8,60.7,157c1.7,68.8-24.2,135.5-72.1,185c-37,38.4-85.2,64.1-137.8,73.5
		c-11.8,2.2-24,3.8-35.9,4c-50.4,2.2-100.3-10.9-143.2-37.5c-11.7-7.1-23.1-15.2-33.3-24.2c-53.1-47-85.1-109.2-89.3-180.4
		c-3-57.7,13.9-114.6,47.9-161.3c4.4-6,8.9-12,13.9-17.5c10.5-11.8,21.5-22.8,33.7-32.8c32-25.9,69.7-43.7,110-52.1
		C219.2,2.7,232.5,1.3,246.2,0.5z"/>
	<path class="st1" d="M307.9,435.5c1.4,1.1,2.2,7.4,2.9,9.3c0.4,1.2,1.2,2.4,1.9,3.4c1.2,1.7,1.9,2.4,4,2.7l-0.1,0.3
		c-0.7,0.3-1.5,0.5-2.1,0.9c-3.7,2.5-4.8,7.4-5.8,11.4c-0.9-0.6-1.6-4.4-2.1-5.7c-1.4-3.4-3.5-5.4-6.7-6.8c0.7-0.3,1.4-0.5,2-0.9
		c5.2-3,4.7-9.3,6-14.4L307.9,435.5z"/>
	<path class="st1" d="M478,205.2c0.9,0.1,1.2,0.3,1.9,0.8c0.1,0.4,0.4,0.7,0.3,1c-0.3,1.3-27.1,28.8-30.1,31.2c-0.7,0-1,0-1.6-0.3
		c-0.2-0.4-0.5-0.5-0.4-1c0-0.8,0.4-1.4,0.8-2.1c2.8-3.7,6.9-7.2,10.2-10.5C465.4,217.9,471.5,211.3,478,205.2z"/>
	<path class="st1" d="M460.9,360.5c0.3,0.1,0.5,0.2,0.8,0.4c0.6,0.5,0.7,1,0.7,1.7c-0.8,2.2-44.5,46.7-50.2,52.6
		c-2.8,2.9-5.6,5.8-8.3,8.7c-2.1,2.3-4.3,5.3-6.8,7.1c-0.4-0.2-1-0.6-1.2-0.9c-0.2-0.3-0.4-0.7-0.3-1.1c0.1-0.8,0.6-1.5,1.2-2.1
		c14.4-15.3,29.4-30.2,43.9-45.4c3.9-4.2,7.8-8.3,11.7-12.5C455,366,457.8,362.7,460.9,360.5z"/>
	<path class="st1" d="M317.8,393c0.2,0.2,0.1,0.1,0.1,0.5c-3.9,4.4-8.2,8.6-12.3,12.8l-24.9,25.3c-8.1,8.4-16.3,16.6-24.5,24.8
		c-3.5,3.5-7,7.2-10.7,10.4c-0.7,0.6-1.2,1-2.1,1.2c-0.2-0.3-0.6-0.7-0.8-1c-0.2-0.6-0.2-1,0.1-1.6c0.7-1.7,7.9-8.3,9.5-9.9l37-37.3
		l13.5-13.8c2.7-2.8,5.3-5.7,8.2-8.3C312.9,394.4,315.5,393.9,317.8,393z"/>
	<path class="st1" d="M414.3,327.9c0.1,0,0.2,0,0.4,0c0.6,0,0.7,0.2,1,0.7c-0.5,0.7-1.2,1-2.1,1.3c-9.3,3.6-18.9,6.6-28.2,10
		l-92.8,33.3c-24.9,8.8-50,17.3-74.5,26.9c-0.5,0.1-0.7,0.1-1.1,0l0-0.5c0.5-0.8,1.2-1.4,2-1.8c8.3-3.8,17.3-6.7,25.9-9.7l43.3-15.2
		c9.5-3.3,18.9-6.8,28.4-10.2l55.4-19.6l26-9.4C403.3,331.7,408.9,330,414.3,327.9z"/>
	<path class="st1" d="M436.6,349.9l0.1,0.3c-3.9,4.5-8.3,8.7-12.4,13l-25.9,27.7c-8.9,9.5-23.7,25.6-34.3,32.2
		c-2.9,1.8-6.4,3.5-10,3.6c-2.7,0.1-5.3-1-7.2-2.9c-2.3-2.4-3.3-5.6-3.3-8.8c0.1-11.7,12.7-30.8,21.1-39c2-1,4.1-1.7,6.2-2.5
		c-7.2,9-15.1,18.1-20.1,28.5c-2.4,5-5.3,12.1-3.1,17.7c0.6,1.5,1.6,2.7,3,3.3c3.6,1.6,8.1-0.5,11.3-2.4c7.8-4.8,15-12.7,21.5-19.2
		c11.3-11.3,22.1-23,33.2-34.6c4-4.2,9.6-10.9,14.1-14.2C432.5,351.3,434.7,350.7,436.6,349.9z"/>
	<path class="st1" d="M145.9,391.2c2.1,2,12.8,22.9,14.6,27c0,0.1,0,0.1,0,0.2c-1,6.5-4,14.7-6.6,20.8l-1-1.6
		c-6.4-10.1-11.7-21.3-17.1-32.1C138.4,400.4,142.4,395.8,145.9,391.2z"/>
	<path class="st0" d="M142.5,402.8c0.4,0,0.7,0,1.1,0c1.7,0.2,3.1,1.8,4.1,3c2.5,3.1,10.6,16.4,10.1,19.9c-0.2,1.6-1.3,2.5-2.6,3.4
		c-0.7,0-1.4,0.1-2.1-0.1c-2.4-0.4-3.9-2.7-5.2-4.6c-2.3-3.5-9.1-14.6-8.1-18.5C140.2,404.4,141.2,403.6,142.5,402.8z"/>
	<path class="st1" d="M64.9,217.5c2.3,1.9,19.9,37.6,22.6,42.9l57.8,114.4c6.4,12.6,12.1,25.5,18.8,37.9c-0.3,0.7-0.5,1.5-0.7,2.3
		c-0.2-0.1-15.7-29.1-17-31.6c-13.5-26.2-26.2-52.9-39.7-79.2L74.6,241c-3.1-6.2-6.6-12.2-9.5-18.5
		C64.2,220.6,64.2,219.5,64.9,217.5z"/>
	<path class="st1" d="M458.9,318.7l0.3,0.2c-3.3,7.8-7.1,15.4-11,22.9c-12.6,4.9-25.5,8.9-38.1,14l-0.4-0.1
		c-0.1-0.6,9.8-20.9,11-23.6c5.5-1.4,10.9-3.7,16.3-5.6C444.4,324,451.8,321.8,458.9,318.7z"/>
	<path class="st1" d="M209.2,407.4l0.1,0.2c-2.3,7.8-6,15.1-8.2,22.9c-6.3,2.4-35.3,13.8-40,13.7c-1.2,0-2.9-0.2-3.7-1.2
		c-0.3-0.4-0.1-0.7-0.1-1.2c3.4-9,6.4-18,9.5-27.1c1.2,1.2,2.3,2.2,3.9,2.9c2.4,1,5.2,1.2,7.7,0.8c4.6-0.7,9.3-3,13.6-4.6
		C197.8,411.7,203.5,409.6,209.2,407.4z"/>
	<path class="st1" d="M61.8,225.4c1.6,1.7,3,5.4,4.1,7.6c4.2,7.9,8.3,15.9,12.4,23.9l65.9,130.4c-3.5,3.3-6.3,8.1-9.1,12l-1.5,2.4
		c-5.7-9.8-10.7-20.1-15.9-30.1l-32.2-63l-21.1-41.5c-2.8-5.5-6.5-11.1-8.7-16.9C52.9,242.3,58.5,232.6,61.8,225.4z"/>
	<path class="st1" d="M414.4,334.1l0.2,0c0.2,0.6-10.2,21.1-11.4,23.9c-8.2,3.2-16.6,6-24.9,9l-45.4,16.6l-127,46.3l-0.3,0
		c0-0.5-0.1-0.4,0.1-0.8c3-7.7,5.7-15.8,9.1-23.3c9-3.7,18.3-6.9,27.4-10.1c15.3-5.6,30.7-11,46.2-16.4L414.4,334.1z"/>
	<path class="st1" d="M369.8,288.5c1.9,0.5,37.6,32.3,41.2,36c-3.8,1.5-7.8,2.5-11.6,3.9l-49.5,17.7c-34.3,12.4-68.6,24.6-103,36.5
		c-9.8,3.4-19.7,7-29.2,11.2c-0.1-9.2-0.4-18.3-1-27.4c-0.4-7-1.2-14.5-0.5-21.5c7.7-3.5,15.7-6.4,23.7-9.3c13.5-5,27-9.8,40.6-14.5
		C310.3,310.6,340.1,299.7,369.8,288.5z"/>
	<path class="st0" d="M296.2,319.5c0.9,0,1.8,0,2.7,0.2c1.4,0.4,2.8,1.5,3.5,2.8c0.6,1.2,0.8,2.6,0.4,3.9c-0.6,1.7-1.8,2.5-3.4,3.3
		c-0.9,0-1.9,0.1-2.8-0.2c-1.4-0.4-2.8-1.6-3.5-2.9c-0.6-1.2-0.8-2.4-0.4-3.7C293.2,321.2,294.6,320.3,296.2,319.5z"/>
	<path class="st0" d="M346.5,325.7c1.3,0,2.7,0.2,3.9,0.7c2,0.9,3.7,2.6,4.4,4.6c0.5,1.4,0.6,3.1-0.1,4.5c-0.9,1.8-2.4,2.7-4.2,3.3
		c-1.7,0.1-3.2-0.1-4.7-0.8c-1.8-0.8-3.3-2.3-3.9-4.2c-0.5-1.5-0.4-3.4,0.4-4.8C343.2,327.4,344.7,326.3,346.5,325.7z"/>
	<path class="st1" d="M346.8,330.2c0.8,0.1,1.9,0.1,2.6,0.6c0.9,0.5,1.1,0.9,1.4,2c-0.2,0.8-0.4,1.3-1,2c-0.8-0.2-1.6-0.4-2.4-0.7
		c-0.9-0.4-1.2-0.9-1.5-1.7C346,331.3,346.3,330.9,346.8,330.2z"/>
	<path class="st0" d="M263.2,351.6c1.4-0.2,2.8-0.2,4.1,0.2c2.2,0.7,4.2,2.3,5.2,4.5c0.6,1.4,0.8,3,0.2,4.4
		c-0.8,1.9-2.3,2.9-4.1,3.6c-1.1,0.2-2.2,0.3-3.3,0.1c-2.3-0.6-4.4-2.1-5.5-4.3c-0.8-1.5-1.1-3.2-0.5-4.8
		C259.9,353.5,261.4,352.4,263.2,351.6z"/>
	<path class="st1" d="M264.6,355.8c0.9,0,1.8,0,2.6,0.3c0.9,0.4,1.2,0.9,1.6,1.8c0,1-0.2,1.3-0.8,2.1c-1.2,0-2.8,0.1-3.8-0.7
		c-0.7-0.5-0.7-0.7-0.9-1.5C263.6,356.9,264,356.5,264.6,355.8z"/>
	<path class="st0" d="M381.7,315.3c1.3-0.1,2.5-0.2,3.8,0.2c2.1,0.6,4.1,1.9,5.2,3.9c0.8,1.5,1.1,3.4,0.5,5
		c-0.8,2.3-2.4,3.3-4.5,4.3c-1.2,0.2-2.4,0.3-3.6,0c-2.3-0.6-4.4-2-5.5-4.1c-0.8-1.5-1-3.3-0.4-4.9
		C378,317.5,379.7,316.3,381.7,315.3z"/>
	<path class="st1" d="M383,319.5c1.2,0.1,2.2,0.3,3.2,1c0.7,0.6,0.8,1.1,0.9,2c-0.4,0.9-0.6,1.2-1.4,1.8c-1.5-0.1-2.8-0.4-3.8-1.6
		c-0.5-0.6-0.5-1-0.4-1.8C381.8,320.2,382.2,320,383,319.5z"/>
	<path class="st0" d="M234.7,367.9c2.1-0.2,3.8-0.1,5.7,1c1.9,1.1,3.5,2.9,4.1,5.1c0.4,1.6,0.3,3.4-0.6,4.9c-1.2,2-3.2,2.9-5.3,3.4
		c-1.4,0.1-2.7,0.1-4-0.4c-2.3-0.8-4.3-2.6-5.3-4.8c-0.7-1.6-0.8-3.3-0.1-4.9C230.2,369.7,232.4,368.7,234.7,367.9z"/>
	<path class="st1" d="M235.6,372.1c0.5,0.1,1.1,0.1,1.6,0.2c1.1,0.3,2.7,1.4,3.1,2.5c0.2,0.7,0.2,1.3-0.2,1.9
		c-0.4,0.7-1.6,1-2.3,1.2c-0.6,0-1.1,0.1-1.6-0.1c-1-0.3-2.1-1.1-2.5-2.1c-0.3-0.7-0.3-1.4,0-2.1C234,372.8,234.9,372.4,235.6,372.1
		z"/>
	<path class="st1" d="M357.3,110.7c2.3-0.2,4.9,0.4,6.9,1.4c2.3,1.2,3.5,2.9,4.8,5c4.6,7.8,8.6,16,12.6,24.1
		c3,6.1,6.2,12.1,9.2,18.1l39.2,76.7c7.6,14.6,15,29.3,22.4,44c3.3,6.6,7.9,14.6,10.2,21.6c1,3.1,1.1,6-0.5,9
		c-0.8,1.6-1.9,2.7-3.4,3.5c-4.7,2.7-10.8,4.2-16,5.9c-7.4,2.5-14.8,5.3-22.2,7.5c-3.6-4.1-7.9-7.6-12-11.2
		c-5.9-5.3-11.8-10.5-17.8-15.6c-5.5-4.7-11.4-9.3-16.5-14.5c4.7-1.7,9.4-3.3,14-5.1c5.4-2,10.7-4.2,16.1-6.1l12.3-4.4
		c2.9-1,6-1.9,8.8-3.3c1-0.5,1.7-1.1,2.4-1.9c2.2-2.8,2.5-6.6,2-10c-0.4-2.6-1.2-5.1-2.3-7.4c-2.6-5.5-5.7-10.8-8.5-16.2l-22.3-42.1
		l-18.4-35c-3-5.9-5.7-12.1-9.1-17.7c-1.1-1.9-2.4-3.5-4.2-4.8c-3.6-2.6-13.9-7.8-18.3-6.9c-3.1,0.6-6.4,2-9.4,3l-19.3,6.5
		l-54.3,18.1c-35.7,11.7-71.3,23.7-106.9,35.9l-35.6,11.9c-6.9,2.3-14,4.3-20.8,6.9c-2.6,1-4,2.1-5.6,4.5
		c-4.3,6.5-6.9,13.3-5.2,21.2c0.9,4.1,3.1,7.6,5,11.3l8.5,16.6l22.7,45c4.9,9.8,9.6,19.8,14.3,29.7c2.3,4.9,4.5,10,7.2,14.8
		c1.4,2.5,2.9,4.8,5.4,6.3c2.7,1.7,6.1,2.2,9.2,1.5c4.7-1.1,9.4-3.8,13.9-5.4c6.6-2.4,13.1-4.9,19.6-7.4c4.7-1.8,9.4-3.3,14-5.2
		c7.9-3.2,15.7-6.7,23.6-9.8c13.8-5.3,27.9-9.9,41.8-14.9l78.3-28.9l43-15.5c6.2-2.2,12.7-4,18.9-6.5c1-0.4,1.8-0.9,2.6-1.6
		c1-0.8,1.9-1.8,2.5-2.9c1.3-2.3,1.2-5.3,0.4-7.8c-1.8-5.6-5.4-11.1-8.2-16.2c-3.6-6.5-7-13.1-10.4-19.7
		c-9.8-19.2-19.8-38.4-30-57.4c-2.9-5.4-5.6-12.3-8.9-17.2c-1.9-2.9-4.8-5.1-7.9-6.6c-3.2-1.6-6.6-2.7-10.2-1.9
		c-6.1,1.3-12.1,4.1-18,6.1l-48,16.5L134.8,205c-5.5,1.9-11.1,3.8-16.6,5.7c-4.6,1.5-9.9,2.8-14,5.3c-2.2,1.3-4,3.2-5.3,5.5
		c-2.5,4.3-3.2,9.4-1.8,14.1c1.7,6.3,6.3,13.8,9.2,19.8l21.1,42.5c6,12,11.7,24.1,17.7,36c2.2,4.3,4.2,8.9,6.8,13.1
		c1.2,1.9,2.5,3.5,4.5,4.6c6.7,3.6,14.2-0.7,20.8-2.7l0.3-0.3l0.4,0.2c-0.1,0-0.1,0-0.2,0c-1.5,0.7-3,1-4.5,1.6
		c-3.3,1.5-6.5,3.1-10,4c-3.1,0.9-6.4,0.8-9.2-0.9c-1.3-0.8-2.2-1.9-2.9-3.2c-0.8-1.5-1.4-3.1-2.1-4.6c-2.6-5.4-5.4-10.7-8-16.1
		l-20.7-42.2l-17.6-34.8c-3-5.9-7.6-13.7-9.1-20.1c-1.7-7.5,2.5-14.4,6.3-20.5c6.6-2.6,13.9-4.4,20.7-6.5c9.8-3.1,19.6-6.4,29.3-9.7
		L297.7,146c10.7-3.5,21.3-7.1,31.9-10.8c5.5-1.9,11.1-4.2,16.7-5.8c1.2-0.4,2.2-0.5,3.4-0.3c4.3,1,13.4,4.8,15.7,8.5
		c3.6,6,6.6,12.6,9.8,18.9l20.8,40.3c6.7,13,13.4,26,20,39c2.9,5.6,6.5,11.3,8.9,17.2c0.9,2.2,1.4,4.6,0.7,7
		c-0.4,1.4-1.2,2.9-2.5,3.7c-4.4,2.5-10.1,3.8-14.9,5.5c-7.8,2.8-15.6,5.7-23.3,8.7c-11.3,4.2-22.4,8.7-33.6,12.9l-72,26.2
		c-14.7,5.1-29.3,10.4-43.9,15.8c-6.8,2.5-16.8,5.8-22.7,9.4l-0.3,0.2c-1.5,4.8-0.6,10.8-0.4,15.7c0.6,13.3,2.5,30.7-0.1,43.6
		c-6.9,2.5-13.8,5.2-20.7,7.9c-4.3,1.6-9,3.9-13.5,4.6c-2,0.3-3.7,0.2-5.5-0.6c-2.8-1.2-4.7-3.2-6.2-5.8c-4.1-7.1-7.6-14.6-11.2-22
		l-14.2-28.3l-37.3-73.7l-24.6-48.1l-7-13.2c-1.4-2.6-3-5.3-4-8c-0.4-1.1-0.4-2.1,0.1-3.1c1.9-3.3,5.3-5.4,8.7-6.9
		c8.2-3.6,17.1-6.2,25.6-9.2c21.3-7.4,42.8-14.2,64.1-21.5c37.4-12.8,74.9-25.3,112.5-37.4l52.2-17.1
		C339.9,116.3,348.5,113.2,357.3,110.7z"/>
	<path class="st0" d="M359.8,114.1c0.8-0.1,1.7-0.2,2.5-0.1c1.4,0.3,2.6,1.4,3.3,2.6c0.5,1,0.7,2.1,0.3,3.2
		c-0.5,1.4-1.5,2.1-2.7,2.7c-0.8,0.1-1.6,0.2-2.4,0.1c-1.3-0.2-2.5-1-3.2-2c-0.6-0.9-0.8-2-0.6-3.1
		C357.4,115.8,358.4,115,359.8,114.1z"/>
	<path class="st0" d="M452.1,301.2c0.7,0,1.3,0,2,0.1c1.4,0.3,2.8,1.3,3.5,2.6c0.6,1.1,0.7,2.3,0.2,3.5c-0.6,1.6-1.9,2.2-3.4,2.9
		c-0.9,0.1-1.9,0-2.7-0.3c-1.3-0.5-2.4-1.6-2.9-2.8c-0.5-1.1-0.5-2.4,0-3.5C449.5,302.3,450.7,301.7,452.1,301.2z"/>
	<path class="st0" d="M170.8,400.3c0.8,0,1.7,0,2.5,0.2c1.7,0.3,3.4,1.6,4.3,3c0.6,1,0.9,2,0.6,3.1c-0.4,1.5-1.5,2.4-2.8,3.2
		c-0.5,0-1,0-1.5-0.1c-1.8-0.2-3.8-1.8-4.9-3.2c-0.7-1-1.2-2.2-0.9-3.5C168.5,401.6,169.6,400.9,170.8,400.3z"/>
	<path class="st0" d="M77,210.9c0.9-0.1,1.9-0.1,2.8,0.1c1.2,0.3,2.4,1.3,3,2.4c0.8,1.4,0.9,3.2,0.3,4.7c-0.6,1.8-1.8,2.5-3.4,3.3
		c-0.6,0-1.2,0-1.8-0.2c-1.6-0.4-3.1-1.8-3.9-3.2c-0.7-1.3-0.9-2.8-0.4-4.2C74.2,212.2,75.4,211.6,77,210.9z"/>
	<path class="st1" d="M345.7,137.3c2.3-0.1,4.3,0.2,6.4,1c2.6,1,5.8,2.7,7.4,5.1c2,2.8,4.5,8.3,6.1,11.5c4.7,8.8,9.2,17.6,13.8,26.4
		l19,36.6c5.8,11,12.1,22,17.2,33.3c1,2.1,1.4,4.5,0.5,6.7c-0.5,1.3-1.6,2.3-2.8,2.9c-5.6,2.6-11.9,4.2-17.8,6.3l-36.9,13.3
		c-33.7,12.5-67.5,24.8-101.4,36.9c-10.4,3.6-20.8,6.8-31.2,10.3c-19,6.4-37.9,13.2-56.7,20.4c-1,0.4-2,0.7-3,1
		c-2.6,0.8-5.5,0.6-7.9-0.8c-1.9-1.1-3.2-2.7-4.2-4.5c-4.3-7.4-7.8-15.5-11.6-23.1l-20.9-42l-13.4-27.2c-2.5-5.2-6-10.9-7.4-16.5
		c-0.9-3.8-0.6-8.8,1.5-12.1c1.4-2.1,3.3-3.7,5.6-4.6c8.3-3.3,17.1-5.8,25.6-8.7l38.8-13.1l98.6-33.4l54.9-18.9
		c4-1.4,7.9-2.8,11.8-4.2C340.3,139.1,343,137.8,345.7,137.3z"/>
	<path class="st0" d="M331.1,186.4c0.7,0,1.3,0.1,2,0.5c0.1,0.6,0.1,0.4-0.1,0.9c-0.2,0.5-0.6,0.8-1.1,1.1
		c-4.3,2.7-11.9,4.6-16.8,6.2c-6.4,2-12.8,4.2-19.1,6.5l-132.3,46.1c-0.7,0-1.4-0.2-2-0.7l0-0.5c0.8-1.4,2.5-2.2,3.9-2.7
		c5.7-2.3,11.8-4,17.6-6.1c18.7-6.8,37.5-13.3,56.3-19.6C270,207.6,300.4,196.6,331.1,186.4z"/>
	<path class="st0" d="M340.1,168.4l0.9,0.1c0.5,0.3,0.8,0.5,1,1c0.2,0.4,0.1,0.5-0.1,0.9c-0.7,0.8-1.7,1.2-2.7,1.6
		c-5.4,2-11,3.6-16.5,5.5l-75.8,26L179,227.3c-13.2,4.6-26.3,9.5-39.5,13.9c0,0-0.1,0-0.1,0c-0.6-0.1-1-0.3-1.3-0.9
		c-0.4-0.7-0.3-1,0-1.6c3.2-2.1,10.3-3.8,14.2-5.2l28.5-10.1L340.1,168.4z"/>
	<path class="st0" d="M328.2,201.7c9.9-0.7,19.6,2.2,27.5,8.2c7.1,5.5,12.3,13.5,13.4,22.5c0.9,7.7-1.3,15-6.2,21
		c-2.6,3.2-6,6.1-9.8,7.9c-3.2,1.5-6.6,2.6-9.9,3.8c-7.1,2.7-14.2,5.2-21.3,7.7l-48.5,17.5l-34.9,12.8c-9,3.4-22.5,9.2-31.8,10.2
		c-9.9,0.4-20.5-1.4-28.3-7.9c-7.3-6.1-12.7-14.6-13.5-24.3c-0.6-7.4,1.8-15.2,6.6-20.9c3-3.5,6.5-5.6,10.8-7.4
		c12.1-5.2,25.2-9.1,37.7-13.4l58.1-20.3c8.3-3,16.5-6,24.8-9.1C309.7,207.5,321.3,202.2,328.2,201.7z"/>
	<path class="st1" d="M329.3,205.9c7.9-1.3,17.4,2.2,23.7,6.7c6.2,4.5,10.7,11.1,11.9,18.8c1,6.5-0.5,13.2-4.4,18.5
		c-2.3,3.1-5.5,5.8-8.9,7.5c-3.4,1.7-7.1,2.7-10.6,4.1c-6.7,2.5-13.4,5.1-20.1,7.5l-54.4,19.4c-12.8,4.6-25.4,9.6-38.2,14.2
		c-7.4,2.7-14.7,5.6-22.6,6.8c-8.3,0.4-16.5-1.4-23.3-6.3c-6.8-4.9-11.5-12.3-12.8-20.6c-1-6.1,0.4-13.1,4.1-18.2
		c2.4-3.2,5.4-5.4,9-7.1c5.7-2.6,11.7-4.4,17.6-6.5c12-4.2,24.1-8.1,36.1-12.4c21.2-7.7,42.4-15.2,63.7-22.6
		C308.8,212.6,320.3,207.3,329.3,205.9z"/>
	<path class="st0" d="M329.3,210.1c7.2-0.8,15,1.4,20.9,5.7c5.7,4.1,9.3,10.5,10.4,17.4c0.9,5.6-0.4,11.1-3.8,15.7
		c-4.3,5.8-10.9,8.6-17.8,9.6c-7.5,0.4-14.8-2-20.6-6.7c-5.6-4.5-10.1-11.2-10.9-18.5c-0.6-5.6,1.2-11,4.7-15.3
		C316.5,212.7,322.7,210.8,329.3,210.1z"/>
	<path class="st1" d="M329,214.4c6.7-0.5,12.7,0.4,18.3,4.3c4.9,3.3,8.2,8.5,9.2,14.3c0.8,4.7-0.5,9.4-3.2,13.2
		c-3.6,5-8.4,7.1-14.3,8.1c-1.6,0.1-3.9,0.7-5.2-0.3c-0.4-0.8-0.6-1.7-1.4-2.2c-1.8-1.1-5.6-1.9-7.7-1.3c-0.1,0-0.2,0.1-0.4,0.1
		c-0.8-0.4-1.5-0.8-2.2-1.2c-4.9-3.2-8.8-8.9-10-14.6c-0.9-4.3-0.1-9,2.4-12.6C318,217,323.2,215.4,329,214.4z"/>
	<path class="st0" d="M317.3,235.8c1.1,0.3,1.6,0.6,2.3,1.5c0.8,1.1,1.5,2.9,1.1,4.2c-0.3,0.9-0.7,1.1-1.4,1.6
		c-0.6-0.2-1.2-0.4-1.7-0.8c-0.9-0.7-1.5-1.7-1.6-2.8C315.7,238.1,316.3,236.9,317.3,235.8z"/>
	<path class="st0" d="M330.3,221.1c1.2,0.1,2,0.2,3,1c0.4,0.8,0.4,0.8,0.3,1.7c-1,1.4-1.8,1.5-3.4,1.8c-0.5,0-0.9-0.1-1.4-0.2
		c-1-0.2-1.7-0.7-2.2-1.5c0-0.7,0-1,0.5-1.6C327.6,221.5,329.3,221.3,330.3,221.1z"/>
	<path class="st0" d="M343.4,227.1c1.1,0,1.7,0.3,2.6,1c1.2,0.9,2.3,2.2,2.4,3.8c0,0.8-0.6,1.4-1.1,1.9c-1.2-0.3-2.1-0.7-3.1-1.5
		c-1-0.8-1.9-1.9-1.9-3.2C342.4,228.1,342.8,227.7,343.4,227.1z"/>
	<path class="st0" d="M346.5,245.8c0.9,0.3,1.6,0.8,2.2,1.6c0.1,0.6,0.1,0.9-0.2,1.4c-1,1.7-3.2,2.5-5,3.1c-1.2-0.2-1.9-0.5-2.6-1.5
		c0-0.5-0.1-0.7,0.1-1.1C341.9,247.4,344.7,246.5,346.5,245.8z"/>
	<path class="st0" d="M329,216.3c3.2-0.4,6.5-0.1,9.6,0.9c5.7,1.8,11.2,5.7,14,11.1c2,3.9,2.8,9.4,1.4,13.6
		c-0.5,1.5-1.2,3.4-2.7,4.1c-0.8-0.1-0.8-0.2-1.4-0.7c-0.2-2.7,1-5.4,1.1-8.2c0.1-4.3-1.7-7.8-4.6-10.9c-1.7-1.5-3.5-2.9-5.5-4
		c-4.5-2.3-9.9-3.1-14.8-1.5c-5.5,1.8-8.2,5.1-10.7,10.1c-0.6,1.2-1,2.4-2.4,2.9c-0.5-0.4-0.4-0.2-0.6-0.8c-0.7-3,1.2-6.9,2.9-9.2
		C318.6,219.3,323.5,217.1,329,216.3z"/>
	<path class="st0" d="M198.4,254.9c7-0.6,14.9,1.2,20.5,5.6c6.3,4.8,10.1,12.2,11.1,20c0.8,6-0.4,12.3-4.1,17.1
		c-4.9,6.3-13.5,7.4-20.9,8.4c-8.1,0.3-16.3-1.7-22.7-6.9c-5.2-4.1-8.7-10.8-9.3-17.4c-0.6-6.4,1.4-12.6,5.5-17.6
		C183.8,257.8,190.4,255.6,198.4,254.9z"/>
	<path class="st1" d="M200.1,258.6c1.7,0,3.5,0.1,5.2,0.4c6.6,1.2,12.5,4.8,16.3,10.5c3.5,5.2,5.7,12.2,4.4,18.5
		c-1,5.1-4.1,9.2-8.3,12c3.5-3.6,5.8-7.3,6.6-12.3c1-6.2-1-11.8-4.7-16.8c-4-5.4-10-9.5-16.7-10.4c-5.2-0.7-11.1,0.2-15.3,3.4
		c-1.2,0.9-2.6,2-2.8,3.5c0.3,1.4,1,2,2.1,2.8l0.3,0.2c1.6-1.6,3.1-3,5-4.1c4.4-2.1,8.6-2.3,13.2-0.9c5.7,1.8,10.4,5.9,13.1,11.2
		c2.2,4.3,2.5,9.7,1,14.3c-1.3,3.9-3.6,6.9-7.3,8.7c-2.4,1.2-8.1,3.3-10.7,2.4c0.1-0.4,0.1-0.8,0.2-1.2l0.1-0.4
		c-0.2-0.3-0.5-0.7-0.8-0.9c-1.1-0.7-3.6-1.1-4.9-0.7c-1.1,0.4-1.4,1.1-1.8,2c0,0.1-0.1,0.2-0.1,0.3c-3.4-1.6-6.8-3.3-9.7-5.8
		c-4.3-3.7-6.8-9.5-7.1-15.1c-0.3-5.5,1.7-10.9,5.4-15C187.1,260.3,194,258.9,200.1,258.6z"/>
	<path class="st0" d="M185.5,273.2l0.4,0.3c0.2,0.5,0.3,0.8,0.3,1.4c-0.1,1.2-0.9,2.1-1.7,2.8c-0.4-0.3-0.4-0.5-0.6-0.9
		C183.7,275.2,184.5,274.3,185.5,273.2z"/>
	<path class="st0" d="M183.1,287.6c0.3,0,0.7,0,0.9,0.2c1.2,0.6,2.7,4,2.8,5.3c0.1,0.9-0.4,1.1-1,1.6c-0.6-0.3-1.3-0.6-1.8-1.1
		c-1.1-1-2.2-2.4-2.2-3.9C182,288.7,182.5,288.2,183.1,287.6z"/>
	<path class="st0" d="M213.8,290.1c0.6,0.2,1.1,0.4,1.5,0.9c0.6,0.6,1,1.5,0.9,2.4c-0.2,1.9-1.5,3-2.9,4.2c-0.4,0.1-0.8,0-1.2,0
		c-0.6-0.4-0.9-0.6-1-1.4C210.9,294,212.5,291.5,213.8,290.1z"/>
	<path class="st0" d="M213.8,274.6c0.4,0.1,0.8,0.3,1.1,0.6c2.2,2,3.8,6.1,3.7,9c0,1.1-0.4,1.5-1.1,2.2c-0.7,0-1.5-0.1-2-0.6
		c-1.5-1.3-3-6.8-3.1-8.8C212.4,275.9,213,275.3,213.8,274.6z"/>
	<path class="st0" d="M198,266.7c1.3-0.1,2.5-0.1,3.8,0c1.8,0.2,4.7,0.6,5.7,2.2c0.4,0.6,0.4,1.1,0.2,1.8c-0.7,0.5-1,0.4-1.8,0.5
		c-0.9-0.1-1.8-0.1-2.7-0.1c-2.3,0-5.8,0.4-7.6-1.4c-0.3-0.7-0.3-1-0.1-1.7C196.2,267.2,197,267,198,266.7z"/>
	<path class="st0" d="M183.5,268.4l0.8,0.5c0.3,0.6,0.4,0.8,0.4,1.4c-0.2,2.1-2,7.3-2.7,9.7c-0.3,1-0.7,1.4-1.6,1.9
		c-0.6-0.2-1.2-0.5-1.6-1c-0.7-0.8-0.6-2.3-0.5-3.3C178.7,274.3,180.9,270.6,183.5,268.4z"/>
	<path class="st0" d="M294.7,221.9c1.4,0.9,4.1,9.2,5.1,11.3c3.4,7.3,8,14.1,12.9,20.5c2.5,3.3,5.5,6.6,7.5,10.2
		c-6.2,3.4-16.8,6.4-23.7,9c-12.2,4.7-24.3,9.4-36.6,13.9c-5.3,1.9-10.6,4.1-16,5.6c-0.9,0.2-2.1,0.4-3,0.2
		c-0.7-0.2-1.2-0.5-1.5-1.1c-1.4-2.3-2.8-8.2-3.9-11.2c-1.2-3.1-2.3-6.4-3.8-9.4c-3.8-7.6-9-14.9-13.4-22.2
		c9.9-3.8,20.3-6.7,30.3-10.3c7-2.5,14.1-4.9,21.1-7.5C278,227.8,286.3,224.5,294.7,221.9z"/>
	<path class="st1" d="M271.2,234.8l0.2,0.1l0.1,0.3c-2.9,5.7-3.1,12.2-1.5,18.3c2.2,8.3,7.9,14.9,15.2,19.1
		c-12,4.8-24.3,9.3-36.5,13.7c0.2-1.4,0.3-2.7,0.5-4.1c0.1-3.5-0.2-6.9-1.2-10.2c-3.3-10.9-11.2-16.8-20.7-22c3.3-1,6.5-2.2,9.7-3.3
		C248.4,242.9,259.8,238.9,271.2,234.8z"/>
	<path class="st1" d="M245.6,12.9c4.4-0.5,9.1-0.3,13.5-0.2c26,0.4,51.8,5,76.3,13.7c45.4,16,85.1,45.1,114.1,83.5
		c6,8,12.2,16.6,16.5,25.6c-3.1,3.9-6.6,7.3-10.1,10.9c-4.5,4.6-8.9,9.1-13.4,13.6c-10.2,10.2-20.2,20.5-30.6,30.5
		c-8.1-16.9-17.2-33.5-25.8-50.2c-3.4-6.7-6.7-13.4-10.3-20c-1.4-2.5-2.7-5.4-4.5-7.7c-1.6-2-3.8-3.3-6-4.4
		c-2.9-1.4-5.7-1.8-8.9-1.3c-10.1,1.6-20,6.2-29.7,9.3c-24.1,7.7-48.1,15.5-72,23.7c4.3-4.6,9.1-8.7,13.6-13.1l28.4-27.9l8.5-8.4
		c1.7-1.7,3.8-3.4,5.2-5.4c0.1-0.7,0.1-1-0.2-1.7c-0.8-0.4-1.3-0.2-2,0.3c-3.4,2.1-6.5,6.1-9.4,8.9c-6.2,6-12.3,12-18.4,18
		L256.5,134c-2.2,2.1-5.7,6.2-8.1,7.7c-3.6,2.2-12.4,4.2-16.8,5.6l-30.7,10c10.7-9.9,23.5-23.3,24.5-38.7c0.4-5.7-1.2-10.7-5-15
		c-4.3-4.9-10.6-7.7-17.1-8c-14.2-0.8-27.6,8.8-37.8,17.8c-7,6.3-13.6,13.1-20.3,19.8l-27.4,27.2l-12.2,12.1c-1.8,1.8-4,3.5-5.6,5.4
		c-0.4,0.4-0.5,0.8-0.5,1.4c0,0.7,0.1,1,0.6,1.5c1.1,0,1.8-0.6,2.6-1.2c1.5-1.3,2.7-2.8,4.1-4.2c2.2-2.2,4.5-4.4,6.8-6.6
		c10-9.7,20.1-19.4,29.8-29.3c5.3-5.4,10.7-10.6,16-15.9c3.8-3.7,7.3-7.5,11.5-10.8c7.2-5.8,15.4-11.7,24.6-13.5
		c6.5-1.3,13.4-0.6,19,3.3c4,2.7,6.9,6.8,7.7,11.6c1.5,8.7-3.5,17.8-8.3,24.7c-4.8,6.4-10,12.1-16,17.4c-1.5,1.3-3.1,2.9-4.8,3.9
		c-3.5,2-9.5,3.3-13.5,4.6c-5.7,1.9-11.4,3.8-17.1,5.7l-41.1,14.1c-15.3,5.1-30.7,10.1-45.7,15.9c-6.2,2.4-10.2,5.9-12.9,12
		c-1.6,3.8-3,7.7-4.5,11.6c-2.5,6.1-6.3,12.7-7,19.3c-0.4,3.1,0.2,6,1.4,8.9c2.2,5.5,5.3,10.7,7.9,15.9c7.1,14,14.5,27.9,21.5,41.9
		c15.2,30.7,30.8,61.2,47,91.4c7.5,14.2,14.3,28.9,22.9,42.5c0.9,1.5,2.1,2.6,3.7,3.2c2.2,0.9,5,1.5,7.3,1.2
		c4.3-0.4,9.1-2.7,13.3-4.1c8.8-3.1,17.5-6.2,26.1-9.8c-3.5,4.2-7.7,7.6-11.4,11.5c-7.4,7.7-14.9,15.2-22.4,22.8
		c-3.3,3.4-6.5,6.9-9.9,10.1c-3.9-1.7-7.7-3.8-11.5-5.8c-17.5-9-33.6-19.6-48.5-32.4C47,396.2,17.7,338.5,12.8,270.7
		c-4.5-62,17.9-125.4,58.5-172.2c39.1-45.3,93.3-75,152.5-83.5C231,13.9,238.3,13.4,245.6,12.9z"/>
	<path class="st0" d="M122.8,417.9c0.4,0.2,0.7,0.4,1,0.7c0.2,0.3,0.4,0.8,0.4,1.1c-0.2,1.1-13.4,14.3-15.3,15.6
		c-0.4-0.2-1-0.6-1.2-1c-0.2-0.3-0.3-0.7-0.3-1C108,430.8,120.3,419.5,122.8,417.9z"/>
	<path class="st0" d="M95.3,348.1l1,0.1c0.7,0.6,0.7,0.6,0.9,1.4c-0.7,2.5-18.8,20.3-21.8,23.2c-0.1,0-0.3,0-0.4-0.1
		c-0.7-0.3-1.1-0.7-1.4-1.4c0.1-0.6,0.2-0.9,0.6-1.4c2.7-3.5,6.3-6.6,9.3-9.8C87.5,356.2,91.3,351.9,95.3,348.1z"/>
	<path class="st0" d="M67.5,304.8c0.5,0.1,1.1,0.4,1.4,0.8c0.2,0.3,0.4,0.6,0.3,1c-0.5,1.7-18.6,20.1-20.3,21.4
		c-0.9-0.3-1.4-0.5-1.9-1.4C47.5,324.1,65,306.7,67.5,304.8z"/>
	<path class="st0" d="M85.6,145.8c0.8,0.3,1.1,0.6,1.5,1.4c-0.1,0.8-0.2,1-0.8,1.6c-2.1,2.4-4.5,4.5-6.7,6.8
		c-5.5,5.5-11,11-16.5,16.5c-3.8,3.7-8.8,9.6-12.9,12.7c-0.2-0.1-0.6-0.3-0.8-0.5c-0.7-0.5-0.7-0.7-0.9-1.5c0.1-0.5,0.3-0.8,0.6-1.1
		c5.3-5.7,11.3-10.9,16.8-16.4l12.3-12.5C80.4,150.4,82.8,147.5,85.6,145.8z"/>
	<path class="st0" d="M416.3,115.8c0.8-0.1,1.2-0.1,2,0.2c1.6,1.9,1.4,4.7,2.8,6.6c1.2,1.6,3.8,3.2,4,5.3c-0.3,0.8-0.9,1.2-1.6,1.6
		c-3.4,2.4-3.3,7.6-5.2,11.1c-0.3,0-0.9,0-1.2-0.1c-0.9-0.3-1.3-1.2-1.6-2.1c-0.6-1.8-0.5-3.7-1-5.4c-0.7-2.2-3.3-3.5-4.5-5.5
		c-0.2-2.2,2.9-2.9,3.9-4.7c0.1-0.1,0.1-0.2,0.1-0.3C415.1,120.4,415.1,117.9,416.3,115.8z"/>
	<path class="st1" d="M417.5,121.9c0.5,2,2.3,4,3.4,5.8c-1.5,1.9-2.7,3.6-3.6,5.9c-1.1-2.1-1.5-3.8-3.3-5.6
		C415.4,126,416.5,124,417.5,121.9z"/>
	<path class="st0" d="M186.8,49.2l1,0.1c0.7,0.5,0.8,0.5,1,1.3c-0.1,0.8-0.4,1.2-1,1.8c-3,3.5-6.7,6.6-10,9.9
		c-7.6,7.7-15.3,15.3-23.2,22.8c-3.2,3.1-6.3,6.1-9.5,9.3c-2,2-4,4.2-6.2,5.9c-0.2,0-0.7-0.1-0.9-0.2c-0.6-0.3-0.6-0.7-0.8-1.3
		c0.3-1.2,1-1.9,1.8-2.8c2.7-2.8,5.6-5.4,8.4-8.1l13.7-13.3C169.6,66.3,178.2,56.9,186.8,49.2z"/>
	<path class="st0" d="M116.6,100.2c0.2,0,0.6-0.1,0.9-0.1c1.2,0.1,1.4,1.2,1.7,2.1c0.6,2,0.8,4.2,1.3,6.3c1,4.3,4.5,7.1,7.3,10.2
		c-0.8,1.5-3,3-4.2,4.3c-3.9,3.9-3.6,9-4.8,14l-1.4,0.1c-2.7-1.2-2.3-7.3-3.5-9.9c-1.3-3-4.1-5.7-6.1-8.2c0-0.3,4.5-4.9,5.1-5.9
		C115.4,109,115.1,104.6,116.6,100.2z"/>
	<path class="st1" d="M117.8,109.5c1.4,3.7,2.9,6.5,5.4,9.5c-2.7,2.3-4.7,5.3-5.7,8.8c-1.8-3.1-3.2-5.9-5.5-8.7
		C115,116.4,116.5,113.3,117.8,109.5z"/>
	<path class="st0" d="M344,54.9c0.1,0,0.2,0.1,0.4,0.1c0.7,0.3,1,0.6,1.3,1.3c-0.7,1.7-6,4.2-7.8,5.6c-5.2,3.9-10.7,10.5-11.5,17.2
		c-0.3,2.7,0.2,5.4,2,7.6c2,2.5,5,3.6,8.1,3.9c14.9,1.4,23-10.6,33.1-18.8c2.2-1.8,6.8-5.7,9.6-5.4c0.6,0.4,0.7,0.5,1,1.2
		c-0.1,0.9,0,0.9-0.7,1.5c-4.4,2.5-8.3,5.3-12.1,8.6c-5.1,4.5-9.6,9.5-15.8,12.6c-5.9,2.9-13.5,4.3-19.9,2.1
		c-3.2-1.1-5.9-3.3-7.4-6.4c-1.7-3.8-1.4-8,0.1-11.8C327.9,65.6,335.7,58.6,344,54.9z"/>
	<path class="st0" d="M252.5,40.2c0.5,0,1,0.1,1.5,0.3c2.4,2.6,2.4,11.1,4.8,15c1.4,2.3,6.4,5.9,6.7,7c-2.1,2.7-5.3,3.7-7,6.9
		c-2.1,3.8-3.3,12.8-5.5,15.2c-0.6-0.2-1-0.3-1.4-0.8c-0.9-1.4-2.3-9.7-3.4-12.5c-1.8-4.6-6.7-5.8-8.5-9c1.1-2.5,5.3-3.4,6.9-6
		C249.8,51.3,250.1,45.5,252.5,40.2z"/>
	<path class="st1" d="M253,48.7c0.5,0.6,0.7,1.5,0.9,2.3c1.6,4.7,2.8,8.1,6.8,11.4c-1.6,1.4-3.2,2.7-4.3,4.6
		c-0.9,1.5-3.1,8.3-3.8,8.7c-1.6-5.8-3.8-9.4-8.5-13.3c0.2-0.1,0.4-0.3,0.7-0.4C249.6,59,251.8,53.9,253,48.7z"/>
</g>
</svg>
