<?xml version="1.0" encoding="utf-8"?>
<!-- Generator: Adobe Illustrator 28.2.0, SVG Export Plug-In . SVG Version: 6.00 Build 0)  -->
<svg version="1.1" id="Layer_1" xmlns="http://www.w3.org/2000/svg" xmlns:xlink="http://www.w3.org/1999/xlink" x="0px" y="0px"
	 viewBox="0 0 512 512" style="enable-background:new 0 0 512 512;" xml:space="preserve">
<style type="text/css">
	.st0{fill:#FFFFFF;}
</style>
<path class="st0" d="M493.9,275c-2-1.4-4.1-2.9-6.1-4.3c-24.2-16.6-48.5-33.1-72.9-49.5c-0.7-0.5-1.3-1-1.8-1.5
	c-1.4-1.5-2-3.3-2-5.8c0.1-45.3,0-90.7,0.2-136c0-1.6-0.2-3.1-0.5-4.4c-0.3-1-0.7-2-1.3-2.8c-0.3-0.4-0.6-0.9-0.9-1.3
	c-0.9-1-2-2-3.4-2.9c-8.1-5.4-16.2-10.9-24.2-16.4c-24.2-16.4-48.4-32.9-72.5-49.4c-0.2-0.2-0.4-0.5-0.5-0.8c-1.3,0-2.7,0-4,0
	c-8.9,6.3-17.6,12.7-26.6,18.8c-57.3,39.1-114.6,78.1-171.9,117c-3.5,2.4-5.2,4.9-4.7,9c0.6,4-1.2,6.3-4.5,8.4
	c-30.5,20.6-60.9,41.3-91.3,62.1c-1.9,1.3-3.4,3.1-5.1,4.6c0,50.7,0,101.3,0,152c1.6,1.4,3.1,2.9,4.9,4.1
	c66.2,45.1,132.4,90.1,198.6,135.1c0.2,0.2,0.4,0.5,0.5,0.8c1.3,0,2.7,0,4,0c8.5-6,16.9-12.1,25.5-18c23-15.8,46.1-31.4,69.1-47.1
	c2.2-1.5,3.8-2.6,6.6-0.7c15.9,10.9,31.9,21.8,47.8,32.7s31.9,21.7,47.9,32.6c0.1,0,0.1,0.1,0.1,0.2c0,0.1,0,0.2,0.1,0.3
	c1.3,0,2.7,0,4,0c2.5-1.8,5-3.5,7.5-5.3c5-3.5,10-7.1,15-10.5c2.5-1.7,5-3.5,7.5-5.2c11.4-7.8,22.7-15.6,34.1-23.3
	c11.4-7.8,22.8-15.5,34.2-23.3c0.8-0.5,1.6-1.1,2.4-1.7c0.8-0.6,1.6-1.1,2.4-1.7c0-51,0-102,0-153C506,283.7,500,279.3,493.9,275z
	 M201,347.2c0,0.3-0.1,0.6-0.3,1.6c-4.3-2.8-8.4-5.5-12.4-8.2c-24.8-16.9-49.6-33.9-74.5-50.8c-2.3-1.5-3.9-3-3.9-6.2
	c0.1-42.7,0.1-85.3,0.1-128c0-0.9,0.1-1.9,0.2-3.6c11.6,7.9,22.7,15.4,33.8,22.9c17.9,12.1,35.8,24.2,53.5,36.4
	c1.6,1.1,3.3,3.5,3.3,5.3C201,260.2,201,303.7,201,347.2z M201.7,201.8c-28.4-19.5-57-38.8-85.5-58.2c-0.4-0.3-0.7-0.7-1.4-1.4
	c9.2-6.3,18.3-12.6,27.5-18.8C195.6,87,249,50.7,302.2,14.3c3-2.1,5.1-1.9,8.1,0.2c25.1,17.3,50.3,34.4,76.1,51.9
	c3.7,2.5,7.4,5,11.1,7.5c-3.3,2.2-6.5,4.5-9.8,6.7s-6.4,4.4-9.6,6.6c-6.4,4.4-12.6,8.7-18.9,12.9c-24.9,16.9-49.8,33.9-74.7,50.8
	c-24.9,16.9-49.8,33.9-74.6,50.9C206.8,203.9,204.8,203.9,201.7,201.8z M402,215.4c0,1.2-0.2,2.3-0.8,3.3c-0.4,0.7-1.1,1.4-2,2.1
	c-30.8,20.9-61.7,41.9-92.5,62.8c-30.8,21-61.6,41.9-92.4,62.9c-1,0.7-2.2,1.3-4,2.4c0-30.4,0-59.7,0-89c0-14-0.1-28,0.1-42
	c0-2,1.4-4.8,3.1-5.9c30.9-21.1,61.8-42.3,92.8-63.3c30.9-21.1,61.9-42.2,92.9-63.2c0.5-0.3,1-0.6,1.8-1c0.3-0.1,0.5-0.3,0.8-0.5
	c0.1,1.4,0.2,2.5,0.2,3.6c0,0.4,0,0.7,0,1.1c0,42,0,84,0,126C402,214.8,402,215.1,402,215.4z"/>
</svg>
