<?xml version="1.0" encoding="utf-8"?>
<!-- Generator: Adobe Illustrator 27.7.0, SVG Export Plug-In . SVG Version: 6.00 Build 0)  -->
<svg version="1.1" id="Layer_1" xmlns="http://www.w3.org/2000/svg" xmlns:xlink="http://www.w3.org/1999/xlink" x="0px" y="0px"
	 viewBox="0 0 512 512" style="enable-background:new 0 0 512 512;" xml:space="preserve">
<style type="text/css">
	.st0{fill-rule:evenodd;clip-rule:evenodd;fill:url(#SVGID_1_);}
</style>
<g>
	
		<linearGradient id="SVGID_1_" gradientUnits="userSpaceOnUse" x1="512" y1="512" x2="4.082598e-05" y2="3.629857e-06" gradientTransform="matrix(1 0 0 -1 0 512)">
		<stop  offset="0.2317" style="stop-color:#FF884D"/>
		<stop  offset="0.8017" style="stop-color:#E300BD"/>
	</linearGradient>
	<path class="st0" d="M394.2,205.2c0,13.8-16.7,20.6-26.3,10.7L170.8,14.5C197.5,5.1,226.1,0,256,0c50.9,0,98.4,14.9,138.2,40.5
		V205.2z M465.9,109.4v95.8c0,78-94.7,116.6-149.3,60.9L104.7,49.5C41.2,96,0,171.2,0,256c0,54.5,17,105,46.1,146.6v-95.3
		c0-78,94.7-116.6,149.3-60.9L407,462.8c63.7-46.6,105-121.8,105-206.8C512,201.5,495,151,465.9,109.4z M144.1,296.6l196.7,201.1
		c-26.5,9.3-55.1,14.4-84.8,14.4c-50.9,0-98.4-14.9-138.2-40.5V307.3C117.8,293.5,134.5,286.7,144.1,296.6z"/>
</g>
</svg>
