<?xml version="1.0" encoding="utf-8"?>
<!-- Generator: Adobe Illustrator 28.2.0, SVG Export Plug-In . SVG Version: 6.00 Build 0)  -->
<svg version="1.1" id="Layer_1" xmlns="http://www.w3.org/2000/svg" xmlns:xlink="http://www.w3.org/1999/xlink" x="0px" y="0px"
	 viewBox="0 0 512 512" style="enable-background:new 0 0 512 512;" xml:space="preserve">
<style type="text/css">
	.st0{fill:#FFFFFF;}
	.st1{clip-path:url(#SVGID_00000177443312927513936110000007776864054348409754_);}
</style>
<circle class="st0" cx="256" cy="256" r="256"/>
<g>
	<defs>
		<circle id="SVGID_1_" cx="256" cy="256" r="256"/>
	</defs>
	<clipPath id="SVGID_00000183951157077114949000000004012509396797456784_">
		<use xlink:href="#SVGID_1_"  style="overflow:visible;"/>
	</clipPath>
	<g style="clip-path:url(#SVGID_00000183951157077114949000000004012509396797456784_);">
		<path d="M157.3,35.9c-4.3,0.7-9.5,3-13.1,5.7c-11,8.4-19.6,26.2-23.2,48.4c-1.4,8.4-2.3,20-2.3,28.9c0,10.5,1.2,23.9,3,33.1
			c0.4,2.1,0.6,3.9,0.4,4c-0.1,0.1-1.8,1.5-3.6,2.9c-6.2,5-13.4,12.6-18.3,19.6c-9.4,13.4-15.5,28.6-18.1,45
			c-1,6.5-1.3,19.6-0.5,26.1c1.8,15,6.3,27.7,14,39.3l2.5,3.7l-0.7,1.2c-5.2,8.7-9.6,21.3-11.6,33.3c-1.6,9.6-1.8,12.1-1.8,24.9
			c0,12.9,0.2,15.5,1.7,24.4c1.8,10.7,5.5,22,9.7,29.5c1.4,2.5,4.7,7.6,5.1,7.8c0.1,0.1-0.3,1.3-0.9,2.7
			c-4.8,10.5-8.9,24.4-10.6,36.1c-1.2,8-1.4,10.6-1.4,19.1c0,10.8,0.6,16,2.9,24.6l0.3,1.3H105h14.2l-0.9-1.8
			c-5.7-10.6-6.3-30.3-1.3-50c2.3-9.1,4.8-15.8,9.6-24.9l2.9-5.6v-3.4c0-3.2-0.1-3.5-1.1-5.6c-0.8-1.6-1.9-3-3.7-4.8
			c-3.2-3.1-5.5-6.4-7.4-10.5c-8.2-17.7-9.8-44-4-66.5c2.4-9.4,6.3-17.7,10.5-22.2c2.8-3.1,4.3-6.6,4.3-10.2c0-3.7-1.3-6.8-4.3-10.1
			c-8.6-9.2-13.8-20.3-15.7-33.3c-2.7-18.5,2.2-38.6,13.3-54.6c10.8-15.7,26.1-25.7,43.1-28.4c3.8-0.6,10.9-0.5,14.9,0.2
			c4.3,0.8,7.1,0.5,9.9-0.8c3.5-1.6,5.2-3.6,7.2-8.3c1.8-4.1,3.2-6.4,6.9-11.1c4.5-5.6,8.9-9.4,15.8-14c8-5.2,17-9,26-10.8
			c3.3-0.7,4.8-0.8,10.9-0.8s7.7,0.1,10.9,0.8c13.2,2.7,26.4,9.5,36.9,19.2c2.3,2.1,7.7,8.8,9.4,11.6c0.7,1.1,1.8,3.4,2.6,5.1
			c2,4.6,3.7,6.7,7.2,8.3c2.7,1.3,5.5,1.6,9.7,0.9c6.6-1.1,11.7-1,18.1,0.3c22,4.4,41.2,22.6,49.7,46.9c7.4,21.3,5.3,43.7-5.7,60.7
			c-1.9,2.9-3.7,5.2-6.4,8.1c-5.8,6.2-5.8,13.9,0,20.3c9.5,10.4,15.4,35.9,13.6,58.5c-1.2,14.9-5,28.2-10.3,35.7
			c-0.9,1.3-2.9,3.6-4.3,5c-1.9,1.9-3,3.2-3.7,4.8c-1,2.1-1.1,2.5-1.1,5.6v3.4l2.9,5.6c4.8,9.2,7.3,15.9,9.6,24.9
			c4.9,19.4,4.4,38.7-1.1,49.7c-0.5,0.9-0.9,1.8-0.9,1.9c0,0.1,6.3,0.2,14.1,0.2h14.1l0.4-1.4c0.2-0.8,0.5-1.9,0.7-2.6
			c0.4-1.5,1.1-5.8,1.7-9.9c0.6-4.2,0.6-19.6,0-24.2c-2.1-16.9-5.7-30.2-11.5-42.9c-0.6-1.4-1-2.7-0.9-2.7c0.2-0.1,1.1-1.4,2.1-2.9
			c7.2-10.9,11.7-24.7,13.9-42.9c0.6-5,0.6-26.5,0-31.4c-1.6-12.4-3.5-20.8-6.7-29.4c-1.3-3.5-4.8-11-6.3-13.5l-0.7-1.2l2.5-3.7
			c7.7-11.6,12.2-24.3,14-39.3c0.8-6.5,0.5-19.6-0.5-26.1c-2.6-16.5-8.7-31.6-18.1-45c-4.9-7-12-14.7-18.3-19.6
			c-1.8-1.5-3.5-2.8-3.6-2.9c-0.2-0.1,0-2,0.4-4c4-20.9,3.9-47-0.3-67.4c-3.6-17.8-10.3-31.9-18.8-40.1c-6.8-6.5-13.8-9.3-22.2-8.8
			c-19.2,1.1-34.6,23.2-40.7,58c-1,5.6-1.9,12.2-1.9,14c0,0.7-0.1,1.3-0.3,1.3c-0.2,0-1.5-0.7-2.9-1.5C288.5,98.8,272,94.1,256,94.1
			s-32.5,4.7-47.3,13.4c-1.4,0.8-2.7,1.5-2.9,1.5c-0.2,0-0.3-0.6-0.3-1.3c0-1.9-0.9-8.6-1.9-14c-5.5-31.2-18.2-51.9-35.1-57.1
			C166.3,36,159.7,35.5,157.3,35.9z M162.9,62.9c4.8,3.8,10.1,14.6,13.1,26.7c0.6,2.2,1.2,4.7,1.3,5.6c0.1,0.9,0.5,2.9,0.8,4.5
			c1.3,7,1.9,14.6,2,23.9l0,9.1l-2.3,3.4l-2.3,3.4h-5.3c-6.2,0-12.4,0.8-18.4,2.4c-2.1,0.5-4.2,1.1-4.6,1.2
			c-0.6,0.1-0.7-0.1-1.1-2.8c-2-14.8-1.9-31.1,0.3-44.7c2.4-15.2,8-28.9,13.4-32.9C161.2,61.7,161.4,61.7,162.9,62.9z M352.1,62.7
			c3.3,2.4,6.9,8.9,9.6,17.1c5.4,16.5,6.9,39,4.1,60.5c-0.4,2.7-0.5,2.9-1.1,2.8c-0.4-0.1-2.5-0.6-4.6-1.2
			c-5.9-1.6-12.1-2.4-18.4-2.4h-5.3l-2.3-3.4l-2.3-3.4l0-9.1c0.1-12.9,1.3-22.9,4.1-34.1c3-12,8.4-22.8,13.1-26.6
			C350.6,61.7,350.8,61.7,352.1,62.7z"/>
		<path d="M250.9,229.6c-7.2,0.7-9.2,1-12.6,1.7c-5.6,1.2-13.1,3.7-18.3,6.3c-18.1,8.9-30.6,23.6-34.4,40.7
			c-0.8,3.4-0.9,4.5-0.9,10.2c0,5.6,0.1,6.9,0.8,10.1c5.1,22.3,25.6,38.8,52.3,41.8c5.8,0.6,30.7,0.6,36.5,0
			c21.4-2.4,39.7-14,48-30.3c2.2-4.3,3.3-7.2,4.2-11.6c0.7-3.2,0.8-4.4,0.8-10.1c0-5.7-0.1-6.8-0.9-10.2
			c-5.5-24.8-29.6-44.4-59.2-48.1C263.5,229.8,253.4,229.4,250.9,229.6z M263.3,247.7c9.9,1.1,19.8,4.6,27.7,9.9
			c4.3,2.9,10.3,8.8,12.9,12.7c3.2,4.8,5,9.8,5.8,15.8c0.4,2.8,0.2,4.8-0.8,9.3c-1.6,6.6-6.4,13.6-12.9,18.4
			c-3.1,2.2-9.4,5.4-13.3,6.7c-7.4,2.4-12.2,2.8-29.4,2.7c-11.2-0.1-13.2-0.2-16.4-0.8c-11-2.1-19.7-6.4-26-13.1
			c-5.1-5.4-7.4-10.3-8.7-18.2c-0.6-3.7,0.5-9.8,2.7-14.9c2.6-6.3,9.4-14.1,16.1-18.5c7.8-5.2,18-8.9,27.4-9.9
			C252,247.3,259.6,247.3,263.3,247.7z"/>
		<path d="M243.3,271.9c-2.5,1.4-4.3,4.8-3.7,7.4c0.6,2.8,3,5.5,6.8,7.8c2,1.2,2.2,1.4,2.3,2.6c0.1,0.7-0.2,2.8-0.6,4.7
			c-0.4,1.8-0.7,3.7-0.7,4.3c0,1.4,1.4,3.7,2.8,4.9c1.2,1,1.5,1,4.9,1.1c3.2,0.1,3.8,0,5.1-0.6c3.3-1.6,4.1-4.5,2.9-10.1
			c-1-4.7-0.8-5.4,1.7-6.8c2.6-1.5,5.4-4.2,6.2-6c1.6-3.5,0.1-7.4-3.4-9.3c-0.9-0.4-1.9-0.6-3.5-0.6c-2.4,0-4,0.6-6.8,2.4l-1.6,1
			l-1-0.6c-4.2-2.5-5-2.8-7.5-2.8C245.2,271.3,244.2,271.4,243.3,271.9z"/>
		<path d="M162.8,233.4c-5.9,1.9-10.3,6.2-12.5,12.3c-1.1,2.9-1.6,7.5-1.2,10c1.1,5.9,6,11.3,11.5,12.8c7,1.8,12.2,0.6,16.8-3.9
			c2.7-2.6,4.1-4.9,5.6-8.6c1.1-2.6,1.1-3.1,1.1-6.8l0-4l-1.4-2.9c-2.2-4.5-6.2-7.9-10.9-9.1C169.3,232.6,165.1,232.6,162.8,233.4z"
			/>
		<path d="M340,233.3c-4.5,1.2-8.6,4.6-10.7,9.1l-1.4,2.9l0,4c0,3.7,0.1,4.2,1.1,6.8c1.5,3.7,2.9,6,5.6,8.6
			c4.6,4.6,9.8,5.8,16.8,3.9c4-1.1,8-4.4,10-8.4c1.7-3.4,2.1-5.8,1.5-9.6c-1.2-8.7-6.3-15.1-13.9-17.3
			C346.7,232.6,342.4,232.6,340,233.3z"/>
	</g>
</g>
</svg>
