<?xml version="1.0" encoding="utf-8"?>
<!-- Generator: Adobe Illustrator 28.2.0, SVG Export Plug-In . SVG Version: 6.00 Build 0)  -->
<svg version="1.1" id="Layer_1" xmlns="http://www.w3.org/2000/svg" xmlns:xlink="http://www.w3.org/1999/xlink" x="0px" y="0px"
	 viewBox="0 0 512 512" style="enable-background:new 0 0 512 512;" xml:space="preserve">
<style type="text/css">
	.st0{clip-path:url(#SVGID_00000005238805735938797210000013895027059582159537_);}
	.st1{fill:#FFFFFF;}
</style>
<g>
	<defs>
		<circle id="SVGID_1_" cx="256" cy="256" r="256"/>
	</defs>
	<clipPath id="SVGID_00000090284231174666155040000012760067889378599608_">
		<use xlink:href="#SVGID_1_"  style="overflow:visible;"/>
	</clipPath>
	<g style="clip-path:url(#SVGID_00000090284231174666155040000012760067889378599608_);">
		<path class="st1" d="M395,446.1c-2.3-9.1-4.8-15.8-9.6-24.9l-2.9-5.6v-3.4c0-3.2,0.1-3.5,1.1-5.6c0.8-1.6,1.9-3,3.7-4.8
			c1.5-1.4,3.4-3.6,4.3-5c5.2-7.5,9.1-20.8,10.3-35.7c1.8-22.5-4.1-48.1-13.6-58.5c-5.8-6.4-5.8-14.1,0-20.3
			c2.7-2.9,4.5-5.2,6.4-8.1c11-17.1,13.1-39.4,5.7-60.7c-8.5-24.3-27.7-42.5-49.7-46.9c-6.5-1.3-11.5-1.4-18.1-0.3
			c-4.2,0.7-7,0.4-9.7-0.9c-3.5-1.6-5.2-3.6-7.2-8.3c-0.7-1.7-1.9-4-2.6-5.1c-1.7-2.8-7.1-9.5-9.4-11.6
			c-10.5-9.7-23.6-16.5-36.9-19.2c-3.3-0.7-4.8-0.8-10.9-0.8c-6.1,0-7.7,0.1-10.9,0.8c-9,1.8-18.1,5.6-26,10.8
			c-7,4.6-11.3,8.4-15.8,14c-3.7,4.7-5.1,6.9-6.9,11.1c-2,4.6-3.7,6.7-7.2,8.3c-2.8,1.3-5.5,1.6-9.9,0.8c-4-0.7-11.1-0.8-14.9-0.2
			c-17,2.7-32.2,12.7-43.1,28.4c-11.1,16-16,36.1-13.3,54.6c1.9,13,7.2,24.1,15.7,33.3c3,3.2,4.3,6.3,4.3,10.1
			c0,3.6-1.5,7.1-4.3,10.2c-4.1,4.5-8.1,12.9-10.5,22.2c-5.7,22.4-4.1,48.7,4,66.5c1.9,4,4.2,7.3,7.4,10.5c1.9,1.9,3,3.2,3.7,4.8
			c1,2.1,1.1,2.5,1.1,5.6v3.4l-2.9,5.6c-4.8,9.2-7.3,15.9-9.6,24.9c-2,7.8-3,15.5-3.3,22.7C154.4,496.1,203.3,512,256,512
			c52.7,0,101.6-15.9,142.3-43.2C398.1,461.6,397,453.9,395,446.1z M184.1,249.2c0,3.7-0.1,4.2-1.1,6.8c-1.5,3.7-2.9,6-5.6,8.6
			c-4.6,4.6-9.8,5.8-16.8,3.9c-5.5-1.5-10.4-6.9-11.5-12.8c-0.5-2.5,0.1-7.1,1.2-10c2.3-6.1,6.6-10.5,12.5-12.3
			c2.3-0.8,6.5-0.8,9.1-0.1c4.6,1.2,8.7,4.6,10.9,9.1l1.4,2.9L184.1,249.2z M326.5,298.6c-1,4.4-2.1,7.2-4.2,11.6
			c-8.3,16.3-26.6,27.8-48,30.3c-5.8,0.6-30.7,0.6-36.5,0c-26.6-3-47.2-19.5-52.3-41.8c-0.7-3.2-0.8-4.4-0.8-10.1
			c0-5.7,0.1-6.8,0.9-10.2c3.8-17.1,16.3-31.8,34.4-40.7c5.2-2.6,12.7-5.1,18.3-6.3c3.5-0.7,5.4-1,12.6-1.7
			c2.5-0.3,12.6,0.1,16.5,0.6c29.5,3.7,53.6,23.3,59.2,48.1c0.8,3.4,0.9,4.5,0.9,10.2C327.3,294.2,327.2,295.4,326.5,298.6z
			 M361.3,260.2c-1.9,3.9-5.9,7.3-10,8.4c-7,1.8-12.2,0.6-16.8-3.9c-2.7-2.6-4.1-4.9-5.6-8.6c-1.1-2.6-1.1-3.1-1.1-6.8l0-4l1.4-2.9
			c2.2-4.4,6.2-7.8,10.7-9.1c2.4-0.7,6.7-0.7,9,0c7.6,2.2,12.7,8.6,13.9,17.3C363.4,254.4,363,256.8,361.3,260.2z"/>
		<path class="st1" d="M147.3,143.1c0.4-0.1,2.5-0.6,4.6-1.2c5.9-1.6,12.1-2.4,18.4-2.4h5.3l2.3-3.4l2.3-3.4l0-9.1
			c-0.1-9.3-0.7-16.9-2-23.9c-0.3-1.6-0.7-3.6-0.8-4.5c-0.2-0.9-0.8-3.5-1.3-5.6c-3.1-12.1-8.4-22.9-13.1-26.7
			c-1.5-1.2-1.7-1.2-3-0.3c-5.4,4-11,17.8-13.4,32.9c-2.2,13.6-2.3,30-0.3,44.7C146.6,143,146.7,143.2,147.3,143.1z"/>
		<path class="st1" d="M303.9,270.3c-2.6-3.9-8.6-9.9-12.9-12.7c-8-5.3-17.9-8.8-27.7-9.9c-3.6-0.4-11.3-0.4-14.9,0
			c-9.4,1-19.6,4.7-27.4,9.9c-6.7,4.5-13.5,12.3-16.1,18.5c-2.2,5.1-3.2,11.2-2.7,14.9c1.3,7.9,3.6,12.8,8.7,18.2
			c6.3,6.7,15,11,26,13.1c3.2,0.6,5.2,0.7,16.4,0.8c17.2,0.1,22-0.3,29.4-2.7c3.9-1.3,10.2-4.5,13.3-6.7
			c6.5-4.8,11.4-11.8,12.9-18.4c1-4.4,1.2-6.5,0.8-9.3C308.9,280.1,307.1,275.2,303.9,270.3z M270.9,281.1c-0.8,1.8-3.6,4.5-6.2,6
			c-2.5,1.4-2.7,2.2-1.7,6.8c1.2,5.6,0.4,8.5-2.9,10.1c-1.3,0.6-1.9,0.7-5.1,0.6c-3.5-0.1-3.7-0.1-4.9-1.1c-1.4-1.1-2.7-3.5-2.8-4.9
			c0-0.5,0.3-2.5,0.7-4.3c0.4-1.9,0.6-3.9,0.6-4.7c-0.1-1.2-0.2-1.4-2.3-2.6c-3.8-2.3-6.2-5.1-6.8-7.8c-0.5-2.6,1.2-6,3.7-7.4
			c0.9-0.5,1.9-0.6,3.7-0.6c2.6,0,3.3,0.3,7.5,2.8l1,0.6l1.6-1c2.9-1.8,4.4-2.4,6.8-2.4c1.6,0,2.6,0.2,3.5,0.6
			C271.1,273.7,272.5,277.6,270.9,281.1z"/>
		<path class="st1" d="M256,0C114.6,0,0,114.6,0,256c0,77.8,34.7,147.4,89.4,194.4c1.9-11.1,5.7-23.8,10.2-33.5
			c0.6-1.4,1-2.7,0.9-2.7c-0.4-0.3-3.7-5.4-5.1-7.8c-4.1-7.5-7.9-18.8-9.7-29.5c-1.5-8.9-1.7-11.5-1.7-24.4
			c0-12.8,0.2-15.4,1.8-24.9c2.1-12.1,6.5-24.6,11.6-33.3l0.7-1.2l-2.5-3.7c-7.7-11.6-12.2-24.3-14-39.3c-0.8-6.5-0.5-19.6,0.5-26.1
			c2.6-16.5,8.7-31.7,18.1-45c4.9-7,12-14.7,18.3-19.6c1.8-1.5,3.5-2.8,3.6-2.9c0.2-0.1,0-2-0.4-4c-1.8-9.3-3-22.7-3-33.1
			c0-8.9,0.9-20.5,2.3-28.9c3.6-22.2,12.2-40,23.2-48.4c3.6-2.8,8.8-5,13.1-5.7c2.4-0.4,9,0.1,11.3,0.8
			c16.9,5.2,29.6,25.9,35.1,57.1c1,5.3,1.9,12.1,1.9,14c0,0.7,0.1,1.3,0.3,1.3c0.2,0,1.5-0.7,2.9-1.5c14.8-8.8,31.3-13.4,47.3-13.4
			c16,0,32.5,4.7,47.3,13.4c1.4,0.8,2.7,1.5,2.9,1.5c0.2,0,0.3-0.6,0.3-1.3c0-1.8,0.9-8.4,1.9-14c6.1-34.8,21.6-56.8,40.7-58
			c8.4-0.5,15.3,2.3,22.2,8.8c8.6,8.2,15.2,22.3,18.8,40.1c4.2,20.4,4.3,46.5,0.3,67.4c-0.4,2.1-0.6,3.9-0.4,4
			c0.1,0.1,1.8,1.5,3.6,2.9c6.2,5,13.4,12.6,18.3,19.6c9.4,13.4,15.5,28.5,18.1,45c1,6.5,1.3,19.6,0.5,26.1
			c-1.8,15-6.3,27.7-14,39.3l-2.5,3.7l0.7,1.2c1.5,2.4,5,9.9,6.3,13.5c3.2,8.5,5.1,17,6.7,29.4c0.6,4.8,0.6,26.3,0,31.4
			c-2.3,18.2-6.7,31.9-13.9,42.9c-1,1.5-1.9,2.8-2.1,2.9c-0.1,0.1,0.3,1.3,0.9,2.7c4.7,10.2,7.9,20.9,10.1,33.6
			c54.7-47,89.4-116.6,89.4-194.4C512,114.6,397.4,0,256,0z"/>
		<path class="st1" d="M336.4,139.5h5.3c6.2,0,12.4,0.8,18.4,2.4c2.1,0.5,4.2,1.1,4.6,1.2c0.6,0.1,0.7-0.1,1.1-2.8
			c2.9-21.5,1.3-44.1-4.1-60.5c-2.7-8.2-6.3-14.7-9.6-17.1c-1.3-1-1.6-1-3.1,0.2c-4.7,3.8-10.1,14.6-13.1,26.6
			c-2.9,11.2-4,21.2-4.1,34.1l0,9.1l2.3,3.4L336.4,139.5z"/>
	</g>
</g>
</svg>
