<?xml version="1.0" encoding="utf-8"?>
<!-- Generator: Adobe Illustrator 28.2.0, SVG Export Plug-In . SVG Version: 6.00 Build 0)  -->
<svg version="1.1" id="Layer_1" xmlns="http://www.w3.org/2000/svg" xmlns:xlink="http://www.w3.org/1999/xlink" x="0px" y="0px"
	 viewBox="0 0 512 512" style="enable-background:new 0 0 512 512;" xml:space="preserve">
<style type="text/css">
	.st0{fill:#FFFFFF;}
</style>
<g id="document" transform="scale(1.6666666666666667 1.6666666666666667) translate(150.0 150.0)">
	<path class="st0" d="M139.8,28.8C154-44.8,104.6-115.9,29.4-129.8c-75.3-13.9-147.8,34.5-162,108.2S-97.4,123.1-22.2,137
		C53.1,150.9,125.6,102.4,139.8,28.8z"/>
	<path class="st0" d="M137.3,3.6c0,57.8-38.2,106.8-91.3,124.2c0.2-1.2,0.3-2.6,0.3-4.1c0.1-23.1,0.2-37.5,0.2-54.8
		c0-12.1-0.2-18.8-0.2-18.8c1.9,0,21.9-6.2,31-12.5S96.1,19.3,97.5,2.1c1.3-17.2-6.2-37.5-12.9-49.6c-13.3-24.1-24.3-38.8-33.9-47
		c-9.6-8.1-16.7-6.3-22.9-1.5C21.5-91,12.4-76.2,5.9-70.2c-3.1,2.9-11,12.4-21.2,3.4c-2.9-2.5-20.5-26.7-31.4-23.5
		c-13.6,3.8-29.1,28.3-36.4,45.4c-9.3,21.8-11.2,34.8-6.3,65.9c4.9,31,7.8,62.2,12.2,79.2c1,4.1,2.4,7.7,4.1,10.8
		c-34.4-23.6-57-63-57-107.3c0-72.3,59.8-131,133.7-131S137.3-68.7,137.3,3.6z"/>
	<path d="M3.6-146.8C-81.2-146.8-150-79.5-150,3.6S-81.2,154,3.6,154S157.2,86.7,157.2,3.6S88.4-146.8,3.6-146.8z M46,127.8
		c0.2-1.2,0.3-2.6,0.3-4.1c0.1-23.1,0.2-37.5,0.2-54.8c0-12.1-0.2-18.8-0.2-18.8c1.9,0,21.9-6.2,31-12.5S96.1,19.3,97.5,2.1
		c1.3-17.2-6.2-37.5-12.9-49.6c-13.3-24.1-24.3-38.8-33.9-47c-9.6-8.1-16.7-6.3-22.9-1.5C21.5-91,12.4-76.2,5.9-70.2
		c-3.1,2.9-11,12.4-21.2,3.4c-2.9-2.5-20.5-26.7-31.4-23.5c-13.6,3.8-29.1,28.3-36.4,45.4c-9.3,21.8-11.2,34.8-6.3,65.9
		c4.9,31,7.8,62.2,12.2,79.2c1,4.1,2.4,7.7,4.1,10.8c-34.4-23.6-57-63-57-107.3c0-72.3,59.8-131,133.7-131s133.7,58.7,133.7,131
		C137.3,61.4,99.1,110.4,46,127.8z"/>
	<path class="st0" d="M-103-3.9l94.6-9.7l-0.3-7.3l-94.6,9.7L-103-3.9z"/>
	<path class="st0" d="M16-14.3c0.8-10-6.7-18.7-16.9-19.5s-19.1,6.6-19.9,16.6C-21.6-7.3-14,1.4-3.9,2.3S15.2-4.4,16-14.3z"/>
	<path class="st0" d="M68.8-21.9c0.8-10-6.7-18.7-16.9-19.5C41.8-42.2,32.8-34.8,32-24.8c-0.8,10,6.7,18.7,16.9,19.5
		S68-12,68.8-21.9z"/>
	<path class="st0" d="M-8.6-13.8l70.1-7.6L61-27.9l-70,7.6L-8.6-13.8z"/>
	<path class="st0" d="M58.7-20.9L110-33.5l-0.6-6.5L58-27.4L58.7-20.9z"/>
</g>
</svg>
