<?xml version="1.0" encoding="utf-8"?>
<!-- Generator: Adobe Illustrator 27.7.0, SVG Export Plug-In . SVG Version: 6.00 Build 0)  -->
<svg version="1.1"
	 id="svg4578" xmlns:svg="http://www.w3.org/2000/svg" xmlns:rdf="http://www.w3.org/1999/02/22-rdf-syntax-ns#" xmlns:sodipodi="http://sodipodi.sourceforge.net/DTD/sodipodi-0.dtd" xmlns:cc="http://creativecommons.org/ns#" xmlns:inkscape="http://www.inkscape.org/namespaces/inkscape" xmlns:dc="http://purl.org/dc/elements/1.1/" inkscape:export-xdpi="135" inkscape:export-ydpi="135" sodipodi:docname="favicon.svg"
	 xmlns="http://www.w3.org/2000/svg" xmlns:xlink="http://www.w3.org/1999/xlink" x="0px" y="0px" viewBox="0 0 512 512"
	 style="enable-background:new 0 0 512 512;" xml:space="preserve">
<style type="text/css">
	.st0{fill:#FFFFFF;}
</style>
<g>
	<path class="st0" d="M408.5,216.7h-305c-3.5,0-6.6,2.6-6.6,6.1v66.5c0,3.3,2.8,6.1,6.6,6.1h305c3.5,0,6.6-2.8,6.6-6.1v-66.5
		C415.1,219.5,412.3,216.7,408.5,216.7z M140.7,279.2c-12.9,0-23.3-10.6-23.3-23.3c-0.2-12.9,10.3-23.3,23.3-23.3
		c12.9,0,23.3,10.6,23.3,23.3C163.9,268.9,153.4,279.2,140.7,279.2z"/>
	<circle class="st0" cx="140.7" cy="158.2" r="12.2"/>
	<circle class="st0" cx="140.7" cy="255.9" r="12.2"/>
	<path class="st0" d="M408.5,119h-305c-3.5,0-6.6,2.6-6.6,6.1v66.5c0,3.3,2.8,6.1,6.6,6.1h305c3.5,0,6.6-2.8,6.6-6.1v-66.5
		C415.1,121.8,412.3,119,408.5,119z M140.7,181.5c-12.9,0-23.3-10.6-23.3-23.3c-0.2-12.9,10.3-23.3,23.3-23.3
		c12.9,0,23.3,10.6,23.3,23.3C163.9,171.1,153.4,181.5,140.7,181.5z"/>
	<path class="st0" d="M500.5,0h-489C5.1,0,0,5.1,0,11.5v489c0,6.4,5.1,11.5,11.5,11.5h489c6.3,0,11.5-5.1,11.5-11.5v-489
		C512,5.1,506.9,0,500.5,0z M462.4,436.2c0,4.1-3.3,7.4-7.4,7.4H57c-4.1,0-7.4-3.3-7.4-7.4V75.9c0-4.1,3.3-7.5,7.4-7.5h398
		c4.1,0,7.4,3.3,7.4,7.4V436.2z"/>
	<path class="st0" d="M408.5,314.4h-305c-3.5,0-6.6,2.6-6.6,6.1V387c0,3.3,2.8,6.1,6.6,6.1h305c3.5,0,6.6-2.8,6.6-6.1v-66.5
		C415.1,317.3,412.3,314.4,408.5,314.4z M140.7,376.9c-12.9,0-23.3-10.6-23.3-23.3c-0.2-12.9,10.3-23.3,23.3-23.3
		c12.9,0,23.3,10.6,23.3,23.3C163.9,366.6,153.4,376.9,140.7,376.9z"/>
	<circle class="st0" cx="140.7" cy="353.7" r="12.2"/>
</g>
</svg>
