<?xml version="1.0" encoding="utf-8"?>
<!-- Generator: Adobe Illustrator 28.2.0, SVG Export Plug-In . SVG Version: 6.00 Build 0)  -->
<svg version="1.1" id="Layer_1" xmlns="http://www.w3.org/2000/svg" xmlns:xlink="http://www.w3.org/1999/xlink" x="0px" y="0px"
	 viewBox="0 0 512 512" style="enable-background:new 0 0 512 512;" xml:space="preserve">
<style type="text/css">
	.st0{fill:#4492F1;}
</style>
<g>
	<path class="st0" d="M221.9,450.9c9.6,3.4,19.9-3.6,19.9-13.8V101.7c0-3.7-1.4-7.5-4.4-9.8C219.9,78,179.9,60.2,128,60.2
		c-44.9,0-86.8,11.8-111.9,21.4C6,85.6,0,95.5,0,106.3v329.2c0,10.6,11.4,18,21.4,14.7c28-9.3,72.4-20.1,106.6-20.1
		C158.1,430,198.2,442.5,221.9,450.9z M290.1,450.9c23.6-8.4,63.7-20.9,93.9-20.9c34.2,0,78.6,10.8,106.6,20.1
		c10,3.4,21.4-4.1,21.4-14.7V106.3c0-10.8-6-20.7-16.1-24.5c-25.1-9.7-67-21.5-111.9-21.5c-51.9,0-91.9,17.8-109.3,31.6
		c-2.9,2.3-4.4,6-4.4,9.8v335.5C270.2,447.3,280.6,454.3,290.1,450.9L290.1,450.9z"/>
</g>
</svg>
