<?xml version="1.0" encoding="utf-8"?>
<!-- Generator: Adobe Illustrator 28.2.0, SVG Export Plug-In . SVG Version: 6.00 Build 0)  -->
<svg version="1.1" id="Layer_1" xmlns="http://www.w3.org/2000/svg" xmlns:xlink="http://www.w3.org/1999/xlink" x="0px" y="0px"
	 viewBox="0 0 512 512" style="enable-background:new 0 0 512 512;" xml:space="preserve">
<style type="text/css">
	.st0{fill:#FFFFFF;}
</style>
<g>
	<path class="st0" d="M493.9,188c-10,0-18.1,8.1-18.1,18.1c0,148.9-120.7,269.7-269.7,269.7c-10,0-18.1,8.1-18.1,18.1
		s8.1,18.1,18.1,18.1C375,512,512,375,512,206.1C512,196.1,503.9,188,493.9,188z"/>
	<path class="st0" d="M384.7,304c17.4-28.4,34.2-66.3,30.9-119.3C408.7,74.9,309.3-8.4,215.4,0.7c-36.8,3.5-74.5,33.5-71.2,87.2
		c1.5,23.3,12.9,37.1,31.4,47.7c17.7,10.1,40.3,16.5,66.1,23.7c31.1,8.7,67.1,18.6,94.8,39C369.7,222.6,392.4,251,384.7,304z"/>
	<path class="st0" d="M31.3,112C13.9,140.4-2.9,178.3,0.4,231.3c6.9,109.8,106.3,193.1,200.2,184.1c36.8-3.5,74.5-33.5,71.2-87.2
		c-1.5-23.3-12.9-37.1-31.4-47.7c-17.7-10.1-40.3-16.5-66.1-23.7c-31.1-8.7-67.1-18.6-94.8-39C46.3,193.4,23.6,165,31.3,112z"/>
</g>
</svg>
