<?xml version="1.0" encoding="utf-8"?>
<!-- Generator: Adobe Illustrator 28.2.0, SVG Export Plug-In . SVG Version: 6.00 Build 0)  -->
<svg version="1.1" id="Layer_1" xmlns="http://www.w3.org/2000/svg" xmlns:xlink="http://www.w3.org/1999/xlink" x="0px" y="0px"
	 viewBox="0 0 512 512" style="enable-background:new 0 0 512 512;" xml:space="preserve">
<style type="text/css">
	.st0{fill:#007BFF;}
	.st1{fill:#FFFFFF;}
	.st2{fill:none;stroke:#FFFFFF;stroke-linecap:square;}
	.st3{fill:none;stroke:#007BFF;stroke-linecap:square;}
	.st4{fill:#003E80;}
</style>
<g>
	<g>
		<path class="st0" d="M64,0h384c35.3,0,64,28.7,64,64v384c0,35.3-28.7,64-64,64H64c-35.3,0-64-28.7-64-64V64C0,28.7,28.7,0,64,0z"
			/>
	</g>
	<g>
		<path class="st1" d="M383.8,182h35.9c-2.5-19.7-8.4-37.1-17.7-52.3s-20.9-27.9-34.8-38.3c-13.9-10.4-29.4-18.2-46.5-23.5
			c-17.1-5.3-34.6-7.9-52.5-7.9c-29.6,0-55.5,5.4-77.9,16.1s-40.9,25.2-55.7,43.3s-25.9,39-33.3,62.6c-7.4,23.6-11.1,48.4-11.1,74.4
			s3.7,50.9,11.1,74.4c7.4,23.6,18.5,44.4,33.3,62.3s33.4,32.3,55.7,43c22.4,10.7,48.3,16.1,77.9,16.1c22.2,0,42.3-3.5,60.5-10.6
			c18.1-7,33.9-17.1,47.3-30.1c13.4-13,24.3-28.9,32.7-47.5s13.9-39.6,16.4-62.8h-35.9c-1.8,16.9-5.8,32.6-12.1,47.3
			s-14.6,27.4-24.8,38.3c-10.2,10.9-22.4,19.5-36.4,25.9s-29.9,9.5-47.5,9.5c-25,0-46.5-4.8-64.4-14.3c-18-9.5-32.6-22.1-44.1-37.7
			c-11.4-15.7-19.9-33.4-25.3-53.3c-5.5-19.9-8.2-40-8.2-60.5c0-20.8,2.7-41,8.2-60.7c5.5-19.7,13.9-37.4,25.3-53.1
			s26.1-28.2,44.1-37.8s39.4-14.3,64.4-14.3c13.7,0,26.8,2,39.3,6.1c12.5,4,23.9,9.9,34.3,17.7s19.2,17.3,26.4,28.8
			C375.4,154.7,380.6,167.6,383.8,182L383.8,182z"/>
		<path class="st2" d="M383.8,182h35.9c-2.5-19.7-8.4-37.1-17.7-52.3s-20.9-27.9-34.8-38.3c-13.9-10.4-29.4-18.2-46.5-23.5
			c-17.1-5.3-34.6-7.9-52.5-7.9c-29.6,0-55.5,5.4-77.9,16.1s-40.9,25.2-55.7,43.3s-25.9,39-33.3,62.6c-7.4,23.6-11.1,48.4-11.1,74.4
			s3.7,50.9,11.1,74.4c7.4,23.6,18.5,44.4,33.3,62.3s33.4,32.3,55.7,43c22.4,10.7,48.3,16.1,77.9,16.1c22.2,0,42.3-3.5,60.5-10.6
			c18.1-7,33.9-17.1,47.3-30.1c13.4-13,24.3-28.9,32.7-47.5s13.9-39.6,16.4-62.8h-35.9c-1.8,16.9-5.8,32.6-12.1,47.3
			s-14.6,27.4-24.8,38.3c-10.2,10.9-22.4,19.5-36.4,25.9s-29.9,9.5-47.5,9.5c-25,0-46.5-4.8-64.4-14.3c-18-9.5-32.6-22.1-44.1-37.7
			c-11.4-15.7-19.9-33.4-25.3-53.3c-5.5-19.9-8.2-40-8.2-60.5c0-20.8,2.7-41,8.2-60.7c5.5-19.7,13.9-37.4,25.3-53.1
			s26.1-28.2,44.1-37.8s39.4-14.3,64.4-14.3c13.7,0,26.8,2,39.3,6.1c12.5,4,23.9,9.9,34.3,17.7s19.2,17.3,26.4,28.8
			C375.4,154.7,380.6,167.6,383.8,182L383.8,182z"/>
	</g>
	<g>
		<path class="st1" d="M202.9,208.8h107.2c4.4,0,8,3.6,8,8v84.8c0,4.4-3.6,8-8,8H202.9c-4.4,0-8-3.6-8-8v-84.8
			C194.9,212.4,198.5,208.8,202.9,208.8z"/>
		<path class="st2" d="M202.9,208.8h107.2c4.4,0,8,3.6,8,8v84.8c0,4.4-3.6,8-8,8H202.9c-4.4,0-8-3.6-8-8v-84.8
			C194.9,212.4,198.5,208.8,202.9,208.8z"/>
		<path class="st1" d="M195.6,216.2c1.6,0.1,0.8-8.2,0.8-14.2c1-8.5,42.9-15.7,42.9-15.7v22.4l56-11.2"/>
		<path class="st2" d="M195.6,216.2c1.6,0.1,0.8-8.2,0.8-14.2c1-8.5,42.9-15.7,42.9-15.7v22.4l56-11.2"/>
		<path class="st3" d="M202.4,208.8h51.2c4.4,0,8,3.6,8,8v17.6c0,4.4-3.6,8-8,8h-51.2c-4.4,0-8-3.6-8-8v-17.6
			C194.4,212.4,198,208.8,202.4,208.8z"/>
		<path class="st3" d="M261.6,225.6h56"/>
		<path class="st4" d="M208.4,214.3h39.2c1.5,0,2.8,1.3,2.8,2.8v16.8c0,1.5-1.3,2.8-2.8,2.8h-39.2c-1.5,0-2.8-1.3-2.8-2.8v-16.8
			C205.6,215.5,206.9,214.3,208.4,214.3z"/>
		<path class="st3" d="M208.4,214.3h39.2c1.5,0,2.8,1.3,2.8,2.8v16.8c0,1.5-1.3,2.8-2.8,2.8h-39.2c-1.5,0-2.8-1.3-2.8-2.8v-16.8
			C205.6,215.5,206.9,214.3,208.4,214.3z"/>
		<path class="st3" d="M194.4,276h123.2"/>
	</g>
</g>
</svg>
