<?xml version="1.0" encoding="utf-8"?>
<!-- Generator: Adobe Illustrator 28.2.0, SVG Export Plug-In . SVG Version: 6.00 Build 0)  -->
<svg version="1.1" id="Layer_1" xmlns="http://www.w3.org/2000/svg" xmlns:xlink="http://www.w3.org/1999/xlink" x="0px" y="0px"
	 viewBox="0 0 512 512" style="enable-background:new 0 0 512 512;" xml:space="preserve">
<style type="text/css">
	.st0{display:none;fill:#FFFFFF;}
	.st1{fill:#FFFFFF;}
</style>
<g id="document" transform="scale(1.6666666666666667 1.6666666666666667) translate(150.0 150.0)">
	<path class="st0" d="M139.8,28.8C154-44.8,104.6-115.9,29.4-129.8c-75.3-13.9-147.8,34.5-162,108.2S-97.4,123.1-22.2,137
		C53.1,150.9,125.6,102.4,139.8,28.8z"/>
	<g>
		<path class="st1" d="M50.7-94.4c-9.6-8.1-16.7-6.3-22.9-1.5C21.5-91,12.4-76.2,5.9-70.2c-3.1,2.9-11,12.4-21.2,3.4
			c-2.9-2.5-20.5-26.7-31.4-23.5c-13.6,3.8-29.1,28.3-36.4,45.4c-5.2,12-8,21.4-8.8,32.6l71.5-7.4c2-8.7,10.2-14.9,19.5-14.2
			c7.1,0.6,12.9,5,15.5,10.9L32-24.8c0,0,0,0,0,0c0.8-10,9.7-17.4,19.9-16.6c7.3,0.6,13.3,5.3,15.8,11.6l22.6-5.6
			c-1.8-4.5-3.8-8.6-5.7-12.1C71.3-71.5,60.3-86.2,50.7-94.4z"/>
		<path class="st1" d="M3.6-146.8C-81.2-146.8-150-79.5-150,3.6S-81.2,154,3.6,154S157.2,86.7,157.2,3.6S88.4-146.8,3.6-146.8z
			 M46,127.8c0.2-1.2,0.3-2.6,0.3-4.1c0.1-23.1,0.2-37.5,0.2-54.8c0-12.1-0.2-18.8-0.2-18.8c1.1,0,7.8-2,15.2-4.8
			c0.8-0.3,1.6-0.6,2.5-1c0.4-0.2,0.8-0.3,1.2-0.5c1.6-0.7,3.3-1.4,4.8-2.2c0.4-0.2,0.8-0.4,1.2-0.6c2.3-1.1,4.4-2.3,6.1-3.5
			s3.4-2.6,5.1-4.2s3.3-3.4,4.9-5.3c0.5-0.7,1-1.3,1.5-2c0.5-0.7,1-1.4,1.4-2.2c0.5-0.7,0.9-1.5,1.3-2.3c3-5.5,5.2-12,5.8-19.5
			c0.8-10.2-1.5-21.4-4.9-31.4l-23.7,5.8c0,0.5,0,1-0.1,1.5C68-12,59.1-4.5,48.9-5.3c-7.8-0.6-14.1-6-16.2-13l-16.6,1.8
			c0,0.7,0,1.4,0,2.2C15.2-4.4,6.3,3.1-3.9,2.3C-12.3,1.6-19-4.6-20.5-12.4L-92-5c0.1,7.3,1,15.6,2.6,25.9
			c4.9,31,7.8,62.2,12.2,79.2c1,4.1,2.4,7.7,4.1,10.8c-34.4-23.6-57-63-57-107.3c0-72.3,59.8-131,133.7-131s133.7,58.7,133.7,131
			C137.3,61.4,99.1,110.4,46,127.8z"/>
	</g>
</g>
</svg>
