<?xml version="1.0" encoding="utf-8"?>
<!-- Generator: Adobe Illustrator 28.2.0, SVG Export Plug-In . SVG Version: 6.00 Build 0)  -->
<svg version="1.1"
	 id="svg2" xmlns:inkscape="http://www.inkscape.org/namespaces/inkscape" xmlns:svg="http://www.w3.org/2000/svg" xmlns:sodipodi="http://sodipodi.sourceforge.net/DTD/sodipodi-0.dtd" xmlns:cc="http://creativecommons.org/ns#" xmlns:dc="http://purl.org/dc/elements/1.1/" xmlns:rdf="http://www.w3.org/1999/02/22-rdf-syntax-ns#" xmlns:osb="http://www.openswatchbook.org/uri/2009/osb" inkscape:export-filename="/Users/ckrey/OwnTracks/owntracks/assets/logos/Logo1024.png"
	 xmlns="http://www.w3.org/2000/svg" xmlns:xlink="http://www.w3.org/1999/xlink" x="0px" y="0px" viewBox="0 0 1024 1024"
	 style="enable-background:new 0 0 1024 1024;" xml:space="preserve">
<style type="text/css">
	.st0{opacity:0.97;fill:#3F72B5;}
	.st1{fill:#FFFFFF;}
	.st2{fill:#FFFFFF;stroke:#FFFFFF;stroke-width:16.4495;stroke-linejoin:round;}
	.st3{fill:#3F72B5;}
	.st4{fill:#FFFFFF;stroke:#FFFFFF;stroke-width:11.8325;stroke-linecap:round;stroke-linejoin:round;}
</style>
<circle class="st0" cx="512" cy="512" r="512"/>
<g>
	<g>
		
			<path id="path4140" sodipodi:cx="512" sodipodi:cy="455.06216" sodipodi:end="4.7220372" sodipodi:open="true" sodipodi:rx="260" sodipodi:ry="260" sodipodi:start="4.7225992" sodipodi:type="arc" class="st1" d="
			M515.32,81.23c179.47,1.83,323.47,148.79,321.67,328.26c-1.81,179.47-148.74,323.49-328.21,321.71
			c-179.47-1.78-323.51-148.7-321.76-328.17c1.76-179.47,148.65-323.54,328.12-321.8"/>
		<path class="st2" d="M689.9,580.97c-45.33,45.91-108.28,74.37-177.9,74.37c-69.53,0-132.43-28.4-177.74-74.21l-82.19,0.04
			l265.52,354.89l255.6-355.13L689.9,580.97z"/>
	</g>
	<circle id="path4175_00000109710847993325628880000001977300949042813345_" class="st3" cx="513.43" cy="405.34" r="250"/>
	<g>
		<rect id="rect4177" x="471.22" y="464.71" class="st1" width="84.43" height="223.13"/>
		
			<path id="path4179" inkscape:flatsided="true" inkscape:randomized="0" inkscape:rounded="0" inkscape:transform-center-x="2.2508261" inkscape:transform-center-y="-25.821509" sodipodi:arg1="2.6536291" sodipodi:arg2="3.7008267" sodipodi:cx="510" sodipodi:cy="554.36212" sodipodi:r1="79.672157" sodipodi:r2="44.721359" sodipodi:sides="3" sodipodi:type="star" class="st4" d="
			M384.12,467.38l130.43-182.17l128.11,182.31L384.12,467.38z"/>
	</g>
</g>
</svg>
