<?xml version="1.0" encoding="utf-8"?>
<!-- Generator: Adobe Illustrator 27.7.0, SVG Export Plug-In . SVG Version: 6.00 Build 0)  -->
<svg version="1.1" id="Layer_1" xmlns="http://www.w3.org/2000/svg" xmlns:xlink="http://www.w3.org/1999/xlink" x="0px" y="0px"
	 viewBox="0 0 512 512" style="enable-background:new 0 0 512 512;" xml:space="preserve">
<style type="text/css">
	.st0{fill:#535150;}
	.st1{fill:#171518;}
	.st2{fill:#010101;}
</style>
<g>
	<path d="M184.8,0c0.5,0,1,0,1.5,0c1.7,0.2,3.5,0.5,5.2,0.7c0.9,0.1,1.9,0.2,2.8,0.2c3,1,5.9,2.1,8.9,3c0.6,0.2,1.5,0,2.1-0.3
		c3.3-1.4,6.5-1.3,9.9-0.4c3.2,0.8,6,3.3,9.7,1.8c0.9-0.4,1.9-0.3,2.8-0.5c5.5-0.8,9.7,1.9,13.5,5.1c1.9,1.6,3.8,1.3,5.8,1.4
		c2,0.1,4-0.1,5.9,0.3c4,0.7,6.4,3.9,9.4,6.3c1.6,1.2,3.5,2.6,5.4,2.9c5.1,0.9,9.4,2.7,12.5,7.1c1.3,1.9,3.1,3.2,5.8,3.7
		c4.5,0.9,8.7,2.8,10.8,7.4c0.9,1.9,2,3.7,2.9,5.6c1,2,2.3,3.3,4.6,3.9c1.5,0.3,3.1,1.1,4.2,2.2c1.5,1.6,2.8,3.6,3.9,5.6
		c6.6,11.8,9.6,24.5,9.8,38c0,2.9,0.5,5.8,0.7,8.6c2.2-2.6,4.4-5.2,6.7-7.7c8.5-9.2,18.1-16.7,29.8-21.4c3.3-1.3,7-3.1,10.5-1.3
		c3.6,1.8,6.6,1,9.8-0.6c5.6-2.9,11.2-2.5,16.9,0c1.8,0.8,4.2,1.1,6.2,0.9c4.5-0.6,8.7-0.7,12.7,2c2.6,1.8,5.6,2.6,8.8,2.1
		c5.6-0.9,10.9-0.2,14.6,4.5c2,2.5,4.2,2.9,7,3.1c5.2,0.2,10.3,1.5,13.4,5.9c2.3,3.3,5.2,4.4,8.6,5.5c2.6,0.9,5.2,2.1,6.5,4.9
		c1.2,2.6,2.8,4.4,5.7,4.8c0.8,0.1,1.5,0.4,2.3,0.7c5.8,2.4,11,5.6,13.5,11.7c0.8,1.9,2.2,2.7,3.9,3.3c4,1.4,7.8,3.1,10,7
		c0.8,1.5,1.5,3,2.3,4.5c0,1.5,0,3,0,4.5c-0.3,0.1-0.7,0.1-0.9,0.2c-1.6,2.5-3.2,5-4.7,7.6c-0.5,0.9-0.9,2.2-0.7,3.1
		c2,6.6-0.2,12.2-6,16.1c-1.7,1.2-3,2.3-2.8,4.7c0.1,1.4-0.5,2.9-1.1,4.2c-2,4.2-5.8,6.6-9.5,9c-0.9,0.6-2.1,1.5-2.2,2.4
		c-0.6,5.6-4,8.7-8.5,11.2c-2.6,1.4-5.6,1.9-6.9,5.5c-1.8,5.2-6.9,7.1-11.7,8.9c-2.4,0.9-5.2,1.3-7.1,2.7c-2.4,1.8-4.1,4.4-5.7,6.2
		c4.8,3.7,10.1,7,14.6,11.2c12.9,12,18.5,27.4,18.6,44.6c0.3,40.2,0.2,80.5,0.1,120.7c-0.1,21.8-0.4,43.5-1,65.3
		c-0.2,6.4-2.6,12.5-5.5,18.3c-4.2,8.2-9.8,15.2-17.3,20.7c-7.5,5.5-15.6,9.5-24.8,10.9c-0.5,0.1-0.8,0.9-1.2,1.4
		c-125.4,0-250.7,0-376.1,0c-0.5-2.1-2.3-1.3-3.6-1.6c-10.7-2.5-20-7.7-27.7-15.4c-4.1-4.1-7.4-9.1-10.6-14
		c-5.3-8.1-7.7-17.4-7.7-27C1.9,398.9,1.9,343.6,2,288.4c0-7.2,0.2-14.4,0.5-21.6c0.3-6.3,2.3-12.2,4.8-18
		c4.1-9.3,10.4-16.9,18.3-23.1c5.6-4.5,12-7.5,18.8-9.6c8.7-2.7,17.6-2.8,26.5-2.8c8.6-0.1,17.3-0.1,25.9,0c6.1,0.1,12-0.7,17.7-2.7
		c6.1-2.1,12-4.6,17-8.9c4.8-4.1,9.4-8.3,13.9-12.6c8-7.7,15.8-15.7,24-23.2c5.1-4.6,11.4-7.4,18-9.3c4.1-1.2,8.3-2.2,12.5-3.3
		c-0.6-0.3-1.2-0.7-1.8-0.8c-8.4-1.2-15.6-5.1-22.3-9.9c-5.7-4-10.7-8.5-10.1-16.5c0-0.6-0.5-1.3-1-1.8c-2.3-2.2-4.9-4.2-6.9-6.7
		c-2.8-3.4-3.7-7.4-3.4-11.8c0.1-1.2-0.1-2.5-0.6-3.5c-1.5-2.9-3.5-5.5-4.9-8.4c-1.6-3.1-2.7-6.7-1.4-10c1.2-3,0.2-5.1-1.1-7.7
		c-2.3-4.7-3.2-9.5-0.2-14.5c0.6-1,0.3-2.6,0.1-3.9c-0.2-1.6-0.9-3.1-1.3-4.7c-1-4.2-1.5-8.4,1.6-11.9c1.5-1.7,1.6-3.2,1-5.2
		c-1.4-4.8-1.7-9.8,2.3-13.3c3.3-2.9,5-6,4.8-10.3c0-0.3,0.1-0.6,0.2-1c1.2-5.5,4-10,10.4-10.6c1.8,0.1,3.7,0.1,5.5,0.2
		c1.4,0.4,2.9,0.5,4.1,1.2C179,4.6,181.6,1.2,184.8,0z M438.8,138.6c-1.1,0.3-2.2,0.8-3.4,0.9c-6.4,0.9-12.8,1.5-19.1,2.6
		c-7.6,1.4-15.2,3-22.7,4.9c-10,2.5-20.1,5-29.9,8.1c-7.1,2.3-13.8,5.5-20.6,8.5c-0.9,0.4-1.7,1.9-1.8,2.9c-0.2,2,0.2,4.1,0.4,6.1
		c0.7,8.9,4.9,16.2,10.8,22.6c4.6,5.2,10.1,9.3,16.1,12.7c3.2,1.8,6.5,3.8,10.1,4.6c3.4,0.8,7.1,0.2,10.7,0.2
		c0.1-0.7,0.3-1.3,0.4-2.1c7.9,2.3,15.9,3.4,24.2,2.4c-0.6-1.4-1.2-2.7-1.9-4.2c9,0,17.7,0.8,26.7-1.2c-3.1-1.9-5.7-3.4-8.3-5
		c0.1-0.3,0.2-0.6,0.3-0.9c8.9-1.2,18.1-1.4,26.8-5.5c-3-1.6-5.7-3-8.7-4.6c8-2.7,15.3-5.2,22.7-7.7c0-0.2,0-0.4,0-0.7
		c-2.7-1.2-5.4-2.4-8.1-3.6c0.1-0.3,0.1-0.6,0.2-0.9c7-2.9,14.1-5.7,20-10.5c-5.4-0.9-7.6-2-9.6-4.9c6.6-3.2,14.1-4.6,19.5-10.3
		c-0.5-0.3-0.9-0.6-1.4-0.7c-2.2-0.7-4.5-1.3-6.7-2c-1.2-0.4-1.9-0.8-0.7-2.4c3.6-4.5,7.6-8.4,12.4-11.5c0.6-0.4,0.9-1,1.4-1.6
		c-0.6-0.4-1-1-1.7-1.3c-3-1.2-6.1-2.1-9.1-3.3c-3.6-1.4-7.1-2.9-11.3-4.6c3-1.5,5.4-2.7,7.8-3.9c-4.9-4.1-11.9-5.2-15.9-5.9
		c-2.8-0.5-5.6-0.6-8.4-1c-0.9-0.2-1.7-0.9-2.6-1.4c0.6-1,1.1-2.1,2-2.8c1.4-1.1,3-1.9,4.6-2.8c0-0.3,0-0.6-0.1-0.9
		c-6-0.5-12.1-1.1-18.1-1.7c-1.6-0.2-3.2-0.6-5-1c1.5-4.2,5.7-4.1,8.6-6.7c-2.9-0.3-5.3-0.9-7.6-0.8c-5.2,0.2-10.5,0.6-15.7,0.9
		c-0.7,0-1.7-0.2-2-0.6c-0.3-0.6-0.3-1.7,0-2.4c0.3-0.8,1.1-1.5,1.7-2.1c1.1-0.9,2.3-1.8,3.5-2.6c-3.1-0.2-6.1-0.2-9,0.3
		c-3.8,0.8-7.4,2-11.1,3c-2.6,0.8-3.3,0.4-3.1-2.2c0.2-2,1.1-3.8,1.7-5.8c-6.6,0.5-12.6,3.3-18.3,6.5c-3-3.2,0.1-6,0.6-9.3
		c-8.3,2.1-14.8,7.2-22.5,10.3c0-2.7,0-5.1,0-7.8c-1.6,0.7-3.1,1.1-4.4,1.8c-10.5,5.7-19.8,13-27.4,22.3c-4.9,6-8.1,12.9-8.8,20.6
		c-0.6,7.2,2.3,13.4,6.6,19c2,2.6,3.5,4,7.4,2.7c8.9-3,18-5.3,27.2-7.3c8.9-2,18-3.5,27-4.8c6.9-1,13.9-1.6,20.9-2
		c7.4-0.4,14.9-0.3,22.3-0.5C438.5,137.6,438.6,138.1,438.8,138.6z M239.2,482c60,0,120,0,180,0c1.6,0,3.3-0.3,4.9-0.5
		c7.9-1.3,14-5.7,18.6-12c4.6-6.4,5.5-13.7,5.5-21.5c-0.1-58.3-0.1-116.6-0.1-174.9c0-2.7-0.3-5.4-1.1-8
		c-3.8-13.5-14.6-21.5-28.6-21.8c-12.1-0.3-24.1,0-36.2-0.3c-5.4-0.1-10.8-0.4-16.1-1.5c-10.3-2.2-20-6-29.1-11.5
		c-9.1-5.5-16.4-13.2-24-20.4c-6.1-5.8-11.9-11.8-17.8-17.8c-5.6-5.6-12.4-8.2-20.2-8.3c-23.4-0.1-46.8,0-70.2-0.1
		c-8.5-0.1-15.5,3.3-21.5,9c-7.1,6.7-13.8,13.7-20.6,20.7c-6.7,6.8-13.9,12.9-22.2,17.8c-12.6,7.5-26.3,11.3-40.7,12.1
		c-13.6,0.8-27.3,0.4-41,0.7c-2.4,0-4.9,0.3-7.2,1c-10.8,3.4-20,15.2-19.9,26.9c0.1,61,0.1,122,0.1,183c0,1.4-0.2,2.9,0.1,4.2
		c3.2,13,14.9,23.4,28.7,23.4C120.2,481.9,179.7,482,239.2,482z M196.1,147c0.4,0.4,0.8,0.8,1.3,1c1.5,0.5,3.1,0.9,4.6,1.5
		c9.1,3.3,18.4,5.3,28.2,4.6c5-0.3,10.1-0.1,15.2-0.1c0.7,0,1.3,0,2-0.1c8.9-1.7,15.8-6.6,21.7-13.3c1.1-1.3,1.3-2.5,0.5-4.1
		c-2.2-4.4-4-9-6.5-13.2c-4.6-7.8-9.4-15.7-14.6-23.1c-5.1-7.3-10.7-14.4-16.3-21.3c-5.4-6.6-11.1-13-16.8-19.5
		c-2.9-3.3-5.9-6.6-9.3-10.4c1.3,0.6,2.2,0.8,2.7,1.3c5.6,4.9,11.3,9.6,16.7,14.7c5.1,4.8,10.1,9.8,14.9,15
		c6.4,6.9,12.9,13.7,18.7,21c6.7,8.5,13.1,17.4,19,26.6c2.5,4,4.5,5.3,9.2,4c9.8-2.6,16.6-8.1,20.1-17.5c2.7-7.3,2.7-14.8,2.1-22.5
		c-0.5-7.1-2.2-13.9-4.2-20.7c-1.1-3.6-2.7-7-4.3-10.9c-1.4,2-2.4,3.6-3.5,5.1c-1.1,1.4-1.9,1.3-2.6-0.4c-1.6-4.2-3.3-8.4-5.1-12.5
		c-1.2-2.7-2.7-5.3-4.1-8c-1.1,2.2-1.8,4-2.8,5.6c-0.6,0.9-1.6,1.5-2.4,2.2c-0.5-0.8-1.2-1.5-1.6-2.3c-2.6-4.6-5.2-9.3-7.8-13.9
		c-0.3-0.5-0.2-1.2-0.3-1.8c-0.4,0.3-0.8,0.6-1.2,0.9c-0.4,3.3-1.2,6.3-4.9,7.6c-3.7-6.6-7.5-13.1-14.1-17.9
		c0.4,2.2,0.8,3.9,0.8,5.5c0,1.1-0.3,2.8-1,3.2c-1.5,0.9-2.6-0.6-3.4-1.7c-4-5.5-9.5-9.2-15-12.9c-0.5-0.3-1.3-0.2-2.1-0.2
		c1.6,3.2,4,5.8,2.8,9.7c-1-0.4-2-0.5-2.7-1c-5.2-3.5-10.3-7.1-15.5-10.6c-0.6-0.4-1.5-0.5-2.3-0.7c0.9,2.2,1.7,4.1,2.2,6
		c0.2,0.8-0.2,2.1-0.8,2.6c-0.5,0.4-1.9,0.2-2.5-0.3c-2.3-1.5-4.4-3.2-6.7-4.7c-5-3.3-10.3-5.6-16.6-5.5c0.9,2,1.8,3.7,2.5,5.4
		c0.2,0.5,0.3,1.1,0.5,1.6c-0.6,0-1.2,0.1-1.7,0c-5.3-1.8-10.5-3.6-15.7-5.4c-1.8-0.6-3.6-1.2-5-1.6c1,5.9,2.1,11.5,2.7,17.2
		c0.4,3.5-0.6,4.1-4,2.8c-2-0.8-4-1.8-6.4-2.8c0.2,5.4,2.2,9.5,4.5,13.6c1.3,2.4,2.6,4.9,3.8,7.3c-0.2,0.2-0.5,0.5-0.7,0.7
		c-1.7-0.4-3.5-0.5-5.1-1.1c-1.7-0.7-3.1-1.9-5-3.1c0.5,8.7,6.3,14.9,9.1,23.1c-3.4-1-6.2-1.8-9.3-2.7c2.9,7.8,7.7,14.2,12.4,20.7
		c-0.1,0.2-0.3,0.4-0.4,0.6c-3.1-0.8-6.1-1.5-9.5-2.4c4.3,8.8,11.3,14.8,17.2,21.8c-0.1,0.2-0.2,0.4-0.4,0.5c-3-0.4-6-0.8-9.6-1.3
		c1.1,1.4,1.8,2.6,2.7,3.4c4.9,4.3,9.8,8.4,14.7,12.7c0.7,0.7,1.3,1.5,2.2,2.6c-2.8,0.4-4.9,0.7-8,1.1c1.3,1,1.9,1.7,2.8,2.2
		c3.4,2.1,6.8,4.2,10.3,6.1c2.9,1.6,6,2.9,9,4.4c0.7,0.3,1.4,1.1,1.5,1.7c0.1,0.5-0.8,1.3-1.5,1.6
		C199.9,145.6,198.1,146.2,196.1,147z"/>
	<path class="st0" d="M191.2,0c0.1,0.2,0.1,0.5,0.2,0.7c-1.7-0.2-3.5-0.5-5.2-0.7C187.9,0,189.6,0,191.2,0z"/>
	<path class="st1" d="M438.3,137.1c2.7,0,5.4,0,8.1,0c0,0.2,0.1,0.5,0.1,0.7c-2.6,0.3-5.1,0.5-7.7,0.8
		C438.6,138.1,438.5,137.6,438.3,137.1z"/>
	<path d="M239,243.5c58.8,0.2,99.2,45.6,103.7,93c2.9,30.5-5.4,57.5-25.6,80.4c-18.4,20.8-41.7,32.3-69.4,34.6
		c-30.8,2.6-57.3-7.7-79.5-28.6c-18.8-17.8-29.4-40.1-31.7-66c-2.7-30.2,6.7-56.8,26.6-79.3C180.8,257.8,207.4,243.6,239,243.5z
		 M239,422.5c42.2,0.2,75.3-33,75.2-74.9c-0.1-42.1-32.5-73.6-72.9-74.6c-43.5-1.1-74.1,34.1-76,69.9
		C162.9,389.5,200.2,422.8,239,422.5z"/>
	<path class="st2" d="M90.6,288.3c1.3,8.2-7.6,14.5-14.1,14.7c-7.7,0.2-15.1-7.5-15.3-15.6c-0.1-6.5,6.8-13.9,13.2-13.8
		C84.8,273.5,90.6,278.8,90.6,288.3z"/>
</g>
</svg>
