<?xml version="1.0" encoding="utf-8"?>
<!-- Generator: Adobe Illustrator 27.7.0, SVG Export Plug-In . SVG Version: 6.00 Build 0)  -->
<svg version="1.1" id="Layer_1" xmlns:serif="http://www.serif.com/"
	 xmlns="http://www.w3.org/2000/svg" xmlns:xlink="http://www.w3.org/1999/xlink" x="0px" y="0px" viewBox="0 0 512 512"
	 style="enable-background:new 0 0 512 512;" xml:space="preserve">
<style type="text/css">
	.st0{fill-rule:evenodd;clip-rule:evenodd;fill:#C2D2F2;}
	.st1{fill-rule:evenodd;clip-rule:evenodd;fill:#021F59;}
	.st2{clip-path:url(#SVGID_00000157302461662690923390000004236241118244388736_);}
	.st3{fill-rule:evenodd;clip-rule:evenodd;fill:#2C2C54;}
	.st4{clip-path:url(#SVGID_00000042011004778212488920000013696658064033032634_);}
	.st5{fill-rule:evenodd;clip-rule:evenodd;fill:#FFFFFF;}
</style>
<g id="Artboard7" transform="matrix(3.8109,0,0,1.66628,-5195.54,46782.5)">
	<g transform="matrix(0.660936,0,0,1.501,9046.99,-6561.18)">
		<path class="st0" d="M-11623.7-14233.8v-79.9c0-11,9-20,20-20h159.9c11,0,20,9,20,20v73.8h-34.8v6.2H-11623.7z"/>
	</g>
	<g transform="matrix(0.262405,0,0,0.600139,1381.25,-25986.7)">
		<path class="st1" d="M38-3252.9h-2.7v-176.9h221.7l82.6,89.7v68.9h2.2v18.8H234.8v-0.4H138v0.4H38V-3252.9z"/>
	</g>
	<g transform="matrix(0.660936,0,0,1.58755,9046.99,-6981.67)">
		<path class="st1" d="M-11589.9-13193.7h8.2v73.8h115.1v-73.8h8.1v5h34.7v74.9c0,11-9,20-20,20h-159.9c-11,0-20-9-20-20v-75h33.8
			V-13193.7z"/>
	</g>
	<g transform="matrix(0.694139,0,0,1.63818,8812.7,-7224.58)">
		<path class="st0" d="M-10577.6-12637.7v73.8h-115.1v-73.8h32.9c0,13.8,11.2,25,25,25c13.8,0,25-11.2,25-25H-10577.6z"/>
	</g>
	<g transform="matrix(0.694139,0,0,1.60327,-7010.26,-25925.2)">
		<path class="st0" d="M12105.7-1170.8h-8.6v-73.8h10v63.8h105.1v-63.8h10v73.8h-3.6l0,0H12105.7L12105.7-1170.8z"/>
	</g>
	<g transform="matrix(4.23619,0,0,9.68847,-75881.9,-90889.5)">
		<ellipse class="st1" cx="18259.1" cy="6510" rx="56.2" ry="56.2"/>
	</g>
	<g transform="matrix(4.23619,0,0,9.68847,-76177,-90889.5)">
		<ellipse class="st1" cx="18311.4" cy="6510" rx="56.2" ry="56.2"/>
	</g>
	<g transform="matrix(-4.905,-15.9026,1.86623,-3.01089,131309,531995)">
		
			<rect x="32304.5" y="15309.1" transform="matrix(-2.346952e-06 -1 1 -2.346952e-06 16982.125 47628.2148)" class="st1" width="1.2" height="27.9"/>
		<g>
			<defs>
				
					<rect id="SVGID_1_" x="32285.8" y="15201.4" transform="matrix(0.8171 -0.5764 0.5764 0.8171 -2925.5469 21423.6582)" width="38.7" height="243.3"/>
			</defs>
			<clipPath id="SVGID_00000165926544277216090740000000913371208711373238_">
				<use xlink:href="#SVGID_1_"  style="overflow:visible;"/>
			</clipPath>
			<g style="clip-path:url(#SVGID_00000165926544277216090740000000913371208711373238_);">
				<g transform="matrix(-0.0632941,0.358679,-0.08585,-0.264441,31143.6,15298.6)">
					<path class="st3" d="M-6391.4-8835.9h-115.1v-72.7l83.8,0l32,34.7l-0.7-0.8V-8835.9z"/>
				</g>
			</g>
		</g>
	</g>
	<g transform="matrix(4.905,-15.9026,-1.86623,-3.01089,-103853,531995)">
		
			<rect x="30637.4" y="24128.2" transform="matrix(-0.9396 -0.3422 0.3422 -0.9396 51171.8047 57275.3359)" class="st1" width="3.3" height="-10.3"/>
		<g>
			<defs>
				
					<rect id="SVGID_00000091712688783733561510000016807275575914250665_" x="30517.4" y="24103.7" transform="matrix(0.5764 -0.8171 0.8171 0.5764 -6734.3735 35254.1914)" width="243.3" height="38.7"/>
			</defs>
			<clipPath id="SVGID_00000088817925686413067040000013199918946037693860_">
				<use xlink:href="#SVGID_00000091712688783733561510000016807275575914250665_"  style="overflow:visible;"/>
			</clipPath>
			<g style="clip-path:url(#SVGID_00000088817925686413067040000013199918946037693860_);">
				<g transform="matrix(-0.0632941,0.358679,-0.08585,-0.264441,31143.6,15298.6)">
					<path class="st3" d="M18773.2-7981.3h-115.1v-72.7h83.8l32,34.7l-0.7-0.8V-7981.3z"/>
				</g>
			</g>
		</g>
	</g>
	<g transform="matrix(0.659355,0,0,1.50799,-5971.08,-24369.7)">
		<circle class="st1" cx="11225.4" cy="-2365" r="9"/>
	</g>
	<g transform="matrix(1.88223,0,0,4.30479,-26152.5,-40262.4)">
		<circle class="st0" cx="14654.4" cy="2863.4" r="3.2"/>
	</g>
	<g transform="matrix(1.88223,0,0,4.30479,-26006,-39786.5)">
		<circle class="st0" cx="14596" cy="2780.5" r="6.8"/>
	</g>
	<g transform="matrix(1.88223,0,0,4.30479,-26301.1,-39786.5)">
		<circle class="st0" cx="14713.6" cy="2780.5" r="11.4"/>
	</g>
	<g transform="matrix(0.694139,0,0,1.58755,-7010.26,-25659.8)">
		<path class="st1" d="M12097.1-1431.1v-74.9h91l34,37v40.6h-10v-36.7l-28.4-30.9h-76.6v64.9H12097.1z"/>
	</g>
	<g transform="matrix(0.262405,0,0,0.600139,1379.1,-24372.1)">
		<path class="st5" d="M114-5905.4H-55.8v-37.5h197.2c-0.1,1.4-0.1,2.8-0.1,4.2c0,30.1,24.4,54.5,54.5,54.5
			c30.1,0,54.5-24.4,54.5-54.5c0-1.4-0.1-2.8-0.2-4.2h197.6v37.5H277.4c-11.3,34.3-43.6,59.1-81.7,59.1
			C157.6-5846.3,125.3-5871,114-5905.4z"/>
	</g>
</g>
</svg>
