<?xml version="1.0" encoding="utf-8"?>
<!-- Generator: Adobe Illustrator 28.2.0, SVG Export Plug-In . SVG Version: 6.00 Build 0)  -->
<svg version="1.1" id="Layer_1" xmlns="http://www.w3.org/2000/svg" xmlns:xlink="http://www.w3.org/1999/xlink" x="0px" y="0px"
	 viewBox="0 0 512 512" style="enable-background:new 0 0 512 512;" xml:space="preserve">
<style type="text/css">
	.st0{fill:#13BEF9;}
	.st1{fill-rule:evenodd;clip-rule:evenodd;fill:#13BEF9;}
</style>
<g>
	<path class="st0" d="M195.1,112.6h-7.8V153h7.8V112.6z M228.7,112.6h-7.8V153h7.8V112.6z M274.5,35.4l-8-13.9L133,98.7l8,13.9
		L274.5,35.4z"/>
	<path class="st0" d="M273.8,35.4l8-13.9l133.5,77.2l-8,13.9L273.8,35.4z"/>
	<path class="st0" d="M438.9,112.8v-16H73.1v16H438.9z"/>
	<path class="st1" d="M294.1,339.1V101.6h16v249C305.8,345.7,300.3,342.2,294.1,339.1z M266.7,335V0h16v336.9
		C278.3,334.8,267.3,335,266.7,335z M115,368.4c-19.5-14.5-32.4-37.5-32.4-63.7c0-13.9,3.7-27.6,10.5-39.5h136.7
		c7,11.9,10.5,25.6,10.5,39.5c0,12.1-1.6,23.4-6.4,33.6c-10.3-10-25.6-14.3-41-14.3c-27.3,0-50.8,17-56.8,42.4
		c-2.2-0.2-3.5-0.4-5.7-0.4C125.2,366.2,120.1,367,115,368.4L115,368.4z"/>
	<path class="st0" d="M182.2,171h-41.4v41.6h41.4V171z M135.5,171H94.1v41.6h41.4V171z M135.5,217.3H94.1v41.6h41.4V217.3z
		 M182.2,217.3h-41.4v41.6h41.4V217.3z M228.7,217.3h-41.4v41.6h41.4V217.3z M228.7,148.7h-41.4v41.6h41.4V148.7z"/>
	<path class="st1" d="M142.9,374.6c5.7-24,27.3-42,53.1-42c16.6,0,31.4,7.4,41.6,19.2c8.8-6.1,19.3-9.6,30.8-9.6
		c30.1,0,54.5,24.4,54.5,54.5c0,6.3-1,12.1-2.9,17.8c6.6,9,10.7,20.3,10.7,32.4c0,30.1-24.4,54.5-54.5,54.5
		c-13.3,0-25.4-4.7-34.8-12.5c-10,13.9-26.2,23.1-44.5,23.1c-21.1,0-39.4-12.1-48.6-29.7c-3.7,0.8-7.4,1.2-11.3,1.2
		c-30.1,0-54.7-24.4-54.7-54.5c0-30.1,24.4-54.5,54.7-54.5C139,374.2,141,374.2,142.9,374.6L142.9,374.6z"/>
</g>
</svg>
