<?xml version="1.0" encoding="utf-8"?>
<!-- Generator: Adobe Illustrator 27.7.0, SVG Export Plug-In . SVG Version: 6.00 Build 0)  -->
<svg version="1.1" id="Layer_1" xmlns="http://www.w3.org/2000/svg" xmlns:xlink="http://www.w3.org/1999/xlink" x="0px" y="0px"
	 viewBox="0 0 512 512" style="enable-background:new 0 0 512 512;" xml:space="preserve">
<style type="text/css">
	.st0{fill:#FFFFFF;}
	.st1{fill:none;stroke:#FFFFFF;stroke-width:4.9373;}
	.st2{fill:none;}
</style>
<g>
	<path class="st0" d="M103.5,82.5c0.3,5.6,0.8,11.9,1.4,19.2L125,362.4c2.3,29.1,3.4,43.7,9.9,54.4c5.7,9.4,14.3,16.7,24.5,21
		c11.6,4.8,26.1,3.7,55.3,1.4l199.7-15.5c18.9-1.5,31.7-2.4,41.2-4.7c-3.2,7.5-8.2,14.2-14.5,19.5c-9.6,8.1-23.8,11.3-52.3,17.9
		l-195.2,45c-28.5,6.6-42.7,9.9-54.9,6.8c-10.7-2.7-20.3-8.7-27.4-17.1c-8.1-9.6-11.3-23.8-17.9-52.3L34.8,184.1
		c-6.6-28.5-9.9-42.7-6.8-54.9c2.7-10.7,8.7-20.3,17.1-27.4c9.6-8.1,23.8-11.3,52.3-17.9L103.5,82.5z"/>
	<path class="st1" d="M112.8,101c-1.1-14.7-1.9-25.3-1.9-33.6c0-8.2,0.9-13.6,2.8-18c3.6-8.6,9.8-15.9,17.8-20.7
		c4.1-2.5,9.2-4.2,17.4-5.5c8.2-1.3,18.8-2.1,33.5-3.3L382,4.5c14.7-1.1,25.3-1.9,33.6-1.9c8.2,0,13.6,0.9,18,2.8
		c8.6,3.6,15.9,9.8,20.7,17.8c2.5,4.1,4.2,9.2,5.5,17.4c1.3,8.2,2.1,18.8,3.3,33.5l20.2,260.7c1.1,14.7,1.9,25.3,1.9,33.6
		c0,8.2-0.9,13.6-2.7,18c-3.6,8.6-9.8,15.9-17.8,20.7c-4.1,2.5-9.2,4.2-17.4,5.5c-8.2,1.3-18.8,2.1-33.5,3.3l-199.7,15.5
		c-14.7,1.1-25.3,1.9-33.6,1.9c-8.2,0-13.6-0.9-18-2.7c-8.6-3.6-15.9-9.8-20.7-17.8c-2.5-4.1-4.2-9.2-5.5-17.4
		c-1.3-8.2-2.1-18.8-3.3-33.5L112.8,101z"/>
	<path class="st2" d="M182.9,27.9l199.7-15.5c14.8-1.1,25-1.9,32.9-1.9c7.7,0,11.9,0.9,15,2.1c7.1,2.9,13,8,17,14.6
		c1.7,2.8,3.2,6.8,4.4,14.5c1.3,7.8,2,18,3.2,32.8l20.2,260.7c1.1,14.8,1.9,25,1.9,32.9c0,7.7-0.9,11.9-2.1,15
		c-2.9,7.1-8,13-14.6,17c-2.8,1.7-6.8,3.2-14.5,4.4c-7.8,1.3-18,2.1-32.8,3.2l-199.7,15.5c-14.8,1.1-25,1.9-32.9,1.9
		c-7.7,0-11.9-0.9-15-2.1c-7.1-2.9-13-8-17-14.6c-1.7-2.8-3.2-6.8-4.4-14.5c-1.3-7.8-2.1-18-3.2-32.8l-20.2-260.7
		c-1.1-14.8-1.9-25-1.9-32.9c0-7.7,0.9-11.9,2.1-15c2.9-7.1,8-13,14.6-17c2.8-1.7,6.8-3.2,14.5-4.4C157.9,29.8,168.1,29,182.9,27.9z
		"/>
	<path class="st0" d="M269.3,88.3l1.9,24.7c3.4-4.2,7.9-7.9,13.4-11c5.5-3.3,12.3-5.3,20.4-5.9c7.5-0.6,14.6,0.3,21.4,2.7
		c7,2.3,13.3,6.5,18.9,12.5c5.7,5.7,10.6,13.7,14.4,23.7c3.9,10.1,6.4,22.5,7.5,37.2c0.8,10.5,0.6,21.2-0.5,31.8
		c-0.9,10.7-3.4,20.4-7.4,29.1c-4,8.7-9.7,16-17.2,21.9c-7.3,5.6-16.8,8.9-28.4,9.8c-8.3,0.6-15,0.1-20-1.8c-5-2-8.9-4.5-11.5-7.4
		l6.2,80l-46.5,15.5l-20-259.2L269.3,88.3z M295.8,237.3c5.7-0.4,10.4-2.7,14.1-6.7c3.6-4.3,6.3-9.5,8.1-15.9
		c1.9-6.3,3.1-13.3,3.4-20.8c0.5-7.8,0.5-15.4-0.1-22.9c-0.9-12.1-2.8-21.5-5.5-28.4c-2.5-6.9-5.3-11.8-8.4-14.9
		c-3.1-3.3-6.2-5.3-9.1-5.9c-2.7-0.7-4.8-1-6.4-0.8c-4,0.3-7.7,2-11.2,5.2c-3.5,2.9-6,7.2-7.3,12.8l7.1,91.9
		c1.2,1.7,3.1,3.3,5.7,4.9C288.6,237.1,291.8,237.6,295.8,237.3z"/>
</g>
</svg>
