<?xml version="1.0" encoding="utf-8"?>
<!-- Generator: Adobe Illustrator 27.7.0, SVG Export Plug-In . SVG Version: 6.00 Build 0)  -->
<svg version="1.1" id="Layer_1" xmlns="http://www.w3.org/2000/svg" xmlns:xlink="http://www.w3.org/1999/xlink" x="0px" y="0px"
	 viewBox="0 0 512 512" style="enable-background:new 0 0 512 512;" xml:space="preserve">
<style type="text/css">
	.st0{fill-rule:evenodd;clip-rule:evenodd;fill:url(#SVGID_1_);}
	.st1{fill-rule:evenodd;clip-rule:evenodd;fill:url(#SVGID_00000126309169031868533600000000557920814726302891_);}
	.st2{fill:url(#SVGID_00000013164017991199933070000005617737079494085277_);}
</style>
<g>
	
		<linearGradient id="SVGID_1_" gradientUnits="userSpaceOnUse" x1="512.8844" y1="-296.754" x2="408.19" y2="742.5002" gradientTransform="matrix(1 0 0 -1 0 514)">
		<stop  offset="0.271" style="stop-color:#E3D9FF"/>
		<stop  offset="1" style="stop-color:#7341FF"/>
	</linearGradient>
	<path class="st0" d="M403.1,126.3v337.4h55.9c29.2,0,52.9-24,52.9-53.6V60.2c0-10.1-11.6-15.6-19.3-9.2L403.1,126.3z"/>
	
		<linearGradient id="SVGID_00000047031908324195603470000004850608420149519240_" gradientUnits="userSpaceOnUse" x1="241.7991" y1="31.0649" x2="28.8767" y2="871.896" gradientTransform="matrix(1 0 0 -1 0 514)">
		<stop  offset="0" style="stop-color:#E3D9FF"/>
		<stop  offset="1" style="stop-color:#7341FF"/>
	</linearGradient>
	<path style="fill-rule:evenodd;clip-rule:evenodd;fill:url(#SVGID_00000047031908324195603470000004850608420149519240_);" d="
		M325.1,192L223,283.3c-17.4,15.6-43.4,15.9-61.3,0.9L0,148.1V60.3c0-10.1,11.6-15.7,19.3-9.2l202.9,170.5
		c19.6,16.5,48.1,16.5,67.7,0L325.1,192z"/>
	
		<radialGradient id="SVGID_00000142873065088313455920000004958018148706856848_" cx="-694.0428" cy="794.0281" r="4.8302" gradientTransform="matrix(123.614 0 0 -125.045 86303.1797 99388.3906)" gradientUnits="userSpaceOnUse">
		<stop  offset="0.5561" style="stop-color:#6D4AFF"/>
		<stop  offset="0.9944" style="stop-color:#AA8EFF"/>
	</radialGradient>
	<path style="fill:url(#SVGID_00000142873065088313455920000004958018148706856848_);" d="M403.1,126.4l-78,65.6l0.1,0L223,283.3
		c-17.4,15.6-43.4,15.9-61.3,0.9L0,148.1v262c0,29.6,23.7,53.6,52.9,53.6h350.2V126.4z"/>
</g>
</svg>
