<?xml version="1.0" encoding="utf-8"?>
<!-- Generator: Adobe Illustrator 28.2.0, SVG Export Plug-In . SVG Version: 6.00 Build 0)  -->
<svg version="1.1" id="Layer_1" xmlns="http://www.w3.org/2000/svg" xmlns:xlink="http://www.w3.org/1999/xlink" x="0px" y="0px"
	 viewBox="0 0 512 512" style="enable-background:new 0 0 512 512;" xml:space="preserve">
<style type="text/css">
	.st0{fill:#FFFFFF;}
	.st1{fill:#0275D8;}
</style>
<rect x="126.3" y="162.1" class="st0" width="225.3" height="234.6"/>
<g>
	<path class="st1" d="M341.3,264.5c0-2.5-0.8-4.5-2.4-6.1l-93.9-93.9c-1.6-1.6-3.6-2.4-6.1-2.4c-2.5,0-4.5,0.8-6.1,2.4l-93.6,93.6
		c-1.8,2.1-2.7,4.3-2.7,6.4c0,2.5,0.8,4.5,2.4,6.1c1.6,1.6,3.6,2.4,6.1,2.4h59.7v93.9c0,2.3,0.8,4.3,2.5,6c1.7,1.7,3.7,2.5,6,2.5
		h51.2c2.3,0,4.3-0.8,6-2.5c1.7-1.7,2.5-3.7,2.5-6v-93.9h59.7c2.3,0,4.3-0.8,6-2.5C340.5,268.8,341.3,266.8,341.3,264.5z M512,341.3
		c0,28.3-10,52.4-30,72.4s-44.1,30-72.4,30H119.5c-32.9,0-61-11.7-84.4-35.1C11.7,385.3,0,357.2,0,324.3c0-23.1,6.2-44.4,18.7-64
		s29.2-34.2,50.1-44c-0.4-5.3-0.5-9.2-0.5-11.5c0-37.7,13.3-69.9,40-96.5s58.8-40,96.5-40c27.7,0,53.1,7.7,76.1,23.2
		c23,15.5,39.8,36,50.3,61.6c12.6-11,27.4-16.5,44.3-16.5c18.8,0,34.9,6.7,48.3,20c13.3,13.3,20,29.4,20,48.3
		c0,13.5-3.6,25.8-10.9,36.8c23.1,5.5,42.1,17.6,56.9,36.1C504.6,296.3,512,317.5,512,341.3z"/>
</g>
</svg>
