<?xml version="1.0" encoding="utf-8"?>
<!-- Generator: Adobe Illustrator 28.2.0, SVG Export Plug-In . SVG Version: 6.00 Build 0)  -->
<svg version="1.1" id="Layer_1" xmlns="http://www.w3.org/2000/svg" xmlns:xlink="http://www.w3.org/1999/xlink" x="0px" y="0px"
	 viewBox="0 0 512 512" style="enable-background:new 0 0 512 512;" xml:space="preserve">
<style type="text/css">
	.st0{fill:#FFFFFF;}
	.st1{fill:#FFC230;}
</style>
<g>
	<g>
		<g id="Group-Copy" transform="translate(70 21.00012)">
			<path id="Shape" class="st0" d="M2.4,53.4l3.6,343c-28.9,3.6-50.6-10.9-50.6-39.7l-3.6-285.3c0-90.3,83.1-111.9,133.7-75.8
				l256.4,148c36.1,25.2,43.3,72.2,25.2,104.7c-3.6-25.2-14.5-39.7-36.1-54.2L42.1,31.6C20.4,17.3,2.4,20.9,2.4,53.4z"/>
			<g>
				<path class="st0" d="M324.1,302.8l6.8-3.9c21.7-14.4,25.3-39.8,7.2-65l-117.7,68.9H324.1z"/>
				<path class="st0" d="M146.2,347.2c0-0.3,0-0.7,0-1L42,407.3c-18,10.8-39.7,14.4-61.3,7.2c18.1,28.9,65,46.9,101.1,28.9
					l64.4-37.4V347.2z"/>
			</g>
			<path id="Shape_00000165935924413286433040000003668002807793862576_" class="st1" d="M67.4,313.3l177-101L71,114.7L67.4,313.3z"
				/>
		</g>
	</g>
	<g>
		<polygon class="st1" points="260.2,437.4 298,437.4 298,377 296.2,380.2 		"/>
		<path class="st1" d="M445.8,323.8H260.6c-24.6,0-44.4,19.9-44.4,44.4v99.4c0,24.6,19.9,44.4,44.4,44.4h185.2
			c24.4,0,44.3-19.8,44.4-44.4v-99.4C490.2,343.6,470.3,323.8,445.8,323.8z M340.2,456.8h-18V489H298v-32.2h-62.5l-0.7-14.7
			l62.4-97.8h24.9v93.1h18V456.8z M442.2,489l-43.5-62.5l-16.4,17.4V489h-25.1V344.4h25.1v67.9l13.9-17.2l42.3-50.7h30.4l-53.7,64.1
			L472,489H442.2z"/>
	</g>
</g>
</svg>
