<?xml version="1.0" encoding="utf-8"?>
<!-- Generator: Adobe Illustrator 28.2.0, SVG Export Plug-In . SVG Version: 6.00 Build 0)  -->
<svg version="1.1" id="Layer_1" xmlns:svg="http://www.w3.org/2000/svg"
	 xmlns="http://www.w3.org/2000/svg" xmlns:xlink="http://www.w3.org/1999/xlink" x="0px" y="0px" viewBox="0 0 512 512"
	 style="enable-background:new 0 0 512 512;" xml:space="preserve">
<style type="text/css">
	
		.st0{clip-path:url(#SVGID_00000111156037058149229280000007837527921682378167_);fill:none;stroke:#989898;stroke-width:2.0228;stroke-linecap:square;stroke-miterlimit:1;}
	.st1{fill-rule:evenodd;clip-rule:evenodd;fill:#F0F0F0;}
	.st2{fill-rule:evenodd;clip-rule:evenodd;fill:#FFC230;}
	.st3{fill:#FFC230;}
</style>
<g>
	<g id="radarr-group-logo">
		<circle id="radarr-black-circle" cx="256" cy="256" r="247.7"/>
		<g>
			<defs>
				<circle id="SVGID_1_" cx="257.9" cy="253.8" r="238.3"/>
			</defs>
			<clipPath id="SVGID_00000050621620303246399740000007179953833270240403_">
				<use xlink:href="#SVGID_1_"  style="overflow:visible;"/>
			</clipPath>
			
				<path id="radarr-honeycomb" style="clip-path:url(#SVGID_00000050621620303246399740000007179953833270240403_);fill:none;stroke:#989898;stroke-width:2.0228;stroke-linecap:square;stroke-miterlimit:1;" d="
				M449.9,12.5l12.6,7.3l12.5-7.3V-2.1l-12.5-7.3l-12.6,7.3C449.9-2.1,449.9,12.5,449.9,12.5z M424.9-2.1l-12.5-7.3l-12.5,7.3v14.6
				l12.5,7.3l12.5-7.3V-2.1l12.5-7.3l12.5,7.3 M424.9,12.5l12.5,7.3l12.5-7.3 M424.9,41.5V56l12.5,7.3l12.5-7.3V41.5l-12.5-7.2
				L424.9,41.5l-12.5-7.2l-12.5,7.2 M449.9,56l12.6,7.3L475,56V41.5l-12.5-7.2l-12.6,7.2 M462.5,19.7v14.6 M437.4,19.7v14.6
				 M475-2.1l12.5-7.3L500-2.1l12.5-7.3L525-2.1l12.5-7.3L550-2.1v14.6l12.5,7.3v14.6L550,41.5V56l12.5,7.3v14.6L550,85.1v14.6
				l12.5,7.3v14.6l-12.5,7.1v14.6l12.5,7.3v14.6l-12.5,7.3V187l12.5,7.3v14.6l-12.5,7.1v14.6l12.5,7.3v14.6l-12.5,7.3v14.6l12.5,7.3
				v14.6l-12.5,7.1v14.6l12.5,7.3v14.6l-12.5,7.3v14.6l12.5,7.3v14.6l-12.5,7.1V405l12.5,7.3v14.6l-12.5,7.3v14.6l12.5,7.3v14.6
				l-12.5,7.2v14.6l12.5,7.3v14.6l-12.5,7.3l-12.5-7.3l-12.5,7.3l-12.5-7.3l-12.5,7.3l-12.5-7.3l-12.5,7.3l-12.5-7.3l-12.6,7.3
				l-12.5-7.3l-12.5,7.3l-12.5-7.3l-12.5,7.3l-12.5-7.3l-12.5,7.3l-12.5-7.3l-12.5,7.3l-12.5-7.3l-12.6,7.3l-12.5-7.3l-12.5,7.3
				l-12.5-7.3l-12.5,7.3l-12.5-7.3l-12.5,7.3l-12.5-7.3l-12.5,7.3l-12.5-7.3l-12.5,7.3l-12.5-7.3l-12.5,7.3l-12.5-7.3l-12.6,7.3
				l-12.5-7.3l-12.5,7.3l-12.5-7.3l-12.5,7.3l-12.5-7.3l-12.5,7.3l-12.5-7.3l-12.5,7.3l-12.5-7.3l-12.6,7.3L12,514.1l-12.5,7.3
				l-12.5-7.3l-12.5,7.3l-12.5-7.3v-14.6l-12.5-7.3v-14.6l12.5-7.2V456l-12.5-7.3v-14.6l12.5-7.3v-14.6l-12.5-7.3v-14.6l12.5-7.1
				v-14.6l-12.5-7.3v-14.6l12.5-7.3V325l-12.5-7.3v-14.6l12.5-7.1v-14.6l-12.5-7.3v-14.6l12.5-7.3v-14.6l-12.5-7.3v-14.6l12.5-7.1
				v-14.6l-12.5-7.3v-14.6l12.5-7.3v-14.6l-12.5-7.3v-14.6l12.5-7.1V107l-12.5-7.3V85.1l12.5-7.3V63.3L-50.5,56V41.5l12.5-7.2V19.7
				l-12.5-7.3V-2.1L-38-9.4l12.5,7.3L-13-9.4l12.5,7.3L12-9.4l12.5,7.3l12.6-7.3l12.5,7.3l12.5-7.3l12.5,7.3l12.5-7.3l12.5,7.3
				l12.5-7.3l12.5,7.3l12.5-7.3l12.5,7.3l12.6-7.3l12.5,7.3l12.5-7.3l12.5,7.3l12.5-7.3l12.5,7.3l12.5-7.3l12.5,7.3l12.5-7.3
				l12.5,7.3l12.5-7.3l12.5,7.3l12.5-7.3l12.5,7.3l12.6-7.3l12.5,7.3l12.5-7.3l12.5,7.3l12.5-7.3l12.5,7.3 M374.9-2.1v14.6l12.5,7.3
				l12.5-7.3 M374.9,41.5V56l12.5,7.3l12.5-7.3V41.5l-12.5-7.2L374.9,41.5l-12.5-7.2l-12.5,7.2 M412.4,19.7v14.6 M387.4,19.7v14.6
				 M399.9,85.1v14.6l12.5,7.3l12.5-7.3V85.1l-12.5-7.3L399.9,85.1l-12.5-7.3l-12.5,7.3v14.6l12.5,7.3l12.5-7.3 M424.9,56l-12.5,7.3
				v14.6 M399.9,56l12.5,7.3 M387.4,63.3v14.6 M387.4,107v14.6l12.5,7.1l12.5-7.1V107 M437.4,63.3v14.6l12.5,7.3l12.6-7.3V63.3
				 M437.4,77.9l-12.5,7.3 M412.4,121.6l12.5,7.1l12.5-7.1V107l-12.5-7.3 M449.9,85.1v14.6l12.6,7.3l12.5-7.3V85.1l-12.5-7.3
				 M462.5,107v14.6l12.5,7.1l12.5-7.1V107L475,99.7 M437.4,107l12.5-7.3 M349.9-2.1v14.6l12.5,7.3l12.5-7.3 M299.7-2.1v14.6
				l12.5,7.3l12.5-7.3V-2.1 M324.8,12.5l12.6,7.3l12.5-7.3 M324.8,41.5V56l12.6,7.3l12.5-7.3V41.5l-12.5-7.2L324.8,41.5l-12.5-7.2
				l-12.5,7.2V56l12.5,7.3l12.5-7.3 M312.2,19.7v14.6 M362.4,19.7v14.6 M337.4,19.7v14.6 M274.8-2.1v14.6l12.5,7.3l12.5-7.3
				 M249.8-2.1v14.6l12.5,7.3l12.5-7.3 M262.3,34.3l-12.5,7.2V56l12.5,7.3l12.5-7.3V41.5L262.3,34.3z M299.7,41.5l-12.5-7.2
				l-12.5,7.2 M262.3,19.7v14.6 M287.2,19.7v14.6 M299.7,56l-12.5,7.3v14.6l12.5,7.3l12.5-7.3V63.3 M262.3,63.3v14.6l12.5,7.3
				l12.5-7.3 M262.3,121.6l12.5,7.1l12.5-7.1V107l-12.5-7.3l-12.5,7.3V121.6l-12.5,7.1v14.6l12.5,7.3l12.5-7.3v-14.6 M287.2,107
				l12.5-7.3V85.1 M274.8,56l12.5,7.3 M274.8,99.7V85.1 M337.4,63.3v14.6l12.5,7.3l12.5-7.3V63.3L349.9,56 M299.7,99.7l12.5,7.3
				l12.5-7.3V85.1l-12.5-7.3 M337.4,77.9l-12.6,7.3 M337.4,121.6l12.5,7.1l12.5-7.1V107l-12.5-7.3l-12.5,7.3L337.4,121.6l-12.6,7.1
				v14.6l-12.5,7.3v14.6l12.5,7.3l12.6-7.3v-14.6l-12.6-7.3 M287.2,121.6l12.5,7.1l12.5-7.1V107 M324.8,99.7l12.6,7.3 M349.9,99.7
				V85.1 M349.9,128.7v14.6l12.5,7.3l12.5-7.3v-14.6l-12.5-7.1 M324.8,172.4V187l12.6,7.3l12.5-7.3v-14.6l-12.5-7.3 M349.9,187
				l12.5,7.3l12.5-7.3v-14.6l-12.5-7.3l-12.5,7.3 M337.4,150.5l12.5-7.3 M362.4,150.5v14.6 M312.2,150.5l-12.5-7.3l-12.5,7.3v14.6
				l12.5,7.3l12.5-7.3 M299.7,143.3v-14.6 M262.3,165.1l-12.5,7.3V187l12.5,7.3l12.5-7.3v-14.6L262.3,165.1L262.3,165.1z M274.8,187
				l12.5,7.3l12.5-7.3v-14.6 M262.3,150.5v14.6 M287.2,165.1l-12.5,7.3 M274.8,143.3l12.5,7.3 M287.2,208.8l-12.5,7.1v14.6l12.5,7.3
				l12.5-7.3v-14.6L287.2,208.8z M287.2,194.2v14.6 M262.3,194.2v14.6l12.5,7.1 M274.8,230.5l-12.5,7.3v14.6l12.5,7.3l12.5-7.3
				v-14.6 M349.9,215.9v14.6l12.5,7.3l12.5-7.3v-14.6l-12.5-7.1L349.9,215.9z M362.4,194.2v14.6 M324.7,187l-12.5,7.3v14.6l12.5,7.1
				l12.6-7.1v-14.6 M299.7,230.5l12.5,7.3l12.5-7.3v-14.6 M349.9,230.5l-12.5,7.3v14.6l12.5,7.3l12.5-7.3v-14.6 M287.2,252.4
				l12.5,7.3l12.5-7.3v-14.6 M324.7,230.5l12.6,7.3 M337.4,208.8l12.5,7.1 M299.7,187l12.5,7.3 M312.2,208.8l-12.5,7.1 M462.5,121.6
				l-12.6,7.1v14.6l12.6,7.3l12.5-7.3v-14.6 M424.9,128.7v14.6l12.5,7.3l12.5-7.3 M424.9,187l12.5,7.3l12.5-7.3v-14.6l-12.5-7.3
				l-12.5,7.3V187l-12.5,7.3v14.6 M449.9,187l12.6,7.3L475,187v-14.6l-12.5-7.3l-12.6,7.3 M462.5,150.5v14.6 M437.4,150.5v14.6
				 M399.9,128.7v14.6l12.5,7.3l12.5-7.3 M374.9,143.3l12.5,7.3l12.5-7.3 M374.9,187l12.5,7.3l12.5-7.3v-14.6l-12.5-7.3l-12.5,7.3
				 M424.9,172.4l-12.5-7.3l-12.5,7.3 M412.4,150.5v14.6 M387.4,150.5v14.6 M399.9,215.9v14.6l12.5,7.3l12.5-7.3v-14.6l-12.5-7.1
				L399.9,215.9l-12.5-7.1l-12.5,7.1 M387.4,194.2v14.6 M399.9,230.5l-12.5,7.3v14.6l12.5,7.3l12.5-7.3v-14.6 M374.9,230.5l12.5,7.3
				 M462.5,194.2v14.6l12.5,7.1l12.5-7.1v-14.6L475,187 M462.5,208.8l-12.6,7.1v14.6l12.6,7.3l12.5-7.3v-14.6 M437.4,194.2v14.6
				l12.5,7.1 M437.4,208.8l-12.5,7.1 M449.9,230.5l-12.5,7.3v14.6l12.5,7.3l12.6-7.3v-14.6 M424.9,230.5l12.5,7.3 M399.9,187
				l12.5,7.3 M374.9,85.1l-12.5-7.3 M362.4,107l12.5-7.3 M362.4,63.3l12.5-7.3 M437.4,121.6l12.5,7.1 M387.4,121.6l-12.5,7.1
				 M324.7,128.7l-12.5-7.1 M537.5,19.7L525,12.5l-12.5,7.3v14.6l12.5,7.2l12.5-7.2V19.7l12.5-7.3 M550,41.5l-12.5-7.2 M525-2.1
				v14.6 M475,12.5l12.5,7.3l12.5-7.3V-2.1 M475,56l12.5,7.3L500,56V41.5l-12.5-7.2L475,41.5 M500,41.5l12.5-7.2 M487.5,19.7v14.6
				 M500,12.5l12.5,7.3 M512.5,63.3v14.6l12.5,7.3l12.5-7.3V63.3L525,56L512.5,63.3L500,56 M487.5,107l12.5-7.3V85.1l-12.5-7.3
				L475,85.1 M487.5,63.3v14.6 M512.5,107v14.6l12.5,7.1l12.5-7.1V107L525,99.7L512.5,107L500,99.7 M525,85.1v14.6 M500,85.1
				l12.5-7.3 M550,85.1l-12.5-7.3 M537.5,63.3L550,56 M537.5,107l12.5-7.3 M525,41.5V56 M525,128.7v14.6l12.5,7.3l12.5-7.3
				 M525,143.3l-12.5,7.3v14.6l12.5,7.3l12.5-7.3v-14.6 M550,172.4l-12.5-7.3 M475,143.3l12.5,7.3l12.5-7.3v-14.6l-12.5-7.1
				 M487.5,194.2l12.5-7.3v-14.6l-12.5-7.3l-12.5,7.3 M525,172.4v14.6l12.5,7.3l12.5-7.3 M500,172.4l12.5-7.3 M487.5,150.5v14.6
				 M500,143.3l12.5,7.3 M487.5,208.8l12.5,7.1l12.5-7.1v-14.6l-12.5-7.3 M500,215.9v14.6l12.5,7.3l12.5-7.3v-14.6l-12.5-7.1
				 M475,230.5l12.5,7.3l12.5-7.3 M487.5,237.8v14.6l12.5,7.3l12.5-7.3v-14.6 M525,215.9l12.5-7.1v-14.6 M550,215.9l-12.5-7.1
				 M525,230.5l12.5,7.3l12.5-7.3 M512.5,252.3l12.5,7.3l12.5-7.3v-14.6 M512.5,194.2l12.5-7.3 M550,128.7l-12.5-7.1 M500,128.7
				l12.5-7.1 M537.5,281.5l-12.5-7.3l-12.5,7.3V296l12.5,7.1l12.5-7.1V281.5l12.5-7.3 M550,303.2l-12.5-7.1 M525,259.6v14.6
				 M500,259.6v14.6l12.5,7.3 M475,274.2l-12.5,7.3V296l12.5,7.1l12.5-7.1v-14.6L475,274.2v-14.6l-12.5-7.3 M500,274.2l-12.5,7.3
				 M512.5,296l-12.5,7.1v14.6l12.5,7.3l12.5-7.3v-14.6 M462.5,296l-12.6,7.1v14.6l12.6,7.3l12.5-7.3v-14.6 M487.5,296l12.5,7.1
				 M512.5,339.6l-12.5,7.3v14.6l12.5,7.3l12.5-7.3v-14.6L512.5,339.6z M512.5,325v14.6 M500,317.8l-12.5,7.3v14.6l12.5,7.3
				 M487.5,339.6l-12.5,7.3v14.6l12.5,7.3l12.5-7.3 M487.5,368.7v14.6l12.5,7.1l12.5-7.1v-14.6 M525,346.9l12.5-7.3V325l-12.5-7.3
				 M550,346.9l-12.5-7.3 M512.5,383.3l12.5,7.1l12.5-7.1v-14.6l-12.5-7.3 M537.5,368.7l12.5-7.3 M475,317.8l12.5,7.3 M537.5,325
				l12.5-7.3 M525,390.4V405l12.5,7.3L550,405 M550,434.1l-12.5-7.3l-12.5,7.3v14.6l12.5,7.3l12.5-7.3 M537.5,426.8v-14.6 M525,405
				l-12.5,7.3v14.6l12.5,7.3 M487.5,383.3l-12.5,7.1V405l12.5,7.3L500,405v-14.6 M487.5,456l12.5-7.3v-14.6l-12.5-7.3l-12.5,7.3
				v14.6L487.5,456v14.6l12.5,7.2l12.5-7.2 M500,448.7l12.5,7.3l12.5-7.3 M512.5,426.8l-12.5,7.3 M500,405l12.5,7.3 M487.5,412.3
				v14.6 M512.5,456v14.6l12.5,7.2l12.5-7.2V456 M475,448.7l-12.5,7.3v14.6l12.5,7.2l12.5-7.2 M475,477.7v14.6l12.5,7.3l12.5-7.3
				v-14.6 M487.5,499.5v14.6 M537.5,514.1v-14.6l-12.5-7.3l-12.5,7.3v14.6 M525,477.7v14.6 M512.5,499.5l-12.5-7.3 M550,477.7
				l-12.5-7.2 M537.5,499.5l12.5-7.3 M550,390.4l-12.5-7.1 M449.9,259.6v14.6l12.6,7.3 M437.4,252.3l-12.5,7.3v14.6l12.5,7.3
				l12.5-7.3 M449.9,303.2l-12.5-7.1l-12.5,7.1v14.6l12.5,7.3l12.5-7.3 M437.4,296v-14.6 M399.9,259.6v14.6l12.5,7.3l12.5-7.3
				 M387.4,252.3l-12.5,7.3v14.6l12.5,7.3l12.5-7.3 M374.9,317.8l12.5,7.3l12.5-7.3v-14.6l-12.5-7.1l-12.5,7.1V317.8l-12.5,7.3v14.6
				 M399.9,303.2l12.5-7.1v-14.6 M387.4,281.5V296 M399.9,346.9v14.6l12.5,7.3l12.5-7.3v-14.6l-12.5-7.3L399.9,346.9z M424.9,317.8
				l-12.5,7.3v14.6 M387.4,325v14.6l12.5,7.3 M387.4,339.6l-12.5,7.3v14.6l12.5,7.3l12.5-7.3 M387.4,368.7v14.6l12.5,7.1l12.5-7.1
				v-14.6 M462.5,325v14.6l12.5,7.3 M462.5,339.6l-12.6,7.3v14.6l12.6,7.3l12.5-7.3 M424.9,346.9l12.5-7.3V325 M449.9,361.4
				l-12.5,7.3v14.6l12.5,7.1l12.6-7.1v-14.6 M424.9,361.4l12.5,7.3 M449.9,346.9l-12.5-7.3 M399.9,317.8l12.5,7.3 M412.4,296
				l12.5,7.1 M337.4,252.3l-12.6,7.3v14.6l12.6,7.3l12.5-7.3v-14.6 M337.4,281.5V296l12.5,7.1l12.5-7.1v-14.6l-12.5-7.3
				 M299.7,259.6v14.6l12.5,7.3l12.5-7.3 M337.4,296l-12.6,7.1v14.6l12.6,7.3l12.5-7.3v-14.6 M324.7,303.2l-12.5-7.1l-12.5,7.1v14.6
				l12.5,7.3l12.5-7.3 M312.2,296v-14.6 M299.7,274.2l-12.5,7.3V296l12.5,7.1 M262.2,252.3l-12.5,7.3v14.6l12.5,7.3l12.5-7.3v-14.6
				 M274.7,303.2l-12.5-7.1l-12.5,7.1v14.6l12.5,7.3l12.5-7.3V303.2l12.5-7.1 M287.2,281.5l-12.5-7.3 M262.2,281.5V296 M287.2,339.6
				l-12.5,7.3v14.6l12.5,7.3l12.5-7.3v-14.6L287.2,339.6z M299.7,317.8l-12.5,7.3v14.6 M262.2,325v14.6l12.5,7.3 M274.7,361.4
				l-12.5,7.3v14.6l12.5,7.1l12.5-7.1v-14.6 M374.9,346.9l-12.5-7.3l-12.5,7.3v14.6l12.5,7.3l12.5-7.3 M312.2,325v14.6l12.5,7.3
				l12.6-7.3V325 M312.2,383.3l12.5,7.1l12.6-7.1v-14.6l-12.6-7.3l-12.5,7.3V383.3l-12.5,7.1V405l12.5,7.3l12.5-7.3 M337.4,383.3
				l12.5,7.1l12.5-7.1v-14.6 M337.4,368.7l12.5-7.3 M324.7,346.9v14.6 M349.9,346.9l-12.5-7.3 M349.9,317.8l12.5,7.3 M312.2,339.6
				l-12.5,7.3 M299.7,361.4l12.5,7.3 M274.7,317.8l12.5,7.3 M349.9,405l-12.5,7.3v14.6l12.5,7.3l12.5-7.3v-14.6L349.9,405v-14.6
				 M324.7,390.4V405l12.6,7.3 M337.4,426.8l-12.6,7.3v14.6l12.6,7.3l12.5-7.3v-14.6 M324.7,434.1l-12.5-7.3l-12.5,7.3v14.6
				l12.5,7.3l12.5-7.3 M337.4,456v14.6l12.5,7.2l12.5-7.2V456l-12.5-7.3 M312.2,426.8v-14.6 M274.7,390.4V405l12.5,7.3l12.5-7.3
				 M262.2,383.3l-12.5,7.1V405l12.5,7.3l12.5-7.3 M262.2,426.8l-12.5,7.3v14.6l12.5,7.3l12.5-7.3v-14.6L262.2,426.8z M299.7,448.7
				l-12.5,7.3v14.6l12.5,7.2l12.5-7.2V456 M287.2,412.3v14.6l12.5,7.3 M262.2,412.3v14.6 M274.7,434.1l12.5-7.3 M287.2,456
				l-12.5-7.3 M262.2,456v14.6l12.5,7.2l12.5-7.2 M287.2,514.1v-14.6l-12.5-7.3l-12.5,7.3v14.6 M312.2,514.1v-14.6l-12.5-7.3
				l-12.5,7.3 M274.7,492.3v-14.6 M299.7,492.3v-14.6 M312.2,499.5l12.5-7.3v-14.6l-12.5-7.2 M337.4,470.5l-12.6,7.2 M337.4,514.1
				v-14.6l-12.6-7.3 M387.4,514.1v-14.6l-12.5-7.3l-12.5,7.3v14.6 M349.9,477.7v14.6l12.5,7.3 M337.4,499.5l12.5-7.3 M449.9,390.4
				V405l12.6,7.3L475,405 M437.4,383.3l-12.5,7.1V405l12.5,7.3l12.5-7.3 M437.4,456l12.5-7.3v-14.6l-12.5-7.3l-12.5,7.3v14.6
				L437.4,456v14.6l12.5,7.2l12.6-7.2 M475,434.1l-12.5-7.3l-12.6,7.3 M449.9,448.7l12.6,7.3 M462.5,426.8v-14.6 M437.4,412.3v14.6
				 M399.9,390.4V405l12.5,7.3l12.5-7.3 M387.4,383.3l-12.5,7.1V405l12.5,7.3l12.5-7.3 M374.9,434.1v14.6l12.5,7.3l12.5-7.3v-14.6
				l-12.5-7.3L374.9,434.1l-12.5-7.3 M424.9,434.1l-12.5-7.3l-12.5,7.3 M399.9,448.7l12.5,7.3l12.5-7.3 M412.4,412.3v14.6
				 M387.4,412.3v14.6 M387.4,456v14.6l12.5,7.2l12.5-7.2V456 M387.4,470.5l-12.5,7.2v14.6 M412.4,514.1v-14.6l-12.5-7.3l-12.5,7.3
				 M399.9,492.3v-14.6 M412.4,470.5l12.5,7.2l12.5-7.2 M424.9,477.7v14.6l12.5,7.3l12.5-7.3v-14.6 M437.4,499.5v14.6 M462.5,514.1
				v-14.6l-12.6-7.3 M412.4,499.5l12.5-7.3 M374.9,303.2l-12.5-7.1 M362.4,281.5l12.5-7.3 M362.4,456l12.5-7.3 M362.4,412.3
				l12.5-7.3 M374.9,390.4l-12.5-7.1 M424.9,390.4l-12.5-7.1 M299.7,390.4l-12.5-7.1 M374.9,477.7l-12.5-7.2 M462.5,499.5l12.5-7.3
				 M475,390.4l-12.5-7.1 M487.5,252.3l-12.5,7.3 M374.9,259.6l-12.5-7.3 M424.9,259.6l-12.5-7.3 M550,259.6l-12.5-7.3 M324.7,259.6
				l-12.5-7.3 M-0.5-2.1v14.6L12,19.7l12.5-7.3V-2.1 M24.5,12.4l12.6,7.3l12.5-7.3V-2.1 M-25.5-2.1v14.6l12.5,7.3l12.5-7.3
				 M-13,34.3l-12.5,7.2V56l12.5,7.3L-0.5,56V41.4L-13,34.3z M-0.5,56L12,63.3L24.5,56V41.4L12,34.3l-12.5,7.2 M24.5,56l12.6,7.3
				L49.6,56V41.4l-12.5-7.2l-12.6,7.2 M-13,19.7v14.6 M12,19.7v14.6 M37.1,19.7v14.6 M-38,19.7l12.5-7.3 M-25.5,41.4L-38,34.3
				 M-38,107l12.5-7.3V85.1L-38,77.9 M-38,63.3l12.5-7.3 M12,77.9l-12.5,7.3v14.6L12,107l12.5-7.3V85.1L12,77.9V63.3 M24.5,99.7
				l12.6,7.3l12.5-7.3V85.1l-12.5-7.3l-12.6,7.3 M37.1,63.3v14.6 M-13,63.3v14.6l12.5,7.3 M-0.5,99.7L-13,107v14.6l12.5,7.1
				l12.5-7.1V107 M37.1,107v14.6l12.5,7.1l12.5-7.1V107l-12.5-7.3 M-13,77.9l-12.5,7.3 M-25.5,99.7L-13,107 M24.5,143.3L12,150.5
				v14.6l12.5,7.3l12.6-7.3v-14.6L24.5,143.3z M37.1,121.5l-12.6,7.1v14.6 M-13,121.5l-12.5,7.1v14.6l12.5,7.3l12.5-7.3v-14.6
				 M-0.5,172.4l-12.5-7.3l-12.5,7.3v14.6l12.5,7.3l12.5-7.3V172.4l12.5-7.3 M24.5,172.4v14.6l12.6,7.3l12.5-7.3v-14.6l-12.5-7.3
				 M-13,150.5v14.6 M12,150.5l-12.5-7.3 M-38,150.5l12.5-7.3 M-25.5,172.4l-12.5-7.3 M-38,237.8l12.5-7.3v-14.6l-12.5-7.1
				 M24.5,215.9v14.6l12.6,7.3l12.5-7.3v-14.6l-12.5-7.1C37.1,208.8,24.5,215.9,24.5,215.9z M37.1,194.2v14.6 M24.5,186.9L12,194.2
				v14.6l12.5,7.1 M-13,194.2v14.6l12.5,7.1l12.5-7.1 M-13,237.8v14.6l12.5,7.3l12.5-7.3v-14.6l-12.5-7.3L-13,237.8z M37.1,237.8
				v14.6l12.5,7.3l12.5-7.3v-14.6l-12.5-7.3 M12,237.8l12.5-7.3 M-0.5,215.9v14.6 M-0.5,186.9l12.5,7.3 M-13,208.8l-12.5,7.1
				 M-25.5,230.5l12.5,7.3 M-38,194.2l12.5-7.3 M24.5,128.7L12,121.5 M-25.5,128.7l-12.5-7.1 M224.7-2.1v14.6l12.5,7.3l12.5-7.3
				 M199.7-2.1v14.6l12.5,7.3l12.5-7.3 M212.2,34.3l-12.5,7.2V56l12.5,7.3l12.5-7.3V41.4L212.2,34.3V19.7 M249.7,41.4l-12.5-7.2
				l-12.5,7.2 M237.2,34.3V19.7 M174.7-2.1v14.6l12.5,7.3l12.5-7.3 M149.6-2.1v14.6l12.6,7.3l12.5-7.3 M149.6,41.4V56l12.6,7.3
				l12.5-7.3V41.4l-12.5-7.2L149.6,41.4l-12.5-7.2l-12.5,7.2 M199.7,41.4l-12.5-7.2l-12.5,7.2 M162.2,19.7v14.6 M187.2,19.7v14.6
				 M199.7,56l-12.5,7.3v14.6l12.5,7.3l12.5-7.3V63.3 M174.7,56l12.5,7.3 M187.2,77.9l-12.5,7.3v14.6l12.5,7.3l12.5-7.3V85.1
				 M149.6,56l-12.5,7.3v14.6l12.5,7.3l12.6-7.3V63.3 M174.7,99.7l-12.5,7.3v14.6l12.5,7.1l12.5-7.1V107 M149.6,85.1v14.6l12.6,7.3
				 M174.7,85.1l-12.5-7.3 M224.7,56l12.5,7.3l12.5-7.3 M237.2,77.9l-12.5,7.3v14.6l12.5,7.3l12.5-7.3V85.1L237.2,77.9V63.3
				 M212.2,77.9l12.5,7.3 M224.7,99.7l-12.5,7.3v14.6l12.5,7.1l12.5-7.1V107 M212.2,107l-12.5-7.3 M124.6-2.1v14.6l12.5,7.3
				l12.5-7.3 M99.6-2.1v14.6l12.5,7.3l12.5-7.3 M99.6,41.4V56l12.5,7.3l12.5-7.3V41.4l-12.5-7.2L99.6,41.4l-12.5-7.2l-12.5,7.2
				 M137.1,19.7v14.6 M112.1,19.7v14.6 M74.6-2.1v14.6l12.5,7.3l12.5-7.3 M49.6,12.4l12.5,7.3l12.5-7.3 M49.6,56l12.5,7.3L74.6,56
				V41.4l-12.5-7.2l-12.5,7.2 M87.1,19.7v14.6 M62.1,19.7v14.6 M74.6,56l12.5,7.3L99.6,56 M87.1,63.3v14.6l12.5,7.3l12.5-7.3V63.3
				 M87.1,77.9l-12.5,7.3v14.6l12.5,7.3l12.5-7.3V85.1 M49.6,85.1l12.5-7.3V63.3 M87.1,107v14.6l12.5,7.1l12.5-7.1V107l-12.5-7.3
				 M74.6,85.1l-12.5-7.3 M62.1,107l12.5-7.3 M124.6,56l12.5,7.3 M137.1,77.9l-12.5,7.3v14.6l12.5,7.3l12.5-7.3 M112.1,121.5
				l12.5,7.1l12.5-7.1V107 M112.1,77.9l12.5,7.3 M112.1,107l12.5-7.3 M124.6,128.7v14.6l12.5,7.3l12.5-7.3v-14.6l-12.5-7.1
				 M99.6,128.7v14.6l12.5,7.3l12.5-7.3 M99.6,186.9l12.5,7.3l12.5-7.3v-14.6l-12.5-7.3l-12.5,7.3V186.9l-12.5,7.3v14.6
				 M124.6,186.9l12.5,7.3l12.5-7.3v-14.6l-12.5-7.3l-12.5,7.3 M137.1,150.5v14.6 M112.1,150.5v14.6 M87.1,121.5l-12.5,7.1v14.6
				l12.5,7.3l12.5-7.3 M49.6,128.7v14.6l12.5,7.3l12.5-7.3 M49.6,186.9l12.5,7.3l12.5-7.3v-14.6l-12.5-7.3l-12.5,7.3 M99.6,172.4
				l-12.5-7.3l-12.5,7.3 M62.1,150.5v14.6 M87.1,150.5v14.6 M74.6,215.9v14.6l12.5,7.3l12.5-7.3v-14.6l-12.5-7.1L74.6,215.9
				l-12.5-7.1l-12.5,7.1 M62.1,194.2v14.6 M87.1,237.8v14.6l12.5,7.3l12.5-7.3v-14.6l-12.5-7.3 M62.1,237.8l12.5-7.3 M137.1,194.2
				v14.6l12.5,7.1l12.6-7.1v-14.6l-12.6-7.3 M137.1,208.8l-12.5,7.1v14.6l12.5,7.3l12.5-7.3v-14.6 M124.6,215.9l-12.5-7.1l-12.5,7.1
				 M112.1,194.2v14.6 M137.1,237.8v14.6l12.5,7.3l12.6-7.3v-14.6l-12.6-7.3 M112.1,237.8l12.5-7.3 M74.6,186.9l12.5,7.3
				 M224.7,128.7v14.6l12.5,7.3l12.5-7.3 M224.7,143.2l-12.5,7.3v14.6l12.5,7.3l12.5-7.3v-14.6 M212.2,165.1l-12.5,7.3v14.6
				l12.5,7.3l12.5-7.3v-14.6 M249.7,172.4l-12.5-7.3 M174.7,128.7v14.6l12.5,7.3l12.5-7.3v-14.6l-12.5-7.1 M149.6,143.2l12.6,7.3
				l12.5-7.3 M162.2,194.2l12.5-7.3v-14.6l-12.5-7.3l-12.6,7.3 M199.7,172.4l-12.5-7.3l-12.5,7.3 M162.2,150.5v14.6 M187.2,150.5
				v14.6 M199.7,186.9l-12.5,7.3v14.6l12.5,7.1l12.5-7.1v-14.6 M187.2,208.8l-12.5,7.1v14.6l12.5,7.3l12.5-7.3v-14.6 M187.2,237.8
				v14.6l12.5,7.3l12.5-7.3v-14.6l-12.5-7.3 M174.7,215.9l-12.5-7.1 M162.2,237.8l12.5-7.3 M237.2,208.8l-12.5,7.1v14.6l12.5,7.3
				l12.5-7.3v-14.6L237.2,208.8v-14.6l-12.5-7.3 M224.7,215.9l-12.5-7.1 M212.2,237.8l12.5-7.3 M212.2,252.3l12.5,7.3l12.5-7.3
				v-14.6 M237.2,194.2l12.5-7.3 M174.7,186.9l12.5,7.3 M212.2,150.5l-12.5-7.3 M74.6,128.7l-12.5-7.1 M249.7,128.7l-12.5-7.1
				 M162.2,121.5l-12.6,7.1 M212.2,121.5l-12.5,7.1 M37.1,150.5l12.5-7.3 M224.7,259.6v14.6l12.5,7.3l12.5-7.3 M224.7,274.2
				l-12.5,7.3V296l12.5,7.1l12.5-7.1v-14.6 M212.2,296l-12.5,7.1v14.6l12.5,7.3l12.5-7.3v-14.6 M249.7,303.2l-12.5-7.1 M199.7,259.6
				v14.6l12.5,7.3 M199.7,274.2l-12.5,7.3V296l12.5,7.1 M187.2,281.5l-12.5-7.3l-12.5,7.3V296l12.5,7.1l12.5-7.1 M174.7,274.2v-14.6
				l-12.5-7.3 M149.6,259.6v14.6l12.6,7.3 M162.2,296l-12.6,7.1v14.6l12.6,7.3l12.5-7.3v-14.6 M174.7,346.9v14.6l12.5,7.3l12.5-7.3
				v-14.6l-12.5-7.3L174.7,346.9l-12.5-7.3l-12.6,7.3v14.6l12.6,7.3l12.5-7.3 M199.7,317.7l-12.5,7.3v14.6 M162.2,325v14.6
				 M149.6,361.4l-12.5,7.3v14.6l12.5,7.1l12.6-7.1v-14.6 M187.2,368.7v14.6l12.5,7.1l12.5-7.1v-14.6l-12.5-7.3 M237.2,339.6
				l-12.5,7.3v14.6l12.5,7.3l12.5-7.3v-14.6L237.2,339.6V325l-12.5-7.3 M212.2,325v14.6l12.5,7.3 M212.2,368.7l12.5-7.3
				 M212.2,383.3l12.5,7.1l12.5-7.1v-14.6 M174.7,317.7l12.5,7.3 M212.2,339.6l-12.5,7.3 M237.2,325l12.5-7.3 M137.1,252.3
				l-12.5,7.3v14.6l12.5,7.3l12.5-7.3 M99.6,259.6v14.6l12.5,7.3l12.5-7.3 M99.6,274.2l-12.5,7.3V296l12.5,7.1l12.5-7.1v-14.6
				 M87.1,296l-12.5,7.1v14.6l12.5,7.3l12.5-7.3v-14.6 M149.6,303.2l-12.5-7.1l-12.5,7.1v14.6l12.5,7.3l12.5-7.3 M137.1,281.5V296
				 M112.1,296l12.5,7.1 M87.1,252.3l-12.5,7.3v14.6l12.5,7.3 M49.6,274.2l-12.5,7.3V296l12.5,7.1l12.5-7.1v-14.6L49.6,274.2v-14.6
				 M49.6,303.2v14.6l12.5,7.3l12.5-7.3 M74.6,303.2L62.1,296 M62.1,281.5l12.5-7.3 M74.6,346.9v14.6l12.5,7.3l12.5-7.3v-14.6
				l-12.5-7.3C87.1,339.6,74.6,346.9,74.6,346.9z M87.1,325v14.6 M62.1,325v14.6l12.5,7.3 M62.1,339.6l-12.5,7.3v14.6l12.5,7.3
				l12.5-7.3 M49.6,361.4l-12.5,7.3v14.6l12.5,7.1l12.5-7.1v-14.6 M87.1,368.7v14.6l12.5,7.1l12.5-7.1v-14.6l-12.5-7.3 M137.1,325
				v14.6l12.5,7.3 M137.1,339.6l-12.5,7.3v14.6l12.5,7.3 M124.6,346.9l-12.5-7.3l-12.5,7.3 M124.6,317.7l-12.5,7.3v14.6
				 M112.1,368.7l12.5-7.3 M99.6,317.7l12.5,7.3 M99.6,390.4V405l12.5,7.3l12.5-7.3v-14.6l-12.5-7.1 M124.6,405l12.5,7.3l12.5-7.3
				v-14.6 M99.6,448.7l12.5,7.3l12.5-7.3v-14.6l-12.5-7.3l-12.5,7.3V448.7z M124.6,448.7l12.5,7.3l12.5-7.3v-14.6l-12.5-7.3
				l-12.5,7.3 M137.1,412.3v14.6 M112.1,412.3v14.6 M49.6,390.4V405l12.5,7.3l12.5-7.3v-14.6l-12.5-7.1 M74.6,405l12.5,7.3l12.5-7.3
				 M49.6,405l-12.5,7.3v14.6l12.5,7.3l12.5-7.3v-14.6 M37.1,426.8l-12.6,7.3v14.6l12.6,7.3l12.5-7.3v-14.6 M37.1,456v14.6l12.5,7.2
				l12.5-7.2V456l-12.5-7.3 M99.6,434.1l-12.5-7.3l-12.5,7.3v14.6l12.5,7.3l12.5-7.3 M87.1,412.3v14.6 M62.1,456l12.5-7.3
				 M74.6,434.1l-12.5-7.3 M74.6,477.7v14.6l12.5,7.3l12.5-7.3v-14.6l-12.5-7.2L74.6,477.7l-12.5-7.2 M49.6,477.7v14.6l12.5,7.3
				l12.5-7.3 M62.1,499.5v14.6 M87.1,499.5v14.6 M112.1,456v14.6l12.5,7.2l12.5-7.2V456 M99.6,477.7l12.5-7.2 M99.6,492.2l12.5,7.3
				l12.5-7.3v-14.6 M112.1,499.5v14.6 M137.1,514.1v-14.6l-12.5-7.3 M87.1,456v14.6 M224.7,390.4V405l12.5,7.3l12.5-7.3
				 M199.7,390.4V405l12.5,7.3l12.5-7.3 M212.2,426.8l-12.5,7.3v14.6l12.5,7.3l12.5-7.3v-14.6L212.2,426.8v-14.6 M249.7,434.1
				l-12.5-7.3l-12.5,7.3 M224.7,448.7l12.5,7.3l12.5-7.3 M237.2,426.8v-14.6 M187.2,383.3l-12.5,7.1V405l12.5,7.3l12.5-7.3
				 M149.6,405l12.6,7.3l12.5-7.3 M149.6,448.7l12.6,7.3l12.5-7.3v-14.6l-12.5-7.3l-12.6,7.3 M199.7,448.7l-12.5,7.3v14.6l12.5,7.2
				l12.5-7.2V456 M199.7,434.1l-12.5-7.3l-12.5,7.3 M187.2,456l-12.5-7.3 M162.2,426.8v-14.6 M187.2,412.3v14.6 M162.2,456v14.6
				l12.5,7.2l12.5-7.2 M137.1,470.5l12.5,7.2l12.6-7.2 M149.6,477.7v14.6l12.6,7.3l12.5-7.3v-14.6 M162.2,499.5v14.6 M212.2,514.1
				v-14.6l-12.5-7.3l-12.5,7.3v14.6 M187.2,499.5l-12.5-7.3 M199.7,477.7v14.6 M237.2,470.5l-12.5,7.2v14.6l12.5,7.3l12.5-7.3v-14.6
				L237.2,470.5V456 M212.2,470.5l12.5,7.2 M224.7,492.2l-12.5,7.3 M237.2,514.1v-14.6 M137.1,499.5l12.5-7.3 M87.1,383.3l-12.5,7.1
				 M137.1,383.3l-12.5,7.1 M174.7,390.4l-12.5-7.1 M249.7,390.4l-12.5-7.1 M-0.5,259.6v14.6l12.5,7.3l12.5-7.3v-14.6L12,252.3
				 M24.5,274.2l12.6,7.3 M-13,252.3l-12.5,7.3v14.6l12.5,7.3l12.5-7.3 M-0.5,303.2L-13,296l-12.5,7.1v14.6L-13,325l12.5-7.3V303.2z
				 M-0.5,317.8L12,325l12.5-7.3v-14.6L12,296l-12.5,7.1 M37.1,296l-12.6,7.1 M-13,281.5V296 M12,296v-14.6 M-38,281.5l12.5-7.3
				 M-25.5,303.2L-38,296 M-38,368.7l12.5-7.3v-14.6l-12.5-7.3 M12,325v14.6l12.5,7.3l12.6-7.3V325l-12.6-7.3 M-13,325v14.6
				l12.5,7.3l12.5-7.3 M-13,383.3l12.5,7.1l12.5-7.1v-14.6l-12.5-7.3l-12.5,7.3V383.3l-12.5,7.1 M12,368.7l12.5-7.3v-14.6
				 M24.5,361.4l12.6,7.3 M-0.5,346.9v14.6 M-38,325l12.5-7.3 M-13,339.6l-12.5,7.3 M-25.5,361.4l12.5,7.3 M-0.5,390.4V405l12.5,7.3
				l12.5-7.3v-14.6L12,383.3 M24.5,405l12.6,7.3 M-0.5,405l-12.5,7.3v14.6l12.5,7.3l12.5-7.3v-14.6 M-13,426.8l-12.5,7.3v14.6
				L-13,456l12.5-7.3v-14.6 M-0.5,448.7L12,456l12.5-7.3 M24.5,434.1L12,426.8 M-38,412.3l12.5-7.3v-14.6l-12.5-7.1 M-38,456
				l12.5-7.3 M-25.5,434.1l-12.5-7.3 M-38,499.5l12.5-7.3v-14.6l-12.5-7.2 M37.1,470.5l-12.6,7.2v14.6l12.6,7.3l12.5-7.3
				 M24.5,477.7L12,470.5l-12.5,7.2v14.6l12.5,7.3l12.5-7.3 M-13,456v14.6l12.5,7.2 M-0.5,492.3l-12.5,7.3v14.6 M37.1,514.1v-14.6
				 M12,514.1v-14.6 M12,470.5V456 M-25.5,405l12.5,7.3 M-13,470.5l-12.5,7.2 M-25.5,492.3l12.5,7.3 M37.1,383.3l-12.6,7.1
				 M49.6,346.9l-12.5-7.3 M37.1,325l12.5-7.3 M74.6,259.6l-12.5-7.3 M-25.5,259.6l-12.5-7.3 M37.1,252.3l-12.6,7.3 M187.2,252.3
				l-12.5,7.3 M112.1,252.3l12.5,7.3 M249.7,259.6l-12.5-7.3 M249.7,99.7l12.5,7.3 M262.2,77.8l-12.5,7.3 M249.7,361.4l12.5,7.3
				 M262.2,339.6l-12.5,7.3 M262.2,470.5l-12.5,7.2 M249.7,492.2l12.5,7.3 M249.7,230.5l12.5,7.3 M262.2,208.8l-12.5,7.1"/>
		</g>
		
			<g id="radarr-group-details" transform="matrix(0.7837560260820043,0,0,0.7863501828570368,-21.372537619138626,-15.310311421631049) ">
			<g id="radarr-group-shapes-l-r">
				<path id="radarr-shape-right" class="st1" d="M544.9,536.3c48.9-48.9,79.1-116.4,79.1-191s-30.2-142.1-79.1-191l-191,191
					L544.9,536.3z"/>
				<path id="radarr-shape-left" class="st1" d="M162.9,154.2c-48.9,48.9-79.1,116.4-79.1,191s30.2,142.1,79.1,191l191-191
					L162.9,154.2L162.9,154.2z"/>
			</g>
			<g id="radarr-group-shapes-t-b">
				<path id="radarr-shape-bottom" class="st1" d="M547,606c-54,40-120.9,63.6-193.3,63.6c-72.3,0-139-23.6-193-63.4l124.7-128
					c20.5,10.4,43.6,16.3,68.2,16.3c24.7,0,48-6,68.6-16.5L547,606z"/>
				<path id="radarr-shape-top" class="st1" d="M547,84.6C493,44.6,426.1,21,353.8,21c-72.3,0-139,23.6-193,63.4l124.7,128
					c20.5-10.4,43.6-16.3,68.2-16.3c24.7,0,48,6,68.6,16.5C422.3,212.6,547,84.6,547,84.6z"/>
			</g>
			<path id="radarr-stick-2" class="st2" d="M560.5,519.7L538.8,543L402.5,415.8l21.7-23.2L560.5,519.7z M507.7,470.5l-7,7.5
				l-83.6-77.9l7-7.5L507.7,470.5z M493.1,486.3l-7,7.5l-83.6-77.9l7-7.5L493.1,486.3z"/>
			<path id="radarr-stick-1" class="st2" d="M147.8,170.3l21.7-23.2l136.3,127.1l-21.7,23.2L147.8,170.3L147.8,170.3z M200.5,219.5
				l7-7.5l83.6,77.9l-7,7.5L200.5,219.5z M215.2,203.7l7-7.5l83.6,77.9l-7,7.5L215.2,203.7z"/>
			<path id="radarr-yellow-circle" class="st2" d="M439.8,345.3c0,47.4-38.4,85.9-85.9,85.9c-47.4,0-85.9-38.4-85.9-85.9
				c0-47.4,38.4-85.9,85.9-85.9C401.3,259.4,439.8,297.8,439.8,345.3z"/>
		</g>
		<path id="radarr-outer-ring" class="st3" d="M256,0C115.1,0,0.8,114.6,0.8,256c0,0,0,0,0,0c0,141.4,114.2,256,255.2,256
			s255.2-114.6,255.2-256S396.9,0,256,0L256,0z M256,10c135.4,0,245.2,110.1,245.2,246S391.4,502,256,502l0,0
			C120.6,502,10.8,391.9,10.8,256c0,0,0,0,0,0C10.8,120.1,120.6,10,256,10C256,10,256,10,256,10L256,10z"/>
	</g>
</g>
</svg>
