<?xml version="1.0" encoding="utf-8"?>
<!-- Generator: Adobe Illustrator 28.2.0, SVG Export Plug-In . SVG Version: 6.00 Build 0)  -->
<svg version="1.1" id="Layer_1" xmlns="http://www.w3.org/2000/svg" xmlns:xlink="http://www.w3.org/1999/xlink" x="0px" y="0px"
	 viewBox="0 0 512 512" style="enable-background:new 0 0 512 512;" xml:space="preserve">
<style type="text/css">
	.st0{fill:#24292E;}
	.st1{fill:#FFC230;}
	.st2{enable-background:new    ;}
</style>
<g>
	<g>
		<g id="Group-Copy" transform="translate(70 21.00012)">
			<path id="Shape" class="st0" d="M2.4,53.4l3.6,343c-28.9,3.6-50.6-10.9-50.6-39.7l-3.6-285.3c0-90.3,83.1-111.9,133.7-75.8
				l256.4,148c36.1,25.2,43.3,72.2,25.2,104.7c-3.6-25.2-14.5-39.7-36.1-54.2L42.1,31.6C20.4,17.3,2.4,20.9,2.4,53.4z"/>
			<path id="Shape_00000114049535938561773820000018271523940913105341_" class="st0" d="M-19.3,414.5c21.6,7.2,43.3,3.6,61.3-7.2
				l296.1-173.4c18.1,25.2,14.5,50.6-7.2,65L81.8,443.4C45.7,461.4-1.2,443.4-19.3,414.5z"/>
			<path id="Shape_00000165935924413286433040000003668002807793862576_" class="st1" d="M67.4,313.3l177-101L71,114.7L67.4,313.3z"
				/>
		</g>
	</g>
	<path class="st1" d="M445.8,512H260.6c-24.5,0-44.4-19.8-44.4-44.4v-99.4c0-24.5,19.8-44.4,44.4-44.4h185.2
		c24.5,0,44.4,19.8,44.4,44.4v99.4C490.1,492.2,470.2,512,445.8,512z"/>
	<g class="st2">
		<path class="st0" d="M317.8,481c-1.2-2.3-2.3-6.1-3.2-11.4c-8.7,9.1-19.4,13.6-32,13.6c-12.3,0-22.3-3.5-30-10.5
			c-7.7-7-11.6-15.6-11.6-25.9c0-13,4.8-23,14.5-29.9c9.7-7,23.5-10.4,41.5-10.4h16.8v-8c0-6.3-1.8-11.4-5.3-15.2
			c-3.5-3.8-8.9-5.7-16.1-5.7c-6.2,0-11.4,1.6-15.3,4.7c-4,3.1-6,7.1-6,11.9h-27.4c0-6.7,2.2-13,6.7-18.8
			c4.4-5.8,10.5-10.4,18.1-13.7c7.6-3.3,16.1-5,25.5-5c14.3,0,25.7,3.6,34.2,10.8c8.5,7.2,12.9,17.3,13.1,30.3v55
			c0,11,1.5,19.7,4.6,26.3v1.9H317.8z M287.7,461.3c5.4,0,10.5-1.3,15.3-3.9c4.8-2.6,8.4-6.2,10.8-10.6v-23H299
			c-10.2,0-17.8,1.8-22.9,5.3c-5.1,3.5-7.7,8.5-7.7,15c0,5.3,1.7,9.5,5.2,12.6C277.1,459.7,281.8,461.3,287.7,461.3z"/>
		<path class="st0" d="M389.5,359l0.8,14.1c9-10.9,20.9-16.4,35.5-16.4c25.4,0,38.3,14.5,38.8,43.7V481h-27.4v-79.1
			c0-7.7-1.7-13.5-5-17.2c-3.3-3.7-8.8-5.6-16.4-5.6c-11.1,0-19.3,5-24.7,15V481h-27.4V359H389.5z"/>
	</g>
</g>
</svg>
