<?xml version="1.0" encoding="utf-8"?>
<!-- Generator: Adobe Illustrator 28.2.0, SVG Export Plug-In . SVG Version: 6.00 Build 0)  -->
<svg version="1.1" id="Layer_1" xmlns="http://www.w3.org/2000/svg" xmlns:xlink="http://www.w3.org/1999/xlink" x="0px" y="0px"
	 viewBox="0 0 512 512" style="enable-background:new 0 0 512 512;" xml:space="preserve">
<style type="text/css">
	.st0{fill:#24292E;}
	.st1{fill:#FFC230;}
	.st2{enable-background:new    ;}
</style>
<g>
	<g>
		<g id="Group-Copy" transform="translate(70 21.00012)">
			<path id="Shape" class="st0" d="M2.4,53.4l3.6,343c-28.9,3.6-50.6-10.9-50.6-39.7l-3.6-285.3c0-90.3,83.1-111.9,133.7-75.8
				l256.4,148c36.1,25.2,43.3,72.2,25.2,104.7c-3.6-25.2-14.5-39.7-36.1-54.2L42.1,31.6C20.4,17.3,2.4,20.9,2.4,53.4z"/>
			<path id="Shape_00000114049535938561773820000018271523940913105341_" class="st0" d="M-19.3,414.5c21.6,7.2,43.3,3.6,61.3-7.2
				l296.1-173.4c18.1,25.2,14.5,50.6-7.2,65L81.8,443.4C45.7,461.4-1.2,443.4-19.3,414.5z"/>
			<path id="Shape_00000165935924413286433040000003668002807793862576_" class="st1" d="M67.4,313.3l177-101L71,114.7L67.4,313.3z"
				/>
		</g>
	</g>
	<g>
		<path class="st1" d="M445.8,512H260.6c-24.5,0-44.4-19.8-44.4-44.4v-99.4c0-24.5,19.8-44.4,44.4-44.4h185.2
			c24.5,0,44.4,19.8,44.4,44.4v99.4C490.1,492.2,470.2,512,445.8,512z"/>
		<g class="st2">
			<path class="st0" d="M322.2,437.4h18v19.4h-18V489H298v-32.2h-62.5l-0.7-14.7l62.4-97.8h24.9V437.4z M260.2,437.4H298V377
				l-1.8,3.2L260.2,437.4z"/>
			<path class="st0" d="M398.7,426.5l-16.4,17.4V489h-25.1V344.4h25.1v67.9l13.9-17.2l42.3-50.7h30.4l-53.7,64.1L472,489h-29.8
				L398.7,426.5z"/>
		</g>
	</g>
</g>
</svg>
