<?xml version="1.0" encoding="utf-8"?>
<!-- Generator: Adobe Illustrator 28.2.0, SVG Export Plug-In . SVG Version: 6.00 Build 0)  -->
<svg version="1.1" id="Layer_1" xmlns="http://www.w3.org/2000/svg" xmlns:xlink="http://www.w3.org/1999/xlink" x="0px" y="0px"
	 viewBox="0 0 512 512" style="enable-background:new 0 0 512 512;" xml:space="preserve">
<style type="text/css">
	.st0{fill-rule:evenodd;clip-rule:evenodd;fill:#1988E0;}
	.st1{fill-rule:evenodd;clip-rule:evenodd;fill:#2CD4ED;}
	.st2{filter:url(#Adobe_OpacityMaskFilter);}
	.st3{fill-rule:evenodd;clip-rule:evenodd;fill:#FFFFFF;}
	.st4{mask:url(#b_00000023282658965301282830000008681483512590994110_);fill-rule:evenodd;clip-rule:evenodd;fill:#0DB4E2;}
	.st5{fill-rule:evenodd;clip-rule:evenodd;fill:#3169FF;}
	.st6{filter:url(#Adobe_OpacityMaskFilter_00000005979108145982999880000004425889844998455707_);}
	.st7{mask:url(#d_00000021077954646708769070000003749400984833142189_);fill-rule:evenodd;clip-rule:evenodd;fill:#3153FF;}
</style>
<g>
	<path class="st0" d="M375.8,107.09c66.24,66.22,66.26,173.61,0.03,239.85c-2.08,2.08-4.21,4.1-6.39,6.07L256.02,460.07l-113.42-106
		l-6.36-7.42c-69.41-62.89-74.7-170.15-11.8-239.56s170.15-74.7,239.56-11.8C368.12,99.03,372.06,102.97,375.8,107.09z"/>
	<g transform="translate(0 19)">
		<g>
			<path id="a_00000124146766812035901460000003540253932131868333_" class="st1" d="M128.82,186.67
				c70.25,0,127.2,56.95,127.2,127.2v127.2h-127.2c-70.25,0-127.2-56.95-127.2-127.2S58.57,186.67,128.82,186.67z"/>
		</g>
		<defs>
			<filter id="Adobe_OpacityMaskFilter" filterUnits="userSpaceOnUse" x="80.51" y="32.37" width="344.97" height="408.7">
				<feColorMatrix  type="matrix" values="1 0 0 0 0  0 1 0 0 0  0 0 1 0 0  0 0 0 1 0"/>
			</filter>
		</defs>
		
			<mask maskUnits="userSpaceOnUse" x="80.51" y="32.37" width="344.97" height="408.7" id="b_00000023282658965301282830000008681483512590994110_">
			<g class="st2">
				<path id="a_00000059309949172177819810000015429675769511413891_" class="st3" d="M128.82,186.67
					c70.25,0,127.2,56.95,127.2,127.2v127.2h-127.2c-70.25,0-127.2-56.95-127.2-127.2S58.57,186.67,128.82,186.67z"/>
			</g>
		</mask>
		<path class="st4" d="M375.8,88.09c66.24,66.22,66.26,173.61,0.03,239.85c-2.08,2.08-4.21,4.1-6.39,6.07L256.02,441.07l-113.42-106
			l-6.36-7.42c-69.41-62.89-74.7-170.15-11.8-239.56s170.15-74.7,239.56-11.8C368.12,80.03,372.06,83.97,375.8,88.09z"/>
	</g>
	<g transform="translate(24 19)">
		<g>
			<path id="c_00000105417509063802442370000004767128649124905100_" class="st5" d="M232.02,441.07V310.69
				c1.76-70.23,60.11-125.74,130.34-123.98s125.74,60.11,123.98,130.34c-1.72,68.97-58.12,124-127.12,124.02H232.02z"/>
		</g>
		<defs>
			
				<filter id="Adobe_OpacityMaskFilter_00000086676321339420345850000000876442369993756047_" filterUnits="userSpaceOnUse" x="56.51" y="32.37" width="344.97" height="408.7">
				<feColorMatrix  type="matrix" values="1 0 0 0 0  0 1 0 0 0  0 0 1 0 0  0 0 0 1 0"/>
			</filter>
		</defs>
		
			<mask maskUnits="userSpaceOnUse" x="56.51" y="32.37" width="344.97" height="408.7" id="d_00000021077954646708769070000003749400984833142189_">
			<g style="filter:url(#Adobe_OpacityMaskFilter_00000086676321339420345850000000876442369993756047_);">
				<path id="c_00000016055307043726891650000003853837115497607841_" class="st3" d="M232.02,441.07V310.69
					c1.76-70.23,60.11-125.74,130.34-123.98s125.74,60.11,123.98,130.34c-1.72,68.97-58.12,124-127.12,124.02H232.02z"/>
			</g>
		</mask>
		<path class="st7" d="M351.8,88.09c66.24,66.22,66.26,173.61,0.03,239.85c-2.08,2.08-4.21,4.1-6.39,6.07L232.02,441.07l-113.42-106
			l-6.36-7.42c-69.41-62.89-74.7-170.15-11.8-239.56s170.15-74.7,239.56-11.8C344.12,80.03,348.06,83.97,351.8,88.09z"/>
	</g>
</g>
</svg>
