<?xml version="1.0" encoding="utf-8"?>
<!-- Generator: Adobe Illustrator 28.2.0, SVG Export Plug-In . SVG Version: 6.00 Build 0)  -->
<svg version="1.1" id="Layer_1" xmlns="http://www.w3.org/2000/svg" xmlns:xlink="http://www.w3.org/1999/xlink" x="0px" y="0px"
	 viewBox="0 0 512 512" style="enable-background:new 0 0 512 512;" xml:space="preserve">
<style type="text/css">
	.st0{fill:#FFFFFF;}
</style>
<g>
	<polygon class="st0" points="383.6,256 369.9,232.4 342.6,232.4 329,256 342.6,279.6 369.9,279.6 	"/>
	<polygon class="st0" points="342.6,206.8 369.9,206.8 384.7,181.2 327.8,181.2 	"/>
	<polygon class="st0" points="306.8,268.8 277.2,268.8 305.7,318 320.5,292.4 	"/>
	<polygon class="st0" points="405.8,268.8 392.1,292.4 406.9,318 435.3,268.8 	"/>
	<polygon class="st0" points="306.8,243.2 320.5,219.6 305.7,194 277.2,243.2 	"/>
	<path class="st0" d="M460.8,44.8H51.2C22.9,44.8,0,67.7,0,96v320c0,28.3,22.9,51.2,51.2,51.2h409.6c28.3,0,51.2-22.9,51.2-51.2V96
		C512,67.7,489.1,44.8,460.8,44.8z M468.6,262.4L418,350c0,0.1-0.1,0.1-0.1,0.2c-0.1,0.1-0.1,0.2-0.2,0.3c-0.2,0.2-0.3,0.5-0.5,0.7
		c-0.1,0.1-0.1,0.2-0.2,0.2c-0.2,0.3-0.4,0.5-0.7,0.8c-0.1,0.1-0.2,0.2-0.2,0.3c-0.2,0.2-0.4,0.4-0.6,0.6c-0.1,0.1-0.1,0.1-0.2,0.2
		c-0.3,0.2-0.6,0.5-0.8,0.7c-0.1,0.1-0.2,0.1-0.2,0.2c-0.3,0.2-0.6,0.4-1,0.6c0,0,0,0,0,0c0,0,0,0,0,0c-0.5,0.3-1,0.5-1.5,0.7
		c0,0,0,0-0.1,0c-0.5,0.2-1,0.4-1.5,0.5c0,0-0.1,0-0.1,0c-0.5,0.1-1,0.2-1.5,0.3c0,0-0.1,0-0.1,0c-0.5,0.1-1,0.1-1.5,0.1
		c0,0-0.1,0-0.1,0v0c0,0-0.1,0-0.1,0H305.7c0,0-0.1,0-0.1,0c-0.1,0-0.1,0-0.2,0c-0.3,0-0.6,0-0.9,0c-0.1,0-0.3,0-0.4,0
		c-0.3,0-0.7-0.1-1-0.2c-0.1,0-0.2-0.1-0.4-0.1c-0.2-0.1-0.5-0.1-0.7-0.2c-0.1,0-0.3-0.1-0.4-0.1c-0.3-0.1-0.6-0.2-0.9-0.3
		c-0.1,0-0.2-0.1-0.3-0.2c-0.2-0.1-0.4-0.2-0.7-0.3c-0.1-0.1-0.2-0.1-0.3-0.2c-0.3-0.2-0.6-0.3-0.9-0.5c-0.1,0-0.1-0.1-0.2-0.1
		c-0.3-0.2-0.5-0.4-0.7-0.6c-0.1-0.1-0.1-0.1-0.2-0.2c-0.3-0.2-0.6-0.5-0.8-0.7c0,0,0,0,0,0c-0.3-0.3-0.5-0.5-0.7-0.8
		c-0.1-0.1-0.1-0.1-0.2-0.2c-0.2-0.3-0.4-0.6-0.6-0.9c0,0,0,0,0,0c-0.2-0.2-0.3-0.5-0.5-0.7l-46.9-81.2h-37.4l35.8,62h16.6
		c7.1,0,12.8,5.7,12.8,12.8c0,7.1-5.7,12.8-12.8,12.8h-24c-4.6,0-8.8-2.4-11.1-6.4l-46.9-81.2h-37.4l35.8,62h16.6
		c7.1,0,12.8,5.7,12.8,12.8c0,7.1-5.7,12.8-12.8,12.8h-24c-4.6,0-8.8-2.4-11.1-6.4l-46.9-81.2H76.4l35.8,62h16.6
		c7.1,0,12.8,5.7,12.8,12.8c0,7.1-5.7,12.8-12.8,12.8h-24c-4.6,0-8.8-2.4-11.1-6.4l-50.6-87.6c0,0,0-0.1,0-0.1
		c-0.3-0.5-0.5-0.9-0.7-1.4c0,0,0-0.1,0-0.1c-0.2-0.4-0.3-0.9-0.5-1.3c0-0.1-0.1-0.3-0.1-0.4c-0.1-0.4-0.2-0.8-0.2-1.1
		c0-0.1,0-0.3-0.1-0.4c-0.1-0.5-0.1-1-0.1-1.5c0,0,0-0.1,0-0.1c0-0.5,0-1,0.1-1.5c0-0.1,0-0.3,0.1-0.4c0.1-0.4,0.1-0.8,0.2-1.1
		c0-0.1,0.1-0.3,0.1-0.4c0.1-0.5,0.3-0.9,0.5-1.3c0,0,0-0.1,0-0.1c0.2-0.5,0.4-1,0.7-1.4c0,0,0-0.1,0-0.1L93.8,162
		c2.3-4,6.5-6.4,11.1-6.4h24c7.1,0,12.8,5.7,12.8,12.8c0,7.1-5.7,12.8-12.8,12.8h-16.6l-35.8,62h37.4l46.9-81.2
		c2.3-4,6.5-6.4,11.1-6.4h24c7.1,0,12.8,5.7,12.8,12.8c0,7.1-5.7,12.8-12.8,12.8h-16.6l-35.8,62h37.4l46.9-81.2
		c2.3-4,6.5-6.4,11.1-6.4h24c7.1,0,12.8,5.7,12.8,12.8c0,7.1-5.7,12.8-12.8,12.8h-16.6l-35.8,62h37.4l46.4-80.4
		c1.1-2.3,2.8-4.2,5.1-5.6c2.3-1.4,5-1.9,7.5-1.7h99.2c2.5-0.2,5.1,0.3,7.4,1.6c2.4,1.3,4.1,3.3,5.2,5.6l50.1,86.8
		c0,0,0,0.1,0.1,0.1c0.3,0.5,0.5,0.9,0.7,1.4c0,0,0,0.1,0,0.1c0.2,0.4,0.3,0.9,0.4,1.3c0,0.1,0.1,0.3,0.1,0.4
		c0.1,0.4,0.2,0.7,0.2,1.1c0,0.1,0,0.3,0.1,0.4c0.1,0.5,0.1,1,0.1,1.5c0,0,0,0.1,0,0.1c0,0.5,0,1-0.1,1.5c0,0.1,0,0.3-0.1,0.4
		c-0.1,0.4-0.1,0.8-0.2,1.1c0,0.1-0.1,0.3-0.1,0.4c-0.1,0.5-0.3,0.9-0.5,1.4c0,0,0,0.1,0,0.1C469.1,261.4,468.9,261.8,468.6,262.4
		C468.6,262.3,468.6,262.4,468.6,262.4z"/>
	<polygon class="st0" points="369.9,305.2 342.6,305.2 327.8,330.8 384.7,330.8 	"/>
	<polygon class="st0" points="392.1,219.6 405.8,243.2 435.3,243.2 406.9,194 	"/>
</g>
</svg>
