<?xml version="1.0" encoding="utf-8"?>
<!-- Generator: Adobe Illustrator 28.2.0, SVG Export Plug-In . SVG Version: 6.00 Build 0)  -->
<svg version="1.1" id="Layer_1" xmlns="http://www.w3.org/2000/svg" xmlns:xlink="http://www.w3.org/1999/xlink" x="0px" y="0px"
	 viewBox="0 0 512 512" style="enable-background:new 0 0 512 512;" xml:space="preserve">
<style type="text/css">
	.st0{fill:#FFFFFF;}
</style>
<g>
	<path class="st0" d="M263.5,143.7c-33.4,49.2-60.2,102.5-79.8,158.6h79.8V143.7z"/>
	<polygon class="st0" points="188.2,395.8 415.3,395.3 415.3,369.2 171.9,369.7 	"/>
	<path class="st0" d="M460.8,44.6H51.2C22.9,44.6,0,67.5,0,95.8v320C0,444,22.9,467,51.2,467h409.6c28.3,0,51.2-22.9,51.2-51.2v-320
		C512,67.5,489.1,44.6,460.8,44.6z M306.3,143.7c7.5,9,14.7,18.2,21.7,27.6c28.7,38.4,53.3,79.7,73.6,123.2c1.2,2.6,2.3,5.2,3.5,7.8
		c3.3,7.2,6.4,14.4,9.4,21.7H306.3V143.7z M285.2,78.7V324H153.9c2.2-7.3,4.5-14.5,7-21.7c23.7-70.3,58.3-136.5,102.7-196
		C270.5,96.9,277.7,87.7,285.2,78.7z M229.8,113l27.4-16.6c-52.1,68-90.9,145.2-114.4,227.6h-22.6c19.5-70.4,49.8-137.4,89.8-198.5
		C216.5,121.3,223.1,117.1,229.8,113z M131.6,198.3c2.8-6,5.7-11.9,8.6-17.7c14-11.8,28.4-23.1,43.1-33.8
		c-11.7,19.6-22.4,39.8-32.1,60.7c-17.5,37.5-31.5,76.5-42,116.5H86.9C97.8,280.8,112.7,238.7,131.6,198.3z M103,417.5l-43.4-69.5
		h25.6l43.4,69.5H103z M139.4,417.5L96,348.1h25.6l43.4,69.5H139.4z M437,417l-260.8,0.6l-43.4-69.5l304.2-0.6V417z"/>
	<path class="st0" d="M327.9,302.3h53.2c-15.3-32.5-33.1-63.8-53.2-93.5V302.3z"/>
</g>
</svg>
