<?xml version="1.0" encoding="utf-8"?>
<!-- Generator: Adobe Illustrator 28.2.0, SVG Export Plug-In . SVG Version: 6.00 Build 0)  -->
<svg version="1.1" id="Layer_1" xmlns="http://www.w3.org/2000/svg" xmlns:xlink="http://www.w3.org/1999/xlink" x="0px" y="0px"
	 viewBox="0 0 512 512" style="enable-background:new 0 0 512 512;" xml:space="preserve">
<style type="text/css">
	.st0{fill:#A453B9;}
	.st1{fill:#FFFFFF;}
</style>
<g>
	<path class="st0" d="M51.2,44.8h409.6c28.3,0,51.2,22.9,51.2,51.2v320c0,28.3-22.9,51.2-51.2,51.2H51.2C22.9,467.2,0,444.3,0,416
		V96C0,67.7,22.9,44.8,51.2,44.8z"/>
	<path class="st1" d="M420.5,245.5c-5.9,0-11.4-2.7-15-7.3c-0.9-1.1-60.9-74.8-149.5-74.8c-88.8,0-148.9,74-149.5,74.8
		c-6.6,8.3-18.7,9.7-27,3c-8.3-6.6-9.7-18.6-3.1-26.9c2.9-3.6,71.9-89.3,179.6-89.3s176.7,85.7,179.6,89.3c6.6,8.3,5.2,20.4-3.1,27
		C429.1,244.1,424.9,245.5,420.5,245.5z"/>
	<path class="st1" d="M420.5,245.5h-52.7c-10.6,0-19.2-8.6-19.2-19.2s8.6-19.2,19.2-19.2h33.5v-33.5c0-10.6,8.6-19.2,19.2-19.2
		c10.6,0,19.2,8.6,19.2,19.2v52.7C439.7,236.9,431.1,245.5,420.5,245.5C420.5,245.5,420.5,245.5,420.5,245.5z"/>
	<path class="st1" d="M256,386.9c-107.7,0-176.7-85.7-179.6-89.3c-6.6-8.3-5.2-20.4,3.1-27s20.4-5.2,27,3.1
		c0.9,1.1,60.9,74.8,149.5,74.8c88.8,0,148.9-74,149.5-74.8c6.6-8.3,18.7-9.7,27-3.1c8.3,6.6,9.7,18.6,3.1,26.9
		C432.7,301.2,363.7,386.9,256,386.9z"/>
	<path class="st1" d="M91.5,357.5c-10.6,0-19.2-8.6-19.2-19.2c0,0,0,0,0,0v-52.7c0-10.6,8.6-19.2,19.2-19.2c0,0,0,0,0,0h52.7
		c10.6,0,19.2,8.6,19.2,19.2c0,10.6-8.6,19.2-19.2,19.2h-33.5v33.5C110.7,348.9,102.1,357.5,91.5,357.5
		C91.5,357.5,91.5,357.5,91.5,357.5z"/>
	<circle class="st1" cx="255.1" cy="256" r="64"/>
	<polygon class="st0" points="288.4,243.2 259.4,243.2 268.4,192.6 221.8,268.7 250.9,268.7 241.8,319.3 	"/>
</g>
</svg>
