<?xml version="1.0" encoding="utf-8"?>
<!-- Generator: Adobe Illustrator 28.2.0, SVG Export Plug-In . SVG Version: 6.00 Build 0)  -->
<svg version="1.1" id="Layer_1" xmlns="http://www.w3.org/2000/svg" xmlns:xlink="http://www.w3.org/1999/xlink" x="0px" y="0px"
	 viewBox="0 0 512 512" style="enable-background:new 0 0 512 512;" xml:space="preserve">
<style type="text/css">
	.st0{fill:#BC2A46;}
	.st1{fill:#FFFFFF;}
</style>
<g>
	<path class="st0" d="M52,44.8H460c28.7,0,52,23.3,52,52v318.5c0,28.7-23.3,52-52,52H52c-28.7,0-52-23.3-52-52V96.8
		C0,68.1,23.3,44.8,52,44.8z"/>
	<path class="st1" d="M256,220.5l29.2,14.1l7.2,31.6l-20.2,25.4h-32.4l-20.2-25.4l7.2-31.6L256,220.5 M256,198.8l-8.5,4.1
		l-29.2,14.1l-8.5,4.1l-2.1,9.2l-7.2,31.6l-2.1,9.2l5.9,7.4l20.2,25.4l5.9,7.4h51.3l5.9-7.4l20.2-25.4l5.9-7.4l-2.1-9.2l-7.2-31.6
		l-2.1-9.2l-8.5-4.1l-29.2-14.1L256,198.8L256,198.8z"/>
	<path class="st1" d="M256,147l80.8,39.2v98c0,44.6-80.8,80.8-80.8,80.8s-80.8-36.2-80.8-80.8v-98L256,147 M256,104.3l-16.8,8.1
		l-80.8,39.2l-21.6,10.5v122c0,31.5,18.9,61.2,56.3,88.2c14.8,10.7,30.7,19.9,47.2,27.6l15.7,7l15.7-7c16.6-7.7,32.4-16.9,47.2-27.6
		c37.3-27,56.3-56.7,56.3-88.2v-122l-21.6-10.5l-80.8-39.2C272.8,112.5,256,104.3,256,104.3z"/>
</g>
</svg>
