<?xml version="1.0" encoding="utf-8"?>
<!-- Generator: Adobe Illustrator 28.2.0, SVG Export Plug-In . SVG Version: 6.00 Build 0)  -->
<svg version="1.1" id="Layer_1" xmlns="http://www.w3.org/2000/svg" xmlns:xlink="http://www.w3.org/1999/xlink" x="0px" y="0px"
	 viewBox="0 0 512 512" style="enable-background:new 0 0 512 512;" xml:space="preserve">
<style type="text/css">
	.st0{fill:#FFFFFF;}
</style>
<g>
	<path class="st0" d="M155.8,198.2v115.7L256,371.7l100.2-57.8V198.2L256,140.3L155.8,198.2z M286.2,194.2l38.4,22.2v79.2
		l-38.4,22.2v-42.6h-60.4v42.6l-38.4-22.2v-79.2l38.4-22.2v42.6h60.4V194.2z"/>
	<path class="st0" d="M460.8,44.8H51.2C22.9,44.8,0,67.7,0,96v320c0,28.3,22.9,51.2,51.2,51.2h409.6c28.3,0,51.2-22.9,51.2-51.2V96
		C512,67.7,489.1,44.8,460.8,44.8z M394.6,336L256,416l-138.6-80V176L256,96l138.6,80V336z"/>
</g>
</svg>
