<?xml version="1.0" encoding="utf-8"?>
<!-- Generator: Adobe Illustrator 28.2.0, SVG Export Plug-In . SVG Version: 6.00 Build 0)  -->
<svg version="1.1" id="Layer_1" xmlns="http://www.w3.org/2000/svg" xmlns:xlink="http://www.w3.org/1999/xlink" x="0px" y="0px"
	 viewBox="0 0 512 512" style="enable-background:new 0 0 512 512;" xml:space="preserve">
<style type="text/css">
	.st0{fill:#2ADFC3;}
</style>
<g>
	<path class="st0" d="M128,174.3v55.3h262.1c25.8,0,46.6,20.9,46.7,46.7v67.4c0,25.8-20.9,46.6-46.7,46.7H0v21.1
		c0.1,29.9,24.3,54.1,54.2,54.2h403.6c29.9-0.1,54.1-24.3,54.2-54.2V174.3L128,174.3z"/>
	<path class="st0" d="M384,337.7v-55.3H121.9c-25.8,0-46.6-20.9-46.7-46.7v-67.4c0-25.8,20.9-46.6,46.7-46.7H512v-21.1
		c-0.1-29.9-24.3-54.1-54.2-54.2H54.2C24.3,46.4,0.1,70.6,0,100.5v237.2L384,337.7z"/>
</g>
</svg>
