<?xml version="1.0" encoding="utf-8"?>
<!-- Generator: Adobe Illustrator 28.2.0, SVG Export Plug-In . SVG Version: 6.00 Build 0)  -->
<svg version="1.1" id="Layer_1" xmlns="http://www.w3.org/2000/svg" xmlns:xlink="http://www.w3.org/1999/xlink" x="0px" y="0px"
	 viewBox="0 0 512 512" style="enable-background:new 0 0 512 512;" xml:space="preserve">
<style type="text/css">
	.st0{fill:#FFFFFF;}
</style>
<g>
	<path class="st0" d="M460,44.8H52c-28.7,0-52,23.3-52,52v318.5c0,28.7,23.3,52,52,52H460c28.7,0,52-23.3,52-52V96.8
		C512,68.1,488.7,44.8,460,44.8z M375.2,284.2c0,31.5-18.9,61.2-56.3,88.2c-14.8,10.7-30.6,19.9-47.2,27.6l-15.7,7l-15.7-7
		c-16.6-7.7-32.4-16.9-47.2-27.6c-37.3-27-56.3-56.7-56.3-88.2v-122l21.6-10.5l80.8-39.2l16.8-8.1l16.8,8.1l80.8,39.2l21.6,10.5
		V284.2z"/>
	<g>
		<polygon class="st0" points="256,220.5 226.8,234.5 219.6,266.2 239.8,291.5 272.2,291.5 292.4,266.2 285.2,234.5 		"/>
		<path class="st0" d="M256,147l-80.8,39.2v98c0,44.6,80.8,80.8,80.8,80.8s80.8-36.2,80.8-80.8v-98L256,147z M307.7,278.4
			l-20.2,25.4l-5.9,7.4h-51.3l-5.9-7.4l-20.2-25.4l-5.9-7.4l2.1-9.2l7.2-31.6l2.1-9.2l8.5-4.1l29.2-14.1l8.5-4.1l8.5,4.1l29.2,14.1
			l8.5,4.1l2.1,9.2l7.2,31.6l2.1,9.2L307.7,278.4z"/>
	</g>
</g>
</svg>
