<?xml version="1.0" encoding="utf-8"?>
<!-- Generator: Adobe Illustrator 28.2.0, SVG Export Plug-In . SVG Version: 6.00 Build 0)  -->
<svg version="1.1" id="Layer_1" xmlns="http://www.w3.org/2000/svg" xmlns:xlink="http://www.w3.org/1999/xlink" x="0px" y="0px"
	 viewBox="0 0 512 512" style="enable-background:new 0 0 512 512;" xml:space="preserve">
<style type="text/css">
	.st0{fill:#004D93;}
	.st1{fill:#FFFFFF;}
</style>
<g>
	<path class="st0" d="M51.2,44.8h409.6c28.3,0,51.2,22.9,51.2,51.2v320c0,28.3-22.9,51.2-51.2,51.2H51.2C22.9,467.2,0,444.3,0,416
		V96C0,67.7,22.9,44.8,51.2,44.8z"/>
	<path class="st1" d="M121.5,317.8V248h232.9c-7.9,14.4-12,30.6-12,47v33.8c7-2.1,13.9-4.9,20.5-8.1l16.9-8.2l13.8,6.8v-24.2
		c0-26,21.1-47,47-47v-51.2H260.2v-30.5h25.6v-51.2H70.3v51.2h26.2v30.5H70.3v136c17.6,0,35.8-7.6,45.1-12.1L121.5,317.8z
		 M147.7,166.3H209v30.5h-61.3V166.3z"/>
	<path class="st1" d="M391,332.3l-11.2-5.5l-11.2,5.5c-10.2,5-30.4,13.4-50.6,13.4c-20.2,0-40.4-8.4-50.6-13.4l-11.2-5.5l-11.2,5.5
		c-10.2,5-30.4,13.4-50.6,13.4c-20.2,0-40.4-8.4-50.6-13.4l-11.2-5.5l-11.2,5.5c-10.2,5-30.5,13.4-50.7,13.4v51.2
		c21.3-0.4,42.4-5,61.9-13.5c19.6,8.5,40.6,13.1,61.9,13.5c21.3-0.4,42.3-5,61.9-13.5c19.5,8.5,40.6,13.1,61.9,13.5
		c21.3-0.4,42.3-5,61.9-13.5c19.6,8.5,40.6,13.1,61.9,13.5v-51.2C421.5,345.7,401.3,337.3,391,332.3z"/>
</g>
</svg>
