<?xml version="1.0" encoding="utf-8"?>
<!-- Generator: Adobe Illustrator 28.2.0, SVG Export Plug-In . SVG Version: 6.00 Build 0)  -->
<svg version="1.1" id="Layer_1" xmlns="http://www.w3.org/2000/svg" xmlns:xlink="http://www.w3.org/1999/xlink" x="0px" y="0px"
	 viewBox="0 0 512 512" style="enable-background:new 0 0 512 512;" xml:space="preserve">
<style type="text/css">
	.st0{fill:#00A580;}
	.st1{fill:#FFFFFF;}
</style>
<g>
	<path class="st0" d="M51.2,44.8h409.6c28.3,0,51.2,22.9,51.2,51.2v320c0,28.3-22.9,51.2-51.2,51.2H51.2C22.9,467.2,0,444.3,0,416
		V96C0,67.7,22.9,44.8,51.2,44.8z"/>
	<path class="st1" d="M406.9,356.4H305.7c-4.6,0-8.8-2.4-11.1-6.4L244,262.4c-2.3-4-2.3-8.8,0-12.8l50.6-87.6
		c2.3-4,6.5-6.4,11.1-6.4h101.2c4.6,0,8.8,2.4,11.1,6.4l50.6,87.6c2.3,4,2.3,8.8,0,12.8L418,350C415.7,354,411.5,356.4,406.9,356.4z
		 M313.1,330.8h86.4l43.2-74.8l-43.2-74.8h-86.4L269.9,256L313.1,330.8z"/>
	<path class="st1" d="M377.3,305.2h-42.1c-4.6,0-8.8-2.4-11.1-6.4l-21-36.4c-2.3-4-2.3-8.8,0-12.8l21-36.4c2.3-4,6.5-6.4,11.1-6.4
		h42.1c4.6,0,8.8,2.4,11.1,6.4l21,36.4c2.3,4,2.3,8.8,0,12.8l-21,36.4C386.1,302.8,381.9,305.2,377.3,305.2z M342.6,279.6h27.3
		l13.7-23.6l-13.7-23.6h-27.3L329,256L342.6,279.6z"/>
	<path class="st1" d="M128.9,356.4h-24c-4.6,0-8.8-2.4-11.1-6.4l-50.6-87.6c-2.3-4-2.3-8.8,0-12.8L93.8,162c2.3-4,6.5-6.4,11.1-6.4
		h24c7.1,0,12.8,5.7,12.8,12.8s-5.7,12.8-12.8,12.8h-16.6L69,256l43.2,74.8h16.6c7.1,0,12.8,5.7,12.8,12.8S135.9,356.4,128.9,356.4z
		"/>
	<path class="st1" d="M195.8,356.4h-24c-4.6,0-8.8-2.4-11.1-6.4l-50.6-87.6c-2.3-4-2.3-8.8,0-12.8l50.6-87.6c2.3-4,6.5-6.4,11.1-6.4
		h24c7.1,0,12.8,5.7,12.8,12.8s-5.7,12.8-12.8,12.8h-16.6L136,256l43.2,74.8h16.6c7.1,0,12.8,5.7,12.8,12.8S202.9,356.4,195.8,356.4
		z"/>
	<path class="st1" d="M262.8,356.4h-24c-4.6,0-8.8-2.4-11.1-6.4l-50.6-87.6c-2.3-4-2.3-8.8,0-12.8l50.6-87.6c2.3-4,6.5-6.4,11.1-6.4
		h24c7.1,0,12.8,5.7,12.8,12.8s-5.7,12.8-12.8,12.8h-16.6L202.9,256l43.2,74.8h16.6c7.1,0,12.8,5.7,12.8,12.8
		S269.8,356.4,262.8,356.4z"/>
	<path class="st1" d="M335.3,232.4c-4.6,0-8.8-2.4-11.1-6.4l-29.6-51.2c-3.6-6.1-1.5-13.9,4.6-17.5c6.1-3.6,13.9-1.5,17.5,4.6
		c0,0,0,0.1,0.1,0.1l29.6,51.2c3.5,6.1,1.4,14-4.7,17.5C339.7,231.8,337.5,232.4,335.3,232.4L335.3,232.4z"/>
	<path class="st1" d="M377.3,232.4c-7.1,0-12.8-5.8-12.8-12.8c0-2.2,0.6-4.4,1.7-6.4l29.6-51.2c3.5-6.1,11.3-8.3,17.5-4.8
		s8.3,11.3,4.8,17.5c0,0,0,0.1-0.1,0.1L388.4,226C386.1,229.9,381.9,232.4,377.3,232.4z"/>
	<path class="st1" d="M457.5,268.8h-59.1c-7.1,0-12.8-5.7-12.8-12.8s5.7-12.8,12.8-12.8h59.1c7.1,0,12.8,5.7,12.8,12.8
		S464.6,268.8,457.5,268.8z"/>
	<path class="st1" d="M314.2,268.8h-59.1c-7.1,0-12.8-5.7-12.8-12.8s5.7-12.8,12.8-12.8h59.1c7.1,0,12.8,5.7,12.8,12.8
		S321.3,268.8,314.2,268.8z"/>
	<path class="st1" d="M305.7,356.4c-7.1,0-12.8-5.8-12.8-12.8c0-2.2,0.6-4.4,1.7-6.4l29.6-51.2c3.5-6.1,11.3-8.3,17.5-4.8
		c6.1,3.5,8.3,11.3,4.8,17.5c0,0,0,0.1-0.1,0.1L316.8,350C314.5,354,310.2,356.5,305.7,356.4z"/>
	<path class="st1" d="M406.9,356.4c-4.6,0-8.8-2.4-11.1-6.4l-29.6-51.2c-3.5-6.1-1.4-14,4.8-17.5c6.1-3.5,13.9-1.4,17.4,4.7
		l29.6,51.2c3.5,6.1,1.4,14-4.7,17.5C411.3,355.9,409.1,356.4,406.9,356.4L406.9,356.4z"/>
	<path class="st1" d="M259.8,268.8H54.3c-7.1,0-12.8-5.7-12.8-12.8s5.7-12.8,12.8-12.8h205.6c7.1,0,12.8,5.7,12.8,12.8
		S266.9,268.8,259.8,268.8z"/>
</g>
</svg>
