<?xml version="1.0" encoding="utf-8"?>
<!-- Generator: Adobe Illustrator 28.2.0, SVG Export Plug-In . SVG Version: 6.00 Build 0)  -->
<svg version="1.1" id="Layer_1" xmlns="http://www.w3.org/2000/svg" xmlns:xlink="http://www.w3.org/1999/xlink" x="0px" y="0px"
	 viewBox="0 0 512 512" style="enable-background:new 0 0 512 512;" xml:space="preserve">
<style type="text/css">
	.st0{fill:#FFFFFF;}
</style>
<g>
	<path class="st0" d="M319.1,190.6H194.3c-3.5,0-6.4,2.9-6.4,6.4l0,81.6h137.6V197C325.4,193.5,322.6,190.7,319.1,190.6z"/>
	<path class="st0" d="M460.8,44.8H51.2C22.9,44.8,0,67.7,0,96v320c0,28.3,22.9,51.2,51.2,51.2h409.6c28.3,0,51.2-22.9,51.2-51.2V96
		C512,67.7,489.1,44.8,460.8,44.8z M149.5,197c0-24.7,20.1-44.8,44.8-44.8h124.8c24.7,0,44.8,20.1,44.8,44.8l0,120H149.5V197z
		 M58.5,201.9v-50.4h38.4v50.4c0,2.2,1.8,3.9,3.9,3.9h23.1v38.4h-23.1C77.4,244.2,58.5,225.2,58.5,201.9z M411.2,379.7H100.8v-38.4
		h310.4V379.7z M453.5,201.9c0,23.4-19,42.3-42.3,42.3h-21.7v-38.4h21.7c2.2,0,3.9-1.8,3.9-3.9v-50.4h38.4V201.9z"/>
</g>
</svg>
