<?xml version="1.0" encoding="utf-8"?>
<!-- Generator: Adobe Illustrator 28.2.0, SVG Export Plug-In . SVG Version: 6.00 Build 0)  -->
<svg version="1.1" id="Layer_1" xmlns="http://www.w3.org/2000/svg" xmlns:xlink="http://www.w3.org/1999/xlink" x="0px" y="0px"
	 viewBox="0 0 512 512" style="enable-background:new 0 0 512 512;" xml:space="preserve">
<style type="text/css">
	.st0{fill:#FFFFFF;}
</style>
<g>
	<path class="st0" d="M457.8,46.3H54.2C24.3,46.4,0.1,70.6,0,100.5v310.9c0.1,29.9,24.3,54.1,54.2,54.2h403.6
		c29.9-0.1,54.1-24.3,54.2-54.2V100.5C511.9,70.6,487.7,46.4,457.8,46.3z M132.1,412.4c-27.4,0-49.7-22.2-49.7-49.6
		s22.2-49.7,49.6-49.7c0,0,0.1,0,0.1,0c8.3,0,16.4,2.1,23.7,6.1l-36.6,21.3c-12.3,7.2-16.5,22.9-9.3,35.2
		c7.1,12.3,22.9,16.5,35.2,9.3c0,0,0,0,0,0l36.7-21.3C181.2,390.8,159.2,412.4,132.1,412.4z M230.8,319.8l-92.4,53.7
		c-5.9,3.4-13.5,1.4-17-4.5c-3.4-5.9-1.4-13.5,4.5-17l92.4-53.7c5.9-3.4,13.5-1.4,17,4.5C238.8,308.7,236.8,316.3,230.8,319.8z
		 M230.2,148.1l-0.2,42.3c-23.4-14.3-30.7-44.9-16.4-68.3s44.9-30.7,68.3-16.4c23.4,14.3,30.7,44.9,16.4,68.3
		c-4.2,6.8-9.9,12.5-16.8,16.6l0.2-42.3c0.1-14.2-11.4-25.8-25.7-25.9S230.3,133.9,230.2,148.1C230.2,148.1,230.2,148.1,230.2,148.1
		L230.2,148.1z M268,255.2c0,6.8-5.6,12.4-12.4,12.4h0c-6.9,0-12.4-5.6-12.4-12.5l0.4-106.9c0-6.8,5.6-12.4,12.4-12.4h0
		c6.9,0,12.4,5.6,12.4,12.5L268,255.2z M275.9,302.7c3.4-5.9,11-8,17-4.5c0,0,0,0,0,0l93.2,53.8c5.9,3.4,8,11,4.6,17
		c-3.4,5.9-11,8-17,4.6c0,0,0,0,0,0l-93.2-53.8C274.5,316.3,272.5,308.7,275.9,302.7C275.9,302.7,275.9,302.7,275.9,302.7z
		 M379.9,412.4c-27,0-49-21.6-49.6-48.6l36.7,21.2c12.3,7.1,28.1,2.9,35.2-9.4c7.1-12.3,2.9-28.1-9.4-35.2l0,0l-36.7-21.2
		c7.3-4,15.5-6.2,23.8-6.2c27.4,0,49.7,22.2,49.7,49.6C429.6,390.1,407.4,412.4,379.9,412.4C379.9,412.4,379.9,412.4,379.9,412.4
		L379.9,412.4z"/>
</g>
</svg>
