<?xml version="1.0" encoding="utf-8"?>
<!-- Generator: Adobe Illustrator 28.2.0, SVG Export Plug-In . SVG Version: 6.00 Build 0)  -->
<svg version="1.1" id="Layer_1" xmlns="http://www.w3.org/2000/svg" xmlns:xlink="http://www.w3.org/1999/xlink" x="0px" y="0px"
	 viewBox="0 0 512 512" style="enable-background:new 0 0 512 512;" xml:space="preserve">
<style type="text/css">
	.st0{fill:#D13306;}
	.st1{fill:#FFFFFF;}
</style>
<g>
	<path class="st0" d="M51.2,44.8h409.6c28.3,0,51.2,22.9,51.2,51.2v320c0,28.3-22.9,51.2-51.2,51.2H51.2C22.9,467.2,0,444.3,0,416
		V96C0,67.7,22.9,44.8,51.2,44.8z"/>
	<path class="st1" d="M256,140.3l100.2,57.8v115.7L256,371.7l-100.2-57.8V198.2L256,140.3 M256,96l-138.6,80v160L256,416l138.6-80
		V176L256,96z"/>
	<polygon class="st1" points="286.2,194.2 286.2,236.8 225.8,236.8 225.8,194.2 187.4,216.4 187.4,295.6 225.8,317.8 225.8,275.2 
		286.2,275.2 286.2,317.8 324.6,295.6 324.6,216.4 	"/>
</g>
</svg>
