<?xml version="1.0" encoding="utf-8"?>
<!-- Generator: Adobe Illustrator 28.2.0, SVG Export Plug-In . SVG Version: 6.00 Build 0)  -->
<svg version="1.1" id="Layer_1" xmlns="http://www.w3.org/2000/svg" xmlns:xlink="http://www.w3.org/1999/xlink" x="0px" y="0px"
	 viewBox="0 0 512 512" style="enable-background:new 0 0 512 512;" xml:space="preserve">
<style type="text/css">
	.st0{fill:#1167F1;}
	.st1{fill:#FFFFFF;}
</style>
<g>
	<path class="st0" d="M51.2,44.8h409.6c28.3,0,51.2,22.9,51.2,51.2v320c0,28.3-22.9,51.2-51.2,51.2H51.2C22.9,467.2,0,444.3,0,416
		V96C0,67.7,22.9,44.8,51.2,44.8z"/>
	<path class="st1" d="M268.7,267c-11.8,0-22.1-8.1-24.9-19.6l-22.6-93.6H101c-14.1,0-25.6-11.5-25.6-25.6
		c0-14.1,11.5-25.6,25.6-25.6h140.3c11.8,0,22.1,8.1,24.9,19.6l27.4,113.1c3.3,13.8-5.1,27.6-18.9,30.9
		C272.7,266.7,270.7,267,268.7,267L268.7,267z"/>
	<path class="st1" d="M135.7,219.3c-14.1,0-25.6-11.5-25.6-25.6c0,0,0,0,0,0v-65.4c0-14.1,11.5-25.6,25.6-25.6s25.6,11.5,25.6,25.6
		v65.4C161.3,207.8,149.9,219.3,135.7,219.3C135.7,219.3,135.7,219.3,135.7,219.3z"/>
	<path class="st1" d="M333.3,364.3h-80c-14.1,0-25.6-11.4-25.6-25.6l0-15c0-46.7-37.9-84.6-84.6-84.6H101
		c-14.1,0-25.6-11.5-25.6-25.6s11.5-25.6,25.6-25.6h42.1c70.9,0.1,129.8,54.6,135.4,125.2h54.8c14.1,0,25.6,11.5,25.6,25.6
		C358.9,352.8,347.5,364.3,333.3,364.3L333.3,364.3z"/>
	<path class="st1" d="M394.6,323.7c-14.1,0-25.6-11.5-25.6-25.6c0,0,0,0,0,0V267H268.7c-14.1,0-25.6-11.5-25.6-25.6
		c0-14.1,11.5-25.6,25.6-25.6h116.7c19.2,0,34.8,15.6,34.8,34.8v47.5C420.2,312.2,408.8,323.7,394.6,323.7
		C394.6,323.7,394.6,323.7,394.6,323.7z"/>
	<path class="st1" d="M135,306.2c14.1,0,25.6,11.5,25.6,25.6c0,14.1-11.5,25.6-25.6,25.6s-25.6-11.5-25.6-25.6
		C109.4,317.6,120.9,306.2,135,306.2C135,306.2,135,306.2,135,306.2 M135,255c-42.4,0-76.8,34.4-76.8,76.8s34.4,76.8,76.8,76.8
		s76.8-34.4,76.8-76.8C211.8,289.4,177.4,255,135,255z"/>
	<path class="st1" d="M388.9,331.8c7.1,0,12.8,5.7,12.8,12.8s-5.7,12.8-12.8,12.8c-7.1,0-12.8-5.7-12.8-12.8
		S381.9,331.8,388.9,331.8 M388.9,280.6c-35.3,0-64,28.7-64,64s28.7,64,64,64s64-28.7,64-64C452.9,309.2,424.3,280.6,388.9,280.6z"
		/>
</g>
</svg>
