<?xml version="1.0" encoding="utf-8"?>
<!-- Generator: Adobe Illustrator 28.2.0, SVG Export Plug-In . SVG Version: 6.00 Build 0)  -->
<svg version="1.1" id="Layer_1" xmlns="http://www.w3.org/2000/svg" xmlns:xlink="http://www.w3.org/1999/xlink" x="0px" y="0px"
	 viewBox="0 0 512 512" style="enable-background:new 0 0 512 512;" xml:space="preserve">
<style type="text/css">
	.st0{fill:#72C2CF;}
</style>
<g>
	<path class="st0" d="M426.7,281.5c-18.9,9.3-51.3,22.1-85.3,22.1s-66.4-12.8-85.3-22.1c-18.9,9.3-51.3,22.1-85.3,22.1
		c-34,0-66.4-12.8-85.3-22.1C66.4,290.7,34,303.6,0,303.6v107.9c0.1,29.9,24.3,54.1,54.2,54.2h403.6c29.9-0.1,54.1-24.3,54.2-54.2
		V303.6C478,303.6,445.6,290.7,426.7,281.5z"/>
	<path class="st0" d="M68.8,218.7l16.6-10.1l16.6,10.2c9.8,6,41.5,21.6,68.7,21.6c32.8,0,68.4-21.4,68.7-21.6l16.6-10.3l16.6,10.3
		c9.8,6,41.4,21.6,68.7,21.6c27.3,0,58.9-15.7,68.8-21.7l16.6-10.1l16.6,10.2c9.8,6,41.4,21.6,68.7,21.6V100.5
		c-0.1-29.9-24.3-54.1-54.2-54.2H54.2C24.3,46.4,0.1,70.6,0,100.5v139.8C27.3,240.3,58.9,224.7,68.8,218.7z"/>
</g>
</svg>
