<?xml version="1.0" encoding="utf-8"?>
<!-- Generator: Adobe Illustrator 28.2.0, SVG Export Plug-In . SVG Version: 6.00 Build 0)  -->
<svg version="1.1" id="Layer_1" xmlns="http://www.w3.org/2000/svg" xmlns:xlink="http://www.w3.org/1999/xlink" x="0px" y="0px"
	 viewBox="0 0 512 512" style="enable-background:new 0 0 512 512;" xml:space="preserve">
<style type="text/css">
	.st0{fill:#FFC61C;}
</style>
<g>
	<path class="st0" d="M457.8,46.3H54.2C24.3,46.4,0.1,70.6,0,100.5v310.9c0.1,29.9,24.3,54.1,54.2,54.2h403.6
		c29.9-0.1,54.1-24.3,54.2-54.2V100.5C511.9,70.6,487.7,46.4,457.8,46.3z M216.3,351.3l-98.5,57.2c-12.6,7.3-28.7,3-36-9.5
		c-7.3-12.6-3-28.7,9.5-36l0,0l98.5-57.2c12.6-7.3,28.7-3,36,9.5C233.2,327.8,228.9,343.9,216.3,351.3L216.3,351.3z M255.1,264H255
		c-14.6-0.1-26.3-11.9-26.2-26.5c0,0,0,0,0,0l0.5-113.5c0.1-14.5,11.8-26.2,26.4-26.2h0.1c14.6,0.1,26.3,11.9,26.2,26.5l-0.5,113.5
		C281.4,252.3,269.6,264,255.1,264z M429.4,398.9c-7.3,12.6-23.4,16.9-36,9.7c0,0,0,0,0,0l-98.6-57c-12.6-7.3-16.9-23.4-9.6-36
		c7.3-12.6,23.4-16.9,36-9.6l0,0l98.6,57C432.3,370.2,436.7,386.3,429.4,398.9C429.4,398.9,429.4,398.9,429.4,398.9L429.4,398.9z"/>
</g>
</svg>
