<?xml version="1.0" encoding="utf-8"?>
<!-- Generator: Adobe Illustrator 28.2.0, SVG Export Plug-In . SVG Version: 6.00 Build 0)  -->
<svg version="1.1" id="Layer_1" xmlns="http://www.w3.org/2000/svg" xmlns:xlink="http://www.w3.org/1999/xlink" x="0px" y="0px"
	 viewBox="0 0 512 512" style="enable-background:new 0 0 512 512;" xml:space="preserve">
<style type="text/css">
	.st0{fill:#FFFFFF;}
</style>
<g>
	<path class="st0" d="M221.2,153.8h-59.8v35.3c30.1,4.1,57.1,18,77.7,38.5L221.2,153.8z"/>
	<path class="st0" d="M135,306.2C135,306.2,135,306.2,135,306.2c-14.1,0-25.6,11.5-25.6,25.6c0,14.1,11.5,25.6,25.6,25.6
		s25.6-11.5,25.6-25.6S149.2,306.2,135,306.2z"/>
	<path class="st0" d="M369,283.7V267H268.9c-0.1,0-0.1,0-0.2,0v0c-0.1,0-0.2,0-0.4,0c-0.5,0-1,0-1.5-0.1c-0.1,0-0.3,0-0.4,0
		c6.6,14.2,10.8,29.8,12.1,46.2h54.7C341,299.3,353.8,288.7,369,283.7z"/>
	<path class="st0" d="M460.8,44.8H51.2C22.9,44.8,0,67.7,0,96v320c0,28.3,22.9,51.2,51.2,51.2h409.6c28.3,0,51.2-22.9,51.2-51.2V96
		C512,67.7,489.1,44.8,460.8,44.8z M135,408.6c-42.4,0-76.8-34.4-76.8-76.8S92.6,255,135,255c42.4,0,76.8,34.4,76.8,76.8
		C211.8,374.2,177.4,408.6,135,408.6z M388.9,408.6c-28.5,0-52.6-18.6-60.9-44.3h-74.7c-14.1,0-25.6-11.4-25.6-25.6l0-15
		c0-46.7-37.9-84.6-84.6-84.6H101c-14.1,0-25.6-11.5-25.6-25.6s11.5-25.6,25.6-25.6h9.1v-34H101c-14.1,0-25.6-11.5-25.6-25.6
		s11.5-25.6,25.6-25.6h140.3c11.8,0,22.1,8.1,24.9,19.6l22.6,93.6h96.6c19.2,0,34.8,15.6,34.8,34.8v38.2
		c19.5,11,32.7,31.8,32.7,55.8C452.9,379.9,424.3,408.6,388.9,408.6z"/>
	
		<ellipse transform="matrix(0.3827 -0.9239 0.9239 0.3827 -78.2291 572.023)" class="st0" cx="388.9" cy="344.6" rx="12.8" ry="12.8"/>
</g>
</svg>
