<?xml version="1.0" encoding="utf-8"?>
<!-- Generator: Adobe Illustrator 28.2.0, SVG Export Plug-In . SVG Version: 6.00 Build 0)  -->
<svg version="1.1" id="Layer_1" xmlns="http://www.w3.org/2000/svg" xmlns:xlink="http://www.w3.org/1999/xlink" x="0px" y="0px"
	 viewBox="0 0 512 512" style="enable-background:new 0 0 512 512;" xml:space="preserve">
<style type="text/css">
	.st0{fill:#FFFFFF;}
</style>
<g>
	<path class="st0" d="M460.8,44.8H51.2C22.9,44.8,0,67.7,0,96v320c0,28.3,22.9,51.2,51.2,51.2h409.6c28.3,0,51.2-22.9,51.2-51.2V96
		C512,67.7,489.1,44.8,460.8,44.8z M435.6,297.6c-2.9,3.6-71.9,89.3-179.6,89.3c-64.1,0-114.4-30.3-145.3-55.6v7.1
		c0,10.6-8.6,19.2-19.2,19.2c0,0,0,0,0,0c-10.6,0-19.2-8.6-19.2-19.2c0,0,0,0,0,0v-52.7c0,0,0,0,0,0c0-5.7,2.5-11.2,7.3-15
		c0.4-0.3,0.7-0.5,1.1-0.8c0,0,0.1-0.1,0.1-0.1c0.5-0.3,0.9-0.6,1.4-0.9c0.1,0,0.1-0.1,0.2-0.1c0.5-0.3,1-0.5,1.5-0.7
		c0.1,0,0.1-0.1,0.2-0.1c0.5-0.2,1.1-0.4,1.6-0.6c0.1,0,0.1,0,0.2-0.1c0.6-0.2,1.1-0.3,1.7-0.4c0.1,0,0.1,0,0.2,0
		c0.6-0.1,1.2-0.2,1.8-0.3c0,0,0.1,0,0.1,0c0.8-0.1,1.6-0.1,2.5-0.1h52.1c10.6,0,19.2,8.6,19.2,19.2s-8.6,19.2-19.2,19.2h-4.7
		c26.3,20.5,67,43.6,116.6,43.6c88.8,0,148.9-74,149.5-74.8c6.6-8.3,18.7-9.7,27-3.1C440.8,277.3,442.1,289.3,435.6,297.6z
		 M191.1,256c0-35.3,28.7-64,64-64c35.3,0,64,28.7,64,64c0,35.3-28.7,64-64,64C219.8,320,191.1,291.4,191.1,256z M439.7,226.3
		c0,0.1,0,0.1,0,0.2c0,0.4,0,0.8-0.1,1.1c0,0.3,0,0.5-0.1,0.8c0,0.3-0.1,0.6-0.1,0.9c-0.1,0.3-0.1,0.7-0.2,1c0,0.2-0.1,0.4-0.2,0.6
		c-0.1,0.4-0.2,0.8-0.3,1.2c-0.1,0.2-0.1,0.4-0.2,0.5c-0.1,0.4-0.3,0.8-0.4,1.2c-0.1,0.3-0.3,0.5-0.4,0.8c-0.1,0.3-0.3,0.6-0.4,0.8
		c-0.2,0.4-0.4,0.7-0.6,1.1c-0.1,0.2-0.2,0.3-0.3,0.5c-0.2,0.3-0.5,0.6-0.7,1c-0.1,0.2-0.3,0.4-0.4,0.5c-0.2,0.3-0.4,0.5-0.7,0.7
		c-0.2,0.2-0.4,0.5-0.6,0.7c-0.2,0.2-0.4,0.4-0.6,0.5c-0.3,0.3-0.6,0.5-0.8,0.7c0,0-0.1,0.1-0.1,0.1c-0.2,0.2-0.5,0.4-0.7,0.5
		c-0.2,0.1-0.3,0.3-0.5,0.4c-0.5,0.3-0.9,0.6-1.4,0.9c-0.2,0.1-0.5,0.2-0.7,0.3c-0.3,0.1-0.6,0.3-0.9,0.4c-0.3,0.1-0.5,0.2-0.8,0.3
		c-0.3,0.1-0.5,0.2-0.8,0.3c-0.3,0.1-0.6,0.2-0.8,0.3c-0.3,0.1-0.6,0.2-0.9,0.2c-0.3,0.1-0.5,0.1-0.8,0.2c-0.4,0.1-0.7,0.1-1.1,0.2
		c-0.2,0-0.4,0.1-0.7,0.1c-0.6,0.1-1.2,0.1-1.8,0.1c0,0,0,0,0,0c0,0,0,0,0,0c0,0,0,0,0,0h-52.7c-10.6,0-19.2-8.6-19.2-19.2
		s8.6-19.2,19.2-19.2h4.7c-26.3-20.5-67-43.6-116.6-43.6c-88.8,0-148.9,74-149.5,74.8c-6.6,8.3-18.7,9.7-27,3
		c-8.3-6.6-9.7-18.6-3.1-26.9c2.9-3.6,71.9-89.3,179.6-89.3c64.1,0,114.4,30.3,145.3,55.6v-7.1c0-10.6,8.6-19.2,19.2-19.2
		c10.6,0,19.2,8.6,19.2,19.2V226.3z"/>
	<polygon class="st0" points="288.4,243.2 259.4,243.2 268.4,192.6 221.8,268.7 250.9,268.7 241.8,319.3 	"/>
</g>
</svg>
