<?xml version="1.0" encoding="utf-8"?>
<!-- Generator: Adobe Illustrator 28.2.0, SVG Export Plug-In . SVG Version: 6.00 Build 0)  -->
<svg version="1.1" id="Layer_1" xmlns="http://www.w3.org/2000/svg" xmlns:xlink="http://www.w3.org/1999/xlink" x="0px" y="0px"
	 viewBox="0 0 512 512" style="enable-background:new 0 0 512 512;" xml:space="preserve">
<style type="text/css">
	.st0{fill:#0081BE;}
	.st1{fill:#FFFFFF;}
</style>
<g>
	<path class="st0" d="M51.2,44.8h409.6c28.3,0,51.2,22.9,51.2,51.2v320c0,28.3-22.9,51.2-51.2,51.2H51.2C22.9,467.2,0,444.3,0,416
		V96C0,67.7,22.9,44.8,51.2,44.8z"/>
	<rect x="100.8" y="341.3" class="st1" width="310.4" height="38.4"/>
	<path class="st1" d="M363.9,317H149.5V197c0-24.7,20.1-44.8,44.8-44.8h124.8c24.7,0,44.8,20.1,44.8,44.8L363.9,317z M187.9,278.6
		h137.6V197c0-3.5-2.9-6.4-6.4-6.4H194.3c-3.5,0-6.4,2.9-6.4,6.4L187.9,278.6z"/>
	<path class="st1" d="M123.9,244.2h-23.1c-23.4,0-42.3-19-42.3-42.3v-50.4h38.4v50.4c0,2.2,1.8,3.9,3.9,3.9h23.1V244.2z"/>
	<path class="st1" d="M411.2,244.2h-21.7v-38.4h21.7c2.2,0,3.9-1.8,3.9-3.9v-50.4h38.4v50.4C453.5,225.2,434.6,244.2,411.2,244.2z"
		/>
</g>
</svg>
