<?xml version="1.0" encoding="utf-8"?>
<!-- Generator: Adobe Illustrator 27.7.0, SVG Export Plug-In . SVG Version: 6.00 Build 0)  -->
<svg version="1.1" id="Layer_1" xmlns="http://www.w3.org/2000/svg" xmlns:xlink="http://www.w3.org/1999/xlink" x="0px" y="0px"
	 viewBox="0 0 512 512" style="enable-background:new 0 0 512 512;" xml:space="preserve">
<style type="text/css">
	.st0{fill:#912626;}
	.st1{fill:#C6302B;}
	.st2{fill:#FFFFFF;}
	.st3{fill:#621B1C;}
	.st4{fill:#9A2928;}
</style>
<g>
	<path class="st0" d="M491.9,374.1c-27.3,14.2-168.9,72.4-199,88.1c-30.1,15.7-46.9,15.6-70.7,4.2c-23.8-11.4-174.4-72.2-201.6-85.2
		C7.1,374.8,0,369.3,0,364.1v-51.8c0,0,196.1-42.7,227.8-54c31.7-11.4,42.6-11.8,69.6-1.9c26.9,9.9,188,38.9,214.7,48.7l0,51
		C512,361.3,505.8,366.9,491.9,374.1"/>
	<path class="st1" d="M491.9,322.7c-27.3,14.2-168.9,72.4-199,88.1c-30.1,15.7-46.9,15.6-70.7,4.2c-23.8-11.4-174.4-72.2-201.6-85.2
		c-27.1-13-27.7-21.9-1-32.3c26.7-10.4,176.4-69.2,208.1-80.6c31.7-11.4,42.6-11.8,69.6-1.9c26.9,9.9,167.6,65.9,194.3,75.6
		C518.2,300.4,519.3,308.4,491.9,322.7"/>
	<path class="st0" d="M491.9,290.4c-27.3,14.2-168.9,72.4-199,88.2c-30.1,15.7-46.9,15.6-70.7,4.2c-23.8-11.4-174.4-72.2-201.6-85.2
		C7.1,291,0,285.6,0,280.4v-51.8c0,0,196.1-42.7,227.8-54c31.7-11.4,42.6-11.8,69.6-1.9c26.9,9.9,188,38.9,214.7,48.7l0,51
		C512,277.5,505.8,283.1,491.9,290.4"/>
	<path class="st1" d="M491.9,238.9c-27.3,14.2-168.9,72.4-199,88.2c-30.1,15.7-46.9,15.6-70.7,4.2C198.5,319.9,47.8,259,20.7,246.1
		c-27.1-13-27.7-21.9-1-32.3c26.7-10.4,176.5-69.2,208.1-80.6c31.7-11.4,42.6-11.8,69.6-1.9c26.9,9.9,167.6,65.9,194.3,75.6
		C518.2,216.7,519.3,224.7,491.9,238.9"/>
	<path class="st0" d="M491.9,203.6c-27.3,14.2-168.9,72.4-199,88.2c-30.1,15.7-46.9,15.6-70.7,4.2c-23.8-11.4-174.4-72.2-201.6-85.2
		C7.1,204.2,0,198.7,0,193.6v-51.8c0,0,196.1-42.7,227.8-54c31.7-11.4,42.6-11.8,69.6-1.9c26.9,9.9,188,38.9,214.7,48.7l0,51
		C512,190.7,505.8,196.3,491.9,203.6"/>
	<path class="st1" d="M491.9,152.1c-27.3,14.2-168.9,72.4-199,88.1c-30.1,15.7-46.9,15.6-70.7,4.2c-23.8-11.4-174.4-72.2-201.6-85.2
		c-27.1-13-27.7-21.9-1.1-32.3c26.7-10.4,176.5-69.2,208.1-80.6c31.7-11.4,42.6-11.8,69.6-1.9c26.9,9.9,167.6,65.9,194.3,75.6
		C518.2,129.8,519.3,137.9,491.9,152.1"/>
	<path class="st2" d="M318.6,101.8l-44,4.6l-9.9,23.7l-15.9-26.5L197.9,99l37.9-13.7l-11.4-21L260,78.2l33.5-11l-9,21.7L318.6,101.8
		 M262.1,216.8l-82.2-34.1l117.7-18.1L262.1,216.8 M148.2,114.9c34.8,0,62.9,10.9,62.9,24.4c0,13.5-28.2,24.4-62.9,24.4
		s-62.9-10.9-62.9-24.4C85.2,125.9,113.4,114.9,148.2,114.9"/>
	<path class="st3" d="M370.6,108.2l69.7,27.5l-69.6,27.5L370.6,108.2"/>
	<path class="st4" d="M293.5,138.7l77.1-30.5l0.1,55l-7.6,3L293.5,138.7"/>
</g>
</svg>
