<?xml version="1.0" encoding="utf-8"?>
<!-- Generator: Adobe Illustrator 27.7.0, SVG Export Plug-In . SVG Version: 6.00 Build 0)  -->
<svg version="1.1" id="Layer_1" xmlns="http://www.w3.org/2000/svg" xmlns:xlink="http://www.w3.org/1999/xlink" x="0px" y="0px"
	 viewBox="0 0 512 512" style="enable-background:new 0 0 512 512;" xml:space="preserve">
<style type="text/css">
	.st0{fill:#FFFFFF;}
</style>
<g>
	<path class="st0" d="M265.1,184.1h-36.4V244h36.4c22,0,32.3-11.4,32.3-30.3C297.4,195.8,287.1,184.1,265.1,184.1z"/>
	<path class="st0" d="M425.5,0h-339C38.7,0,0,38.7,0,86.5v339C0,473.3,38.7,512,86.5,512h339c47.8,0,86.5-38.7,86.5-86.5v-339
		C512,38.7,473.3,0,425.5,0z M292.9,376.8l-50.1-91.2h-14.1v91.1h-58.7V184.2l-35.2-49h35.2h98.5c59,0,88.5,34.1,88.5,76
		c0.3,16-4.8,31.7-14.5,44.4c-9.7,12.7-23.5,21.7-39,25.5l55.6,95.6H292.9z"/>
</g>
</svg>
