<?xml version="1.0" encoding="utf-8"?>
<!-- Generator: Adobe Illustrator 27.7.0, SVG Export Plug-In . SVG Version: 6.00 Build 0)  -->
<svg version="1.1" id="Layer_1" xmlns="http://www.w3.org/2000/svg" xmlns:xlink="http://www.w3.org/1999/xlink" x="0px" y="0px"
	 viewBox="0 0 512 512" style="enable-background:new 0 0 512 512;" xml:space="preserve">
<style type="text/css">
	.st0{fill:url(#路径_00000075131939676172743130000016197126229919353485_);}
	.st1{filter:url(#filter-2);}
	.st2{fill:url(#SVGID_1_);}
	.st3{fill-rule:evenodd;clip-rule:evenodd;fill:url(#椭圆形备份-26_00000165201337889049036350000000252774237165892265_);}
	.st4{fill-rule:evenodd;clip-rule:evenodd;fill:#FFFFFF;}
	.st5{opacity:0.405;fill-rule:evenodd;clip-rule:evenodd;fill:#FFFFFF;enable-background:new    ;}
	.st6{fill:#27B876;}
	.st7{filter:url(#filter-5);}
</style>
<filter  filterUnits="objectBoundingBox" height="236.8%" id="filter-5" width="133.9%" x="-16.9%" y="-57.9%">
	<feOffset  dx="0" dy="4" in="SourceAlpha" result="shadowOffsetOuter1"></feOffset>
	<feGaussianBlur  in="shadowOffsetOuter1" result="shadowBlurOuter1" stdDeviation="8"></feGaussianBlur>
	<feColorMatrix  in="shadowBlurOuter1" type="matrix" values="0 0 0 0 0   0 0 0 0 0.490319293   0 0 0 0 0.292243323  0 0 0 1 0">
		</feColorMatrix>
</filter>
<filter  filterUnits="objectBoundingBox" height="105.6%" id="filter-2" width="106.1%" x="-3.0%" y="-2.8%">
	<feGaussianBlur  in="SourceGraphic" stdDeviation="3"></feGaussianBlur>
</filter>
<g id="页面-1">
	<g id="编组-12" transform="translate(49.000000, 38.000000)">
		
			<linearGradient id="路径_00000111152403058441093650000017272952653791137925_" gradientUnits="userSpaceOnUse" x1="-472.87" y1="602.2238" x2="-472.87" y2="600.6435" gradientTransform="matrix(297.179 0 0 -324 140734.0312 195082.5)">
			<stop  offset="0" style="stop-color:#4B4B4B"/>
			<stop  offset="1" style="stop-color:#000000"/>
		</linearGradient>
		<path id="路径" style="fill:url(#路径_00000111152403058441093650000017272952653791137925_);" d="M434.3,55.3
			c-2.3-11.2-11.7-19.5-23.1-20c-87.9-2.3-160.2-47.1-189.3-68.4c-8.8-6.5-20.5-6.5-29.4,0C162.5-11.8,91,32.9,3.1,35.3
			c-11.2,0.5-21.1,8.8-23.1,20c-14,70.2-38.2,308.2,227.6,418.7C472.5,363.2,447.8,125.5,434.3,55.3z"/>
		<g id="路径_00000043417902962764982750000010437619798895276420_" class="st1">
			
				<linearGradient id="SVGID_1_" gradientUnits="userSpaceOnUse" x1="-472.87" y1="602.2238" x2="-472.87" y2="600.6435" gradientTransform="matrix(297.179 0 0 -324 140734.0312 195082.5)">
				<stop  offset="0" style="stop-color:#4B4B4B"/>
				<stop  offset="1" style="stop-color:#000000"/>
			</linearGradient>
			<path class="st2" d="M434.3,55.3c-2.3-11.2-11.7-19.5-23.1-20c-87.9-2.3-160.2-47.1-189.3-68.4c-8.8-6.5-20.5-6.5-29.4,0
				C162.5-11.8,91,32.9,3.1,35.3c-11.2,0.5-21.1,8.8-23.1,20c-14,70.2-38.2,308.2,227.6,418.7C472.5,363.2,447.8,125.5,434.3,55.3z"
				/>
		</g>
		
			<linearGradient id="椭圆形备份-26_00000039849367106722688470000012723578790476958363_" gradientUnits="userSpaceOnUse" x1="-472.1335" y1="601.768" x2="-472.1335" y2="600.1877" gradientTransform="matrix(204.8 0 0 -183.7899 96900.5938 110683.5156)">
			<stop  offset="0" style="stop-color:#24BC43;stop-opacity:0.8"/>
			<stop  offset="1" style="stop-color:#3ACBAB;stop-opacity:0.7"/>
		</linearGradient>
		
			<path id="椭圆形备份-26" style="fill-rule:evenodd;clip-rule:evenodd;fill:url(#椭圆形备份-26_00000039849367106722688470000012723578790476958363_);" d="
			M207.6,375.1c89.4,0,161.8-72.4,161.8-161.8c0-43.8-17.4-83.6-45.7-112.7c-19.9,13.3-57.9,29-74.1,20.8
			c-14.6-7.4-28.6-19.6-42-36.7c-11,17.3-22.6,28.4-35,33.3c-9.7,3.9-45.2,6.7-81.2-17.2c-28.2,29.1-45.6,68.8-45.6,112.6
			C45.8,302.6,118.3,375.1,207.6,375.1z"/>
		<g id="编组-5备份-6" transform="translate(91.771423, 102.101722)">
			<polygon id="路径-130备份-29" class="st4" points="116.7,221.8 206.3,170.9 126.3,123.9 97.6,139.1 152,170.9 116.7,190.8 
				53.2,154.7 53.2,142.9 25.4,126.2 25.4,170.9 			"/>
			<polygon id="路径-130备份-30" class="st4" points="115,21.2 25.4,72.1 105.4,119.1 134.2,103.9 79.7,72.1 115,52.2 
				178.6,88.3 178.6,100.2 206.3,116.8 206.3,72.1 			"/>
			<polygon id="路径-130备份-29_00000116218653331927370410000007490889690922405288_" class="st5" points="116.7,221.8 
				206.3,170.9 126.3,123.9 97.6,139.1 152,170.9 116.7,190.8 53.2,154.7 53.2,142.9 25.4,126.2 25.4,170.9 			"/>
			<polygon id="路径-130备份-30_00000150799112984667743050000018151114362553116296_" class="st5" points="115,21.2 25.4,72.1 
				105.4,119.1 134.2,103.9 79.7,72.1 115,52.2 178.6,88.3 178.6,100.2 206.3,116.8 206.3,72.1 			"/>
		</g>
		<g id="长亭logo备份-18" transform="translate(72.200000, 45.222222)">
			<g id="编组-7">
				<path id="路径_00000100380703326858477540000000759159908838009524_" class="st6" d="M167,16.7c0,0-27.5-4.3-31.6-28.5
					c-4.1,24.2-31.6,28.5-31.6,28.5C76,21.2,62.5,0.3,62.5,0.3C75.8,36.7,99,35.4,99,35.4h72.9c0,0,23.2,1.3,36.5-35.2
					C208.4,0.3,194.9,21.2,167,16.7L167,16.7z"/>
				<g id="路径_00000117654815036806611920000004145917493800335019_">
					<g class="st7">
						<path id="path-4_00000103968198602922918100000016437616233234663870_" d="M188,66.7c0,0-45.7-5.4-52.5-36.2
							c-6.8,30.8-52.5,36.2-52.5,36.2c-46.4,5.7-68.8-20.9-68.8-20.9c22,46.4,60.7,44.7,60.7,44.7h121.4c0,0,38.6,1.6,60.7-44.7
							C256.8,45.9,234.4,72.5,188,66.7z"/>
					</g>
					<g>
						<path id="path-4_00000127753009156522757750000014607192235337283241_" class="st6" d="M188,66.7c0,0-45.7-5.4-52.5-36.2
							c-6.8,30.8-52.5,36.2-52.5,36.2c-46.4,5.7-68.8-20.9-68.8-20.9c22,46.4,60.7,44.7,60.7,44.7h121.4c0,0,38.6,1.6,60.7-44.7
							C256.8,45.9,234.4,72.5,188,66.7z"/>
					</g>
				</g>
			</g>
		</g>
	</g>
</g>
</svg>
