<?xml version="1.0" encoding="utf-8"?>
<!-- Generator: Adobe Illustrator 27.7.0, SVG Export Plug-In . SVG Version: 6.00 Build 0)  -->
<svg version="1.1" id="site-logo" xmlns="http://www.w3.org/2000/svg" xmlns:xlink="http://www.w3.org/1999/xlink" x="0px" y="0px"
	 viewBox="0 0 63 63" style="enable-background:new 0 0 63 63;" xml:space="preserve">
<style type="text/css">
	.st0{fill:none;stroke:#FFFFFF;stroke-width:4;stroke-linecap:square;}
</style>
<g>
	<path class="st0" d="M27.6,49.4v11.2"/>
	<path class="st0" d="M18.5,60.7h18.2"/>
	<path class="st0" d="M27.6,2.3c3.9,0,7.8,0.9,11.3,2.7s6.5,4.4,8.7,7.6s3.6,6.8,4.1,10.6c0.4,3.8-0.1,7.7-1.5,11.2
		c-1.4,3.6-3.8,6.7-6.8,9.2s-6.6,4.3-10.4,5.1c-3.8,0.9-7.9,0.8-11.7-0.2S14,45.6,11.1,43"/>
	<path class="st0" d="M27.6,40.5c8.3,0,15-6.5,15-14.6s-6.7-14.6-15-14.6s-15,6.5-15,14.6C12.6,33.9,19.3,40.5,27.6,40.5z"/>
</g>
</svg>
