<?xml version="1.0" encoding="utf-8"?>
<!-- Generator: Adobe Illustrator 28.2.0, SVG Export Plug-In . SVG Version: 6.00 Build 0)  -->
<svg version="1.1" id="Layer_1" xmlns="http://www.w3.org/2000/svg" xmlns:xlink="http://www.w3.org/1999/xlink" x="0px" y="0px"
	 viewBox="0 0 410 410" style="enable-background:new 0 0 410 410;" xml:space="preserve">
<style type="text/css">
	.st0{fill:#2BB673;}
	.st1{fill:#018345;}
	.st2{fill:#81CAA6;}
	.st3{fill:none;stroke:#006838;stroke-width:20;stroke-miterlimit:10;}
</style>
<path id="leaf" class="st0" d="M27,387c35.89-35.79-36.11-188.79,53.89-278.79s162.42-80.26,306-81c-36,36,36,189-54,279
	S170.89,387.21,27,387z"/>
<g>
	<path id="tri-top-d" class="st1" d="M342.37,95.52c-3.47-3.47-13.86-13.86-13.86-13.86l-69.31,69.31c0,0,78.85,2.2,97.03-13.86
		C369.22,125.63,356.23,109.38,342.37,95.52z"/>
	<path id="tri-top-l" class="st2" d="M328.51,81.66l-69.31,69.31c0,0-3.29-79.88,13.86-97.03c12.25-12.25,27.72,0,41.58,13.86
		L328.51,81.66z"/>
	<path id="tri-mid-d" class="st1" d="M322.13,200.44c-6.53-20.01-56.23-56.21-56.23-56.21l-88.36,88.34c0,0,107.7,13.25,136.55-8.03
		C319.96,220.2,324.39,207.36,322.13,200.44z"/>
	<path id="tri-mid-l" class="st2" d="M209.67,88.01c20.63,5.68,56.23,56.21,56.23,56.21l-88.36,88.34c0,0-11.49-106.93,8.03-136.52
		C189.53,90.05,202.75,86.1,209.67,88.01z"/>
	<path id="tri-bot-d" class="st1" d="M69.95,340.07c0,0,120.82-0.41,162-9c15.17-3.16,25.78-10.09,27-27c2.36-32.68-72-81-72-81
		L69.95,340.07z"/>
	<path id="tri-bot-l" class="st2" d="M186.95,223.07c0,0-56.51-63.87-90-63c-13.8,0.36-24.14,21.93-27,36c-8.8,43.27,0,144,0,144
		L186.95,223.07z"/>
	<path id="stroke-outside" class="st3" d="M25.05,384.73c35.89-35.79-36.11-188.79,53.89-278.79s162.42-80.26,306-81
		c-36,36,36,189-54,279S168.95,384.94,25.05,384.73z"/>
</g>
</svg>
