<?xml version="1.0" encoding="utf-8"?>
<!-- Generator: Adobe Illustrator 27.7.0, SVG Export Plug-In . SVG Version: 6.00 Build 0)  -->
<svg version="1.1" id="Layer_1" xmlns="http://www.w3.org/2000/svg" xmlns:xlink="http://www.w3.org/1999/xlink" x="0px" y="0px"
	 viewBox="0 0 512 512" style="enable-background:new 0 0 512 512;" xml:space="preserve">
<style type="text/css">
	.st0{fill:#FFFFFF;}
</style>
<path class="st0" d="M441.2,0H70.7C31.7,0,0,31.7,0,70.7v370.6c0,39,31.7,70.7,70.7,70.7h370.6c39,0,70.7-31.7,70.7-70.7V70.7
	C511.9,31.7,480.3,0,441.2,0z M160.2,325.7c-38.7,0-70-31.3-70-70c0-38.7,31.3-70,70-70s70,31.3,70,70
	C230.2,294.4,198.9,325.7,160.2,325.7z M351.8,326.3c-38.7,0-70-31.3-70-70s31.3-70,70-70c38.7,0,70,31.3,70,70
	S390.5,326.3,351.8,326.3z"/>
</svg>
