<?xml version="1.0" encoding="utf-8"?>
<!-- Generator: Adobe Illustrator 28.2.0, SVG Export Plug-In . SVG Version: 6.00 Build 0)  -->
<svg version="1.1" id="Layer_1" xmlns="http://www.w3.org/2000/svg" xmlns:xlink="http://www.w3.org/1999/xlink" x="0px" y="0px"
	 viewBox="0 0 128 128" style="enable-background:new 0 0 128 128;" xml:space="preserve">
<style type="text/css">
	.st0{fill-rule:evenodd;clip-rule:evenodd;}
</style>
<path class="st0" d="M84.5,1.8c1.7-1.7,4.5-1.7,6.3,0c0,0,0,0,0,0l35.4,35.4c1.7,1.7,1.7,4.5,0,6.3c0,0,0,0,0,0l-16.9,16.9L102,89.7
	c-1.1,4.5-4.6,8.2-9.1,9.5L1.3,126.7l27.5-91.7c1.3-4.5,5-7.9,9.5-9.1l29.4-7.3L84.5,1.8z M68.5,27.6l-28.1,7
	c-1.5,0.4-2.7,1.5-3.2,3l-22.8,75.9l75.9-22.8c1.5-0.5,2.6-1.7,3-3.2l7-28.1L68.5,27.6L68.5,27.6z"/>
<path class="st0" d="M15.2,113.3L61,75.8c4.9,0,8.9-4,8.9-8.9c0-4.9-4-8.9-8.9-8.9c-4.9,0-8.9,4-8.9,8.9l0,0l-37.5,45.8l-0.2,0.8
	L15.2,113.3z"/>
</svg>
