<?xml version="1.0" encoding="utf-8"?>
<!-- Generator: Adobe Illustrator 27.7.0, SVG Export Plug-In . SVG Version: 6.00 Build 0)  -->
<svg version="1.1" id="Layer_1" xmlns="http://www.w3.org/2000/svg" xmlns:xlink="http://www.w3.org/1999/xlink" x="0px" y="0px"
	 viewBox="0 0 512 512" style="enable-background:new 0 0 512 512;" xml:space="preserve">
<style type="text/css">
	.st0{fill:#FFFFFF;fill-opacity:0.996;}
	.st1{fill:#FFFFFF;}
	.st2{fill:#D79630;}
</style>
<g>
	<path class="st0" d="M378.3,150.6l3.2,2.5l3.3,2l3.4,1.5l3.5,1l0,0l0,0l4.2,0.5l4.4-0.2l3.2-0.6l3-0.9l2.7-1.2l2.5-1.5l0,0l0,0
		l3.1-2.6l2.4-2.7l0,0l1.8-2.8l1.5-3l1.2-3.2l0.8-3.5l0.4-3.1l-0.1-3.3l-0.5-3.3l-0.9-3.5l-1.3-3.5l-1.7-3.5l-2-3.3l-2.2-3l-2.7-3
		l-2.8-2.7l-2.9-2.4l-3-2.1l-3.6-2.1l-3.7-1.8l-3.8-1.5l-3.9-1.2l0,0l0,0l0,0l-4.3-0.9l-4.3-0.5l-4.4-0.2l-4.5,0.2l-4.7,0.5
		l-4.6,0.8l-4.5,1.1l-4.4,1.3l0,0l0,0l-5.3,2l-5.2,2.5l-4.1,2.4l-4,2.7l-3.9,3l-3.8,3.3l-3.5,3.5l-3.3,3.7l-3,3.9l-2.7,4l0,0l0,0
		l0,0l0,0l-3.7,6.6l-3.1,7l-2.4,7.4l-1.8,7.8l-0.6,4l0,0l-0.7,5.7l-0.4,5.7l0,5.8l0.3,5.8l-0.2,0.6l-0.6,0.3h0l-19.1-0.3l18.9-0.2
		l0.3-0.1l0.1-0.3l-0.1-11.5l0.1-5.6l0.7-5.8l0.9-4.8l1.1-4.7l1.3-4.6l1.5-4.6l0,0l2-5l1.5-3.3l1.7-3l2.5-4l2.6-4l5.2-6.3l2.8-2.9
		l2.9-2.7l3-2.5l3.1-2.3l3.2-2.2l3.3-2l0,0l0,0l0,0l5.3-2.7l5.5-2.3l5.8-1.8l6-1.4l5.1-0.8l4.9-0.4h4.8l4.6,0.4l4.5,0.8l4.4,1.2
		l4.2,1.5l4.1,1.9l3.9,2.2l3.6,2.5l3.3,2.8l3.1,3.1l3.3,4.1l2.9,4.5l1.8,3.5l1.3,3.5l0.9,3.6l0.4,3.6l0,0l0,0l0,0v3.4l-0.4,3.4
		l-0.8,3.4l-1.2,3.4l-1.2,2.6l-1.5,2.4l-2.4,2.7l-2.9,2.4l-3.3,2l-3.3,1.6l-3.2,1.1l-3.1,0.6l-3,0.2l-2.9-0.1l-2.8-0.4l-2.7-0.7l0,0
		l0,0l-2.9-1.2l-2.8-1.5l-2.6-1.9L378.3,150.6z"/>
	<path class="st1" d="M378.3,150.6l-2.6-3l-1.8-3.9l-1.2-3.9l-0.6-3.9l-0.1-3.8l0,0l0,0l0,0l0.5-3.8l1.1-3.8l1.7-3.8l2.2-3.7
		l1.5-1.7l1.6-1.4l10.4-4.9l9.1,0.1l0.8-0.1l0.3-0.2l0,0l-0.1-0.4l-0.6-0.5l-2.2-1l-1.2-0.6l-0.4-0.6l-0.8-0.6l-3.5-1.7l-3.5-1.3
		l-3.5-1l-3.6-0.6l-1.5-0.1l-5.8-0.1l-2.7,0l-2.5,0.3l-2.3,0.7l-2.2,1l0,0l-1.9,1.2l-1.7,1.5l-1.6,1.8l-1.4,2l-1.2,2.3l-1.1,2.5
		l-0.9,2.6l-0.7,2.8l-1.2,6.4l-0.8,6.3l-0.3,6.2l0.1,6.1l-0.2,37.7l0.2,0.4l0.4,0.2l39.6,0.5l-0.3,7.6l-0.2,0.6l-0.6,0.2l-39.2,0.3
		l0.2,169.1l-0.3,0.8l-0.3,0.3l-0.4,0.1h-42l-0.6,0.2l-0.3,0.6l-1,5l-1.3,4.9l-1.6,4.7l-1.9,4.5l-2.2,4.4l-2.5,4.2l-2.8,4l-3.1,3.7
		l-3.6,3.8l-4,3.5l-4.2,3.1l-4.5,2.8l-5,2.6l-5.2,2.2l-5.3,1.7l-5.5,1.3l-5.6,0.9l-5.8,0.5l-79.5-0.2l-12.5,0.3l-8.4,0.2l-6.2,0
		l-4.7-0.2l-4.4-0.5l-4-0.7l-3.6-1l-4.3-1.5l-4-1.8l-3.7-2l-3.4-2.3l-2.5-2.1l-4.1-3.9l-0.7-0.5l-0.2-0.4l-1.3-2.2l-1.5-2.1
		l-1.2-1.8l-1.2-2.4l-1.1-3l-1.1-3.5l0-0.1h-0.1l-1.9,0.5l1.8-0.5l0-0.8l0.1-6l0.1-3.4l0.4-2.6l1-3.3l1.4-3.1l0,0l1.6-2.6l2-2.4
		l2.4-2.3l2.5-1.9l2.6-1.6l2.7-1.2l0,0l0,0l0,0l3.4-0.9l3.5-0.5l3.7,0l3.9,0.5l1.8,0.5l2.1,0.9l5.3,2.9l3.7,3.8l0.9,1.8l1.4,1.6
		l1.2,2.2l0.1,0.4l1,4.4l0.5,2.4l0.2,2l-0.2,4l-0.7,3.7l-1.2,3.4l-1.6,3.1l0,0l-1.9,2.6l-2.4,2.3l-2.8,2.1l-3.2,1.8l-1.9,0.8
		l-2.3,0.7l-4.3,1.1l-3.3,0.2l-0.9-0.7l-1.1-0.1l-0.3,0.2l0.2,0.3l1.8,1.3l1.9,0.7l4.8,2.2l2.1,1l2.1,0.8l0,0l2.9,0.6l3,0.2l1.7,0
		l-0.1,0l-0.1,0.1l0,0.2l0.2,0.1l6.4,0.4l6.4,0.2l5.8,0l16.4-0.4l72.7-0.1l6.5-0.3l6.2-0.8l5.9-1.3l5.6-1.8l6.3-2.8l5.8-3.3l5.2-3.9
		l4.6-4.4l0,0l2.2-2.6l2.1-2.7l1.9-2.9l1.8-3l1.6-3.2l1.4-3.3l1.3-3.5l1.1-3.6l1.9-7.5l0.5-2.9l0.2-3l-0.1-82l0.1-70.3l-0.2-3
		l-0.7-2.4l0-6.1l0.1-0.1l0-0.5l-0.5-0.3l-20.6-0.2l0.4-3.6l0.2-4.3l0.2-0.6l0,0l0.4-0.1l0.6,0.2l19.1,0.3h0l0.6-0.3l0.2-0.6
		l-0.3-5.8l0-5.8l0.4-5.7l0.7-5.7l0.6-4l1.8-7.8l2.4-7.4l3.1-7l3.7-6.6l0,0l0,0l2.7-4l3-3.9l3.3-3.7l3.5-3.5l3.8-3.3l3.9-3l4-2.7
		l4.1-2.4l5.2-2.5l5.3-2l0,0l4.4-1.3l4.5-1.1l4.6-0.8l4.7-0.5l4.5-0.2l4.4,0.2l4.3,0.5l4.3,0.9l0,0l0,0l0,0l3.9,1.2l3.8,1.5l3.7,1.8
		l3.6,2.1l3,2.1l2.9,2.4l2.8,2.7l2.7,3l2.2,3l2,3.3l1.7,3.5l1.3,3.5l0.9,3.5l0.5,3.3l0.1,3.3l-0.4,3.1l-0.8,3.5l-1.2,3.2l-1.5,3
		l-1.8,2.8l-2.4,2.7l-3.1,2.6l0,0l-2.5,1.5l-2.7,1.2l-3,0.9l-3.2,0.6L396,158l-4.2-0.5l0,0l-3.5-1l-3.4-1.5l-3.3-2L378.3,150.6z"/>
	<path class="st0" d="M374.7,100.2l-5.4,1.2l-1.9,0.6l-1.8,0.8l-2.4,1.6l-2.2,2.1l-1.4,1.8l-1.2,1.9l-0.9,1.9l-0.8,2l-1.2,3.9
		l-0.9,3.8l-0.6,3.7l-0.4,3.5l-1.2,14.9l-0.1-6.1l0.3-6.2l0.8-6.3l1.2-6.4l0.7-2.8l0.9-2.6l1.1-2.5l1.2-2.3l1.4-2l1.6-1.8l1.7-1.5
		l1.9-1.2l0,0l0,0l2.2-1l2.3-0.7l2.5-0.3L374.7,100.2z"/>
	<path class="st0" d="M397.2,106.1l-6-2.9l-2.4-0.9l-2.9-0.8l-5.4-1.3l1.5,0.1l0,0l0,0l3.6,0.6l3.5,1l3.5,1.3l3.5,1.7l0.8,0.6
		L397.2,106.1z"/>
	<path class="st0" d="M391.1,108.9l0.4-0.1l3.1-0.7l3.3-0.2l0.6-0.2l0.1-0.1l-0.2-0.7l2.2,1l0.6,0.5l0.1,0.4l0,0l-0.3,0.2l-0.8,0.1
		L391.1,108.9z"/>
	<path class="st0" d="M391.1,108.9l-10.4,4.9l1.9-1.6l0,0l1.9-1.2l2-0.9l2.2-0.7L391.1,108.9z"/>
	<path class="st0" d="M377.6,116.9l-2.2,3.7l-1.7,3.8l-1.1,3.8l-0.5,3.8l0,0l0,0l0.1,3.8l0.6,3.9l1.2,3.9l1.8,3.9l-2.1-4l-1.4-3.9
		l-0.8-3.9l-0.1-3.9l0,0l0,0l0.6-3.8l1.2-3.8l1.9-3.7L377.6,116.9z"/>
	<path class="st1" d="M212.9,180l3.7,0.6l5.7,0.6l3.8,0.5l4.3,0.9l4.7,1.2l5.1,1.6l5,1.9l4.9,2.2l4.1,2.2l3.9,2.4l3.8,2.7l3.7,2.9
		l6.4,6.2l5.2,6.7l0.5,0.7l0.3,0.7l3.9,7.9l2.4,5.7l1.6,4.8l1.4,5.3l1.2,5.7l1,6.2l0.3,3.4l0.1,4.4l-0.2,11.7l-0.4,5l-0.3,1.7
		l-1.1,6.7l-0.4,2.2l-0.9,2.8l-1.2,5l-0.9,3.1l-1.3,3.5l-1.7,4l-2.2,4.4l-1.6,2.9l-2,3.1l-3.9,5.8l-4.1,4.6l-1.1,0.5l-0.5,0.6
		l-0.4,0.8l-0.9,1l-1,0.7l-10.9,7.6l-8.5,4.2l-0.5,0.1l-1.3,0.4l-1.3,0.7l0.1,0l-0.2,0.1l-0.3-0.1l-0.7,0.1l-0.8,0.6l-0.7,0.3
		l-0.7,0.1h-0.3l-21.7,4.3l-12.8,0l-6.3-0.6l-6.2-1l-6-1.4l-5.9-1.8l0,0l0,0l-5.3-2l-5.2-2.4l-5.1-2.7l-4.9-3.1l-2.3-1.6l-0.7-0.7
		l-3.5-3.3l-3.3-3.4l0,0l-3.3-3.7l-3.1-3.8l-2.3-3.5l-1.2-2.7l-2-3l-1.5-2.8l-1.9-5.4l-1.6-5.4l-1.4-5.5l-1.1-5.5l0-0.1l-0.2-0.1
		l-0.1-0.4l-0.5-6.4l-0.5-7.6l-0.1-5.2l0.2-5.7l0.5-5.6l0.9-5.5l1.2-5.5l1.2-4.6l1.6-4.8l1.9-4.8l2.2-4.8l2.6-4.8l0.3-0.8l0.7-0.8
		l0.9-0.8l0.3-0.7l0,0l-0.1-0.3l0.3-0.3l0,0.1l2.3-2.5l1.2-2.1l2.9-3.3l1.4-0.9l1.3-1.1l2.4-2.3l4.4-3.3l4.2-2.8l3.9-2.3l3.7-1.8
		l5.6-2.3l5.8-2l6-1.6l6.1-1.2l5.3-0.6l5.2-0.8L212.9,180z M180.8,249.5l-0.2,22.5l-0.2,5l0.1,5.8l0.5,7.6l0.8,7.4l1,7.1l1.3,6.9
		l0.8,3.5l1,3.4l0,0l1.6,4.4l1.3,2.8l1.6,2.5l1.8,2.1l2.1,1.8l0,0l0,0l1.9,1.2l2.1,1l2.2,0.8l2.4,0.6l0.8,0l0.7,0.2l2.9,0.7l2.9,0.1
		l2.1-0.3l2.1-0.6l6.3-2.1l1-0.2l1-0.6l0.9-1l0.6-0.8l0,0l1-0.9l1.2-0.7l1.8-3.1l1.6-3.2l1.4-3.4l1.2-3.6l1.1-3.7l0.9-3.9l0.7-4.1
		l0.5-4.2l0.9-11l0.1-8l-0.1-1.7l0.4-1.3l0.7-9.2l0-10.2l-0.7-10.2l-0.5-4.5l0.4-4.1l-0.1-4.1l0-0.4l-0.9-7.5l-0.5-5.7l-0.9-5.6l0,0
		l-1.5-6.6l-2-6.5l-1.5-3.3l-1.9-2.9l0,0l-1.3-1.5l-2.4-2.4l-1.3-1.2l-1.5-0.9l-2.7-1l-3.6-0.9l-2.4-0.4l-2.4-0.2l0,0l-2.6,0
		l-2.6,0.2l-2.6,0.5l-2.6,0.7l-2.7,1.1l-2.3,1.5l-1.3,1.1l-1.1,1.3l-2.7,4.1l-2.2,4.8l-1.2,3.3l-1,3.7l-0.9,4.1l-0.8,4.5l-1.8,13.8
		l-0.5,5.1l-0.1,5.1l0,0L180.8,249.5z"/>
	<path class="st0" d="M265.6,199.7l-3.7-2.9l-3.8-2.7l-3.9-2.4l-4.1-2.2l0,0l0,0l-4.9-2.2l-5-1.9l-5.1-1.6l-4.7-1.2l-4.3-0.9
		l-3.8-0.5l-5.7-0.6l-3.7-0.6l6.8,0.4l6.6,0.8l6.5,1.3l6.3,1.8l0,0l5,1.9l4.9,2.2l4.8,2.5l4.7,2.9l2.1,1.5l0,0l2.6,2.1L265.6,199.7z
		"/>
	<path class="st1" d="M444.3,180.2l8.5,0.9l3.3,0.4l3.3,0.6l3.3,0.8l3.3,1.1l3.3,1.3l3.4,1.5l6.7,3.6l3.5,2.3l3.6,2.8l3.8,3.3
		l3.9,3.7l1.8,1.9l4.4,7.1l2.3,3.9l3.1,6.9l2.5,7l1.8,7l1.1,7l0.6,12.8l0.1,0.3l0,0.3l0,0.7l-0.3,0.5l0,0l-0.4,0.3l-0.6,0.1l-94.5,0
		l-0.5,0.2l-0.3,0.4l0,0.3l0.1,0.1l0.3,6.1l0.1,5.5l0.4,5.5l1.3,7.6l2,7.6l1.7,4.6l2,4.4l0,0l2.1,3.8l2.4,3.6l1.4,1.6l2.3,2.3
		l2.7,2.5l1.8,1.9l1.8,1.4l3.5,2.1l3.7,1.7l0,0l0,0l0,0l3.4,1.2l3.5,0.9l3.7,0.6l3.8,0.3l6.6-0.2l6.3-0.9l2.4-0.7l2.2-1l1.2-0.4
		l3.3-1.5l3-1.9l0,0l1.8-1.5l1.7-1.7l4.5-4.3l2.1-2.4l1.9-2.5l0,0l0,0l0,0l1.8-2.8l1.6-2.9l1.5-3.1l1.3-3.2l0.6-0.7l4.1,1.7l0.1,0.3
		l0,0l0.5,0.3l0.9,0.1l1.5,0.6l0.4,0.4l0.2,0.4l0,0l0,0.3l-3.9,8.5l-3.8,7l-6.6,9.7l-6.4,6.4l-9.7,7.1l-10.2,4.7l-3.5,1.3l-4,1.1
		l-4.4,1l-4.9,0.9l-5,0.7l-5,0.4l-5,0.1l-5-0.1l0,0l0,0l-7.7-0.7l-7.7-1.4l-3.2-0.9l-4-1.4l-7.1-2.6l-0.7-0.2l0,0l-1.2-0.5l-1.1-0.7
		l-7-4.4l-0.3-0.2l-0.2-0.2l-1.2-1.4l-1.4-1l0,0l-0.5-0.3l-6.2-6.2l-4.1-5.7l-3.6-5.8l-3-6l-2.4-6.1l-2-6.5l-1.7-6.8l-1.3-7.1
		l-1-7.4l-0.5-5.9l0.2-8.1l0.4-5.9l1-7.4l1.5-7.1l2.1-6.9l2.6-6.7l0,0l2.5-5.2l2.8-5l3.2-4.9l3.5-4.7l5.3-5.5l14.6-10l0.9-0.3
		l0.5-0.5l0.6-0.4l0.1,0l5.6-1.9l5.6-2l0.7-0.2l4.9-1.2l5-1l5.1-0.7l5.1-0.5l2.1-0.3l2.1,0L444.3,180.2z M431.5,249.4l32.2,0
		l1.1,0.4l0.7-0.1l0.3-0.3l0.1-0.4l0.2-6.4l-0.1-6.4l0,0l-0.3-5.6l-1.2-13.6l-1.2-7.2l-1.6-5.9l-0.9-2.3l-1.1-2.2l-1.3-2l-1.4-1.9
		l-1.5-1.5l-1.6-1.4l-1.7-1.1l-1.8-0.8l-2.6-0.8l-2.5-0.5l-2.5-0.2l-2.5,0l0,0l0,0l0,0l-2.3,0.3l-2.3,0.5l-2.2,0.8l-2.2,1l-2,1.3
		l-1.7,1.6l-0.6,0.8l-1.8,2.7l-1.6,2.9l-1.4,3.1l-1.2,3.4l-1.3,4.7l-1.1,4.8l-1.2,8.1l-0.9,8.1l-0.6,8.1l-0.3,8.1l0,0.1l0.2,0.3
		l0.3,0.1L431.5,249.4z"/>
	<path class="st0" d="M494.2,202.5l-3.9-3.7l-3.8-3.3l-3.6-2.8l-3.5-2.3l-6.7-3.6l-3.4-1.5L466,184l-3.3-1.1l-3.3-0.8l-3.3-0.6
		l-3.3-0.4l-8.5-0.9l4.8-0.1l3.1,0.2l3.1,0.5l5.5,1.2l4.8,1.3l4.1,1.4l3.5,1.6l7.1,4l6.1,4.1l2.5,1.9l2.3,2.1l0,0L494.2,202.5z"/>
	<path class="st0" d="M63.6,180.2l-7.3,0.7l-7.3,0.7l-4.2,0.8l-4.1,1.1l-4.1,1.3l-4,1.5l0,0l-6.2,2.8l-2.5,1.5l-3.2,2.2l-1.4,1
		l-2,1.7l-2,1.6l3.2-3.1l3.3-2.7l3.5-2.3L29,187l5-2.1l5.1-1.7l0,0l0,0l5.9-1.5l6-1l6.2-0.5L63.6,180.2z"/>
	<path class="st1" d="M68.7,180.2l7.1,0.3l7.1,0.6l7,0.9l7,1.2l7.8,1.7l7.7,2l0.6,0.4l0.2,0.7l0.1,37.5l-0.3,11.9l-0.4,0.8l-0.8,0.3
		l-5.7,0.1l-0.7-1.6l-1-1.2l-0.3-0.3l-0.9-1.6l-0.3-0.8l-0.5-0.5l-0.3-0.1l-0.2-0.3l-0.2-0.8l-0.4-0.4l0,0l-0.2-0.1l-0.3-0.9
		l-0.6-0.6l-0.8-1.7l-1.1-1.2l-0.4-0.3l0.1-0.1l-8.3-12.7l-2.7-4.1l-0.1-0.5l-0.4-0.3l-0.2-0.5l-0.3-0.2l-0.7-1L77,194.5l-0.2-0.2
		l-0.2-0.7l-0.4-0.5l-0.5-0.3l-0.7-1.3l-0.9-0.9l0,0l-1-0.5l-1.2-0.2l-1.3,0l-1.5,0.3l-9.3-0.1l-2.6,0l-2.8,0.2l-6.3,1.1l-3.1,0.9
		l-2.8,1.2l-2.4,1.5l-2,1.9l-0.5,0.5l-0.9,1.6l-1,1.2l-1.5,5.2l-0.4,2.5l-0.2,2.4l0,2.3l0.2,2.2l0.5,2.1l0.7,2l0,0l0.9,1.9l1.1,1.9
		l1.3,1.8l1.5,1.7l1.9,1.6l2.3,1.6l2.8,1.6l3.2,1.6l5.7,2.5l5.6,2.1l15.6,5.5l13.9,5.3l0.8,0.1l1,0.6l13.9,8.5l6.2,6.1l4.3,7.4
		l1.2,2.6l0.6,1.8l1,4l1.3,4l0.2,1.1v1l0,10.8l-0.4,6l-0.6,3.5l-0.9,3.4l-1.1,3.3l-1.3,3.2l0,0l-1.4,2.8l-1.6,2.8l-1.8,2.7l-1.9,2.6
		l-1.4,1.8l-2,1.7l-6.3,4.1l-4.7,2.5l-4.6,1.9l-4.7,1.7l0,0l0,0l-6,1.8l-6.1,1.5l-6.3,1.1l-6.4,0.8l-1.4,0.1l0,0l-7,0.2l-7.1-0.4
		l-12.8-1l-12.7-1.5l0,0l0,0l-9.2-1.4l-9.2-1.7l-0.2,0.2l-0.6-0.2l-0.8-0.8l0.2-0.6l0-0.5l-0.3-0.5l0-0.2h0l0.3-0.7l0.1-10.2
		l-0.4-9.5L0.7,282l0.4-0.4l0.4-0.2h5.6l1.1,0.3l0.8,0.7l0.2,0.7l0.8,0.8l0.7,0.7l0.1,0.8l0.4,0.9L32,317.8l5,7.3l4.7,6.2l2.9,3.1
		l0.6,0.5l1.4,0.8l1.6,0.5l2.8,0.4l2.8,0.1l0,0l3.5-0.3l2-0.5l1.9-0.2l0,0l0.5,0l3.3,0l3.2-0.3l3.1-0.6l3-0.9l0,0l0,0l2.2-0.9
		l2.3-1.2l2.1-1.5l0,0l2.4-2.2l2.1-2.6l0.4-1l0.6-0.9l0.2-0.2l1.1-1.9l0.7-2l0,0l0.2-1.5l0-1.5l0-0.6l0.2-0.4l0.3-2.2V311l-0.3-2.1
		l-0.5-2l-0.1-0.4l-0.7-1.9l-0.7-1.9l-1.5-2.2l-1.6-2l-1.7-1.7l-1.7-1.4l-4.5-2.9l-4.8-2.6l-5.1-2.2l-5.5-1.9l-1.2-0.3l-0.8-0.5
		l-13-4.7l-9.7-4.1l-6.9-3.4l-6.7-3.8l-1.4-1.1l0-0.1l-0.9-1l-1.1-0.7l-0.5-0.2l-4.1-4l-4.9-7.6l-0.1-0.1L9,254.1L8.7,254l-0.3-0.4
		l-0.5-1.8l-1-2.7L6,246.5l-0.8-3.1L4,235.1l-0.1-6l0.8-7.8l0.3-2.7l0.5-2.7l0.8-2.7l0.9-2.7l2.5-5.4l3.3-5.3l0.9-1.4l1.3-1.3l2-1.6
		l2-1.7l1.4-1l3.2-2.2l2.5-1.5l6.2-2.8l0,0l4-1.5l4.1-1.3l4.1-1.1l4.2-0.8l7.3-0.7l7.3-0.7l1.9-0.3l1.9,0L68.7,180.2z"/>
	<path class="st0" d="M113.4,225.5l-0.1-37.5l-0.2-0.7l-0.6-0.4l-7.7-2l-7.8-1.7l-7-1.2l-7-0.9l-7.1-0.6l-7.1-0.3l2,0l0,0l0,0
		l9.1,0.3l9.1,0.8l9.1,1.5l9.1,2l3.4,1l3,1.2l0.3,0.3l-0.1,0.4l-0.2,0.8l0.2,1.2l0.3,1.9l0.1,20.6l-0.2,7.8L113.4,225.5z"/>
	<path class="st0" d="M203.9,180.1l-5.2,0.8l-5.3,0.6l-6.1,1.2l-6,1.6l-5.8,2l-5.6,2.3l-3.7,1.8l-3.9,2.3l-4.2,2.8l-4.4,3.3
		l-2.4,2.3l-1.3,1.1l-1.4,0.9l3.8-3.9l3.5-2.9l4.2-2.9l4.5-2.7l4.9-2.5l5.2-2.4l5.1-1.9l5.7-1.6l6.8-1.4l4.4-0.7L203.9,180.1z"/>
	<path class="st0" d="M438,180.2l-5.1,0.5l-5.1,0.7l-5,1l-4.9,1.2l0,0l0,0l-0.7,0.2l-5.6,2l-5.6,1.9l4-1.9l4.1-1.6l4.1-1.4l4.2-1.1
		l0,0l3.8-0.7l3.9-0.5l3.9-0.3L438,180.2z"/>
	<path class="st0" d="M352,191.3l39.2-0.3l0.6-0.2l0.2-0.6l0.3-7.6l0.5,0.2l0.1,0.3l0.2,3.9l-0.2,3.8l-0.3,0.7l-0.7,0.3l-19.8,0.2
		L352,191.3z"/>
	<path class="st0" d="M405.4,188.1l-0.5,0.5l-0.9,0.3l0.1-0.1l0,0l0.5-0.4L405.4,188.1z"/>
	<path class="st0" d="M404,188.9l-14.6,10l3.2-3l3.4-2.6l3.9-2.4L404,188.9z"/>
	<path class="st0" d="M214.6,189.7l-5-0.1l-4.3,0.2l-2.4,0.3l-2.2,0.6l-2.1,0.8l-1.9,1l-1.8,1.3l-1.7,1.5l-1.5,1.7l-1.4,1.9
		l-1.3,2.2l-1.1,2.4l-1,2.6l-0.9,3l-1.4,5.9l-1.1,6.1l-0.8,6.3l-0.6,6.4l-1.2,15.7l-0.2-5.3l0,0l0.1-5.1l0.5-5.1l1.8-13.8l0.8-4.5
		l0.9-4.1l1-3.7l1.2-3.3l2.2-4.8l2.7-4.1l1.1-1.3l1.3-1.1l0,0l0,0l2.3-1.5l2.7-1.1l2.6-0.7l2.6-0.5l2.6-0.2l2.6,0l0,0l2.4,0.2
		L214.6,189.7z"/>
	<path class="st0" d="M463.7,249.4l0.9,0l0.4-0.2l0.1-0.4l-0.1-18.4l-0.2-5.3l-0.4-4.5l-1.4-9.8l-0.7-3.2l-0.9-3l-1.1-2.9l-1.3-2.7
		l-1.8-2.9l-2.3-2.3l0,0l-1.5-1.1l-1.6-0.9l-1.7-0.7l-1.9-0.6l-4.4-0.8l-4-0.1l-3.7,0.6l-3.3,1.3l0,0l0,0l-2.8,1.9l-2.5,2.5
		l-2.2,3.1l-1.9,3.8l-1.3,3.4l-1.2,4.2l-1.2,4.9l-1.1,5.6l-1,6.5l-0.7,6.5l0,0l-0.4,7.5l0,7.6l0.1,0.3l0.3,0.1h14.7l-15.5,0.3
		l-0.4-0.2l-0.2-0.4l0.3-8.1l0.6-8.1l0.9-8.1l1.2-8.1l1.1-4.8l1.3-4.7l1.2-3.4l1.4-3.1l1.6-2.9l1.8-2.7l0.6-0.8l1.7-1.6l2-1.3l2.2-1
		l2.2-0.8l2.3-0.5l2.3-0.3l0,0l0,0l0,0l2.5,0l2.5,0.2l2.5,0.5l2.6,0.8l1.8,0.8l1.7,1.1l1.6,1.4l1.5,1.5l1.4,1.9l1.3,2l1.1,2.2
		l0.9,2.3l1.6,5.9l1.2,7.2l1.2,13.6l0.3,5.6l0,0l0.1,6.4l-0.2,6.4l-0.1,0.4l-0.3,0.3l-0.7,0.1L463.7,249.4z"/>
	<path class="st0" d="M59.8,190.1l-3.3,0.5l-3.3,0.3l0,0l-0.7,0l-3,0.6l-5,1.6l-1.8,0.7l-1.8,1l-1.8,1.2l-1.8,1.5l0.5-0.5l2-1.9
		l2.4-1.5l2.8-1.2l3.1-0.9l6.3-1.1l2.8-0.2L59.8,190.1z"/>
	<path class="st0" d="M75.7,192.8l-1.4-1.2l-0.7-0.4l-0.9-0.2l-3.6-0.7l1.5-0.3l1.3,0l1.2,0.2l1,0.5l0,0l0.9,0.9L75.7,192.8z"/>
	<path class="st0" d="M300.4,191.8l-18.1-0.2l-2-0.2l-0.6-0.3l-0.3-0.4l0,0l0-0.1l20.6,0.2l0.5,0.3l0,0.5L300.4,191.8z"/>
	<path class="st0" d="M223.6,193.7l-5.4-3.1l2.7,1l1.5,0.9L223.6,193.7z"/>
	<path class="st0" d="M76.8,194.2l-1.1-1.4l0.5,0.3l0,0l0.4,0.5L76.8,194.2z"/>
	<path class="st0" d="M85.6,206.9L77,194.5L85.6,206.9z"/>
	<path class="st0" d="M236.4,244.3l-0.5-9.8l-0.9-9.3l-1.3-8.7l-1.8-8.1l-0.9-2.8l-1.3-3l-1.6-3.1l-2-3.3l1.3,1.5l1.9,2.9l1.5,3.3
		l2,6.5l1.5,6.6l0,0l0.9,5.6l0.5,5.7l0.9,7.5l0,0.4l0.1,4.1L236.4,244.3z"/>
	<path class="st0" d="M300.5,361.6l-0.2-0.1l0-163.6l0.7,2.4l0.2,3l-0.1,70.3l0.1,82l-0.2,3L300.5,361.6z"/>
	<path class="st0" d="M3.9,229.1l0-4.6l0.4-4.5l0.8-4.3l1.3-4.1l0,0l1.3-3.1l1.5-3l1.8-2.9l2-2.8l-3.3,5.3l-2.5,5.4l-0.9,2.7
		l-0.8,2.7L5,218.6l-0.3,2.7L3.9,229.1z"/>
	<path class="st0" d="M35.4,200.4l-1.1,4.8l-0.4,4.8l0.1,3.2l0.6,3.7l1.2,3.3l1.8,3.1l2.5,2.9l3,2.5l3.7,2.3l5.6,2.7l6,2.4l26,9.4
		l4,1.8l2.1,1.2L76.7,243L61,237.5l-5.6-2.1l-5.7-2.5l-3.2-1.6l-2.8-1.6l-2.3-1.6l-1.9-1.6l-1.5-1.7l-1.3-1.8l-1.1-1.9l-0.9-1.9l0,0
		l-0.7-2l-0.5-2.1l-0.2-2.2l0-2.3l0.2-2.4l0.4-2.5L35.4,200.4z"/>
	<path class="st0" d="M384.1,204.3l-3.5,4.7l-3.2,4.9l-2.8,5l-2.5,5.2l0,0l0,0l-2.6,6.7l-2.1,6.9l-1.5,7.1l-1,7.4l0.7-7.3l1.3-7.1
		l0,0l1.9-6.9l2.6-6.7l3.2-6.6l3.8-6.4l2.9-3.9L384.1,204.3z"/>
	<path class="st0" d="M511.8,256.1l-0.6-12.8l-1.1-7l-1.8-7l-2.5-7l-3.1-6.9l-2.3-3.9l-4.4-7.1l4,5.5l3.4,5.7l2.8,5.9l2.3,6.1l0,0
		l0,0l1.8,6.8l1.2,7l0.5,7.2L511.8,256.1z"/>
	<path class="st0" d="M277.2,212.6l-5.2-6.7L277.2,212.6z"/>
	<path class="st0" d="M145.7,206.5l-1.2,2.1l-2.3,2.5l1-1.7l1.2-1.6L145.7,206.5z"/>
	<path class="st0" d="M86.8,208.6l-0.3-0.2l-0.3-0.5l0.3,0.2L86.8,208.6z"/>
	<path class="st0" d="M87.3,209.4l-0.4-0.7l0-0.1l0.4,0.3L87.3,209.4z"/>
	<path class="st0" d="M140.9,213l1.1-1.8l0.1,0.3l0,0l-0.3,0.7L140.9,213z"/>
	<path class="st0" d="M98.2,226.2l-8.3-12.7L98.2,226.2z"/>
	<path class="st0" d="M278,214.1l1.7,2.6l1.6,2.8l1.5,3l1.3,3.2l2.3,6.5l1.8,6.5l1.3,6.6l0.8,6.6l0,0l0.3,6.8l-0.2,9l-0.9,9l0,0l0,0
		l-1.4,8.1l-2,8l-1.2,3.8l-1.4,3.7l-1.6,3.6l-1.8,3.5l0,0l0,0l-1.8,3.1l-2,3l-2.2,2.9l-2.4,2.8l3.9-5.8l2-3.1l1.6-2.9l2.2-4.4l1.7-4
		l1.3-3.5l0.9-3.1l1.2-5l0.9-2.8l0.4-2.2l1.1-6.7l0.3-1.7l0.4-5l0.2-11.7l-0.1-4.4l-0.3-3.4l-1-6.2l-1.2-5.7l-1.4-5.3l-1.6-4.8
		l-2.4-5.7L278,214.1z"/>
	<path class="st0" d="M140,214.5l-2.6,4.8l-2.2,4.8l-1.9,4.8l-1.6,4.8l-1.2,4.6l-1.2,5.5l-0.9,5.5l-0.5,5.6l-0.2,5.7l0.1,5.2
		l0.5,7.6l0.5,6.4l-1.1-7.5l-0.5-7.6l0,0l0,0l0.1-7.8l0.7-7.8l1.4-7.9l2-7.9l1.8-5.2l2-4.9l2.3-4.5L140,214.5z"/>
	<path class="st0" d="M100.4,229.6l-0.6-0.7l0,0l-0.7-1.1l-0.6-1.2l1.1,1.2L100.4,229.6z"/>
	<path class="st0" d="M101.4,231l-0.8-0.9l-0.1-0.5l0.6,0.6L101.4,231z"/>
	<path class="st0" d="M102.2,232.2l-0.5-0.5l-0.3-0.7l0.2,0.1l0,0l0.4,0.4L102.2,232.2z"/>
	<path class="st0" d="M103.4,234l-0.4-0.4l-0.6-1.1l0.3,0.1l0.5,0.5L103.4,234z"/>
	<path class="st0" d="M8.4,253.6l-2-4.6L5,244.3l-0.8-4.5L4,235.1l1.3,8.3l0.8,3.1l0.8,2.5l1,2.7L8.4,253.6z"/>
	<path class="st0" d="M106.2,238.6l-0.6-0.5l0,0l-0.7-1l-0.4-1.2l1,1.2L106.2,238.6z"/>
	<path class="st0" d="M236.9,278.5l0-29.6l0.7,10.2l0,10.2L236.9,278.5z"/>
	<path class="st0" d="M106.3,257.6l-13.9-8.5l3.6,1.5l3.4,1.8l0,0l3.5,2.4L106.3,257.6z"/>
	<path class="st0" d="M14.2,261.9l-2.4-2.7l-1.7-2.5L8.7,254l0.2,0.1l0.2,0.1l0.1,0.1L14.2,261.9z"/>
	<path class="st0" d="M511.9,256.7l0.1,1l-0.1,0.8l-0.2,0.4l-0.4,0.1l-95.8,0.1l-0.1-0.1l0-0.3l0.3-0.4l0.5-0.2l94.5,0l0.6-0.1
		l0.4-0.3l0,0l0.3-0.5L511.9,256.7z"/>
	<path class="st0" d="M364.3,266.2l-0.4-2l-0.1-2l0,0l0.2-2l0.5-2L364.3,266.2z"/>
	<path class="st0" d="M112.4,263.7l2.9,4l2.3,4.3l0,0l1.2,2.7l0.9,2.8l0.7,2.9l0.5,3.1l-1.3-4l-1-4l-0.6-1.8l-1.2-2.6L112.4,263.7z"
		/>
	<path class="st0" d="M415.7,265.1l0.7,8.1l1.2,7.7l1.7,7.3l2.2,6.9l1.8,4.2l2.2,4.2l2.7,4.1l3.2,4.1l-2.3-2.3l-1.4-1.6l-2.4-3.6
		l-2.1-3.8l0,0l-2-4.4l-1.7-4.6l-2-7.6l-1.3-7.6l0,0l-0.4-5.5L415.7,265.1z"/>
	<path class="st0" d="M20.7,267.9l-1.3-0.8l-1.2-1.1l0.5,0.2l1.1,0.7L20.7,267.9z"/>
	<path class="st0" d="M45.4,280.4l-6.2-2l-5.9-2.5l0,0l-5.7-3.1l-5.5-3.7l6.7,3.8l6.9,3.4L45.4,280.4z"/>
	<path class="st0" d="M180.7,272l1.3,18.5l0.6,6.7l0.8,6.5l1.1,6.4l1.4,6.2l1,3.4l1.5,3.8l1,2.2l1.2,2l1.4,1.8l1.6,1.6l0,0l0,0
		l2,1.6l2.2,1.3l2.5,1.1l2.7,0.8l-2.4-0.6l-2.2-0.8l-2.1-1l-1.9-1.2l0,0l0,0l-2.1-1.8l-1.8-2.1l-1.6-2.5l-1.3-2.8l-1.6-4.4l0,0
		l-1-3.4l-0.8-3.5l-1.3-6.9l-1-7.1l-0.8-7.4l-0.5-7.6l-0.1-5.8L180.7,272z"/>
	<path class="st0" d="M383.8,323.5l-2.6-2.9l-2.4-3.1l-2-2.9l-1.8-3.1l-1.6-3.2l-1.4-3.3l-3-8.2l-1.8-5.9l-1.5-6l-0.8-4.7l0,0
		l-0.3-4v-4.1l1,7.4l1.3,7.1l1.7,6.8l2,6.5l2.4,6.1l3,6l3.6,5.8L383.8,323.5z"/>
	<path class="st0" d="M135.2,302.2l-1.9-4.1l-1.6-4.2l0,0l0,0l-1-3.3l-0.8-3.4l-0.6-3.5l-0.4-3.5l0.2,0.1l0,0.1l1.1,5.5l1.4,5.5
		l1.6,5.4L135.2,302.2z"/>
	<path class="st0" d="M9,282.4l-0.8-0.7l-1.1-0.3H1.4l-0.4,0.2L0.7,282l-0.2-0.1l-0.1-0.1l0-0.3l0.3-0.2l2.4-0.6l2.5-0.1l1.8,0.5
		l0.7,0.4l0.5,0.6L9,282.4z"/>
	<path class="st0" d="M58.5,285.1l-13-4.7L58.5,285.1z"/>
	<path class="st0" d="M226.5,329.7l2.1-3.9l1.7-3.8l1.3-3.6l0.9-3.5l1.5-7.4l1.2-8l0.9-8.6l0.6-9.2l-0.1,8l-0.9,11l-0.5,4.2
		l-0.7,4.1l-0.9,3.9l-1.1,3.7l-1.2,3.6l-1.4,3.4l-1.6,3.2L226.5,329.7z"/>
	<path class="st0" d="M10,283.9l-0.8-0.8L9,282.4l0.2,0.2L10,283.9z"/>
	<path class="st0" d="M10.7,284.6l26.1,39.3l3.4,4.6l3.7,4.1l2.1,1.7l2.3,1.1l0,0l0.5,0.1l4.1,0.7l4.3,0.1l-3.5,0.3l0,0l-2.8-0.1
		l-2.8-0.4l-1.6-0.5l-1.4-0.8l-0.6-0.5l-2.9-3.1l-4.7-6.2l-5-7.3l-20.8-31.5l-0.4-0.9L10.7,284.6z"/>
	<path class="st0" d="M121.2,285.5l0.4,3.4l0.2,3.4l0,0l-0.1,6.3l-0.8,6.3l-0.9,4l-1.2,3.8l-1.5,3.6l-1.8,3.5l0,0l-2.1,3.4l-1.4,1.8
		l-2,1.8l1.9-2.6l1.8-2.7l1.6-2.8l1.4-2.8l0,0l0,0l1.3-3.2l1.1-3.3l0.9-3.4l0.6-3.5l0.4-6L121.2,285.5z"/>
	<path class="st0" d="M88.8,315.4l0-2.6l-0.2-2.5l-0.5-2.4l-0.7-2.4l-0.9-2.2l-1.8-2.8l-2.7-2.8l-3.6-2.8l-4-2.4l-6.9-3.4l-7.1-3.1
		l5.5,1.9l5.1,2.2l4.8,2.6l4.5,2.9l1.7,1.4l1.7,1.7l1.6,2l1.5,2.2l0.7,1.9l0.7,1.9l0.1,0.4l0.5,2l0.3,2.1v2.2L88.8,315.4z"/>
	<path class="st0" d="M503.1,292.8l-0.6,0.7l-1.3,3.2l-1.5,3.1l-1.6,2.9l-1.8,2.8l0,0l-1.9,2.5l-2.1,2.4l3.4-5.1l3.1-5.3l3.7-7.2
		l0.2-0.2l0.3,0l0.1,0L503.1,292.8z"/>
	<path class="st0" d="M508.7,295.1l-0.9-0.1l-0.5-0.3l0,0l-0.1-0.3L508.7,295.1z"/>
	<path class="st0" d="M510.7,296.8l-1.2,3.6l-1.4,3.5l-1.6,3.4l-1.8,3.3l0,0l-1.8,3l-2,2.8l-4.5,5.4l6.6-9.7l3.8-7L510.7,296.8z"/>
	<path class="st0" d="M139.8,310.8l-3.2-5.7l2,3L139.8,310.8z"/>
	<path class="st0" d="M155.3,328.4l-3.8-3L148,322l0,0l-3.1-3.7l-2.8-4.1l3.1,3.8l3.3,3.7l3.3,3.4L155.3,328.4z"/>
	<path class="st0" d="M434.1,314.2l4.3,3l4.4,2.4l4.5,1.8l4.7,1.3l0,0l1.5,0.3l0.6,0.1l5.5,0.5l5.6-0.1l5.7-0.7l5.8-1.3l-2.2,1
		l-2.4,0.7l-6.3,0.9l-6.6,0.2l-3.8-0.3l-3.7-0.6l-3.5-0.9l-3.4-1.2l0,0l0,0l0,0l-3.7-1.7l-3.5-2.1l-1.8-1.4L434.1,314.2z"/>
	<path class="st0" d="M487.8,314.7l-1.7,1.7l-1.8,1.5l0,0l-3,1.9l-3.3,1.5l-1.2,0.4L487.8,314.7z"/>
	<path class="st0" d="M86.5,323.4l2.1-6.9l0,1.5l-0.2,1.5l0,0l-0.7,2L86.5,323.4z"/>
	<path class="st0" d="M0.5,337.6l-0.2-1.2l-0.2-2.6l0,0L0,325.5l0.5-8.3l0.4,9.5l-0.1,10.2L0.5,337.6L0.5,337.6z"/>
	<path class="st0" d="M267.7,323.7l-0.6,0.9l-0.8,0.7l0,0l-0.6,0.3l0.4-0.8l0.5-0.6l0,0L267.7,323.7z"/>
	<path class="st0" d="M85.3,325.5l-2.1,2.6l-2.4,2.2l0,0l-2.1,1.5l-2.3,1.2l-2.2,0.9l0,0l-3,0.9l-3.1,0.6l-3.2,0.3l-3.3,0l4.9-0.7
		l4.6-1.2l4.4-1.6l4.2-2l0,0l0,0l0.4-0.2l2.3-1.7L85.3,325.5z"/>
	<path class="st0" d="M263.8,327.3l-2.4,2.1l-2.5,1.9l0,0l-2.9,1.9l-3.1,1.6L263.8,327.3z"/>
	<path class="st0" d="M490,328.3l-3.8,3.2l-4,2.8l0,0l-1.9,1.1L490,328.3z"/>
	<path class="st0" d="M393.2,332.3l-1-0.6l-2.2-2l0.5,0.3l1.4,1L393.2,332.3z"/>
	<path class="st0" d="M106.8,330.2l-3.1,2.8l-2.4,1.6l-4.3,2.3l-4.4,2l-4.5,1.8l-4.6,1.5l0,0l0,0l0,0l-5.2,1.4l-5.3,1l-5.4,0.7
		l-5.5,0.3l6.4-0.8l6.3-1.1l6.1-1.5l6-1.8l0,0l0,0l4.7-1.7l4.6-1.9l4.7-2.5L106.8,330.2z"/>
	<path class="st0" d="M203.2,345.8l-6.6-0.4l-6.4-0.9l-6.2-1.4l-6-1.9l-5.1-2.1l-5-2.4l-4.9-2.8l-4.7-3.2l4.9,3.1l5.1,2.7l5.2,2.4
		l5.3,2l0,0l5.9,1.8l6,1.4l6.2,1L203.2,345.8z"/>
	<path class="st0" d="M223.7,332.2l-0.9,1l-1,0.6l0,0l-1,0.2l1.4-1L223.7,332.2z"/>
	<path class="st0" d="M400.8,337l-2-0.9l-1.8-1l0,0l-1.7-1.2l-1.6-1.3L400.8,337z"/>
	<path class="st0" d="M480.4,335.4l-1,0.7l0,0l-2.3,1.5l-2.4,1.3l-1.4,0.6l0,0l0,0l-3.6,1.5l-3.7,1.3l-3.8,1.1l-3.9,0.9l-8.1,1.3
		l-8.9,0.6h-6.5l-6.3-0.4l-6.2-0.8l-6-1.3l-3-0.9l-3.1-1.1l-3.1-1.4l-3.2-1.6l7.1,2.6l4,1.4l3.2,0.9l7.7,1.4l7.7,0.7l0,0l0,0l0,0
		l5,0.1l5-0.1l5-0.4l5-0.7l4.9-0.9l4.4-1l4-1.1l3.5-1.3L480.4,335.4z"/>
	<path class="st0" d="M214.5,336l-2.1,0.6l-2.1,0.3l-2.9-0.1l-2.9-0.7H214.5z"/>
	<path class="st0" d="M0.7,339.4l-0.3-0.2l0,0l-0.1-0.6l0.3-0.9l0.3,0.5l0,0.5L0.7,339.4z"/>
	<path class="st0" d="M244.4,339.1l-1.4,0.8l-1.7,0.4l1.3-0.7l1.3-0.4L244.4,339.1z"/>
	<path class="st0" d="M46.2,345.7l-6.2,0l-6.1-0.3l-6.1-0.5l-6.1-0.7l0,0l0,0l-9.8-1.7l-9.7-2.3l9.2,1.7l9.2,1.4l0,0l0,0l12.7,1.5
		L46.2,345.7z"/>
	<path class="st0" d="M241.1,340.4l-0.9,0.4l-0.8,0.1l0.8-0.6l0.7-0.1L241.1,340.4z"/>
	<path class="st0" d="M237.7,341.4l-5,1.8l-5.1,1.3l-5.7,0.9l-5.8,0.3L237.7,341.4z"/>
	<path class="st0" d="M129.9,361.1l-5.3-2.9l-2.1-0.9l-1.8-0.5l-3.9-0.5l-3.7,0l-3.5,0.5l-3.4,0.9l0,0l0,0l0,0l0,0l-2.7,1.2
		l-2.6,1.6l-2.5,1.9l-2.4,2.3l-2,2.4l-1.6,2.6l0,0l-1.4,3.1l-1,3.3l-0.4,2.6l-0.1,3.4l-0.1,6l-0.5-2.4l-0.3-2.4l0-2.3l0.2-2.3l0,0
		l0,0l0.7-2.8l1.5-4l1.8-3.5l2.1-3.1l2.4-2.7l2.9-2.3l4-2.1l4-1.5l3.8-0.8l4.3-0.1l4.1,0.6l0,0l2.6,0.8l2.5,1.1l2.4,1.4L129.9,361.1
		z"/>
	<path class="st0" d="M136,368.2l-1.4-1.6l-0.9-1.8l0.9,1l0.8,1.1l0,0L136,368.2z"/>
	<path class="st0" d="M137.3,370.7l1.5,3.5l0.6,2.4l0.1,4.5l-0.5,4.2l-1,3.9l-1.6,3.5l0,0l0,0l-1.8,2.8l-2.3,2.6l-2.7,2.4l-3.1,2.1
		l-1.2,0.6l-2,0.9l-2.1,0.6l-2.2,0.4l-2.4,0.1l4.3-1.1l2.3-0.7l1.9-0.8l3.2-1.8l2.8-2.1l2.4-2.3l1.9-2.6l0,0l1.6-3.1l1.2-3.4
		l0.7-3.7l0.2-4l-0.2-2l-0.5-2.4L137.3,370.7z"/>
	<path class="st0" d="M97.2,403.6l-2.7-3.1l-2.2-3.4l0,0l-1.8-4.1l-1.1-4.4l-1.8,0.5l1.9-0.5h0.1l0,0.1l1.1,3.5l1.1,3l1.2,2.4
		l1.2,1.8l1.5,2.1L97.2,403.6z"/>
	<path class="st0" d="M243.3,420.3l-0.1,0.7l-28.3,0l-79.4-0.1l-5.3-0.2l-5.1-0.7l-4.9-1.2l-4.7-1.6l0,0l0,0l-4.1-1.9l-3.9-2.2
		l-3.8-2.6l-3.6-3l-0.9-1.1l-1-1.7l4.1,3.9l2.5,2.1l3.4,2.3l3.7,2l4,1.8l4.3,1.5l3.6,1l4,0.7l4.4,0.5l4.7,0.2l6.2,0l8.4-0.2
		l12.5-0.3L243.3,420.3z"/>
	<path class="st0" d="M113.3,405.5l0,0.4l0,0l0.5,0.8l1,0.6l-1.9-0.7l-1.8-1.3l-0.2-0.3l0.3-0.2l1.1,0.1L113.3,405.5z"/>
	<path class="st0" d="M129.7,412l-3-0.2l-2.9-0.6l0,0l-2.1-0.8l-2.1-1L129.7,412z"/>
	<path class="st2" d="M352.2,360.4L352.2,360.4l1.1,0.9l0.8,0.2l27.7,0l0.4,0.1l0.1,0.4v58.2l-0.1,0.5l-0.3,0.4l-0.5,0.3l-0.5,0.1
		l0,0l-0.1,0l-2.8-0.4l-3.2-0.1l-131.4,0l0.1-0.7l5.8-0.5l5.6-0.9l5.5-1.3l5.3-1.7l0,0l0,0l0,0l5.2-2.2l5-2.6l4.5-2.8l4.2-3.1l4-3.5
		l3.6-3.8l3.1-3.7l2.8-4l2.5-4.2l2.2-4.4l1.9-4.5l1.6-4.7l1.3-4.9l1-5l0.3-0.6l0.6-0.2h42l0.4-0.1l0.3-0.3L352.2,360.4z"/>
	<path class="st2" d="M300.3,361.5l0.2,0.1l-1.9,7.5l-1.1,3.6l-1.3,3.5l-1.4,3.3l-1.6,3.2l-1.8,3l-1.9,2.9l-2.1,2.7l-2.2,2.6l0,0
		l0,0l0,0l0,0l0,0l-4.6,4.4l-5.2,3.9l-5.8,3.3l-6.3,2.8l-5.6,1.8l-5.9,1.3l-6.2,0.8l-6.5,0.3l-72.7,0.1L150,413l-5.8,0l-6.4-0.2
		l-6.4-0.4l-0.2-0.1l0-0.2l0.1-0.1l0.1,0l24.1,0.1l0.4-0.1l0.1-0.4v-49.1l0.3-0.8l0.8-0.3L300.3,361.5z"/>
</g>
</svg>
