<?xml version="1.0" encoding="utf-8"?>
<!-- Generator: Adobe Illustrator 28.2.0, SVG Export Plug-In . SVG Version: 6.00 Build 0)  -->
<svg version="1.1" id="Layer_1" xmlns="http://www.w3.org/2000/svg" xmlns:xlink="http://www.w3.org/1999/xlink" x="0px" y="0px"
	 viewBox="0 0 512 512" style="enable-background:new 0 0 512 512;" xml:space="preserve">
<style type="text/css">
	.st0{fill-rule:evenodd;clip-rule:evenodd;fill:#FFFFFF;}
	.st1{fill:#00CCFF;}
	.st2{fill-rule:evenodd;clip-rule:evenodd;fill:#00CCFF;}
	.st3{fill:none;stroke:#00CCFF;stroke-width:2;stroke-miterlimit:1;}
	.st4{fill:none;stroke:#00CCFF;stroke-width:7;stroke-miterlimit:1;}
</style>
<g>
	<g>
		<path class="st0" d="M138.5,100.3c28.9,28.9,65.8,36.3,105.6,36.3c41,0,77.8-7.9,107.8-38C365.7,84.8,393.7,57,394.7,56
			c-43-35.2-93.3-52.8-150.9-52.8c-57.1,0-107.2,17.4-150.2,52.1L138.5,100.3z"/>
		<path class="st0" d="M431.8,384c2.5,0,4.9,0.4,6.9,1.1c30.2-41,45.3-88.1,45.3-141.2c0-55.4-16.4-104.2-49.1-146.5l-49.7,49.8
			c-29,29.1-31.6,54.4-31.6,99.1c0,39.8,6.3,76.3,35.9,105.9c13,13.1,25.7,25.7,33.7,33.6C425.7,384.6,428.7,384,431.8,384z"/>
		<path class="st0" d="M98.7,352.3c30.7-30.8,35.7-66.4,35.7-106.3c0-38.8-6.4-75.1-34.6-103.4c-18.9-18.8-44.7-44.4-46.8-46.4
			C23.3,134.1,6.9,177.4,4,226.2c-0.3,0.6-0.5,1-0.5,1.6c-0.3,5.1-0.4,10.4-0.4,16.1c0,5.4,0.2,10.6,0.4,16
			c0.5,9.6,1.6,19.1,3.2,28.4c6.9,39.6,23.3,75.2,49.5,106.7C56.4,394.8,78.1,373,98.7,352.3z"/>
		<path class="st0" d="M284.1,475.2V393c0-12.5,6.2-23.5,15.8-30.1c-16.2-4.5-33.8-5.3-55.4-5.3c-43.9,0-73.7,4-105.8,36.2
			c-19,19-40.8,40.9-41.1,41.3c2,1.6,4.1,3.1,6.2,4.6c40.3,29.9,87,44.8,140.2,44.8c14,0,27.6-1.1,40.7-3.1
			C284.3,479.4,284.1,477.3,284.1,475.2z"/>
	</g>
	<g>
		<path class="st1" d="M336.3,441.9c-4,2.7-5.9,6.6-5.9,11.6c0,4.1,1.4,7.3,4.1,9.7c2.7,2.4,6.3,3.6,10.9,3.6c4.2,0,8.1-1,11.8-3.1
			c3.7-2,6.5-4.8,8.3-8.2v-17.8H354C346.2,437.8,340.3,439.2,336.3,441.9z"/>
		<path class="st1" d="M474,356.3H320.8c-20.3,0-36.7,16.4-36.7,36.7v82.2c0,20.3,16.4,36.7,36.7,36.7H474
			c20.2,0,36.6-16.4,36.7-36.7V393C510.7,372.7,494.3,356.3,474,356.3z M390.3,482.2h-21.7c-0.9-1.8-1.7-4.7-2.4-8.8
			c-6.8,7.1-15,10.6-24.8,10.6c-9.5,0-17.2-2.7-23.2-8.1c-6-5.4-9-12.1-9-20.1c0-10.1,3.7-17.8,11.2-23.2c7.5-5.4,18.2-8.1,32.1-8.1
			h13v-6.2c0-4.9-1.4-8.8-4.1-11.8c-2.7-2.9-6.9-4.4-12.5-4.4c-4.8,0-8.8,1.2-11.9,3.6c-3.1,2.4-4.6,5.5-4.6,9.2h-21.2
			c0-5.2,1.7-10,5.2-14.6c3.4-4.5,8.1-8.1,14-10.6c5.9-2.6,12.5-3.8,19.8-3.8c11.1,0,19.9,2.8,26.5,8.3c6.6,5.6,10,13.4,10.1,23.5
			v42.7c0,8.5,1.2,15.3,3.6,20.4V482.2z M484,482.2h-21.2v-61.3c0-6-1.3-10.4-3.9-13.3c-2.6-2.9-6.8-4.3-12.7-4.3
			c-8.6,0-14.9,3.9-19.1,11.6v67.3h-21.2v-94.6h20l0.6,10.9c7-8.4,16.2-12.7,27.5-12.7c19.7,0,29.7,11.3,30.1,33.8V482.2z"/>
	</g>
	<path class="st2" d="M177.8,256.2c-0.5-2.6-0.8-5.2-0.8-7.9c-0.1-1.5-0.1-2.9-0.1-4.4c0-1.6,0-3,0.1-4.4c0-0.2,0-0.3,0.1-0.5
		c0.9-16.4,7.4-30.5,19.3-42.4c13.1-13,28.8-19.5,47.2-19.5s34.1,6.5,47.2,19.5c13,13.2,19.5,29,19.5,47.3c0,18.3-6.5,34-19.5,47.2
		c-0.5,0.5-0.9,1-1.4,1.4c-2.2,2.1-4.4,3.9-6.8,5.6c-11.3,8.3-24.3,12.4-38.9,12.4c-14.7,0-27.6-4.1-38.8-12.4
		c-2.9-2.1-5.7-4.4-8.4-7.1C186.3,281,180.2,269.4,177.8,256.2z"/>
	<line class="st3" x1="353.5" y1="135.8" x2="320.3" y2="168.3"/>
	<line class="st3" x1="71.7" y1="75.5" x2="162.4" y2="165.8"/>
	<line class="st3" x1="350.1" y1="352.8" x2="354.8" y2="357.6"/>
	<line class="st3" x1="415.9" y1="75.1" x2="353.5" y2="135.8"/>
	<line class="st3" x1="75.2" y1="415.5" x2="135.9" y2="354.6"/>
	<path class="st4" d="M353.3,135.8l-37.6,38.2 M134,137.7l38.2,38.1 M135.5,354.8l37.1-38.6 M310.1,313l40,39.9"/>
</g>
</svg>
