<?xml version="1.0" encoding="utf-8"?>
<!-- Generator: Adobe Illustrator 28.2.0, SVG Export Plug-In . SVG Version: 6.00 Build 0)  -->
<svg version="1.1" id="Layer_1" xmlns="http://www.w3.org/2000/svg" xmlns:xlink="http://www.w3.org/1999/xlink" x="0px" y="0px"
	 viewBox="0 0 512 512" style="enable-background:new 0 0 512 512;" xml:space="preserve">
<style type="text/css">
	.st0{fill-rule:evenodd;clip-rule:evenodd;fill:#EEEEEE;}
	.st1{fill-rule:evenodd;clip-rule:evenodd;fill:#3A3F51;}
	.st2{fill-rule:evenodd;clip-rule:evenodd;fill:#00CCFF;}
	.st3{fill:none;stroke:#00CCFF;stroke-width:2;stroke-miterlimit:1;}
	.st4{fill:none;stroke:#00CCFF;stroke-width:7;stroke-miterlimit:1;}
	.st5{fill:#00CCFF;}
	.st6{fill:#3A3F51;}
	.st7{font-family:'Roboto-Medium';}
	.st8{font-size:160.3991px;}
	.st9{letter-spacing:-2;}
</style>
<g>
	<g>
		<path class="st0" d="M487.6,244c0,67.1-23.7,124.7-71.1,172.6c-1.6,1.9-3.3,3.6-5.2,5.1c-7.8,7.6-16,14.6-24.8,20.8
			C345.4,472.8,298,488,244.1,488s-101.3-15.2-142.2-45.5c-10.8-7.6-21-16.3-30.4-26C34.6,380,12.1,337.4,3.7,289
			c-1.6-9.4-2.8-19.1-3.2-28.8c-0.2-5.4-0.4-10.8-0.4-16.2c0-5.7,0.1-11.2,0.4-16.3c0-0.6,0.2-1,0.5-1.6
			c3.4-59.9,27-111.5,70.5-155.2C119.5,23.6,176.9,0,244,0c67.4,0,124.9,23.6,172.4,71C463.9,119.2,487.6,176.9,487.6,244L487.6,244
			z"/>
		<path class="st1" d="M438,95.6L387.6,146c-29.4,29.4-32,55.1-32,100.4c0,40.3,6.4,77.3,36.4,107.3c21.9,21.9,42.8,42.6,42.8,42.6
			c-5.6,6.9-11.7,13.6-18.2,20.2c-1.6,1.9-3.3,3.6-5.2,5.1c-5.7,5.6-11.6,10.9-17.7,15.6l-39.5-39.5c-35.1-35.1-63-38.5-109.3-38.5
			c-44.5,0-74.7,4.1-107.3,36.7c-19.4,19.4-41.7,41.8-41.7,41.8c-8.5-6.5-16.5-13.5-24.1-21.3c-6.3-6.3-12.2-12.8-17.6-19.3
			c0,0,22-22.1,43.1-43.2c31.2-31.2,36.2-67.3,36.2-107.7c0-39.4-6.5-76.1-35.1-104.7c-20-19.8-47.6-47.2-47.6-47.2
			C57,86.3,64,78.4,71.4,71c6.6-6.5,13.3-12.5,20.2-18.1l45.7,45.7c29.3,29.3,66.7,36.8,107.1,36.8c41.6,0,78.9-8,109.3-38.5
			c18.7-18.7,43.5-43.3,43.5-43.3c6.5,5.3,12.9,11.1,19.2,17.3C424.4,78.9,431.5,87.1,438,95.6z"/>
		<g>
			<path class="st2" d="M177.1,256.5c-0.5-2.7-0.8-5.2-0.9-8c-0.1-1.5-0.1-3-0.1-4.5c0-1.6,0-3,0.1-4.5c0-0.2,0-0.3,0.1-0.5
				c1-16.6,7.5-30.9,19.5-43c13.2-13.2,29.2-19.7,47.8-19.7s34.6,6.6,47.8,19.7c13.2,13.3,19.7,29.4,19.7,47.9s-6.6,34.5-19.7,47.8
				c-0.5,0.5-1,1-1.4,1.4c-2.2,2.1-4.5,4-6.9,5.7c-11.4,8.4-24.6,12.6-39.5,12.6s-28-4.2-39.4-12.6c-3-2.1-5.8-4.5-8.5-7.2
				C185.7,281.6,179.5,269.9,177.1,256.5z"/>
			<path class="st3" d="M355.1,134.4l-33.7,33 M69.3,73.2l92,91.6 M351.6,354.3l62.5,64.7 M418.3,72.8L355,134.4 M72.9,417.9
				l61.6-61.7"/>
			<path class="st4" d="M355.1,134.4L317,173.1 M132.7,136.4l38.7,38.6 M134.2,356.4l37.6-39.2 M311.2,314.1l40.6,40.4"/>
		</g>
	</g>
	<g>
		<path class="st5" d="M477,512H331c-19.3,0-35-15.7-35-35v-78.3c0-19.3,15.7-35,35-35h146c19.3,0,35,15.7,35,35V477
			C511.8,496.3,496.2,512,477,512z"/>
		<text transform="matrix(1 0 0 1 306.5647 493.8622)" class="st6 st7 st8 st9">4K</text>
	</g>
</g>
</svg>
