<?xml version="1.0" encoding="utf-8"?>
<!-- Generator: Adobe Illustrator 28.2.0, SVG Export Plug-In . SVG Version: 6.00 Build 0)  -->
<svg version="1.1" id="Layer_1" xmlns="http://www.w3.org/2000/svg" xmlns:xlink="http://www.w3.org/1999/xlink" x="0px" y="0px"
	 viewBox="0 0 512 512" style="enable-background:new 0 0 512 512;" xml:space="preserve">
<style type="text/css">
	.st0{fill-rule:evenodd;clip-rule:evenodd;fill:#FFFFFF;}
	.st1{fill-rule:evenodd;clip-rule:evenodd;fill:#00CCFF;}
	.st2{fill:none;stroke:#00CCFF;stroke-width:2;stroke-miterlimit:1;}
	.st3{fill:none;stroke:#00CCFF;stroke-width:7;stroke-miterlimit:1;}
	.st4{fill:#00CCFF;}
</style>
<g>
	<g>
		<path class="st0" d="M138.4,100.3c28.9,28.9,65.8,36.3,105.6,36.3c41,0,77.8-7.9,107.8-38C365.7,84.8,393.7,57,394.7,56
			c-43-35.2-93.3-52.8-150.9-52.8c-57.1,0-107.2,17.4-150.2,52.1L138.4,100.3z"/>
		<path class="st0" d="M401.1,363.7h51.6C473.6,328,484,288,484,243.8c0-55.4-16.4-104.2-49.1-146.5l-49.7,49.8
			c-29,29.1-31.6,54.4-31.6,99.1c0,39.8,6.3,76.3,35.9,105.9C393.4,356,397.4,359.9,401.1,363.7z"/>
		<path class="st0" d="M98.7,352.3c30.7-30.8,35.7-66.4,35.7-106.3c0-38.9-6.4-75.1-34.6-103.4c-18.9-18.8-44.7-44.4-46.8-46.4
			c-29.9,37.9-46.2,81.1-49.1,130c-0.3,0.6-0.5,1-0.5,1.6c-0.3,5.1-0.4,10.4-0.4,16.1c0,5.4,0.2,10.6,0.4,16
			c0.5,9.6,1.6,19.1,3.2,28.4C13.5,327.8,30,363.4,56.2,395C56.3,394.8,78,373,98.7,352.3z"/>
		<path class="st0" d="M294.7,477v-78.3c0-13.4,7.6-25.1,18.8-31c-20.1-8.8-41.2-10.1-69.1-10.1c-43.9,0-73.7,4-105.8,36.2
			c-19,19-40.8,40.9-41.1,41.3c2,1.6,4.1,3.1,6.2,4.6c40.3,29.9,87,44.8,140.2,44.8c17.7,0,34.7-1.7,50.9-5
			C294.7,478.7,294.7,477.8,294.7,477z"/>
	</g>
	<path class="st1" d="M177.8,256.2c-0.5-2.6-0.8-5.2-0.8-7.9c-0.1-1.5-0.1-2.9-0.1-4.4c0-1.6,0-3,0.1-4.4c0-0.2,0-0.3,0.1-0.5
		c0.9-16.4,7.4-30.5,19.3-42.4c13.1-13,28.8-19.5,47.2-19.5s34.1,6.5,47.2,19.5c13,13.2,19.5,29,19.5,47.3s-6.5,34-19.5,47.2
		c-0.5,0.5-0.9,1-1.4,1.4c-2.2,2.1-4.4,3.9-6.8,5.6c-11.3,8.3-24.3,12.4-38.9,12.4s-27.6-4.1-38.8-12.4c-2.9-2.1-5.7-4.4-8.4-7.1
		C186.2,281,180.1,269.4,177.8,256.2z"/>
	<line class="st2" x1="353.5" y1="135.8" x2="320.2" y2="168.3"/>
	<line class="st2" x1="71.7" y1="75.5" x2="162.4" y2="165.8"/>
	<line class="st2" x1="350.1" y1="352.8" x2="369.8" y2="373.1"/>
	<line class="st2" x1="415.9" y1="75.1" x2="353.5" y2="135.8"/>
	<line class="st2" x1="75.1" y1="415.5" x2="135.9" y2="354.7"/>
	<path class="st3" d="M353.2,135.7l-37.6,38.2 M133.9,137.7l38.2,38.1 M135.5,354.8l37.1-38.6 M310,313l40,39.9"/>
</g>
<g>
	<polygon class="st4" points="329.3,453.2 359.2,453.2 359.2,405.6 357.7,408.1 	"/>
	<path class="st4" d="M475.7,363.7h-146c-19.3,0-35,15.7-35,35V477c0,19.3,15.7,35,35,35h146c19.2,0,34.8-15.7,35-35v-78.3
		C510.7,379.4,495,363.7,475.7,363.7z M392.4,468.5h-14.2v25.3h-19v-25.4h-49.3l-0.5-11.6l49.2-77.1h19.7v73.4h14.2v15.4H392.4z
		 M472.2,493.8l-34.3-49.2L425,458.3v35.5h-19.8v-114H425v53.5l11-13.5l33.4-39.9h24l-42.5,50.4l44.8,63.5H472.2z"/>
</g>
</svg>
