<?xml version="1.0" encoding="utf-8"?>
<!-- Generator: Adobe Illustrator 28.2.0, SVG Export Plug-In . SVG Version: 6.00 Build 0)  -->
<svg version="1.1" id="Layer_1" xmlns="http://www.w3.org/2000/svg" xmlns:xlink="http://www.w3.org/1999/xlink" x="0px" y="0px"
	 viewBox="0 0 512 512" style="enable-background:new 0 0 512 512;" xml:space="preserve">
<style type="text/css">
	.st0{fill-rule:evenodd;clip-rule:evenodd;fill:#FFFFFF;}
	.st1{fill-rule:evenodd;clip-rule:evenodd;fill:#00CCFF;}
	.st2{fill:none;stroke:#00CCFF;stroke-width:2;stroke-miterlimit:1;}
	.st3{fill:none;stroke:#00CCFF;stroke-width:7;stroke-miterlimit:1;}
</style>
<g>
	<g>
		<path class="st0" d="M144.2,103.3c30.7,30.7,70,38.6,112.4,38.6c43.6,0,82.8-8.4,114.7-40.4c14.7-14.7,44.4-44.3,45.5-45.4
			C371.1,18.7,317.6,0,256.2,0c-60.8,0-114,18.5-159.8,55.5L144.2,103.3z"/>
		<path class="st0" d="M373,258.4c0,42.3,6.7,81.2,38.2,112.7c22.9,22.9,44.7,44.5,45,44.8c37-45.8,55.6-99.1,55.6-159.9
			c0-58.9-17.4-110.8-52.3-155.9L406.6,153C375.7,184,373,210.9,373,258.4z"/>
		<path class="st0" d="M101.9,371.4c32.7-32.7,38-70.6,38-113.1c0-41.3-6.8-79.9-36.8-110c-20.1-20-47.6-47.2-49.7-49.4
			C21.6,139.2,4.2,185.3,1.1,237.2c-0.3,0.6-0.5,1.1-0.5,1.7C0.3,244.3,0.2,250,0.2,256c0,5.7,0.2,11.3,0.4,17
			c0.5,10.2,1.7,20.3,3.4,30.2c7.3,42.1,24.8,80,52.7,113.6C56.8,416.6,79.9,393.4,101.9,371.4z"/>
		<path class="st0" d="M371.5,417.4c-36.8-36.8-66.1-40.4-114.7-40.4c-46.7,0-78.4,4.3-112.6,38.5c-20.2,20.3-43.4,43.6-43.8,43.9
			c2.2,1.7,4.4,3.3,6.6,4.9C150,496.1,199.7,512,256.3,512c56.5,0,106.3-15.9,149.4-47.7c2.5-1.7,4.9-3.5,7.3-5.4L371.5,417.4z"/>
	</g>
	<path class="st1" d="M186,269.1c-0.5-2.8-0.8-5.5-0.9-8.4c-0.1-1.6-0.1-3.1-0.1-4.7c0-1.7,0-3.2,0.1-4.7c0-0.2,0-0.3,0.1-0.5
		c1-17.4,7.9-32.4,20.5-45.1c13.9-13.8,30.6-20.7,50.2-20.7s36.3,6.9,50.2,20.7c13.8,14,20.7,30.8,20.7,50.3s-6.9,36.2-20.7,50.2
		c-0.5,0.5-1,1.1-1.5,1.5c-2.3,2.2-4.7,4.2-7.2,6c-12,8.8-25.8,13.2-41.4,13.2s-29.4-4.4-41.3-13.2c-3.1-2.2-6.1-4.7-8.9-7.6
		C195,295.5,188.5,283.2,186,269.1z"/>
	<path class="st2" d="M372.9,141.1l-35.4,34.6 M73.1,76.9l96.5,96.1 M369.3,371.9l65.6,67.9 M439.3,76.5l-66.4,64.6 M76.8,438.6
		l64.6-64.7"/>
	<path class="st3" d="M372.7,141l-40,40.6 M139.4,143.1l40.6,40.5 M141,374l39.5-41.1 M326.7,329.6l42.6,42.4"/>
</g>
</svg>
