<?xml version="1.0" encoding="utf-8"?>
<!-- Generator: Adobe Illustrator 28.2.0, SVG Export Plug-In . SVG Version: 6.00 Build 0)  -->
<svg version="1.1" id="Layer_1" xmlns="http://www.w3.org/2000/svg" xmlns:xlink="http://www.w3.org/1999/xlink" x="0px" y="0px"
	 viewBox="0 0 512 512" style="enable-background:new 0 0 512 512;" xml:space="preserve">
<style type="text/css">
	.st0{fill:#40403F;stroke:#4A494A;stroke-width:10.1449;stroke-miterlimit:10;}
	.st1{fill:#E17926;}
	.st2{fill:#F78F20;}
	.st3{fill:#FDCDA0;}
	.st4{fill:#E17827;}
	.st5{fill:#C86228;}
	.st6{fill:none;stroke:#E17827;stroke-width:5.7971;stroke-miterlimit:1.4493;}
	.st7{opacity:0.5;fill:#C96328;enable-background:new    ;}
	.st8{fill:#F7DDC4;}
	.st9{fill:#EACEB1;}
	.st10{opacity:0.3;fill:#F8E9DB;enable-background:new    ;}
	.st11{fill:#34B9EB;}
	.st12{fill:#9F87BF;}
	.st13{opacity:0.1;fill:#FFFFFF;enable-background:new    ;}
	.st14{fill:#5D509E;}
	.st15{fill:#DDC1A8;}
	.st16{fill:#41439A;}
	.st17{opacity:0.4;fill:#FFFFFF;enable-background:new    ;}
	.st18{fill:#005C9F;}
	.st19{opacity:0.3;fill:#FFFFFF;enable-background:new    ;}
</style>
<g>
	<circle class="st0" cx="256" cy="256" r="248.3"/>
	<path class="st1" d="M88.7,152.3l-7.3-9.5l14.4-8.9C92.2,139.5,89.8,145.7,88.7,152.3z M152.3,263.7l-3.4,0.2
		c-2.3,0.2-6.2-0.7-8.9,0.1l1.7,8.7l11.7-3.5C153.1,267.3,152.8,265.5,152.3,263.7z M148,343.1l-2.2,2.7l-0.5,6.6l2.2-0.6
		c3.4-1.1,6.8-1.9,10.3-2.6l0.7-13.7C154.6,337.4,151,340,148,343.1z M388.3,102.6c-36.7-14-75.7-21.4-115.1-21.6
		c-49.5,0-97,12.2-142.5,34c6.6,0.7,13.1,2.3,19.3,4.6c9.5-4.1,18.9-7.7,28.4-10.9C209,98.6,241,93.3,273.2,93.2
		c33.4,0.2,66.6,5.7,98.2,16.4c-21.9,44.6-36.8,92.3-44.3,141.4c-3.4,24.4-3.9,49.2-1.5,73.7c2.3,21,7,41.6,13.9,61.5
		c-41.5,24.2-81.4,35.9-121.7,35.9c-23-0.1-45.9-3.9-67.7-11.3c-4.7,1.9-9.7,2.9-14.8,2.9l-1.1,4.3c26.6,10.7,54.9,16.2,83.6,16.4
		c47.5,0,93-15.7,136.7-42.8C319.3,302.4,337.5,206.6,388.3,102.6z M122.9,196.7c-2.3-4.8-4.8-9.4-7.3-14c-0.9,1.5-1.8,4.9-3.5,6.2
		l4.5,8.7C118.6,197.1,120.7,196.9,122.9,196.7z"/>
	<path class="st2" d="M333.1,251.7c6.1-44.8,21.4-92.6,46.7-145.7c-34.2-12.3-70.3-18.7-106.6-18.9c-43.8,0-88.1,10-132,29.9
		c13.6,3.4,26.1,10.4,36.1,20.3l1.7,1.8c1.8,1.6,3.1,3.5,4,5.7c0.6,2.7,0.4,5.5-0.5,8.2c-2.8,9.3-9.2,17.2-17.8,21.8
		c-10,5.4-21.4,4.3-32.2,2c-3.1-0.6-6.3-1.2-9.5-0.5s-5.6,3.2-7.4,6.2c2.6,4.6,5,9.3,7.3,14c4.8-0.4,9.6-0.6,14.4-0.5
		c12.3-0.1,24.6-1,36.9,1c5.6,0.7,11.2,2.1,16.5,4.1c2.1,0.7,4,1.9,5.7,3.3h0.1c1.9,2,3.4,4.4,4.3,7c7.9,21.7-8.3,40.9-27.8,47.8
		c-7.8,2.7-15.9,4.2-24,4.5c-0.9,0.1-1.8,0-2.7-0.1l1.3,7.1c4.5-1.3,9-2.7,13.7-3.8c6.5-1.7,13.2-3,19.9-3.8
		c5.1-0.5,13.2-2.3,17.3,1.6c2.2,2,3.4,4.9,4.6,7.7c2.2,4.9,4.1,9.8,5.7,14.9c1.4,4,1.9,8.3,1.5,12.6c-1.1,7.1-6.5,12.9-12.6,16.8
		c-11.3,7.3-24.5,11.3-36.5,17.2c-3.1,1.5-6.1,3.3-9,5.2l-0.6,11.2c14.5-3.7,29.6-4.3,44.3-1.8c2.7,0.4,5.4,1.3,7.8,2.7
		c4.4,2.7,6.6,7.9,6.6,13.1s-2.1,10-4.6,14.4c-7.4,11.7-18.5,20.5-31.6,25c-6.2,2.2-12.7,3.1-18.8,5.1c-4.4,1.6-8.9,3-13.4,4.1
		c0,0.3-0.1,0.7-0.2,1c24.4,9.1,50.3,13.9,76.4,14c42.8,0,85.1-12.8,129.1-39.3C331,345,326.2,297.9,333.1,251.7z"/>
	<path class="st3" d="M255.8,208.8c9-1.5,18.1-13.5,20.7-27.9c2.7-14.4-6.2-26.4-20-25.1c-13.8,1.2-22,15.1-19.9,29.7
		C238.7,199.9,246.7,210.1,255.8,208.8z"/>
	<path class="st4" d="M303.6,288c-25.5-16.4-37.1-44.2-57-72.1c-18.9,34.2-26.5,69.4-50.3,96.5C235.7,314.3,270.8,303,303.6,288z"/>
	<path class="st5" d="M272.6,336.2c-32.6-29.9-45-75.2-93.3-101.6c7.3,41.6,8.4,78-18.1,108.5C202.4,352.9,238.9,347.8,272.6,336.2z
		"/>
	<path class="st6" d="M312.5,301.1c-49.3,21.7-101,35.4-158.1,25.9c9.3-54.1,1.3-105.9-35.5-153.1c62.8-29.2,133.7-47.1,216.2-33.3
		C309.1,197.8,297.5,251.1,312.5,301.1z"/>
	<path class="st7" d="M187.7,145.8c0-0.8-0.2-1.6-0.6-2.3l-0.5-0.6c-1.2-1-3.1-1.1-4.5-1.6l-2.1-0.9l-0.7-0.7
		c-12.4-12.8-28.8-20.9-46.5-23.2c-4.2-0.7-8.4-0.5-12.6,0.4c-18.2,4.6-32.7,28.7-30.3,46.7c1.6,11.6,10,18.5,18.8,25.3
		c0.7,0.6,1.5,1,2.4,1.2c2.8,0.4,4.1-4.9,5.4-6.6s3.7-5.4,7.4-6.1c3.2-0.4,6.5-0.2,9.6,0.7c10.7,2.6,22.1,3.8,32.2-1.3
		c3-1.5,5.8-3.4,8.3-5.7c0.6-0.2,1.2-0.6,1.7-1.1c1.8-1.3,3.5-2.8,5.1-4.4l2.6-2.6c2.1-2.7,3.4-6,3.8-9.4
		C187.7,151,187.8,148.4,187.7,145.8z M256.2,242.3c0.3-1,0.7-1.9,1.2-2.8c7-16.4,18.9-29.8,31-42.6c12.1-12.8,23.8-23.3,40-27.3
		c11.2-2.2,22.7-2,33.8,0.5c6.7,1.2,14.3,1.7,20.5,4.9c6.2,3.2,10.9,9.8,14.6,15.5c11.2,17.3,21.4,35.4,30.4,53.9
		c5.7,11.3,12.3,22.8,12.3,35.8c-0.3,8.1-1.7,16.2-4.1,23.9c-6.2,20.9-15.3,41.2-24.3,60.9c-9,19.6-19.9,37.2-37.6,48.8
		c-25.9,17.1-58.7,13.9-87.7,9.8c-4.9-0.7-46.1-4.8-46.5-8.7c-0.2-2,13.1-6.3,14.9-7.2c17.5-7.5,32.8-19.3,44.4-34.4
		c4.1-5.7,7-12.3,8.3-19.3c1.8-10.3,5-20.3,10.7-28.9c5.7-8.7,13.5-14.8,13.5-25.9c0-3.9-0.9-7.7-0.5-11.6c0.4-3.9,2.2-7.9,5.9-9.3
		c3.7-1.3,4.9-0.6,6.1-2.6c0.5-0.8,0.8-1.7,0.7-2.7c1.6-10,5.3-19.6,10.9-28.1c-10.1,15.4-25,27-42.5,32.8
		c-10.7,4.3-22.6,7.1-33.9,4.9c-11.3-2.2-22.2-10.4-24.5-21.7C252.9,254.7,253.7,248.2,256.2,242.3z M205,224
		c0.1-0.9,0.1-1.8,0.1-2.7c0.2-3.7-0.4-7.4-1.6-10.9c-0.5-1.8-1.7-3.3-3.4-4.1c-0.5-0.2-1-0.4-1.6-0.4c-1.7-1.4-3.6-2.5-5.6-3.3
		c-5.3-1.9-10.9-3.3-16.5-4.1c-12.2-2-24.5-1-36.9-1s-23.6,0-33.8,6.1S90,221.5,88,232.2c-2.1,10.7-0.2,21,5.7,29.3
		c9.8,12.6,26.8,17.2,41.6,11.3c1-0.3,1.9-0.9,2.7-1.6c1-1.1,1.2-2.7,2-4c1.8-3.5,7.9-1.7,11.1-1.8c8.2-0.5,16.3-2,24-4.5
		c10.9-3.9,20.7-11.6,26-21.4c0.8-0.3,1.5-0.9,2-1.7c0.3-0.7,0.6-1.4,0.7-2.1c0.5-2.5,0.8-5.1,1-7.7C205,226.7,205,225.4,205,224z
		 M220.4,289.7c-0.2-5-1.7-9.9-4.3-14.2c-1.8-2.8-2.8-5.9-6.2-6.3c-2.1,0-4.1,0.3-6.1,0.9c-0.6-1.2-1.4-2.3-2.3-3.2
		c-3.9-3.9-12.1-2.4-17.2-2.1c-6.7,0.6-13.4,1.7-20,3.2c-13.2,2.8-26.1,6.7-38.7,11.5c-11,4.3-22.9,8.3-31.1,17.2
		c-3.1,3.4-8.3,9.8-9.3,14.3c-3.3,14.8,0.9,33.1,15.4,40.6c8.7,4.5,19.2,3.9,28.9,2.6c5.1-0.7,10.4-1.7,14.3-5
		c1.8-1.7,3.3-3.8,5-5.5c3.7-3.9,8.5-6.5,13.4-8.7c12.2-5.5,25.5-9.2,37-16.1c6.2-3.8,11.7-9.4,13.1-16.5c0.2-0.9,0.4-1.9,0.4-2.8
		l3.3-1.6c1.6-0.8,2.9-1.9,3.9-3.3C220.5,293.1,220.7,291.4,220.4,289.7z M216.6,363.3c-1-3.9-2.7-8.4-7-9.5
		c-0.8-0.3-1.6-0.4-2.4-0.4l-1.7-1.3c-2.4-1.3-5.1-2.2-7.8-2.7c-16.1-2.8-32.7-1.8-48.3,2.9c-13.5,4-37.7,12.6-39.2,29
		c-0.5,6.4,1.3,12.7,5,17.9c4.6,7.2,12.6,14.5,21.6,14.9c7.1,0.2,13.5-2.4,20-4.6s12.7-2.8,18.8-5.1c12.1-4.2,22.5-12,30-22.3l1-0.2
		c3.1-0.6,5.9-2,8.2-4.1c0.8-0.9,1.4-1.9,1.8-3.1C218.2,370.9,217.6,366.9,216.6,363.3z"/>
	<path class="st8" d="M178,138.5c-12.4-12.8-28.7-20.9-46.4-23.2c-4.2-0.7-8.5-0.6-12.7,0.4c-18.1,4.5-32.7,28.7-30.3,46.7
		c1.7,11.6,10,18.5,18.8,25.1c0.7,0.6,1.5,1.1,2.4,1.3c2.8,0.4,4.1-4.9,5.4-6.7s3.8-5.2,7.6-6c3.2-0.4,6.4-0.2,9.5,0.7
		c10.7,2.6,22.1,3.8,32.3-1.3c8.6-4.4,15.2-12,18.2-21.2c1-2.6,1.2-5.4,0.6-8.2c-0.8-2.2-2.1-4.2-3.8-5.9L178,138.5z"/>
	<path class="st9" d="M164.7,175.6l3.4-2c-10.5-1.6-14.9-0.1-17.1-0.9s-11.5-0.2-14.6-1.1s-7.4-0.6-10.1-1.2c-3.9-1-7.9-1.5-12-1.7
		c-6.2-0.6-11.5-3.1-15-0.4s-4.9,3.2-6.8,4.4c3.7,5.9,9.3,10.4,15,14.8c0.7,0.6,1.5,1.1,2.4,1.3c2.8,0.4,4.1-4.9,5.4-6.7
		s3.8-5.2,7.6-6c3.2-0.4,6.4-0.2,9.5,0.7C143.1,179.5,154.5,180.7,164.7,175.6z"/>
	<path class="st10" d="M183.5,146.2c-0.8-2.2-2.1-4.2-3.8-5.9l-1.7-1.8c-12.4-12.8-28.7-20.9-46.4-23.2c-4.2-0.7-8.5-0.6-12.7,0.4
		c0,0-16.1,8.3-14.9,26.7c1.6,23.2,6.2,23.1,18.8,33.8c3.2-0.4,6.4-0.2,9.5,0.7c10.7,2.6,22.1,3.8,32.3-1.3
		c8.6-4.4,15.2-12,18.2-21.2C183.9,151.7,184.1,148.9,183.5,146.2z"/>
	<path class="st11" d="M185.8,143.5l-0.5-0.6c-1.2-1-3.1-1.1-4.5-1.6l-5.7-2.2l-10-2.9c-7.9-2.1-17.2-4.1-24.8,0.2
		c-3.9,2.1-6.7,5.9-7.6,10.3c-0.6,3.9,0.6,7.9,3.4,10.7c3.1,2.9,7.8,4.5,11.8,6c7.5,3.2,15.4,5.4,23.6,6.5c0.9,0.2,1.8,0.2,2.7,0
		c0.6-0.3,1.1-0.6,1.6-1.1c2.4-1.6,4.5-3.6,6.5-5.7c2.1-2.7,3.4-6,3.8-9.4c0.4-2.6,0.5-5.2,0.4-7.8
		C186.4,145,186.2,144.2,185.8,143.5z"/>
	<path class="st8" d="M427.4,243.2c-5.9-11.7-12-23.3-18.4-34.7l-3.2-5.4l-1.3-2.2l-2.4-4c-0.5-0.6-0.9-1.3-1.2-2l-3.8-5.7
		c-3.9-5.7-8.3-12.2-14.8-15.5c-6.5-3.3-13.7-3.7-20.4-4.9c-11.1-2.5-22.6-2.6-33.8-0.5c-16.4,4-28.9,15.5-40.1,27.3
		s-23.9,26.2-31,42.6l-1.1,2.8c-2.3,6-3.7,12.4-2.3,18.7c2.2,11.3,13.1,19.6,24.5,21.8l2.1,0.2h12.4c6.7-1,13.2-2.7,19.4-5.2
		c17.4-5.9,32.4-17.4,42.5-32.8c-2.7,4.4-5.1,9-7.1,13.8c-1.9,4.6-3.2,9.4-3.8,14.3c0,0.9-0.3,1.9-0.7,2.7c-1.2,2-4,1.8-6.1,2.6
		c-0.7,0.2-1.3,0.6-1.8,1.1c-2.2,39,4.3,77.9,18.9,114.1c-19.5,12.6-40.5,22.9-62.4,30.8c27.7,3.8,58,5.5,82.2-10.4
		c17.7-11.7,28.9-30.1,37.6-48.9c8.7-18.8,18.1-40,24.2-60.9c2.5-7.7,3.9-15.8,4.1-23.9C439.8,266,433.1,254.5,427.4,243.2z"/>
	<path class="st9" d="M335.1,289.6c-0.1,0.8-0.1,1.5-0.1,2.3v2l0.1,5.1v2l0.2,5.2l0.1,1.8l0.4,5.5c0,0.5,0,1,0.1,1.5l0.6,6.7v0.2
		c0.5,4.6,1.1,9.4,2,14c0,0.5,0.1,1.1,0.2,1.6l0.9,5.1c0.2,0.8,0.4,1.5,0.5,2.3l1,4.5l0.5,2.6l1,4.1l0.7,2.7l1.1,4.1l0.7,2.7l1.2,4
		c0.2,0.9,0.5,1.8,0.9,2.7l1.3,4.1c0.2,0.9,0.5,1.7,0.9,2.6c0.5,1.5,1,2.9,1.6,4.4l0.7,2.2l2.6,6.6l-7.2,4.5l-0.6,0.4l-7,4l-0.9,0.5
		l-6.8,3.7l-1,0.6l-6.8,3.4l-1.1,0.6l-6.8,3.3l-1,0.4l-7,3.2l-1,0.4l-7.1,2.8l-0.6,0.2l-7.6,2.8c27.7,3.8,58,5.5,82.2-10.5
		c7.4-4.9,14-11,19.4-18.1C387.5,353.6,366.7,316.3,335.1,289.6z M392.8,209.3c7.1-12.6,5.7-10.5,1.6-23.9c-3.3-4.6-7.1-9-12.1-11.6
		c-5-2.6-13.7-3.7-20.4-4.9c-4.1-0.7-8.2-1.3-12.3-1.7c15.3,13.4,19.3,26.7,19.4,38.1c0.1,11.3-9.6,29.5-14.5,38.6
		s-24.4,48.7,3.8,12.7c8.8-11.1,19.2-17.7,25.5-28.7C390.1,216.8,384.9,223.5,392.8,209.3z"/>
	<path class="st10" d="M361.7,176.7c-2.9-2.9-7.9-8.7-12.2-9.6c-6.6-0.6-13.3-0.1-19.8,1.3c-16.2,4-28.9,15.5-40,27.3
		c-11.1,11.8-24,26.2-31,42.6c-0.5,0.9-0.9,1.8-1.2,2.8c-2.3,6-3.7,12.4-2.3,18.7c2.2,10.9,12.1,18.8,22.8,21.4
		c17,0.1,42.8-8.9,62.2-28.8C367.8,224.2,376.6,191.2,361.7,176.7z"/>
	<path class="st12" d="M287.1,221.5c-2.2,0.9-4.2,2.1-6,3.7c-5,3.7-9.4,8.1-13.9,12.1c-4.5,4-11.5,7.9-13.2,14.5
		c-0.8,3.5-0.5,7.1,0.7,10.4c1.8,5.9,5.1,11.5,10.3,14.9c9.4,6.2,19.6,0.9,27.5-5.4c7.8-6.2,16-10.7,20-19.2s-1.6-16.1-6.1-21.8
		c-4.5-5.7-10.9-11.2-18.2-9.5L287.1,221.5z"/>
	<path class="st13" d="M307.6,232.2l-48.2,39.3c1.6,2.1,3.5,4,5.6,5.5c9.4,6.2,19.6,0.9,27.5-5.4c7.8-6.2,16-10.7,20-19.2
		C315.7,245.9,311.8,237.9,307.6,232.2z"/>
	<path class="st8" d="M196.3,204.9h-0.1c-1.7-1.4-3.7-2.5-5.7-3.3c-5.3-1.9-10.9-3.3-16.5-4.1c-12.2-2-24.5-1-36.9-1
		s-23.6,0-33.8,6.1S87.6,220.2,85.5,231c-2.1,10.7-0.2,21,5.7,29.3c9.9,12.5,26.8,17.1,41.6,11.3c1-0.3,1.9-0.9,2.7-1.6
		c1-1.1,1.2-2.7,2-4c1.8-3.5,7.9-1.7,11.1-1.8c8.2-0.5,16.3-2,24-4.5c19.6-7.1,35.9-26.2,27.9-47.8
		C199.7,209.2,198.3,206.8,196.3,204.9z"/>
	<path class="st9" d="M143.7,279.9c3.2-1-0.6-9.2-3.4-14.5c-0.4-0.5-1-0.8-1.6-0.7c2.6-1.6,7.3-0.4,9.9-0.5c8.2-0.5,16.3-2,24-4.5
		c8.7-3.1,16.4-8.5,22.2-15.6c-17.6-2-25.5,14.6-51.7,11.8c-11.5-1.2-21.4,1.6-31.4,1.8s-18.2-4.6-21.4,1.2l0.9,1.3
		c5.2,7.3,13.7,11.8,22.6,13.3h0.4c1.9,0.3,3.8,0.5,5.7,0.5c7.2,1.1,14.2,3.9,21.2,5.6C142,280,142.9,280.1,143.7,279.9z"/>
	<path class="st10" d="M196.3,204.9h-0.1c-1.7-1.4-3.7-2.5-5.7-3.3c-5.3-1.9-10.9-3.3-16.5-4.1c-12.2-2-24.5-1-36.9-1
		s-29.3,6-31,26.2c-3.1,37.6,54.3,38.3,69.3,35.3c18.4-3.4,30.5-21,27.1-39.4c-0.4-2.3-1.1-4.5-1.9-6.6
		C199.7,209.3,198.3,206.9,196.3,204.9z"/>
	<path class="st14" d="M148.6,224c0-3.8,1.3-7.4,3.8-10.3c3.7-4.1,8.3-5,13.5-5.9l7.9-1.1c7.2-0.9,14.5-1.8,22-2.1
		c1-0.1,2.1,0.1,3.1,0.4c1.7,0.8,2.9,2.3,3.4,4.1c1.2,3.5,1.7,7.2,1.6,10.9c0,4.8-0.4,9.7-1.3,14.4c-0.2,0.7-0.4,1.4-0.7,2.1
		c-1.3,2.3-4.6,2.6-7,2.9c-9.5,1.2-19.1,1.4-28.7,0.6c-2.8-0.1-5.6-0.6-8.2-1.6C152.2,236.2,148.4,230.4,148.6,224z"/>
	<path class="st15" d="M112,185.2c-2,0-2-0.4-5.1-0.9c-3.2-0.5-2.1-0.2-3.4-0.1h-0.2l4.3,3.3l1.3,1l1.5,0.4c0.7-0.1,1.4-0.4,1.8-1
		l1.2-1.7l0.4-0.9L112,185.2z M113.5,273.6h-0.1c9.6-0.4,18.7,3.9,27.8,6.1c0.8,0.3,1.7,0.4,2.6,0.2c3.2-1-0.6-9.2-3.4-14.5
		c-0.4-0.8-1.4-1-2.2-0.6c-0.2,0.1-0.4,0.3-0.5,0.5C133.7,270.6,116,273.3,113.5,273.6z M335.9,315.5l-0.1-1
		C335.8,314.9,335.8,315.2,335.9,315.5z M335.1,299.9l-0.1-7L335.1,299.9z M337,276.9c2.2-0.7,5-0.6,6.2-2.4
		c0.4-0.8,0.7-1.8,0.7-2.7c0.6-5,1.9-9.8,3.8-14.4c2-4.8,4.3-9.4,7-13.8c-4.6,7.9-10.9,14.7-18.4,20l-1.1,14.4L337,276.9z
		 M335.3,307.5l0.5,6.7L335.3,307.5z M335.1,299.9l0.2,7.1L335.1,299.9z M335.2,278.2c-0.2,4.8-0.2,9.5-0.2,14.3
		C334.9,287.7,334.9,283,335.2,278.2z"/>
	<path class="st8" d="M83.9,309.6c1.1-4.5,6.2-10.9,9.3-14.2c8.2-8.9,20.1-12.9,31.2-17.2c12.5-4.8,25.4-8.6,38.6-11.5
		c6.6-1.5,13.3-2.6,20-3.2c5.1-0.4,13.3-2,17.3,2.1c2,2.3,3.5,4.9,4.4,7.8c2.1,4.9,3.8,10,5.2,15.1c1.3,4.1,1.6,8.3,1.1,12.6
		c-1.3,7.1-7,12.7-13.1,16.4c-11.6,7-24.9,10.6-37.1,16.2c-4.9,2.2-9.6,4.8-13.3,8.5c-1.8,1.8-3.2,3.9-5.1,5.5
		c-4.1,3-9.1,4.7-14.2,5c-9.8,1.5-20.3,2.1-29-2.6C84.9,342.6,80.7,324.5,83.9,309.6z"/>
	<path class="st9" d="M139.7,348.6c3.9-1.7,7.2-6.3,9.8-9.5c0.2-0.3,0.6-0.6,1-0.7c0.4-0.1,0.7,0.1,1,0.4c2.9,1.8-4.4,7.7-3.8,11.2
		c0.2,1.1,0.1,2.2-0.2,3.3c-0.5,1.1-2.3,0.6-3.4,0.7c-8.5,1.3-4.9-3.1-13.2-1.6C134.3,350.7,136.5,350.1,139.7,348.6z M196.9,309.7
		c-3.8,0.5-50.5,18.7-57.1,20.9s-17.3,6.6-28.2,6.6s-13.4,0.7-16.4,4.4l-3.1,3.4c2,2.1,4.4,3.9,7.1,5.2c8.8,4.6,19.3,4,29,2.6
		c5-0.6,10.3-1.7,14.2-5c2-1.6,3.3-3.7,5.1-5.5c3.7-3.8,8.4-6.3,13.3-8.5c12.2-5.6,25.5-9.3,37.1-16.2c3.7-2.1,7-5.1,9.5-8.5
		L196.9,309.7z"/>
	<path class="st10" d="M210,288.6c-1.4-5.1-3.2-10.2-5.2-15.1c-0.9-2.9-2.4-5.5-4.4-7.8c-4-4-12.2-2.4-17.3-2.1
		c-6.7,0.6-13.4,1.6-20,3.2c-10.2,2.2-20.2,5-30,8.4c-19.2,12.2-25.1,26.7-20.7,39.3c5.5,16,30.3,19.6,57.1,13.3
		c9.8-3.9,19.5-4.8,28.7-10.3c6.1-3.7,11.7-9.3,13.1-16.4C211.6,296.9,211.3,292.6,210,288.6z"/>
	<path class="st16" d="M165.6,281.4c3.5-4.5,10.5-6.8,15.7-8.3s12.4-2.4,18.7-3.8c2.2-0.5,6.5-1.7,8.8-1.3c2.3,0.4,4.3,3.5,6.2,6.3
		c2,2.8,3.8,9.3,4.3,14.2c0.2,1.7,0,3.4-0.7,5c-1,1.4-2.3,2.5-3.9,3.3c-3.2,1.7-6.5,3.1-9.9,4.3c-5.3,1.8-10.7,3.2-16.2,4.4
		c-6.3,1.5-14,3.5-19.6-1c-2.6-2.2-4.3-5.2-5-8.5c-1-4.1-1.2-9.9,1.1-13.7L165.6,281.4z"/>
	<path class="st17" d="M218.2,281.7L164.1,297c0.8,2.9,2.4,5.5,4.8,7.4c5.6,4.5,13.3,2.4,19.6,1c5.5-1.1,10.9-2.6,16.2-4.4
		c3.4-1.2,6.7-2.6,9.9-4.3c1.6-0.8,2.9-1.9,3.9-3.3c0.7-1.6,1-3.3,0.7-5C219,286.2,218.7,284,218.2,281.7z"/>
	<path class="st8" d="M204.3,350.8c-2.4-1.3-5.1-2.2-7.8-2.7c-16.1-2.8-32.7-1.8-48.3,2.9c-13.5,4-37.7,12.6-39.2,29
		c-0.5,6.4,1.3,12.7,5,17.9c4.6,7.2,12.6,14.5,21.6,14.9c7.1,0.2,13.5-2.4,20-4.6s12.7-2.8,18.8-5.1c13.1-4.5,24.3-13.3,31.7-24.9
		c2.8-4.3,4.4-9.3,4.6-14.4C210.9,358.9,208.5,353.5,204.3,350.8z"/>
	<path class="st9" d="M179.6,393.8c-11,3.7-20.4,4.8-30.3,7.6c-9.9,2.8-20.1-7.8-26.1,6.8c3.5,2.8,7.8,4.4,12.3,4.8
		c7.1,0.2,13.5-2.4,20-4.6s12.7-2.8,18.8-5.1c11-4,21.1-10.6,28.2-19.9C193.6,387.5,185.1,391.9,179.6,393.8z"/>
	<path class="st10" d="M204.3,350.8c-2.4-1.3-5.1-2.2-7.8-2.7c-15.8-2.8-32-1.9-47.5,2.6c-10.5,9.3-15.7,20-12.9,29.5
		c4.1,14.2,19.5,28.1,50.3,17.2c8.1-4.7,14.8-11.3,19.8-19.2c2.8-4.3,4.4-9.3,4.6-14.4C210.9,358.9,208.5,353.5,204.3,350.8z"/>
	<path class="st18" d="M165.2,374.2c2.2,5.7,8.4,9,14.2,9.9c3.9,0.5,7.9,0.4,11.8-0.4c4.8-0.9,9.5-2,14.2-3.2c3.1-0.6,5.9-2,8.2-4.1
		c0.8-0.9,1.4-1.9,1.8-3.1c1.6-3.7,1-7.7,0-11.3s-2.7-8.4-7-9.5c-2.2-0.5-4.5-0.5-6.7,0c-6.5,1-12.7,3.3-19.2,4.5
		c-3.9,0.9-7.9,1.6-11.3,3.7c-3.4,2.1-6.5,5.5-6.7,9.4C164.5,371.5,164.7,372.9,165.2,374.2z"/>
	<path class="st19" d="M133.1,145.2l-0.4,1.5c-0.6,3.9,0.6,7.9,3.4,10.7c3.1,2.9,7.8,4.5,11.8,6c7.5,3.2,15.4,5.4,23.6,6.5
		c0.9,0.2,1.8,0.2,2.7,0c0.6-0.3,1.1-0.6,1.6-1.1c2.4-1.6,4.5-3.6,6.5-5.7c0.9-1.2,1.7-2.4,2.3-3.8L133.1,145.2z M148.7,226
		c0.5,5.6,4.1,10.4,9.3,12.6c2.6,1,5.4,1.5,8.2,1.6c9.6,0.8,19.2,0.6,28.7-0.6c2.3-0.4,5.6-0.6,7-2.9c0.3-0.7,0.6-1.4,0.7-2.1
		c0.9-4.5,1.3-9.2,1.3-13.8L148.7,226z M165.6,375.2c2.6,5.1,8.3,8.2,13.8,8.9c3.9,0.5,7.9,0.4,11.8-0.4c4.8-0.9,9.5-2,14.2-3.2
		c3.1-0.6,5.9-2,8.2-4.1c0.8-0.9,1.4-1.9,1.8-3.1c1.2-3.1,1.3-6.6,0.4-9.8L165.6,375.2z"/>
</g>
</svg>
