<?xml version="1.0" encoding="utf-8"?>
<!-- Generator: Adobe Illustrator 27.7.0, SVG Export Plug-In . SVG Version: 6.00 Build 0)  -->
<svg version="1.1" id="Layer_1" xmlns="http://www.w3.org/2000/svg" xmlns:xlink="http://www.w3.org/1999/xlink" x="0px" y="0px"
	 viewBox="0 0 512 512" style="enable-background:new 0 0 512 512;" xml:space="preserve">
<style type="text/css">
	.st0{fill:#FFFFFF;}
</style>
<g>
	<path class="st0" d="M149,391.9c-24.3,0-46.9-12.9-58.8-34l-39.9-69c-12.4-21-12.4-46.9,0-67.9l39.9-69c12.4-21,34.5-34,58.8-34
		h17.8l20.5-35.6h-58.8c-24.3,0-46.9,12.9-58.8,34L9.3,220.9c-12.4,21-12.4,46.9,0,67.9l60.4,104.6c12.4,21,34.5,34,58.8,34h58.8
		l-20.5-35.6H149L149,391.9z"/>
	<path class="st0" d="M502.7,222.6L442.3,118c-12.4-21-34.5-34-58.8-34H282.2h-20c-24.3,0-46.9,12.9-58.8,34l-1.1,1.6l-59.3,103
		c-5.9,9.7-8.6,21-9.2,32.4v0.5c0,12.4,2.7,24.8,9.2,35.6l59.3,103l1.1,1.6c12.4,21,34.5,34,58.8,34h20h101.4
		c24.3,0,46.9-12.9,58.8-34L502.7,291C515.1,270,515.1,243.6,502.7,222.6z M226.6,359l-0.5-1.1l-43.1-75c-4.3-8.1-6.5-17.3-6.5-25.9
		c0-0.5,0-0.5,0-0.5c0-8.1,2.2-16.2,6.5-23.2l43.1-75l0.5-1.1c2.2-3.8,4.9-7,7.5-9.7l74.4,110l-75,110.5
		C230.9,365.5,228.8,362.2,226.6,359z M457.9,291l-43.7,76c-8.6,15.6-24.8,24.8-42.6,24.8h-73.3h-14.6c-9.2,0-18.3-2.7-25.9-7.5
		l75.5-111.6h130.5C462.8,279.2,461.2,285.1,457.9,291z M463.9,240.4c0-0.2-0.1-0.4-0.1-0.5H333.9l-75.5-111.6
		c7.5-4.3,16.2-7,25.3-7h14.6h73.3c17.3,0,34,9.7,42.6,24.8l43.7,76c3.1,5.2,4.8,11.5,5.8,17.8h0.1V240.4z"/>
</g>
</svg>
