<?xml version="1.0" encoding="utf-8"?>
<!-- Generator: Adobe Illustrator 27.7.0, SVG Export Plug-In . SVG Version: 6.00 Build 0)  -->
<svg version="1.1" id="Synology_x5F_logo" xmlns="http://www.w3.org/2000/svg" xmlns:xlink="http://www.w3.org/1999/xlink" x="0px"
	 y="0px" viewBox="0 0 512 512" style="enable-background:new 0 0 512 512;" xml:space="preserve">
<style type="text/css">
	.st0{fill:#FFFFFF;}
</style>
<g>
	<path class="st0" d="M242.8,238.7c-4.3,0-7.8,1.7-10.7,4.9c-2.9,3.2-4.4,7.9-4.4,14c0,6.1,1.4,10.8,4.4,14
		c2.9,3.3,6.5,4.9,10.7,4.9c4.3,0,7.8-1.6,10.7-4.9c2.9-3.2,4.3-7.9,4.3-14.1c0-6.1-1.4-10.7-4.3-13.9
		C250.6,240.4,247,238.7,242.8,238.7z"/>
	<path class="st0" d="M386.4,229.8c-3.2,0-5.9,1.3-8,3.9c-2.2,2.5-3.2,6.4-3.2,11.7c0,6.8,1.5,12.1,4.4,15.9
		c2.3,2.8,5.1,4.3,8.5,4.3c3.3,0,6-1.3,8.1-3.7c2.1-2.5,3.2-6.3,3.2-11.5c0-6.9-1.5-12.3-4.4-16.1
		C392.7,231.3,389.9,229.8,386.4,229.8z"/>
	<path class="st0" d="M368.5,299.5c0,2.1,1.2,3.9,3.8,5.5c4.4,2.7,10.6,4,18.8,4c7.8,0,13.5-1.4,17.3-4.1c3.7-2.7,5.6-5.6,5.6-8.7
		c0-2.2-1.1-3.8-3.3-4.8c-2.3-1-6.7-1.5-13.5-1.7c-9.9-0.3-17.4-0.9-22.7-1.6c-2,2.2-3.5,4.2-4.5,6.2
		C369,296.1,368.5,297.9,368.5,299.5z"/>
	<path class="st0" d="M435.1,0H76.8C34.4,0,0,34.4,0,76.8v358.4C0,477.6,34.4,512,76.8,512h358.4c42.4,0,76.8-34.4,76.8-76.9V76.8
		C512,34.4,477.6,0,435.1,0z M90.3,277.1c-2.7,4.2-6.5,7.4-11.4,9.5c-4.9,2-11,3.1-18.4,3.1c-10.7,0-18.9-2.5-24.6-7.5
		c-5.8-5-9.2-12.2-10.3-21.7l16.5-1.5c1,5.5,3,9.6,6.1,12.2c3.1,2.6,7.2,3.9,12.4,3.9c5.5,0,9.6-1.2,12.4-3.5c2.8-2.4,4.2-5,4.2-8.1
		c0-2-0.6-3.7-1.7-5.1c-1.2-1.4-3.2-2.6-6.1-3.6c-2-0.8-6.5-2-13.6-3.8c-9.1-2.2-15.5-5.1-19.2-8.4c-5.2-4.7-7.8-10.4-7.8-17.1
		c0-4.3,1.2-8.4,3.7-12.1c2.4-3.8,6-6.6,10.6-8.6c4.6-1.9,10.1-2.9,16.6-2.9c10.6,0,18.5,2.3,23.9,7c5.4,4.7,8.1,11,8.4,18.8
		l-17.1,0.6c-0.8-4.3-2.3-7.4-4.7-9.3c-2.4-1.9-6-2.9-10.7-2.9c-4.9,0-8.8,1-11.6,3.1c-1.8,1.3-2.7,3-2.7,5.2c0,2,0.8,3.7,2.5,5.1
		c2.1,1.9,7.4,3.7,15.6,5.7c8.3,2,14.4,4,18.3,6.1c4,2.1,7.1,5,9.3,8.7c2.2,3.6,3.4,8.2,3.4,13.5C94.3,268.3,92.9,272.9,90.3,277.1z
		 M133.3,285.7l-3.9,10.8c-1.4,3.6-2.8,6.3-4,8.2c-1.3,1.9-2.8,3.5-4.4,4.6c-1.7,1.1-3.8,2.1-6.1,2.7c-2.5,0.7-5.2,1-8.3,1
		c-3.1,0-6.2-0.4-9.2-1l-1.3-12.8c2.5,0.5,4.8,0.8,6.8,0.8c3.7,0,6.5-1.1,8.3-3.3c1.8-2.3,3.2-5.1,4.1-8.5l-23.2-61.5h17.1
		l14.6,43.6l14.3-43.6h16.7L133.3,285.7z M211.2,288.1L211.2,288.1H195v-31.3c0-6.6-0.3-10.8-1-12.8c-0.7-1.9-1.8-3.5-3.4-4.5
		c-1.6-1.1-3.5-1.6-5.7-1.6c-2.8,0-5.4,0.8-7.6,2.3c-2.3,1.5-3.8,3.6-4.6,6.1c-0.8,2.6-1.2,7.2-1.2,14.1v27.7h-16.1v-61.4h14.9v9
		c5.4-6.8,12.1-10.2,20.2-10.2c3.6,0,6.9,0.7,9.9,1.9c3,1.3,5.2,2.9,6.7,5c1.5,2,2.6,4.3,3.2,6.8s0.9,6.2,0.9,10.9V288.1z
		 M265.5,280.5c-6,6.1-13.5,9.2-22.6,9.2c-5.6,0-11-1.3-16.1-3.8c-5.1-2.5-9-6.3-11.6-11.2c-2.7-4.9-4-10.9-4-17.9
		c0-5.4,1.3-10.6,4-15.7c2.7-5,6.4-8.9,11.3-11.6s10.3-4,16.3-4c9.3,0,16.9,3,22.8,9c5.9,6,8.9,13.7,8.9,22.9
		C274.5,266.7,271.5,274.4,265.5,280.5z M304,288.2h-29.3v-2.4c2.7,0,4.6-0.3,5.7-0.9c1-0.6,1.8-1.5,2.3-2.8
		c0.6-1.3,0.8-3.8,0.8-7.5v-54.1c0-6.8-0.1-11-0.4-12.5c-0.3-1.6-0.8-2.6-1.4-3.2c-0.7-0.6-1.5-0.9-2.5-0.9c-1.1,0-2.5,0.4-4.2,1.1
		l-1.1-2.3l17.6-7.3h2.9v79.1c0,3.8,0.3,6.3,0.8,7.5c0.6,1.3,1.4,2.2,2.5,2.8c1.1,0.6,3.3,1,6.3,1V288.2z M347.6,285.6
		c-4.5,2.8-9.5,4.2-15.1,4.2c-9.1,0-16.2-3.6-21.5-10.8c-4.5-6-6.7-12.8-6.7-20.4c0-5.5,1.4-10.9,4.1-16.3
		c2.8-5.5,6.3-9.4,10.8-12.1c4.2-2.4,8.9-3.7,13.9-3.7c9.1,0,16.4,3.4,21.9,10.3c4.7,5.9,7,12.6,7,20.2c0,5.4-1.3,10.8-3.8,16.2
		C355.6,278.7,352.1,282.8,347.6,285.6z M418.9,235.9c-0.1,0.2-0.4,0.4-0.7,0.5c-0.3,0.1-1.4,0.2-3.3,0.2h-7.8
		c2.5,3.1,3.7,7.2,3.7,12.1c0,5.6-2.2,10.3-6.4,14.3c-4.3,4-10,6-17.1,6c-3,0-6-0.4-9.1-1.4c-1.8,1.7-3.1,3.1-3.7,4.4
		c-0.7,1.3-1,2.3-1,3.1c0,0.8,0.4,1.5,1.1,2.2s2.1,1.2,4.2,1.5c1.2,0.2,4.3,0.4,9.1,0.5c8.9,0.3,14.7,0.6,17.4,1.1
		c4,0.6,7.3,2.1,9.7,4.5c2.4,2.4,3.6,5.4,3.6,8.9c0,4.8-2.3,9.5-6.9,13.7c-6.7,6.3-15.6,9.4-26.4,9.4c-8.4,0-15.4-1.8-21.2-5.6
		c-3.3-2.2-4.9-4.4-4.9-6.8c0-1,0.2-2.1,0.7-3.1c0.7-1.6,2.2-3.8,4.5-6.7c0.3-0.4,2.5-2.7,6.5-7c-2.2-1.4-3.8-2.6-4.7-3.7
		c-0.9-1.1-1.4-2.3-1.4-3.6c0-1.5,0.6-3.3,1.8-5.4c1.2-2.2,4-5.1,8.5-8.8c-3.6-1.9-6.4-4.3-8.4-7.5c-1.9-3.2-2.9-6.7-2.9-10.6
		c0-5.9,2.2-11,6.6-15.2c4.5-4.3,10.2-6.4,17.1-6.4c5.7,0,10.6,1.3,14.8,4.1h12.6c1.9,0,3,0.1,3.3,0.2c0.3,0.1,0.5,0.3,0.6,0.6
		c0.2,0.4,0.4,1.1,0.4,2.1C419.2,234.6,419.1,235.5,418.9,235.9z M486.4,230.8c-1.6,0.2-2.9,0.5-3.7,1.1c-0.9,0.5-1.8,1.5-2.9,2.9
		c-0.4,0.6-1.2,2.3-2.2,5l-24.2,59.6c-2.4,5.8-5.5,10.2-9.3,13.1c-3.8,3-7.5,4.4-11.1,4.4c-2.6,0-4.7-0.7-6.4-2.2
		c-1.7-1.5-2.5-3.1-2.5-5.1c0-1.8,0.6-3.2,1.8-4.4s2.9-1.7,5-1.7c1.4,0,3.4,0.5,5.9,1.4c1.7,0.6,2.9,1,3.3,1c1.3,0,2.7-0.7,4.3-2
		c1.5-1.3,3.1-3.9,4.7-7.8l4.2-10.4l-21.5-45c-0.7-1.4-1.7-3-3.1-5c-1.1-1.5-2-2.5-2.7-3.1c-1-0.7-2.6-1.3-4.8-1.8v-2.5h27.9v2.4
		h-1.4c-2,0-3.4,0.5-4.4,1.3c-1,0.9-1.4,1.9-1.4,3.2c0,1.7,0.7,4.1,2.2,7.1l14.6,30.3l13.3-33.1c0.7-1.8,1.1-3.6,1.1-5.4
		c0-0.8-0.2-1.3-0.5-1.7c-0.4-0.5-0.9-0.9-1.6-1.1c-0.7-0.3-2-0.5-3.9-0.5v-2.4h19.3V230.8z"/>
	<path class="st0" d="M331.1,230.9c-2.3,0-4.6,0.6-7,2c-2.3,1.4-4.2,3.7-5.7,7.1c-1.4,3.5-2.2,7.9-2.2,13.2c0,8.7,1.8,16.1,5.2,22.5
		c3.5,6.2,8,9.4,13.7,9.4c4.3,0,7.7-1.8,10.4-5.2c2.8-3.5,4.1-9.4,4.1-17.9c0-10.6-2.3-18.9-6.9-25
		C339.8,232.9,335.9,230.9,331.1,230.9z"/>
</g>
</svg>
