<?xml version="1.0" encoding="utf-8"?>
<!-- Generator: Adobe Illustrator 28.2.0, SVG Export Plug-In . SVG Version: 6.00 Build 0)  -->
<svg version="1.1" id="Layer_1" xmlns="http://www.w3.org/2000/svg" xmlns:xlink="http://www.w3.org/1999/xlink" x="0px" y="0px"
	 viewBox="0 0 512 512" style="enable-background:new 0 0 512 512;" xml:space="preserve">
<style type="text/css">
	.st0{fill:#FFFFFF;}
</style>
<g>
	<path class="st0" d="M474.7,191v130.3c0,1.2-0.7,2.2-1.5,2.7l-112.6,64.5c-1,0.5-2.2,0.5-3.1,0l-113.2-65c-1-0.5-1.5-1.5-1.5-2.7
		V206.4c0-1.2-0.7-2.2-1.5-2.7L210,185.8c-2.1-1.2-4.8,0.3-4.8,2.7v144.6c0,6.7,3.6,13,9.4,16.3l134.7,77.2c5.8,3.4,13,3.4,19,0
		l134.2-76.9c5.8-3.4,9.4-9.6,9.4-16.3V178.5c0-6.7-3.6-13-9.4-16.3L368.4,85.3c-5.8-3.4-13-3.4-19,0l-62.1,35.6
		c-2.1,1.2-2.1,4.3,0,5.5l31.2,17.8c1,0.5,2.2,0.5,3.1,0l35.8-20.5c1-0.5,2.2-0.5,3.1,0L473,188.2
		C474.2,188.7,474.7,189.8,474.7,191z"/>
	<ellipse class="st0" cx="422.3" cy="256.7" rx="21.2" ry="21.2"/>
	
		<ellipse transform="matrix(0.1891 -0.982 0.982 0.1891 35.4198 556.2612)" class="st0" cx="354.5" cy="256.7" rx="21.2" ry="21.2"/>
	<path class="st0" d="M37.3,321V190.8c0-1.2,0.7-2.2,1.5-2.7l112.6-64.5c1-0.5,2.2-0.5,3.1,0l113.2,65c1,0.5,1.5,1.5,1.5,2.7v114.3
		c0,1.2,0.7,2.2,1.5,2.7l31,17.8c2.1,1.2,4.8-0.3,4.8-2.7V178.8c0-6.7-3.6-13-9.4-16.3L162.5,85.3c-5.8-3.4-13-3.4-19,0L9.4,162
		c-5.8,3.4-9.4,9.6-9.4,16.3v155.1c0,6.7,3.6,13,9.4,16.3l134.2,76.9c5.8,3.4,13,3.4,19,0l62.1-35.6c2.1-1.2,2.1-4.3,0-5.5
		l-31.2-17.8c-1-0.5-2.2-0.5-3.1,0l-35.8,20.5c-1,0.5-2.2,0.5-3.1,0L39,323.6C37.8,323.3,37.3,322.2,37.3,321z"/>
	<ellipse class="st0" cx="89.7" cy="255.3" rx="21.2" ry="21.2"/>
	<ellipse class="st0" cx="157.5" cy="255.3" rx="21.2" ry="21.2"/>
</g>
</svg>
