<?xml version="1.0" encoding="utf-8"?>
<!-- Generator: Adobe Illustrator 27.7.0, SVG Export Plug-In . SVG Version: 6.00 Build 0)  -->
<svg version="1.1" id="Layer_1" xmlns="http://www.w3.org/2000/svg" xmlns:xlink="http://www.w3.org/1999/xlink" x="0px" y="0px"
	 viewBox="0 0 512 512" style="enable-background:new 0 0 512 512;" xml:space="preserve">
<style type="text/css">
	.st0{fill-rule:evenodd;clip-rule:evenodd;fill:url(#logoMark_PathItem__00000045577490900496129940000012982452605848746157_);}
	.st1{fill-rule:evenodd;clip-rule:evenodd;fill:url(#logoMark_PathItem_2_00000166640180915097224490000004132399367450938802_);}
	.st2{fill-rule:evenodd;clip-rule:evenodd;fill:url(#logoMark_PathItem_3_00000109026109305322684760000007279438576070586257_);}
	.st3{fill-rule:evenodd;clip-rule:evenodd;fill:url(#logoMark_PathItem_4_00000040561768050882724090000003618357845501111193_);}
</style>
<g id="logoMark">
	
		<linearGradient id="logoMark_PathItem__00000150090262556585654410000007041261387434558129_" gradientUnits="userSpaceOnUse" x1="-1080.7446" y1="76.917" x2="-1079.8452" y2="76.917" gradientTransform="matrix(-123.1042 -544.0433 611.0961 -138.2768 -179741.8438 -576860.875)">
		<stop  offset="0" style="stop-color:#F76237"/>
		<stop  offset="1" style="stop-color:#FF754F"/>
	</linearGradient>
	
		<path id="logoMark_PathItem_" style="fill-rule:evenodd;clip-rule:evenodd;fill:url(#logoMark_PathItem__00000150090262556585654410000007041261387434558129_);" d="
		M285.4,7.9l167.4,96.7c19.3,11.1,31.1,31.7,31.1,53.9v191.3c0,22.2-11.9,42.8-31.1,53.9L273,507.5c-10.5,6.1-23.4,6.1-33.9,0
		L59.2,403.6C40,392.5,28.1,372,28.1,349.7V158.4c0-22.2,11.9-42.8,31.1-53.9L226.6,7.9C244.8-2.6,267.2-2.6,285.4,7.9"/>
	
		<linearGradient id="logoMark_PathItem_2_00000083080484288000199030000000874309229538859419_" gradientUnits="userSpaceOnUse" x1="-1083.6285" y1="82.1202" x2="-1082.7288" y2="82.1202" gradientTransform="matrix(0 -164.4193 164.4193 0 -13245.6611 -177754.9531)">
		<stop  offset="0" style="stop-color:#FFFFFF;stop-opacity:0.5"/>
		<stop  offset="1" style="stop-color:#FFFFFF;stop-opacity:0.38"/>
	</linearGradient>
	
		<path id="logoMark_PathItem_2" style="fill-rule:evenodd;clip-rule:evenodd;fill:url(#logoMark_PathItem_2_00000083080484288000199030000000874309229538859419_);" d="
		M274.9,250.2l137.5,77c8,4.3,10.9,14.3,6.6,22.2c-1.5,2.8-3.8,5.1-6.6,6.6l-137.5,77c-11.4,6.4-25.3,6.4-36.7,0l-137.5-77
		c-8-4.3-10.9-14.3-6.6-22.2c1.5-2.8,3.8-5.1,6.6-6.6l137.5-77C249.5,243.8,263.4,243.8,274.9,250.2"/>
	
		<linearGradient id="logoMark_PathItem_3_00000037684394998014788790000010525016635011895707_" gradientUnits="userSpaceOnUse" x1="-1084.313" y1="82.9326" x2="-1083.4135" y2="82.9326" gradientTransform="matrix(-0.5376 -145.9384 145.9384 -0.5376 -12429.2529 -157876.6719)">
		<stop  offset="0" style="stop-color:#FFFFFF;stop-opacity:0.75"/>
		<stop  offset="1" style="stop-color:#FFFFFF;stop-opacity:0.56"/>
	</linearGradient>
	
		<path id="logoMark_PathItem_3" style="fill-rule:evenodd;clip-rule:evenodd;fill:url(#logoMark_PathItem_3_00000037684394998014788790000010525016635011895707_);" d="
		M274.9,164.6l137.5,77c7.9,4.3,10.9,14.3,6.6,22.2c-1.5,2.8-3.8,5.1-6.6,6.6l-137.5,77c-11.4,6.4-25.3,6.4-36.7,0l-137.5-77
		c-7.9-4.3-10.9-14.3-6.6-22.2c1.5-2.8,3.8-5.1,6.6-6.6l137.5-77C249.5,158.2,263.4,158.2,274.9,164.6"/>
	
		<linearGradient id="logoMark_PathItem_4_00000054256216080771845240000005475920833498638479_" gradientUnits="userSpaceOnUse" x1="-1084.3149" y1="82.8974" x2="-1083.4154" y2="82.8974" gradientTransform="matrix(0 -146.9314 146.9314 0 -11924.7139 -159084.0625)">
		<stop  offset="0" style="stop-color:#FFFFFF"/>
		<stop  offset="1" style="stop-color:#FFFFFF;stop-opacity:0.75"/>
	</linearGradient>
	
		<path id="logoMark_PathItem_4" style="fill-rule:evenodd;clip-rule:evenodd;fill:url(#logoMark_PathItem_4_00000054256216080771845240000005475920833498638479_);" d="
		M273.9,79l137.5,77c7.9,4.3,10.9,14.3,6.6,22.2c-1.5,2.8-3.8,5.1-6.6,6.6l-137.5,77c-11.4,6.4-25.3,6.4-36.7,0l-137.5-77
		c-7.9-4.3-10.9-14.3-6.6-22.2c1.5-2.8,3.8-5.1,6.6-6.6l137.5-77C248.6,72.6,262.5,72.6,273.9,79"/>
</g>
</svg>
