<?xml version="1.0" encoding="utf-8"?>
<!-- Generator: Adobe Illustrator 28.2.0, SVG Export Plug-In . SVG Version: 6.00 Build 0)  -->
<svg version="1.1" id="Layer_1" xmlns="http://www.w3.org/2000/svg" xmlns:xlink="http://www.w3.org/1999/xlink" x="0px" y="0px"
	 viewBox="0 0 512 512" style="enable-background:new 0 0 512 512;" xml:space="preserve">
<style type="text/css">
	.st0{fill:#00FF98;}
</style>
<g>
	<path class="st0" d="M109.2,472.9c3,4.9,8.2,7.6,9.5,13.8c1.8,8.8-0.8,17.4-8.5,22.4c-7.3,4.5-16.7,3.8-23.1-1.9
		c-11.9-11-23.4-22.3-35.2-33.4c-13.4-12.6-26.7-25.3-40.4-37.6c-7.7-6.8-9.1-18.3-3.3-26.7c5.8-8.4,17.3-11,25.8-5.8
		c3.5,2.1,6.7,4.5,9.7,7.3c2.8,2.6,4.1,2,5.9-1.1c5.7-9.8,8.5-20.7,13.9-30.6c3.6-6.6,6.3-13.8,9.5-20.5
		c9.9-20.4,18.7-41.3,28.5-61.7c11-22.9,20.6-46.5,31.5-69.6c6.9-14.6,13.1-29.6,20.2-44.1c9.9-20.4,18.4-41.4,28.3-61.8
		c7.3-15.1,13.2-30.7,20.9-45.5c1.9-3.7,2-6.1-1.2-9.1c-4.9-4.7-10.4-8.8-13-15.7c-3.7-9.6-1.3-19.5,6.9-24.7c8.8-5.6,19-4,26.3,3.4
		c10.5,10.7,21.6,21,32.4,31.4s21.6,21,32.5,31.4c10.3,9.8,20.7,19.4,30.9,29.2c10.6,10.2,21.2,20.4,31.7,30.6
		c10.6,10.2,21,20.1,31.5,30.1c8.2,7.9,16.5,15.7,24.8,23.5c10.9,10.4,21.9,20.7,32.8,31.1c10.5,10,20.8,20.2,31.2,30.3
		c5.9,5.7,11.8,11.5,18,16.9c9,7.6,10.2,21.2,2.5,30.2c-0.1,0.2-0.3,0.3-0.4,0.5c-7.6,8.5-20.9,8.6-29.8,0.4
		c-3.6-3.4-7.2-6.7-10.7-10.3c-1.8-2.1-4.8-2.6-7.2-1.2c-17.8,8.8-35.4,17.7-53.1,26.6c-19.2,9.7-38.4,19.4-57.6,29.1
		c-4.1,2.1-8,4.4-12.2,6.7c1.2,3.5,2.8,7,3.8,10.6c6.6,23.9,5.1,47.1-8.9,68c-7,10.4-15.3,20.4-26.8,26.4
		c-16.3,8.5-33.1,14.2-52.4,13.5c-25.4-0.9-48-9.6-70.4-19.5c-5.4-2.4-10-6.4-14.9-9.9c-1.8-1.3-3.7-2.8-5.7-1.3
		C133.1,462,119.9,464.4,109.2,472.9z M108.1,410.4c4.4,0.5,6.8-1.9,8.6-5.5c8.4-17.1,16.8-34.1,25.2-51.2
		c29.8-60.5,59.6-121.1,89.4-181.6c6-12.2,12.5-24.1,18-36.4c3.6-8-2-14.4-10.3-12.8c-3.8,0.7-5.4,3.6-6.9,6.7
		c-10.9,22.3-21.8,44.6-32.8,66.9c-29.5,59.7-59,119.4-88.5,179.1c-3.4,6.9-6.9,13.9-10.1,20.9C97.3,404.1,100.6,410.2,108.1,410.4
		L108.1,410.4z M191.5,430.6c2,3,4.7,2.2,6.7,3c18.5,7.3,37.4,10.2,57.2,6c16.2-3.4,27.2-15.2,29-31.7c0.8-7.6,0.1-15-3.9-22.3
		C250.8,400.6,221.3,415.6,191.5,430.6L191.5,430.6z"/>
	<path class="st0" d="M507.1,159.3c1.1,31.7-8.1,60.4-24.8,87.1c-2.4,3.8-4.6,4.2-7.9,1.2c-21.9-20.6-43.9-41.2-65.9-61.7
		c-3.4-3.2-4.5-6.2-3.4-10.7c3.9-14.7,0.8-29-4.9-42.3c-5.9-13.9-18-21.8-32.3-26c-12.6-3.7-25.3-4.6-37.9-0.1
		c-3.5,1.2-6.1-0.1-8.6-2.4L273,58.7c-5.3-4.9-10.6-9.8-15.9-14.6c-6-5.4-6-8.2,0.4-12.9c37.2-27.2,78.4-37,123.6-27.9
		C449,17,499.4,72.8,507.1,141.9C507.7,147.6,507.1,153.4,507.1,159.3z"/>
</g>
</svg>
