<?xml version="1.0" encoding="utf-8"?>
<!-- Generator: Adobe Illustrator 27.7.0, SVG Export Plug-In . SVG Version: 6.00 Build 0)  -->
<svg version="1.1"
	 id="svg8" xmlns:sodipodi="http://sodipodi.sourceforge.net/DTD/sodipodi-0.dtd" xmlns:cc="http://creativecommons.org/ns#" xmlns:dc="http://purl.org/dc/elements/1.1/" xmlns:svg="http://www.w3.org/2000/svg" xmlns:inkscape="http://www.inkscape.org/namespaces/inkscape" xmlns:rdf="http://www.w3.org/1999/02/22-rdf-syntax-ns#" inkscape:version="1.0 (4035a4fb49, 2020-05-01)" sodipodi:docname="logo.svg"
	 xmlns="http://www.w3.org/2000/svg" xmlns:xlink="http://www.w3.org/1999/xlink" x="0px" y="0px" viewBox="0 0 512 512"
	 style="enable-background:new 0 0 512 512;" xml:space="preserve">
<style type="text/css">
	.st0{fill:#1976D2;}
	.st1{fill:#FFFFFF;}
</style>
<defs>
	
		<inkscape:perspective  id="perspective849" inkscape:persp3d-origin="105.00001 : -161.00001 : 1" inkscape:vp_x="0 : -111.50001 : 1" inkscape:vp_y="0 : 1000 : 0" inkscape:vp_z="210.00001 : -111.50001 : 1" sodipodi:type="inkscape:persp3d">
		</inkscape:perspective>
</defs>
<sodipodi:namedview  bordercolor="#666666" borderopacity="1.0" fit-margin-bottom="0" fit-margin-left="0" fit-margin-right="0" fit-margin-top="0" id="base" inkscape:current-layer="layer1" inkscape:cx="326.03925" inkscape:cy="258.51411" inkscape:document-rotation="0" inkscape:document-units="mm" inkscape:pageopacity="0.0" inkscape:pageshadow="2" inkscape:window-height="1006" inkscape:window-maximized="1" inkscape:window-width="1920" inkscape:window-x="0" inkscape:window-y="0" inkscape:zoom="1.0881588" pagecolor="#ffffff" showgrid="false">
	</sodipodi:namedview>
<g id="layer1" inkscape:groupmode="layer" inkscape:label="Layer 1">
	<g id="g1004" transform="translate(-25.488287,-38.201908)">
		<path id="rect833" class="st0" d="M62.5,38.2h438.1c20.4,0,37,16.6,37,37v438.1c0,20.4-16.6,37-37,37H62.5c-20.4,0-37-16.6-37-37
			V75.2C25.5,54.8,42,38.2,62.5,38.2z"/>
		<g id="g891" transform="translate(3.4645061,4.860653)">
			
				<path id="path865" inkscape:flatsided="false" inkscape:randomized="0" inkscape:rounded="0.68" inkscape:transform-center-x="0.34675886" inkscape:transform-center-y="-0.34675666" sodipodi:arg1="0.78539816" sodipodi:arg2="1.4137167" sodipodi:cx="33.493382" sodipodi:cy="47.250233" sodipodi:r1="7.1731415" sodipodi:r2="2.5823307" sodipodi:sides="5" sodipodi:type="star" class="st1" d="
				M250.9,296c-35.3,35.3-15.3-42.7-64.6-34.9c-49.3,7.8-6.2,75.8-50.7,53.1c-44.5-22.7,35.9-27.7,13.2-72.2
				c-22.7-44.5-74,17.6-66.2-31.8c7.8-49.3,37.5,25.6,72.8-9.7c35.3-35.3-39.6-65,9.7-72.8c49.3-7.8-12.7,43.5,31.8,66.2
				c44.5,22.7,49.6-57.7,72.2-13.2s-45.3,1.3-53.1,50.7S286.2,260.7,250.9,296L250.9,296z"/>
			
				<path id="path865-3" inkscape:flatsided="false" inkscape:randomized="0" inkscape:rounded="0.68" inkscape:transform-center-x="0.091747509" inkscape:transform-center-y="-0.57136165" sodipodi:arg1="0.78539816" sodipodi:arg2="1.4137167" sodipodi:cx="41.696411" sodipodi:cy="57.182709" sodipodi:r1="7.1731415" sodipodi:r2="2.5823307" sodipodi:sides="5" sodipodi:type="star" class="st1" d="
				M351.7,444.1c-40.8,28.7-7.7-44.7-57.7-45.5s-19.1,73.6-59,43.7c-39.9-30,40.1-21.2,25.4-68.9c-14.7-47.7-75.9,4.6-59.8-42.6
				s32.5,31.6,73.4,2.9c40.8-28.7-27.8-70.8,22.1-70c49.9,0.8-20,40.7,19.9,70.7c39.9,30,58.7-48.4,73.4-0.6s-44.9-6.4-61,40.8
				C312.3,421.8,392.6,415.4,351.7,444.1L351.7,444.1z"/>
			
				<path id="path865-6" inkscape:flatsided="false" inkscape:randomized="0" inkscape:rounded="0.68" inkscape:transform-center-x="-5.0328104" inkscape:transform-center-y="0.91288036" sodipodi:arg1="0.78539816" sodipodi:arg2="1.4137167" sodipodi:cx="47.972931" sodipodi:cy="47.250233" sodipodi:r1="7.1731415" sodipodi:r2="2.5823307" sodipodi:sides="5" sodipodi:type="star" class="st1" d="
				M451.3,296c-35.3,35.3-15.3-42.7-64.6-34.9c-49.3,7.8-6.2,75.8-50.7,53.1c-44.5-22.7,35.9-27.7,13.2-72.2
				c-22.7-44.5-74,17.6-66.2-31.8c7.8-49.3,37.5,25.6,72.8-9.7c35.3-35.3-39.6-65,9.7-72.8c49.3-7.8-12.7,43.5,31.8,66.2
				c44.5,22.7,49.6-57.7,72.2-13.2c22.7,44.5-45.3,1.3-53.1,50.7C408.6,280.7,486.6,260.7,451.3,296L451.3,296z"/>
		</g>
	</g>
</g>
</svg>
