<?xml version="1.0" encoding="utf-8"?>
<!-- Generator: Adobe Illustrator 27.7.0, SVG Export Plug-In . SVG Version: 6.00 Build 0)  -->
<svg version="1.1"
	 id="svg8" xmlns:sodipodi="http://sodipodi.sourceforge.net/DTD/sodipodi-0.dtd" xmlns:cc="http://creativecommons.org/ns#" xmlns:dc="http://purl.org/dc/elements/1.1/" xmlns:svg="http://www.w3.org/2000/svg" xmlns:inkscape="http://www.inkscape.org/namespaces/inkscape" xmlns:rdf="http://www.w3.org/1999/02/22-rdf-syntax-ns#" inkscape:version="1.0 (4035a4fb49, 2020-05-01)" sodipodi:docname="logo.svg"
	 xmlns="http://www.w3.org/2000/svg" xmlns:xlink="http://www.w3.org/1999/xlink" x="0px" y="0px" viewBox="0 0 512 512"
	 style="enable-background:new 0 0 512 512;" xml:space="preserve">
<style type="text/css">
	.st0{fill:#FFFFFF;}
</style>
<path class="st0" d="M475,0H37C16.6,0,0,16.6,0,37V475c0,20.4,16.6,37,37,37H475c20.4,0,37-16.6,37-37V37C512,16.6,495.4,0,475,0z
	 M164.3,227.8c-49.3,7.8-6.2,75.8-50.7,53.1c-44.5-22.7,35.9-27.7,13.2-72.2c-22.7-44.5-74,17.6-66.2-31.8
	c7.8-49.3,37.5,25.6,72.8-9.7c35.3-35.3-39.6-65,9.7-72.8s-12.7,43.5,31.8,66.2c44.5,22.7,49.6-57.7,72.2-13.2
	c22.7,44.5-45.3,1.3-53.1,50.7s70.2,29.3,34.9,64.6v0C193.6,298,213.6,220,164.3,227.8z M306.4,341.2
	c-16.1,47.2,64.1,40.9,23.3,69.6l0,0c-40.8,28.7-7.7-44.7-57.7-45.5S253,439,213,409c-39.9-30,40.1-21.2,25.4-68.9
	s-75.9,4.6-59.8-42.6s32.5,31.6,73.4,2.9c40.8-28.7-27.8-70.8,22.1-70s-20,40.7,19.9,70.7c39.9,30,58.7-48.4,73.4-0.6
	C382.1,348.1,322.5,293.9,306.4,341.2z M394.4,198.1c-7.8,49.3,70.2,29.3,34.9,64.6v0C394,298,414,220,364.7,227.8
	s-6.2,75.8-50.7,53.1c-44.5-22.7,35.9-27.7,13.2-72.2c-22.7-44.5-74,17.6-66.2-31.8s37.5,25.6,72.8-9.7c35.3-35.3-39.6-65,9.7-72.8
	s-12.7,43.5,31.8,66.2c44.5,22.7,49.6-57.7,72.2-13.2C470.2,191.9,402.2,148.7,394.4,198.1z"/>
</svg>
