<?xml version="1.0" encoding="utf-8"?>
<!-- Generator: Adobe Illustrator 27.7.0, SVG Export Plug-In . SVG Version: 6.00 Build 0)  -->
<svg version="1.1" id="Layer_1" xmlns="http://www.w3.org/2000/svg" xmlns:xlink="http://www.w3.org/1999/xlink" x="0px" y="0px"
	 viewBox="0 0 512 512" style="enable-background:new 0 0 512 512;" xml:space="preserve">
<style type="text/css">
	.st0{fill:#FFFFFF;}
</style>
<g>
	<g>
		<path class="st0" d="M420,237.9h-19.4v53.2H420c15.4,0,24.8-10.3,24.8-27.1C444.8,246.4,436.6,237.9,420,237.9z"/>
		<path class="st0" d="M290.8,263.8c0,17,9.4,27.3,24.4,27.3h19v-53.2h-19C300,237.9,290.8,247.6,290.8,263.8z"/>
	</g>
	<g>
		<path class="st0" d="M227.4,219.9l-26.6,63.9l-24.2-63.9h-52.6l0-34.3H97.7v34.3H81.1v19.8h16.6v38.1c-0.8,24,8.6,34.7,30.3,34.9
			h20.2v-19.8h-10.4c-11.7-0.6-14.3-4-13.9-19.4v-33.7h32.2l29.8,73h28.2l41.1-92.8H227.4z"/>
		<path class="st0" d="M413.9,0H98.1C43.9,0,0,43.9,0,98.1v315.9C0,468.1,43.9,512,98.1,512h315.9c54.2,0,98.1-43.9,98.1-98.1V98.1
			C512,43.9,468.1,0,413.9,0z M281,327.7c0,10.5-7.1,20.1-16,21.4L88.7,373.2c-15.2,2.2-28.1-7.6-28.1-21.9L38.2,160.7
			c0-14.3,12.9-24.1,28.1-21.9L265,164.8c8.9,1.3,16,10.9,16,21.4v27.1c-16.7,11.2-27.7,30-27.7,51.2c0,21.5,10.7,40.1,27.7,51.2
			V327.7z M360.4,310.9h-45.2c-18.4,0-27.2-2.7-36.6-10.9c-9.6-8.6-14.5-20.8-14.5-36.2c0-16,5.3-28.2,16.4-37.2
			c7-5.7,16.6-8.6,28.9-8.6h24.6l0-34.3h26.2V310.9z M450.6,304c-8.8,5.3-16.4,6.9-33.6,6.9h-42.6V183.7h26.2V218h23.3
			c17,0,28.3,4.2,36.9,13.7c7,7.6,10.7,18.9,10.7,31.5C471.6,281.5,464.1,295.8,450.6,304z"/>
	</g>
</g>
</svg>
