<?xml version="1.0" encoding="utf-8"?>
<!-- Generator: Adobe Illustrator 27.7.0, SVG Export Plug-In . SVG Version: 6.00 Build 0)  -->
<svg version="1.1" id="Layer_1" xmlns="http://www.w3.org/2000/svg" xmlns:xlink="http://www.w3.org/1999/xlink" x="0px" y="0px"
	 viewBox="0 0 512 512" style="enable-background:new 0 0 512 512;" xml:space="preserve">
<style type="text/css">
	.st0{fill:#EB0505;}
</style>
<g transform="translate(0.000000,141.000000) scale(0.100000,-0.100000)">
	<path class="st0" d="M2175.6,938.2c-3.7-626.9-81.6-945.9-382.1-1524.6c-111.3-215.1-267.1-519.3-348.7-671.4
		C1251.9-1625,1174-2059,1229.7-2426.3c144.7-979.3,1012.7-1539.4,1810.2-1168.5c582.4,270.8,864.3,760.4,868,1502.3
		c0,563.8-230,1313.2-504.5,1632.2L3310.7-349l-3.7-485.9c0-793.8-92.7-1075.7-322.7-997.8c-148.4,55.6-166.9,189.2-100.2,741.9
		c133.5,1072-14.8,1843.6-437.7,2307.3C2171.9,1509.5,2175.6,1509.5,2175.6,938.2z"/>
</g>
</svg>
