<?xml version="1.0" encoding="utf-8"?>
<!-- Generator: Adobe Illustrator 27.7.0, SVG Export Plug-In . SVG Version: 6.00 Build 0)  -->
<svg version="1.1" id="Calque_1" xmlns="http://www.w3.org/2000/svg" xmlns:xlink="http://www.w3.org/1999/xlink" x="0px" y="0px"
	 viewBox="0 0 512 512" style="enable-background:new 0 0 512 512;" xml:space="preserve">
<style type="text/css">
	.st0{fill:#FFFFFF;}
</style>
<g>
	<polygon class="st0" points="269.6,28.4 228.6,96.4 202.7,139.5 316.4,139.5 355.9,73.9 383.3,28.4 	"/>
	<polygon class="st0" points="455.1,139.5 373.2,139.5 202.7,139.5 259.6,238 316.3,238 457.2,238 512,238 	"/>
	<polygon class="st0" points="273.9,264.9 232.9,335.9 147.6,483.6 261.4,483.6 289.8,434.4 360.3,312.4 387.6,264.9 	"/>
	<polygon class="st0" points="243.4,263.9 202.5,193 117.2,45.3 60.3,143.8 88.7,193 159.1,315 186.5,362.4 	"/>
	<polygon class="st0" points="129.6,263.9 50.3,262.4 0,261.5 56.9,360 133.5,361.4 186.5,362.4 	"/>
	<polygon class="st0" points="330.8,363.5 369.2,432.9 393.5,476.9 450.4,378.4 413.3,311.4 387.7,264.9 	"/>
</g>
</svg>
