<?xml version="1.0" encoding="utf-8"?>
<!-- Generator: Adobe Illustrator 28.2.0, SVG Export Plug-In . SVG Version: 6.00 Build 0)  -->
<svg version="1.1" id="Layer_1" xmlns="http://www.w3.org/2000/svg" xmlns:xlink="http://www.w3.org/1999/xlink" x="0px" y="0px"
	 viewBox="0 0 512 512" style="enable-background:new 0 0 512 512;" xml:space="preserve">
<style type="text/css">
	.st0{fill:#FFFFFF;}
</style>
<g>
	<path class="st0" d="M418.9,142.9c8.3-16.6,7.2-27.2-3-28.7c-4.5-0.6-6.5,1.3-10.3,10.1c-7,16.4-8.7,26.5-5.1,30.9
		C405.9,161.7,411.3,158,418.9,142.9z"/>
	<path class="st0" d="M224.7,341.1c-10,0-20.5,23.6-14,31.4c3.5,4.2,5,4.3,13.2,1.2c9-3.4,13.5-18.2,8.1-26.5
		C229.7,343.9,226.4,341.1,224.7,341.1z"/>
	<path class="st0" d="M472,0H40C17.9,0,0,17.9,0,40v432c0,22.1,17.9,40,40,40h432c22.1,0,40-17.9,40-40V40C512,17.9,494.1,0,472,0z
		 M376.6,90.4c3.5-4.5,6.3-9.5,6.3-11s5-6.2,11.1-10.4c14.2-9.8,27.4-10.2,40.5-1.3c18.4,12.5,21.1,22.1,21.8,78.6
		c0.3,21.8-0.2,24.7-6.7,35.7c-3.9,6.6-9.5,12.9-12.6,14.1c-3,1.2-6.9,3.8-8.6,5.8c-3.7,4.4-26.9,5.4-34.2,1.4h0
		c-23.3-12.6-31.2-24.2-33.1-48.2C359.6,136,367.7,102,376.6,90.4z M247.6,199.5c7.5-29.7,8.9-65.1,3.9-95.4
		c-1.6-9.7-1.1-11.5,4.2-15.6c3.3-2.5,8.4-4.6,11.3-4.7c7.1-0.1,23.4,18,30.5,33.7c10.4,23,14.1,29.5,16.4,28.5
		c1.2-0.6,2.5-17.9,2.9-38.5c0.6-33.1,1.3-38.7,6.2-48.1c3-5.8,7.1-10.6,9-10.6s6.6,4.8,10.3,10.6c3.8,5.8,7.9,11.4,9.2,12.3
		c1.3,0.9,1.9,13.8,1.3,28.7c-0.5,14.9-0.8,36.6-0.6,48.3c1.2,70.1,0.8,74.1-7.6,77.3c-8,3-20.5-3.1-35.7-17.4
		c-7.2-6.8-14.1-12.4-15.3-12.4c-1.2,0-4.2,6.5-6.7,14.4c-7.2,23.1-8.6,23.8-26.8,14.3h0C246.7,217.9,244.2,212.9,247.6,199.5z
		 M143.4,102.3c1.5-6,4.1-11,5.6-11c4.8,0,21.2,12.2,24.4,18.2c1.8,3.3,3.2,17.8,3.5,35.3c0.4,25.6,1.1,30,4.9,32.2
		c3.4,1.9,5.3,1.4,7.8-2.1c1.8-2.5,3.4-6.3,3.4-8.5c0-2.1,2.8-12.6,6.2-23.3c3.4-10.7,6.3-24.7,6.5-31.2c0.5-24.9,6-30.4,19.1-19.4
		c15.3,12.9,16.1,41.9,2.7,98.8c-5.3,22.7-10.7,30.5-26.3,38.4c-9.6,4.8-16.9,5-27.1,0.5l0,0c-11.6-5.1-27.6-24.7-31.1-38.3
		C139.3,177.4,139.5,117.8,143.4,102.3z M29.5,54.8c9.9-6.5,20.7-2.1,30.3,12.2c6.4,9.5,8.2,15.3,9.7,30.5
		c1.8,19.7,5.1,25.3,13.4,22.7c4.9-1.6,19.2-16.3,24.2-25.1c2.6-4.5,3.2-4.4,14.2,2.1c8.3,4.9,12.3,9.2,14.4,15.5
		c2.6,7.9,2.2,10-3.5,19.7c-3.5,6-10.6,14.6-15.8,19.2c-5.2,4.6-9.6,10.6-9.8,13.5c-1.2,21.2-6.5,83.2-7.3,85.7
		c-1.5,4.6-6.9,3.8-16.4-2.5l0,0c-4.8-3.2-11.2-11.1-14.7-18.1c-5.7-11.4-6.2-14.9-5.6-39.7l0.7-27.2l-15-14.4
		c-8.3-7.9-15-14.9-15-15.4c0-0.5-2.2-11.5-5-24.4c-2.7-12.9-5-29.3-5-36.6C23.2,60.8,24.1,58.4,29.5,54.8z M161.1,438.1
		c-3.3,0.5-8.8-1.8-13.3-5.6c-4.2-3.5-8.5-6.4-9.6-6.4c-1.1,0-5.1-4.5-8.9-10c-6.6-9.6-14.2-12.8-17.5-7.5
		c-0.8,1.4-6.6,3.8-12.9,5.4c-10.9,2.7-11.3,3.1-9.9,10.6c4.1,22.2,4.1,31,0.2,35c-5.4,5.4-13.2,4.8-23-1.8l0,0
		c-4.5-3-10.5-10-13.4-15.5c-5.6-10.6-16.5-22.2-27.6-29.3c-7.7-4.9-11.9-19.7-7.2-25.3c1.6-1.9,8.1-4.8,14.6-6.6
		c6.5-1.7,12.9-4.1,14.2-5.3s2.5-9.7,2.7-19c0.9-56.7,1.3-58.1,18.7-58.1c20.6,0,34.5,24.6,27.7,48.9c-4.8,17.3-3.8,21,5.4,21
		c14.1-0.1,14.8-1.7,15.5-32.7c1-46.9,11.2-61.8,34.8-50.5c14.9,7.1,17.1,26.5,6.9,60.8c-3.3,11.2,3.3,57.8,10.2,71.9
		C172.6,425.9,168.4,437,161.1,438.1z M271.4,386.4c-5,10.7-11.6,21.8-14.7,24.7c-7.3,6.8-27.4,11.9-39.1,9.9
		c-12-2.1-29.4-15.5-39.9-30.9c-7.5-10.9-8.3-13.9-8.2-28.7c0.2-19.2,6.2-41.6,13.7-51.1c5.9-7.5,24-16.6,33.1-16.6
		c5.5,0,18.3,4.7,37.9,13.9c16.9,8,19.8,12.9,23.6,39.7l2.7,19.7L271.4,386.4z M488.2,315.2c-4.6,3.1-19.5,9.3-33.1,13.6
		c-19.6,6.2-24.8,8.9-24.8,12.5c0,2.5,1.3,15.8,2.8,29.6c3.2,28.3,1.2,37.5-9.4,42.3c-9.3,4.2-11.7,3.6-20.5-5.5
		c-10.2-10.6-13.4-21.7-11.4-40.1c1.9-17,0.8-18.3-14.8-17l-11.1,0.9l3.6,10.4c2.3,6.7,3.1,15.3,2.3,24.1
		c-1.1,11.6-2.6,14.8-9.6,20.8c-20.7,17.8-32.6,22.3-43.1,16.1l0,0c-5.4-3.1-16-14.9-20.6-23c-1.7-2.9-3.1-10.7-3.1-17.3
		c-0.1-17.7,7.3-28.8,11.1-16.7c3.7,11.5,17.2,16.7,23.6,9c5.1-6.2-3.5-20.7-24.8-41.7c-19.2-18.9-20-20.2-20-31.1
		c0-16.9,4.8-23.9,22.2-32.2c14.4-6.9,15.7-7.1,25.8-3.8c13.8,4.4,30.1,20.1,29,27.9c-0.7,4.9-2.3,5.7-10.8,5.7
		c-5.5,0-11.4,0.9-13.1,2c-5.1,3.3-3.6,10.9,3.1,15.2c6.2,4,6.2,4,6.2-3c0-6.9,0.7-7.2,21.9-11.9l21.9-4.8l1.8-19.7
		c3-33.1,12.6-39.6,31.4-21.5c5.8,5.5,10.7,11.4,10.9,13.1c0.2,1.7,0.5,4.7,0.6,6.8c0.2,3.1,4,3.6,21.8,2.9
		c20.7-0.8,21.8-0.6,29.3,6.2c5.3,4.9,8,9.8,8.4,15.7C496.4,308.2,495.2,310.4,488.2,315.2z"/>
</g>
</svg>
