<?xml version="1.0" encoding="utf-8"?>
<!-- Generator: Adobe Illustrator 28.2.0, SVG Export Plug-In . SVG Version: 6.00 Build 0)  -->
<svg version="1.1" id="Layer_1" xmlns="http://www.w3.org/2000/svg" xmlns:xlink="http://www.w3.org/1999/xlink" x="0px" y="0px"
	 viewBox="0 0 512 512" style="enable-background:new 0 0 512 512;" xml:space="preserve">
<style type="text/css">
	.st0{fill-rule:evenodd;clip-rule:evenodd;fill:#FFB441;}
	.st1{fill-rule:evenodd;clip-rule:evenodd;}
</style>
<g>
	<path class="st0" d="M0.3,85.3C0.3,38.2,38.5,0,85.5,0h340.9c47.1,0,85.2,38.2,85.2,85.3v341.3c0,47.1-38.2,85.3-85.2,85.3H85.5
		c-47.1,0-85.2-38.2-85.2-85.3V85.3z"/>
	<path class="st1" d="M440.8,60.5H71.2c-6.7,0-12.1,5.4-12.1,12.1c0,6.7,5.4,12.1,12.1,12.1h173.4c-0.4,1.3-0.7,2.6-0.7,4v38.5
		c-65.7,6.1-117.1,61.4-117.1,128.8s51.4,122.7,117.1,128.8v54.6c0,6.7,5.4,12.1,12.1,12.1c6.7,0,12.1-5.4,12.1-12.1v-54.6
		c65.7-6.1,117.1-61.4,117.1-128.8s-51.4-122.7-117.1-128.8V88.8c0-1.4-0.3-2.8-0.7-4h173.4c6.7,0,12.1-5.4,12.1-12.1
		C452.9,65.9,447.5,60.5,440.8,60.5L440.8,60.5z M151.7,256c0-53.5,40.3-97.7,92.2-103.7v207.3C192,353.7,151.7,309.6,151.7,256
		L151.7,256z M360.3,256c0,53.5-40.3,97.7-92.2,103.7V152.3C320,158.4,360.3,202.5,360.3,256z"/>
</g>
</svg>
