<?xml version="1.0" encoding="utf-8"?>
<!-- Generator: Adobe Illustrator 28.2.0, SVG Export Plug-In . SVG Version: 6.00 Build 0)  -->
<svg version="1.1" id="Layer_1" xmlns="http://www.w3.org/2000/svg" xmlns:xlink="http://www.w3.org/1999/xlink" x="0px" y="0px"
	 viewBox="0 0 512 512" style="enable-background:new 0 0 512 512;" xml:space="preserve">
<style type="text/css">
	.st0{fill-rule:evenodd;clip-rule:evenodd;fill:#FFFFFF;}
</style>
<g>
	<path class="st0" d="M360.3,256c0-53.6-40.3-97.7-92.2-103.7v207.3C320,353.7,360.3,309.5,360.3,256z"/>
	<path class="st0" d="M151.7,256L151.7,256c0,53.6,40.3,97.7,92.2,103.7V152.3C192,158.4,151.7,202.5,151.7,256z"/>
	<path class="st0" d="M426.5,0H85.5C38.5,0,0.3,38.2,0.3,85.3v341.3c0,47.1,38.2,85.3,85.2,85.3h340.9c47.1,0,85.2-38.2,85.2-85.3
		V85.3C511.7,38.2,473.5,0,426.5,0z M440.8,84.7H267.4c0.4,1.3,0.7,2.6,0.7,4v38.5c65.7,6.1,117.1,61.4,117.1,128.8
		s-51.4,122.7-117.1,128.8v54.6c0,6.7-5.4,12.1-12.1,12.1c-6.7,0-12.1-5.4-12.1-12.1v-54.6c-65.7-6.1-117.1-61.4-117.1-128.8
		s51.4-122.7,117.1-128.8V88.8c0-1.4,0.3-2.8,0.7-4H71.2c-6.7,0-12.1-5.4-12.1-12.1c0-6.7,5.4-12.1,12.1-12.1h369.6h0
		c6.7,0,12.1,5.4,12.1,12.1C452.9,79.3,447.5,84.7,440.8,84.7z"/>
</g>
</svg>
