<svg xmlns="http://www.w3.org/2000/svg" xmlns:xlink="http://www.w3.org/1999/xlink" width="34.66mm" height="112.592" viewBox="0 0 34.66 29.79">
    <title>IBM AIX logo</title>
    <desc>
        A series of proprietary Unix operating systems developed and sold by IBM
    </desc>
    <defs>
        <linearGradient id="a" x1=".152" x2=".547" y1="-.587" y2="-.4" gradientTransform="rotate(-45 96.45 -4.61)scale(99.2)" gradientUnits="userSpaceOnUse">
            <stop offset="0" style="stop-color:#6fdc8c"/>
            <stop offset=".305" style="stop-color:#6fdc8c"/>
            <stop offset=".928" style="stop-color:#009d9a"/>
            <stop offset="1" style="stop-color:#009d9a"/>
        </linearGradient>
        <linearGradient xlink:href="#a" id="c" x1=".152" x2=".547" y1="-.587" y2="-.4" gradientTransform="rotate(-45 96.45 -4.61)scale(99.2)" gradientUnits="userSpaceOnUse"/>
        <linearGradient xlink:href="#a" id="d" x1=".152" x2=".547" y1="-.587" y2="-.4" gradientTransform="rotate(-45 96.45 -4.61)scale(99.2)" gradientUnits="userSpaceOnUse"/>
        <linearGradient xlink:href="#a" id="e" x1=".152" x2=".547" y1="-.587" y2="-.4" gradientTransform="rotate(-45 96.45 -4.61)scale(99.2)" gradientUnits="userSpaceOnUse"/>
        <linearGradient xlink:href="#a" id="b" x1=".152" x2=".547" y1="-.587" y2="-.4" gradientTransform="rotate(-45 96.45 -4.61)scale(99.2)" gradientUnits="userSpaceOnUse"/>
    </defs>
    <g style="fill:url(#b);stroke-width:.7367" transform="matrix(.9808 0 0 .9924 -.956 6.598)">
        <path d="m10.91 14.79-.982-3.261H5.35l-.983 3.261H1.342l4.52-13.71h3.692l4.46 13.71zm-3.242-11H7.57L6.057 8.996H9.2z" style="fill:url(#c);stroke-width:.7367"/>
        <path d="M15.39 14.79v-2.377h1.768V3.454H15.39V1.077h6.522v2.377h-1.768v8.959h1.768v2.377z" style="fill:url(#d);stroke-width:.7367"/>
        <path d="M35.8 14.79h-3.458l-2.967-5.049h-.059l-2.888 5.049h-3.222l4.401-7.092-4.185-6.621H26.9l2.672 4.636h.059l2.711-4.636h3.222l-4.224 6.68z" style="fill:url(#e);stroke-width:.7367"/>
    </g>
</svg>
