<?xml version="1.0" encoding="utf-8"?>
<!-- Generator: Adobe Illustrator 27.7.0, SVG Export Plug-In . SVG Version: 6.00 Build 0)  -->
<svg version="1.1" id="Layer_1" xmlns="http://www.w3.org/2000/svg" xmlns:xlink="http://www.w3.org/1999/xlink" x="0px" y="0px"
	 viewBox="0 0 512 512" style="enable-background:new 0 0 512 512;" xml:space="preserve">
<style type="text/css">
	.st0{fill:#FFFFFF;}
</style>
<g>
	<path class="st0" d="M489.4,226.7L278.6,16c-12.4-12.4-32.8-12.4-45.2,0L22.6,226.7C10.2,239.1,0,263.7,0,281.3v192
		c0,17.6,14.4,32,32,32h196.8l-86.7-86.7c-4.5,1.5-9.2,2.4-14.2,2.4c-24.1,0-43.7-19.6-43.7-43.7s19.6-43.7,43.7-43.7
		s43.7,19.6,43.7,43.7c0,5-0.9,9.7-2.4,14.2l67.5,67.5V211.8c-14.5-7.1-24.5-22-24.5-39.2c0-24.1,19.6-43.7,43.7-43.7
		s43.7,19.6,43.7,43.7c0,17.2-10,32.1-24.5,39.2v173.4l67.1-67.1c-1.3-4.2-2-8.6-2-13.2c0-24.1,19.6-43.7,43.7-43.7
		s43.7,19.6,43.7,43.7s-19.6,43.7-43.7,43.7c-5.3,0-10.4-1-15.1-2.8l-93.7,93.7v65.9H480c17.6,0,32-14.4,32-32v-192
		C512,263.8,501.8,239.2,489.4,226.7L489.4,226.7z"/>
</g>
</svg>
