<?xml version="1.0" encoding="UTF-8" standalone="no"?>
<!-- Created with Inkscape (http://www.inkscape.org/) -->

<svg
   version="1.1"
   viewBox="0 0 155.94 130"
   id="svg3"
   width="155.94"
   height="130"
   xmlns="http://www.w3.org/2000/svg"
   xmlns:svg="http://www.w3.org/2000/svg">
  <defs
     id="defs3" />
  <g
     transform="translate(-0.65,22.250527)"
     fill="#005395"
     id="g3">
    <g
       transform="matrix(2.6091,0,-0.62919,2.3482,82.643,58.54)"
       id="g1">
      <path
         d="m 12.125,-5.875 c 0,2 -0.47656,3.5391 -1.4219,4.6094 C 9.75388,-0.2031 8.3906,0.3282 6.6093,0.3282 4.8671,0.3282 3.5155,-0.21868 2.5468,-1.3124 1.58586,-2.4062 1.1093,-3.9257 1.1093,-5.8749 v -9.2344 h 3.0469 v 9.75 c 0,0.98047 0.20703,1.7188 0.625,2.2188 0.41406,0.5 1.0234,0.75 1.8281,0.75 0.84375,0 1.4609,-0.24219 1.8594,-0.73438 0.40625,-0.48828 0.60938,-1.2344 0.60938,-2.2344 v -9.75 h 3.0469 z"
         fill="#005395"
         id="path1" />
    </g>
    <g
       transform="matrix(2.3482,0,-0.62919,2.3482,118.21,58.54)"
       id="g2">
      <path
         d="m 12.453,0 h -3.5 L 6.2342,-5.3281 3.4998,0 H 0.0467 l 4.4688,-7.9219 -4.3594,-7.1875 h 3.4688 l 2.6719,4.9062 2.5625,-4.9062 h 3.4375 l -4.2969,7.1875 z"
         fill="#005395"
         id="path2" />
    </g>
    <path
       d="m 40.93,0.36 c -0.60634,0 -1.2119,0.018227 -1.8124,0.041539 l -8.238,22.644 h 7.1755 c 4.2677,0 6.5706,3.2875 5.1072,7.3044 l -10.162,27.921 H 24.465 l 10.91,-29.933 h -6.4146 l -10.907,29.933 H 9.5181 l 12.82,-35.226 h 0.0066 l 7.7132,-21.198 c -16.966,4.7457 -29.408,20.312 -29.408,38.787 0,19.024 13.194,34.963 30.93,39.179 l 7.4728,-20.534 h 0.0066 l 13.181,-36.234 h 15.72 c 4.2735,0 6.5691,3.2875 5.1116,7.3044 l -8.9311,24.528 c -0.67627,1.8656 -2.8633,3.3931 -4.8514,3.3931 h -11.327 l -8.2314,22.626 c 0.40228,0.0058 0.798,0.01312 1.2003,0.01312 22.242,0 40.274,-18.034 40.274,-40.276 0,-22.242 -18.032,-40.274 -40.274,-40.274 z M 58.49,28.006 49.5108,52.65 h 6.4146 l 8.977,-24.644 z"
       id="path3" />
  </g>
</svg>
