<?xml version="1.0" encoding="utf-8"?>
<!-- Generator: Adobe Illustrator 27.7.0, SVG Export Plug-In . SVG Version: 6.00 Build 0)  -->
<svg version="1.1" id="Layer_1" xmlns="http://www.w3.org/2000/svg" xmlns:xlink="http://www.w3.org/1999/xlink" x="0px" y="0px"
	 viewBox="0 0 512 512" style="enable-background:new 0 0 512 512;" xml:space="preserve">
<style type="text/css">
	.st0{clip-path:url(#SVGID_00000051367353396114045590000005546834872936750726_);}
	.st1{fill:#75BD21;}
	.st2{fill:#FFC728;}
	.st3{fill:#FF661C;}
	.st4{fill:#CF0F2B;}
	.st5{fill:#B01CAB;}
	.st6{fill:#00A1DE;}
</style>
<g>
	<g>
		<defs>
			<path id="SVGID_1_" d="M352.6,0c-27.5,1.9-59.5,19.3-78.3,42.1c-17,20.6-31.1,51.3-25.6,81.1c30,0.9,61-17,78.9-40
				C344.4,61.6,357.2,31.1,352.6,0L352.6,0z M362.7,119.8c-46.3,0-65.8,22-97.9,22c-33.1,0-58.2-21.9-98.2-21.9
				c-39.3,0-81,23.9-107.5,64.6c-0.2,0.2-0.3,0.5-0.5,0.8c-11.3,17.7-18.5,40.1-21.3,65.3c-2.3,20.3-1.7,42.4,1.9,65.4
				c3.3,21.3,9.3,43.4,18,65.4c8.1,20.4,18.5,40.8,31.4,60.5c1.1,1.6,2.2,3.3,3.3,4.9c21.2,31.5,49,65,84.9,65.3
				c33.5,0.3,43-21.4,88.5-21.6c45.5-0.2,54.1,21.9,87.6,21.6c34.4-0.3,62.7-34.3,83.8-65.3c2.1-3,4.1-6,6-8.9
				c14.3-21.8,20.3-33.6,30.6-56.4c0.8-1.8,1.7-3.7,2.6-5.7c-30.2-11.4-51.6-33.6-63.1-59.6c-9.1-20.5-12.1-43.4-8.5-65.4
				c4-24.4,16.1-47.6,36.9-65.3c5.9-5,12.4-9.5,19.7-13.5C434.7,138.9,397.6,119.8,362.7,119.8L362.7,119.8z"/>
		</defs>
		<clipPath id="SVGID_00000163767061352462777960000005985321514039653813_">
			<use xlink:href="#SVGID_1_"  style="overflow:visible;"/>
		</clipPath>
		
			<g transform="matrix(.61862 0 0 1 -28.722 -50.793)" style="clip-path:url(#SVGID_00000163767061352462777960000005985321514039653813_);">
			<g>
				<rect x="-0.9" y="-14.5" class="st1" width="922.4" height="315.9"/>
				<rect x="-0.9" y="236.1" class="st2" width="922.4" height="130.7"/>
				<rect x="-0.9" y="301.4" class="st3" width="922.4" height="130.7"/>
				<rect x="-0.9" y="366.8" class="st4" width="922.4" height="130.7"/>
				<rect x="-0.9" y="432.1" class="st5" width="922.4" height="130.6"/>
				<rect x="-0.9" y="497.5" class="st6" width="922.4" height="130.6"/>
			</g>
		</g>
	</g>
</g>
</svg>
