<?xml version="1.0" encoding="utf-8"?>
<!-- Generator: Adobe Illustrator 27.7.0, SVG Export Plug-In . SVG Version: 6.00 Build 0)  -->
<svg version="1.1" id="Layer_1" xmlns="http://www.w3.org/2000/svg" xmlns:xlink="http://www.w3.org/1999/xlink" x="0px" y="0px"
	 viewBox="0 0 512 512" style="enable-background:new 0 0 512 512;" xml:space="preserve">
<style type="text/css">
	.st0{fill:#FFFFFF;}
	.st1{fill-rule:evenodd;clip-rule:evenodd;fill:#FFFFFF;}
	.st2{fill:none;stroke:#FFFFFF;stroke-width:50;}
	.st3{fill:none;stroke:#FFFFFF;stroke-width:25;}
</style>
<g>
	<path class="st0" d="M193,224.9c0-7,5.6-12.6,12.6-12.6s12.6,5.6,12.6,12.6v214c0,7-5.6,12.6-12.6,12.6s-12.6-5.6-12.6-12.6V224.9z
		"/>
	<path class="st0" d="M161.6,283.6c0-7,5.6-12.6,12.6-12.6c7,0,12.6,5.6,12.6,12.6v96.5c0,7-5.6,12.6-12.6,12.6
		c-7,0-12.6-5.6-12.6-12.6V283.6z"/>
	<path class="st0" d="M130.1,325.6c0-7,5.6-12.6,12.6-12.6c7,0,12.6,5.6,12.6,12.6v16.8c0,7-5.6,12.6-12.6,12.6
		c-7,0-12.6-5.6-12.6-12.6V325.6z"/>
	<path class="st0" d="M224.5,266.8c0-7,5.6-12.6,12.6-12.6c7,0,12.6,5.6,12.6,12.6v134.3c0,7-5.6,12.6-12.6,12.6
		c-7,0-12.6-5.6-12.6-12.6V266.8z"/>
	<path class="st0" d="M256,304.6c0-7,5.6-12.6,12.6-12.6c7,0,12.6,5.6,12.6,12.6v54.6c0,7-5.6,12.6-12.6,12.6
		c-7,0-12.6-5.6-12.6-12.6V304.6z"/>
	<path class="st0" d="M287.5,266.8c0-7,5.6-12.6,12.6-12.6s12.6,5.6,12.6,12.6v134.3c0,7-5.6,12.6-12.6,12.6s-12.6-5.6-12.6-12.6
		V266.8z"/>
	<path class="st0" d="M319,296.2c0-7,5.6-12.6,12.6-12.6s12.6,5.6,12.6,12.6v71.3c0,7-5.6,12.6-12.6,12.6s-12.6-5.6-12.6-12.6V296.2
		z"/>
	<path class="st0" d="M350.4,325.6c0-7,5.6-12.6,12.6-12.6s12.6,5.6,12.6,12.6v16.8c0,7-5.6,12.6-12.6,12.6s-12.6-5.6-12.6-12.6
		V325.6z"/>
	<path class="st1" d="M0,331.9c0,59.4,35,109.9,83.9,128.6V203.3C35,222,0,272.5,0,331.9z"/>
	<path class="st1" d="M419.7,463.4c53.2-15.9,92.3-68.8,92.3-131.5s-39.1-115.6-92.3-131.5V463.4z"/>
	<path class="st2" d="M440.7,424.2V195.5c0-81.1-84.6-146.9-188.9-146.9S63,114.4,63,195.5v228.7"/>
	<path class="st3" d="M104.9,459.9v-256"/>
	<path class="st3" d="M398.7,459.9v-256"/>
</g>
</svg>
