<?xml version="1.0" encoding="utf-8"?>
<!-- Generator: Adobe Illustrator 27.7.0, SVG Export Plug-In . SVG Version: 6.00 Build 0)  -->
<svg version="1.1" id="Layer_1" xmlns="http://www.w3.org/2000/svg" xmlns:xlink="http://www.w3.org/1999/xlink" x="0px" y="0px"
	 viewBox="0 0 512 512" style="enable-background:new 0 0 512 512;" xml:space="preserve">
<style type="text/css">
	.st0{fill:url(#SVGID_1_);}
	.st1{fill:url(#SVGID_00000035523296362603588580000016090868442650400938_);}
	.st2{fill:url(#SVGID_00000016048805516175307000000006021199076072855436_);}
	.st3{fill:url(#SVGID_00000117675743652209596630000003675816820500433328_);}
	.st4{fill:url(#SVGID_00000003084845783732557460000003134174061379248516_);}
	.st5{fill:url(#SVGID_00000091709559213415992550000001183985953319046562_);}
	.st6{fill:url(#SVGID_00000035522526437852126740000014774241113152316560_);}
	.st7{fill:url(#SVGID_00000134969672498549093630000001893459368696555397_);}
	.st8{fill-rule:evenodd;clip-rule:evenodd;fill:#2B29CE;}
	.st9{fill:none;stroke:#2B29CE;stroke-width:50;}
	.st10{fill:none;stroke:#2B29CE;stroke-width:25;}
</style>
<g>
	
		<linearGradient id="SVGID_1_" gradientUnits="userSpaceOnUse" x1="205.6393" y1="299.7122" x2="205.6393" y2="60.4991" gradientTransform="matrix(1 0 0 -1 0 512)">
		<stop  offset="0" style="stop-color:#F94807"/>
		<stop  offset="1" style="stop-color:#FAC522"/>
	</linearGradient>
	<path class="st0" d="M193,224.9c0-7,5.6-12.6,12.6-12.6s12.6,5.6,12.6,12.6v214c0,7-5.6,12.6-12.6,12.6s-12.6-5.6-12.6-12.6V224.9z
		"/>
	
		<linearGradient id="SVGID_00000108285930448588075710000012939409563556001195_" gradientUnits="userSpaceOnUse" x1="174.1639" y1="299.7122" x2="174.1639" y2="60.4991" gradientTransform="matrix(1 0 0 -1 0 512)">
		<stop  offset="0" style="stop-color:#F94807"/>
		<stop  offset="1" style="stop-color:#FAC522"/>
	</linearGradient>
	<path style="fill:url(#SVGID_00000108285930448588075710000012939409563556001195_);" d="M161.6,283.6c0-7,5.6-12.6,12.6-12.6
		c7,0,12.6,5.6,12.6,12.6v96.5c0,7-5.6,12.6-12.6,12.6c-7,0-12.6-5.6-12.6-12.6V283.6z"/>
	
		<linearGradient id="SVGID_00000067194965884985903570000000159549605922513818_" gradientUnits="userSpaceOnUse" x1="142.6885" y1="299.7122" x2="142.6885" y2="60.4991" gradientTransform="matrix(1 0 0 -1 0 512)">
		<stop  offset="0" style="stop-color:#F94807"/>
		<stop  offset="1" style="stop-color:#FAC522"/>
	</linearGradient>
	<path style="fill:url(#SVGID_00000067194965884985903570000000159549605922513818_);" d="M130.1,325.6c0-7,5.6-12.6,12.6-12.6
		c7,0,12.6,5.6,12.6,12.6v16.8c0,7-5.6,12.6-12.6,12.6c-7,0-12.6-5.6-12.6-12.6V325.6z"/>
	
		<linearGradient id="SVGID_00000098942766647990005860000015023744699891573397_" gradientUnits="userSpaceOnUse" x1="237.1148" y1="299.7122" x2="237.1148" y2="60.4991" gradientTransform="matrix(1 0 0 -1 0 512)">
		<stop  offset="0" style="stop-color:#F94807"/>
		<stop  offset="1" style="stop-color:#FAC522"/>
	</linearGradient>
	<path style="fill:url(#SVGID_00000098942766647990005860000015023744699891573397_);" d="M224.5,266.8c0-7,5.6-12.6,12.6-12.6
		c7,0,12.6,5.6,12.6,12.6v134.3c0,7-5.6,12.6-12.6,12.6c-7,0-12.6-5.6-12.6-12.6V266.8z"/>
	
		<linearGradient id="SVGID_00000116231555082030921930000014138869532263760801_" gradientUnits="userSpaceOnUse" x1="268.5901" y1="299.7122" x2="268.5901" y2="60.4991" gradientTransform="matrix(1 0 0 -1 0 512)">
		<stop  offset="0" style="stop-color:#F94807"/>
		<stop  offset="1" style="stop-color:#FAC522"/>
	</linearGradient>
	<path style="fill:url(#SVGID_00000116231555082030921930000014138869532263760801_);" d="M256,304.6c0-7,5.6-12.6,12.6-12.6
		c7,0,12.6,5.6,12.6,12.6v54.6c0,7-5.6,12.6-12.6,12.6c-7,0-12.6-5.6-12.6-12.6V304.6z"/>
	
		<linearGradient id="SVGID_00000057113432956939552100000009371045737198404485_" gradientUnits="userSpaceOnUse" x1="300.0656" y1="299.7122" x2="300.0656" y2="60.4991" gradientTransform="matrix(1 0 0 -1 0 512)">
		<stop  offset="0" style="stop-color:#F94807"/>
		<stop  offset="1" style="stop-color:#FAC522"/>
	</linearGradient>
	<path style="fill:url(#SVGID_00000057113432956939552100000009371045737198404485_);" d="M287.5,266.8c0-7,5.6-12.6,12.6-12.6
		s12.6,5.6,12.6,12.6v134.3c0,7-5.6,12.6-12.6,12.6s-12.6-5.6-12.6-12.6V266.8z"/>
	
		<linearGradient id="SVGID_00000115500734013933156550000012901758593629193347_" gradientUnits="userSpaceOnUse" x1="331.541" y1="299.7122" x2="331.541" y2="60.4991" gradientTransform="matrix(1 0 0 -1 0 512)">
		<stop  offset="0" style="stop-color:#F94807"/>
		<stop  offset="1" style="stop-color:#FAC522"/>
	</linearGradient>
	<path style="fill:url(#SVGID_00000115500734013933156550000012901758593629193347_);" d="M319,296.2c0-7,5.6-12.6,12.6-12.6
		s12.6,5.6,12.6,12.6v71.3c0,7-5.6,12.6-12.6,12.6s-12.6-5.6-12.6-12.6V296.2z"/>
	
		<linearGradient id="SVGID_00000003076655527857373380000004388182066162496172_" gradientUnits="userSpaceOnUse" x1="363.0164" y1="299.7122" x2="363.0164" y2="60.4991" gradientTransform="matrix(1 0 0 -1 0 512)">
		<stop  offset="0" style="stop-color:#F94807"/>
		<stop  offset="1" style="stop-color:#FAC522"/>
	</linearGradient>
	<path style="fill:url(#SVGID_00000003076655527857373380000004388182066162496172_);" d="M350.4,325.6c0-7,5.6-12.6,12.6-12.6
		s12.6,5.6,12.6,12.6v16.8c0,7-5.6,12.6-12.6,12.6s-12.6-5.6-12.6-12.6V325.6z"/>
	<path class="st8" d="M0,331.9c0,59.4,35,109.9,83.9,128.6V203.3C35,222,0,272.5,0,331.9z"/>
	<path class="st8" d="M419.7,463.4c53.2-15.9,92.3-68.8,92.3-131.5s-39.1-115.6-92.3-131.5V463.4z"/>
	<path class="st9" d="M440.7,424.2V195.5c0-81.1-84.6-146.9-188.9-146.9S63,114.4,63,195.5v228.7"/>
	<path class="st10" d="M104.9,459.9v-256"/>
	<path class="st10" d="M398.7,459.9v-256"/>
</g>
</svg>
