<?xml version="1.0" encoding="utf-8"?>
<!-- Generator: Adobe Illustrator 27.7.0, SVG Export Plug-In . SVG Version: 6.00 Build 0)  -->
<svg version="1.1" id="Layer_1" xmlns:figma="http://www.figma.com/figma/ns"
	 xmlns="http://www.w3.org/2000/svg" xmlns:xlink="http://www.w3.org/1999/xlink" x="0px" y="0px" viewBox="0 0 512 512"
	 style="enable-background:new 0 0 512 512;" xml:space="preserve">
<style type="text/css">
	.st0{fill:#FFFFFF;}
	.st1{fill:#F37726;}
</style>
<g id="Group_00000037661225570546929390000014622299649448389518_" figma:type="group">
	<g id="Group" figma:type="group">
		<g id="g" figma:type="group">
			<g id="path" figma:type="group">
				<g id="path9_fill" figma:type="vector">
					<g transform="translate(1640.54 2474.36)">
						<path id="path0_fill" class="st0" d="M55.4,267.7c0,16-1.3,21.1-4.6,25c-3.7,3.3-8.4,5.1-13.3,5.1l1.3,9.1
							c7.6,0.1,15-2.6,20.8-7.6c3.1-3.8,5.4-8.2,6.8-12.9c1.4-4.7,1.8-9.6,1.2-14.5v-60.3H55.4v55.7V267.7z"/>
					</g>
				</g>
			</g>
			<g id="path_00000093177359191091545970000002928007108209711030_" figma:type="group">
				<g id="path10_fill" figma:type="vector">
					<g transform="translate(1645.68 2474.37)">
						<path id="path1_fill" class="st0" d="M146.5,260.5c0,6.8,0,12.9,0.5,18.2h-10.8l-0.7-10.8c-2.3,3.8-5.5,7-9.4,9.2
							c-3.9,2.2-8.3,3.3-12.7,3.2c-10.6,0-23.2-5.7-23.2-29.2v-38.9h12.2v36.5c0,12.7,3.9,21.1,14.9,21.1c2.3,0,4.5-0.4,6.6-1.3
							c2.1-0.9,4-2.1,5.6-3.7c1.6-1.6,2.9-3.5,3.7-5.6c0.9-2.1,1.3-4.4,1.3-6.6v-40.8h12.2v48.4L146.5,260.5z"/>
					</g>
				</g>
			</g>
			<g id="path_00000029034941622226886920000005227299960779564730_" figma:type="group">
				<g id="path11_fill" figma:type="vector">
					<g transform="translate(1653.39 2474.26)">
						<path id="path2_fill" class="st0" d="M169.6,233.9c0-8.5,0-15.4-0.5-21.7H180l0.5,11.4c2.4-4.1,5.9-7.5,10.2-9.8
							c4.2-2.3,9-3.4,13.7-3.2c16.2,0,28.4,13.6,28.4,33.8c0,23.9-14.7,35.7-30.5,35.7c-4.1,0.2-8.1-0.7-11.7-2.5
							c-3.6-1.8-6.7-4.6-9-8l0,0v36.5h-12v-72V233.9z M181.6,251.7c0,1.7,0.2,3.3,0.5,4.9c1,4,3.4,7.6,6.7,10.2
							c3.3,2.6,7.4,3.9,11.5,3.9c12.9,0,20.4-10.5,20.4-25.7c0-13.3-7.1-24.7-20-24.7c-5.1,0.4-9.8,2.7-13.4,6.3
							c-3.5,3.7-5.6,8.5-5.8,13.6V251.7z"/>
					</g>
				</g>
			</g>
			<g id="path_00000070089227140835382720000010631169889168021133_" figma:type="group">
				<g id="path12_fill" figma:type="vector">
					<g transform="translate(1660.43 2474.39)">
						<path id="path3_fill" class="st0" d="M254.6,212.1l14.7,39.3c1.5,4.4,3.2,9.7,4.3,13.6c1.3-4,2.6-9.1,4.3-13.9l13.3-39H304
							l-18.2,47.4c-9.1,22.8-14.7,34.5-23.1,41.7c-4.2,3.9-9.4,6.6-14.9,7.8l-3-10.2c3.9-1.3,7.5-3.3,10.7-5.9
							c4.4-3.6,8-8.2,10.3-13.5c0.5-0.9,0.8-1.9,1-2.9c-0.1-1.1-0.4-2.2-0.8-3.2l-24.8-61.3h13.3L254.6,212.1z"/>
					</g>
				</g>
			</g>
			<g id="path_00000007402404594881276240000002040295683611897739_" figma:type="group">
				<g id="path13_fill" figma:type="vector">
					<g transform="translate(1667.55 2472.54)">
						<path id="path4_fill" class="st0" d="M336.5,193v19.1H354v9.1h-17.5v35.9c0,8.2,2.4,12.9,9.1,12.9c2.4,0,4.8-0.2,7.1-0.8
							l0.5,9.1c-3.5,1.2-7.2,1.8-10.8,1.6c-2.4,0.2-4.9-0.2-7.2-1.1s-4.3-2.2-6.1-4c-3.7-5-5.4-11.2-4.7-17.3v-36.5h-10.4v-9.1h10.6
							v-16.2L336.5,193z"/>
					</g>
				</g>
			</g>
			<g id="path_00000173853240122902560420000001084284276537967525_" figma:type="group">
				<g id="path14_fill" figma:type="vector">
					<g transform="translate(1672.47 2474.29)">
						<path id="path5_fill" class="st0" d="M376.5,247.6c-0.2,3.1,0.2,6.2,1.3,9.1c1.1,2.9,2.8,5.6,5,7.7c2.2,2.2,4.8,3.9,7.7,5
							c2.9,1.1,6,1.5,9.1,1.3c6.3,0.1,12.5-1,18.2-3.5l2.1,9.1c-7.1,2.9-14.7,4.3-22.3,4.1c-4.5,0.3-8.9-0.4-13.1-1.9
							c-4.2-1.6-8-4.1-11.1-7.2c-3.1-3.2-5.5-7-7.1-11.2c-1.5-4.2-2.1-8.7-1.7-13.1c0-20.1,11.9-35.9,31.4-35.9
							c21.9,0,27.3,19.1,27.3,31.4c0.1,1.9,0.1,3.8,0,5.7h-47.1L376.5,247.6z M412.2,238.5c0.4-2.4,0.2-4.9-0.5-7.3
							c-0.7-2.4-1.9-4.6-3.5-6.4c-1.6-1.9-3.6-3.4-5.8-4.4c-2.2-1-4.7-1.6-7.1-1.6c-5,0.4-9.7,2.6-13.2,6.2
							c-3.5,3.6-5.4,8.4-5.5,13.5H412.2z"/>
					</g>
				</g>
			</g>
			<g id="path_00000139262254944046837740000008224082658379702671_" figma:type="group">
				<g id="path15_fill" figma:type="vector">
					<g transform="translate(1679.98 2474.24)">
						<path id="path6_fill" class="st0" d="M441.9,232.9c0-7.8,0-14.6-0.5-20.8h10.9v13h0.5c1.1-4,3.5-7.6,6.8-10.2
							s7.3-4.1,11.4-4.4c1.1-0.2,2.3-0.2,3.5,0v11.4c-1.4-0.2-2.8-0.2-4.2,0c-4.1,0.2-8.1,1.8-11.1,4.7c-3,2.9-4.9,6.7-5.2,10.8
							c-0.3,1.9-0.5,3.8-0.5,5.7v35.5h-12v-45.6L441.9,232.9z"/>
					</g>
				</g>
			</g>
		</g>
	</g>
	<g id="g_00000165945166536125746180000016644350468554764197_" figma:type="group">
		<g id="path_00000038377081830381549170000003061467754826612384_" figma:type="group">
			<g id="path16_fill" figma:type="vector">
				<g transform="translate(1673.48 2453.69)">
					<path id="path7_fill" class="st0" d="M436.5,29c0.4,6.1-1.1,12.2-4.2,17.5c-3.1,5.3-7.7,9.5-13.2,12.2
						c-5.5,2.7-11.7,3.6-17.8,2.8c-6.1-0.9-11.8-3.5-16.3-7.6c-4.6-4.1-7.8-9.5-9.3-15.4c-1.5-6-1.2-12.2,0.9-18S382.4,9.7,387.4,6
						s10.9-5.7,17-6c4-0.2,8,0.4,11.8,1.7c3.8,1.3,7.3,3.4,10.3,6.1c3,2.7,5.4,6,7.1,9.6C435.3,21.1,436.3,25,436.5,29L436.5,29z"/>
				</g>
			</g>
		</g>
		<g id="path_00000129897366117207797300000001831737776221011381_" figma:type="group">
			<g id="path17_fill" figma:type="vector">
				<g transform="translate(1643.21 2484.27)">
					<path id="path8_fill" class="st1" d="M256.3,386c-82,0-154.1-29.4-191.4-72.9c14.5,39.1,40.6,72.9,74.8,96.7
						c34.2,23.8,74.9,36.6,116.6,36.6c41.7,0,82.4-12.8,116.6-36.6c34.2-23.8,60.3-57.6,74.8-96.7C410.5,356.6,338.7,386,256.3,386z
						"/>
				</g>
			</g>
		</g>
		<g id="path_00000165215771671053993320000015359392754216403868_" figma:type="group">
			<g id="path18_fill" figma:type="vector">
				<g transform="translate(1643.21 2457.88)">
					<path id="path9_fill_00000008128645335032752160000008674180191107151545_" class="st1" d="M256.3,103.3
						c82,0,154.1,29.4,191.4,72.9c-14.5-39.1-40.6-72.9-74.8-96.7C338.7,55.7,298,42.9,256.3,42.9c-41.7,0-82.4,12.8-116.6,36.6
						c-34.2,23.8-60.3,57.6-74.8,96.7C102.1,132.6,173.9,103.3,256.3,103.3z"/>
				</g>
			</g>
		</g>
		<g id="path_00000158715799063069700080000002258523495656027524_" figma:type="group">
			<g id="path19_fill" figma:type="vector">
				<g transform="translate(1643.28 2496.09)">
					<path id="path10_fill_00000011739414319246728530000001659682453015480235_" class="st0" d="M143.3,470.7
						c0.5,7.7-1.3,15.4-5.2,22.1c-3.9,6.7-9.7,12-16.7,15.4c-7,3.4-14.8,4.6-22.4,3.5c-7.7-1.1-14.8-4.4-20.6-9.6
						c-5.7-5.2-9.8-11.9-11.7-19.4c-1.9-7.5-1.5-15.4,1.1-22.7c2.6-7.3,7.3-13.6,13.5-18.2c6.2-4.6,13.7-7.2,21.4-7.6
						c5.1-0.3,10.1,0.5,14.9,2.1c4.8,1.7,9.2,4.3,12.9,7.7c3.8,3.4,6.8,7.5,9,12.1C141.8,460.6,143.1,465.6,143.3,470.7L143.3,470.7
						z"/>
				</g>
			</g>
		</g>
		<g id="path_00000159455986445477439130000017656108906475670964_" figma:type="group">
			<g id="path20_fill" figma:type="vector">
				<g transform="translate(1641.87 2458.43)">
					<path id="path11_fill_00000164504975944534558490000011521797576161382835_" class="st0" d="M74.2,93.4
						c-4.4,0.1-8.8-1.1-12.5-3.4c-3.7-2.3-6.7-5.8-8.5-9.8c-1.8-4-2.4-8.5-1.7-12.9s2.7-8.4,5.7-11.6c3-3.2,6.9-5.5,11.2-6.5
						c4.3-1,8.8-0.7,13,0.8c4.1,1.5,7.7,4.3,10.3,7.8c2.6,3.6,4.1,7.8,4.3,12.3c0.2,6-2,11.8-6.1,16.1
						C85.8,90.6,80.1,93.1,74.2,93.4z"/>
				</g>
			</g>
		</g>
	</g>
</g>
</svg>
