<?xml version="1.0" encoding="utf-8"?>
<!-- Generator: Adobe Illustrator 27.7.0, SVG Export Plug-In . SVG Version: 6.00 Build 0)  -->
<svg version="1.1" id="Layer_1" xmlns="http://www.w3.org/2000/svg" xmlns:xlink="http://www.w3.org/1999/xlink" x="0px" y="0px"
	 viewBox="0 0 512 512" style="enable-background:new 0 0 512 512;" xml:space="preserve">
<style type="text/css">
	.st0{fill:#FFFFFF;}
</style>
<g>
	
		<ellipse transform="matrix(0.9871 -0.1602 0.1602 0.9871 -42.5652 35.0988)" class="st0" cx="196.4" cy="281.6" rx="25.6" ry="25.6"/>
	<path class="st0" d="M309.4,342.5c-15.5,11-34.3,16.6-53.4,15.5c-19.1,0.8-37.9-4.8-53.4-16c-2.5-2-6.2-2-8.7,0
		c-2.8,2.5-3.4,7-0.8,9.8c18.3,13.5,40.5,20.5,63.2,19.7c22.8,1.1,45-5.9,63.2-19.7v1.1c2.8-2.5,2.8-7.3,0-10.4
		C316.7,339.7,312.2,339.7,309.4,342.5z"/>
	<path class="st0" d="M256,0C114.6,0,0,114.6,0,256s114.6,256,256,256s256-114.6,256-256S397.4,0,256,0z M406.3,290
		c0.3,3.7,0.3,7.6,0,11.2c0,57.3-66.9,104-149.2,104s-149.2-46.6-149.2-104c-0.3-3.7-0.3-7.6,0-11.2c-3.9-1.7-7.3-3.9-10.1-6.7
		c-15.2-14-15.7-37.9-1.7-52.8c14-15.2,37.9-15.7,52.8-1.7c29.5-20,64.1-30.9,99.8-31.5l18.8-88.5c1.1-4.5,5.3-7,9.6-6.2l62.7,12.6
		c3.9-7,11.2-11.8,19.4-12.6c14.1-1.4,26.7,8.7,28.1,22.8c1.4,14-8.7,26.7-22.8,28.1c-14,1.4-26.7-8.7-28.1-22.8l-54.8-11.5
		L265,198.9c35.1,0.8,69.4,11.5,98.6,31.5c6.5-6.5,15.2-10.1,24.4-10.4c20.8-0.8,37.9,15.5,38.8,36C427.1,270.3,419,283.5,406.3,290
		z"/>
	<path class="st0" d="M314.7,257.1c-14,0-25.6,11.5-25.6,25.6c0,14.1,11.5,25.6,25.6,25.6l-0.3,0.8c0.6,0,0.8,0,1.4,0
		c14.3-0.6,25.3-12.4,24.4-26.4C340.3,268.6,328.8,257.1,314.7,257.1z"/>
</g>
</svg>
