<?xml version="1.0" encoding="utf-8"?>
<!-- Generator: Adobe Illustrator 27.7.0, SVG Export Plug-In . SVG Version: 6.00 Build 0)  -->
<svg version="1.1" id="Layer_1" xmlns="http://www.w3.org/2000/svg" xmlns:xlink="http://www.w3.org/1999/xlink" x="0px" y="0px"
	 viewBox="0 0 512 512" style="enable-background:new 0 0 512 512;" xml:space="preserve">
<style type="text/css">
	.st0{fill:#FFFFFF;}
</style>
<path class="st0" d="M511.3,119.8c-0.1-9.2-0.8-18.4-2.5-27.5c-2.1-11.1-5.1-21.9-10.4-31.9c-5.6-10.6-12.6-20.1-21.3-28.4
	c-13.3-12.7-28.6-21.8-46.5-26.5c-16.1-4.3-32.6-5.3-49.2-5.2c0,0-0.1-0.2-0.1-0.3H130.5c0,0.1,0,0.2,0,0.3
	c-9.4,0.2-18.8,0.1-28.2,1.3C92.1,2.8,81.9,4.7,72.2,8.3c-15.3,5.7-28.6,14.5-39.9,26.2C19.5,47.8,10.4,63.2,5.6,81.2
	c-4.3,16-5.2,32.3-5.2,48.8L0.2,381.8v0c0.3,11.4,0.4,22.8,2.3,34.1c2,12,4.9,23.6,10.5,34.4c7.5,14.7,17.8,27.1,30.8,37.2
	c9.3,7.3,19.5,13,30.8,16.7c16.4,5.3,33.4,7.3,50.6,7.4c10.7,0.1,21.5,0.3,32.2,0.3c78-0.3,156,0.6,234-0.5
	c10.3-0.1,20.5-1.4,30.7-3.3c19.5-3.6,36.7-11.9,51.4-25c17.2-15.3,28.7-34,34-56.6c3.4-14.8,4.3-29.8,4.4-44.8v-3
	C511.8,377.6,511.4,123.2,511.3,119.8z M447.9,354.4c-0.1,1.4-0.4,2.7-0.9,4c-1.8,4.3-6.1,7.9-13,11.1c-8.4,3.9-21.1,7.2-37.5,9.8
	c-0.8,1.6-1.7,5.7-2.3,8.2c-0.6,2.9-1.3,5.8-2.2,8.9c-1.4,4.7-5,7.4-9.9,7.4h-0.2l-0.2,0c-2.2,0-5.1-0.4-8.8-1.1
	c-5.7-1.1-12.1-2.1-20.1-2.1c-4.7,0-9.5,0.4-14.4,1.2c-9.4,1.6-17.5,7.3-26.9,13.9l0,0c-13.7,9.7-29.3,20.7-53,20.7
	c-1,0-2,0-2.8-0.1c-0.6,0-1.3,0.1-1.9,0.1c-23.8,0-39.3-11-53-20.7c-9.4-6.6-17.5-12.4-26.9-13.9c-4.9-0.8-9.7-1.2-14.4-1.2
	c-8.4,0-15.2,1.3-20.1,2.3c-3.4,0.7-6.3,1.2-8.8,1.2c-6.7,0-9.3-4.1-10.3-7.5c-0.9-3.2-1.6-6.1-2.2-9c-0.6-2.7-1.5-6.7-2.3-8.3
	c-16.5-2.6-29.1-5.9-37.5-9.8c-6.9-3.2-11.2-6.9-13-11.1c0,0,0,0,0,0c-0.5-1.3-0.8-2.6-0.9-3.9c-0.3-4.6,3-8.6,7.5-9.4
	c11.5-1.9,22.6-6.2,32.8-12.8c8.3-5.4,16.2-12.3,23.3-20.6c12.5-14.6,18.7-28.5,19.3-30c0.1-0.1,0.1-0.3,0.2-0.4
	c2.6-5.3,3.2-9.7,1.8-13.1c-2.8-6.6-13.6-10-20.7-12.3c-2-0.6-4-1.3-5.6-1.9c-6.2-2.5-11-5.2-14.3-8.2c-6-5.4-6-10.8-5.5-13.5
	c0.8-4.1,3.7-7.8,8.1-10.4c3.5-2.1,7.6-3.2,11.5-3.2c2.4,0,4.6,0.5,6.5,1.3c6.5,3,12.3,4.6,17.1,4.6c3,0,5-0.6,6.3-1.2
	c-0.2-2.8-0.4-5.7-0.5-8.5l0,0c-1.6-26-3.7-58.4,4.9-77.7c5.9-13.1,13.7-24.4,23.4-33.6c8.1-7.7,17.5-13.9,28-18.6
	c18.3-8.1,35.4-9.3,43.9-9.3c0.3,0,4.2,0,6.6-0.1c0.3,0,0.6,0,0.9,0h0c8.5,0,25.6,1.2,43.9,9.2c10.5,4.6,20,10.9,28.1,18.6
	c9.7,9.2,17.6,20.5,23.5,33.7c8.6,19.3,6.5,51.7,4.9,77.7l-0.1,1.1c-0.2,2.6-0.3,5-0.5,7.4c1.1,0.5,2.8,1,5.3,1.2
	c4.6-0.2,10-1.8,16-4.6c2.8-1.3,5.8-1.6,7.8-1.6c2.9,0,5.8,0.6,8.4,1.6c7.5,2.7,12.2,8.2,12.3,14.3c0,2.5-0.7,6.4-4.7,10.5
	c-3.3,3.4-8.3,6.4-15.3,9.2c-1.6,0.6-3.6,1.3-5.6,1.9c-7.1,2.3-17.9,5.7-20.7,12.3c-1.4,3.4-0.8,7.8,1.8,13.1
	c0.1,0.1,0.1,0.3,0.2,0.4c1,2.2,24.1,55,75.4,63.4C444.9,345.8,448.2,349.8,447.9,354.4z"/>
</svg>
