<?xml version="1.0" encoding="utf-8"?>
<!-- Generator: Adobe Illustrator 27.7.0, SVG Export Plug-In . SVG Version: 6.00 Build 0)  -->
<svg version="1.1" id="Layer_1" xmlns="http://www.w3.org/2000/svg" xmlns:xlink="http://www.w3.org/1999/xlink" x="0px" y="0px"
	 viewBox="0 0 512 512" style="enable-background:new 0 0 512 512;" xml:space="preserve">
<style type="text/css">
	.st0{fill:#FFFFFF;}
</style>
<g>
	<polygon class="st0" points="210.7,427.9 234.2,427.9 222.7,397.3 	"/>
	<path class="st0" d="M178.7,393.9h-22h-0.3v25.8h21.3c4.2,0.3,8.2-1.2,11.1-4.2c2.1-2.4,3.2-5.4,3.1-8.6c0.1-0.7,0-1.4,0-2.1
		C191.3,398.1,185.3,393.2,178.7,393.9z"/>
	<polygon class="st0" points="213.8,331.5 237.2,331.5 225.7,301.2 	"/>
	<path class="st0" d="M512,52.4C511.7,23.2,487.9-0.3,458.7,0H53.3c0,0,0,0-0.1,0C24.1-0.2,0.2,23.2,0,52.4v407.1c0,0,0,0,0,0.1
		c0.3,29.2,24.1,52.6,53.3,52.4h405.3c0,0,0,0,0.1,0c29.2,0.2,53-23.2,53.3-52.4L512,52.4C512,52.4,512,52.4,512,52.4z M326.3,83.1
		l-0.3,0.2c35.7,35.2,39.7,91.4,9.3,131.3c-0.2,0.1-0.4,0.1-0.5,0c-0.1-0.2-0.1-0.4,0-0.6c7.5-23.4-31.1-80.4-51.2-104.2
		c0-0.1,0-0.3,0-0.4c0,0,0,0,0-0.4C317.5,75.7,326.3,83.4,326.3,83.1z M298.1,360.1h-6.6l-22.3-54v54h-7.9v-69.7h9l24.5,58.5
		l24.3-58.5h9v69.7h-7.9v-53.8L298.1,360.1z M190.9,229.3c-15.5-16,35.5-71.9,65.1-94.6v-0.2c0,0,0,0,0.4,0
		c30,22.9,81,78.8,65.4,94.8C284.4,262.2,228.3,262.2,190.9,229.3z M256.8,360.1h-8.4l-8.2-21.3h-29.1l-8.4,21.3h-8.3l28-69.7h6.9
		L256.8,360.1z M203.9,69.3c15.7-9.6,33.7-14.7,52.1-14.7c18.4-0.1,36.5,5,52.1,14.7c0.1,0.2,0.1,0.4,0,0.6c0,0-0.4,0-0.6,0
		c-19.2-4.2-48.6,12.4-51.4,14.1H256c-7.3-4.2-34.4-18.5-51.6-14.1c-0.2,0.1-0.4,0.1-0.5,0C203.8,69.7,203.8,69.5,203.9,69.3z
		 M186.1,83.1c0,0.2,8.8-7.5,42.7,26c0,0.4,0,0.4,0,0.4c0,0.1,0,0.3,0,0.4c-19.9,24.2-58.9,80.8-51.2,104.2c0.1,0.2,0.1,0.4,0,0.6
		c-0.2,0.1-0.4,0.1-0.5,0c-30.3-39.9-26.3-96.1,9.3-131.3L186.1,83.1z M134.4,351.1c-2.8-3.4-5-7.3-6.4-11.5
		c-1.5-4.5-2.3-9.2-2.3-13.9c-0.2-9.3,2.9-18.3,8.6-25.6c2.9-3.4,6.6-6.2,10.7-8.1c4.4-1.9,9.2-2.9,14.1-2.9
		c6.8-0.1,13.5,2.1,19,6.2c5.5,4.3,9.1,10.5,10.2,17.4v0.7h-7.7c-2.1-10.1-11.1-17.2-21.3-17c-7.3-0.3-14.3,3-18.8,8.7
		c-4.3,6-6.5,13.3-6.4,20.7c0,3.8,0.5,7.6,1.7,11.3c1,3.3,2.6,6.4,4.7,9.2c2.2,2.6,4.9,4.6,7.9,6c3.5,1.5,7.3,2.2,11.1,2.2
		c6.3,0.2,12.5-2.1,17-6.6c4-4.6,6.2-10.5,6-16.6h-23V324h30v36.3h-7.3v-8.7c-1.8,2.3-4.1,4.3-6.6,5.8c-5.1,3-10.9,4.5-16.8,4.4
		C149.4,362,140.5,358.1,134.4,351.1z M156.7,427v29.4h-7.8v-69.9h30c4.8-0.2,9.5,1.1,13.5,3.7c5.3,3.8,8.1,10.1,7.5,16.6
		c0.3,5.6-1.9,11-6,14.8c-4.7,3.7-10.5,5.6-16.4,5.3H156.7z M245.4,456.4l-8.4-21.3h-29.1l-8.4,21.3h-8.4l28.2-69.9h6.9l27.6,69.9
		H245.4z M301.5,453.2c-12.8,6.9-28.5,5.6-39.9-3.5c-4.3-4.7-6.6-11-6.2-17.4v-1.8h7.5v2c-0.4,4.3,1,8.6,3.8,11.8
		c5,4.4,11.5,6.6,18.1,6.1c4,0,8-1,11.5-2.9c3.6-2.1,5.8-6,5.7-10.2c0-8.6-7.7-10.8-20.1-13.4h-1.1c-5.6-0.9-11-2.7-16-5.3
		c-5.2-2.8-8.3-8.3-8.1-14.2c0-13.5,12.1-19.6,24.2-19.6c16.6,0,26.7,8.2,27.3,22.3v2h-7.9v-1.9c0.1-4.4-1.9-8.6-5.3-11.3
		c-7.5-4.7-16.9-5.1-24.9-1.1c-3.4,2-5.4,5.6-5.3,9.5c0,8,7.3,10.2,19.4,12.6c0.5,0.4,1.1,0.4,1.7,0.4c10.2,2.2,24.1,5,24.5,19.9
		C310.4,443.7,307.1,449.8,301.5,453.2z M363.4,453.1c-12.8,6.9-28.5,5.6-39.9-3.5c-4.3-4.7-6.6-11-6.2-17.4v-1.8h7.7v2
		c-0.4,4.3,1,8.6,3.8,11.8c5,4.4,11.5,6.6,18.1,6.1c4,0,8-1,11.5-2.9c3.5-2.2,5.6-6.1,5.4-10.2c0-8.6-7.7-10.8-20.1-13.4h-1.1
		c-5.6-0.9-11-2.7-16-5.3c-5.2-2.8-8.3-8.3-8.1-14.2c0-13.5,12.1-19.6,24.2-19.6c16.5,0,26.7,8.2,27.2,22.3v2h-7.8v-1.9
		c0.1-4.4-1.9-8.6-5.3-11.3c-7.5-4.7-16.9-5.1-24.9-1.1c-3.4,2-5.4,5.6-5.3,9.5c0,8,7.4,10.2,19.4,12.6c0.5,0.2,1.1,0.3,1.7,0.4
		c10.2,2.2,24.1,5,24.5,19.8C372.2,443.6,368.9,449.7,363.4,453.1z M386,360.1h-49.2v-69.7h48.6v6.7h-41v23.4h38.4v7h-38.4v25.8H386
		V360.1z"/>
</g>
</svg>
