<?xml version="1.0" encoding="utf-8"?>
<!-- Generator: Adobe Illustrator 27.7.0, SVG Export Plug-In . SVG Version: 6.00 Build 0)  -->
<svg version="1.1" id="Layer_1" focusable="false" xmlns="http://www.w3.org/2000/svg" xmlns:xlink="http://www.w3.org/1999/xlink"
	 x="0px" y="0px" viewBox="0 0 512 512" style="enable-background:new 0 0 512 512;" xml:space="preserve">
<style type="text/css">
	.st0{fill:#FFFFFF;}
</style>
<path class="st0" d="M501.3,132.8c-5.9-22-23.2-39.4-45.3-45.3c-39.9-10.7-200-10.7-200-10.7s-160.1,0-200,10.7
	c-22,5.9-39.4,23.2-45.3,45.3C0,172.7,0,256,0,256s0,83.3,10.7,123.2c5.9,22,23.2,39.4,45.3,45.3c39.9,10.7,200,10.7,200,10.7
	s160.1,0,200-10.7c22-5.9,39.4-23.2,45.3-45.3C512,339.3,512,256,512,256S512,172.7,501.3,132.8z M204.8,332.8V179.2l133,76.8
	L204.8,332.8z"/>
</svg>
