<?xml version="1.0" encoding="utf-8"?>
<!-- Generator: Adobe Illustrator 27.7.0, SVG Export Plug-In . SVG Version: 6.00 Build 0)  -->
<svg version="1.1" id="Layer_1" xmlns="http://www.w3.org/2000/svg" xmlns:xlink="http://www.w3.org/1999/xlink" x="0px" y="0px"
	 viewBox="0 0 512 512" style="enable-background:new 0 0 512 512;" xml:space="preserve">
<style type="text/css">
	.st0{fill-rule:evenodd;clip-rule:evenodd;fill:#58408C;}
	.st1{fill-rule:evenodd;clip-rule:evenodd;fill:#FFFFFF;}
</style>
<g id="Akkoma-logo-_x5B_2-color_x5D_">
	<path id="Akkoma" class="st0" d="M139.7,182.2c58.2,2.7,100.6,8.6,127.3,17.8c22.8,7.8,81.3,46.3,84.1,52.5c0.2,0.5,0.6,1.2,1,2.3
		c37,90.5,48.2,163.7,33.6,219.5c-15.8,60.3-79.9,37.1-103.6-1.8c-20.6-33.8-29-88.9-40.6-87C215,389.9,178.8,522,85.3,511.4
		c-48.1-5.5-49-72.7-39.8-129.3C59.2,297.5,90.7,230.9,139.7,182.2z M212,210c-37.5,11.4-56.1,36-56,73.7
		c0.1,24.6,41,34.8,70.8,30.2c60.2-9.2,48.9-41.2,40.2-62.7c-2.7-6.7-9.6-16.2-20.7-28.7L212,210z"/>
	<path id="Oval" class="st1" d="M256,226c116,36,215,54.5,215,36c0-15.3-12.4-52-121.6-107.4c0.8-26.5,1.6-42.7,2.6-48.6
		c7-45,44-91,30-104S275,56,236,88c-6.4,5.2-18,12.8-34.9,22.6C117.7,103,68.8,105.3,56,127C49,142,140,190,256,226z"/>
</g>
</svg>
