<?xml version="1.0" encoding="utf-8"?>
<!-- Generator: Adobe Illustrator 27.7.0, SVG Export Plug-In . SVG Version: 6.00 Build 0)  -->
<svg version="1.1" id="Layer_1" xmlns="http://www.w3.org/2000/svg" xmlns:xlink="http://www.w3.org/1999/xlink" x="0px" y="0px"
	 viewBox="0 0 512 512" style="enable-background:new 0 0 512 512;" xml:space="preserve">
<style type="text/css">
	.st0{fill:#FFFFFF;}
</style>
<path class="st0" d="M256,0C114.6,0,0,114.6,0,256s114.6,256,256,256s256-114.6,256-256S397.4,0,256,0z M207.6,189.2
	c37.7-32.6,25.2-69.8,17.8-86.4c0,0,42.7,37.4,37,70.5c-2.6,14.9-22.2,39.1-11.6,62.3c11.4,24.9,17.4,73.1-34.1,60.6
	C166,284.1,169.9,221.8,207.6,189.2z M324.7,364.5c-24.7,31.6-67.5,29.6-98.1,18.1c-36.3-13.6-45.5-40.3-51.4-56.9
	c-6.4-18-3.1-39.4-1-36.5c9.4,11.5,27.5,25.1,62.2,25.8c10.5,0.2,2.3,19.8,23.3,37.3c15.6,12.7,36.5,16.7,55.7,10.7
	C322.9,360.2,330.4,357.4,324.7,364.5z M305.8,350.5c-30.3,6.1-53.8-27.2-38.6-50.9c22.2-34.2-5.7-59.4-2.9-84.6
	c3.3-27.8,34.5-52,34.5-52s-22.9,47.6,6.8,72.7c27.3,23.2,39.6,31.8,40.8,62.8C347.3,322.9,339,343.9,305.8,350.5z"/>
</svg>
