<?xml version="1.0" encoding="utf-8"?>
<!-- Generator: Adobe Illustrator 27.7.0, SVG Export Plug-In . SVG Version: 6.00 Build 0)  -->
<svg version="1.1" id="Layer_1" xmlns="http://www.w3.org/2000/svg" xmlns:xlink="http://www.w3.org/1999/xlink" x="0px" y="0px"
	 viewBox="0 0 512 512" style="enable-background:new 0 0 512 512;" xml:space="preserve">
<style type="text/css">
	
		.st0{fill-rule:evenodd;clip-rule:evenodd;fill:#FFFFFF;stroke:#0288D1;stroke-width:4.8;stroke-linecap:round;stroke-linejoin:round;stroke-miterlimit:3.2;}
	
		.st1{fill-rule:evenodd;clip-rule:evenodd;fill:#FFFFFF;stroke:#0288D1;stroke-width:4.8;stroke-linejoin:round;stroke-miterlimit:3.2;}
</style>
<g transform="translate(-245.27 -58.434)">
	<g>
		<path class="st0" d="M463.8,473l288.3-166.5l-206-118.9L257.8,354.1L463.8,473z"/>
		<path class="st0" d="M257.8,354.1v47.6l206,118.9l288.3-166.5v-47.6"/>
		<path class="st0" d="M463.8,552.3l-206-118.9c0,0-16.8-37.9,0-63.4l206,118.9l288.3-166.5v63.4L463.8,552.3"/>
		<path class="st0" d="M463.8,362l288.3-166.5l-206-118.9L257.8,243.1L463.8,362z"/>
		<path class="st0" d="M463.8,362l288.3-166.5v63.4L463.8,425.4l-206-118.9c0,0-13.6-39.4,0-63.4L463.8,362z"/>
		<path class="st0" d="M463.8,488.8l-206-118.9c0,0-16.8-37.9,0-63.4l206,118.9L752.2,259v63.4L463.8,488.8"/>
	</g>
	<path class="st1" d="M594.2,104.4l-123.6,71.3l48.1,4l6.9,27.7l123.6-71.3L594.2,104.4z"/>
</g>
</svg>
