<?xml version="1.0" encoding="utf-8"?>
<!-- Generator: Adobe Illustrator 27.7.0, SVG Export Plug-In . SVG Version: 6.00 Build 0)  -->
<svg version="1.1" id="Layer_1" xmlns="http://www.w3.org/2000/svg" xmlns:xlink="http://www.w3.org/1999/xlink" x="0px" y="0px"
	 viewBox="0 0 512 512" style="enable-background:new 0 0 512 512;" xml:space="preserve">
<style type="text/css">
	.st0{fill:#FFFFFF;}
</style>
<g>
	<path class="st0" d="M388,240.8c-9,0-16.7,5.7-19.7,15h0h39.4C406.4,250,399.5,240.8,388,240.8z"/>
	<path class="st0" d="M84.1,243.1c-12.1,0-21.2,9.4-21.2,21.2c0,11.9,9.2,21.2,21.2,21.2c12,0,21.2-9.3,21.2-21.2
		C105.3,252.4,96.2,243.1,84.1,243.1z"/>
	<path class="st0" d="M191.8,243.1c-12.1,0-21.2,9.4-21.2,21.2c0,11.9,9.2,21.2,21.2,21.2c12,0,21.2-9.3,21.2-21.2
		C213.1,252.4,203.9,243.1,191.8,243.1z"/>
	<path class="st0" d="M397.2,0H114.8C51.4,0,0,51.4,0,114.8v282.4C0,460.6,51.4,512,114.8,512h282.4c63.4,0,114.8-51.4,114.8-114.8
		V114.8C512,51.4,460.6,0,397.2,0z M466.2,243.3h-2c-11.5,0-18.8,6.5-19.2,17.4c-0.1,1.7-0.2,3.4-0.2,5.1v35.4h-18.2v-31.1l-59.2,0
		c2.1,11,10.6,17.8,20.5,17.8c11,0,17.3-7.8,18.9-12.9h17.8c-3.2,14.3-15.3,28-36.7,28c-18.8,0-34.6-12-38.1-30.7v28.9l-18.4,0l0-38
		c0-1.2,0-1.9-0.1-3c-0.3-12.3-7.1-17.7-15-17.7c-8,0-15.2,5.4-15.7,17.8c0,0.7-0.1,1.5-0.1,2.4v38.6h-18.2v-6.6
		c-5.1,5.3-11.9,8.6-19.5,8.6c-18.1,0-33.1-12.7-33.1-31.4v0c-3.5,17.9-19.2,31.4-38.2,31.4c-21.5,0-38.9-17.4-38.9-38.9
		c0-7.7,2.3-15,6.2-21c-11.2,0.2-18.3,6.6-18.7,17.4c-0.1,1.7-0.1,3.4-0.1,5.1v35.4h-18.2v-28.4c-3.6,17.3-18.1,30.2-38,30.2
		c-23.1,0-37.9-17.5-38.2-38.7c0-3.1-0.1-6.3-0.1-9.7v-46h17.8v26.5c5.8-5.8,13.2-9.2,22.7-9.2c18.1,0,32.5,12.8,35.9,30.2
		c0.9-17.1,13.7-30.2,37.5-30.2h2v13.9c7.1-8.8,18-14.4,30.2-14.4c18.9,0,34.7,13.5,38.2,31.4v-48h18.4v17.9h28.3v17.1h-28.3v20.4
		c0,1.6,0.1,2.5,0.1,4.7c0.2,12.8,8,16.9,16.7,16.9c8.3,0,15.9-5.6,17-16.9c0.3-2.7,0.3-3.8,0.3-5.6v-54.5h18.2v24.5
		c5.1-5,11.6-7.8,19-7.8c17.1,0,30.2,14.5,30.2,31.3c3.5-18.9,19.4-31.3,38.1-31.3c18.8,0,35.3,12.5,38.7,31.6
		c0.5-17.6,13.3-31.1,37.5-31.1l0,0h2V243.3z"/>
</g>
</svg>
