<?xml version="1.0" encoding="utf-8"?>
<!-- Generator: Adobe Illustrator 27.7.0, SVG Export Plug-In . SVG Version: 6.00 Build 0)  -->
<svg version="1.1" id="Layer_1" xmlns="http://www.w3.org/2000/svg" xmlns:xlink="http://www.w3.org/1999/xlink" x="0px" y="0px"
	 viewBox="0 0 512 512" style="enable-background:new 0 0 512 512;" xml:space="preserve">
<style type="text/css">
	.st0{fill-rule:evenodd;clip-rule:evenodd;fill:#FFFFFF;}
</style>
<g>
	<path class="st0" d="M293,1.8C363.2-7.8,402.5,22,410.9,91.2c-15.7,78-61.8,128.8-138.2,152.4c-18.7,5.7-37.6,7-56.9,4.1
		c-5.8-1.9-10.6-5.3-14.2-10.2c-2.7-12.2-2.7-24.4,0-36.6c57.9,6.3,104-15.4,138.2-65c12.3-18.7,16.4-39,12.2-61
		c-7.9-17.1-21.5-25.3-40.6-24.4c-38.5,6.4-69.7,25.4-93.5,56.9c-55.7,81.8-73.3,171.3-52.8,268.3c22.6,77.4,72.1,102.4,148.4,75.2
		c20.7-10.6,39.7-23.5,56.9-38.6c23.1,9.7,29.2,26,18.3,48.8c-63.3,55.5-133.1,65.6-209.3,30.5c-44.6-35.7-69.7-82.5-75.2-140.2
		C92,247.2,117.7,153.7,181.4,71C212.2,36.8,249.5,13.8,293,1.8z"/>
</g>
</svg>
