<?xml version="1.0" encoding="utf-8"?>
<!-- Generator: Adobe Illustrator 27.7.0, SVG Export Plug-In . SVG Version: 6.00 Build 0)  -->
<svg version="1.1"
	 id="svg974" xmlns:rdf="http://www.w3.org/1999/02/22-rdf-syntax-ns#" xmlns:svg="http://www.w3.org/2000/svg" xmlns:cc="http://creativecommons.org/ns#" xmlns:dc="http://purl.org/dc/elements/1.1/" xmlns:sodipodi="http://sodipodi.sourceforge.net/DTD/sodipodi-0.dtd" xmlns:inkscape="http://www.inkscape.org/namespaces/inkscape" sodipodi:docname="logo_pev2_2.svg"
	 xmlns="http://www.w3.org/2000/svg" xmlns:xlink="http://www.w3.org/1999/xlink" x="0px" y="0px" viewBox="0 0 512 512"
	 style="enable-background:new 0 0 512 512;" xml:space="preserve">
<style type="text/css">
	.st0{fill:#FFFFFF;}
</style>
<g>
	<path class="st0" d="M454.7,104.8L287.4,8.3c-19.5-11-43.4-11-62.9,0L57.3,104.8c-19.4,11.3-31.4,32-31.5,54.4v193.3
		c0,22.4,12.1,43.2,31.5,54.4l167.3,96.6c9.6,5.5,20.4,8.4,31.5,8.4v0c11,0,21.9-2.9,31.5-8.4l167.2-96.6
		c19.5-11.2,31.4-32,31.5-54.4V159.3C486.1,136.8,474.2,116.1,454.7,104.8z M453.6,352.5c0,10.8-5.8,20.7-15.1,26.1l-167.3,96.6
		c-9.3,5.3-20.8,5.3-30.1,0L73.6,378.6c-9.3-5.4-15.1-15.3-15.1-26.1V159.3c0-10.8,5.8-20.7,15.1-26.1l167.3-96.5
		c4.6-2.7,9.8-4.1,15.1-4.1h0c5.3,0,10.5,1.4,15.1,4l167.3,96.6c9.3,5.4,15.1,15.3,15.1,26.1V352.5z"/>
	<g id="layer10" inkscape:groupmode="layer" inkscape:label="Calque 7">
		<path id="path1881" inkscape:connector-curvature="0" class="st0" d="M228.8,113.1c-9,0-16.3,7.3-16.3,16.3v54.4
			c0,9,7.3,16.3,16.3,16.3h16.3v32.6h-87c-11.9,0-21.8,9.9-21.8,21.8v32.6H120c-9,0-16.3,7.3-16.3,16.3V358c0,9,7.3,16.3,16.3,16.3
			h54.4c9,0,16.3-7.3,16.3-16.3v-54.4c0-9-7.3-16.3-16.3-16.3h-16.3v-32.6h87v32.6h-16.3c-9,0-16.3,7.3-16.3,16.3V358
			c0,9,7.3,16.3,16.3,16.3h54.4c9,0,16.3-7.3,16.3-16.3v-54.4c0-9-7.3-16.3-16.3-16.3h-16.3v-32.6h87v32.6h-16.3
			c-9,0-16.3,7.3-16.3,16.3V358c0,9,7.3,16.3,16.3,16.3H392c9,0,16.3-7.3,16.3-16.3v-54.4c0-9-7.3-16.3-16.3-16.3h-16.3v-32.6
			c0-11.9-9.9-21.8-21.8-21.8h-87v-32.6h16.3c9,0,16.3-7.3,16.3-16.3v-54.4c0-9-7.3-16.3-16.3-16.3H228.8z"/>
	</g>
	<g id="layer9" inkscape:groupmode="layer" inkscape:label="Calque 6">
		<path id="path1877-9" inkscape:connector-curvature="0" class="st0" d="M375.7,287.2h-21.8h-16.3c-9,0-16.3,7.3-16.3,16.3V358
			c0,9,7.3,16.3,16.3,16.3H392c9,0,16.3-7.3,16.3-16.3v-54.4c0-9-7.3-16.3-16.3-16.3H375.7z"/>
	</g>
</g>
</svg>
