<?xml version="1.0" encoding="utf-8"?>
<!-- Generator: Adobe Illustrator 27.7.0, SVG Export Plug-In . SVG Version: 6.00 Build 0)  -->
<svg version="1.1" id="Layer_1" xmlns="http://www.w3.org/2000/svg" xmlns:xlink="http://www.w3.org/1999/xlink" x="0px" y="0px"
	 viewBox="0 0 512 512" style="enable-background:new 0 0 512 512;" xml:space="preserve">
<style type="text/css">
	.st0{fill:#FFFFFF;}
</style>
<g>
	<path class="st0" d="M384.6,210.3c-0.4-0.5-0.8-0.9-1.2-1.4c-0.1-0.2-0.2-0.3-0.4-0.5c-0.2-0.3-0.5-0.7-0.7-1
		c-0.1-0.2-0.3-0.4-0.4-0.6c-0.2-0.3-0.4-0.7-0.6-1c-0.1-0.2-0.2-0.5-0.3-0.7c-0.2-0.3-0.3-0.7-0.5-1c-0.1-0.2-0.2-0.5-0.3-0.7
		c-0.1-0.3-0.3-0.7-0.4-1c-0.1-0.2-0.2-0.5-0.2-0.7c-0.1-0.4-0.2-0.7-0.3-1.1c-0.1-0.2-0.1-0.5-0.2-0.7c-0.1-0.4-0.1-0.9-0.2-1.3
		c0-0.2-0.1-0.4-0.1-0.5c0,0,0-0.1,0-0.1c0,0,0-0.1,0-0.1c-0.1-0.6-0.1-1.1-0.1-1.7l-0.4-18.8l0-0.2c-0.3-5.2-0.6-9.9-1.2-14
		c-1.6-12-4.4-17.1-7.8-20.4c-3.4-3.4-8.5-6.2-20.4-7.8c-4-0.5-8.4-0.9-13.4-1.2l0,0l-0.7,0l0,0l-18.9-0.4c-0.6,0-1.1-0.1-1.7-0.1
		c0,0-0.1,0-0.1,0c0,0-0.1,0-0.1,0c-0.2,0-0.4-0.1-0.6-0.1c-0.4-0.1-0.9-0.1-1.3-0.2c-0.2,0-0.5-0.1-0.7-0.2
		c-0.4-0.1-0.7-0.2-1.1-0.3c-0.2-0.1-0.5-0.1-0.7-0.2c-0.4-0.1-0.7-0.2-1-0.4c-0.2-0.1-0.5-0.2-0.7-0.3c-0.3-0.1-0.7-0.3-1-0.5
		c-0.2-0.1-0.5-0.2-0.7-0.3c-0.3-0.2-0.7-0.4-1-0.6c-0.2-0.1-0.4-0.2-0.6-0.4c-0.3-0.2-0.7-0.5-1-0.7c-0.2-0.1-0.3-0.2-0.5-0.4
		c-0.5-0.4-1-0.8-1.4-1.2l-11.3-10.5c-1.1-1-2.1-2-3.1-2.9l-0.6-0.6c-3.9-3.5-7.4-6.5-10.7-9c-9.6-7.3-15.2-9-19.9-9
		c-4.8,0-10.4,1.7-19.9,9c-3.4,2.6-6.9,5.6-10.8,9.2L211.3,127c-0.5,0.5-1.1,1-1.6,1.4c0,0,0,0-0.1,0.1c-0.2,0.2-0.4,0.3-0.6,0.5
		c-0.2,0.2-0.4,0.3-0.7,0.5c-0.3,0.2-0.6,0.4-0.8,0.5c-0.2,0.1-0.5,0.3-0.7,0.4c-0.3,0.2-0.6,0.3-0.9,0.5c-0.2,0.1-0.5,0.2-0.7,0.3
		c-0.3,0.1-0.6,0.3-1,0.4c-0.2,0.1-0.5,0.2-0.7,0.3c-0.3,0.1-0.7,0.2-1.1,0.3c-0.2,0.1-0.4,0.1-0.6,0.2c-0.4,0.1-0.9,0.2-1.3,0.3
		c-0.1,0-0.3,0.1-0.4,0.1c-0.6,0.1-1.2,0.2-1.8,0.3c0,0,0,0,0,0c0,0,0,0,0,0c-0.6,0.1-1.1,0.1-1.7,0.1l-19.4,0.4c0,0,0,0,0,0l-0.3,0
		l0,0c-5.2,0.3-9.9,0.6-14,1.2c-12,1.6-17.1,4.4-20.4,7.8c-3.4,3.4-6.2,8.5-7.8,20.4c-0.5,4.1-0.9,8.6-1.2,13.7l0,0l0,0.4l0,0
		l-0.4,18.9c0,0.6-0.1,1.1-0.1,1.7c0,0,0,0.1,0,0.1c0,0,0,0.1,0,0.1c0,0.2-0.1,0.4-0.1,0.5c-0.1,0.4-0.1,0.9-0.2,1.3
		c0,0.2-0.1,0.5-0.2,0.7c-0.1,0.4-0.2,0.8-0.3,1.1c-0.1,0.2-0.1,0.5-0.2,0.7c-0.1,0.4-0.2,0.7-0.4,1.1c-0.1,0.2-0.2,0.5-0.3,0.7
		c-0.1,0.3-0.3,0.7-0.5,1c-0.1,0.2-0.2,0.5-0.3,0.7c-0.2,0.3-0.4,0.7-0.6,1c-0.1,0.2-0.2,0.4-0.4,0.6c-0.2,0.4-0.5,0.7-0.7,1
		c-0.1,0.2-0.2,0.3-0.4,0.5c-0.4,0.5-0.8,1-1.2,1.4L117,221.5c0,0,0,0,0,0l-3,3.2c0,0,0,0,0,0l-0.1,0.1l-0.3,0.4v0l-0.1,0.1
		c-3.5,3.9-6.5,7.4-9,10.7c-7.3,9.6-9,15.2-9,19.9s1.7,10.4,9,19.9c2.6,3.4,5.6,6.9,9.2,10.9l0.1,0.1c1.2,1.3,2.4,2.6,3.6,3.9
		l10.1,10.9c3.6,3.9,5.7,9,5.8,14.3l0.4,18.9l0,0.1l0,0c0.3,5.2,0.6,9.9,1.2,14c1.6,12,4.4,17.1,7.8,20.4c3.4,3.4,8.5,6.2,20.4,7.8
		c4.1,0.6,8.8,0.9,14,1.2l0,0l0.1,0l18.9,0.4c5.3,0.1,10.4,2.1,14.3,5.7l7.6,7c7,6.7,12.8,11.9,18.2,16c9.6,7.3,15.2,9,19.9,9
		c4.8,0,10.4-1.7,19.9-9c3.4-2.6,6.9-5.6,10.8-9.2l0.3-0.2c1.2-1.1,2.3-2.1,3.6-3.3l11.1-10.3c3.9-3.6,9-5.7,14.3-5.8l18.9-0.4
		l0.4,0l0,0c5.1-0.3,9.6-0.6,13.7-1.2c12-1.6,17.1-4.4,20.4-7.8c3.4-3.4,6.2-8.5,7.8-20.4c0.6-4.2,0.9-8.8,1.2-14l0-0.1l0.4-18.9
		c0.1-5.3,2.2-10.4,5.8-14.3l10.5-11.3c1-1.1,2-2.1,2.9-3.1l0.6-0.6c3.5-3.9,6.5-7.4,9-10.7c7.3-9.6,9-15.2,9-19.9s-1.7-10.4-9-19.9
		c-2.5-3.3-5.5-6.8-9-10.7l-0.5-0.6L384.6,210.3z M347.2,293.6c-0.2,22.8-1.4,35.4-9.7,43.6c-8.3,8.3-20.8,9.5-43.6,9.7
		c-16.3,16-26,24-37.7,24c-11.7,0-21.4-8-37.7-24c-22.8-0.2-35.4-1.4-43.6-9.7c-8.3-8.3-9.5-20.8-9.7-43.6c-16-16.3-24-26-24-37.7
		c0-11.7,8-21.4,24-37.7c0.2-22.8,1.4-35.4,9.7-43.6c8.3-8.3,20.8-9.5,43.6-9.7c16.3-16,26-24,37.7-24c11.7,0,21.4,8,37.7,24
		c22.8,0.2,35.4,1.4,43.6,9.7c8.3,8.3,9.5,20.8,9.7,43.6c16,16.3,24,26,24,37.7C371.2,267.5,363.2,277.3,347.2,293.6z"/>
	<path class="st0" d="M444,0H68C30.4,0,0,30.4,0,68v376c0,37.6,30.4,68,68,68h376c37.6,0,68-30.4,68-68V68C512,30.4,481.6,0,444,0z
		 M398.4,315c-0.3,35.7-2.2,55.4-15.1,68.3c-12.9,12.9-32.6,14.8-68.3,15.1c-25.5,25.1-40.7,37.6-59,37.6c-18.3,0-33.5-12.5-59-37.6
		c-35.7-0.3-55.4-2.2-68.3-15.1c-12.9-12.9-14.8-32.6-15.1-68.3C88.5,289.5,76,274.3,76,256c0-18.3,12.5-33.5,37.6-59
		c0.3-35.7,2.2-55.4,15.1-68.3c12.9-12.9,32.6-14.8,68.3-15.1C222.5,88.5,237.7,76,256,76c18.3,0,33.5,12.5,59,37.6
		c35.7,0.3,55.4,2.2,68.3,15.1c12.9,12.9,14.8,32.6,15.1,68.3c25.1,25.5,37.6,40.7,37.6,59C436,274.3,423.5,289.5,398.4,315z"/>
	<path class="st0" d="M347.2,246.9v0.2l-15.1-16.4c-0.1-0.2-0.3-0.3-0.4-0.5c-0.6-0.6-1.2-1.2-1.9-1.9c-1.3-2-2-4.4-2.1-6.8l-1-23.7
		l0,0c0-0.1,0-0.3-0.1-0.5c-0.9-6.9-2.3-8.4-3-9c-0.6-0.6-2.2-2-9-3c-0.1,0-0.2,0-0.3,0l-0.1-0.1l-0.1,0l0.1,0.1l-22.2-1
		c-2.4-0.1-4.7-0.8-6.7-2.1c-1.6-0.6-3.1-1.5-4.3-2.7l-16.2-14.7h0.2c-0.1-0.1-0.2-0.2-0.4-0.3c-5.5-4.2-7.6-4.3-8.5-4.3
		c-0.9,0-3,0.1-8.5,4.3c-0.1,0.1-0.2,0.1-0.3,0.2h0l-0.1,0.1h0l-15.7,14.4c-1.4,1.3-3.1,2.3-4.9,2.9c-2.1,1.3-4.4,2.1-6.9,2.2
		l-21.9,1l0.1-0.1c-0.1,0-0.3,0-0.4,0.1c-6.9,0.9-8.4,2.3-9,3c-0.6,0.6-2,2.2-3,9c0,0.1,0,0.2,0,0.3l-0.1,0.1l-0.1,0.9
		c-0.3,3-0.6,6.5-0.7,10.6l-0.8,12.9c-0.2,3.2-1.5,6.2-3.6,8.5L165.1,247v0c-0.1,0.1-0.2,0.2-0.3,0.4c-4.2,5.5-4.3,7.6-4.3,8.5
		c0,0.9,0.1,3,4.3,8.5c0.1,0.1,0.2,0.2,0.2,0.3v0l0,0l0.1,0.1c2.1,2.7,4.7,5.7,8.1,9.2l7.9,9c1.5,1.7,2.5,3.7,3.1,5.9
		c0.1,0.6,0.2,1.2,0.2,1.8l0.1,2.3c0.1,8.8,0.3,15.3,0.9,20.4l0,0.5l0.1,0.1l0,0.1l0,0.3c0.9,6.9,2.3,8.4,3,9c0.6,0.6,2.2,2,9,3
		c0.1,0,0.3,0,0.5,0.1c5.2,0.7,11.6,0.9,20.5,0.9l2.9,0.1c3.2,0.2,6.3,1.4,8.7,3.6l1,0.9c6.5,6.4,11.3,11,15.5,14.3
		c0.2,0.1,0.3,0.2,0.5,0.4l0.1,0.1l0.1,0.1h0c0.1,0.1,0.2,0.1,0.2,0.2c5.5,4.2,7.6,4.3,8.5,4.3c0.9,0,3-0.1,8.5-4.3
		c0.1-0.1,0.2-0.2,0.4-0.3c4.4-3.4,9.5-8.2,16.4-15.1l0.3-0.2c2.3-2.1,5.3-3.4,8.5-3.6l11.1-0.7c4.8-0.1,8.7-0.3,12.1-0.7l0.3,0
		l0.5,0l0,0l0.5-0.1c6.9-0.9,8.4-2.3,9-3c0.6-0.6,2-2.2,3-9l0.1-0.5l-0.1,0.1l1.1-22.7c0.2-3.2,1.4-6.2,3.5-8.5l8.3-9.4
		c2.6-2.8,4.8-5.2,6.6-7.5l1-1.2v-0.1c0.1-0.1,0.2-0.2,0.2-0.3c4.2-5.5,4.3-7.6,4.3-8.5c0-0.9-0.1-3-4.3-8.5
		c-0.1-0.1-0.2-0.2-0.2-0.3L347.2,246.9L347.2,246.9z"/>
</g>
</svg>
