<?xml version="1.0" encoding="utf-8"?>
<!-- Generator: Adobe Illustrator 27.7.0, SVG Export Plug-In . SVG Version: 6.00 Build 0)  -->
<svg version="1.1" id="Layer_1" xmlns="http://www.w3.org/2000/svg" xmlns:xlink="http://www.w3.org/1999/xlink" x="0px" y="0px"
	 viewBox="0 0 512 512" style="enable-background:new 0 0 512 512;" xml:space="preserve">
<style type="text/css">
	.st0{fill-rule:evenodd;clip-rule:evenodd;fill:#FFFFFF;}
</style>
<path class="st0" d="M256,0C114.6,0,0,114.6,0,256s114.6,256,256,256s256-114.6,256-256S397.4,0,256,0z M355.4,330.1
	c-23,0-91.1-48-99-48c-7.9,0-76,48-99,48C134,330.1,48,240,53.2,228.5c9.5-6.3,91.9,25.5,105,25.5c12.2,0,83.3-55.4,98.2-55.4
	c14.9,0,86.1,55.5,98.1,55.5c13.1,0,95.5-32,105-25.5C464.8,240,378.8,330.1,355.4,330.1z"/>
</svg>
