<?xml version="1.0" encoding="utf-8"?>
<!-- Generator: Adobe Illustrator 27.7.0, SVG Export Plug-In . SVG Version: 6.00 Build 0)  -->
<svg version="1.1"
	 id="svg44" xmlns:sodipodi="http://sodipodi.sourceforge.net/DTD/sodipodi-0.dtd" xmlns:dc="http://purl.org/dc/elements/1.1/" xmlns:inkscape="http://www.inkscape.org/namespaces/inkscape" xmlns:cc="http://creativecommons.org/ns#" xmlns:rdf="http://www.w3.org/1999/02/22-rdf-syntax-ns#" xmlns:svg="http://www.w3.org/2000/svg" inkscape:export-filename="/home/umarcor/filebrowser/logo/icon_raw.svg.png" inkscape:export-xdpi="96" inkscape:export-ydpi="96" sodipodi:docname="icon_raw.svg"
	 xmlns="http://www.w3.org/2000/svg" xmlns:xlink="http://www.w3.org/1999/xlink" x="0px" y="0px" viewBox="0 0 512 512"
	 style="enable-background:new 0 0 512 512;" xml:space="preserve">
<style type="text/css">
	.st0{fill-rule:evenodd;clip-rule:evenodd;fill:#FEFEFE;}
	.st1{fill-rule:evenodd;clip-rule:evenodd;fill:#332C2B;fill-opacity:0.149;}
	.st2{fill-rule:evenodd;clip-rule:evenodd;fill:#2BBCFF;}
	.st3{fill-rule:evenodd;clip-rule:evenodd;fill:#53C6FC;}
	.st4{fill-rule:evenodd;clip-rule:evenodd;fill:#BDEAFF;}
	.st5{fill-rule:evenodd;clip-rule:evenodd;fill:#006498;}
	.st6{fill-rule:evenodd;clip-rule:evenodd;fill:#0EA5EB;}
	.st7{fill-rule:evenodd;clip-rule:evenodd;fill:#2979FF;}
</style>
<g>
	
		<sodipodi:namedview  bordercolor="#666666" borderopacity="1" gridtolerance="10" guidetolerance="10" id="namedview46" inkscape:current-layer="svg44" inkscape:cx="-172.33051" inkscape:cy="280" inkscape:pageopacity="0" inkscape:pageshadow="2" inkscape:window-height="711" inkscape:window-maximized="1" inkscape:window-width="1366" inkscape:window-x="0" inkscape:window-y="20" inkscape:zoom="0.33714286" objecttolerance="10" pagecolor="#ffffff" showgrid="false">
		</sodipodi:namedview>
	<g id="g85" transform="translate(-70,-70)">
		<path id="path9" inkscape:connector-curvature="0" class="st0" d="M326,70.9c140.8,0,255.1,114.3,255.1,255.1
			S466.8,581.1,326,581.1S70.9,466.8,70.9,326S185.2,70.9,326,70.9z"/>
		<path id="path11" inkscape:connector-curvature="0" class="st1" d="M440.3,221.8l107.9,138.1c2.7,106.1-136.2,230.4-267,181
			l-69.5-90.5l104.2-142.6C315.9,307.7,442.1,220.9,440.3,221.8z"/>
		<path id="path13" inkscape:connector-curvature="0" class="st2" d="M217.2,198.9h190.2l34.7,21.9v224.9c0,4.6-2.7,7.3-7.3,7.3
			H217.2c-4.6,0-7.3-2.7-7.3-7.3V206.2C209.9,201.7,212.6,198.9,217.2,198.9z"/>
		<path id="path15" inkscape:connector-curvature="0" class="st3" d="M217.2,198.9h190.2l34.7,21.9v1.8l-33.8-21H217.2
			c-3.7,0-6.4,2.7-6.4,6.4v240.5c-0.9-0.9-0.9-1.8-0.9-2.7V206.2C209.9,201.7,212.6,198.9,217.2,198.9z"/>
		<polygon id="polygon17" class="st4" points="284.9,199.8 388.2,199.8 388.2,289.4 284.9,289.4 		"/>
		<path id="path19" inkscape:connector-curvature="0" class="st4" d="M239.1,337.9h172.8c2.7,0,4.6,1.8,4.6,3.7v106.1H234.6V341.5
			C234.6,339.7,236.4,337.9,239.1,337.9z"/>
		<polygon id="polygon21" class="st5" points="234.6,435.7 416.5,435.7 416.5,447.6 234.6,447.6 		"/>
		<path id="path23" inkscape:connector-curvature="0" class="st5" d="M353.4,212.6h9.1c2.7,0,5.5,1.8,5.5,4.6v36.6
			c0,2.7-2.7,5.5-5.5,5.5h-9.1c-2.7,0-5.5-2.7-5.5-5.5v-36.6C347.9,214.5,350.7,212.6,353.4,212.6z"/>
		<path id="path25" inkscape:connector-curvature="0" class="st0" d="M238.2,212.6c9.1,0,15.5,6.4,15.5,15.5
			c0,8.2-6.4,14.6-15.5,14.6c-8.2,0-15.5-6.4-15.5-14.6C222.7,219,230,212.6,238.2,212.6z"/>
		<path id="path27" inkscape:connector-curvature="0" class="st5" d="M250.1,415.6H401c1.8,0,2.7,0.9,2.7,2.7l0,0
			c0,0.9-0.9,2.7-2.7,2.7H250.1c-1.8,0-2.7-1.8-2.7-2.7l0,0C247.4,416.5,248.3,415.6,250.1,415.6z"/>
		<path id="path29" inkscape:connector-curvature="0" class="st5" d="M250.1,385.4H401c1.8,0,2.7,0.9,2.7,2.7l0,0
			c0,0.9-0.9,1.8-2.7,1.8H250.1c-1.8,0-2.7-0.9-2.7-1.8l0,0C247.4,386.3,248.3,385.4,250.1,385.4z"/>
		<path id="path31" inkscape:connector-curvature="0" class="st5" d="M250.1,354.3H401c1.8,0,2.7,1.8,2.7,2.7l0,0
			c0,1.8-0.9,2.7-2.7,2.7H250.1c-1.8,0-2.7-0.9-2.7-2.7l0,0C247.4,356.2,248.3,354.3,250.1,354.3z"/>
		<path id="path33" inkscape:connector-curvature="0" class="st0" d="M221.8,437.5c2.7,0,4.6,1.8,4.6,4.6c0,1.8-1.8,3.7-4.6,3.7
			s-4.6-1.8-4.6-3.7C217.2,439.4,219,437.5,221.8,437.5z"/>
		<path id="path35" inkscape:connector-curvature="0" class="st0" d="M429.3,437.5c2.7,0,4.6,1.8,4.6,4.6c0,1.8-1.8,3.7-4.6,3.7
			c-2.7,0-4.6-1.8-4.6-3.7C424.7,439.4,426.6,437.5,429.3,437.5z"/>
		<polygon id="polygon37" class="st5" points="284.9,199.8 265.7,199.8 265.7,289.4 284.9,289.4 		"/>
		<path id="path39" inkscape:connector-curvature="0" class="st6" d="M442.1,443.9v1.8c0,4.6-2.7,7.3-7.3,7.3H217.2
			c-4.6,0-7.3-2.7-7.3-7.3v-1.8c0,3.7,2.7,7.3,7.3,7.3h217.6C439.4,451.3,442.1,447.6,442.1,443.9z"/>
		<path id="path41" inkscape:connector-curvature="0" class="st7" d="M326,70c141.7,0,256,114.3,256,256S467.7,582,326,582
			S70,467.7,70,326S184.3,70,326,70z M326,112.1c117.9,0,213.9,96,213.9,213.9s-96,213.9-213.9,213.9s-213.9-96-213.9-213.9
			S208.1,112.1,326,112.1z"/>
	</g>
</g>
</svg>
