<?xml version="1.0" encoding="utf-8"?>
<!-- Generator: Adobe Illustrator 27.7.0, SVG Export Plug-In . SVG Version: 6.00 Build 0)  -->
<svg version="1.1" id="Layer_1" xmlns="http://www.w3.org/2000/svg" xmlns:xlink="http://www.w3.org/1999/xlink" x="0px" y="0px"
	 viewBox="0 0 512 512" style="enable-background:new 0 0 512 512;" xml:space="preserve">
<style type="text/css">
	.st0{fill:#FFFFFF;}
</style>
<path class="st0" d="M476.9,270.6c5.5-1.1,10.2-3.6,13.8-7.3c14.6-19.3,2.9-43-16.4-45.9c-2.9,0-5.5-2.9-5.5-5.5c0-1.1,0-1.8,0-1.8
	c2.9-2.9,5.5-6.6,9.1-12c29.5-39.4,43-184.4,13.8-195.7c-35.7-12-108.2,23-139.6,63.4c-1.8-1.1-3.6-3.6-3.6-6.6
	c1.1-10.9-4.7-20-12.8-24.8c-16.4-8.4-32.1,0-38.6,12c-1.8,2.9-4.7,4.7-7.3,3.6c-2.9,0-5.5-2.9-5.5-5.5c-1.8-9.1-7.3-16.4-15.7-20
	c-17.5-7.3-35.7,2.9-38.6,19.3c-1.1,2.9-2.9,5.5-5.5,5.5c-2.9,1.1-5.5-1.1-7.3-3.6c-5.5-8.4-14.6-13.8-23.7-13.8
	c-14.6,0-27.7,12-28.4,26.6v1.1v1.1c0,2.9-1.8,5.5-3.6,6.6h-1.1C130.3,27.9,56.7-8.2,20.3,3.9C-9.2,14.1,4.6,159.1,34.9,198.5
	c5.5,7.3,10.2,12.8,13.8,16.4c-1.1,2.9-3.6,5.5-6.6,5.5c-4.7,0-9.1,1.8-12.8,4.7c-19.3,18.2-8.4,44.1,10.9,48.8
	c2.9,1.1,5.5,3.6,5.5,6.6c0,2.9-1.8,6.6-4.7,7.3c-3.6,1.8-7.3,3.6-10.2,7.3c-14.6,21.1,0,44.8,20,44.8c2.9,0,5.5,1.8,6.6,4.7
	c1.1,2.9,1.1,5.5-1.8,7.3c-5.5,5.5-8.4,12.8-7.3,20c1.1,10.2,7.3,19.3,17.5,23.7c5.5,2.9,10.9,2.9,16.4,1.8c2.9-1.1,5.5,0,7.3,2.9
	c1.8,1.8,1.8,5.5,1.1,7.3c-2.9,5.5-3.6,12-1.8,18.2c2.9,10.2,10.2,17.5,20,20c9.1,1.8,15.7-1.1,20-2.9c1.8-1.1-12,33.2-21.9,56.1
	c-2.9,7.3,4.7,15.7,12.8,12c30.2-13.8,80.9-37.5,80.9-35.7c1.8,19.3,23.7,33.2,44.8,19.3c4.7-2.9,7.3-8.4,8.4-12.8
	c1.1-2.9,3.6-5.5,7.3-5.5s6.6,1.8,7.3,5.5c1.1,4.7,2.9,8.4,6.6,10.9c21.1,16.4,44.8,2.9,46.6-17.5c0-2.9,1.8-5.5,4.7-6.6
	c2.9-1.1,5.5,0,7.3,1.8c5.5,5.5,12,9.1,19.3,9.1c9.1,0,18.2-4.7,23.7-13.8c3.6-5.5,4.7-10.9,3.6-18.2c0-2.9,1.1-5.5,2.9-7.3
	c1.8-1.8,5.5-1.8,7.3,0c5.5,2.9,12,4.7,18.2,2.9c10.2-1.8,18.2-10.2,21.1-19.3c1.8-6.6,1.1-12.8-1.8-19.3c-1.1-2.9-1.1-5.5,1.1-7.3
	c2.2-1.8,4.7-2.9,7.3-2.9c6.6,1.1,12,1.1,17.5-1.8c8.4-3.6,13.8-10.9,15.7-20c1.8-9.1-1.1-17.5-7.3-23.7c-1.8-1.8-2.9-4.7-1.8-7.3
	c1.1-2.6,3.6-4.7,6.6-4.7c6.6,0,13.8-1.8,18.2-7.3c15.7-16.4,8.4-38.6-9.1-45.9c-2.9-1.1-4.7-3.6-4.7-7.3
	C471.4,273.2,474,270.6,476.9,270.6z M108.5,102.6c-1.8,1.8-4.4,2.9-7.3,1.8c-5.5-2.2-10.9-2.9-16.4-1.1c-9.8,2.9-18.2,10.9-20,21.1
	c-1.1,7.3,0,14.6,4.7,21.1c1.1,1.8,1.8,4.4,0,7.3c-1.1,1.1-1.8,1.8-2.9,2.9c-6.6-1.1-10.9-3.6-14.6-9.1
	c-16.8-23-19.7-95.5-3.3-100.9c16.4-5.5,47,6.6,67.1,23c-2.6,2.9-4.4,6.6-5.5,10.2c-1.8,5.5-1.8,10.9,0,16.4
	C111.4,97.9,110.3,100.8,108.5,102.6z M146.4,302.7c-18.7,0-33.9-15.2-33.9-33.9c0-18.7,15.2-33.9,33.9-33.9
	c18.7,0,33.9,15.2,33.9,33.9C180.3,287.5,165.1,302.7,146.4,302.7z M257.5,302.7c-19.3,0-33.9-15.7-33.9-33.9s67.8-19.3,67.8,0
	C291.4,288.1,275.7,302.7,257.5,302.7z M367.6,302.7c-18.7,0-33.9-15.2-33.9-33.9c0-18.7,15.2-33.9,33.9-33.9
	c18.7,0,33.9,15.2,33.9,33.9C401.5,287.5,386.3,302.7,367.6,302.7z M459,147.4c-2.9,3.6-6.6,6.2-10.2,7.3c-1.8,0-2.6-1.8-3.6-2.9
	c-1.8-1.8-1.8-5.5,0-7.3c2.9-4.4,4.7-9.1,4.7-14.6c1.1-6.6-1.8-12.8-5.5-17.5c-5.5-7.3-12.8-10.9-21.1-10.9c-3.6,0-7.3,0-10.9,1.8
	c-2.6,1.1-5.5,0-7.3-1.8c-1.8-1.8-2.9-4.4-1.8-7.3c1.8-5.5,1.8-10.9,0-16.4c-0.7-4.7-2.6-7.7-6.6-9.5C417.1,52,445.6,41,461.9,46.5
	C478.3,52,475.4,124.5,459,147.4z"/>
</svg>
