<?xml version="1.0" encoding="utf-8"?>
<!-- Generator: Adobe Illustrator 27.7.0, SVG Export Plug-In . SVG Version: 6.00 Build 0)  -->
<svg version="1.1" id="Layer_1" xmlns="http://www.w3.org/2000/svg" xmlns:xlink="http://www.w3.org/1999/xlink" x="0px" y="0px"
	 viewBox="0 0 512 512" style="enable-background:new 0 0 512 512;" xml:space="preserve">
<style type="text/css">
	.st0{fill:url(#SVGID_1_);}
	.st1{fill:url(#SVGID_00000028285815649544143850000007290315995124912046_);}
	.st2{fill:url(#SVGID_00000032609664049339289020000007020902548770369713_);}
	.st3{fill:url(#SVGID_00000030456326386507287450000011996499091751465624_);filter:url(#Adobe_OpacityMaskFilter);}
	.st4{fill:url(#SVGID_00000047053167660932810830000013591657858724007570_);}
	.st5{fill:url(#SVGID_00000008863051311915038120000009611697420649498549_);}
	.st6{mask:url(#mask0_2625_5904_00000098199285827421557360000011581235811827087285_);}
	.st7{fill-opacity:0.1;filter:url(#Adobe_OpacityMaskFilter_00000075140112427641156520000016489561771776732845_);}
	.st8{fill-opacity:0.1;}
	.st9{mask:url(#mask1_2625_5904_00000053512147891752820550000002564358183562044325_);}
	.st10{fill:#00C4B8;}
</style>
<g>
	
		<linearGradient id="SVGID_1_" gradientUnits="userSpaceOnUse" x1="221.3682" y1="79.6253" x2="66.8206" y2="79.0004" gradientTransform="matrix(1 0 0 -1 0 514)">
		<stop  offset="0" style="stop-color:#00E6CA"/>
		<stop  offset="1" style="stop-color:#00C4B8"/>
	</linearGradient>
	<path class="st0" d="M66.8,357.9h153.9v76.9c0,42.5-34.4,76.9-76.9,76.9l0,0c-42.5,0-76.9-34.4-76.9-76.9V357.9z"/>
	
		<linearGradient id="SVGID_00000102537272111332131110000000520542367973176452_" gradientUnits="userSpaceOnUse" x1="453.1643" y1="259.4088" x2="66.8289" y2="255.5067" gradientTransform="matrix(1 0 0 -1 0 514)">
		<stop  offset="0" style="stop-color:#00E6CA"/>
		<stop  offset="1" style="stop-color:#00C4B8"/>
	</linearGradient>
	<path style="fill:url(#SVGID_00000102537272111332131110000000520542367973176452_);" d="M66.8,180h307.7
		c42.5,0,76.9,34.4,76.9,76.9l0,0c0,42.5-34.4,76.9-76.9,76.9H66.8V180z"/>
	
		<linearGradient id="SVGID_00000041269031989728154110000016530028905796358308_" gradientUnits="userSpaceOnUse" x1="453.1705" y1="436.7059" x2="66.8351" y2="432.8039" gradientTransform="matrix(1 0 0 -1 0 514)">
		<stop  offset="0" style="stop-color:#00E6CA"/>
		<stop  offset="1" style="stop-color:#00C4B8"/>
	</linearGradient>
	<path style="fill:url(#SVGID_00000041269031989728154110000016530028905796358308_);" d="M66.8,123.4c0-67,54.3-121.4,121.4-121.4
		h186.4c42.5,0,76.9,34.4,76.9,76.9l0,0c0,42.5-34.4,76.9-76.9,76.9H66.8V123.4z"/>
	<defs>
		<filter id="Adobe_OpacityMaskFilter" filterUnits="userSpaceOnUse" x="-125.5" y="-156.6" width="413.5" height="817.4">
			<feColorMatrix  type="matrix" values="1 0 0 0 0  0 1 0 0 0  0 0 1 0 0  0 0 0 1 0"/>
		</filter>
	</defs>
	
		<mask maskUnits="userSpaceOnUse" x="-125.5" y="-156.6" width="413.5" height="817.4" id="mask0_2625_5904_00000098199285827421557360000011581235811827087285_">
		
			<linearGradient id="SVGID_00000086687389149614661090000004472008229059221437_" gradientUnits="userSpaceOnUse" x1="-375.0775" y1="204.0082" x2="-415.7419" y2="203.8438" gradientTransform="matrix(1 0 0 -1 0 514)">
			<stop  offset="0" style="stop-color:#00FFE1"/>
			<stop  offset="1" style="stop-color:#01E0C6"/>
		</linearGradient>
		<path style="fill:url(#SVGID_00000086687389149614661090000004472008229059221437_);filter:url(#Adobe_OpacityMaskFilter);" d="
			M-415.7,289.9h40.5v20.2c0,11.2-9.1,20.2-20.2,20.2l0,0c-11.2,0-20.2-9.1-20.2-20.2V289.9z"/>
		
			<linearGradient id="SVGID_00000023273881720131685460000007849306315418624128_" gradientUnits="userSpaceOnUse" x1="-314.0876" y1="251.3127" x2="-415.7397" y2="250.286" gradientTransform="matrix(1 0 0 -1 0 514)">
			<stop  offset="0" style="stop-color:#00FFE1"/>
			<stop  offset="1" style="stop-color:#01E0C6"/>
		</linearGradient>
		<path style="fill:url(#SVGID_00000023273881720131685460000007849306315418624128_);" d="M-415.7,243.1h81
			c11.2,0,20.2,9.1,20.2,20.2l0,0c0,11.2-9.1,20.2-20.2,20.2h-81V243.1z"/>
		
			<linearGradient id="SVGID_00000139269993857020876260000003338576658340407941_" gradientUnits="userSpaceOnUse" x1="-314.0859" y1="297.9629" x2="-415.7381" y2="296.9362" gradientTransform="matrix(1 0 0 -1 0 514)">
			<stop  offset="0" style="stop-color:#00FFE1"/>
			<stop  offset="1" style="stop-color:#01E0C6"/>
		</linearGradient>
		<path style="fill:url(#SVGID_00000139269993857020876260000003338576658340407941_);" d="M-415.7,228.2
			c0-17.6,14.3-31.9,31.9-31.9h49c11.2,0,20.2,9.1,20.2,20.2l0,0c0,11.2-9.1,20.2-20.2,20.2h-81V228.2z"/>
	</mask>
	<g class="st6">
		<g>
			<defs>
				
					<filter id="Adobe_OpacityMaskFilter_00000083088701290292574830000010854068281187172248_" filterUnits="userSpaceOnUse" x="-53.4" y="-156.6" width="341.4" height="817.4">
					<feColorMatrix  type="matrix" values="1 0 0 0 0  0 1 0 0 0  0 0 1 0 0  0 0 0 1 0"/>
				</filter>
			</defs>
			
				<mask maskUnits="userSpaceOnUse" x="-53.4" y="-156.6" width="341.4" height="817.4" id="mask1_2625_5904_00000053512147891752820550000002564358183562044325_">
				<path style="fill-opacity:0.1;filter:url(#Adobe_OpacityMaskFilter_00000083088701290292574830000010854068281187172248_);" d="
					M-415.7,289.9h40.5v20.2c0,11.2-9.1,20.2-20.2,20.2l0,0c-11.2,0-20.2-9.1-20.2-20.2V289.9z"/>
				<path class="st8" d="M-415.7,228.2c0-17.6,14.3-31.9,31.9-31.9h49c11.2,0,20.2,9.1,20.2,20.2l0,0c0,11.2-9.1,20.2-20.2,20.2h-81
					V228.2z"/>
				<path class="st8" d="M-415.7,243.1h81c11.2,0,20.2,9.1,20.2,20.2l0,0c0,11.2-9.1,20.2-20.2,20.2h-81V243.1z"/>
			</mask>
			<g class="st9">
				<path class="st8" d="M74.9-130.4c60.3-58.8,213.1,0,213.1,0H74.9c-14.8,14.4-24,36-24,67.3c0,158.5,171.7,216.2,171.7,326.6
					c0,108.2-164.6,174.9-171.5,321.8H288c0,0-237.1,163.3-237.1,9.6c0-3.2,0.1-6.4,0.2-9.6H-53.4l20.4-715.7H74.9z"/>
			</g>
		</g>
		<g>
			<circle class="st10" cx="18.7" cy="444.5" r="144.2"/>
		</g>
		<g>
			<circle class="st10" cx="18.7" cy="79" r="144.2"/>
		</g>
	</g>
</g>
</svg>
