<?xml version="1.0" encoding="utf-8"?>
<!-- Generator: Adobe Illustrator 27.7.0, SVG Export Plug-In . SVG Version: 6.00 Build 0)  -->
<svg version="1.1" id="Layer_1" xmlns="http://www.w3.org/2000/svg" xmlns:xlink="http://www.w3.org/1999/xlink" x="0px" y="0px"
	 viewBox="0 0 512 512" style="enable-background:new 0 0 512 512;" xml:space="preserve">
<style type="text/css">
	.st0{fill:#FFFFFF;}
	.st1{fill:url(#SVGID_1_);filter:url(#Adobe_OpacityMaskFilter);}
	.st2{fill:url(#SVGID_00000009549201347138007060000007905312686593016252_);}
	.st3{fill:url(#SVGID_00000013188214947376814890000015032345727628500895_);}
	.st4{mask:url(#mask0_2625_5904_00000098199285827421557360000011581235811827087285_);}
	.st5{fill-opacity:0.1;filter:url(#Adobe_OpacityMaskFilter_00000114782702568627536890000006650418348836465037_);}
	.st6{fill-opacity:0.1;}
	.st7{mask:url(#mask1_2625_5904_00000053512147891752820550000002564358183562044325_);}
</style>
<g>
	<path class="st0" d="M66.8,357.9h153.9v76.9c0,42.5-34.4,76.9-76.9,76.9l0,0c-42.5,0-76.9-34.4-76.9-76.9V357.9z"/>
	<path class="st0" d="M66.8,180h307.7c42.5,0,76.9,34.4,76.9,76.9l0,0c0,42.5-34.4,76.9-76.9,76.9H66.8V180z"/>
	<path class="st0" d="M66.8,123.4c0-67,54.3-121.4,121.4-121.4h186.4c42.5,0,76.9,34.4,76.9,76.9l0,0c0,42.5-34.4,76.9-76.9,76.9
		H66.8V123.4z"/>
	<defs>
		<filter id="Adobe_OpacityMaskFilter" filterUnits="userSpaceOnUse" x="-125.5" y="-156.6" width="413.5" height="817.4">
			<feColorMatrix  type="matrix" values="1 0 0 0 0  0 1 0 0 0  0 0 1 0 0  0 0 0 1 0"/>
		</filter>
	</defs>
	
		<mask maskUnits="userSpaceOnUse" x="-125.5" y="-156.6" width="413.5" height="817.4" id="mask0_2625_5904_00000098199285827421557360000011581235811827087285_">
		
			<linearGradient id="SVGID_1_" gradientUnits="userSpaceOnUse" x1="-375.0775" y1="204.0082" x2="-415.7419" y2="203.8438" gradientTransform="matrix(1 0 0 -1 0 514)">
			<stop  offset="0" style="stop-color:#00FFE1"/>
			<stop  offset="1" style="stop-color:#01E0C6"/>
		</linearGradient>
		<path class="st1" d="M-415.7,289.9h40.5v20.2c0,11.2-9.1,20.2-20.2,20.2l0,0c-11.2,0-20.2-9.1-20.2-20.2V289.9z"/>
		
			<linearGradient id="SVGID_00000105409634519028762410000005450126039764438712_" gradientUnits="userSpaceOnUse" x1="-314.0876" y1="251.3127" x2="-415.7397" y2="250.286" gradientTransform="matrix(1 0 0 -1 0 514)">
			<stop  offset="0" style="stop-color:#00FFE1"/>
			<stop  offset="1" style="stop-color:#01E0C6"/>
		</linearGradient>
		<path style="fill:url(#SVGID_00000105409634519028762410000005450126039764438712_);" d="M-415.7,243.1h81
			c11.2,0,20.2,9.1,20.2,20.2l0,0c0,11.2-9.1,20.2-20.2,20.2h-81V243.1z"/>
		
			<linearGradient id="SVGID_00000115501795266971354310000015719618488147616944_" gradientUnits="userSpaceOnUse" x1="-314.0859" y1="297.9629" x2="-415.7381" y2="296.9362" gradientTransform="matrix(1 0 0 -1 0 514)">
			<stop  offset="0" style="stop-color:#00FFE1"/>
			<stop  offset="1" style="stop-color:#01E0C6"/>
		</linearGradient>
		<path style="fill:url(#SVGID_00000115501795266971354310000015719618488147616944_);" d="M-415.7,228.2
			c0-17.6,14.3-31.9,31.9-31.9h49c11.2,0,20.2,9.1,20.2,20.2l0,0c0,11.2-9.1,20.2-20.2,20.2h-81V228.2z"/>
	</mask>
	<g class="st4">
		<g>
			<defs>
				
					<filter id="Adobe_OpacityMaskFilter_00000002356325220903684840000013944695928516635300_" filterUnits="userSpaceOnUse" x="-53.4" y="-156.6" width="341.4" height="817.4">
					<feColorMatrix  type="matrix" values="1 0 0 0 0  0 1 0 0 0  0 0 1 0 0  0 0 0 1 0"/>
				</filter>
			</defs>
			
				<mask maskUnits="userSpaceOnUse" x="-53.4" y="-156.6" width="341.4" height="817.4" id="mask1_2625_5904_00000053512147891752820550000002564358183562044325_">
				<path style="fill-opacity:0.1;filter:url(#Adobe_OpacityMaskFilter_00000002356325220903684840000013944695928516635300_);" d="
					M-415.7,289.9h40.5v20.2c0,11.2-9.1,20.2-20.2,20.2l0,0c-11.2,0-20.2-9.1-20.2-20.2V289.9z"/>
				<path class="st6" d="M-415.7,228.2c0-17.6,14.3-31.9,31.9-31.9h49c11.2,0,20.2,9.1,20.2,20.2l0,0c0,11.2-9.1,20.2-20.2,20.2h-81
					V228.2z"/>
				<path class="st6" d="M-415.7,243.1h81c11.2,0,20.2,9.1,20.2,20.2l0,0c0,11.2-9.1,20.2-20.2,20.2h-81V243.1z"/>
			</mask>
			<g class="st7">
				<path class="st6" d="M74.9-130.4c60.3-58.8,213.1,0,213.1,0H74.9c-14.8,14.4-24,36-24,67.3c0,158.5,171.7,216.2,171.7,326.6
					c0,108.2-164.6,174.9-171.5,321.8H288c0,0-237.1,163.3-237.1,9.6c0-3.2,0.1-6.4,0.2-9.6H-53.4l20.4-715.7H74.9z"/>
			</g>
		</g>
		<g>
			<circle class="st0" cx="18.7" cy="444.5" r="144.2"/>
		</g>
		<g>
			<circle class="st0" cx="18.7" cy="79" r="144.2"/>
		</g>
	</g>
</g>
</svg>
