<?xml version="1.0" encoding="utf-8"?>
<!-- Generator: Adobe Illustrator 27.7.0, SVG Export Plug-In . SVG Version: 6.00 Build 0)  -->
<svg version="1.1" id="Layer_1" xmlns="http://www.w3.org/2000/svg" xmlns:xlink="http://www.w3.org/1999/xlink" x="0px" y="0px"
	 viewBox="0 0 512 512" style="enable-background:new 0 0 512 512;" xml:space="preserve">
<style type="text/css">
	.st0{fill:#FFFFFF;}
	.st1{fill:#F58320;}
</style>
<g id="fa_horizontal_text_white_orange">
	<g id="logo-gray-copy" transform="translate(6, 5)">
		<path id="Path_00000116219843691161940740000012890378356468155057_" class="st0" d="M142,447.6c-18-10.3-34.4-23.2-48.7-38.1
			c-4.2,5.2-9.2,9.6-15,13c-3.2,1.8-6.5,3.3-10,4.4c77.5,84.6,203.1,104.7,303.1,48.5c4.7-2.7,7.6-7.8,7.6-13.2
			c0-5.5-2.9-10.5-7.6-13.2l0,0c-4.6-2.8-10.3-2.8-15-0.2C289.8,486.3,208.3,485.9,142,447.6z"/>
		<path id="Path_00000168807137888536742300000010592796710255696529_" class="st0" d="M141.9,73.3c18-10.4,37.3-18.1,57.5-22.9
			c-2.5-6.4-3.8-13.1-3.8-20c0-3.7,0.4-7.4,1.1-11C84.8,44.3,4.7,143,3.4,257.8c0,5.4,2.9,10.5,7.7,13.2s10.5,2.7,15.3,0l0,0
			c4.6-2.6,7.5-7.5,7.6-12.8C34.8,181.8,75.8,111.5,141.9,73.3z"/>
		<path id="Path_00000029044607408917795250000003289279347927070886_" class="st0" d="M466.1,260.4c0,20.7-3,41.4-8.9,61.3
			c6.7,1,13.2,3.2,19.1,6.6c3.2,1.8,6.2,3.9,8.9,6.2C519.6,225.1,474.1,106.4,375.3,48c-4.7-2.5-10.4-2.3-15,0.4
			c-4.6,2.8-7.4,7.7-7.4,13l0,0c-0.1,5.3,2.7,10.2,7.2,13C425.9,113.4,466.1,184.1,466.1,260.4z"/>
		<path id="Shape_00000102538132905693287250000017405769940713112996_" class="st0" d="M250.1,157.7c41.6,0,79.1,25,95,63.4
			s7.1,82.6-22.2,112s-73.6,38.2-112,22.3c-38.4-15.9-63.4-53.4-63.4-94.9C147.4,203.7,193.3,157.8,250.1,157.7 M250.1,127.2
			c-73.6,0-133.3,59.7-133.3,133.3s59.7,133.3,133.3,133.3s133.3-59.7,133.3-133.3c0-35.4-14-69.3-39-94.3
			C319.3,141.2,285.4,127.2,250.1,127.2z"/>
		<circle id="Oval" class="st1" cx="250" cy="30.6" r="35.6"/>
		
			<ellipse id="Oval_00000065795056533226502830000002511554617449787019_" transform="matrix(0.9985 -5.530038e-02 5.530038e-02 0.9985 -20.6789 3.3902)" class="st1" cx="50.9" cy="375.3" rx="35.6" ry="35.6"/>
		<circle id="Oval_00000092456480416359911850000016673761605435653520_" class="st1" cx="449.1" cy="375.3" r="35.6"/>
		<path id="Path_00000097458638921006467230000001810806919035698055_" class="st1" d="M279.5,236.1c0-14.3-10.3-26.6-24.4-29.1
			c-14.1-2.5-28,5.6-32.8,19.1c-4.8,13.5,0.8,28.5,13.3,35.6l-9.3,47.1c-0.3,1.5,0.1,3,1.1,4.2c1,1.2,2.4,1.8,3.9,1.8h37.8
			c1.5,0,3-0.6,3.9-1.8c1-1.2,1.4-2.7,1.1-4.2l-9.3-47.1C273.9,256.5,279.6,246.7,279.5,236.1L279.5,236.1z"/>
	</g>
</g>
</svg>
