<?xml version="1.0" encoding="utf-8"?>
<!-- Generator: Adobe Illustrator 27.7.0, SVG Export Plug-In . SVG Version: 6.00 Build 0)  -->
<svg version="1.1" id="Layer_1" xmlns="http://www.w3.org/2000/svg" xmlns:xlink="http://www.w3.org/1999/xlink" x="0px" y="0px"
	 viewBox="0 0 512 512" style="enable-background:new 0 0 512 512;" xml:space="preserve">
<style type="text/css">
	.st0{fill:#E24329;}
	.st1{fill:#FCA326;}
	.st2{fill:#FC6D26;}
	.st3{display:none;}
	.st4{display:inline;opacity:0.1;fill:#E828E3;enable-background:new    ;}
	.st5{display:inline;}
	.st6{font-family:'ArialMT';}
	.st7{font-size:24px;}
</style>
<g id="logo_art" transform="translate(-123.97696, -123.92475)">
	<g>
		<g>
			<path id="path50_5_" class="st0" d="M380,615.7L380,615.7l94.3-290.1H285.8L380,615.7L380,615.7z"/>
			<path id="path66_12_" class="st1" d="M153.7,325.6L153.7,325.6l-28.7,88.1c-2.6,8,0.2,16.8,7.1,21.8l248,180.2L153.7,325.6
				L153.7,325.6z"/>
			<path id="path74_5_" class="st0" d="M153.7,325.6h132.1l-56.9-174.7c-2.9-8.9-15.6-8.9-18.6,0L153.7,325.6L153.7,325.6z"/>
			<path id="path82_12_" class="st1" d="M606.4,325.6L606.4,325.6l28.6,88.1c2.6,8-0.2,16.8-7.1,21.8L380,615.7L606.4,325.6
				L606.4,325.6z"/>
			<path id="path86_5_" class="st0" d="M606.4,325.6H474.3L531,150.8c2.9-8.9,15.6-8.9,18.6,0L606.4,325.6L606.4,325.6z"/>
			<polygon class="st2" points="380,615.7 474.3,325.6 606.4,325.6 			"/>
			<polygon class="st2" points="380,615.7 153.7,325.6 285.8,325.6 			"/>
		</g>
	</g>
</g>
<g id="spacing_guides" transform="translate(-123.97696, -123.92475)" xmlns:sketch="http://www.bohemiancoding.com/sketch/ns" class="st3">
	<path id="path40_32_" sketch:type="MSShapeGroup" class="st4" d="M-253.7,100.5v124h1268v-124H-253.7L-253.7,100.5z"/>
	<path id="path40_31_" sketch:type="MSShapeGroup" class="st4" d="M-253.7,535.5v124h1268v-124H-253.7L-253.7,535.5z"/>
	<path id="path40_30_" sketch:type="MSShapeGroup" class="st4" d="M8.9,535.1h62v-310h-62V535.1L8.9,535.1z"/>
	<path id="path40_29_" sketch:type="MSShapeGroup" class="st4" d="M209.5,660.5h62v-561h-62V660.5L209.5,660.5z"/>
	<text transform="matrix(1 0 0 1 3.5079 295.5164)" class="st5 st6 st7">H: 2.5 x</text>
	<text transform="matrix(1 0 0 1 215.7277 383.3484)" class="st5 st6 st7">1/2 x</text>
	<text transform="matrix(1 0 0 1 368.5431 601.0142)" class="st5 st6 st7">1x</text>
	<text transform="matrix(1 0 0 1 368.5431 166.0152)" class="st5 st6 st7">1x</text>
	<path id="path40_27_" sketch:type="MSShapeGroup" class="st4" d="M-252.7,660.5h124v-561h-124V660.5L-252.7,660.5z"/>
	<text transform="matrix(1 0 0 1 -201.4568 383.3484)" class="st5 st6 st7">1x</text>
	<path id="path40_3_" sketch:type="MSShapeGroup" class="st4" d="M889.3,660.5h124v-561h-124V660.5L889.3,660.5z"/>
	<text transform="matrix(1 0 0 1 938.5432 383.3484)" class="st5 st6 st7">1x</text>
</g>
</svg>
