<?xml version="1.0" encoding="utf-8"?>
<!-- Generator: Adobe Illustrator 27.7.0, SVG Export Plug-In . SVG Version: 6.00 Build 0)  -->
<svg version="1.1" id="Layer_1" xmlns="http://www.w3.org/2000/svg" xmlns:xlink="http://www.w3.org/1999/xlink" x="0px" y="0px"
	 viewBox="0 0 512 512" style="enable-background:new 0 0 512 512;" xml:space="preserve">
<style type="text/css">
	.st0{fill:#FFFFFF;}
</style>
<path class="st0" d="M426.5,0h-341C38.3,0,0,38.3,0,85.5v341C0,473.7,38.3,512,85.5,512h341c47.2,0,85.5-38.3,85.5-85.5v-341
	C512,38.3,473.7,0,426.5,0z M226.4,337.9c7.5,7.6,17.8,11.4,30.9,11.4c13.1,0,23.3-3.8,30.6-11.4c7.2-7.6,10.9-18.3,10.9-32.1v-33.4
	h-49.4v-27.4h79.5v60.8c0,21.6-6.5,38.7-19.4,51.3c-12.9,12.6-30.3,18.9-52.1,18.9c-22.3,0-39.9-6.2-52.8-18.7
	c-12.9-12.5-19.4-29.6-19.4-51.4V195.6c0-21.8,6.5-39,19.4-51.4c12.9-12.5,30.5-18.7,52.8-18.7c21.8,0,39.2,6.3,52.1,18.9
	c12.9,12.6,19.4,29.7,19.4,51.3h-30.1c0-13.8-3.6-24.4-10.9-31.9c-7.2-7.5-17.4-11.2-30.6-11.2c-13.1,0-23.4,3.7-30.9,11
	c-7.5,7.3-11.2,17.9-11.2,31.7v110.6C215.3,319.7,219,330.4,226.4,337.9z"/>
</svg>
