<?xml version="1.0" encoding="utf-8"?>
<!-- Generator: Adobe Illustrator 27.7.0, SVG Export Plug-In . SVG Version: 6.00 Build 0)  -->
<svg version="1.1" id="Layer_1" xmlns="http://www.w3.org/2000/svg" xmlns:xlink="http://www.w3.org/1999/xlink" x="0px" y="0px"
	 viewBox="0 0 512 512" style="enable-background:new 0 0 512 512;" xml:space="preserve">
<style type="text/css">
	.st0{fill:#FFFFFF;}
</style>
<path class="st0" d="M256,0C114.6,0,0,114.6,0,256s114.6,256,256,256s256-114.6,256-256S397.4,0,256,0z M434.3,262.3
	c-9,0-16.2-7.3-16.2-16.2c0-0.2,0.1-0.3,0.1-0.6l-32-32c-5.3-5.4-8.3-12.6-8.3-20.1v-74.3c0-3.4-2.8-6.2-6.2-6.2h-20.1
	c-3.4,0-6.2,2.8-6.2,6.2v52.9l-85.2-82.4c-2.4-2.4-6.4-2.4-8.8,0.1L90.7,250.4c-2.4,2.4-2.4,6.3,0,8.8l15.3,15.3
	c2.4,2.4,6.3,2.4,8.8,0l123.5-121.7c11.2-10.9,29-10.9,40.1,0.2l121.1,121.1c11.1,11.1,11.1,29.1,0,40.2l-14.9,14.9
	c-11,10.9-28.8,11.1-39.9,0.3l-85-82.6c-2.4-2.4-6.4-2.3-8.8,0.1l-81.7,82c-2.4,2.4-2.4,6.3,0,8.8l15.1,15.1c2.4,2.4,6.3,2.4,8.8,0
	l44.1-43.5c11.1-10.9,28.9-10.9,40,0l43.8,42.9l0.2,0.2c0,0,0,0,0,0c11.1,11.1,11.1,29.1,0,40.2l-43.5,43.5v0.3
	c0,9-7.3,16.2-16.2,16.3c-9,0-16.2-7.3-16.3-16.2c0-9,7.3-16.2,16.2-16.3c0.2,0,0.4,0.1,0.6,0.1l43.3-43.4c0,0,0.1-0.1,0.1-0.1
	c2.4-2.4,2.3-6.3-0.1-8.7l-43.7-43c-2.4-2.4-6.3-2.4-8.8,0l-44,43.4c-11.1,11-29,10.9-40.1-0.1l-15.1-15.1
	c-11.1-11.1-11.1-29.1,0-40.2l81.5-82c11-11,28.8-11.2,40-0.3l85,82.3c2.4,2.4,6.3,2.4,8.8,0l14.9-14.9c2.4-2.4,2.4-6.3,0-8.8
	l-121-121c-2.4-2.4-6.3-2.4-8.8,0L130.3,290.3c-11.2,10.9-29,10.9-40.1-0.2l-15.3-15.2l0,0c-11.1-11.1-11.1-29.1,0-40.2L235.6,73.9
	c11-10.9,28.7-11.1,39.9-0.3l47.5,46v-0.4c0-15.7,12.8-28.4,28.5-28.5h20.1c15.7,0,28.4,12.8,28.4,28.5v74.2c0,1.6,0.7,3.2,1.8,4.4
	l32.1,32.1h0.3l0,0c0,0,0,0,0,0c9,0,16.2,7.3,16.2,16.2S443.3,262.3,434.3,262.3z"/>
</svg>
