<?xml version="1.0" encoding="utf-8"?>
<!-- Generator: Adobe Illustrator 27.7.0, SVG Export Plug-In . SVG Version: 6.00 Build 0)  -->
<svg version="1.1" id="Layer_1" xmlns="http://www.w3.org/2000/svg" xmlns:xlink="http://www.w3.org/1999/xlink" x="0px" y="0px"
	 viewBox="0 0 512 512" style="enable-background:new 0 0 512 512;" xml:space="preserve">
<style type="text/css">
	.st0{fill:#FFFFFF;}
</style>
<g>
	<path class="st0" d="M365.7,280.2c-22.1-15.8-52.3-33.2-91.8-50.7c-10.7-4.8-14.9-17.5-10.4-27.7s14.4-16.9,35.3-17.9
		c9.8,0,11.1-2.8,11.6-5.1c0.6-3.6-4.4-7.3-9.6-9.6c-41-18.2-91.1-10.6-125.9,26c-34-7.6-69.9-8.6-75.9,4.9
		c-7.3,16.3,31.8,62.7,138.9,110.4c107,47.7,167.7,45.7,174.9,29.3C418.9,326.3,394.1,300.3,365.7,280.2z M190.6,245.8
		c-4.8,7.7-16.5,9.1-26.1,3.1c-9.6-6-13.5-17.1-8.7-24.8c4.8-7.7,16.5-9.1,26.1-3.1S195.4,238.1,190.6,245.8z M270.6,287.8
		c-3.7,8.4-15.2,11.4-25.5,6.7c-10.4-4.6-15.8-15.1-12.1-23.5c3.7-8.4,15.2-11.4,25.5-6.7C268.9,269,274.3,279.5,270.6,287.8z
		 M357,313.7c-2.5,8.7-13.4,13.3-24.2,10.2c-10.9-3.1-17.7-12.7-15.2-21.5c2.5-8.7,13.4-13.3,24.2-10.2S359.5,304.9,357,313.7z"/>
	<path class="st0" d="M397.7,0H114.3C51.2,0,0,51.2,0,114.3v283.3C0,460.8,51.2,512,114.3,512h283.3c63.1,0,114.3-51.2,114.3-114.3
		V114.3C512,51.2,460.8,0,397.7,0z M438.3,351.2c-15,33.6-68.3,32.3-129,15.2c-29.2,16.2-65.5,18.9-98.2,4.3
		c-32.8-14.6-55-43.4-62.5-75.9c-53.2-33.7-90-72.4-75-106c13.4-30,56.2-30,92.5-23.7c40.4-34.7,97-43.2,146.1-21.4
		c49.1,21.9,80.6,69.6,81.9,122.8C422.9,289.3,451.6,321.2,438.3,351.2z"/>
</g>
</svg>
