<?xml version="1.0" encoding="utf-8"?>
<!-- Generator: Adobe Illustrator 27.7.0, SVG Export Plug-In . SVG Version: 6.00 Build 0)  -->
<svg version="1.1" id="Layer_1" xmlns="http://www.w3.org/2000/svg" xmlns:xlink="http://www.w3.org/1999/xlink" x="0px" y="0px"
	 viewBox="0 0 512 512" style="enable-background:new 0 0 512 512;" xml:space="preserve">
<style type="text/css">
	.st0{fill:#FFFFFF;}
</style>
<path class="st0" d="M434.9,0H77.1C34.5,0,0,34.5,0,77.1v357.7C0,477.5,34.5,512,77.1,512h357.7c42.6,0,77.1-34.5,77.1-77.1V77.1
	C512,34.5,477.5,0,434.9,0z M256,448c-38.5,0-69.6-31.2-69.7-69.7c1-38.5,33-68.9,71.5-67.8c37.1,1,66.9,30.8,67.8,67.8
	C325.7,416.8,294.5,448,256,448z M395.3,413.9c-19.6,8.5-42.4-0.4-51-20.1c-8.5-19.6,0.4-42.4,20.1-51V226l-74.3,49.6V169.9
	l-33.7-50.2L222,172.1v103.4L147.6,226v116.9c13.7,6,23.2,19.6,23.2,35.5c0,15.4-9.1,29.4-23.3,35.5c-19.6,8.5-42.4-0.4-51-20.1
	c-8.5-19.6,0.4-42.4,20.1-51V168.4l74.3,49.6v-55.1L255.7,64l65.4,96.3v57.6l74.3-49.6v174.5c13.7,6,23.2,19.6,23.2,35.5
	C418.6,393.8,409.5,407.7,395.3,413.9z"/>
</svg>
