<?xml version="1.0" encoding="utf-8"?>
<!-- Generator: Adobe Illustrator 27.7.0, SVG Export Plug-In . SVG Version: 6.00 Build 0)  -->
<svg version="1.1"
	 id="svg8" xmlns:rdf="http://www.w3.org/1999/02/22-rdf-syntax-ns#" xmlns:cc="http://creativecommons.org/ns#" xmlns:dc="http://purl.org/dc/elements/1.1/" xmlns:inkscape="http://www.inkscape.org/namespaces/inkscape" xmlns:sodipodi="http://sodipodi.sourceforge.net/DTD/sodipodi-0.dtd" xmlns:svg="http://www.w3.org/2000/svg"
	 xmlns="http://www.w3.org/2000/svg" xmlns:xlink="http://www.w3.org/1999/xlink" x="0px" y="0px" viewBox="0 0 512 512"
	 style="enable-background:new 0 0 512 512;" xml:space="preserve">
<style type="text/css">
	.st0{fill:#FFFFFF;}
</style>
<g id="layer1" transform="translate(-42.106554,-153.8982)" inkscape:groupmode="layer" inkscape:label="Layer 1">
	<g>
		<path class="st0" d="M422.7,289.1c-14.9-15.3-28.4-25.3-45.8-34.1c-26.4-13.2-49.1-18.6-78.8-18.6c-31.5,0-59.1,7.2-86.4,22.6
			c-24.9,14-50.6,39.8-64.7,64.7c-10.4,18.4-18,40.2-20.9,60.2c-1.9,13.1-2,39-0.1,51.6c3.8,25.1,13.3,49.8,27.1,70.6
			c7.5,11.3,7.3,11.2,13.9,7.4c11.9-6.8,15-10.1,21.4-22.8c7.6-14.8,15.7-27.8,23-36.8c8.4-10.4,9.6-12.2,13.8-22
			c2.1-4.9,5.9-12.2,8.5-16.1l4.6-7.1l-6-5.9c-7.9-7.8-14.5-16.6-15.8-21.1c-1.3-4.6,0.2-7.2,6.2-10.6c6-3.5,10.3-4.5,26.4-6.1
			c7.8-0.8,16.4-2.3,19-3.3c2.7-1,10.6-5.4,17.7-9.6c20.4-12.4,22.2-13,34.4-12.8c10.3,0.2,10.4,0.2,16.5-3.5
			c12.9-7.8,31.3-21.8,55.6-42.2c4.7-3.9,9.1-7,10-6.8c3.4,0.7,9.7,16.1,10.7,26.3c0.6,6.1-0.6,12.2-4.2,21.7c-1,2.6-1.5,5.1-1,5.5
			c1,1,4.6-3.4,4.6-5.8c0-3,2-3.3,4.7-0.8c2,1.8,3.6,2.4,7.6,2.4c4.3,0,5.3,0.4,7,2.6c2.8,3.8,3.5,14.1,1.3,20.7
			c-2.1,6.4-8.5,13.7-14.3,16.4c-5.2,2.4-15.7,12.7-20.6,20.1c-1.9,2.8-5.4,8.8-7.8,13.2c-2.4,4.4-6.5,11-9.1,14.8
			c-5,7.3-9.3,17.6-13.5,32c-2.4,8.5-2.6,10.7-2.7,29.7c-0.1,22.9-1.3,28.5-7.5,35.6c-7,8-14.1,25.6-14.7,36.7
			c-0.4,7-1.5,13.8-3,18.9c-0.7,2.2,0.6,2.2,8.1-0.2l0,0c21.9-6.9,39.8-16.2,57-29.6c9.2-7.1,25-23.1,31.6-32
			c18-23.9,30.3-53.8,33.9-82.7c1.7-13.9,0.7-43.4-1.9-56.2C461.7,342.2,446.5,313.6,422.7,289.1z"/>
		<path class="st0" d="M298.1,153.9c-141.4,0-256,114.6-256,256s114.6,256,256,256s256-114.6,256-256S439.5,153.9,298.1,153.9z
			 M462.2,532.5c-8.1,10.9-23.9,27.6-34.4,36.2c-28.8,23.6-65.5,39.5-101.8,44.3c-12.6,1.6-42.3,1.9-53.8,0.4l0,0
			c-35.9-4.6-70.2-18.9-100.1-41.7c-9.8-7.4-28.1-25.9-36.1-36.3c-22.4-29.2-36.3-62.4-40.9-97.4c-2-15-2-42.6,0-56.3
			c9.9-68.5,53-127.3,115-156.7c28.8-13.7,55.2-19.4,88.7-19.4c54.2,0,102.2,19.4,141.2,57c18.8,18.1,31.4,35.3,42.1,57.5
			c14.6,30,20.5,56.2,20.5,90.7C502.6,456,489.5,495.6,462.2,532.5z"/>
	</g>
	
		<path id="path814" inkscape:flatsided="true" inkscape:randomized="0" inkscape:rounded="0" sodipodi:arg1="1.5707963" sodipodi:arg2="2.3561945" sodipodi:cx="18.854025" sodipodi:cy="172.98837" sodipodi:r1="1.6036172" sodipodi:r2="1.1339285" sodipodi:sides="4" sodipodi:type="star" class="st0" d="
		M306.3,363.7l9.2-11.8l14.9-2.1l-9.2,11.8L306.3,363.7z"/>
</g>
</svg>
