<?xml version="1.0" encoding="utf-8"?>
<!-- Generator: Adobe Illustrator 27.7.0, SVG Export Plug-In . SVG Version: 6.00 Build 0)  -->
<svg version="1.1" id="Layer_1" xmlns="http://www.w3.org/2000/svg" xmlns:xlink="http://www.w3.org/1999/xlink" x="0px" y="0px"
	 viewBox="0 0 512 512" style="enable-background:new 0 0 512 512;" xml:space="preserve">
<style type="text/css">
	.st0{fill:#FFFFFF;}
</style>
<g>
	<path class="st0" d="M0,403.6l94.6-239.3c13.3-33.7,46.2-55.9,82.8-55.9h57l-94.6,239.3c-13.3,33.7-46.2,55.9-82.8,55.9H0z"/>
	<path class="st0" d="M138.8,403.6l94.6-239.3c13.3-33.7,46.2-55.9,82.8-55.9h57l-94.6,239.3c-13.3,33.7-46.2,55.9-82.8,55.9H138.8z
		"/>
	<path class="st0" d="M277.6,403.6l94.6-239.3c13.3-33.7,46.2-55.9,82.8-55.9h57l-94.6,239.3c-13.3,33.7-46.2,55.9-82.8,55.9H277.6z
		"/>
</g>
</svg>
