<?xml version="1.0" encoding="utf-8"?>
<!-- Generator: Adobe Illustrator 27.7.0, SVG Export Plug-In . SVG Version: 6.00 Build 0)  -->
<svg version="1.1" id="netgear_logo" xmlns:svg="http://www.w3.org/2000/svg"
	 xmlns="http://www.w3.org/2000/svg" xmlns:xlink="http://www.w3.org/1999/xlink" x="0px" y="0px" viewBox="0 0 512 512"
	 style="enable-background:new 0 0 512 512;" xml:space="preserve">
<style type="text/css">
	.st0{fill:#FFFFFF;}
</style>
<g>
	<path class="st0" d="M443.8,239.6h-1.4v13.6h1.4c4.6,0,9.8-0.9,9.8-6.8C453.6,240.4,448.4,239.6,443.8,239.6z"/>
	<polygon class="st0" points="380.8,245.5 374.9,262.8 386.7,262.8 380.9,245.5 	"/>
	<path class="st0" d="M439.2,0H72.8C32.6,0,0,32.6,0,72.8v366.5C0,479.4,32.6,512,72.8,512h366.5c40.2,0,72.8-32.6,72.8-72.8V72.8
		C512,32.6,479.4,0,439.2,0z M92.9,283.3H78.7l-26-33.4h-0.2v33.4H38.4v-54.5h14.2l26,33.3h0.1v-33.3h14.2V283.3z M147.9,240.8
		h-16.8v9.1h16v12h-16v9.4h16.8v12h-31v-54.5h31V240.8z M207.3,240.8h-11.7v42.5h-14.2v-42.5h-11.7v-12h37.6V240.8z M273.9,274.4
		c-5.4,7.5-13.4,10.7-22.5,10.7c-17.1,0-29.1-11.6-29.1-28.8c0-17.7,12-29.4,29.6-29.4c11.2,0,19.9,5.1,24.6,15.3l-13.4,5.6
		c-2-5.2-6.1-8.7-11.8-8.7c-9.3,0-14.2,8.9-14.2,17.2c0,8.5,5.1,17.1,14.4,17.1c6.2,0,10.8-3.2,11.4-9.5h-11.6v-11.1h28.1
		C279.3,260.8,278.7,267.6,273.9,274.4z M333.2,240.8h-16.8v9.1h16v12h-16v9.4h16.8v12h-31v-54.5h31V240.8z M394.1,283.2l-3.6-9.5
		H371l-3.8,9.5h-15l21-54.5h15.5l20.5,54.5H394.1z M456,283.3l-13.4-21h-0.1v21h-14.2v-54.5h21.2c10.8,0,18.9,5.1,18.9,16.8
		c0,7.5-4.2,14-11.9,15.4l17.1,22.3H456z"/>
</g>
</svg>
