<?xml version="1.0" encoding="utf-8"?>
<!-- Generator: Adobe Illustrator 27.7.0, SVG Export Plug-In . SVG Version: 6.00 Build 0)  -->
<svg version="1.1" id="Layer_1" xmlns="http://www.w3.org/2000/svg" xmlns:xlink="http://www.w3.org/1999/xlink" x="0px" y="0px"
	 viewBox="0 0 512 512" style="enable-background:new 0 0 512 512;" xml:space="preserve">
<style type="text/css">
	.st0{fill:#FFFFFF;}
</style>
<path class="st0" d="M472.5,123.9C406.4,85.8,340.2,47.7,274,9.7c-5.8-3.5-11.7-6.8-17.8-9.7H255c-6.1,2.9-11.9,6.4-17.8,9.8
	C171.1,47.8,105,85.9,38.9,123.9c-4.6,2.3-7.4,7.1-7.1,12.3c0,80.2,0,160.5,0,240.7c-0.2,5.2,2.6,10,7.3,12.2
	c70.3,40.5,140.7,81,211.2,121.4c3.8,2.3,8.5,2,12-0.7c70.4-40.5,140.8-81,211.2-121.5c3.3-2.1,5.6-5.4,6.5-9.3
	c0.1-80.2-0.1-160.5,0.1-240.7C480.8,132.4,477.8,126.7,472.5,123.9z M383.5,356.9c-1.3,12.5-10.6,22.6-22.9,25.1
	c-17.3,3.6-35.2-1.8-47.5-14.3c-43.9-52.2-87.6-104.4-131.3-156.7c-0.1,47.9,0,95.8,0,143.7c0,9.5-4.7,18.3-12.5,23.6
	c-11.9,7.8-27.6,6.2-37.7-3.8c-5.2-5.3-8-12.5-7.8-19.9c0-66.2,0-132.4,0-198.6c0.6-14.3,11.5-25.9,25.7-27.5
	c18.4-2.8,37,4.5,48.4,19.2c42.7,50.8,85.1,101.8,128,152.4c-0.3-48.7,0-97.3,0-146c1.2-14,12.3-25.1,26.3-26.3
	c15.9-1.4,29.9,10.4,31.3,26.3C383.5,221.8,383.5,289.3,383.5,356.9z"/>
</svg>
