<?xml version="1.0" encoding="utf-8"?>
<!-- Generator: Adobe Illustrator 27.7.0, SVG Export Plug-In . SVG Version: 6.00 Build 0)  -->
<svg version="1.1" id="Layer_1" xmlns="http://www.w3.org/2000/svg" xmlns:xlink="http://www.w3.org/1999/xlink" x="0px" y="0px"
	 viewBox="0 0 512 512" style="enable-background:new 0 0 512 512;" xml:space="preserve">
<style type="text/css">
	.st0{fill:#FFFFFF;}
</style>
<g>
	<path class="st0" d="M373.6,237.7c-19.9-5.2-40.5,6.3-46.5,25.8c-2,6.2-2.1,16.4-0.3,22.4c5.8,19.7,27,31.7,46.8,26.6
		c12.2-3.3,21.8-12.1,26.6-24.6c2.6-6.8,2.7-17.8,0.1-25.3C396.2,250.4,386,241,373.6,237.7z"/>
	<path class="st0" d="M432.5,0h-353C35.6,0,0,35.6,0,79.5v353C0,476.4,35.6,512,79.5,512h353c43.9,0,79.5-35.6,79.5-79.5v-353
		C512,35.6,476.4,0,432.5,0z M248.7,446.8c-1.2,1.2-5.8,1.3-50.3,1c-43-0.2-49.7-0.5-54.9-1.7c-40.2-9.4-68.5-37.8-77.4-77.6
		c-1.6-7.4-1.7-9.6-1.9-105.3c-0.4-104.2-0.2-112.1,3.3-125.5c9.7-37.2,40.5-65.5,78.7-72.4c5-0.9,16.4-1.1,54.2-1.2
		c46.6-0.1,47.9,0,48.7,1.4c0.6,1.1,0.8,61.9,0.8,190.8C250,430.3,249.9,445.6,248.7,446.8z M443.1,380.8c-1.4,3.9-4,10.2-6,13.9
		c-15.5,29.2-44,48.8-76.2,52.5c-7.6,0.8-69.3,1.1-71.5,0.3c-1.2-0.5-1.3-18-1.3-191.5c0-105.1,0.2-191.3,0.6-191.5
		c0.2-0.3,16.1-0.6,35.2-0.6c27.7,0,36.3,0.2,41.8,1.2c41.5,7.2,73.1,38.4,80.9,79.8c1.1,5.8,1.3,19.4,1.3,110.6
		C448,369.9,448.1,365.9,443.1,380.8z"/>
	<path class="st0" d="M138,99.9c-20.9,8.3-36.4,26.9-41.2,49.2c-1.7,7.9-1.7,205.7,0.1,213.7c5.3,25.7,24.3,45.4,49.9,52
		c6,1.5,9.1,1.7,39,2l32.4,0.4V256.1V95l-30.8,0.1C153.4,95.2,148.5,95.6,138,99.9z M171.2,213.5c-4.2,1.4-6.4,1.7-12.7,1.4
		c-6.9-0.2-8.3-0.6-13.6-3.2c-7.7-3.8-13.4-9.5-17.1-17.2c-2.5-5.1-2.9-6.8-3.3-13c-0.6-12.1,3.5-22.3,11.8-29.6
		c4.1-3.6,11.7-7.4,16.7-8.3c20-4,39.4,9.7,42.9,30.1C198.9,190.9,188.5,207.7,171.2,213.5z"/>
</g>
</svg>
