<?xml version="1.0" encoding="utf-8"?>
<!-- Generator: Adobe Illustrator 27.7.0, SVG Export Plug-In . SVG Version: 6.00 Build 0)  -->
<svg version="1.1" id="Layer_1" xmlns="http://www.w3.org/2000/svg" xmlns:xlink="http://www.w3.org/1999/xlink" x="0px" y="0px"
	 viewBox="0 0 512 512" style="enable-background:new 0 0 512 512;" xml:space="preserve">
<style type="text/css">
	.st0{fill:#FFFFFF;}
	.st1{fill-rule:evenodd;clip-rule:evenodd;fill:#FFFFFF;}
</style>
<g>
	<path class="st0" d="M128,231.8l58.7,58.8v93H128V231.8z M374.7,106.9v267.2c0,5.5-4.5,9.9-10,9.9c-2.6,0-5.1-1-7-2.9L128,173.9
		v-58.6c0-5.5,4.4-9.9,9.9-9.9h0.5c2.6,0,5.2,1.1,7,2.9l170.5,147.9V106.9H374.7z"/>
	<path class="st1" d="M64,0C28.7,0,0,28.7,0,64v384c0,35.3,28.7,64,64,64h384c35.3,0,64-28.7,64-64V64c0-35.3-28.7-64-64-64H64z
		 M77.5,45.5c-17.7,0-32,14.3-32,32v357c0,17.7,14.3,32,32,32h357c17.7,0,32-14.3,32-32v-357c0-17.7-14.3-32-32-32H77.5z"/>
</g>
</svg>
