<?xml version="1.0" encoding="utf-8"?>
<!-- Generator: Adobe Illustrator 27.7.0, SVG Export Plug-In . SVG Version: 6.00 Build 0)  -->
<svg version="1.1" id="Layer_1" xmlns="http://www.w3.org/2000/svg" xmlns:xlink="http://www.w3.org/1999/xlink" x="0px" y="0px"
	 viewBox="0 0 512 512" style="enable-background:new 0 0 512 512;" xml:space="preserve">
<style type="text/css">
	.st0{fill:#FFFFFF;}
	.st1{fill-rule:evenodd;clip-rule:evenodd;fill:#FFFFFF;}
</style>
<g>
	<path class="st0" d="M121.8,323.9c0-0.1,0-0.2,0-0.3c1-13.1-7.6-28.6-19.2-34.7c-11.6-6.1-21.8-0.5-22.7,12.6c0,0.1,0,0.2,0,0.3
		L121.8,323.9z"/>
	<path class="st0" d="M187.8,362c0-0.1,0-0.2,0-0.3c1-13.1-7.6-28.6-19.2-34.7c-11.6-6.1-21.8-0.5-22.7,12.6c0,0.1,0,0.2,0,0.3
		L187.8,362z"/>
	<path class="st1" d="M273.3,4.4c-10.8-5.9-23.8-5.9-34.6,0L61.4,101.9c-0.1,0.1-0.3,0.2-0.4,0.2L37.6,115
		C26.2,121.3,19,133.3,19,146.4v219.2c0,13.1,7.1,25.2,18.6,31.5l179,98.4c0.2,0.1,0.5,0.2,0.7,0.4l21.4,11.8
		c10.8,5.9,23.8,5.9,34.6,0l21.5-11.8c0.2-0.1,0.4-0.2,0.6-0.3l179-98.4c11.5-6.3,18.6-18.4,18.6-31.5V146.4
		c0-13.1-7.1-25.2-18.6-31.5l-23.3-12.8c-0.2-0.1-0.3-0.2-0.5-0.3L273.3,4.4z M465.3,170.7c0-2.1-0.8-4-2-5.4
		C464.6,166.7,465.3,168.6,465.3,170.7l0,171c0-0.1,0-0.1,0-0.2c0,0,0-0.1,0-0.1c0,0,0-0.1,0-0.1V170.7z M282.1,471.2
		c-3.6,2-7.8,1-10.3-1.8c2.4,2.7,6.4,3.8,10,2l155.5-85.5c0.1,0,0.2-0.1,0.3-0.1L282.1,471.2z M440.4,129c2.3,3.7,1.3,9-2.8,11.5
		l-167.7,92.2v0L260,238c-2.5,1.4-5.5,1.4-8,0l-9.8-5.4v0L74.5,140.5c-1.2-0.7-2.1-1.6-2.8-2.7c-2.5-3.8-1.5-9.3,3-11.8L252,28.6
		c2.5-1.4,5.5-1.4,8,0l177.3,97.4c1.2,0.7,2.2,1.6,2.9,2.6C440.2,128.8,440.3,128.9,440.4,129z M229.9,471.2c0,0,0.1,0.1,0.1,0.1
		l0.2,0.1c5.4,2.7,11.8-1.2,11.9-7.2v-0.1c0,0,0-0.1,0-0.1V269.1c0-3-1.6-5.8-4.3-7.3l-179-98.4c-5.5-3-12.3,1-12.3,7.3v194.9
		c0,3,1.6,5.8,4.3,7.3L229.9,471.2z"/>
</g>
</svg>
