<?xml version="1.0" encoding="utf-8"?>
<!-- Generator: Adobe Illustrator 27.7.0, SVG Export Plug-In . SVG Version: 6.00 Build 0)  -->
<svg version="1.1" id="Layer_1" xmlns:serif="http://www.serif.com/"
	 xmlns="http://www.w3.org/2000/svg" xmlns:xlink="http://www.w3.org/1999/xlink" x="0px" y="0px" viewBox="0 0 512 512"
	 style="enable-background:new 0 0 512 512;" xml:space="preserve">
<style type="text/css">
	.st0{fill-rule:evenodd;clip-rule:evenodd;fill:#FFFFFF;}
</style>
<g>
	<path class="st0" d="M320.3,22.4C181.4-13.2,45.9,81,4.6,254c-18.7,78.6,18.5,172.6,140,202.5l109.6,27.4
		c82.7,22.6,138,13.3,174.5-6.3c43.2-23.1,64.5-61.8,72.4-98.9C536.9,210.8,486.8,65.1,320.3,22.4z M455.6,368.9
		c-10.8,50.5-56.2,106.5-189.6,69.9l-110.2-27.5C66.5,389.4,36,322.6,49.8,264.8C84.1,120.9,193.3,37.9,308.8,67.5
		C448.6,103.3,485.7,228,455.6,368.9z"/>
	<path class="st0" d="M203.1,176.2c-16.6-8-82.3,36.5-87.2,101.5c-2.1,27.2,51.8,36.8,57.7-2C181.9,221.9,215.8,182.4,203.1,176.2
		L203.1,176.2z"/>
	<path class="st0" d="M325.3,199c-23.7,3.7-4.3,67.2-6.7,122c-1.4,31.8,49.9,39.4,53.5,22.9C384.6,286.3,348.6,195.4,325.3,199
		L325.3,199z"/>
</g>
</svg>
