<?xml version="1.0" encoding="utf-8"?>
<!-- Generator: Adobe Illustrator 27.7.0, SVG Export Plug-In . SVG Version: 6.00 Build 0)  -->
<svg version="1.1" id="Layer_1" xmlns="http://www.w3.org/2000/svg" xmlns:xlink="http://www.w3.org/1999/xlink" x="0px" y="0px"
	 viewBox="0 0 512 512" style="enable-background:new 0 0 512 512;" xml:space="preserve">
<style type="text/css">
	.st0{fill-rule:evenodd;clip-rule:evenodd;fill:#FFFFFF;}
</style>
<path class="st0" d="M428.7,67C324.3-28.4,162.4-21.1,67,83.3S-21.1,349.6,83.3,445s266.3,88.1,361.7-16.3S533.1,162.4,428.7,67z
	 M385.7,182.7c-3.1,13.2-8.9,26.6-17.5,39.9c-8.6,13.4-19.4,25.5-32.3,36.3c-13,10.8-27.8,19.6-44.6,26.4
	c-16.8,6.8-34.6,10.1-53.4,10.1h-2.1L182,415.9h-60.8l119.6-268.7l64.2-8.5l-62.5,141.1c11-0.8,21.8-4.6,32.3-11.2
	c10.6-6.6,20.3-14.9,29.2-24.9c8.9-10,16.5-21.1,23-33.4c6.5-12.3,11.1-24.3,13.9-36.1c1.7-7.3,2.5-14.4,2.3-21.1
	c-0.1-6.8-1.9-12.7-5.3-17.7s-8.5-9.2-15.4-12.3c-6.9-3.1-16.3-4.6-28.1-4.6c-13.8,0-27.4,2.3-40.8,6.8
	c-13.4,4.5-25.8,11.1-37.2,19.7c-11.4,8.6-21.3,19.3-29.8,32.1c-8.5,12.8-14.5,27.4-18.2,43.7c-1.4,5.4-2.3,9.6-2.5,12.9
	c-0.3,3.2-0.4,5.9-0.2,8c0.1,2.1,0.4,3.7,0.8,4.9c0.4,1.1,0.8,2.3,1.1,3.4c-14.4,0-24.9-2.9-31.5-8.7c-6.6-5.8-8.2-15.8-4.9-30.2
	c3.4-14.9,11.1-29.2,23-42.7c12-13.5,26.2-25.4,42.7-35.7c16.5-10.3,34.5-18.4,54.1-24.5c19.6-6.1,38.7-9.1,57.3-9.1
	c16.3,0,30.1,2.3,41.2,7c11.1,4.7,19.8,10.8,26,18.4c6.2,7.6,10.1,16.5,11.6,26.6C388.7,161.1,388.2,171.7,385.7,182.7z"/>
</svg>
