<?xml version="1.0" encoding="utf-8"?>
<!-- Generator: Adobe Illustrator 27.7.0, SVG Export Plug-In . SVG Version: 6.00 Build 0)  -->
<svg version="1.1" id="Layer_1" xmlns="http://www.w3.org/2000/svg" xmlns:xlink="http://www.w3.org/1999/xlink" x="0px" y="0px"
	 viewBox="0 0 512 512" style="enable-background:new 0 0 512 512;" xml:space="preserve">
<style type="text/css">
	.st0{fill:#FFFFFF;}
</style>
<g>
	<path class="st0" d="M296.7,343.5h-150V154.7h190.4v164.4c56.8,17.8,95.5,40.7,121.7,62.2c5.6-12.3,8.4-26.9,8.4-43.7V163.2
		c0-59.9-35-91.4-105-94.7v-0.3h-11.4c-0.4,0-0.8,0-1.2,0v0H120.3c-78.5,0-117.8,31.7-117.8,95v174.4c0,62.9,39.2,94.4,117.8,94.4
		h229.6v-0.1c14.1,0,26.9-1.1,38.4-3.1C368.6,399.5,331.1,368.4,296.7,343.5z"/>
</g>
<path class="st0" d="M229.4,298.4c0,0,139,79.9,168,143.2h108.2C496.6,420.4,445,325.8,229.4,298.4z"/>
</svg>
