<?xml version="1.0" encoding="utf-8"?>
<!-- Generator: Adobe Illustrator 27.7.0, SVG Export Plug-In . SVG Version: 6.00 Build 0)  -->
<svg version="1.1" id="Layer_1" xmlns="http://www.w3.org/2000/svg" xmlns:xlink="http://www.w3.org/1999/xlink" x="0px" y="0px"
	 viewBox="0 0 512 512" style="enable-background:new 0 0 512 512;" xml:space="preserve">
<style type="text/css">
	.st0{fill:none;}
	.st1{fill:#FFFFFF;}
</style>
<g id="_x39_4d21c39-7d00-4bb5-b0ce-c7db4832bb7a">
	<path class="st0" d="M256,7.8c137.1,0,248.2,111.1,248.2,248.2c0,65.8-26.2,129-72.7,175.5c-96.9,96.9-254.1,96.9-351.1,0
		s-96.9-254.1,0-351.1C126.9,33.8,190.1,7.6,256,7.8 M256,0C114.6,0,0,114.6,0,256s114.6,256,256,256s256-114.6,256-256
		S397.4,0,256,0z"/>
	<path class="st1" d="M256,3.9C116.8,3.9,3.9,116.8,3.9,256S116.8,508.1,256,508.1S508.1,395.2,508.1,256S395.2,3.9,256,3.9z
		 M256,478c-122.6,0-222-99.4-222-222S133.4,34,256,34s222,99.4,222,222S378.6,478,256,478z"/>
	<polygon class="st1" points="190,221.5 190,297.7 256,335.8 322,297.7 322,221.5 256,183.4 	"/>
	<polygon class="st1" points="354,113.4 354,148 384,165.3 414,148 414,113.4 384,96.1 	"/>
	<polygon class="st1" points="96,113.4 96,148 126,165.3 156,148 156,113.4 126,96.1 	"/>
	<polygon class="st1" points="96,365 96,399.6 126,417 156,399.6 156,365 126,347.7 	"/>
	<polygon class="st1" points="354,365 354,399.6 384,417 414,399.6 414,365 384,347.7 	"/>
	<path class="st0" d="M411.7,157.1L384.1,173l-24.6-14.2l-46.9,46.9l-7.6-4.4l46.9-46.9l-4-2.3v-41.7l11.7-6.7
		c-62.5-42.7-144.8-42.7-207.3,0l11.7,6.7v41.7l-4.4,2.5l46.9,46.9l-7.6,4.4l-46.9-46.9l-24.2,14l-27.5-15.9
		c-38.8,60.5-38.8,138.1,0,198.7l27.5-15.9l24.6,14.2l43.1-43.1l7.6,4.4L160,358.4l4,2.3v41.7l-11.7,6.7
		c62.5,42.7,144.8,42.7,207.3,0l-11.7-6.7v-41.7l3.6-2.1l-43.1-43.1l7.6-4.4l43.1,43.1l24.9-14.4l27.5,15.9
		C450.4,295.2,450.4,217.7,411.7,157.1L411.7,157.1z M255,262.7l-6-6l6-6l6,6L255,262.7z"/>
	<path class="st1" d="M441,256.5c0,35.4-10.1,70.1-29.2,99.9l5.2,3c40.1-62.7,40.1-143,0-205.7l-5.2,3
		C430.9,186.4,441,221.1,441,256.5z"/>
	<path class="st1" d="M255.3,70.7c37.2,0,73.5,11.2,104.2,32.2l5.8-3.3c-66-46.5-154-46.5-219.9,0l5.8,3.3
		C181.8,81.9,218.1,70.7,255.3,70.7z"/>
	<path class="st1" d="M69.6,256.5c0-35.4,10.1-70.1,29.2-99.9l-5.2-3c-40.1,62.7-40.1,143,0,205.7l5.2-3
		C79.7,326.5,69.5,291.8,69.6,256.5z"/>
	<path class="st1" d="M255.3,462.2c-37.2,0-73.5-11.2-104.2-32.2l-5.8,3.3c66,46.5,154,46.5,219.9,0l-5.8-3.3
		C328.8,451,292.5,462.2,255.3,462.2z"/>
	<polygon class="st1" points="205.5,201.3 158.4,154.2 150.8,158.5 197.9,205.7 	"/>
	<polygon class="st1" points="308.1,315.8 351.4,359.2 359,354.8 315.7,311.5 	"/>
	<polygon class="st1" points="194.5,311.2 151.2,354.6 158.8,359 202.1,315.6 	"/>
	<polygon class="st1" points="312.3,205.5 359.4,158.3 351.8,153.9 304.7,201.1 	"/>
	
		<rect x="250.8" y="252.5" transform="matrix(0.7071 -0.7071 0.7071 0.7071 -106.8647 255.5068)" class="st1" width="8.5" height="8.5"/>
</g>
</svg>
