<?xml version="1.0" encoding="utf-8"?>
<!-- Generator: Adobe Illustrator 27.7.0, SVG Export Plug-In . SVG Version: 6.00 Build 0)  -->
<svg version="1.1" id="Layer_1" xmlns="http://www.w3.org/2000/svg" xmlns:xlink="http://www.w3.org/1999/xlink" x="0px" y="0px"
	 viewBox="0 0 512 512" style="enable-background:new 0 0 512 512;" xml:space="preserve">
<style type="text/css">
	.st0{fill:#FFFFFF;}
</style>
<path class="st0" d="M466.2,116.5L271.7,4.2h0c-9.7-5.6-21.6-5.6-31.3,0L45.8,116.5c-9.7,5.6-15.6,15.9-15.6,27.1v224.7
	c0,11.2,6,21.5,15.6,27.1l194.6,112.4c9.7,5.6,21.6,5.6,31.3,0l194.6-112.4c9.7-5.6,15.6-15.9,15.6-27.1V143.6
	C481.9,132.5,475.9,122.1,466.2,116.5z M226.7,402.3l23.4-134.6h-52.7l87.8-158L256,244.3h58.5L226.7,402.3z"/>
</svg>
