<?xml version="1.0" encoding="utf-8"?>
<!-- Generator: Adobe Illustrator 27.7.0, SVG Export Plug-In . SVG Version: 6.00 Build 0)  -->
<svg version="1.1" id="Layer_1" xmlns="http://www.w3.org/2000/svg" xmlns:xlink="http://www.w3.org/1999/xlink" x="0px" y="0px"
	 viewBox="0 0 512 512" style="enable-background:new 0 0 512 512;" xml:space="preserve">
<style type="text/css">
	.st0{fill:#FFFFFF;}
	.st1{fill-rule:evenodd;clip-rule:evenodd;fill:#FFFFFF;}
</style>
<g>
	<path class="st0" d="M273.6,92.8c13.5-4.2,12.3-17.6,12.3-17.6s-6.7-7.9-20.1-3.5c-12.5,4.1-14.4,13-14.4,13S258.3,97.6,273.6,92.8
		z"/>
	<path class="st0" d="M241.7,352.3c2.5-4.7,9.2-5.4,13.8-5.9c13.5,0.1,27-1.6,40.1-5c45.1-11.5,86.8-48.3,85.7-97.7
		c-1.5-58.8-61.7-97.3-116.3-98.6c-34.2-1.6-68.5,10.3-95.2,31.6c-23.3,18.7-38.8,45.5-37.1,75.9c1.2,60.9,40.1,101.7,94.2,123.9
		c25.8,11,53.4,19.1,81.4,22.7c6.5,0.8,13,1.5,19.6,1.7c-21.9-0.7-68.2-15.9-81.9-33.4C242.5,363.6,239.5,358,241.7,352.3z
		 M249.4,355.8c-1.3,5.2,0.7,9.1,4.8,13.2c13.3,12.9,31.7,20.7,49.1,26.7c8,2.6,16.2,4.9,24.7,5.3c-35-1.5-70.4-5.9-103.4-18.2
		c-63.6-24.4-104.8-73.1-100.1-143.5c4.5-46.4,45.3-80.8,88.1-93.2c65.6-20.6,156.7,11.6,171.8,84.3c7.4,36.6-9.9,72.3-38.8,94.7
		c-24.7,19.5-56.3,29.3-87.6,29.8c-0.4,0-1.9,0-2.2,0.1c-2.2,0.2-4.8,0.5-6.6,1.5c-0.1,0.1-0.1,0.1-0.1,0.1s0.1,0,0.1-0.1
		c0,0,0.1-0.1,0.1-0.2C249.3,356,249.4,355.9,249.4,355.8z"/>
	<path class="st1" d="M240.8,271.1c7.6,4.5,18.6,4.8,26,0l88.1-66.6l-75.2,73.7c-14.5,14.1-37.5,14.1-52,0l-75.1-73.6L240.8,271.1z"
		/>
	<path class="st0" d="M343.8,363.5c-36.7,8.3-89.2,1.7-98.2-7.7c2.2-5.8,24.1-5.3,24.1-5.3c21,7,111.3,15.2,144.5-37.8
		C406.2,328,380.6,355.2,343.8,363.5z"/>
	<path class="st0" d="M512,118.3c-16.3-19.3-35.4-38.1-58.3-48.9c16.5-3.8,33.9-4.9,50.8-5.4c-16.7-13.4-34.8-27.6-54.7-35.6
		C370-4.6,240.5,4.8,203.9,94.8c-6.5,3-52.8,23.7-43,68.6c0,0,16.3-38,69.9-42.6c-0.2-4.6-6.8-13.9-10.4-16
		c24.4-55.6,85-81.6,145.8-83.2c52.3-1.4,101.7,16.3,128,40.9c-36.1,1.9-61.7,6.8-80.8,11.8c36.1-0.1,63.5,10.1,91.5,40.8
		c-21.2-4.1-36.7-5.8-45-5.6C577,287.2,442.3,497.4,246,497.4c-67.3,0-237.4-53.3-237.4-245.2c0.1-1.5,0.1-3,0.2-4.5
		c8,84.8,67.6,154.7,146.8,184.6c32.2,12.5,66.8,18.6,101.2,18.2c0.7,0-105.2,0.9-182.1-80.1C27.6,321,10.7,251.4,24.3,185
		c3.4,12.6,9.8,32.4,19.4,37.8C42.5,157.4,112,129.3,106,74c39.5,22.3,42,100.2,42,100.2c1.3-28.6-4.8-97.4-43.7-109.3
		c-6.8-2.1-14.3-0.8-15.2,6.9c-7.6,65.6-60.8,86.2-50.7,140.6c-15.6-68.1-33.5-51.8-37.1-7.6c-18.4,229.8,161.2,296.2,244.4,296.2
		c175.7,0,340.2-179.1,225.4-388.6C484.8,113.4,499,116,512,118.3z"/>
	<path class="st0" d="M124.9,292.8c-14.3-17.1-20.6-59.6-17.8-83.8c-0.1-4.5-2.9-8-6.4-9.6c-3.6-1.6-8.3-1.4-11.4,2.4
		c-67.5,81.1-5.9,156.3-6.7,155c-34.3-54.9-13.6-108.4,18.3-149C100.8,219.1,102.1,267.5,124.9,292.8z"/>
</g>
</svg>
