<?xml version="1.0" encoding="utf-8"?>
<!-- Generator: Adobe Illustrator 27.7.0, SVG Export Plug-In . SVG Version: 6.00 Build 0)  -->
<svg version="1.1" id="Capa_1" xmlns="http://www.w3.org/2000/svg" xmlns:xlink="http://www.w3.org/1999/xlink" x="0px" y="0px"
	 viewBox="0 0 512 512" style="enable-background:new 0 0 512 512;" xml:space="preserve">
<style type="text/css">
	.st0{fill:#FFFFFF;}
</style>
<path class="st0" d="M256,0C114.6,0,0,114.6,0,256s114.6,256,256,256s256-114.6,256-256S397.4,0,256,0z M351.5,383.1
	c0,2.2-1.3,4.3-3.3,5.2c-12.6,5.9-24.1,10.1-34.3,12.5c-10.4,2.4-21.6,3.6-33.4,3.6c-14,0-22.2-1.8-32.6-5.2
	c-10.7-3.6-20-8.7-27.6-15.2c-7.7-6.7-13.2-14-16.3-21.7c-3-7.6-4.5-18.1-4.5-32v-94.4h-33.1c-3.1,0-5.7-2.5-5.7-5.7v-40.4
	c0-2.4,1.5-4.6,3.9-5.4c14.2-4.6,24.4-9.5,30.3-14.6c7.4-6.4,13.5-14,17.9-22.8c4.5-8.9,7.7-20.5,9.4-34.5c0.4-2.8,2.8-5,5.7-5h40.6
	c3.1,0,5.7,2.5,5.7,5.7v60.3h60.3c3.1,0,5.7,2.5,5.7,5.7v51c0,3.1-2.5,5.7-5.7,5.7h-60.3v72.6c0,11.9,0,20.5,1.2,23.7
	c1.2,3.3,4.7,7.2,8.4,9.4c5.4,3.3,11.6,4.9,18.7,4.9c13.3,0,26.7-4.4,40-13.1c1.7-1.2,4-1.3,5.8-0.3c1.9,1,3,3,3.2,5V383.1z"/>
</svg>
