<?xml version="1.0" encoding="utf-8"?>
<!-- Generator: Adobe Illustrator 27.7.0, SVG Export Plug-In . SVG Version: 6.00 Build 0)  -->
<svg version="1.1" id="Layer_1" xmlns="http://www.w3.org/2000/svg" xmlns:xlink="http://www.w3.org/1999/xlink" x="0px" y="0px"
	 viewBox="0 0 512 512" style="enable-background:new 0 0 512 512;" xml:space="preserve">
<style type="text/css">
	.st0{fill:#FFFFFF;}
</style>
<path class="st0" d="M256,0C114.6,0,0,114.6,0,256s114.6,256,256,256s256-114.6,256-256S397.4,0,256,0z M314.9,481.9
	c-5.6-0.1-11.3-0.4-16.9-0.4c-27.4,0-54.8,0-82.2,0c-8.1,0-16.1,0-24.6,0c0.5-2.2,1.1-4.5,1.5-6.8c1.9-9.1,3.8-18.3,5.7-27.4
	c2.5-12.1,5.1-24.1,7.6-36.2c1.8-8.6,3.5-17.3,5.1-26c1.8-10.1,3.4-20.3,5.3-30.4c1.1-6.1,2.8-12.1,4-18.1c1.9-9.7,3.6-19.4,5.6-29
	c1.5-7.4,3.2-14.8,4.7-22.2c0.9-4.5,1.5-9,2.3-13.5c0.1-0.5,0.4-0.9,0.6-1.3c0.2,0,0.5-0.1,0.7-0.1c12,0,24.1,0,36.1,0
	c6,0,5.8,0.1,6.8,5.8c1.2,7.1,2.7,14.2,4.1,21.3c2.2,11.6,4.4,23.2,6.8,34.8c1.3,6.3,2.8,12.5,4,18.8c1.9,9.9,3.6,19.8,5.5,29.6
	c1.2,6.5,2.7,13,4,19.5c1.9,9.6,3.7,19.2,5.6,28.7c1.7,8.5,3.7,17,5.4,25.5c1.7,8.1,3.2,16.3,4.8,24.4
	C318,481.3,316.9,482,314.9,481.9z M296.2,180.3c0.4,4.3,0.6,8.8-0.1,13.1c-0.5,2.7-0.2,4.3,1.6,6.1c16,16,32,32,47.9,48
	c9,9,18.1,18.1,27.2,27.1c2,2,4,4,6,6c1.4,1.4,2,2.7,0.3,4.3c-1.3,1.2-2.5,2.5-3.8,3.7c-6.9,6.9-13.9,13.9-20.8,20.8
	c-2.8,2.9-2.8,2.9-5.7,0c-26.5-26.5-53-52.9-79.3-79.5c-2.6-2.6-4.7-3.6-8.3-2.8c-5.3,1.3-10.6,1.1-15.9-0.3
	c-0.9-0.3-2.3,0.6-3.3,1.2c-1,0.7-1.8,1.8-2.7,2.7c-25.9,25.9-51.9,51.9-77.8,77.8c-1.3,1.3-2.6,2.5-4,3.8c-1.2-1.3-2.3-2.6-3.6-3.8
	c-7.6-7.6-15.3-15.2-22.9-22.8c-2.8-2.8-2.4-3,0.4-5.6c5.8-5.4,11.3-11,16.9-16.6c21.3-21.3,42.5-42.6,63.8-63.8
	c1.7-1.7,2.5-3.4,1.6-5.8c-2-5.4-1.6-11,0.1-16.3c0.7-2.1,0-3.1-1.2-4.3c-13.8-13.7-27.5-27.4-41.2-41.1
	c-9.5-9.6-18.9-19.2-28.4-28.8c-4.1-4.1-8.3-8.1-12.5-12.1c-1.6-1.5-1.7-2.7-0.2-4.2c7.9-7.7,15.8-15.5,23.7-23.3
	c1.2-1.2,2.3-2.6,4.3-4.7c4.2,4.7,7.8,9,11.8,12.9c24.1,24.2,48.2,48.3,72.4,72.3c0.5,0.5,1.4,0.9,2.1,1c6.5,0.1,13,0.1,19.5,0
	c1.2,0,2.6-0.4,3.4-1.2c6.6-6.4,13.1-12.9,19.6-19.4c17.5-17.5,35.1-35,52.6-52.5c3.7-3.7,7.3-7.4,11.1-11.1
	c0.4-0.4,1.8-0.5,2.1-0.2c7.7,7.5,15.3,15.1,22.8,22.6c6.1,6.1,6.1,4.8,0.1,10.8c-25.7,25.7-51.4,51.5-77.2,77.1
	C295.6,174.2,295.9,176.9,296.2,180.3z"/>
</svg>
