<?xml version="1.0" encoding="utf-8"?>
<!-- Generator: Adobe Illustrator 27.7.0, SVG Export Plug-In . SVG Version: 6.00 Build 0)  -->
<svg version="1.1" id="Layer_1" xmlns="http://www.w3.org/2000/svg" xmlns:xlink="http://www.w3.org/1999/xlink" x="0px" y="0px"
	 viewBox="0 0 512 512" style="enable-background:new 0 0 512 512;" xml:space="preserve">
<style type="text/css">
	.st0{fill:#FFFFFF;stroke:#FFFFFF;stroke-width:2;}
</style>
<g>
	<path class="st0" d="M266.9,5.5v277.7c22.8-6.6,44.5-23.7,65-35.4c40-22.8,79.6-46.1,119.5-69c19-10.9,37.8-24,58-32.7v-3.5
		c-20.2-8.7-39-21.7-58-32.7c-39.9-22.9-79.6-46.2-119.5-69C311.4,29.2,289.6,12.1,266.9,5.5 M458.5,279.7h-96.7
		c0,27.8-7.5,52.7-23.6,75.6c-10.5,14.9-24.2,27.2-39.7,36.8c-12.6,7.8-27.5,14.3-42.2,17.1c-92.8,17.7-176.5-69-154.4-161.2
		c3.8-15.7,10.1-29.1,19.5-42.2c11.7-16.5,26.2-30.1,43.6-40.4c19.7-11.7,42.2-17.6,65-17.6V51.2c-32.2,0-65.7,7-94.9,20.7
		C89.2,93.4,48.6,130.3,25.8,176c-42.9,86-25.1,197.2,42.8,265.1c21.1,21.1,46.2,37.3,73.5,49c27.4,11.8,54.7,16.3,84.4,16.3
		c34.5,0,66.5-5,98.4-19.1c36.3-16,66.8-42.4,90.3-74.1C443.1,375.7,458.5,326.3,458.5,279.7z"/>
</g>
</svg>
