<?xml version="1.0" encoding="utf-8"?>
<!-- Generator: Adobe Illustrator 27.7.0, SVG Export Plug-In . SVG Version: 6.00 Build 0)  -->
<svg version="1.1" id="Layer_1" xmlns="http://www.w3.org/2000/svg" xmlns:xlink="http://www.w3.org/1999/xlink" x="0px" y="0px"
	 viewBox="0 0 512 512" style="enable-background:new 0 0 512 512;" xml:space="preserve">
<style type="text/css">
	.st0{fill:#FFFFFF;}
	.st1{fill:#34495E;}
	.st2{fill:#41B883;}
</style>
<g id="Layer_2_00000009588946127144902790000005625244240466510729_">
	<g id="Layer_1-2">
		<path class="st0" d="M133.5,156.3c41.2-22.2,85.9-40.5,132.9-54.4c14.4-4.2,29-8.1,43.9-11.5c-42.2-2.6-117.5-7.2-119.7-7.4
			c-31.8-3.3-65.2,31.9-65.2,31.9s-5.3,29.4-9,50.8C122.2,162.5,127.8,159.4,133.5,156.3z"/>
		<path class="st0" d="M109.5,132.4c-23.9,7.9-44.1,29.2-44.1,29.2s-0.1,16.8-0.1,35.8l37.1-24.6
			C105.3,155.8,108.7,137.3,109.5,132.4z"/>
		<path class="st1" d="M453.3,429.2c-39.8-46.7-124.1-152.1-393.1-145c0,0-2.2,12.1-41.4,61.3C239.5,326.6,315.8,340.3,453.3,429.2z
			"/>
		<path class="st2" d="M449.4,424.7c3,2.7,4.6,4.3,4.8,4.4C381.7,260,167.6,242.9,167.6,242.9c-3.4,12.5-21.6,28.5-43.7,41.8
			C335.5,294,411.6,380.2,449.4,424.7z"/>
		<path class="st1" d="M454.2,429.1c-10.6-42.9-43.8-147.3-195.1-222.2c0,0-0.7,20.1-24.5,49.1C303.7,275.1,407.9,321.1,454.2,429.1
			z"/>
		<path class="st0" d="M503.3,83.8c-0.5,0-47.1-3.1-115,5.9c-62,8.2-155.3,28.5-247.9,78.5c-6.7,3.6-13.2,7.2-19.9,11
			c-0.2,0.1-0.3,0.2-0.5,0.3L12.3,250.8c-1,0.7-1.7,1.7-2,2.8L0.1,298.3c-0.6,2.5,1,5,3.5,5.6c0.3,0.1,0.7,0.1,1,0.1l44.5,0.5
			c10.2-15.5,11-20.2,11-20.2c22.5-0.6,43.7-0.5,63.7,0.5l0,0c22.1-13.3,40.3-29.3,43.7-41.8c0,0,27.9,2.2,67,13
			c23.8-29,24.5-49.1,24.5-49.1c54.1,26.8,93.1,57.3,121.3,87.5c22.2-65.1,125.2-201.6,126.3-203l5.2-5.9L503.3,83.8z M395.9,143.5
			c-45.5-3.8-99.8,4.1-99.8,4.1l-8.2-6.9c72.5-19.3,125.6-20,125.6-20L395.9,143.5z"/>
	</g>
</g>
</svg>
