<?xml version="1.0" encoding="UTF-8" standalone="no"?>
<svg width="400" height="400" viewBox="0 0 105.83333 105.83334" version="1.1" id="svg8915" inkscape:version="1.1 (c4e8f9ed74, 2021-05-24)" sodipodi:docname="garuda-blue-sgs.svg" inkscape:export-filename="/home/sgs/Bilder/garuda-orange-1024.png" inkscape:export-xdpi="245.75999" inkscape:export-ydpi="245.75999" xmlns:inkscape="http://www.inkscape.org/namespaces/inkscape" xmlns:sodipodi="http://sodipodi.sourceforge.net/DTD/sodipodi-0.dtd" xmlns:xlink="http://www.w3.org/1999/xlink" xmlns="http://www.w3.org/2000/svg" xmlns:svg="http://www.w3.org/2000/svg" xmlns:rdf="http://www.w3.org/1999/02/22-rdf-syntax-ns#" xmlns:cc="http://creativecommons.org/ns#" xmlns:dc="http://purl.org/dc/elements/1.1/">
  <defs id="defs8909">
    <linearGradient inkscape:collect="always" xlink:href="#linearGradient2098" id="linearGradient2351" gradientUnits="userSpaceOnUse" gradientTransform="matrix(0.99582913,0,0,0.99582913,0.8708,-0.85671616)" x1="84.990685" y1="236.78419" x2="104.03497" y2="236.78419"/>
    <linearGradient id="linearGradient2098" inkscape:collect="always">
      <stop id="stop2094" offset="0" style="stop-color:#2972e2;stop-opacity:1"/>
      <stop id="stop2096" offset="1" style="stop-color:#26c7fc;stop-opacity:1"/>
    </linearGradient>
    <linearGradient inkscape:collect="always" xlink:href="#linearGradient2110" id="linearGradient2353" gradientUnits="userSpaceOnUse" gradientTransform="matrix(0.96437972,-0.24828898,0.24828898,0.96437972,-62.3016,25.352966)" x1="60.396301" y1="249.92128" x2="73.893196" y2="249.92128"/>
    <linearGradient id="linearGradient2110" inkscape:collect="always">
      <stop id="stop2106" offset="0" style="stop-color:#26c4fb;stop-opacity:1"/>
      <stop id="stop2108" offset="1" style="stop-color:#2977e3;stop-opacity:1"/>
    </linearGradient>
    <linearGradient inkscape:collect="always" xlink:href="#linearGradient2110" id="linearGradient2355" gradientUnits="userSpaceOnUse" gradientTransform="matrix(0.99582913,0,0,0.99582913,0.8708,-0.85671616)" x1="60.396301" y1="249.92128" x2="73.997559" y2="246.41939"/>
    <linearGradient inkscape:collect="always" xlink:href="#linearGradient2098" id="linearGradient2357" gradientUnits="userSpaceOnUse" gradientTransform="matrix(0.99582913,0,0,0.99582913,0.8708,-0.85671616)" x1="64.392105" y1="228.14523" x2="84.990685" y2="228.14523"/>
    <linearGradient inkscape:collect="always" xlink:href="#linearGradient2110" id="linearGradient2359" gradientUnits="userSpaceOnUse" gradientTransform="matrix(0.99582913,0,0,0.99582913,0.8708,-0.85671616)" x1="84.361542" y1="234.05646" x2="84.151169" y2="237.95784"/>
    <linearGradient inkscape:collect="always" xlink:href="#linearGradient2110" id="linearGradient2361" gradientUnits="userSpaceOnUse" gradientTransform="matrix(0.99582913,0,0,0.99582913,0.8708,-0.85671616)" x1="9.4423542" y1="230.94318" x2="50.305416" y2="223.45911"/>
    <linearGradient inkscape:collect="always" xlink:href="#linearGradient2110" id="linearGradient2363" gradientUnits="userSpaceOnUse" gradientTransform="matrix(0.99582912,0,0,0.99582912,0.8708,-0.8567264)" x1="26.040033" y1="222.32001" x2="64.62645" y2="222.32001"/>
    <linearGradient inkscape:collect="always" xlink:href="#linearGradient2104" id="linearGradient2365" gradientUnits="userSpaceOnUse" gradientTransform="matrix(0.99582913,0,0,0.99582913,0.8708,-0.85671616)" x1="84.990685" y1="226.43633" x2="94.986862" y2="226.43633"/>
    <linearGradient id="linearGradient2104" inkscape:collect="always">
      <stop id="stop2100" offset="0" style="stop-color:#279ff0;stop-opacity:1"/>
      <stop id="stop2102" offset="1" style="stop-color:#8de1fd;stop-opacity:1"/>
    </linearGradient>
    <linearGradient inkscape:collect="always" xlink:href="#linearGradient2104" id="linearGradient2367" gradientUnits="userSpaceOnUse" gradientTransform="matrix(0.99582913,0,0,0.99582913,0.81059,-0.99644691)" x1="84.990685" y1="228.64478" x2="104.03497" y2="228.64478"/>
    <linearGradient inkscape:collect="always" xlink:href="#linearGradient2104" id="linearGradient2369" gradientUnits="userSpaceOnUse" gradientTransform="matrix(0.99582913,0,0,0.99582913,0.8708,-0.85671616)" x1="96.589539" y1="242.79604" x2="104.03497" y2="242.79604"/>
    <linearGradient inkscape:collect="always" xlink:href="#linearGradient2110" id="linearGradient2371" gradientUnits="userSpaceOnUse" gradientTransform="matrix(0.99582913,0,0,0.99582913,0.8708,-0.85671616)" x1="68.41713" y1="213.70825" x2="87.139732" y2="213.70825"/>
    <linearGradient inkscape:collect="always" xlink:href="#linearGradient2104" id="linearGradient2373" gradientUnits="userSpaceOnUse" gradientTransform="matrix(0.99582913,0,0,0.99582913,0.8708,-0.85671616)" x1="49.313831" y1="210.37106" x2="78.71286" y2="210.37106"/>
    <linearGradient inkscape:collect="always" xlink:href="#linearGradient2110" id="linearGradient2375" gradientUnits="userSpaceOnUse" gradientTransform="matrix(0.99582913,0,0,0.99582913,0.8708,-0.85671616)" x1="26.040033" y1="215.47971" x2="68.747917" y2="215.47971"/>
    <linearGradient inkscape:collect="always" xlink:href="#linearGradient2098" id="linearGradient2377" gradientUnits="userSpaceOnUse" gradientTransform="matrix(0.99582913,0,0,0.99582913,0.8708,-0.85671616)" x1="68.473366" y1="219.45323" x2="87.139732" y2="218.32979"/>
    <linearGradient inkscape:collect="always" xlink:href="#linearGradient2098" id="linearGradient2379" gradientUnits="userSpaceOnUse" gradientTransform="matrix(0.99582913,0,0,0.99582913,0.8708,-0.85671616)" x1="73.07399" y1="226.43633" x2="87.139732" y2="226.43633"/>
    <linearGradient inkscape:collect="always" xlink:href="#linearGradient2098" id="linearGradient2381" gradientUnits="userSpaceOnUse" gradientTransform="matrix(0.99582913,0,0,0.99582913,0.8708,-0.85671616)" x1="64.010452" y1="229.4481" x2="84.990685" y2="229.4481"/>
    <linearGradient inkscape:collect="always" xlink:href="#linearGradient2098" id="linearGradient2383" gradientUnits="userSpaceOnUse" gradientTransform="matrix(0.99582913,0,0,0.99582913,0.8708,-0.85671616)" x1="60.738827" y1="229.79071" x2="31.603239" y2="237.79631"/>
    <linearGradient inkscape:collect="always" xlink:href="#linearGradient2110" id="linearGradient2385" gradientUnits="userSpaceOnUse" gradientTransform="matrix(0.99582913,0,0,0.99582913,0.8708,-0.85671616)" x1="74.356033" y1="245.42155" x2="73.301544" y2="232.25313"/>
    <linearGradient inkscape:collect="always" xlink:href="#linearGradient2110" id="linearGradient2389" gradientUnits="userSpaceOnUse" gradientTransform="matrix(0.99582913,0,0,0.99582913,0.8708,-0.85671616)" x1="15.984433" y1="239.53865" x2="61.029278" y2="227.73369"/>
    <linearGradient inkscape:collect="always" xlink:href="#linearGradient2110" id="linearGradient2391" gradientUnits="userSpaceOnUse" gradientTransform="matrix(0.99582913,0,0,0.99582913,0.8708,-0.85671616)" x1="0.45401412" y1="245.29109" x2="47.828709" y2="245.29109"/>
    <linearGradient inkscape:collect="always" xlink:href="#linearGradient2110" id="linearGradient2393" gradientUnits="userSpaceOnUse" gradientTransform="matrix(0.99582913,0,0,0.99582913,0.8708,-0.85671616)" x1="3.0690458" y1="248.2049" x2="47.828709" y2="248.2049"/>
    <linearGradient inkscape:collect="always" xlink:href="#linearGradient2104" id="linearGradient2395" gradientUnits="userSpaceOnUse" gradientTransform="matrix(0.99582913,0,0,0.99582913,0.8708,-0.85671616)" x1="25.745007" y1="247.43947" x2="35.366211" y2="259.47876"/>
    <linearGradient inkscape:collect="always" xlink:href="#linearGradient2110" id="linearGradient2397" gradientUnits="userSpaceOnUse" gradientTransform="matrix(0.99582913,0,0,0.99582913,0.8708,-0.85671616)" x1="26.82168" y1="250.59947" x2="47.828709" y2="257.93643"/>
    <linearGradient inkscape:collect="always" xlink:href="#linearGradient2110" id="linearGradient2399" gradientUnits="userSpaceOnUse" gradientTransform="matrix(0.99582913,0,0,0.99582913,0.8708,-0.85671616)" x1="47.828709" y1="252.61922" x2="72.465904" y2="252.61922"/>
    <linearGradient inkscape:collect="always" xlink:href="#linearGradient2098" id="linearGradient2401" gradientUnits="userSpaceOnUse" gradientTransform="matrix(0.99582913,0,0,0.99582913,0.8708,-0.85671616)" x1="47.828709" y1="255.66508" x2="69.110939" y2="255.66508"/>
    <linearGradient inkscape:collect="always" xlink:href="#linearGradient2110" id="linearGradient2403" gradientUnits="userSpaceOnUse" gradientTransform="matrix(0.99582913,0,0,0.99582913,0.8708,-0.85671616)" x1="29.910975" y1="255.24037" x2="50.258846" y2="262.24741"/>
    <linearGradient inkscape:collect="always" xlink:href="#linearGradient2098" id="linearGradient2405" gradientUnits="userSpaceOnUse" gradientTransform="matrix(0.99582913,0,0,0.99582913,0.8708,-0.85671616)" x1="47.828709" y1="258.90265" x2="65.866058" y2="258.90265"/>
    <linearGradient inkscape:collect="always" xlink:href="#linearGradient2110" id="linearGradient2407" gradientUnits="userSpaceOnUse" gradientTransform="matrix(0.99582913,0,0,0.99582913,0.8708,-0.85671616)" x1="39.274921" y1="261.4118" x2="52.925247" y2="261.11023"/>
    <linearGradient inkscape:collect="always" xlink:href="#linearGradient2110" id="linearGradient2409" gradientUnits="userSpaceOnUse" gradientTransform="matrix(0.99582913,0,0,0.99582913,0.8708,-0.85671616)" x1="47.828709" y1="260.43134" x2="60.346333" y2="260.43134"/>
    <linearGradient inkscape:collect="always" xlink:href="#linearGradient2110" id="linearGradient2411" gradientUnits="userSpaceOnUse" gradientTransform="matrix(0.96437972,-0.24828898,0.24828898,0.96437972,-62.20978,25.343112)" x1="54.119331" y1="231.45634" x2="73.555878" y2="257.89557"/>
  </defs>
  <sodipodi:namedview inkscape:pagecheckerboard="true" id="base" pagecolor="#929292" bordercolor="#b31919" borderopacity="1" inkscape:pageopacity="0" inkscape:pageshadow="2" inkscape:zoom="1.4142136" inkscape:cx="184.20131" inkscape:cy="268.70057" inkscape:document-units="px" inkscape:current-layer="layer1" showgrid="false" inkscape:window-width="3840" inkscape:window-height="2078" inkscape:window-x="0" inkscape:window-y="38" inkscape:window-maximized="1" units="px" borderlayer="true" inkscape:showpageshadow="false" inkscape:snap-global="false" showguides="true" inkscape:guide-bbox="true" inkscape:document-rotation="0">
    <sodipodi:guide position="374.43734,132.96355" orientation="1,0" id="guide3519"/>
  </sodipodi:namedview>
  <metadata id="metadata8912">
    <rdf:RDF>
      <cc:Work rdf:about="">
        <dc:format>image/svg+xml</dc:format>
        <dc:type rdf:resource="http://purl.org/dc/dcmitype/StillImage"/>
      </cc:Work>
    </rdf:RDF>
  </metadata>
  <g inkscape:label="Ebene 1" inkscape:groupmode="layer" id="layer1" transform="translate(0,-191.16665)">
    <path style="fill:#000000;stroke-width:0.0822478" id="path3437" d=""/>
    <path transform="matrix(0.26458334,0,0,0.26458334,0,191.16665)" id="path1918" d="" style="fill:#ac2f13;fill-opacity:1;stroke-width:0.35411"/>
    <g id="g1194">
      <path sodipodi:nodetypes="cssssssscsssssssssssssssssssssssssssssscsccssscsscssccsscsscccssscssccsssscccc" id="path2279" d="m 48.341992,282.31263 c -6.163408,-2.05291 -14.122286,-4.64259 -14.268132,-4.64259 -0.110184,0 -0.237921,0.23008 -0.442308,0.79668 -0.158065,0.43817 -0.287389,0.8284 -0.287389,0.86716 0,0.0387 -0.05243,0.14237 -0.116439,0.23023 -0.133267,0.18282 0.325977,0.41286 -6.616325,-3.31412 -5.156977,-2.76851 -5.291361,-2.83501 -5.454569,-2.69914 -0.07027,0.0585 -0.668661,0.86453 -1.329804,1.79125 l -1.202088,1.6849 -0.128258,-0.30726 c -0.134107,-0.3213 -2.385113,-6.72225 -4.42409,-12.58035 -0.655365,-1.88287 -1.22909,-3.42341 -1.27496,-3.42341 -0.123116,0 -1.669629,1.07316 -4.3415067,3.01268 -1.302444,0.94545 -2.381487,1.70636 -2.397887,1.69093 -0.01639,-0.0155 0.730859,-1.7403 1.660564,-3.83302 2.9706177,-6.68672 3.1867947,-7.20508 3.0048817,-7.20508 -0.02981,0 -1.4923767,0.73687 -3.2502947,1.63748 -1.757927,0.90061 -3.1962187,1.6154 -3.1962187,1.58844 0,-0.0269 0.5223637,-1.65462 1.1608067,-3.61699 0.638443,-1.96239 1.160817,-3.62319 1.160817,-3.69069 2.1e-5,-0.15181 0.08338,-0.17693 -2.4562837,0.74033 -1.121114,0.40492 -2.069052,0.72505 -2.106502,0.71139 -0.07119,-0.026 0.995129,-1.20161 5.3866757,-5.93906 2.445499,-2.6381 2.7116847,-2.95938 3.7056467,-4.47248 2.560911,-3.8984 4.664206,-7.17962 4.664206,-7.27632 0,-0.0595 -0.09004,-0.0854 -0.208956,-0.06 -0.114921,0.0245 -1.103136,0.24086 -2.196039,0.48082 -1.092904,0.23997 -2.046424,0.42394 -2.118938,0.40883 -0.07252,-0.0152 2.367884,-1.58597 5.423123,-3.49079 11.441102,-7.13311 13.752278,-8.54068 14.370153,-8.75187 0.233731,-0.0799 0.424975,-0.16671 0.424975,-0.19292 0,-0.0262 -0.971611,-0.0173 -2.159135,0.0197 -1.187526,0.0371 -2.13824,0.048 -2.112693,0.0243 0.0546,-0.0507 10.661999,-8.29351 15.09069,-11.72676 3.565757,-2.76426 6.687112,-5.14044 7.306705,-5.56231 0.365271,-0.24872 0.520874,-0.29592 0.975085,-0.2958 0.297258,7e-5 3.340364,0.18821 6.76249,0.41805 15.762215,1.05866 21.373695,1.45778 21.554166,1.53309 0.107276,0.0447 2.061578,2.3969 4.34292,5.22696 l 4.147888,5.14556 3.829247,1.76537 c 2.10612,0.97095 3.835667,1.77172 3.843467,1.77948 0,0 0.30834,0.53375 0.0787,0.25262 l 0.26214,0.29996 c 0.50589,0.57885 8.630127,11.45556 8.669517,11.60674 0.035,0.13398 -1.02218,9.24873 -1.13122,9.75377 -0.0382,0.17711 -5.426227,5.40433 -5.426227,5.87855 -0.0166,-0.0167 0.11358,-2.08158 0.28946,-4.58855 0.17588,-2.50697 0.60602,-5.00034 0.37829,-5.41287 l -0.47186,-0.85474 -0.40282,-0.0541 c -0.44283,-0.0594 -8.435934,-0.56952 -19.022435,-1.21394 -3.754101,-0.22852 -7.17039,-0.44026 -7.591751,-0.47052 l -0.766172,-0.0551 v 0.29027 c 0,0.30549 0.893879,8.13979 2.141006,18.76494 l 0.742972,6.32993 -0.325154,0.47033 c -0.178823,0.25867 -1.051835,1.47617 -1.940005,2.70556 l -1.614862,2.23525 0.235817,0.42368 0.235818,0.42366 -2.059443,2.56524 c -1.132684,1.41087 -2.059413,2.6369 -2.059413,2.7245 0,0.0877 0.19699,0.62495 0.437781,1.19412 l 0.437782,1.03485 -0.307951,0.24225 c -0.169363,0.13324 -1.526049,1.04356 -3.014802,2.02293 l -2.706862,1.78068 0.02393,0.3153 c 0.0131,0.1734 0.151921,0.83287 0.308229,1.46548 0.156318,0.63263 0.269183,1.16531 0.250797,1.18375 -0.03654,0.0367 -3.452564,-0.41795 -7.026769,-0.93504 -1.24561,-0.1802 -2.316812,-0.32764 -2.380478,-0.32764 -0.08905,0 -0.104436,0.27988 -0.06681,1.21101 0.02789,0.68859 0.0132,1.20696 -0.03405,1.20166 -0.04566,-0.005 -1.336684,-0.42694 -2.868969,-0.93731 z" style="fill:#297be5;fill-opacity:1;stroke-width:0.0931563"/>
      <path sodipodi:nodetypes="cccc" d="m 83.738847,231.43197 20.733013,1.45581 -6.618081,4.89893 z" style="fill:url(#linearGradient2351);fill-opacity:1;fill-rule:nonzero;stroke:none;stroke-width:0.0187065" id="path2281" inkscape:connector-curvature="0"/>
      <path sodipodi:nodetypes="cccc" inkscape:connector-curvature="0" id="path2283" style="fill:url(#linearGradient2353);fill-opacity:1;fill-rule:nonzero;stroke:none;stroke-width:0.0187065" d="m 61.690611,235.37776 11.354657,26.092 -18.858141,-26.57714 z"/>
      <path d="m 69.981292,235.23962 3.0912,26.30949 -12.057298,-27.05388 z" style="fill:url(#linearGradient2355);fill-opacity:1;fill-rule:nonzero;stroke:none;stroke-width:0.0187065" id="path2285" inkscape:connector-curvature="0" sodipodi:nodetypes="cccc"/>
      <path d="m 64.994335,223.24925 20.51266,8.84378 -11.866987,-11.51215 z" style="fill:url(#linearGradient2357);fill-opacity:1;fill-rule:nonzero;stroke:none;stroke-width:0.0187065" id="path2287" inkscape:connector-curvature="0" sodipodi:nodetypes="cccc"/>
      <path d="M 97.856152,237.76954 85.439391,231.93975 48.113374,234.6415 Z" style="fill:url(#linearGradient2359);fill-opacity:1;fill-rule:nonzero;stroke:none;stroke-width:0.0187777" id="path2289" inkscape:connector-curvature="0" sodipodi:nodetypes="cccc"/>
      <path sodipodi:nodetypes="cccc" d="M 10.222543,235.27979 30.766147,222.54901 84.12897,219.06268 Z" style="fill:url(#linearGradient2361);fill-opacity:1;fill-rule:nonzero;stroke:none;stroke-width:0.0187065" id="path2291" inkscape:connector-curvature="0"/>
      <path d="m 69.175497,212.53161 c 0,0 -39.919641,9.59918 -42.373415,10.16508 l 2.044539,-0.29694 -2.020866,0.29539 46.875213,-2.05175 -2.502544,-4.39424 h 5.27e-4 z" style="fill:url(#linearGradient2363);fill-opacity:1;fill-rule:nonzero;stroke:none;stroke-width:0.0187065" id="path2293"/>
      <path d="m 95.461486,220.78101 -9.954491,11.31202 2.140087,-14.9157 z" style="fill:url(#linearGradient2365);fill-opacity:1;fill-rule:nonzero;stroke:none;stroke-width:0.0187065" id="path2295" inkscape:connector-curvature="0"/>
      <path sodipodi:nodetypes="cccc" d="M 104.51042,232.89367 95.360547,220.69818 85.446776,231.9533 Z" style="fill:url(#linearGradient2367);fill-opacity:1;fill-rule:nonzero;stroke:none;stroke-width:0.0187065" id="path2297" inkscape:connector-curvature="0"/>
      <path d="m 97.057474,248.96552 0.796305,-11.17881 6.618081,-4.89893 -1.22756,10.05922 -6.186826,6.01852" style="fill:url(#linearGradient2369);fill-opacity:1;fill-rule:nonzero;stroke:none;stroke-width:0.0187065" id="path2299" inkscape:connector-curvature="0"/>
      <path d="m 87.647082,217.17733 -8.443268,-10.4343 -10.500601,5.87812 z" style="fill:url(#linearGradient2371);fill-opacity:1;fill-rule:nonzero;stroke:none;stroke-width:0.0187065" id="path2301" inkscape:connector-curvature="0" sodipodi:nodetypes="cccc"/>
      <path d="m 49.97895,204.75199 19.159118,7.76984 10.117292,-5.76994 z" style="fill:url(#linearGradient2373);fill-opacity:1;fill-rule:nonzero;stroke:none;stroke-width:0.0187065" id="path2303" inkscape:connector-curvature="0" sodipodi:nodetypes="cccc"/>
      <path d="m 26.802225,222.69653 23.176725,-17.94454 19.290178,7.82037 z" style="fill:url(#linearGradient2375);fill-opacity:1;fill-rule:nonzero;stroke:none;stroke-width:0.0187065" id="path2305" inkscape:connector-curvature="0" sodipodi:nodetypes="cccc"/>
      <path sodipodi:nodetypes="cccc" d="m 87.647082,217.17733 -14.080951,3.55478 -4.440524,-8.1881 z" style="fill:url(#linearGradient2377);fill-opacity:1;fill-rule:nonzero;stroke:none;stroke-width:0.0187065" id="path2307" inkscape:connector-curvature="0"/>
      <path sodipodi:nodetypes="cccc" d="m 87.647082,217.17733 -14.788944,3.57718 12.648857,11.33852 z" style="fill:url(#linearGradient2379);fill-opacity:1;fill-rule:nonzero;stroke:none;stroke-width:0.0187065" id="path2309" inkscape:connector-curvature="0"/>
      <path d="m 66.108871,230.91584 19.398124,1.17719 -20.540349,-8.9543 z" style="fill:url(#linearGradient2381);fill-opacity:1;fill-rule:nonzero;stroke:none;stroke-width:0.0187065" id="path2311" inkscape:connector-curvature="0" sodipodi:nodetypes="cccc"/>
      <path sodipodi:nodetypes="cccc" d="M 66.222168,230.90768 9.990181,242.83046 65.038751,223.10769 Z" style="fill:url(#linearGradient2383);fill-opacity:1;fill-rule:nonzero;stroke:none;stroke-width:0.0187065" id="path2313" inkscape:connector-curvature="0"/>
      <path d="m 48.562314,234.64625 17.749036,-3.75768 19.568694,1.11159 z" style="fill:url(#linearGradient2385);fill-opacity:1;fill-rule:nonzero;stroke:none;stroke-width:0.0187065" id="path2315" inkscape:connector-curvature="0" sodipodi:nodetypes="cccc"/>
      <path sodipodi:nodetypes="cccc" d="m 65.026806,223.1446 -49.279157,10.90506 -5.757468,8.7808 z" style="fill:url(#linearGradient2389);fill-opacity:1;fill-rule:nonzero;stroke:none;stroke-width:0.0187065" id="path2319" inkscape:connector-curvature="0"/>
      <path d="M 48.500019,234.6505 9.990181,242.83046 1.32292,252.17208 Z" style="fill:url(#linearGradient2391);fill-opacity:1;fill-rule:nonzero;stroke:none;stroke-width:0.0187065" id="path2321" inkscape:connector-curvature="0"/>
      <path d="M 3.92705,257.97538 48.500019,234.6505 6.537907,250.23522 Z" style="fill:url(#linearGradient2393);fill-opacity:1;fill-rule:nonzero;stroke:none;stroke-width:0.0187065" id="path2323" inkscape:connector-curvature="0"/>
      <path d="M 5.60595,265.91234 10.781272,254.38861 48.500019,234.6505 Z" style="fill:url(#linearGradient2395);fill-opacity:1;fill-rule:nonzero;stroke:none;stroke-width:0.0187065" id="path2325" inkscape:connector-curvature="0"/>
      <path sodipodi:nodetypes="cccc" d="M 18.524062,277.35731 12.645322,260.46619 48.500019,234.6505 Z" style="fill:url(#linearGradient2397);fill-opacity:1;fill-rule:nonzero;stroke:none;stroke-width:0.0187065" id="path2327" inkscape:connector-curvature="0"/>
      <path d="M 73.034461,261.42578 69.17008,266.76722 48.500019,234.6505 Z" style="fill:url(#linearGradient2399);fill-opacity:1;fill-rule:nonzero;stroke:none;stroke-width:0.0187065" id="path2329" inkscape:connector-curvature="0"/>
      <path d="M 65.409524,272.83354 48.500019,234.6505 69.693486,267.5802 Z" style="fill:url(#linearGradient2401);fill-opacity:1;fill-rule:nonzero;stroke:none;stroke-width:0.0187065" id="path2331" inkscape:connector-curvature="0"/>
      <path d="M 33.265299,279.9577 21.237057,273.49201 48.500019,234.6505 Z" style="fill:url(#linearGradient2403);fill-opacity:1;fill-rule:nonzero;stroke:none;stroke-width:0.0187065" id="path2333" inkscape:connector-curvature="0"/>
      <path d="M 66.462136,275.21019 48.500019,234.6505 60.189863,279.28165 Z" style="fill:url(#linearGradient2405);fill-opacity:1;fill-rule:nonzero;stroke:none;stroke-width:0.0187065" id="path2335" inkscape:connector-curvature="0"/>
      <path d="m 48.500019,234.6505 2.993967,48.76415 -17.472942,-5.7049 z" style="fill:url(#linearGradient2407);fill-opacity:1;fill-rule:nonzero;stroke:none;stroke-width:0.0187065" id="path2337" inkscape:connector-curvature="0"/>
      <path sodipodi:nodetypes="cccc" d="m 48.500019,234.6505 2.832074,46.27865 9.69918,1.37778 z" style="fill:url(#linearGradient2409);fill-opacity:1;fill-rule:nonzero;stroke:none;stroke-width:0.0187065" id="path2339" inkscape:connector-curvature="0"/>
      <path style="fill:#000000;fill-opacity:1;stroke:none;stroke-width:0.375614px;stroke-linecap:butt;stroke-linejoin:miter;stroke-opacity:1" d="m 56.755443,217.22848 c 9.7056,-4.45351 18.334521,9.19849 23.472344,3.65198 -2.239659,3.57968 -7.453759,3.90526 -11.088773,3.91761 0,0 -5.577588,-0.13282 -4.847188,-4.81398 -1.205199,-1.99087 -5.022378,-1.95121 -7.536383,-2.75561 z" id="path2341" inkscape:connector-curvature="0" sodipodi:nodetypes="ccccc"/>
      <path style="fill:#ffffff;fill-opacity:1;stroke:none;stroke-width:0.412713;stroke-linecap:round;stroke-miterlimit:4;stroke-dasharray:none;stroke-opacity:1;paint-order:stroke fill markers" d="m 65.851932,218.62017 a 2.9547924,2.9547924 0 0 0 -1.228081,2.39306 2.9547924,2.9547924 0 0 0 2.955027,2.95504 2.9547924,2.9547924 0 0 0 2.954292,-2.95504 2.9547924,2.9547924 0 0 0 -0.08803,-0.70573 2.4069938,2.9215925 0 0 1 -2.252216,1.90082 2.4069938,2.9215925 0 0 1 -2.407014,-2.9213 2.4069938,2.9215925 0 0 1 0.06602,-0.66685 z" id="path2343" inkscape:connector-curvature="0"/>
      <path inkscape:connector-curvature="0" id="path2345" d="m 91.922244,223.72124 c 0,0 -3.359235,0.83979 -2.939326,2.72935 0,0 1.364686,-0.10495 2.939326,-2.72935 z" style="fill:#000000;fill-opacity:1;stroke:none;stroke-width:0.209952px;stroke-linecap:butt;stroke-linejoin:miter;stroke-opacity:1"/>
      <path d="M 54.611051,235.04937 73.057695,261.48192 48.474062,234.65737 Z" style="fill:url(#linearGradient2411);fill-opacity:1;fill-rule:nonzero;stroke:none;stroke-width:0.0187065" id="path2347" inkscape:connector-curvature="0" sodipodi:nodetypes="cccc"/>
    </g>
  </g>
</svg>